<svg xmlns="http://www.w3.org/2000/svg" viewBox="0 0 216.39 166.99"><defs><style>.cls-1{fill:#042d4f;}</style></defs><title>Asset 11</title><g id="Layer_2" data-name="Layer 2"><g id="Capa_1" data-name="Capa 1"><path class="cls-1" d="M3.82,22.65l3.91-5.39A.24.24,0,0,0,7.94,17H8v-.06c.64-.86.88-2,1.85-2.63a25.15,25.15,0,0,1,2.25-2.7c.48-.44,1.38-1,.9-1.6s-1.39-.06-2,.41a7.4,7.4,0,0,0-.84.84C9.05,12.45,8.49,14,7.56,15.33c-1.5,2.12-2.68,4.48-4,6.74a4.62,4.62,0,0,0-.88,2A2.77,2.77,0,0,0,3.82,22.65Z"/><path class="cls-1" d="M215.74,85c-.58-.1-.92.25-1.24.65-.84,1-1.73,2-2.5,3.1-2.41,3.27-4.64,6.66-6.91,10-3.22,4.77-5.52,10.1-9,14.7a11.81,11.81,0,0,0-.85,1.57,29.84,29.84,0,0,1-1.87,3.37,110.2,110.2,0,0,0-7.44,12.14c-.29.62-.57,1.24-.85,1.86h0l-.95,1.17a64.63,64.63,0,0,0-4.61,7l-.8,1.18-.11.16-9.65,14.36,9.65-13.46a3.29,3.29,0,0,0,.73-1l.7-1,.9-1.26.07-.1h0c1.23-1.78,2.38-3.62,3.53-5.45a2.9,2.9,0,0,0,.84-1.28,2.51,2.51,0,0,0,.86-1.22c1.47-2.24,3-4.46,4.39-6.73,3.41-5.46,6.64-11,10.22-16.41,2.91-4.37,5.6-8.9,8.77-13.1.95-1.26,1.65-2.7,2.53-4,1.22-1.8,2.49-3.58,3.81-5.31.09-.13.5-.06.45-.48S216,85.1,215.74,85Z"/><path class="cls-1" d="M186.88,144l.85-1.14c.38-.46.73-.93,1.07-1.41l0,0h0c.88-1.27,1.66-2.61,2.46-3.93.36-.53.76-1,1.09-1.58,5.21-8.41,9.79-17.21,15.59-25.26,1.39-1.92,2.62-4,3.9-6,.19-.31.56-.69.06-1s-.74,0-1,.33a56.18,56.18,0,0,0-4.26,5.45c-3.31,4.6-5.55,9.84-8.74,14.51a.94.94,0,0,0-.14.26c-.72,2.31-2.33,4.12-3.46,6.19-.52,1-1.12,1.91-1.67,2.87l-7.3,11.89-10.08,14.26,11.13-14.78A.71.71,0,0,0,186.88,144Z"/><path class="cls-1" d="M214.21,106.32c-2.83,5.74-6.79,10.8-9.86,16.39l-20.89,31.61,12-16.35a8.35,8.35,0,0,0,1.27-1.6c.2-.33.41-.66.62-1h0a48.65,48.65,0,0,0,4.2-6.77,5.24,5.24,0,0,0,1.39-1.82c.92-1.33,1.8-2.67,2.67-4l0-.06h0c3-4.59,5.68-9.31,8.62-13.9a5.23,5.23,0,0,0,.63-3.1C214.43,105.76,214.33,106.08,214.21,106.32Z"/><path class="cls-1" d="M182,143.14l-8.92,13.35,6.36-8.65c.28,0,.42-.41.53-.71l.05-.07a1.38,1.38,0,0,0,.59-.8,23.94,23.94,0,0,0,2.29-3.11h0l.82-1.28.21-.31c.22-.33.44-.66.68-1a7.39,7.39,0,0,0,1.16-1.8l.82-1.24a19.48,19.48,0,0,0,2.51-3.77c3.37-5.37,6.64-10.8,10-16.16,4.36-6.91,9.11-13.57,13.68-20.34.24-.37.89-.79.37-1.26s-1,.13-1.31.52a64.87,64.87,0,0,0-5.1,6.69c-2.16,3.2-4.24,6.45-6.31,9.71-.83,1.29-1.49,2.68-2.3,4-.38.6,0,1.41-.67,1.91-1.62,1.26-2.37,3.1-3.37,4.82-1.92,3.29-4.06,6.44-6,9.7l-5.26,8.53h0l-.81,1.27Z"/><path class="cls-1" d="M176.11,140.82c.28-.35.55-.7.81-1.06l0,0h0c1.42-1.91,2.69-3.93,4-5.94l.87-1.26a3.09,3.09,0,0,0,.86-1.25c2.82-4,5.34-8.11,7.93-12.21,1.87-3,4-5.78,5.48-9,3.19-4.11,5.85-8.58,8.81-12.85,2.68-3.87,5.3-7.78,8-11.66a3.85,3.85,0,0,0,.23-.38c.1-.23.22-.48,0-.69a.59.59,0,0,0-.81,0,3.91,3.91,0,0,0-.8.87c-1.32,1.89-2.83,3.64-4.18,5.51-3.29,4.53-6.14,9.34-9.31,14a15.2,15.2,0,0,0-2.16,4c-.47.38-.07,1.06-.57,1.46-1.9,1.53-2.85,3.73-4.07,5.76-2.21,3.67-4.63,7.22-6.92,10.85a11.45,11.45,0,0,0-1.93,3.93c-.28.42-.56.85-.85,1.27l-.93,1.17a67.37,67.37,0,0,0-4.34,6.41L161.44,159l13.62-16.89A2.08,2.08,0,0,0,176.11,140.82Z"/><path class="cls-1" d="M169.64,141.52l-14.42,21,14.87-20.7a2,2,0,0,0,.55-.77l1-1.33h0c.86-1.13,1.69-2.29,2.5-3.46h0l.26-.37,0-.06,2.88-4.17a2.06,2.06,0,0,0,.46-.66l2.25-3.25c.69-1,1.36-1.93,2-2.92l.1-.13h0c1.65-2.47,3.25-5,4.87-7.45,2.47-3.76,5.23-7.34,7.3-11.35,4.72-6.69,9.44-13.36,14.13-20.07.9-1.29,1.51-2.93,3.59-1.73a.63.63,0,0,0,.91-.25c.21-.48-.14-.72-.46-1a2.8,2.8,0,0,0-.65-.37c-.76-.27-.85-.62-.32-1.27.68-.85,1.28-1.77,1.9-2.67,1.85-2.66,1.56-3.44-1.54-4.29-.07,0-.11-.13-.22-.28.89-.66.91-2.34,2.63-2.07.25,0,.71-.61.43-.94-.57-.64-.15-1,.15-1.55a.56.56,0,0,0,0-.69c-.23-.21-.48-.07-.67.08s-.48.53-.78.67c-.92.46-1.69-.23-2.38-.58s.15-.82.38-1.18c.93-1.4,1.92-2.77,2.86-4.18.17-.25.51-.57.16-.92s-.73,0-1,.23a6.13,6.13,0,0,0-.79.89c-1,1.33-1.81,2.9-3.3,3.89a1.25,1.25,0,0,1-.1-2,15.75,15.75,0,0,0,1.34-2c.21-.34.75-.73.21-1.13s-.82.17-1.1.46c-.5.54-.92,1.16-1.39,1.74-.24.3-.6.84-.9.37-.49-.79-1.31-.52-2.05-.87l6.06-9.25c.77-1.16,1.58-2.29,2.34-3.45.23-.35.71-.8.29-1.17s-.82.26-1.21.48c-.12.06-.2.22-.29.34-1.57,2.09-3.21,4.14-4.69,6.29-1.21,1.75-2.28,3.6-3.56,5.3-.47.63-.87.8-1.41.34s-1.46-.61-.78-1.69c3-4.83,6.1-9.64,9.5-14.23.17-.23.87-.36.38-.88s-.89-.11-1.17.19a6.33,6.33,0,0,1-2.37,1.48l-1.22.32c-.27.1-.64.36-.77.27-.43-.3,0-.61.16-.85,2-3,4-5.92,6-8.9.31-.47,1.22-1,.54-1.54s-1.06.47-1.51.9a1.81,1.81,0,0,0-.28.34c-2.23,3.27-5,6.16-6.81,9.73a3.94,3.94,0,0,1-3.63,2.11c4.56-6.5,8.78-13,12.94-19.6a1.93,1.93,0,0,0,0-2.47c-.63.3-.85.89-1.19,1.36-1.45,2-2.57,4.12-4,6.13-2.9,4.2-5.77,8.44-8.38,12.82-1.08,1.81-2.15,3-4.37,2.78.12-.22.25-.48.41-.72Q203,40.12,209.73,29.5c.24-.38.47-.76.67-1.16a.58.58,0,0,0,0-.7c-.3-.28-.56,0-.76.18a3.6,3.6,0,0,0-.69.77c-1.77,2.5-3.6,5-5.27,7.53-3.09,4.73-6.18,9.47-9.07,14.33-1.08,1.82-2.66,1.94-4.51,2.36,1.08-1.67,2-3.2,3-4.67Q201.54,35.79,210,23.46a9,9,0,0,0,.66-1c.22-.46-.14-.75-.45-1s-.45.2-.61.37A19,19,0,0,0,208,23.61c-2.2,3-4.22,6.12-6.35,9.17-4.55,6.5-8.92,13.13-13.31,19.74a2.87,2.87,0,0,1-2.91,1.56c0-.44.32-.7.53-1q10.77-16.25,21.58-32.48c.57-.87.59-1.36-.36-1.76.55-.6,1.39-.55,2-.92.5,0,.84-.26,1.55-.59-.87,0-1.4-.12-1.86.27-1.36,0-2.63.8-4.36.56,2-1.76,3.9-3.4,3.34-6.59-1.42,1.58-2.76,2.8-4.8,2.4.92-1.29,1.81-2.58,2.73-3.85.29-.42.23-.69-.18-1s-.65-.19-.84.19c-.86,1.64-2.48,2.7-3.34,4.34a2.29,2.29,0,0,1-2.56,1.23l4.8-6.68c-1-.77-1.67-.4-2.23.42-1.23,1.8-2.51,3.57-3.73,5.38a5.46,5.46,0,0,1-4.85,2.55,93.4,93.4,0,0,1,6.49-9.4s.05,0,.07-.09,0-.11-.11-.15l-.47-.07a1.16,1.16,0,0,0-.65-.1l-2.73-.42A2.38,2.38,0,0,0,194,5.78c-1.83-.08-3.58-.67-5.4-.87-3.17-.36-6.31-1.08-9.48-1.42-3.37-.35-6.73-1-10.14-.73-.32,0-.77.17-1-.2a.89.89,0,0,0-1.35-.3,2.06,2.06,0,0,1-1.58.15,27.92,27.92,0,0,0-7.41-.7c-2.76,0-5.5-.31-8.25-.32-4.24,0-8.47-.79-12.72-1-1,0-2,.24-3-.37H117.3c-1.77.3-3.56.14-5.32.34-8.55,1-17.16.91-25.73,1.5-7.92.54-15.89.47-23.82,1A12.67,12.67,0,0,1,59.31,3c-2.35-.45-4.67,0-7,.19-6.34.52-12.67,1.07-19,1.4A17.57,17.57,0,0,0,30.7,5h0L25,5.36h0a72.11,72.11,0,0,0-8.2.92,22,22,0,0,0,7.31.3h0s2.36,0,4.39-.2l.19.16-.44,0a.86.86,0,0,0,.07.1,1.82,1.82,0,0,0,.53.43l.12-.2,1.14.24c.36.07.85-.43,1.06.09s-.26.82-.53,1.11c-2.43,2.56-4.27,5.57-6.37,8.37-.82,1.09-1.55,1.34-2.78.71L27,10.3c.64-.82,1.3-1.62,2-2.43.37-.46,0-.43-.31-.5l.12-.19-.17,0A2.65,2.65,0,0,0,26.05,8.3c-2,2.3-3.58,4.87-5.47,7.23-.4.5-.74,1-1.44.48s-.16-1,.07-1.41c.93-1.78,2.54-3,3.6-4.72.3-.48,1-1,.42-1.56s-1.11-.28-1.69-.1a1.72,1.72,0,0,0-1,.65c-.85,1.28-2.07,2.26-2.77,3.67a6.7,6.7,0,0,1-1.62,2.12,1,1,0,0,1-1.38.05c-.51-.45.07-.81.34-1.08.87-.9,1.39-2.05,2.23-3,.34-.37.94-.81.51-1.39S16.8,8.88,16.21,9a1.54,1.54,0,0,0-1.09.73c-.62,1.07-1.57,1.93-2.13,3-.47.94-1,1.55-2.17,1.29a1.18,1.18,0,0,0-1,.3.55.55,0,0,1,0,.22,2.63,2.63,0,0,0,.24,2.74H9.81a.83.83,0,0,1,.07.13.61.61,0,0,1,0,.51.73.73,0,0,1-.16.26,18.67,18.67,0,0,0-3.11,4.42,2.85,2.85,0,0,0-.59,2.2l0,.06A15.62,15.62,0,0,0,3.22,28.8c-.2.4-.68.72-.41,1.29.46-.12.6-.51.77-.85a36.09,36.09,0,0,0,2.9-4.06l.08,0c.71-.14,1-.76,1.36-1.26.92-1.27,1.77-2.59,2.62-3.91a2.51,2.51,0,0,1,1.69-1.29l.12,0,0,0c.76-.75,1.6-.23,2.65-.33a1.53,1.53,0,0,1-1.85.37l-.07.05a4,4,0,0,1-.36,1.55c-1.13,2.5-3,4.51-4.31,6.91-.55,1-1.3,2-1.11,3.28l0,.06a22,22,0,0,0-4,6.41c.47.15.61-.24.78-.51,1.21-1.86,2.4-3.74,3.6-5.6l.08-.13,5.91-8.85C15,19.79,15,19.79,17.32,20.26c0,0,0,.08,0,.12A14.08,14.08,0,0,1,14.72,25c-2.2,3-4.55,5.84-5.73,9.43-2.19,2.07-3.34,4.85-4.94,7.32-.16.24-.06.32.13.42.09-.09.17-.2.26-.3A49.76,49.76,0,0,0,9.23,34.6c.22-.26.46-.5.65-.77L18,22.19c.48-.69.94-1.41,2-1,.19.35.64.19.94.34a.41.41,0,0,1,.22.24,6.67,6.67,0,0,0-2.07,2.65c-1.14,2.37-3.09,4.2-4.41,6.48A30.18,30.18,0,0,0,12,36.13l-.13.11a7.86,7.86,0,0,0-1.68,2.17l-.2-.06L4.78,47c-.08-.68-.77-.53-1.2-.72l-1.2-.6V45l-1.18.34.29.59A1.31,1.31,0,0,0,1,47.13,1.66,1.66,0,0,0,1.87,46H2L2,46H2a3.58,3.58,0,0,0,1.53.64h0l1.15.5L.9,53.46l3.2-4.74c.46.14.5-.39.65-.7l.62-.63.89.35.61.26,1.35.7L4.55,54.54l2.75-4c1-.5,1.28-2.24,2.87-1.14.75.23,1.11.57,1,1L10,52.35a.69.69,0,0,0-.22.34l-.4.63a.74.74,0,0,0-.25.39l-.3.46a1.15,1.15,0,0,0-.28.43L8.29,55a1.26,1.26,0,0,0-.48.74l-.1.15a1.59,1.59,0,0,0-.56.87L5.27,59.67a1,1,0,0,0-.46.71L3.58,62.3l1.21-1.81v0c.6-.07.77-.51.9-1a1.32,1.32,0,0,0-.3.09L7.14,57a.15.15,0,0,0,0,.07,2.18,2.18,0,0,0,1-1.22h0a1.52,1.52,0,0,0,.51-.91h0A1.39,1.39,0,0,0,9.27,54a.91.91,0,0,0,.54-.92h0c.45-.12.56-.49.63-.88h-.08l.21-.31c.79-.24.75-1.43,1.66-1.54a2.44,2.44,0,0,0,1.1.55V51a1.35,1.35,0,0,1,.26,1.52L.46,72.27,12.63,55.09a.09.09,0,0,0,0,0,1.51,1.51,0,0,0,.78-1,.14.14,0,0,0,.09,0,1.43,1.43,0,0,0,1-.82c.58-1.07,1.39-1,2.33-.54a2.87,2.87,0,0,1,1.17,1,3.21,3.21,0,0,0-.59.89l-.2.28a35.49,35.49,0,0,0-4.05,5.88A21.22,21.22,0,0,0,10.49,65l-.47.7a3.29,3.29,0,0,0-.75,1.11L2.38,77.05l7-10c.61-.22.74-.74,1-1.14h0l.34-.58a22.65,22.65,0,0,0,2.72-3.87c1.17-1.7,2.42-3.36,3.51-5.13l1.11-1.57.06-.07.39-.56a1.54,1.54,0,0,0,.54-.2,1.14,1.14,0,0,1,1.49.14c.33.41-.21.78-.42,1.14a23.74,23.74,0,0,0-2.41,4.87.87.87,0,0,0,.05.28,1.64,1.64,0,0,0-.48.79,16.38,16.38,0,0,0-3,4.15L10.15,71.6l-.59.93-.6.9a1.83,1.83,0,0,0-.58,1.09c.66.11.72-.42.88-.83a1.5,1.5,0,0,0,.62-.88,1.37,1.37,0,0,0,.59-.86,45.52,45.52,0,0,0,4.2-6.19,23.46,23.46,0,0,0,2.93-4.32l.33-.26.09.09.22.22a11.73,11.73,0,0,1-.86,2.65l-.12.13,0,0A11.34,11.34,0,0,1,15.38,67a8.14,8.14,0,0,0-2.28,4.89,8.55,8.55,0,0,1-2.37,4.5,38.15,38.15,0,0,1-5.37,4.78c-.43.06-.65,0-.74-.11s0-.49.26-.84a1.47,1.47,0,0,0,.6-.86A1.25,1.25,0,0,0,6,78.51a1.41,1.41,0,0,0,.55-.94c.41-.15.51-.52.58-.89-.43.16-1,.18-.8.91-.36.18-.76.34-.63.87a1.3,1.3,0,0,0-.63.9l-.65.87h0l-.69,1.21L3,82c-1.17.56-.58,1.89-1.19,2.71.29-.18.56-.7.88,0,.14.28.19.56-.21.71s-.59.36-1,.2c-.64.54-2,1-1.31,1.92.4.59,1.75.29,2.62-.18a3.87,3.87,0,0,1,.37-.24,55.27,55.27,0,0,0,7.39-4.26L3.87,93.29l7.9-10.88a8.83,8.83,0,0,1,1.44-1.1,8,8,0,0,0,3.89-5.25A3.81,3.81,0,0,1,17.57,75a82.32,82.32,0,0,1,5.31-9.07c1.85-2.75,3.78-5.47,5.52-8.29.76-1.23,1.49-1.87,2.9-1.15.15.38-.1.66-.28,1-1.59,2.55-3.23,5.08-4.78,7.67a23,23,0,0,0-2.73,5.22c-.28.43-.56.86-.83,1.29a1.53,1.53,0,0,0-.59.9c-3.08,3.62-5.23,7.86-7.82,11.81l-.77,1.33-1.8,2.75h0l-.38.58h0l-8.64,13.4,9.37-13.46a2.13,2.13,0,0,0,1.56-.4,23.89,23.89,0,0,0,4.58-5.82c.16-.28.46-.65,0-.9s-.6.21-.81.45a17.1,17.1,0,0,1-2.55,2.69c0-.8.61-1.32,1-1.94l6.52-10.2A1.36,1.36,0,0,0,23,72a3,3,0,0,0,.84-1.26c1.05-1.2,1.59-2.75,2.74-3.87.11.44-.3.93.09,1.38.9-.22,1.23-1,1.62-1.64.53-.92.48-1.51-.82-1.25A2.65,2.65,0,0,1,29,63.53c1-.29,2.68-2.19,2.71-3.14,0-.63-.37-.42-.69-.29h0a6.44,6.44,0,0,1,1.49-2.71c.62-.75,1.46-.17,2.09.16s0,.77-.17,1.06c-2.13,3.72-4.62,7.24-6.32,11.2a1.43,1.43,0,0,0-.6.9c-3.45,4.3-6.07,9.12-9,13.76l-.11,0-15,23.29L18.51,85.33l.09.06L27.75,71a1.26,1.26,0,0,0,.61-.89c2.22-3.4,4.45-6.78,6.65-10.2,1.33-2.08,1.52-2.15,3.77-.91-2.25,3.62-4.52,7.22-6.72,10.87C31.35,71,30.6,72.18,30,73.39h0L8,106.82l9.18-13.29s0,0,0,.08c.49-.06.59-.45.74-.79a2.83,2.83,0,0,0,.87-1.23,40.51,40.51,0,0,0,3-4.46c1.7-2.56,3.58-5,5.1-7.67a2.75,2.75,0,0,0,.78-1.16l.71-1a3.15,3.15,0,0,0,.82-1.19l0-.06c.28-.38.57-.76.83-1.15l.68-1,.17-.25h0c3-4.49,5.87-9,8.62-13.67.52-.88,1-.68,1.65-.31s.81.75.35,1.47C39.65,64,37.83,67,36,70l-1.44,2.25h0L24,88.51c-1.23,1.76-2.45,3.51-3.5,5.38a3.14,3.14,0,0,0-.79,1.28L6.11,116.3l14.17-21a2,2,0,0,0,.43-.64l.86-1.27A66.4,66.4,0,0,0,25.3,87.8l.9-1.33a64.31,64.31,0,0,0,4-5.88l.61-.86a1.61,1.61,0,0,0,.61-.88,2.86,2.86,0,0,0,.86-1.28c1.08-1.59,2.2-3.16,3.24-4.78l1.25-2,0,0h0c2-3.21,4.06-6.44,6.12-9.64.17-.27.3-1.17.82-.65s1.36.08,2,.63c-.19.33-.37.67-.57,1-2.17,3.43-4.37,6.84-6.5,10.29-.91,1.46-1.68,3-2.52,4.5l-4.61,6.94q-1.34,1.92-2.59,3.9L7.4,120.05,24,95.81a1.17,1.17,0,0,0,.26.38l9.55-14.65c.28-.37.7-.68.76-1.19l.79-1.15a4.26,4.26,0,0,0,1.1-1.61l.62-.9h0C40.58,71.51,43.9,66.2,47.38,61,47,63,47.17,65.19,46,67c-2.17,3.5-4.43,6.94-6.57,10.46-.44.72-.89,1.42-1.33,2.14h0L12,120.94l10.67-16.13a4.85,4.85,0,0,0,1.44-1.89l.94-1.47c2.91-4.22,5.67-8.53,8.37-12.88l.35-.53a3.26,3.26,0,0,0,.81-1.22L35,86.2A4.8,4.8,0,0,0,36,84.79l.51-.77a3.91,3.91,0,0,0,.72-1q1.26-1.92,2.51-3.86v0h0c.43-.65.85-1.31,1.27-2l5.1-7.93c.45.37.78.84,1.2,1,1.31.36.9,1,.42,1.75a109.43,109.43,0,0,0-5.86,9.75h0l-5.08,7.75c-.28.41-.55.83-.82,1.25L10.16,130l16.78-24.9a1.19,1.19,0,0,0,0,.51,2.25,2.25,0,0,0,.8-1.21,1.35,1.35,0,0,0,.6-.9,1.3,1.3,0,0,0,.58-.86,2.92,2.92,0,0,0,.87-1.24l2.71-4.16c2.3-3.5,4.69-6.94,6.8-10.55l.11-.16a2.7,2.7,0,0,0,.81-1.19l.06-.09a3.16,3.16,0,0,0,.69-1l.54-.8a3.39,3.39,0,0,0,.63-.9L43,81.3h0c2-3,4-6,5.84-9.11a2.57,2.57,0,0,1,3.33-1.33,52.23,52.23,0,0,1-3.36,5.58c-1.47,2.28-3,4.55-4.27,6.92h0l-4.31,6.78a27.19,27.19,0,0,0-2.59,3.72C35.31,97.44,33,101,30.7,104.64h0a2.58,2.58,0,0,0-.87,1.61l.1,0c-.87.62-1.24,1.06-1.17,1.94h0L15.49,129,35.06,99.11c2-3,3.95-5.94,5.87-8.94a2.33,2.33,0,0,0,.79-1.23l1.17-1.8a4.26,4.26,0,0,0,1.31-1.8c3.36-4.76,6.48-9.69,9.72-14.68.14,1,1,1,1.62,1.31-.74,1.2-1.49,2.35-2.18,3.54-2.38,4.12-5.24,8-7.26,12.3h0l-2.93,4.6a106.09,106.09,0,0,0-6,9.37l-.26.4a32.66,32.66,0,0,0-2.67,4.19h0l0,.06L16.41,134.37l15.84-24.18a6.28,6.28,0,0,0,1.54-2.07l.84-1.31a31.6,31.6,0,0,0,2.7-4.17l7-10.83,0,0L45,90.67a3,3,0,0,0,.34-.51l.8-1.24a.3.3,0,0,0,.08-.08c.15-.25.31-.5.47-.75l0,0h0q6.44-10.17,12.86-20.34a6.23,6.23,0,0,0,1-1.48c.4-1.33,1.57-1.13,2.5-1.44.39-.13.38.68,1,.35.8-.45.9.15.64.68a21.26,21.26,0,0,1-1.44,2.43c-5.46,8.3-10.82,16.66-15.5,25.43l-2,3.12a4.1,4.1,0,0,0-.26.41L45,98a87.36,87.36,0,0,0-5.9,9.18A64.58,64.58,0,0,0,35,113.69l-15.34,24s18.56-27.67,19.8-30c1.93-3,4-5.93,5.81-9l.62-.94a2.84,2.84,0,0,0,.51-.78l3.69-5.61-.11,0q7.53-12,15-24c.38-.59.64-1.16,1.56-1.28.73-.09,1.63-1,2.18-.42.7.8-.35,1.6-.78,2.28-4.27,6.85-8.65,13.64-12.89,20.51a30.57,30.57,0,0,0-3.47,6.35A7.64,7.64,0,0,0,50.16,97a4,4,0,0,0-.94,1.42h0a27.93,27.93,0,0,0-3.07,4.32l-.61,1L18.76,144.74s19.2-28.1,19.39-28.4L41,112h0Q44.28,107,47.5,102a9.67,9.67,0,0,0,1.79-3.21,3.12,3.12,0,0,0,1.19-1.49,4.28,4.28,0,0,0,1.18-2.1,9.75,9.75,0,0,0,2.18-2.95q7.95-12.12,15.4-24.55c1.08-1.82,1.83-2.13,3.57-1.57-.09.18-.16.36-.26.53q-6.7,10.59-13.06,21.42a67.38,67.38,0,0,0-3.42,6.38c-.37.73-.75,1.45-1.12,2.17l-.66,1.13a1.54,1.54,0,0,0-.6.89,3.14,3.14,0,0,0-.87,1.25,75,75,0,0,0-5.36,8.68c-1.44,2.31-3,4.55-4.24,7l-.67,1.21L22.31,148.1l19.53-29.25a2.13,2.13,0,0,0,.49-.74l.4-.6a5,5,0,0,0,.52-.77h0a3.22,3.22,0,0,0,.28-.69,57.28,57.28,0,0,0,4.24-6.84c1.83-2.93,3.79-5.79,5.43-8.84L54,99.05l.56-.91h0L55.25,97a4.91,4.91,0,0,0,1.16-1.85c.38-.58.78-1.14,1.14-1.73,5.37-8.81,10.76-17.6,16-26.46.77-1.3,2-1.12,3-1.51a.7.7,0,0,1,.53,1.16c-.54.82-1,1.7-1.52,2.55-5.22,8.36-10.5,16.68-14.78,25.59L60,96.07l-.56.9a104.87,104.87,0,0,0-7.2,11.65,44.71,44.71,0,0,0-3.39,5.63h0l-21,35,19.81-32.06a1.4,1.4,0,0,0,.31-.51l.28-.44a2.88,2.88,0,0,0,.61-1l.63-1c1.07-1.66,2.17-3.3,3.07-5.06,2.42-3.94,5-7.82,7.18-11.87a1.63,1.63,0,0,0,.59-.91l.81-1.27c5.45-9,10.92-18,16.31-27.1.72-1.2,1.45-1.86,2.85-1.58,1.08.5.4,1.1.07,1.64-4,6.39-8,12.75-11.89,19.18C67,89.66,65.5,92,64.1,94.37L56.23,107.5c-1.73,2.59-3.3,5.29-4.89,8a50.24,50.24,0,0,0-3.64,5.83,4.83,4.83,0,0,0-.86,1.49l-.08.15a3.19,3.19,0,0,0-.74,1.17h0a2.93,2.93,0,0,0-.66,1.18,1.05,1.05,0,0,0-.52,1L34.06,145l12.45-20.82a3.65,3.65,0,0,0,.67-1.1l.13-.24a2.12,2.12,0,0,0,.7-1.16h0a54.89,54.89,0,0,0,3.64-5.65c1.75-2.78,3.57-5.52,5.27-8.34h0l3.3-5.24a1.22,1.22,0,0,0,.35-.56l.12-.19a3,3,0,0,0,.77-1.2c3.5-5.59,7-11.16,10.49-16.76,3.28-5.26,6.53-10.53,9.8-15.79.3-.49.6-1.3,1.3-.82A1.82,1.82,0,0,0,85.56,67a1.93,1.93,0,0,1,1.94-.07c-1.43,2.32-2.73,4.59-4.18,6.77-5.92,8.86-11.87,17.69-17,27h0l-4.42,6.32-.11.16,0,.05h0c-1.07,1.55-2,3.17-3,4.79l-4.48,6.86a14.58,14.58,0,0,0-2.09,3.33,3.1,3.1,0,0,0-.82,1.28l-.17.27a3.11,3.11,0,0,0-.61,1L31.1,156,52,123.56a3.12,3.12,0,0,0,.4-.62h0a2.41,2.41,0,0,0,.15-.33l2.13-3.26a61.68,61.68,0,0,0,4.47-6.87c1.24-1.66,2.41-3.35,3.52-5.09h0l1.88-2.91a1.83,1.83,0,0,0,.4-.63l.71-1.1a1.11,1.11,0,0,0,.35-.55l1.22-1.9c2.8-4.2,5.62-8.39,8.36-12.62,4.32-6.66,8.57-13.36,12.85-20a1.53,1.53,0,0,1,2.65-.18c-1.84,3-3.59,6.05-5.54,9-6.06,9.06-12.13,18.11-17.42,27.65h0l-2.63,4a5.27,5.27,0,0,0-.54.82l-.84,1.27h0c-3.8,5.38-7.23,11-10.71,16.59L52.55,128c-.11.16-.23.31-.35.47h0v0a3.52,3.52,0,0,0-.27.43l-17,26.6L53.16,128h0a3.17,3.17,0,0,0,.53-.93l11.08-17,.37-.56a4.18,4.18,0,0,0,.87-1.3l1.07-1.61a1,1,0,0,0,.33-.49l.47-.71a3.81,3.81,0,0,0,.24-.32q8-12.33,16-24.68c2.65-4.13,5.5-8.12,7.91-12.39A28.62,28.62,0,0,0,95,63.3c.62.57-.11,1.49.54,2a3.55,3.55,0,0,1-2.06,4.54c-.38.18-1,.43-.66.94.68,1,0,1.56-.41,2.23-.61.91-1.28,1.77-1.85,2.7-3.39,5.55-6.78,11.09-10.11,16.68a61.59,61.59,0,0,0-4.64,8.62l-.58.9A4.87,4.87,0,0,0,74,103.82l-.34.52c-2.48,3-4.25,6.36-6.22,9.65l-3,4.77A20.45,20.45,0,0,0,62,122.82a3.28,3.28,0,0,0-.81,1.3l-.67,1.17a1.28,1.28,0,0,0-.5.73L36.73,160.24l23.7-34a2.44,2.44,0,0,0,.35-.51h0a1.57,1.57,0,0,0,.14-.38h0a1.62,1.62,0,0,0,.59-.86,3,3,0,0,0,.84-1.24h0c.82-1.29,1.63-2.58,2.45-3.86a33.15,33.15,0,0,0,3-4.78c2.13-3.25,4.3-6.47,6.19-9.86l.36-.59a3.4,3.4,0,0,0,.93-1.7,1.47,1.47,0,0,0,.82-1C82.17,92,87.84,82.29,93.86,72.53c.18.62.86,1.06.46,1.32-.74.48-.22,1-.35,1.48a8.09,8.09,0,0,0,0,2c-.09,1.93-1.38,3.25-2.27,4.75C87.24,89.69,82.27,97,78.45,104.93a5,5,0,0,0-1.17,1.82L76.44,108a126,126,0,0,0-7.78,12.25l-3.6,5.62L44.53,155.8,63.4,129.17c.76-.28.88-.94,1.19-1.44a2.54,2.54,0,0,0,.74-1.25A53.13,53.13,0,0,0,69,120.84l7.79-12.45a2.82,2.82,0,0,0,.8-1.29,6.46,6.46,0,0,0,1.19-1.81C83.94,97.27,88.84,89.07,94,81a6.78,6.78,0,0,1-.54,4.45c-2,3.64-4.35,7.12-6.4,10.75-1.23,2.19-2.83,4.2-3.58,6.65l-.79,1.31L82,105.3a1.42,1.42,0,0,0-.59.85,2.89,2.89,0,0,0-.87,1.25,75.76,75.76,0,0,0-6,9.28c-1.82,2.93-3.85,5.73-5.46,8.79-.25.45-.51.89-.77,1.34l-.4.71-.36.56a1.33,1.33,0,0,0-.4.63L46.7,160.84l20.75-31.79a2,2,0,0,0,.68-1l.56-.87a2.45,2.45,0,0,0,.81-1.27,97.65,97.65,0,0,0,5.43-8.63c2-3.13,4.19-6.21,6-9.5a3.16,3.16,0,0,0,.83-1.26l.7-1.15.57-.86a2.64,2.64,0,0,0,.83-1.27L94,87.18a6.29,6.29,0,0,1-.7,5.44C92.15,94.4,91,96.19,89.91,98c-1.48,2.57-3.22,5-4.31,7.77a4.33,4.33,0,0,0-1.12,1.9l-.35.54a1.55,1.55,0,0,0-.59.89l-.88,1.25-.61.88c-4.19,5.95-7.88,12.22-11.67,18.42a3,3,0,0,0-.9,1.52l-18,30.43L70.93,129.8l11.49-18.15a1.58,1.58,0,0,0,.59-.9l.84-1.26.57-.91.34-.58a3.05,3.05,0,0,0,.93-1.7c.63-.23.8-.85,1.11-1.34C89,101.51,91.22,98,93.44,94.57c.16-.25.2-.75.69-.58.12,0,.23.32.23.48,0,2.55.06,5.13-1.75,7.27a15.49,15.49,0,0,0-2,3.63h0l-4,5.82h0c-.66.92-1.24,1.89-1.84,2.85l-9,14.45a3.21,3.21,0,0,0-.81,1.3L74.29,131a1.26,1.26,0,0,0-.58.9,1,1,0,0,0-.53.87L53,165l21.39-33.44.08-.12.5-.79h0a2.51,2.51,0,0,0,.25-.52,3.11,3.11,0,0,0,.84-1.24l11.4-17.68.65-1a3,3,0,0,0,.7-1.09l.62-.94a1.24,1.24,0,0,0,.4-.63l.07-.11a2.13,2.13,0,0,0,.74-1.14l.58-.9,3-4.4c.64,2.65.7,5-.92,7.21s-2.93,4.67-4.38,7a28.17,28.17,0,0,0-2.76,4.31c-.32.46-.66.91-1,1.43h0L57,165l30.44-46.2c.29-.39.55-.79.8-1.2v0h0c.35-.59.68-1.2,1-1.8l4.56-7c.14,3,.24,6-1.86,8.5q-3.48,5.75-7,11.5a3.59,3.59,0,0,0-.85,1.61,2.14,2.14,0,0,0-.82,1.22,6.36,6.36,0,0,0-.56.83l-.44.7-.1.15-13.7,21.65,13.73-21s0,0,0,.06a3.16,3.16,0,0,0,.73-1.2l0-.07a1.38,1.38,0,0,0,.55-.84,2.91,2.91,0,0,0,.91-1.52h0c.49-.25.63-.75.85-1.21.78-1.2,1.6-2.38,2.34-3.6,1.58-2.61,3.25-5.17,4.59-7.91.3.16.74-1,.92,0,.45,2.43,1,4.92-1.08,7a1.73,1.73,0,0,0-.25.53,3.87,3.87,0,0,0-.91,1.47l-1.08,1.93-.33.6a1.52,1.52,0,0,0-.57.89c-.21.39-.43.78-.65,1.17a1.16,1.16,0,0,0-.5.82l-21,34.29L88.08,132.3a1.93,1.93,0,0,0,.58-.93l.1-.15a1.64,1.64,0,0,0,.5-.81,1.34,1.34,0,0,0,.58-.93h0l.33-.55a5.45,5.45,0,0,0,1.17-1.83,4.37,4.37,0,0,0,.9-1.49l1.17-1.82c.42,0,.24.41.35.62-.35,2.52.34,5.23-1.45,7.47L73.56,163.5l19.65-32.09h.18c0,.47,0,.91.08,1.35-.23.92.07,1.91-.18,2.87l-14.6,24.22,15.54-24.77c.22.39-.07.88.12,1.27a2,2,0,0,0,1,2.59L77.9,166.37l17.28-26.2a1.54,1.54,0,0,0,.45-.17,12,12,0,0,0,.06,3.64,1.8,1.8,0,0,1-.16,1.67c-.29.3-.67.56-.51,1.12a1.47,1.47,0,0,0,.28-.16l-12.16,20.1L96,145.7a20.34,20.34,0,0,1,0,4.93l-6.75,12L96,151.23c0,.16,0,.32,0,.48.12,1.85.14,3.72.16,5.58L89.75,167l6.44-9.37c0,2.39,0,4.77.28,7.15,0,.17,0,.35,0,.52l-.73,1.18.73-1.15a1.35,1.35,0,0,0,1,1.37c.07-1,.13-2,.19-2.9v-.23l12.28-19,.46-.29h0c.4.75.77,1.34,1.08-.06.06-.24.34-.59.55-.62,1.58-.19.94-1,.54-1.77a1.4,1.4,0,0,1-.27-.91l.28-.43a1.36,1.36,0,0,0,.48-.75l3.18-4.92a.82.82,0,0,0,.32-.49l1.91-3a1.12,1.12,0,0,0,.23-.35l1-1.49h0a12.39,12.39,0,0,0,.65-1.19,10.17,10.17,0,0,0,1.5-2.38,60.84,60.84,0,0,0,4.46-7.17h0l1.17-1.54c.07-.28.33-.71.48-.6.49.37-.19.6-.24.94-1,4.23-2.11,8.44-4.75,12.07H123l-22.08,35.88,23.43-37.16.08,0a1.57,1.57,0,0,1,.14,1.7l-1.33,3.28c-1.36,2.39-3.34,4.49-3.38,7.55a16.68,16.68,0,0,1,1.19-1.45L109.4,159.65l12.95-21.75a10.17,10.17,0,0,0,2.14-3.34q.23-.54.48-1.05l3.55-6,.53-.89,0,0h0c.18-.3.35-.61.51-.92,2.19-3.13,4.33-6.29,6.25-9.61l.85-1.24.34-.54a8.82,8.82,0,0,0,1.42-2.15c.29-.41.59-.8.85-1.22q10.53-16.27,21.05-32.57c3.3-5.11,6.79-10.11,9.77-15.43.3-.44.6-.88.91-1.31,1-1.43,1.68-3.27,3.85-3.42.25.58,1,0,1.27.58l-.08.48a96.85,96.85,0,0,0-8.17,11.5c-4.86,8.12-10.51,15.74-15.45,23.82a82.79,82.79,0,0,0-5.65,9.74l-.85,1.28-.59.9a1.66,1.66,0,0,0-.61.88l-.86,1.21c-3.36,4.41-6,9.25-9,13.9a16.82,16.82,0,0,0-2.28,3.71l-.66,1.17c-.26.26-.57.5-.53.88l-22.57,38,23.67-39a1.44,1.44,0,0,0,.31-.52l.24-.39h0a20.5,20.5,0,0,0,2.21-3.41l8.92-13.76.93-1.42.58-.92a1.46,1.46,0,0,0,.61-.87,3.08,3.08,0,0,0,.84-1.26c.29-.4.59-.79.86-1.21q9.27-14.22,18.53-28.43c3.33-5.11,6.87-10.09,9.87-15.4l.93-1.32c1.12-1.66,1.85-1.84,3.79-.93-1.93,3.63-4.69,6.82-5.92,10.83a43.53,43.53,0,0,0-4,5c-2.36,3.43-4.06,7.28-6.43,10.7-4.53,6.53-8.56,13.37-12.77,20.1a30.63,30.63,0,0,0-3.59,6.64l-.36.58a1.64,1.64,0,0,0-.61.9l-.33.52a3.2,3.2,0,0,0-.85,1.27c-3.43,4.36-6,9.26-9,13.91a15.36,15.36,0,0,0-1.69,2.54h0L117,160.15l19.36-29.74h0c.45-.68.86-1.39,1.25-2.11,3.06-4.62,6.09-9.25,8.95-14a3.1,3.1,0,0,0,.85-1.23l.34-.55a1.59,1.59,0,0,0,.58-.94l.33-.53c.18-.23.39-.44.55-.69,5.43-8.58,10.89-17.14,16.29-25.74,3.34-5.33,7-10.49,10-16,2.4-3.58,4.79-7.17,7.2-10.74.82-1.21,1.56-2.6,3.43-2.25-1.86,3-3.71,6-5.61,9.06-.78,1.24-1,2.73-2.1,3.88a44.56,44.56,0,0,0-6.3,9c-1.2,2.16-2.55,4.25-3.87,6.35-5.43,8.63-10.95,17.21-15.45,26.39a3.32,3.32,0,0,0-.84,1.28l-.33.54-.85,1.26c-3.47,4.73-6.15,10-9.27,14.92a5.32,5.32,0,0,0-.77,1.18h0L119.87,163.6l19.67-31a1,1,0,0,0,.32-.5l1.16-1.85a5,5,0,0,0,.47-.73l0,0h0a6.28,6.28,0,0,0,.27-.59c3.23-5,6.28-10,9.31-15.11.28-.43.55-.87.83-1.31l.33-.54h0l.82-1.27c2.09-3.37,4.23-6.71,6.28-10.11,9.22-15.29,18.5-30.55,28.91-45.08a3,3,0,0,1,3.67-1.31,56.47,56.47,0,0,1-4.11,7.06c-.52.83-.95,1.61-2.22.79,1,1.2.37,2-.2,3-1.67,2.76-3.24,5.57-4.86,8.36a3,3,0,0,0-.57,1.81A112.86,112.86,0,0,0,173.34,85c-4.55,7.89-9.43,15.58-14.11,23.4a35.4,35.4,0,0,0-3.48,6.69h0c-.66.45-.81,1.22-1.15,1.86a1.41,1.41,0,0,0-.6.9l-.64.87a1.34,1.34,0,0,0-.34.28c-3.24,5.12-6.41,10.29-9.38,15.57l-.07.11a2.8,2.8,0,0,0-.52.81l-17.26,26.94,17.52-26.57a1.59,1.59,0,0,0,.52-.78l.61-.93h0c.16-.22.32-.45.46-.68q4.42-7.17,8.84-14.37l.59-.91a1.62,1.62,0,0,0,.58-.93,3.23,3.23,0,0,0,.92-1.71c.56-.24.73-.79,1-1.24,4-6.55,8.08-13.09,12-19.67,3.78-6.29,7.88-12.38,11.32-18.87,2-3.12,4-6.25,6-9.36.54-.83,1-2,2.52-.73-1-1.42-.4-2.39.24-3.5a3.52,3.52,0,0,1,3-1.88c.26,1.07-.37,1.81-.81,2.63a22.37,22.37,0,0,0-2.33,4.44,7.06,7.06,0,0,1-1.48,2.5A37.56,37.56,0,0,0,183,76.18a69.42,69.42,0,0,1-3.78,6.54c-4,5.79-7.52,11.88-11.19,17.87a22.58,22.58,0,0,0-2.92,5.62h0l-.36.59h0a1.61,1.61,0,0,0-.6.9l-.32.54a2.89,2.89,0,0,0-.87,1.25c-3.31,4.27-5.78,9.08-8.71,13.6a6.79,6.79,0,0,0-1.1,1.92,3.49,3.49,0,0,0-.61,1l-.19.31a1.45,1.45,0,0,0-.42.73l-.06.09a1.17,1.17,0,0,0-.47.81l-20.67,35.38,22.45-37.43a1,1,0,0,0,.08-.14l0,0h0a2.17,2.17,0,0,0,.15-.35,5.37,5.37,0,0,0,1.19-1.82c3-4.47,5.88-9.06,8.67-13.68l.85-1.25.34-.54a1.63,1.63,0,0,0,.58-1l.33-.52c.37-.53.76-1,1.1-1.57q6.8-10.86,13.56-21.72c3.1-5,6.41-9.79,9.14-15,.26-.34.52-.67.71-.93,1.68,1,1,2,.25,3.27-1.63,2.52-3.1,5.15-4.63,7.74a5.09,5.09,0,0,0-.81,2.36,39.06,39.06,0,0,0-6,8.61,37.52,37.52,0,0,1-2.86,4.86c-3.83,5.43-7.15,11.18-10.62,16.83-1,1.58-2.17,3.08-2.56,5l-.63.9-.87,1.46a3.07,3.07,0,0,0-.88,1.25c-3,3.79-5.18,8.09-7.81,12.11a3.79,3.79,0,0,0-.88,1.53l-.79,1.3c-.22.39-.44.78-.67,1.17s-.58.52-.49,1l-8.93,15.89,11.52-19.37a3.65,3.65,0,0,0,.54-.89l.36-.61h0c2.63-3.85,5.08-7.81,7.51-11.78a3.33,3.33,0,0,0,.86-1.26l.92-1.43a1.67,1.67,0,0,0,.59-.94c.18-.24.37-.46.53-.71,4.56-7.24,9.14-14.48,13.68-21.74,2.65-4.23,5.5-8.34,7.8-12.78,1.83-2.77,3.62-5.56,5.51-8.29,1.57-2.29,3.08-4.61,4.45-7,.39-.71.82-.82,1.57-.42,1,.53.29,1,0,1.42-.62,1-1.4,2-1.91,3-.26.55-1.3.27-1,1s-.25,1.33-.59,1.87c-1.06,1.67-2.26,3.25-3.3,4.94-2.12,3.45-4.71,6.64-5.9,10.6-2.92,2.84-4.74,6.41-6.85,9.82-3.93,6.34-8.07,12.56-12,18.88a18.37,18.37,0,0,0-2.58,4.8l-1,1.45L160.27,125c-2.6,3.08-4.49,6.63-6.61,10h0l-.91,1.29c-.49.61-13.33,23.93-13.33,23.93l15.47-26.1q2.85-4.39,5.71-8.8l1.21-1.75a3,3,0,0,0,.84-1.28c4.55-6.68,8.79-13.56,13.14-20.37,2.82-4.42,5.88-8.7,8.34-13.35,3.35-5.07,7-9.94,10.17-15.15.3-.49.43-1.3,1.38-.71.56.35.78-.1.47-.54-.67-1-.13-1.65.37-2.38a18.57,18.57,0,0,1,1.17-1.72c.2-.24.35-1.13.89-.46s1.81,1,1.09,2c-1.82,2.48-3.1,5.28-4.87,7.8a64.86,64.86,0,0,0-6.5,10.78,6.07,6.07,0,0,1-1.48,2.5,26.69,26.69,0,0,0-4.07,5.84,36.79,36.79,0,0,1-2.83,4.87c-3.53,4.86-6.53,10.06-9.72,15.13l-.43.67h0c-.28.44-.56.89-.83,1.34l-4.71,7.57a38.62,38.62,0,0,0-2.22,3.57c-1.22,1.81-2.51,3.58-3.64,5.45h0l-1.11,1.78a2.51,2.51,0,0,0-.38.61l-16.66,26.6,18.71-28.65a45.14,45.14,0,0,0,3.47-5.37c.57-.8,1.16-1.59,1.72-2.4h0l0,0c.28-.4.55-.81.82-1.23l2.45-3.73a2.13,2.13,0,0,0,.49-.74l3.15-4.77h0c3.05-4.66,6-9.39,9-14.09s6.06-9.06,8.59-13.9c3.29-4.73,6.62-9.44,9.64-14.35a5.35,5.35,0,0,0,.85,1c.73.5.62,1,.14,1.56-3,3.73-5.23,7.94-8,11.8a49.59,49.59,0,0,0-5,8.22,5.43,5.43,0,0,1-1.53,2.47,15.46,15.46,0,0,0-3.07,4c-2,4-4.81,7.39-7.17,11.12-2.79,4.38-6,8.5-8.12,13.28h0l-.37.59h0a2.73,2.73,0,0,0-.89,1.2,61.1,61.1,0,0,0-5.43,7.67h0l0,0c-1.05,1.69-2.08,3.39-3.14,5.07a2.09,2.09,0,0,1,.14-.17l-10.28,16.77L161,136.94h0c1.53-2.14,3-4.33,4.42-6.54a2.7,2.7,0,0,0,.87-1.23l.33-.53c.33-.42.69-.83,1-1.28q7.14-10.68,14.25-21.38a69.85,69.85,0,0,0,4.69-7.55c5.18-6.83,9.66-14.15,14.69-21.08.22-.14.7.35.67-.09-.08-1.57,1.23-2.35,1.87-3.52.15-.29.41-.53.64-.14s.74.26.45.76c-.17.3-.34.6-.54.89-2.53,3.83-5,7.67-7.61,11.48-1.61,2.38-3.17,4.78-4.55,7.3a2.54,2.54,0,0,0-.54,1.65,69.4,69.4,0,0,0-6,8.62c-3,5-6.3,9.71-9.4,14.6a16.28,16.28,0,0,0-2.53,4.83,2.88,2.88,0,0,0-.86,1.26l-.9,1.19a25.53,25.53,0,0,0-3.63,5.24c-.67,1-1.38,1.93-2,2.92l-19.92,29,20.93-29.17h0a19.35,19.35,0,0,0,1.4-2.26,47.62,47.62,0,0,0,3.6-5.31,2.79,2.79,0,0,0,.86-1.25,2.7,2.7,0,0,0,.86-1.22c3.44-4.86,6.62-9.9,9.81-14.92,2.72-4.26,5.74-8.33,8.08-12.83,4.58-6.65,9.19-13.28,13.73-20,.83-1.21,1.87-1.29,3.42-1.2-1.54,1.75-1.83,4.25-4.76,4.37,1,.72.77,1.37.23,2.12q-3.13,4.42-6.08,9c-2,3.16-4.31,6.18-6.16,9.47a4.64,4.64,0,0,0-.67,2.1h0a20.79,20.79,0,0,0-3.8,4.53c-3.43,6.26-7.95,11.8-11.61,17.9a20.38,20.38,0,0,0-2.47,4.51h0l-.9,1.5-.88,1.19c-2.8,3.17-4.82,6.88-7.23,10.32l-.25.42-.42.64a2.34,2.34,0,0,0-.66,1l-8.14,12.44,8.51-12.19a3.74,3.74,0,0,0,.71-1l.13-.21.82-1.16h0c2.43-3.21,4.67-6.55,6.86-9.92a638.47,638.47,0,0,1,1.75-2.44c3.44-4.79,6.63-9.75,9.84-14.68,2.7-4.15,5.7-8.1,8-12.47,4.75-6.78,9.54-13.54,14.23-20.37.7-1,1.09-.43,1.73-.13.91.42.66.92.22,1.49-.61.78-1.27,1.52-1.83,2.34q-4.29,6.26-8.52,12.55c-1.12,1.69-2.15,3.45-3.22,5.18a2.49,2.49,0,0,0-.53,1.8c-1.21,1.38-2.67,2.56-3.54,4.19-2.81,5.3-6.65,9.92-9.76,15h0L173.33,136h0c-1,1.49-1.9,3-3,4.45A3.07,3.07,0,0,0,169.64,141.52ZM6.57,83.24c-.38.23-.7.59-1.2.6-.35.3-.75.8-1.19.47s0-.78,0-1.17c.49-.11.56,1,1.13.24h0a1.26,1.26,0,0,1,1.25-.49c.27-.21.19-.78.76-.69C7.41,82.81,7,83,6.57,83.24Zm20.88,21.17-.05,0,.06-.09Zm.59-.89,0,0,0-.05ZM30,106.26a.14.14,0,0,0,0-.06h0ZM203.48,15.73c-.75,1.25-.94,1.35-2.51,1.47C201.39,16,202.4,15.92,203.48,15.73Zm-4.79,1.51a.42.42,0,0,1,.11.37c-.45.7-1.12.13-1.66.28A1.53,1.53,0,0,1,198.69,17.24Zm-4.46,1.24a5.32,5.32,0,0,1-4.58,2.92C190.44,19.32,192.09,18.58,194.23,18.48ZM164.41,58.33c.71-1.07,1.35-2.13,2.07-3.12,7.06-9.84,13.4-20.18,20.53-30,.3-.42.5-.94,1.12-1.12a1.4,1.4,0,0,1,1.57.46c.44.5-.11.82-.35,1.13-4.91,6.55-9.31,13.47-14.07,20.13a53.83,53.83,0,0,0-6.11,10A4.73,4.73,0,0,1,164.41,58.33Zm1.48,1.34c0,.49-.22.77-.79.83,0-.5.09-.86.59-1C165.74,59.51,165.89,59.62,165.89,59.67Zm-3.88.64c-.32-1.46-.55-3,.26-4.18,6.64-9.63,12.7-19.64,19.33-29.29,1.08-1.57,1.15-1.61,3.32-1.75C177.3,36.9,169,48.16,162,60.31ZM163.6,63c-.19.19-.27.78-.68.25a1.14,1.14,0,0,1-.14-1.34l.47.48C163.46,62.52,163.74,62.63,163.6,63ZM137.76,98.82a40.3,40.3,0,0,0-3.78,7l-.11.17-.71,1.1-.63.91-.6.87-.85,1.35-.08.12-1.09,1.35-.07.09-.11.13a7.1,7.1,0,0,1,1.09-6.66c6.54-9.92,12.88-20,19.28-30,.19-.3.35-.62.52-.93l.06-.1c.79-1.19,1.62-2.36,2.35-3.6.43-.72.86-1.13,1.84-.53l.07,0s0,0,0-.06c-.64-3,1.85-4.39,2.6-6.74,1.09,1.54,1.05,1.52.25,2.91C151.45,77.35,144.18,87.82,137.76,98.82ZM157.54,72.9c-5,7.28-9.32,14.86-13.84,22.32a34.31,34.31,0,0,0-3.76,7l-.12.14a2.61,2.61,0,0,0-.71,1.22l-.06.05a1.33,1.33,0,0,0-.22.34l-.06.14a.84.84,0,0,0-.33.48,7,7,0,0,0-1.37,2l-.07.12c-2.58,3.25-4.35,7-6.65,10.38-1.63-2.48-.25-4.45,1-6.44a.86.86,0,0,0,.14-.13,3.13,3.13,0,0,0,.69-1.13l.69-1.16a1.45,1.45,0,0,0,.57-.86,2.54,2.54,0,0,0,.8-1.17l0-.09c5.67-8.67,11-17.53,16.51-26.34,1.72-2.77,3.48-5.52,5.36-8.5A2.51,2.51,0,0,0,157.54,72.9Zm-31.06,35.31a.56.56,0,0,0,.22.24c1.27.75.44,1.45.12,2.2l-.11.09a3.38,3.38,0,0,0-.75,1.14l-.58.9-.35.53a2.91,2.91,0,0,0-.84,1.12.43.43,0,0,0,0,.12c-1.14,1.15-1.81,2.64-2.94,3.86,1-2.6,0-5.38.91-8l.22-.19a2.69,2.69,0,0,0,.58-.94l.06-.12c1.24-1.84,2.48-3.68,3.79-5.64a2.8,2.8,0,0,1,.06,3.48,1.85,1.85,0,0,0-.32.6A.9.9,0,0,0,126.48,108.21Zm-9.54-3.53a26,26,0,0,0-1.77,3.54,1,1,0,0,0-.15.14,8,8,0,0,0-1.25,2l-.72,1.15a1.56,1.56,0,0,0-.57.85,58.68,58.68,0,0,0-5.68,8.6L101.12,130a8.43,8.43,0,0,0-1.2,1.82h0l-1.19,1.87-.13-.06c-.38-.26,0-.79-.17-1.11a8.63,8.63,0,0,0,.32-1.95.05.05,0,0,1,0,0s0,0,0,0l-.08-.09a6.06,6.06,0,0,1,.82-3.77l1-1.6c.31-.46.64-.92,1-1.39.83-1.27,1.6-2.58,2.4-3.87l.12-.17c2-2.88,4.06-5.77,5.85-8.82l.85-1.26.33-.54a3.16,3.16,0,0,0,.88-1.25l.33-.52a2.8,2.8,0,0,0,.79-1.15.61.61,0,0,0,0-.12q3.75-5.66,7.51-11.3c.07-.22.25-.59.38-.48.38.32.13.72-.07,1.07C121.23,99,118.52,101.63,116.94,104.68ZM111,135.15a.5.5,0,0,0,0,.17,1.31,1.31,0,0,0-.86.87l-.44.66c-1,1-2.44,1.07-3.78,1.33l-.19,0c-.61-.1-1.21.26-1.93.17l0,0,.94-1.63v-.33a2.74,2.74,0,0,0,1.21-1.43,3,3,0,0,0,.86-1.24l.93-1.47a109.83,109.83,0,0,0,6.26-9.56q2.84-4.17,5.68-8.35l0,0,.18-.54v0c.75.43.31,1,.15,1.44,0,.05,0,.09,0,.14-.23,2.56,0,5.19-1.29,7.57l-.15.23c-2.3,3.48-4.7,6.88-6.71,10.54C111.45,134,110.94,134.42,111,135.15Zm8.63-21.83-.1.13a63.17,63.17,0,0,0-5.89,8.75l-6.25,9.6-.92,1.48a3.1,3.1,0,0,0-.82,1.28,5.42,5.42,0,0,0-.87,1.41l-.29.36a2.12,2.12,0,0,0-.21.36c-.4.17-.47.71-.69,1-.4.6-.82.92-1.54.69-.38-.43-.91,0-1.37-.2l6.75-10.81-.16,0a1.55,1.55,0,0,0,.5-1.14,44.78,44.78,0,0,0,4.12-6.08,33.44,33.44,0,0,0,2.71-4.43,80.54,80.54,0,0,0,5.11-8l.12-.08.43-.32c.06,1.22.08,2.44.21,3.65C120.6,112,120,112.58,119.66,113.32ZM97.88,119.5v1c-.11.38-.22.76-.34,1.14v1.78a1.12,1.12,0,0,1-.24-1.74l0-1.17A1,1,0,0,1,97.88,119.5Zm-.23-42.63c-.5-1.23-.26-2.29,1-3.48a19,19,0,0,1-.51,4.75,1.54,1.54,0,0,1-.73,1,.7.7,0,0,1,.35-.94A1.59,1.59,0,0,0,97.65,76.87Zm.54,14.71c-.5.16-.39-.28-.5-.5A.16.16,0,0,0,97.6,91a3.09,3.09,0,0,1,.32-1.79c-.09-1-.23-2.07.81-2.92a4,4,0,0,1-.58,2.92C98,90,98.87,90.77,98.19,91.58ZM98,101.19a15.3,15.3,0,0,1,.1-6.13A11.84,11.84,0,0,1,98,101.19Zm.1,5.2a1.14,1.14,0,0,1,0-1.13C98.32,105.59,98.25,105.92,98.05,106.39ZM97.64,85.3c-.1-1.78-.45-3.49.73-5C98,81.92,99.67,83.81,97.64,85.3Zm-.13,58,1.58-2.54a13.56,13.56,0,0,0,2.69-.92.43.43,0,0,0,.22.09c0,.17-.16.31-.23.47l-.45.79a1.19,1.19,0,0,0-.4.71l-.06.1a1.34,1.34,0,0,0-.54.79l-.14.2a1.74,1.74,0,0,0-.18.33s0,.1-.08.16c-.38.08-.4.54-.53.87a.69.69,0,0,0-.47.55l-.26.23a1.92,1.92,0,0,0-.44.65l-.15.36a6.65,6.65,0,0,0-.36.56.8.8,0,0,1-.4.32C97.49,145.84,97.29,144.56,97.51,143.34Zm22.8-38.68h0l0,0c-.25.64,0,1.38-.38,2a.8.8,0,0,0-.21.15,1.26,1.26,0,0,0-.31.54,58.69,58.69,0,0,0-5.15,7.92h0a31.59,31.59,0,0,0-2.66,4.29l-4.11,6.29-.63,1.21-.07.11-.83,1.36-.58.93a2.48,2.48,0,0,0-.58,1L104,132a3.22,3.22,0,0,0-.67.84,2.16,2.16,0,0,0-.6,1.25l-.67,1.11c-.4.3-.86.56-.82,1.18-.79,1.06-1.47,2.27-3,2.37a.76.76,0,0,1,.11.14h-.11v.84L98,139.6c0,.08,0,.15,0,.23l.19.1c.09.29.37.53.2.87h0c-.14.21-.27.42-.41.62v0c-.91-.46-.1-1.22-.31-1.8a2.45,2.45,0,0,1,.21-1.55l.33-2.46.35-.53.08-.1a4.66,4.66,0,0,0,.3-.47l.49-.74a3.43,3.43,0,0,0,.39-.6l.94-1.42h0a10.4,10.4,0,0,0,.78-1.38,103,103,0,0,0,5.66-9,92.56,92.56,0,0,0,5.57-8.67c.22-.4.67-.66.7-1.18a1.18,1.18,0,0,0,.59-.87,3.63,3.63,0,0,0,1.2-2h0c1.48-1.41,2.25-3.31,3.41-4.94.54-.75,1-1.56,1.61-2.52C120.82,102.47,120.24,103.58,120.31,104.66ZM100,105.4l.2,0v0l0-.08c.5-.26.66-.82.93-1.26Q111,88.2,120.76,72.34a5.56,5.56,0,0,1,1-1.23c-.09,2,.54,3.82-.77,5.81-3.23,4.92-6.19,10-9.23,15.07-2,3.4-4,6.81-6,10.24A10.7,10.7,0,0,0,105,104h0l-.12.2-1,1.69-.56.91-.68,1.12a2.59,2.59,0,0,0-.82,1.12.69.69,0,0,0,0,.13c-1,1-1.55,2.27-2.5,3.33C99.51,110.13,98.8,107.67,100,105.4ZM94,35.49a1.53,1.53,0,0,0-.11-.27l0-.07L94,35l0-.13,1.79-.06.21,0L94.6,37l0,0-.25.33-.33.43h0ZM71.79,40v0A29.18,29.18,0,0,0,68.53,46a3.43,3.43,0,0,1-.68,1.11c-3.43,3.72-5.61,8.25-8.21,12.51L58,62.24H58v.13h0l-.67.84c-.3-.08-.21-.38-.32-.56.3-3.53,1.84-6.52,3.74-9.46,3.49-5.4,6.68-11,10.28-16.32,1.18-1.76,1.19-1.8,3.25-1q-1.2,2-2.38,4.05h-.06Zm-14.74.61c.1-.25.12-.55.45-.68a1.17,1.17,0,0,1-.15,1.29l-.13,1.34a3.88,3.88,0,0,1-.17-2Zm5,3c1.79-2.67,3.62-5.32,5.43-8,.3-.44.53-1,1.24-.81.43.09,1,0,1.25.32s-.24.78-.44,1.14c-1.66,3-3.79,5.69-4.81,9a1.11,1.11,0,0,1-.22.38,40,40,0,0,0-6.39,9.7c-.88-1.23-.26-2,.14-2.85.15-.3.58-.58.56-.83C58.56,48.47,60.45,46.11,62.09,43.65ZM73,27.79a2.13,2.13,0,0,1,2.22.66l-1.35,1.86a5.71,5.71,0,0,1-1.81-.26l.55-2.15A2.85,2.85,0,0,1,73,27.79Zm20.09,4.74-.36,0c-.54,0-1.08,0-1.62,0h0c0-.11-.23-.14-.37-.2l2.72-4.67a4.64,4.64,0,0,0,3.48-.53Zm-.23-5.23-3.43,5a2.07,2.07,0,0,1-1.08,0l-1.43-.09,2.75-4.77-.07-.11.07-.1a5.64,5.64,0,0,1,3.18-.06A.92.92,0,0,1,92.86,27.3Zm-7,4.66c-.43.07-.92-.07-1.35,0-.53-.27-1.29,0-1.75-.44L85,27.72A3.69,3.69,0,0,1,88,27.15l.24.09a.89.89,0,0,1,.49.37Zm-4.23-.52A3.6,3.6,0,0,1,79.06,31l1.67-2.84.25-.32h0c1,.45,2.07-.15,3.07.12ZM78,30.93a4.69,4.69,0,0,1-3.14-.66l1.1-1.8c.77-.66,1.45-1.6,2.73-.68l.43.07a.9.9,0,0,1,.5.28.89.89,0,0,1,.14.25Zm-6.18,2.23a15.36,15.36,0,0,1-2.16.22c-.62.12-.71-.61-.72-1.15-1,0-1.51,1.37-2.84.83-.82-.33-.8-1-.88-1.41s.61-.89,1.24-.69c.92.29,2.1-.57,2.79.66,1.12-.25,2,.5,3.29.54Zm-1.77-3.54h-.21c-.86-.16-1.72-.3-2.64-.46.91-1.31,2.09-.84,3.21-.63l.16.05ZM68,25.48c-.22.37-.38.85-1,.8s-1.22.14-1.53-.35.3-.78.54-1.12C70.32,19,74,12.72,78,6.7c.79-1.17,1.59-1.65,3-1.24-1.24,2-2.42,4-3.73,5.88C74.1,16,70.9,20.64,68,25.48ZM66.14,28.2c.15.09,0,.34-.17.44-.39.22-.77,0-1.14,0-.18,0-.24-.14-.06-.26a.77.77,0,0,1,.28-.07A1,1,0,0,1,66.14,28.2Zm-.87,2.59c-.68,1-2.51,1.42-3.2.78a1.41,1.41,0,0,1-.25-1c0-.39.41-.4.68-.35C63.42,30.38,64.33,30.59,65.27,30.79Zm-3.2,2.7c.89.42,0,.9-.16,1.28-.43.83-1,1.6-1.46,2.42-1.15-1.08-.88-2.11-.25-3.28C60.72,33,61.46,33.2,62.07,33.49Zm-2.58-3.31a3.2,3.2,0,0,1,1.71.08C60.64,30.29,60,31.87,59.49,30.18ZM60,40.27a45,45,0,0,0,3.07-4.57c.75-1.31,1.52-2.17,3.21-1.2C63.94,38.57,61,42.36,59.2,46.84,58.9,44.57,58.46,42.33,60,40.27Zm-2.21-2.81a1.24,1.24,0,0,1-.33,1.39C57.15,38.32,57.36,37.92,57.79,37.46Zm0-3.3L58,32.41C58.24,33.28,58.25,33.73,57.77,34.16ZM74,33.92c-.45.13-.71-.25-1-.51a.1.1,0,0,0,0,0l.56-.91a1.45,1.45,0,0,1,.61.1,4.26,4.26,0,0,1,1.64.93c.11,0,.25.05.36.09l-.39.56a3.93,3.93,0,0,1-.31-.38A3.36,3.36,0,0,0,74,33.92Zm3.37-.12c.78.08,1.57.19,2.35.3l-.35.5c-.73,0-1.47.06-2.2.07a1.05,1.05,0,0,1-.3,0Zm4,.1a7.7,7.7,0,0,1,3-.31,1.75,1.75,0,0,1,.38,0l-1,1.4a9.22,9.22,0,0,0-3-.1Zm4.55.1a12.05,12.05,0,0,1,2.13.32l-.77,1.12a4.93,4.93,0,0,1-1.67,0,1.62,1.62,0,0,1-.45-.12Zm3.67.34a4.18,4.18,0,0,1,2.21.09l-.9,1.27a5.75,5.75,0,0,1-2.41.7h-.1ZM98,26.93l0-.06h0L99,26.58h0a1.47,1.47,0,0,0,1.41.2c.48-.1.71,0,.81.1l-3.87,5.91h0a.08.08,0,0,0,0,0h0l0,0c-.8-.39-1.82.18-2.56-.46Zm46.81.58-.19.29a1.12,1.12,0,0,0-.38.4,2.75,2.75,0,0,1-.32.44L140.1,29l.65-1.15a11.73,11.73,0,0,1,2.78-.73c.33.2.8-.09,1.1.19a.59.59,0,0,1,.13.17h0Zm21.46,2.86A2.76,2.76,0,0,1,169,29c-2.86,5.52-6.74,10.29-10,15.43-1.16-.65-1.2-1.29-.46-2.36C161.19,38.21,163.73,34.31,166.22,30.37Zm-.22-4.1a2.58,2.58,0,0,1,1.33-.49c-.15,1-.7.88-1.29.7C166,26.47,166,26.34,166,26.27Zm5.27,2.55c.69-1,1.89-.9,3.17-1.25-5.13,7.75-9.83,15.39-15.11,23-.44-1.31-.79-2.61-.12-3.64C163.17,40.81,167.22,34.82,171.27,28.82Zm-1.72-3c.42-1.27,1.67-.9,2.62-1.54C171.8,26,170.82,26.15,169.55,25.79Zm4.09,0c.56-1.9,2-2.52,3.83-2.67C176.63,24.69,175.81,26.13,173.64,25.76Zm5.5,1c.56.67-.21,1.07-.49,1.52-5.69,8.84-11.39,17.68-17,26.41-1.84-1.46-1.41-2.93-.08-4.75,5.23-7.18,9.61-14.93,14.84-22.12.28-.39.44-.93,1-1S178.6,26.08,179.14,26.74ZM124.12,74a83,83,0,0,1,4.36-7.17,1.21,1.21,0,0,1,1-.59c1.31-.15,2.62-.37,4.12-.59-1.66,3.16-3.4,6.09-5.22,9-.15.3-.29.61-.61,1.26V74.29C126.57,73.83,125.32,74.16,124.12,74Zm2,28.52c-1,2.18-2.76,4-3.53,6.31l-.11.13-.32.38-.37.44c-.31-1.29.28-2.55.16-3.83,0-.14,0-.27,0-.4a10.39,10.39,0,0,1,1.59-3.7l.05,0,0,0,3-4.54c.43.3.65.62.34,1.1-.11.16-.28.35-.26.51A7.7,7.7,0,0,1,126.13,102.48Zm-5.42-10.06q-3.46,5.34-6.82,10.75a19.46,19.46,0,0,0-1.09,2.41l-.14.12a3.51,3.51,0,0,0-.71,1.11l-.35.54h0l-.85,1.25-.35.53a2.85,2.85,0,0,0-.89,1.24,72.54,72.54,0,0,0-5.88,8.84l-.07.12h0l-4.28,6.36a8,8,0,0,1,1.29-5.79l.2-.27A14,14,0,0,0,102.4,117c1.88-2.72,3.76-5.43,5.37-8.32.29-.41.57-.83.85-1.24l.34-.55a2.9,2.9,0,0,0,.79-1.16,1,1,0,0,0,0-.1c3.9-5.88,7.74-11.8,11.42-17.83.14-.25.39-.86.51-.11a3,3,0,0,1-.2,2.16A4.27,4.27,0,0,1,120.71,92.42Zm2.35,8.72-.14.09c-.22.11-.28-.09-.28-.32,0-1.9,0-3.77,1.23-5.37.79-1,1.21-2.24,2.15-3.12l.09.15a3,3,0,0,0,.13-.36l.85.81C126.29,96.06,124.63,98.58,123.06,101.14Zm-22-11c3.11-4.46,5.84-9.18,8.74-13.8l.09-.14a71.17,71.17,0,0,0,4.24-6.61c1.06-2.11,2.58-2.61,4.94-2.29-2.4,3.74-5,7.25-7.11,11l0,0c-3.19,4.66-6.07,9.51-9,14.35a36.12,36.12,0,0,0-3.11,5.42c0-.19,0-.37,0-.55v-.09C100,95.06,99.35,92.58,101,90.17ZM98.45,53.08c-.68-3.8,2.25-6.16,3.65-9.13.34-.71.93-1.3,1.25-2,.84-1.93,2-3.31,4.34-3.12v.07l0-.07c-.12,1.09-.94,1.81-1.44,2.69-1.3,2.26-2.82,4.39-4,6.74l0,0a67.8,67.8,0,0,0-3.57,6.26C98.3,54.12,98.67,53.54,98.45,53.08Zm4.82-18.15,2.52-.06c.18,0,.43,0,.41.26,0,.11-.16.21-.24.32-.86-.71-1.86.59-2.71-.2l-1.28.07.28-.48C102.59,34.81,102.94,34.93,103.27,34.93ZM101,39.47c.59,0,1.18-.07,2-.12-1.48,2.54-2.83,4.86-4.19,7.18l-.34-.07V42.1A2.28,2.28,0,0,1,101,39.47Zm15.14-4.95-4.74.68C112.33,34,114.53,33.73,116.16,34.52ZM113,38.35c-1.61,2.8-2.77,5.55-6.35,5.63.92-1.55,1.81-3.08,2.74-4.59C110.25,38.06,111.63,38.68,113,38.35Zm-6-2.81h-.46l.3-.66.26,0a13.54,13.54,0,0,1,3.87-.11A10.82,10.82,0,0,1,107,35.54Zm2,9.18c1.66-.48,3.41-.06,5-.88.09-.94.52-2.05-1.07-2.14,1.26-2.1,2.16-4.7,5.6-3.61-1,1.63-2.09,3.34-3.2,5A2,2,0,0,0,115,45c1.67,1.6,3,3.3,3.08,5.83a39,39,0,0,1,.3,5c-.37,4.48-2.59,5.37-6,5.88a7.91,7.91,0,0,1-8-3.38C100.62,53.33,103.86,46.19,109,44.72Zm15.7-10.78a1.16,1.16,0,0,1,1,0L125,35l.28.29c-1.29.49-2.66.28-4,.46A8.84,8.84,0,0,1,124.72,33.94Zm6,.23-.72,1,.18.18c-.42.28-1,.06-1.48.09h0a3.19,3.19,0,0,0-2-.22h-.22l.67-1.23A5.42,5.42,0,0,1,130.68,34.17Zm8.4-1.39.13.09.18-.12.81,0h0a1,1,0,0,1,1.26-.08l0,0-.07,0,0,0a.45.45,0,0,0-.14.32l-.06.1-.07,0h-.14c-1.31,1-2.6,2.06-4.3,1.89l1.08-1.91A4.89,4.89,0,0,1,139.08,32.78Zm8.41,3.35L144.79,40c-.19.28-.36.58-.55.86l-.11.16a102.45,102.45,0,0,0-9.22,14.18c-1.71,3.34-4.44,5.82-6.35,8.94-.61,1-1.81.47-3,.67.67-1,1.26-1.77,1.76-2.59,5.09-8.48,11-16.43,16.56-24.57.2-.29.36-.6.53-.9h.11s0-.08,0-.13c.67-.58.79-1.73,2-1.84.41,0,.87-.48,1.2,0A1.14,1.14,0,0,1,147.49,36.13Zm-1.3,9.75a14.53,14.53,0,0,0-1.71,2.76l-.07.11A63.82,63.82,0,0,0,139,58.12a20,20,0,0,1-4.36,5.78c-.87.89-2.81.56-4.28.59-.26-.54.2-.77.37-1.06,4.27-7.16,9.22-13.85,14-20.64.19-.28.35-.58.51-.87l.08-.15,2-2.66C147.63,41.57,148.12,43.89,146.19,45.88ZM125.7,78c.18.24,0,.65-.23,1-.77,1.19-1.51,2.4-2.4,3.82,0-2.52,0-4.76,0-7a2.65,2.65,0,0,1,1-1.75c.26.41.75.35,1.12.54a.71.71,0,0,1,.43,1A2.31,2.31,0,0,0,125.7,78Zm-2.17-5.22-.28.66c0-.26,0-.52-.08-.78a1,1,0,0,1,0-.31v0a8.59,8.59,0,0,1,.09-3.64c.48-2,2-2,3.79-2Zm22.1-40.27c-1,.16-2,.2-3,.42l.48-.9a16.13,16.13,0,0,1,3.24-.54Zm-17.59,5c-2.67,4.14-5.15,8-7.61,11.79a1,1,0,0,1-1,.5c-.46,0-.28-.55-.45-.83a2.12,2.12,0,0,1,.26-2.56c1.77-2.63,3.47-5.32,5.2-8C125.33,37,126.66,37.93,128,37.46Zm-5.77,17A8.09,8.09,0,0,1,120,58.59c0-.66,0-1.2-.09-1.73C119.56,54.36,119.55,54.37,122.27,54.48Zm-.27-5,6.08-9.15.42-.62c1.49-2.39,1.49-2.39,4.5-2.4.11.51-.3.79-.52,1.14-1.91,2.95-4,5.79-5.7,8.88C125.66,49.39,124.1,49.52,122,49.48Zm13-12.06c.5-.85,1.65-.61,2.45-.5.55.07,0,.63-.17.92-2,3.3-4,6.58-6.07,9.87-.49.8-.74,1.92-1.44,2.37s-1.48-.77-2.61-.62C129.66,45.17,132.6,41.47,135,37.42Zm0-2.4-3.32.41.82-1.42c.95,0,1.89.38,2.84.41l-.37.56Zm-12.4,2.62c.39,0,.46.28.14.56-1.49,2.33-3,4.67-4.48,7-.17.25-.21,1.14-.84.58-.42-.38-1.48-.64-.84-1.57,1.4-2.07,2.45-4.37,4-6.33C121.2,37.47,121.9,37.68,122.57,37.64ZM118.18,36a2.65,2.65,0,0,1,2,0Zm-9,39.7c-3.14,3.9-5.47,8.34-8.29,12.45-.24.36-.46.74-.87,1.4,0-2.86-.52-5.32,1.26-7.7,2-2.63,3.53-5.58,5.27-8.39l.15-.22a23.49,23.49,0,0,0,2.27-3.5c1-2.27,2.76-2.53,5-2.23l-4.81,8.19h0Zm-1.87-10.18,1.38-2.24.85-.06,1.7.41C110,66,109.89,66,107.34,65.52Zm4.54,0c.72-2.39,3-2.11,4.91-3.09C115.72,65.59,114.94,66.05,111.88,65.57Zm-5.29-3.46c.85.48.79.79.33,1.52-.82,1.3-1.39,2.9-3.55,1.84.55-1,1.16-1.91,1.66-2.91C105.42,61.77,105.76,61.64,106.59,62.11Zm-1.49,7c.59-1.4,1.89-1.15,2.94-1.23.73,0,.36.59.15,1-.71,1.28-1.44,2.57-2.17,3.85l-.08.14-5.86,8.89c-.21-2-.52-3.89.71-5.67s2.19-3.53,3.28-5.31c0,0,.07-.11.11-.17A7.7,7.7,0,0,0,105.1,69.08Zm11.67-3.41,2.67-4.37c1.1-1.82,2.19-3.66,3.31-5.47s1.87-2,4.16-1.1a74.44,74.44,0,0,0-6.27,9.91,1.2,1.2,0,0,1-1.15.72A26.71,26.71,0,0,0,116.77,65.67ZM127.94,55.1a3.57,3.57,0,0,1,1.64-1.21,1.65,1.65,0,0,0,1-2,2.48,2.48,0,0,1,.57-2.18c2.85-4.24,5.72-8.47,8.53-12.73.7-1.06,1.82-1,2.76-1.05.79,0,.2.61,0,.91-2.29,3.42-4.65,6.79-6.87,10.26a69.8,69.8,0,0,0-4.46,7.7c-.93,2-2.68,3.54-4,5.33a24.87,24.87,0,0,0-2.36,3.43,2.71,2.71,0,0,1-3.12,1.57C123.79,61.73,125.87,58.42,127.94,55.1Zm-2.86,26.61c.18-.3.67-.37.65,0,0,1,.84,1.86,0,2.87s-1.5,2.15-2.27,3.27C122.06,85.15,124,83.56,125.08,81.71Zm3-4.72c2.34-3.62,4.68-7.24,6.95-10.9A2.57,2.57,0,0,1,137,65l1.21,0a131.46,131.46,0,0,1-8.32,13.17c-.33.43-.52,1.23-1.33.64C127.9,78.38,127.49,77.85,128.05,77Zm8.4-13.17c1.42-2.34,2.71-4.56,4.09-6.74,1.59-2.5,3.24-5,4.87-7.44l0,0c.68-1,1.37-2,2.31-3.32a4.72,4.72,0,0,0,.43,2.7c.32.53-.07.83-.27,1.19-.65,1.15-1.32,2.3-2,3.44a2.39,2.39,0,0,1-.13.28c-1.38,3-3.51,5.43-5.38,8.07A4.09,4.09,0,0,1,136.45,63.82Zm10.79-31.6.88-1.39a11.2,11.2,0,0,1,3.78-.69,1.25,1.25,0,0,1,0,.38.94.94,0,0,1-.36.63,5.59,5.59,0,0,1-.61.44h0C149.64,31.3,148.52,32.26,147.24,32.22Zm3.23,11.07a3.77,3.77,0,0,1-.05-.57c0-.25-.1-.67.37-.56.27.06.27.35.15.6l-.24.52c1.08.79,1,1.57-.09,2.39A5.35,5.35,0,0,1,150.47,43.29Zm.49,4.89c.19-.43.36-.9,1.07-.62s.5.73.26,1.14a5.06,5.06,0,0,1-1.22,1.7C151,49.61,150.62,48.9,151,48.18Zm2,2.25c1.15,1.76.87,3.46-.91,5.46C151,52.71,151,52.71,153,50.43Zm1.1-4.45c-1-2.06.54-2.95,1.23-4.22C156.43,43.65,154.76,44.54,154.08,46Zm2.19-.51c.6,2.46.6,2.46-.92,4.5C153.87,48.23,155.07,47,156.27,45.47Zm-2.82-4.12a3.73,3.73,0,0,1,.82-5C154.49,38.17,155.43,40,153.45,41.35Zm1.05,12.32c-.05,2.58,1.16,5.27-1.23,7.3C151.9,57.69,152,56.93,154.5,53.67Zm.89,5.78c-.13,1,0,1.74,1.06,2.08.7.22.85.69.3,1.35-.76.91-1.42,1.9-2.16,2.9C153.17,63.43,153.19,61.32,155.39,59.45Zm1.89-9.6c.06,1.26,1.13,2.42.21,3.79C156.76,52.39,155.06,51.27,157.28,49.85Zm1.14,4.92c.43,1.86,1.73,3.67.19,5.85A6.7,6.7,0,0,1,158.42,54.77Zm-1-13.87a1.62,1.62,0,0,1-.14-2.17c1.76-2.63,3.47-5.3,5.16-8a2,2,0,0,1,2-.93h0A101.68,101.68,0,0,1,157.43,40.9Zm-.62-4.26c-1.33-3-.9-5.4,3.5-5.64A44.22,44.22,0,0,1,156.81,36.64Zm-.71-6.8-.94.23c-1.11.27-2,1-3.2,1.18l.18-.33.26-.45.17-.31a3.56,3.56,0,0,1,2-.4h0a2.8,2.8,0,0,1,1.56-.24c.35-.09.68-.4,1.1-.13C157,29.89,156.51,29.83,156.1,29.84Zm-6-2.17.32-.5a4.08,4.08,0,0,1,1.65.13C151.41,27.39,150.8,27.85,150.1,27.67Zm-.73-.23-.16,0h.14l-.29.38a28.33,28.33,0,0,1-4,.61l.76-1.42a5.41,5.41,0,0,1,3.61.33Zm-10.62,1.87c-.77.16-1.57.19-2.35.33l0-.06a.47.47,0,0,0-.46-.24,2.33,2.33,0,0,1-.78.06l1.15-2c1.15,0,2.25.53,3.41.5h0Zm-4.86.15a7.59,7.59,0,0,1-4.64.72l.65-1.2a2.89,2.89,0,0,0,.32-.6l.64-1.17c1,.29,2-.11,3-.08.49,0,1.07-.24,1.49.18Zm-6.17,1.26a2.13,2.13,0,0,1-.68.06,2.56,2.56,0,0,0-1.69.32c-.31-.07-.68.1-1-.07l1-1.85a2.47,2.47,0,0,0,.19-.36l1-1.86c.65-.6,1.58.17,2.3-.07h0c.31.18.78.19,1.07.39Zm-4.42.35-3,.32c-.36-.23-.87.18-1.23,0l1.56-2.93a3.41,3.41,0,0,0,.32-.6l.61-1.15.06-.07a9.37,9.37,0,0,0,3.73-.07c.41-.05.64,0,.74.11ZM121,26.59l-3.17,5L114,32.2a3.26,3.26,0,0,1-.52,0l3.13-5.88a.75.75,0,0,1,.07-.12c1.08-.42,2.21.18,3.29-.15h0l.85.17A.36.36,0,0,1,121,26.59Zm-8.68,5.71a2.18,2.18,0,0,1-.7.13c-1.06,0-2.12.14-3.18.21l3.3-6.19c1.32-.41,2.62-.93,4.05-.47h0a.85.85,0,0,1,.27.37Zm-5.14.49.07.07-.07,0h-.8c-.8,0-1.61,0-2.41,0a1.35,1.35,0,0,1-.54-.08L107,26.56c1.38,0,2.75-.47,4.13-.07Zm-5.4.1a3,3,0,0,1-.59,0,8,8,0,0,0-1.47,0c-.23-.15-.55,0-.82,0L102.11,27l-.12-.18.12-.25a8.26,8.26,0,0,0,3.86.08Zm-4,2h2.66l-1.25,1.84h-.38a19,19,0,0,0-2-.08Zm3.39,17.91c.52-.67.39.12.53.27v.12c0,1.28-1.13,2.61.29,3.84.32.28-.23.6-.4,1a.3.3,0,0,0,0,.16,42.23,42.23,0,0,0-3.37,4.71C97.38,59,98.82,55.78,101.11,52.83ZM98.86,64.16h0a29.25,29.25,0,0,0,3.2-5.35.37.37,0,0,0,.18-.15c.16-.21.28-.51.69-.07.65.69.87,1.65,1.62,2.26.34.28-.1.5-.23.71a27.62,27.62,0,0,0-1.82,2.69,1.82,1.82,0,0,1-2.08,1.16l-.16,0C100,64.79,98.39,65.68,98.86,64.16Zm2.65,4.25.16,0c.8.17,1.6-.14,2.47,0L103.37,70l-.07.15c-1.32,1.63-1.93,3.72-3.57,5.38C99.51,72.8,99.76,70.42,101.51,68.41Zm-.77,29.5c4-6.12,8.1-12.23,11.78-18.58l.13-.21c2.29-3.55,4.62-7.08,6.82-10.68a2.42,2.42,0,0,1,3.07-1.25c-1.65,2.79-3.17,5.54-4.9,8.19-5.27,8-10.23,16.28-15.07,24.6-.94,1.61-2.15,3.1-2.61,5-.06-.07-.11-.06-.17,0s-.39.82-.38.1C99.46,102.62,99.23,100.21,100.74,97.91Zm-.34,14.57a20.66,20.66,0,0,0,1.72-2.93l.12-.13a2.46,2.46,0,0,0,.67-1.14c.2-.4.64-.65.67-1.15a1.2,1.2,0,0,0,.61-.87,5.8,5.8,0,0,0,1.1-1.72l.06-.13c5.3-8.26,10.27-16.72,15.36-25.11a6.33,6.33,0,0,1,1-1.28c0,3.25.62,6.4-1.59,9.48-3.25,4.55-5.94,9.49-8.84,14.28-.63,1-1.13,2.16-1.69,3.24l-.19.31-.7,1.18-.35.51a3,3,0,0,0-.86,1.27,62.29,62.29,0,0,0-5.36,8.09,14.72,14.72,0,0,0-1.76,2.83l0,.11-1.15,1.57C99.21,117.86,98.3,115,100.4,112.48ZM126.33,89.3c-.15.24-.25.52-.38.78h-.29s0,.08,0,.12c-.84.4-.71,1.42-1.14,2.08a11.72,11.72,0,0,1-1.32,1.83,5.64,5.64,0,0,1,.64-4.41c5.26-8.18,10.59-16.32,15.87-24.48.57-.89,1.36-1,2.5-1.12l-1.86,3.19-.09.15h0c-1.24,2-2.44,4-3.72,6C133.16,78.76,129.74,84,126.33,89.3Zm14.73-26c1.88-3.06,3.65-6,5.41-8.85l.1-.15L149,51a3,3,0,0,1-.26,3.5,5.67,5.67,0,0,0-1.36,3.05l-.06.08c-1.23,1.57-2.51,3.12-3.68,4.73C143,63.26,142.13,63.1,141.06,63.3Zm6.63-5.37.05-.08,2-2.79c1.39,2.56-.86,7-3.73,7.62l-.05,0a1.07,1.07,0,0,0-.4,0c-.19,0-.38,0-.47-.28Zm-1,7.74c1-1,1.43-2.44,2.54-3.37l.09-.29a9.6,9.6,0,0,1,1.47-2.35c1.08,2.15,1,3.94-.69,5.68a15.42,15.42,0,0,0-2.68,4l-.15.25c-3.6,6.18-7.72,12-11.6,18-2,3.08-3.95,6.19-5.94,9.27-.23.35-.31.85-1,1-.16-1.94-.2-3.77.88-5.51,5.39-8.63,10.83-17.23,16.46-25.71a8.73,8.73,0,0,0,.51-.9l.09,0S146.67,65.7,146.66,65.67Zm-16.19,32c5.85-8.68,11.44-17.53,17.12-26.32a9.42,9.42,0,0,0,.47-.89h0v0L152,64.84c1.05,1.9,1.36,3.67-.13,5.52a24.73,24.73,0,0,0-1.93,3.33h0l-.09.15c-6.67,10.26-13.47,20.43-19.69,31-.2.33-.42.65-.8,1.25C129.15,103,128.66,100.4,130.47,97.71Zm28.78-31.22,1.16,1.73c-.9.06-1.57.65-2.48.29Zm.56-3.31c-1.32-1.08-1-2.15.08-3.24C160.41,61.06,161.16,62.13,159.81,63.18Zm1,1,.45-.49c.14.39.23.61.31.83.15.45.5.91.1,1.36-.16.2-.44,0-.62-.16C160.67,65.21,160.28,64.75,160.83,64.14Zm18.93-41.29c.4-.92,1.33-.78,2-1.06.28-.1.74-.35.93.07s-.32,1-.46,1C181.44,22.86,180.59,23.76,179.76,22.85Zm5.05-.52c.46-1.78,1.8-2,3.22-2.21C187.4,22.2,186.86,22.56,184.81,22.33ZM194.6,6.85a3.31,3.31,0,0,0,.63,0,2.58,2.58,0,0,1,2,.31,1.88,1.88,0,0,1,.25.24c-1.33.88-1.92,2.35-2.81,3.58-1.27,1.77-2.44,3.61-3.61,5.44-.84,1.32-2.08,1.69-3.7,1.78Zm-1.7-.16c-2.7,4-5,8.09-7.91,11.88-.73,1-1.93.81-3.25,1.32,1.59-2.5,3-4.73,4.4-6.93,1.11-1.7,2.34-3.32,3.38-5.07C190.31,6.56,191.23,6,192.9,6.69ZM187,6c.63-.05,1.47-.17,1.81.34s-.43.84-.77,1.23a34.73,34.73,0,0,0-3.88,5.6c-1.43,2.45-3.29,4.58-4.78,7-.61,1-1.64.92-2.81,1.11,2.69-4.07,5.26-8,7.85-11.89.57-.86,1.17-1.71,1.77-2.56C186.45,6.47,186.61,6,187,6Zm-2.11-.18c-1.66,2.54-3.19,5.13-5,7.54-1.92,2.59-3.71,5.26-5.45,8a2.78,2.78,0,0,1-2.84,1.34c3.52-5.32,7-10.5,10.38-15.73A2.19,2.19,0,0,1,184.93,5.8Zm-3.84-.3c-1.73,2.67-3.32,5.42-5.21,7.94-2.14,2.86-4,5.87-6,8.87a2.93,2.93,0,0,1-2.59,1.51c2.21-3.31,4.48-6.56,6.59-9.91,1.61-2.56,3.33-5,5-7.58A1.65,1.65,0,0,1,181.09,5.5Zm-3.82-.37c.54.28.16.55,0,.81-1.71,2.61-3.3,5.32-5.17,7.82-2.19,2.9-4,6-6.08,9-1.29,1.91-1.62,2.11-4.29,2.28,4.12-6.59,8.24-13,12.48-19.25A3.13,3.13,0,0,1,177.27,5.13Zm-3.92-.2c-1.54,1.79-2.36,4-4.11,5.6a4,4,0,0,0-.63.83c-2.79,4.26-5.67,8.47-8.34,12.82a2.67,2.67,0,0,1-3.52,1.33c4.53-6.56,9-13,13.39-19.45A2.37,2.37,0,0,1,173.35,4.93ZM165.1,6.41c1.1-1.68,2.24-2.73,4.41-1.78-.86,1.77-2.36,3.05-3.46,4.6-3.39,4.76-6.74,9.56-10,14.42-.95,1.42-1.91,2.18-3.65,1.62a.59.59,0,0,1,0-.31C156.87,18.91,161,12.66,165.1,6.41Zm-.38-2.1c-4.46,6.48-8.91,12.8-13.2,19.23a3.59,3.59,0,0,1-4.09,1.77c-.08-.54.34-.81.59-1.16,4.06-5.8,7.94-11.73,11.57-17.82C160.87,4.19,162.37,3.68,164.72,4.31Zm-5.79.19c-1.12,1.83-2,3.59-3.19,5.16-3.38,4.49-6.06,9.43-9.33,14-.82,1.14-1.59,1.84-3.15,1.28,4.29-6.57,8.53-13,12.73-19.54C156.72,4.25,157.68,4.45,158.93,4.5Zm-5.45.16a3.74,3.74,0,0,0,1.16,0c-3.39,5.09-6.75,10.13-10.09,15.17a27.12,27.12,0,0,0-2,3.14c-.85,1.74-2.1,2.35-4.12,1.67,1-1.58,2-3.11,3-4.64,3-4.65,6.1-9.27,9.08-14C151.28,4.89,152,4.17,153.48,4.66ZM148.68,4a10.22,10.22,0,0,0,1.4.23,2.74,2.74,0,0,1-.91,1.61A20.49,20.49,0,0,0,146.06,10c-2.77,4.16-5.6,8.29-8.19,12.56-1.08,1.78-2.18,2.65-4.35,1.71l3-4.66c3-4.76,6.1-9.49,9-14.31A2.42,2.42,0,0,1,148.68,4Zm-4-.11c.16.47-.17.78-.44,1a15.6,15.6,0,0,0-2.66,3.56c-3,4.62-6,9.23-8.86,13.9-.8,1.29-1.59,2.1-3.29,1.27,3.59-5.73,7-11.56,10.7-17.15.14-.21.27-.42.4-.63C142,3.66,142,3.66,144.71,3.89Zm-8.34.26a1.13,1.13,0,0,1,1.23-.56l2.71.31c-1.14,1.56-1.83,3.26-3.15,4.56a5.61,5.61,0,0,0-.81,1.06c-2.5,3.93-5.12,7.79-7.44,11.82-1.07,1.85-2.17,2.77-4.42,1.92C128.47,16.85,132.26,10.4,136.37,4.15Zm-4.75-.89c1.17,0,2.37-.23,3.5.31-.79,1.85-2.24,3.19-3.28,4.8-3,4.66-5.94,9.38-8.84,14.11a2,2,0,0,1-2.12,1.19l-.11-.08,0,0-1.32-.4c4-6.76,8-13.36,12.17-19.92l.08.09A1.21,1.21,0,0,0,131.62,3.26Zm-1.66.1c-1,2.35-2.83,4.12-4.15,6.24-2.39,3.82-4.89,7.58-7.1,11.51-1,1.85-2.23,2.9-4.59,2.61,3.56-5.93,7-11.91,10.42-17.85C125.92,3.5,127.59,3,130,3.36Zm-8.05,0a1.66,1.66,0,0,1,.22,0h0c.72,0,1.43.08,2.15.1h0l.13,0a5.5,5.5,0,0,1-1.58,2.82,24.41,24.41,0,0,0-2.36,3.41c-2.55,4.25-5.15,8.47-7.53,12.82a3.56,3.56,0,0,1-3.7,2c0-.66.46-1,.73-1.46q5.82-9.6,11.67-19.18A4.16,4.16,0,0,0,121.91,3.31Zm-4.28-.18.33,0h.16a16.65,16.65,0,0,1,2.23.2h.09q-6.64,10.16-13,20.52c-.78,1.29-2,.36-3.29.92C108.73,17.22,113.06,10.09,117.63,3.13Zm-3.95.26h.12a2.32,2.32,0,0,1,2.06-.24H116a25.37,25.37,0,0,1-3.14,4.9,21.11,21.11,0,0,0-1.37,1.75c-2.79,4.45-5.61,8.89-8.33,13.39a2.43,2.43,0,0,1-2.92,1.42l13.36-21.2Zm-4.92.53c.46-1,1.33-1,2.24-1,.53-.15,1.15-.73,1.43.3h0a.6.6,0,0,0-.23,0h0v0h0s0,0,0,.06c-4.57,6.41-8.87,13-13,19.74-.83,1.37-1.71,2.25-3.5,1.78L108.65,4.1Zm-3.37-.33a2,2,0,0,1,2.24,0c-.06.08-.12.17-.19.25-4.92,6.35-8.72,13.43-13.11,20.13a1.87,1.87,0,0,1-2.43.91c.58-.88,1.14-1.69,1.66-2.52Q99.35,13.18,105.11,4Zm-4.2.61c.38-.24.58-.78,1.15-.67a1.59,1.59,0,0,1,1.73,0,.15.15,0,0,1,.09.06l-.14,0-.14,0-.11.16c-2.47,3.61-4.88,7.27-7.3,10.91-2,3-3.78,6-5.74,9a2.5,2.5,0,0,1-3.08,1.17L101.1,4.33Zm-4.29.27a2.4,2.4,0,0,1,3.06-.3l-.1.12C98.32,6,97,8,95.68,9.82c-3.23,4.45-6.18,9.1-9.14,13.73A2.84,2.84,0,0,1,83.18,25C88,18.37,92.33,11.45,96.79,4.63ZM64.14,5.6c-.21,1.32-1.35,1.78-1.93,2.66C58.62,13.7,55,19.12,51.47,24.62c-.72,1.13-1.35.19-2,.51,0-.83.47-1.21.8-1.67,3.69-5.21,7-10.7,10.47-16C61.75,5.87,62.9,6.12,64.14,5.6ZM55.65,34.71A9,9,0,0,1,54,41.15c-.1.33-.16.69-.52.87a2.89,2.89,0,0,1,.24-1.83A6.14,6.14,0,0,1,55.65,34.71Zm-1.21-2.36a.65.65,0,0,1,.38.18c.22.39-.08.62-.41.94C54.28,33,54.2,32.65,54.44,32.35Zm-1,9.72a1.22,1.22,0,0,1-.51,1.35C53.06,42.88,52.9,42.38,53.42,42.07Zm0,2.1A8.6,8.6,0,0,1,55,41.7a1.52,1.52,0,0,1-.55,2.21c-.55.31-.45.7-.4,1.14,1.3.64.43,1.57.12,2.19-.85,1.7-1.89,3.31-2.85,4.95-.06.28-.3.7-.46.53-.3-.33,0-.79.16-1.17A15.54,15.54,0,0,1,53.46,44.17ZM50.54,29.42l-.23-.18c.37-.48.56-1.16,1.32-1.2l.18,0,1,.13C52.31,29.31,51.81,30.31,50.54,29.42Zm8-22.7c.48-.78,1-1.07,1.81-.41-1.5,1.88-3.08,3.65-4.42,5.58-2.62,3.78-5.1,7.66-7.63,11.49-.19.29-.41.56-.62.84a.67.67,0,0,1-.93.18c-.48-.31,0-.6.14-.84,1.74-2.64,3.42-5.33,5.38-7.83A99.93,99.93,0,0,0,58.55,6.72ZM49.28,27.79c-.1.64-.42,1.33-1.38,1.17-.26-.22-1.1.19-.85-.54s.45-1.51,1.3-1.57C48.79,26.83,49.36,27.31,49.28,27.79ZM57,6a2.71,2.71,0,0,1-.77,1.52c-3.78,4.85-7.16,10-10.56,15.09-.73,1.1-1.45,1.52-2.68.77,1.52-2.66,3.56-5,5.33-7.48,1.89-2.67,3.76-5.36,5.53-8.1A3.28,3.28,0,0,1,57,6ZM46.36,26.44a2.34,2.34,0,0,1-1.2,1.72c-.54-.16-1.22-.07-1-.58.23-.69.52-1.55,1.41-1.71C45.81,25.82,46.5,25.91,46.36,26.44ZM39.1,28.87c.31-.41.43-1,1.2-.89,1.24.14,1.44.4.8,1.47-4,6.59-8.4,12.86-12.43,19.4C28,50,27.28,51,26.7,52.17s-1.07,1.59-2.25,1a4.69,4.69,0,0,0-1.19-.12c1.95-3.06,3.68-5.94,5.57-8.71C32.33,39.23,35.34,33.8,39.1,28.87Zm-1.43-3c.64-1.88.78-1.95,2.47-1.2C39.58,25.6,39.17,26.8,37.67,25.83Zm3.32.44c.51-1.27,1.43-.43,2.22-.37-.47.5-.35,1.86-1.59,1.07C41.34,26.8,40.71,27,41,26.27ZM53.85,5.8a28.25,28.25,0,0,0-4,5.1c-2.7,3.73-5.52,7.37-7.9,11.32a1.75,1.75,0,0,1-.68.74,1.09,1.09,0,0,1-1.12-.25c-.45-.42.1-.69.28-1C42.93,17.62,46.14,14,48.86,10c.75-1.1,1.53-2.19,2.24-3.33A2,2,0,0,1,53.85,5.8Zm-4.24-.35.23.39c-2,2.79-4,5.65-6.1,8.33C42,16.3,40.8,18.75,39.13,20.9c-.84,1.07-1.55,1.61-2.92.68L46.88,6.83C47.6,5.84,49,6.68,49.61,5.45ZM36.78,23.88c-.48,1.9-1.58,1.25-2.64.8C34.67,23.1,35.74,23.64,36.78,23.88Zm9-18a37.59,37.59,0,0,1-4.09,6.32c-1.85,2.4-3.6,4.87-5.45,7.27-1.64,2.14-1.65,2.13-4.39.93,3.16-4.46,6.24-9,9.5-13.34C42.34,5.77,44.07,6.08,45.82,5.87ZM33.33,23.7c-.22.34-.42.7-.92.57l-2.7-.74c.44-.63.59-1.42,1.17-1.32a10.49,10.49,0,0,1,2.46,1C33.53,23.26,33.45,23.52,33.33,23.7ZM39.79,7c.13.37-.3.6-.5.88-2.46,3.55-4.95,7.08-7.42,10.61-1.22,1.73-1.22,1.73-3.4.69,2.57-2.93,4.35-6.4,6.86-9.34A8.57,8.57,0,0,0,36.5,8.3C37.2,6.9,38.2,6.31,39.79,7ZM28.22,23c-.38-.5-1.54.15-1.63-.89,0-.43.33-1.17,1.06-.91s1.53,0,1.69.82A.92.92,0,0,1,28.22,23Zm5.3-16.11a11.93,11.93,0,0,0-1.69,0,6.7,6.7,0,0,1,3.46-.32c.3,0,.14.38,0,.55-2.52,3.61-5.07,7.19-7.52,10.83-.88,1.31-1.7.17-2.58.24C27.67,14.17,31,10.85,33.52,6.88Zm-7.16,14c-.09.59-.76.7-1,1.17a3.1,3.1,0,0,1-.68,0,5.18,5.18,0,0,1-1.92-.52l-.34-.16C23.4,20,24,19.92,26.36,20.92ZM19,19.34c-.49.34-.92.82-1.6.73V20l0-.06a.6.6,0,0,0-.06.11,7,7,0,0,0-.94-.33c-1.28-.26-1.21-.78-.32-1.49a8.3,8.3,0,0,0,2.63.18c.27,0,.63-.08.7.34a.62.62,0,0,1,0,.13A.75.75,0,0,1,19,19.34Zm1.09,1.58-.11,0c-1.25-.54-.16-1.14,0-1.72h0a.36.36,0,0,0,0-.09,1.34,1.34,0,0,1,1.89-.5c.84.48.4,1.13.15,1.76a4.68,4.68,0,0,0-.2.84l-.47-.07ZM8.68,48l-1.5-.24a1.21,1.21,0,0,0-.9-.32c-1.36-.64-.17-1.26,0-1.89l.17-.26A1.83,1.83,0,0,0,7,44.45l1.08-1.6a11.62,11.62,0,0,0,1.75-2.58l1.1-1.64h0a15.53,15.53,0,0,0,1.27-2.11l.06-.12,9.83-14.34.36.09,1.71.45.32.08c-2,4.39-5.25,8-7.65,12.17-.42.72-.85,1.43-1.24,2.17h0Zm3.47,1A.94.94,0,0,1,11,49a.23.23,0,0,0-.26-.08c-.34-.56-1.16-.3-1.5-.87a50,50,0,0,0,4.77-7.12,3.13,3.13,0,0,0,.81-1.16l0-.09,1.65-2.48h0l7.62-11.44c.19-.29.37-.58.57-.87C26,23.06,26,23.06,28.18,24c-.24.35-.47.7-.68,1.07L16,43a6.47,6.47,0,0,0-.75,1.17ZM15,50.38c-.33,0-.65-.37-1-.32l-.11,0c-1-.4-1.6-.93-.56-2,.06-.06,0-.19.06-.28h0a1.09,1.09,0,0,0,.6-.9,1.06,1.06,0,0,0,.6-.89,1.12,1.12,0,0,0,.6-.87A6.08,6.08,0,0,0,16.74,43c.35-.47.73-.92,1.05-1.41,2-3.14,4.06-6.28,6.09-9.42l2.66-4a3.41,3.41,0,0,0,.43-.64l2-3a1.13,1.13,0,0,1,1-.1c2.34.65,2.35.63.95,2.6a43.26,43.26,0,0,0-4.09,6.66l-.13.1A2.76,2.76,0,0,0,26,34.92a2.14,2.14,0,0,0-.91,1.46c-.45,0-.67.24-.92.56-2.74,3.6-5.13,7.43-7.5,11.28h0a5.28,5.28,0,0,0-.66,1l-.13,0Zm1.15.34a1.54,1.54,0,0,1-.3-.22l.21-.31h0a5.13,5.13,0,0,0,.57-.81h0a7.05,7.05,0,0,0,.36-.73c2.43-3.3,4.37-6.94,6.85-10.21a4.37,4.37,0,0,0,1.16-1.8,1.51,1.51,0,0,0,.21-.23c.64-.09.72-.76,1-1.18a2.56,2.56,0,0,0,.81-1.09l.06-.11c1.68-2.27,3.45-4.47,5-6.83.88-1.35,1.72-1.72,3-.78-.87,1.89-1.57,3.89-3.34,5.25a4.1,4.1,0,0,0-1,1.28c-3.1,5.7-7.36,10.66-10.55,16.31C18.89,51.77,18.84,51.74,16.18,50.72ZM20,52.14c-.21-.43.36-.87.63-1.27Q27.77,39.92,35,29c.41-.62.9-1.19,1.35-1.78s1.12-.09,1.56.12,0,.65-.17.93c-1,1.81-2.39,3.42-2.84,5.51a1,1,0,0,1-.34.48c-2.74,2.31-4,5.65-5.91,8.5-2.09,3.08-4.23,6.1-6.06,9.34-.22.37-.46.65-.95.5S20.27,52.71,20,52.14ZM18.13,61a.28.28,0,0,0,0-.25l.09-.2A.33.33,0,0,1,18.13,61Zm-.61,10a12.38,12.38,0,0,0-2.28,4.54c-.28.84-1.16,1.1-1.67,1.7-.13.15-.38,0-.52-.13s-.32-.46-.08-.64c1.43-1,1.6-2.69,2.21-4.15A6.61,6.61,0,0,1,17,70.12l.55-.27C17.69,70.24,18,70.5,17.52,71Zm1.7-2.93h0c-.35.29-.61.78-1.35.41.8-.23.54-1,.91-1.42.11-.38.4-.52.84-.61A3.12,3.12,0,0,1,19.22,68.07Zm1.67-3.91c-.23,0-.41-.09-.32-.31a3.06,3.06,0,0,1,.48-.67l.4.37A.62.62,0,0,1,20.89,64.16Zm2.42-7.51c-.52,0-1-.39-1.68.09C23,58.54,23,59,21.8,60.9a10.66,10.66,0,0,1-2.4,3c.44-1.42.87-2.55,1.12-3.72.21-1,.85-1.78.32-3.06-.31-.76,1-2.08,1.81-2.87.49-.45,1.26.28,1.94.35.35,0,.41.29.23.5C24.35,55.64,24.42,56.73,23.31,56.65Zm1.54,4.25h0a4.11,4.11,0,0,1-1.22,1.76,2.08,2.08,0,0,1,1-1.8c-.24-1.44.49-2.74.66-4.13.21-1.7.94-1.8,3.11-1.11ZM30,53.24c-.65,1-1.65.88-2.47.83s-.19-.67,0-1c2.33-3.75,4.65-7.51,7-11.23C37,37.92,39.62,34,42.1,30.09a1.59,1.59,0,0,1,2.5-.66,84,84,0,0,0-5.1,8.36C36.69,43.18,33.18,48.13,30,53.24Zm2.32,2c0-.05,0-.09,0-.13l0,0v.19c-1.94-.25-2.07-.43-1-2,4.25-6,7.61-12.65,11.78-18.75,1-1.39,1.94-2.76,2.78-4.21.46-.77,1-.59,1.66-.55l.1.11c.39.49-.17.8-.37,1.14a60.33,60.33,0,0,0-3.72,6.39,23.62,23.62,0,0,1-3.65,5.64,23.64,23.64,0,0,0-2.5,4.2A70,70,0,0,1,32.27,55.28Zm4.17,0c-.24.39-.58,1.43-1.29.29a9.74,9.74,0,0,1-1.1-.12c-.49-.12-.26-.36,0-.57C39.08,47,43.6,38.78,49.07,31.14c.77-1.08,1.39-.47,2.21-.32a29.39,29.39,0,0,0-2.43,4.45c-1.32,3.83-4.66,6.34-6.25,10S38.45,51.91,36.44,55.27Zm1,1.7c-.79-.19-.26-.68-.06-1,1.64-2.66,3.3-5.3,4.93-8q4-6.59,8.07-13.17c.31-.49.67-1,1-1.42a5.66,5.66,0,0,1-.5,3.45c-.85,1.33-.21,2.92-.72,4.33a3.63,3.63,0,0,1-.71,1.43c-3.09,3.17-4.9,7.18-7.12,10.91a17.75,17.75,0,0,0-1.25,2C40.38,57.37,39,57.32,37.47,57ZM43.15,58a1.74,1.74,0,0,1-1.79-.33c-.51-.42.17-.86.4-1.23,2.3-3.7,4.63-7.39,7-11.08l.24-.62.46-.66c.31.36.1.67-.11,1l-.25.71a1.17,1.17,0,0,0,0,.11L49,46a6.7,6.7,0,0,1-1,4.67c-1.25,2-2.37,4.12-3.6,6.16A2.54,2.54,0,0,1,43.15,58Zm4,.62c-.44-.28,0-.88-.51-1.13-.31.16-.65.35-1,.51s-.6.53-1.07.38a.77.77,0,0,1,.06-.24l3.06-4.7C48.2,55.41,48.61,57,47.18,58.64ZM49.85,68c-.12.66-.51.78-1.07.68-.75-.14-.72-.72-.64-1.26a9.7,9.7,0,0,1,2.91-5.48C50.65,63.94,50.23,66,49.85,68Zm-.36-5.92C49,58.5,50.63,54.39,54,50.36a.84.84,0,0,1,.32,1C52.31,54.69,51.45,58.49,49.49,62.06ZM54,68.14c-.06.55-.34,1.29-1.24,1.15s-1.79-.05-1-1.52,1.88-2.88,2.62-4.42a7.9,7.9,0,0,1,.32,2.9A7.07,7.07,0,0,0,54,68.14Zm-1.52-4.21a16.8,16.8,0,0,1,3.35-8C55.9,59.4,55.39,60.61,52.45,63.93ZM67.84,5.67l-.08,0c-1.59,2.32-3.24,4.61-4.74,7-2.6,4.13-5.53,8.07-7.86,12.38-.53,1-1.16,1.32-2.1,1L52.83,26c-.43-.58.1-.94.35-1.29,4.44-6.13,8.3-12.64,12.6-18.85A1.44,1.44,0,0,1,68,5.28c.34.69,1.09-.2,1.46.39C70.59,4.35,72.72,4,73.6,5a1.34,1.34,0,0,1,1.33,0c.84-.64,1.8-.3,2.71-.32a21.85,21.85,0,0,0,4.78.12,2.14,2.14,0,0,1,.82.18c1.17-.38,2.21-1.24,3.55-.9a1.47,1.47,0,0,0,1.38.07h0c.84.07,1.74-.43,2.53.24.41.12.88-.56,1.26.08,1-1.23,2.15-.64,3.3-.38L95,4.53C90.65,11,86.44,17.61,81.91,24c-.86,1.2-.85,1.22-3.45,1.22,4.81-6.74,9-13.74,13.44-20.57a5.57,5.57,0,0,1-1.29,0l-.12,0a15.89,15.89,0,0,0-2.73,3.49c-3.71,5.64-7.44,11.25-11.13,16.9-.7,1.08-1.77.51-2.85,1,2.52-3.77,4.9-7.3,7.24-10.85s4.58-7,6.87-10.54a2.12,2.12,0,0,1-1.08-.12,1.32,1.32,0,0,0-.26,0C81.48,10.94,77.32,18,72.63,24.75l-.11-.12-.34.7a2.69,2.69,0,0,1-3,.81c4.9-6.84,9.33-13.88,13.88-20.85-1.85,0-3.71.09-5.57-.11-.44,1.25-1.69,1.91-2.38,3-3.08,4.8-6.28,9.52-9.45,14.26a15.29,15.29,0,0,0-1.84,2.88c-.53,1.41-1.53,1.64-3.14,1.22,5-7,9.49-14.15,14.08-21.24a4.89,4.89,0,0,1-1.15-.13l-.11,0c-4.85,5.75-8.32,12.45-12.8,18.45a11.58,11.58,0,0,0-.92,1.7c-.93,1.72-1.79,2.06-4,1.47,4.28-7.16,9.3-13.79,13.53-20.92A2.28,2.28,0,0,1,67.84,5.67ZM56.36,48.92l.06-2.66c0-.32.08-.56.55-.72a9.22,9.22,0,0,1-.23,3.11,1.38,1.38,0,0,1-.08.27l-.36,1.8A1.74,1.74,0,0,1,56.36,48.92ZM58.82,67h-.07a.57.57,0,0,0,0,.14l-1.62,2.3c-1.18-2.83-1.36-1.88.28-4.36.47.09,0,.84.59.83h.07l.26-.15h-.15l.2-.2L59.87,64C60.65,65.46,59.12,66,58.82,67Zm1.9-4.32a1.3,1.3,0,0,1-1.13-.47c-.42-.44.11-.72.28-1,3.08-4.92,6.29-9.74,9.23-14.74,1.15-2,2.44-3.81,3.67-5.71l.1-.15a15.51,15.51,0,0,0,2.09-3C76,36,76,36,78,36.18c0,.68-.68,1.06-.84,1.66l0,0v0c-2.48,3.78-5.22,7.41-6.8,11.72a1.87,1.87,0,0,1-.41.61,59.29,59.29,0,0,0-7.6,11.34A1.77,1.77,0,0,1,60.72,62.66Zm3.75.51a10.22,10.22,0,0,0-1.8,0c5.17-8.26,10.12-16.42,15.57-24.27h0c.24-.31.51-.61.72-.93,1.17-1.77,1.17-1.77,3.42-1.17-2.57,4-5.12,8-7.39,12.22a3.8,3.8,0,0,0-.73,1.92h0l-.19.34-.61,1.1-.07.13h0a38.38,38.38,0,0,0-6.14,9.06C66.64,62.81,65.92,63.48,64.47,63.17Zm6.24,0a1,1,0,0,1-1.3.62,18.51,18.51,0,0,0-1.9-.33c2-3.62,4.47-6.89,6.28-10.55h0l.12-.12a3.05,3.05,0,0,0,.63-1.09.42.42,0,0,0,0-.1c3-4.62,6.07-9.23,9.08-13.86.37-.59.71-.92,1.4-.6a1.27,1.27,0,0,1,.3.11c.55.28.26.71,0,1.2-1.75,2.93-3.8,5.74-5.15,8.85C77.68,53,73.14,57.46,70.71,63.17Zm.93.55c3.77-5.75,6.81-11.88,10.6-17.57,1.65-2.48,3.23-5,4.85-7.49.16-.25.29-.52.47-.76.52-.66,1.17-.48,1.73-.14s.1.88-.13,1.23A81.07,81.07,0,0,0,83,49.5c-1.4,3.2-3.62,5.76-5.46,8.61A23.61,23.61,0,0,0,75.31,62C74.61,63.7,73.5,64.2,71.64,63.72Zm8-1.57c-.33.69-.53,1.47-1.71,1-.5-.22-1.29.26-2.25.51,3.68-5.51,6.47-11.19,10-16.42,1.54-2.24,3.08-4.49,4.45-6.85.83-1.44,1.74-2.43,3.53-2.16l-.13.14h0L91.93,41.4h0v0c-2.14,3.43-4.42,6.78-5.77,10.65a8.74,8.74,0,0,1-1.58,2.32A42.81,42.81,0,0,0,79.61,62.15Zm2.08,1.78v0l-.07-.08-.13.06c-1-.31-1-.79-.5-1.69,3.89-6.42,7.55-13,11.65-19.27a5,5,0,0,0,.26-.52l.08,0a.08.08,0,0,1,0,0,22.11,22.11,0,0,0,2.15-3.08c.28,2.36.19,4.29-1.1,6.24A53,53,0,0,0,88.79,55c-.57,1.42-1.87,2.54-2.78,3.84a46.55,46.55,0,0,0-2.93,4.48C82.67,64.08,82.25,64.1,81.69,63.93Zm11,.61c-.76,1-1.68.33-2.73.58,1.73-3.12,3.34-6,5-8.94.13.09.18.1.19.13C96.16,59.6,94.55,62.1,92.68,64.54Zm1.92-9.28A7.33,7.33,0,0,1,93.53,57,45.9,45.9,0,0,0,89,64a1.83,1.83,0,0,1-2.13,1.08c-1-.1-1.94-.28-3-.45,3.85-6.18,7.21-12.6,11.64-18.41C95,49.23,95.66,52.33,94.6,55.26Zm1.78,13.06c.6-.64.94-1,1.76-.58.4.19.85.26,1.27.41s.77.09.45.65c-.19.32-.28.6-.73.22-.7-.57-1.3-.13-1.83.35s-.25,1.07,0,1.62a4.26,4.26,0,0,1-1,4c-.2.18-.58.29-.66.16a10.41,10.41,0,0,1-.51-1.37C95.55,71.85,94.9,69.91,96.38,68.32Zm-.65,11.06c-.57-.21-.4-.66-.19-1.26.42.33.87.51.8,1C96.31,79.4,95.92,79.45,95.73,79.38Zm-.12,8.51c-.09-.38-.3-.76.15-1a.26.26,0,0,1,.25.08C96.22,87.38,96,87.66,95.61,87.89ZM95,127.52a2.24,2.24,0,0,1,.1-2.41A3.74,3.74,0,0,1,95,127.52Zm.26-47.14c0-.21.12-.4.34-.28s.14.31.2.48h0c0,.38,0,.77,0,1.15,0,0-.12.09-.18.13l-.14-.37A1.51,1.51,0,0,1,95.24,80.38Zm.45,4c.44.38.31.71-.08,1.2A1.07,1.07,0,0,1,95.69,84.42Zm-.15,10.12V92.42h.15l.39,2.12L95.7,95.8A1.43,1.43,0,0,1,95.54,94.54Zm.21,4c.64,1.14-.28,2,0,2.69A4.25,4.25,0,0,1,95.75,98.57Zm.4,39.13-.39.6a1.3,1.3,0,0,1,.14-1.15A.6.6,0,0,1,96.15,137.7Zm0-27.19V108c.29.37.75.71.27,1.24h0C96.33,109.6,96.56,110,96.14,110.51Zm.65,19a3.21,3.21,0,0,1-.23.38c-.22-.31-.24-.71,0-.8C97,128.94,96.87,129.3,96.79,129.52Zm0-2c-.57-.45-.12-.74.1-1.15C97,126.77,97.09,127.12,96.78,127.48ZM97.3,148l.42-.52a3.1,3.1,0,0,0,.77-1.53h0c.1-.22.21-.43.31-.65h0a1,1,0,0,0,.28-.07l-1.78,3.16Zm0,1.09,5.12-8.61a2.85,2.85,0,0,0,.24-.53c.32-.24.56-1.07,1.07-.4s1,.23,1.53.08l.1,0c.88.15,1.69-.49,2.59-.24a.54.54,0,0,1,0,.28L97.34,155.54Q97.32,152.3,97.3,149.05Zm15.34-9.46a1.31,1.31,0,0,0-.17.28l-.25.39c-.84.34-1,1.4-1.8,1.78-.11-.26-.19-.55-.55-.58,0,.55-.91.5-.83,1.08s-.23,1.28.74,1.28l0,.37-12.12,19.3q-.14-3.39-.29-6.76h0l.84-1.59-.5.29,10.28-15a4.84,4.84,0,0,0,.65-1l.18-.25a1.76,1.76,0,0,1,.38-.39c1.51-1.09,3.33-1.72,4.52-3.27a1.89,1.89,0,0,1,1.9-.71ZM111.06,136a.56.56,0,0,0,.08-.32.51.51,0,0,0,0-.13l0,0a1.87,1.87,0,0,0,.16-.35v0c.55-.14.59-.77.87-1.17,1.5-2.24,3-4.5,4.51-6.73a6.52,6.52,0,0,1,1.12-1.67,1.57,1.57,0,0,1,.37-.24A16.73,16.73,0,0,1,111.06,136Zm14.84-17.63-.11.17-4.38,7-.14.07s0,0,0,.08h0a10.2,10.2,0,0,0-1.37,2.23c0,.06-.07.12-.11.17a6.66,6.66,0,0,0-1,1.65l-.5.8h0l-.39.09c.67-2.09,1.18-4.23,2.54-6a2.52,2.52,0,0,0,.37-2.27,2.61,2.61,0,0,1,.56-2.45c1.08-1.59,2.06-3.24,3.08-4.87a.8.8,0,0,0,.13-.13,3.4,3.4,0,0,0,.72-1.14l.33-.55a1.57,1.57,0,0,0,.6-.87l.6-.66,0-.1.12-.31.07-.21c.7.24.28.54.12.82a.77.77,0,0,1-.06.15C128.32,114.38,127.2,116.38,125.9,118.34Zm1.82-28.17c-.68-.37.07-.82.28-1.16q6-9.53,12.14-19.05c.4-.62.75-1.27,1.13-1.91h0v0c.77-1.11,1.6-2.18,2.28-3.34a2.57,2.57,0,0,1,2-1.44H146l.53,0-.86,1.8-.14,0a.74.74,0,0,0,0,.14l0,0c-5.1,8.54-11,16.56-16,25.17-.24.42-.51.82-.78,1.25C128.35,91.14,128.35,90.51,127.72,90.17Zm36.56-20.35c-6.84,11.61-14.73,22.57-21.72,34.09a54.39,54.39,0,0,0-4.42,7.88l-.13.06,0,.09-1.35,2h-.07l0,.07-.29.45h0a3.14,3.14,0,0,0-.81,1.13h-.07s0,.08,0,.12a73.81,73.81,0,0,0-6.2,9.44l-.06.11-.9,1.19a1.13,1.13,0,0,1-.74.91,1.44,1.44,0,0,1,.43-1.23,23,23,0,0,0,2.09-6.36c.46-2.76,2.55-4.94,4-7.33,1.07-1.77,2.15-3.53,3.23-5.3l.12-.13a4.56,4.56,0,0,0,1-2,1.2,1.2,0,0,0,.6-1.07h0l0,0c.7-.16.93-.72,1.16-1.28l0-.09c5.53-8.52,10.7-17.26,16.08-25.88,1.46-2.34,2.63-4.9,4.68-6.84.23-.22.53-.81.75-.53.87,1.08,1.78.29,2.67.19a2.55,2.55,0,0,0-.74.55A5.23,5.23,0,0,0,164.28,69.82Zm6.26-9.34a4.41,4.41,0,0,0-.76,2.06l-.17.11,0,.06q-2.23,2.9-4.48,5.78l-.06-.21a2.08,2.08,0,0,0,0,.36c-1-1.92-1.52-3.79.2-5.63a8.86,8.86,0,0,0,1.24-1.84c.54-1,1.18-1.82,2.5-1.61a1.2,1.2,0,0,0,.57-.14c.55-.21,1.08-1.13,1.64-.46C171.55,59.37,170.8,60,170.54,60.48ZM169,57.59a31.22,31.22,0,0,1,3.46-5.42c7-9.24,13.16-19,20.16-28.24a3.37,3.37,0,0,1,2.65-1.35c-1.28,2-2.4,3.78-3.61,5.54-6.29,9.15-12.31,18.5-18.39,27.8C172.26,57.51,170.49,57.06,169,57.59ZM178.81,54a4.61,4.61,0,0,1-4.11,2.37c1.15-1.76,2.21-3.43,3.31-5.07q9.19-13.62,18.38-27.24c1.17-1.74,2.2-3.58,4.75-3.41-2.67,3.89-5.37,7.74-8,11.65C188.33,39.52,183.49,46.72,178.81,54Zm.56,1.43c1.34-2,2.55-3.94,3.93-5.77,3.56-4.72,6.52-9.84,9.92-14.68s6.73-9.71,10.15-14.53c.86-1.21,2.33-1.37,3.69-1.62l0,0,.08,0c-5.65,7.62-10.72,15.66-16.12,23.45-2.38,3.43-4.4,7.08-6.7,10.56A5.22,5.22,0,0,1,179.37,55.45Zm15.1,8.35a27.17,27.17,0,0,1-1.82,2.86c-.24.32-.22,1.48-1.15.71-.56-.47-1.32-.88-.47-1.83a28,28,0,0,0,1.85-2.66c.17-.23.27-.55.64-.55S194.71,63.39,194.47,63.8Zm.95-2.39a1,1,0,0,1-.86-1c.09-.53.55-.78,1.08-1,.23.34.71.75.65,1S196,61.52,195.42,61.41Zm-1.64-2.7c-.18.27-.25.72-.64.09s-1-.58-1.72-.42c3.44-5.78,2.65-5.27,6.39-5.82Zm3.05-1.78c1.07-1.61,2-3.28,3.09-4.89.48-.74,1.29-.73,2.33-.66-1.43,2.26-2.77,4.38-4.12,6.49-.22.33-.64.76-.92.38S196.4,57.58,196.83,56.93Zm1.65,7a.34.34,0,0,1-.6,0c-.29-.45-1.22-.54-.92-1.31.2-.5.4-1.15,1.21-1.16a2.65,2.65,0,0,0,.28,1.36C198.69,63.19,198.87,63.58,198.48,64Zm.62-4.08c-.47-.25.08-.68.26-1,1.66-2.59,3.37-5.13,5-7.73a4.73,4.73,0,0,1,2.75-2.31l.12.06a.31.31,0,0,0,0-.08,1.67,1.67,0,0,0,.95-.41,2,2,0,0,1,0,.25,1.52,1.52,0,0,0,.12-.36c.42,0,.91-.15.45.53a14.53,14.53,0,0,1-1.52,2.17c-2.69,2.77-4.29,6.28-6.53,9.35l-.11.15C199.83,61.05,199.57,60.15,199.1,59.9Zm.38,5.77c0-.44.16-1.06.89-.79a.76.76,0,0,0,.8-.21.57.57,0,0,1,.13.08s0,0,0,0h0c1.55.29.89,1.19.48,2l-.05,0a.34.34,0,0,0,0,.1C201.13,67,199.44,66.19,199.48,65.67Zm2.87,7.15A8.41,8.41,0,0,0,200.76,75l-.17-.11a1.52,1.52,0,0,0,.09.25c-1,.42-1.14-.61-1.66-1s.06-.79.29-1.08c.88-1.11,1.22-2.68,2.73-3.26a.92.92,0,0,0-.18.3,1.8,1.8,0,0,1,.19-.2,2.18,2.18,0,0,0,.47.92A1.29,1.29,0,0,1,202.35,72.82Zm3.05-4.56c-.86,1.65-1.7-.3-2.59,0,.69-.71.62-2.27,1.93-1.88A1.38,1.38,0,0,1,205.4,68.26Zm1.38,3.44c-.72-.73-1.18-1.42-.28-2.25a.75.75,0,0,1,1,.13C208.14,70.56,207.17,71,206.78,71.7Zm2.06,1.63c-1.5-.83-.13-1.53.14-2.09,1-2,1.89.08,3,.05C210.45,73.7,210,74,208.84,73.33Zm-1.42,7.15c.78-1.26,1.56-2.4,2.21-3.61.48-.91,1.06-1.19,2-.77.44.2.92.32,1.53.53a21.65,21.65,0,0,1-3.38,4.24C208.86,81.79,208.27,80.52,207.42,80.48Z"/><path class="cls-1" d="M208.34,125.31c-2.56,2.76-4.21,6.13-6.22,9.25l-.47.82-.32.46a1.29,1.29,0,0,0-.4.55l-.31.44a1.34,1.34,0,0,0-.22.31l-.49.68-.06.1-12,16.88L200,138.38a1.15,1.15,0,0,0,.59-.8l.06-.08a1.3,1.3,0,0,0,.53-.71l.19-.26a1.41,1.41,0,0,0,.4-.54l.43-.58,0,0h0a1.13,1.13,0,0,0,.2-.46,105.65,105.65,0,0,0,6.21-9.33l.34-.54c1.62-2.11,3.22-4.22,3.56-7.32a30.49,30.49,0,0,0-3.81,7Z"/></g></g></svg>