<svg xmlns="http://www.w3.org/2000/svg" viewBox="0 0 149.53 184.79"><defs><style>.cls-1{fill:#1d314f;}</style></defs><title>Asset 17</title><g id="Layer_2" data-name="Layer 2"><g id="Capa_1" data-name="Capa 1"><path class="cls-1" d="M145.48,54.24c1.21-2.29,2.4-4.59,3.53-6.91.35-.72.87-1.62.19-2.34s-1.63-.29-2.36.06c-2.47,1.16-5.21,1.73-7.38,3.51-.09.18-.32.39-.41.3-.26-.27-.13-.59.07-.87a42.53,42.53,0,0,0-.18-9c-.77-7.6-5.05-12.82-11.2-16.71-3-1.9-6.54-2.7-10-3.53a16.29,16.29,0,0,0-5.35-.33,1.77,1.77,0,0,1-2-2.37,28.87,28.87,0,0,1,3.93-9,12.18,12.18,0,0,0,1.57-3.72,2.94,2.94,0,0,0-1.31-3.1c-.83-.55-1.6-.15-2.35.25a12.59,12.59,0,0,0-2.17,1.68c-2.13,1.86-3.58,4.27-5.32,6.45A44.94,44.94,0,0,0,100,15.33c-.61,1.15-1.86,1.81-2.2,3.2-.12.47-.77.66-1.21-.12a19.61,19.61,0,0,0-6.63-7.06,51.3,51.3,0,0,0-4.8-2.42,18.22,18.22,0,0,0-7.51-2A123.81,123.81,0,0,0,64,7C60.07,7.41,56.2,8,53.26,11c-1.44,1.47-3.26,2.62-4,4.8-.27.81-1.15,1.46-1.21,2.47,0,.49-.31,1.05.4,1.32a2.42,2.42,0,0,0,2.08.1c.49-.29-.09-.85-.12-1.3s-.18-.7-.23-1.05c-.08-.57-.8-1.54.71-1.21.25.06.25-.22.29-.41A3.71,3.71,0,0,1,52.3,14c1-1,1.91-2.11,3-3,.78-.66,2-.35,2.91-.82.27-.14.87,0,1.25-.32a4.25,4.25,0,0,1,4-1.1c1.24.38,2.32.72,3.29-.44,0-.07.23-.06.34,0a34.07,34.07,0,0,0,5.53.21,1,1,0,0,1,1.06.68,2.59,2.59,0,0,0,1.55,1.4c.2.07.42.12.55-.06s0-.36-.12-.53a7.3,7.3,0,0,0-1.58-1.4,7.13,7.13,0,0,1,2.2-.13c2,.59,3.81,1.67,5.9,1.95a1,1,0,0,1,.44.17c1.91,1.2,4.42,1.08,6.13,2.75a1.4,1.4,0,0,0,.79.24,4,4,0,0,1,2.5,1.28,22.37,22.37,0,0,1,5.11,8.14,1.32,1.32,0,0,1-.48,1.64,32.13,32.13,0,0,0-5.74,5.56c-2.69,3.8-5.74,7.38-6.27,12.28a1.41,1.41,0,0,1-1.41,1.36,7.76,7.76,0,0,0-2.83.74c-.38,0-.77-.23-1.14,0-.85.62-1.87.27-2.76.27a3.43,3.43,0,0,0-2.1.33c0,.18-.15.49.09.52a22.77,22.77,0,0,0,4.74-.08c.45,0,.58-.65,1-.67h.12c1.21.73,2.31.11,3.42-.33.24,1.19.15,2-1.27,2.27s-1.66.28-2.06-.69l-.08-.2c0,.09-.05.16-.07.23a2.21,2.21,0,0,1-2,1.57c-.42.08-.76.37-1.22.07s0-.68,0-1,.21-.44-.12-.7a2.26,2.26,0,0,0-.9,1c-.19.3.12,1-.8.79-.61-.17-1-.21-.89-1a1.07,1.07,0,0,0,0-.56l-.09-.11c-.1-.08-.28-.08-.56.07s-.32-.11-.4-.37-.38-.54.06-.7a.64.64,0,0,0,.22-.11c.22-.16.13-.37,0-.58,0,0,0,0,0,0s0,.06-.07-.09a11.3,11.3,0,0,0-2-.21,3.73,3.73,0,0,1-2.16-.54,1.21,1.21,0,0,0-1.73.21.81.81,0,0,1-.62-.76c-.08-.6-.24-1.44-.88-1.34s0,.89-.17,1.35a.5.5,0,0,0,0,.12.29.29,0,0,0-.16,0,.73.73,0,0,1,.15.16.35.35,0,0,1,.06.36.38.38,0,0,1-.1.13h-.08l0-.64a1,1,0,0,0-1,.14l.53.88a.52.52,0,0,0,.55-.27l.38.22c.47.43.92.24,1.37,0l.11-.05c1.07.17,1,1.32,1.53,1.93.53-.41.22-1,.46-1.6.43.61.9.89,1.58.55s1-.14,1.06.6.72,1.41.25,1.73a2.42,2.42,0,0,1-2-.21,36.68,36.68,0,0,1-5.56-2.72l-.95-.27a1.27,1.27,0,0,1-.87-.44,2.05,2.05,0,0,0,.5.07l-.16-.08c.46-.06.6-.42.54-1a10.75,10.75,0,0,0-1.89-4.46,35.81,35.81,0,0,0-4.41-5.19c-.2-.19-.7-.42-.43-.73,1-1.2-.2-1.26-.77-1.59S55.57,30.29,55,30c-.2-.1-.7-.19-.31-.53.65-.57.13-.8-.17-1.2a5.32,5.32,0,0,1-.92-1.66c-.31-1.15-1.85-1.44-1.84-2.77-1-.13-1.18-.88-1.22-1.72,0-.34-.25-.48-.57-.48s-.53-.14-.5-.4c.1-1-.67-1-1.28-1.28-1.55-.62-3-1.34-3.51-3.15a.85.85,0,0,0-.8-.63c-1.11.16-1.78-.57-2.61-1.05s-1.37-1.26-2.24-1.73a41.2,41.2,0,0,1-6.47-4c-.89-.72-1.88-.91-2.56-.3-.84.75-.41,1.55,0,2.26,1.09,1.79,3.12,2.65,4.37,4.31.18.23.65.26,1,.36,3.48.94,5.17,3.42,4.78,7a7.73,7.73,0,0,0-.06,1c0,.61-.2.75-.84.78-1.54.07-3.05-.51-4.62,0-2.09.66-4.23,1.15-6.34,1.73C20.42,28.71,15.52,34,13.52,41.85c-.9,3.51-2,7.06-1.87,10.77a3,3,0,0,1-.32,1c-.4,1.16,0,2.28.14,3.41a.47.47,0,0,0,.55.36c.88-.15,1.06.48,1.32,1.07a3.15,3.15,0,0,0,.94,1.42,2.82,2.82,0,0,0-.45-2c-.1-.2-.52-.45-.1-.68.83-.47.39-1,.12-1.49a15.07,15.07,0,0,1-1-1.93c-.16-.43-.87-1-.33-1.33.78-.54.65.65,1.12.83h.14c.39-.41.13-.88-.06-1.18a3.46,3.46,0,0,1-.08-3.45c.67-1.42-.31-3.18,1-4.42.05-.05,0-.23-.06-.34a1.62,1.62,0,0,1,.62-2c.46-.41.83-.7.56-1.38a.56.56,0,0,1,.44-.73c.54-.16.38.38.5.61a7.4,7.4,0,0,0,1.18,2.25,1.89,1.89,0,0,0-.29-1.91c-.91-1.16-.65-2.38-.45-3.64.11-.7.65-1.17.85-1.83a3.42,3.42,0,0,1,2.34-2.12,2.16,2.16,0,0,0,1.51-1.2c.53-1.76,2.18-2.07,3.47-2.56a62,62,0,0,1,7.9-2.63c.23,0,.46-.22.67-.2,2.59.27,5.17.57,7.75.87a2.3,2.3,0,0,1,.59.13c2.57,1.09,5.57,1.07,7.85,3a2.83,2.83,0,0,0,1.47.45,6,6,0,0,1,3,1.31,25.77,25.77,0,0,1,7.1,8,9.18,9.18,0,0,1,1.46,3.47,1.28,1.28,0,0,1-1.11-1.23,8.08,8.08,0,0,0-.59-1.64c0-.21-.2-.46-.31-.36-.29.25-.13.59,0,.87.07.61.13,1.23.22,2-1.42-.59-3-.31-4-1.57a1.08,1.08,0,0,0-.18.3c-.22,1.28-1.21.44-1.81.62S55.05,42.3,55,42c-.15-.58-.1-1.25-.74-1.71-.47.85-.08,1.64,0,2.39-1-.09-1.91-.2-2.82-.26s-1.92.37-2.47-1c.31,1.15-.25,1.12-1,1.13a22.11,22.11,0,0,0-6.8,1c-.09-.45-.1-1-.73-1.17,0,.56.25,1.2-.56,1.34h0a4.26,4.26,0,0,0-1.58.55c-.4-1.14-.52-2.42-1.56-3.43a11.94,11.94,0,0,0,.6,2.79c.09.35.41.73,0,1.08l-2.92,1c-.61.21-1.16.31-1.52-.42A.53.53,0,0,0,32.1,45c-.27.19-.1.52,0,.77.15.42.6.9-.21,1.12s-1-.1-1.11-.82a27.68,27.68,0,0,0-3.14-7.71,3.86,3.86,0,0,0-4.49-2.13c-1.56.56-2.12,2-1.78,4.33.19,1.29.28,2.6.44,4.08-.63-.48-1.05-.88-1.55-1.18-1.59-.94-3-.19-3.1,1.65a6.75,6.75,0,0,0,.14,1.9c.35,1.74.68,3.47,1,5.25-.39-.16-.48-.79-.91-.5-.28.19-.07.61,0,.91a2.2,2.2,0,0,0,.92,1.22,1,1,0,0,1,.48.75,10.71,10.71,0,0,1-.57,4.2,7.3,7.3,0,0,0-.72-.82c-.2-.16-.46-.41-.73-.17s-.05.51.08.74a4.82,4.82,0,0,0,.68,1,1,1,0,0,1,.23,1.19c-.49,1.39-1,2.79-1.46,4.17-.12.32-.19.8-.58.83s-.49-.48-.65-.77a69.27,69.27,0,0,0-4-6.83c-2.06-2.95-5.1-4.23-8.5-4.79A2.07,2.07,0,0,0,.2,54.45a2.31,2.31,0,0,0,.7,2.71c.27.28.66.45.81.86-.93.47-1.14,1.16-.55,2a4.54,4.54,0,0,0,1.5,1.18,36.11,36.11,0,0,1,4,2.55,8,8,0,0,1,3.52,6.95,26.46,26.46,0,0,1-.2,3.46c-.73,4.67.63,8.43,4.61,11.12.13.09.24.21.37.3,2.26,1.6,3.84,4.06,6.23,5.4C25,93,28.66,95.28,32.85,96.43l1.47.43a48.27,48.27,0,0,0-7.48,2.25,11.14,11.14,0,0,0-5.93,4.43,35.81,35.81,0,0,0-3.39,5.76,11.56,11.56,0,0,0,.68,10.57,2.75,2.75,0,0,0,2.91,1.7c1.06-.24,1.12.29,1.36,1a16.3,16.3,0,0,0,3.14,6,2.88,2.88,0,0,0,3.8.52c.89-.58,1.08-1.61.45-3.14-.56-1.36-1.24-2.67-1.84-4a8.66,8.66,0,0,1-.9-5.68,13.08,13.08,0,0,1,9.34-10c4.36-1.34,8.72-.65,13,0,3.66.51,7.16,1.91,10.88,2.22a5.33,5.33,0,0,1,1.36.42,19.89,19.89,0,0,0,8.1,1A1.94,1.94,0,0,0,68,107.06c-2.35.18-4.7.36-7,.58-.79.08-1.42,0-1.78-.8a.84.84,0,0,0-.71-.57c-3.07,0-5.94-1.08-8.9-1.71a12.45,12.45,0,0,0-3.34-.07,2.1,2.1,0,0,1-.83,0c-2.76-1-5.52.14-8.26,0-1.81-.1-3,1-4.42,1.45-3.92,1.24-5,4.6-6.42,7.66a10.94,10.94,0,0,0-.56,6.44c.44,2.57.86,5.19,2.69,7.27.24.27.31.59-.07.8a.93.93,0,0,1-1.29-.2,11.26,11.26,0,0,1-2.69-5,3.56,3.56,0,0,0-.18-.94,10.33,10.33,0,0,1-.78-5.12c0-.13,0-.26,0-.39a2.28,2.28,0,0,0-.2-.9,1.77,1.77,0,0,0-.69-.79c-.69-.44.21-1.21-.3-1.72-.81,1.87-1.92,3.7-.85,5.86.16.32.32.82-.21,1a.9.9,0,0,1-1.09-.27c-1.1-1.52-2.1-3.08-1.72-5.12a15.08,15.08,0,0,1,1.51-5c2.4-4.17,5.18-7.82,10.25-9a36.16,36.16,0,0,0,7.16-2.28,3.24,3.24,0,0,1,2.23-.12c4.13,1.18,8.41,1.37,12.64,1.89,1.1.14,2.17.49,3.27.69.91.16,1.48,1,2.65.87.93-.11,2,.71,3,1.14,2.12.91,4.22,1.86,6.36,2.73,1.59.65,3.21,1.19,4.81,1.81.32.12.84,0,.8.67s-.41.74-.94.82a3,3,0,0,0-1.71.71s0,0,0,0l0,0c0,.3.37.2.62.25a.29.29,0,0,1,.16.07c1.07-.21,1.43,0,1.23,1.26-.24,1.45-.44,2.92-.61,4.38a125.57,125.57,0,0,1-2.22,14.05,66.21,66.21,0,0,0-2,11.37c-.23,4.16-.73,8.27-1.19,12.39-.67,6.05-1.91,12-2.53,18.11-.22,2.14-.89,4.19-1,6.36-.08,1.17-.53,2.38-.58,3.61a.91.91,0,0,0,1.46.83c.5-.3.43-.77.41-1.27,0-1.37-1.38-2.76,0-4.12,0,0,0-.07,0-.11a23.19,23.19,0,0,1,.48-3.54,38.36,38.36,0,0,0,.46-4.54,3.93,3.93,0,0,1,.31-1.27,13.06,13.06,0,0,0,.93-4.5,15.67,15.67,0,0,1,.16-3.56c.34-1.78,1.58-3.41.79-5.37-.07-.19.07-.46.11-.69.23-1.53.55-3.05.69-4.59.18-2.06.21-4.16.47-6.19.35-2.65,1.16-5.24,1.61-7.9.68-4.07,1.92-8,1.68-12.25a4.79,4.79,0,0,1,.09-.83c.52-3.59,1.07-7.18,1.53-10.78.1-.75.35-.81,1-.87,1.5-.14,3.08.09,4.43-.94a.93.93,0,0,1,1.33.48c.35.67.73,1.33,1,2s1.26,1.36-.24,1.74a.35.35,0,0,0-.14.3c.72,1.92-.75,3.83,0,5.76a1.3,1.3,0,0,1-.27,1.13c-.13.2-.3.43-.15.65.7,1,.28,1.79-.41,2.55a.55.55,0,0,0-.08.67c.46.68.12,1.18-.31,1.68-.39.19-.28-.55-.71-.36a14,14,0,0,0-.14,4.18,5.39,5.39,0,0,0,.39-1.26c.15-.57-.2-1.29.47-1.72a29.46,29.46,0,0,1,.43,3.38,5.2,5.2,0,0,1-.67,3.05,2.39,2.39,0,0,0,0,2.65,2.18,2.18,0,0,1,.3,1.36c-.15,1.72-.44,3.41-.44,5.16a51.68,51.68,0,0,1,0,6.82c-.27,2.14-1.18,4.22-.82,6.44a.74.74,0,0,1,0,.36c-1,2.61-.25,5.47-1.16,8.11a3.1,3.1,0,0,0,.17,2,8.14,8.14,0,0,1,.44,2.94c0,3.07-.07,6.14-.15,9.22a30.91,30.91,0,0,0,.28,4.41c0,.49.29.9.8.89.67,0,.34-.6.34-.92,0-3.15,0-6.3,0-9.45A68.3,68.3,0,0,1,80,160.76a50.89,50.89,0,0,0,1.07-13.37c-.08-1-.24-2.06-.23-3.1.09-8.53,1-17,1.33-25.55.13-3.06.72-6.08.71-9.15,0-.54.39-.65.66-.85s.59-.07.77.3.66.51,1.08.62l-.24.37c-1,1.39-.9,1.67.54,2.45.91.49,1.81,1,2.73,1.49.54.28,1,.54.52,1.24-.23.33-.09.58.24.78a14.08,14.08,0,0,1,2.86,2.7,4.15,4.15,0,0,0,2.12,1.47c1.55.35,1.57,2,2.55,2.85.25.22-.63,3.86-.93,4.15a1.33,1.33,0,0,0-.52.91,11,11,0,0,0,1.91,6.86.73.73,0,0,0,1,.28c2-1,3.55-1.74,3-4.78a1.75,1.75,0,0,1,.12-1.16c.79-1.48.6-3.15.67-4.67a14.27,14.27,0,0,0-1.28-6.4c-.82-1.83-1.81-3.58-2.71-5.35a4.75,4.75,0,0,1,4.6,2.41,2.62,2.62,0,0,0,1.83,1.26c1,.13,1.79-.26,1.88-1.22.23-2.71-.05-5.28-2.56-7-1.23-.87-2.38-1.87-3.64-2.79,3.76-.26,7.44-.57,11.09-1.11,5.06-.75,10.26-.78,15-3.07a56,56,0,0,0,5.17-3C135,96.06,138.52,93.71,141,90a116.84,116.84,0,0,0,5.74-10.47,5.7,5.7,0,0,0,.58-2.19,2.8,2.8,0,0,0-2-3.16,3.11,3.11,0,0,0-3.24,1.94c-.15.33-.15.8-.72.84a2.49,2.49,0,0,1-.05-.46c0-.28.07-.55.12-.83a17,17,0,0,1,3-6.71c.82-1.13,1.61-2.29,2.33-3.48.44-.72.82-1.58.07-2.3s-1.56-.25-2.28.21A26.91,26.91,0,0,0,140,66.81a4.73,4.73,0,0,1,.63-3.13C142.48,60.66,143.82,57.37,145.48,54.24Zm-108.84-40a1.17,1.17,0,0,1-.39-.12,1.46,1.46,0,0,1,.31-.3c.18-.08.27.1.37.23S36.75,14.21,36.64,14.21ZM39,15.56a3.29,3.29,0,0,1,1.29.82c-.35.35-.67-.11-1-.05ZM52.77,29c-.35.38-.7-.13-1-.28a22.31,22.31,0,0,1-2.37-1.12,28.29,28.29,0,0,0-7-2.54c-.63-.17-.76-.39-.73-1.05.12-2,.32-4-.72-5.91l.44,0A1.34,1.34,0,0,0,42.8,19a2.77,2.77,0,0,0-1.22-1.16c-.34-.31-.92-.49-.59-1.15h0C43.21,18.43,45.58,20,47.62,22a20.55,20.55,0,0,1,4.91,5.94C52.69,28.23,53,28.69,52.77,29Zm46.09-7.09c.37-.07.13-.39.1-.59-.15-.78-.32-1.55-.5-2.47.68.26.93,0,1.35-.55a11.23,11.23,0,0,0,1.87-2.9c.27-1.14,1.66-.94,1.6-2,1.59-.07,1-1.6,1.53-2.39a2.86,2.86,0,0,1,1.78-1.47c.43-.1.73-.33.69-.69-.19-1.4.9-2,1.63-2.83s1.56-2.1,2.46-3.06c.19-.2.28-.58.7-.44.4-.1.81-.35,1.2,0a2.28,2.28,0,0,1-.14,2c-.81,1.09-.91,2.55-1.93,3.49a1.47,1.47,0,0,0-.59,1.37,7.19,7.19,0,0,1-.77,3.92c-.6,1.67-1.38,3.33-.51,5.18.28.59-.33.49-.61.53a26,26,0,0,0-7.55,2.44c-.88.46-1.72,1-2.83,1.62C98.54,22.56,97.93,22.05,98.86,21.89ZM85.56,42c1.51-.19.9-1.6,1.39-2.38l.25-.81.15,0c0,.33.05.65.07,1a.84.84,0,0,0,.64-.9c-.1-1.74,1-3.07,1.51-4.57l.26-.68c.34.38.15.66,0,.95v1.91c1-.8.75-1.84.77-2.76,0-.59-.07-1.1.62-1.35a.85.85,0,0,0,.5-.75c.22-1.21,1.19-1.72,2.12-2.25.2-.11.61-.07.66-.2.55-1.52,2.32-1.67,3.14-2.77a15.61,15.61,0,0,1,4-3.7,6,6,0,0,1,3.82-1.05,4.49,4.49,0,0,0,3.11-.8,5.35,5.35,0,0,1,2.86-.84c5-.39,9.56,1.07,14.12,2.77.33.13.72.19.64.69-.16,0-.42-.45-.46,0a3.29,3.29,0,0,0,.76,2.4c.45-.72.18-1.35.22-2a10.43,10.43,0,0,1,3.78,3.54,5,5,0,0,0,1.19,1.33,13.23,13.23,0,0,1,3.62,5.4c1.11,2.54,2.05,5.12,1.65,7.94a35.89,35.89,0,0,1-1,3.91c-.06.23-.42.51.06.65s.46-.22.57-.48A7.13,7.13,0,0,0,137,44a10,10,0,0,1,0,7.08,113.19,113.19,0,0,1-4.7,11.61l-1.21,2.67c-.3,0-.3-.15-.34-.3-.18-.84.47-1.86-.7-2.51-.42-.24-.28-.92,0-1.42a2,2,0,0,0,.44-1.56c-.68,0-.81.7-1.35,1-.6-1.91-2.52-3.23-1.87-5.87-1,1.12-1.27.46-1.67-.09A13.81,13.81,0,0,0,123,52c-.51-.38-.75-.65-.38-1.32a2,2,0,0,0,0-2c-.87.58-.69,1.44-.78,2.17-2.44-.33-2.38-2.16-2.25-4.09-.22.2-.29.23-.32.29-.35.67,0,1.82-.64,2s-1.36-.48-2.06-.76a1.41,1.41,0,0,0-.35,0h0a6,6,0,0,0,.36-4.48,15,15,0,0,0-.66,4.28c-1.08-.27-2.16-.53-3.24-.81-.64-.17-1.47,0-1.59-1.08,0-.31-.57-.55-.63,0-.09,1-.65.69-1.18.63l-1.81-.2a7.34,7.34,0,0,0-.15-3.67,7.51,7.51,0,0,0-.4,2.93c0,.39.08.87-.57.75s-1.25.38-1.37-.64a2.91,2.91,0,0,0-.39-1.72c-.06,0-.15.07-.15.11-.25,2.27-.25,2.29-2.6,2.25s-4.54-.21-6.81-.16c-1.24,0-.61-1.06-1.06-1.45-.21,0-.36.07-.37.24-.06,1.31-1,1.48-1.94,1.37a6.83,6.83,0,0,0-2.74.44c-.58.17-.91.11-.83-.62a1.47,1.47,0,0,0-.17-.79c-.07-.16-.28-.25-.43-.37-.1.16-.28.32-.29.49a9.75,9.75,0,0,1-.14,1.58,12.83,12.83,0,0,1-1.6-4.93C85.43,42.25,85.51,42.05,85.56,42ZM81,48.38c.19,0,.4-.14.55-.09.39.12.5-.62.89-.29s0,.81,0,1.21c1-.31.76-1.56,1.49-2.11.81,1.71-.67,1.94-1.55,2.55-.62.7-1.67,0-2.32.7,0,0-.22-.09-.26-.17C79.51,49.7,80.43,48.39,81,48.38Zm-.33,2.87a12.35,12.35,0,0,0-1.89,3c-.21-.59-1-.85-.43-1.37S78.76,50.43,80.64,51.25Zm-1,6.62A8.11,8.11,0,0,1,78.93,60c-.08.19-.16.39-.29.68a1.06,1.06,0,0,1,.07-1.17A2.07,2.07,0,0,1,79.68,57.87ZM75,48.94c.74-.21.58.4.7.77.56-.47.59-1.68,1.68-.74.22.19,1-.27,1.6-.45a2.82,2.82,0,0,1-.94,2.09c-.57.54-1.52.21-2.24.16s-.88-.84-1.08-1.46C74.64,49,74.79,49,75,48.94Zm2.53,3.26a.84.84,0,0,1-.16.27l-.32-.29c-.22-.15-.48-.28-.48-.59a.32.32,0,0,1,.24-.17c.27,0,.25.21.28.4C77.31,51.88,77.62,51.83,77.54,52.2ZM39.82,95.78c-.09.13,0,.39-.34.4a2.06,2.06,0,0,1-.33-.57.24.24,0,0,1,.37-.25C39.67,95.44,40.06,95.42,39.82,95.78Zm1.5-.26c-1.36-.64-2.71-1.3-4.07-1.92a5,5,0,0,0-2.33-.75,1.61,1.61,0,0,1-1.23-.72C32.79,91.79,32.07,91,31,91h0l-2.16-1.25-4-2.44c-.66-.49-1.2-1.2-2.4-1.15l2.11,1.41a10.11,10.11,0,0,0,4,2.45,7.29,7.29,0,0,0,2.5,1.15,16.13,16.13,0,0,0,2.39,1.44,17.81,17.81,0,0,0,2.83,1.5l.76.28a1.16,1.16,0,0,1-1.23-.05,62.52,62.52,0,0,1-9.31-1.52,2,2,0,0,1-1.7-1.48,1.49,1.49,0,0,0-1.08-1,5.92,5.92,0,0,1-2.52-1.54c-2.52-2.27-5.27-4.27-7.69-6.66a6.72,6.72,0,0,1-2-7.39,4.72,4.72,0,0,0,.08-3.27A3.39,3.39,0,0,1,11.44,70a13.88,13.88,0,0,0-1.28-5.78,1.09,1.09,0,0,1,0-.62c.24-.79-.36-1.07-.86-1.36-.35-.2-.49.09-.55.39-1.44-.88-3.15-1.34-4.22-2.77-.2-.26-.52-.43-.15-.77.26.22.48.52.89.41.18-.32-.43-.53-.23-.62.88-.41,0-.4-.1-.57-.69-1-1.85-1.36-2.73-2.09-.41-.34-1.1-.7-.75-1.31s1.07-.42,1.64-.18c1.2.51,2.42,1,3.6,1.59a4.7,4.7,0,0,1,2.17,2.25,28.12,28.12,0,0,0,3,4.59C13,64.56,14.05,65.92,15,67.4c.59.92,1,.92,1.73,0a7.4,7.4,0,0,0,1.21-2.31c.7-2,1.36-4.07,2.14-6.08,1.1-2.84.31-5.65-.43-8.43a41.14,41.14,0,0,1-1-4.79c0-.37-.18-.8.3-1.05s.74.15,1,.41a19,19,0,0,1,2.62,4.14c.12-3,1.67-5.85.86-9a1.51,1.51,0,0,1,.59-1.9c.31.89.22,1.84.51,2.75.42-.91-.11-1.85.09-2.76A2,2,0,0,1,26.21,40c.77,2.76,1.93,5.41,2.44,8.24.84,4.68-.22,9.09-1.82,13.46C25.6,65,24.47,68.41,23.31,71.79a6.44,6.44,0,0,0-.4,2.71,1.81,1.81,0,0,0,1.53,1.75,1.61,1.61,0,0,0,1.8-1c1.33-2.45,2.46-5,3.66-7.51.15-.32.29-.64.43-1,.31,0,.23.24.17.43-.43.14-.13.51-.22.75-.12.91-1.24,1.37-1.06,2.46.44-.17.49-.67.88-1a2,2,0,0,1,.07,1.43A24.75,24.75,0,0,0,34,89.27c1.56,2.41,4,3.31,5.94,5a14,14,0,0,0,1.59,1,.91.91,0,0,1,.7.61A1,1,0,0,1,41.32,95.52ZM32,65.52c-.25-.07-.29-.26-.28-.48s.31-.33.46-.18S32,65.3,32,65.52Zm-.26,1.29c-.29.26,0,1-.74.89C31,67.23,31.07,66.78,31.71,66.81Zm26,32.62c-.29.19-.56.48-1,.35s-.88-.19-.62-.94a5.34,5.34,0,0,0,.48-3,6.8,6.8,0,0,0-1.34,2.56c-.28.61-.56.86-1.26.59a22.34,22.34,0,0,0-2.3-.64l-1.11-.22A2.82,2.82,0,0,1,52.06,98l.19,0,.19,0h2.69A8.57,8.57,0,0,0,51.36,97c-1.12-.18-2.24-.65-3.42-.23-.38.13-.7-.15-1-.34-1.41-.92-3.06-1.38-4.38-2.56a11.07,11.07,0,0,0-2.12-1A6.56,6.56,0,0,1,37,88.51c-.44-1.49-.89-3-1.34-4.46-.11-.36-.11-.78-.64-1a13.21,13.21,0,0,0,1.35,6,2.1,2.1,0,0,1,.52,1,1.52,1.52,0,0,1-.8-.76c-.67-.84-1.49-1.46-1.52-2.82,0-1-1.18-1.82-1.56-2.89a15.63,15.63,0,0,1-.78-3.08c-.37-2.39-.85-4.78-1-7.2A9.67,9.67,0,0,1,32.67,68c.2-.39.25-.36.75.28a23.33,23.33,0,0,0,1.09-6.54c-.38,1.53-1.38,1.69-2.68,1.31.2-.76.44-1.57.64-2.38.05-.2.13-.5-.2-.6s-.33.13-.46.29a2.64,2.64,0,0,0-.73,2.56.59.59,0,0,1-.16.75c-2,1.45-3,3.68-4.25,5.7-.1.29-.18.6-.57.7a1.51,1.51,0,0,1,.37-1.18,55.82,55.82,0,0,1,2.36-5.44,22.39,22.39,0,0,0,2-6.82,14.75,14.75,0,0,1,1.91-5.43c.21-.19.47-.52.26-.67s-.39.2-.51.41l-.94,1.23a6.18,6.18,0,0,1,.66-4.32c.09-.18.27-.45.4-.26.64.92,1-.09,1.5-.14,1.41-.16,2.39-1.48,3.89-1.34.62-1.44,2.13.09,3-.86.14-.15,1,.54,1.53,0a4.76,4.76,0,0,1,1.66-.85,2.91,2.91,0,0,1,2.65.2,5.1,5.1,0,0,0,.86.28,5,5,0,0,0-.27.8.55.55,0,0,0,.12.42.37.37,0,0,0,.53-.08c.31-.36.76-.69.88-1.11A1.09,1.09,0,0,1,50.43,44c1.21.3,2.54-.08,3.65.66.81.53,1.37-.38,2.18-.34a14,14,0,0,1,3.45.91c1.83.57,3.61,1.26,5.42,1.89.3.1.71,0,.92.2,1.25,1.09,2.81,1.3,4.32,1.68a1.88,1.88,0,0,0,.7.78A22.5,22.5,0,0,1,75.77,55c.18.27.24.69.75.75,0-1.17-.87-1.92-1.27-2.87a.54.54,0,0,0,0-.11l0,0c-.33-.37-.67-.74-1-1.1l-.53-.49c.51-.25.61.22.84.47a2.25,2.25,0,0,1,.93,1h0c.82.86,1.62,1.74,2.48,2.57.41.39.29.74.15,1.17A25.38,25.38,0,0,0,76.81,60c-.35-.12-.39-.45-.44-.74a1.57,1.57,0,0,0-1.2-1.37v0h0A.77.77,0,0,0,74.5,57h0l0,0h0c-.21.62-.22,1.07.66.85l.07.06a3.26,3.26,0,0,0,1.17,2.87c-.47,2.91-.56,6-1.52,8.69A15.3,15.3,0,0,0,74,75.73c.25,3.76-.58,7.45-.3,11.18a.88.88,0,0,1-.56,1,2.92,2.92,0,0,0-1.46,2.92c.61-.11.62-.92,1.31-1.06A4.51,4.51,0,0,1,70.35,93c.28-.48.57-1,.83-1.45.11-.22.18-.44-.09-.63s-.34,0-.5.12c-.39.28-.8.51-.91,1a1.6,1.6,0,0,1-1.74,1.38c-2.35.17-4.69.36-7,.44-.38,0-.82-.12-1.15.38a10.46,10.46,0,0,0,4.55.28,18.63,18.63,0,0,1-4,3A29.92,29.92,0,0,0,57.69,99.43Zm18.85-32.8c.32-.57.22-1,.7-1.47C77.37,65.8,77.4,66.27,76.54,66.63ZM68.46,94.51h0c.68.35.25.66,0,1s-.54.65-.87.91c-.19-.6.44-.77.63-1.17l0-.22,0-.19h0A2.74,2.74,0,0,0,66,97.16a.61.61,0,0,0-.77-.08,6.88,6.88,0,0,1-2.66.29,6.82,6.82,0,0,1,6.3-3.56C69,94.16,68.49,94.21,68.46,94.51Zm.49,3a5.06,5.06,0,0,1-.65.36A.2.2,0,0,1,68,97.6a.52.52,0,0,1,.5-.41C68.65,97.19,68.76,97.36,69,97.5Zm4,6.32c0,.23-.21.28-.41.33l-.06,0-.26,0a.33.33,0,0,0,.1-.14.5.5,0,0,0,0-.12.43.43,0,0,0-.1-.22H73A.3.3,0,0,1,73,103.82Zm-1.38-3.76-.27.14-.12.06a1.6,1.6,0,0,0-1.61.65h0c-1.19.61-2-.44-3.06-.63-.07-.23-.48-.13-.44-.46l0-.2L66,99.09c.15-.41.31-.82.84-.76s.12.32.07.5h0c-.3.13-.61.23-.64.58a1.07,1.07,0,0,1,.4-.25l-.4.44,1.45-.74c1.51-1.69,2.65-.35,3.85.46C71.89,99.58,71.72,99.82,71.61,100.06Zm-9.88-1.87h2.64l0,.13-.79.24-4.11,1.21C60.19,99.06,60.64,98.12,61.73,98.19Zm.15,3.4c-.58-.24-1.13-.55-1.91-.94,1.56-.51,3.13-.22,4.41-1,.37-.68.93-.23,1.41-.25a.58.58,0,0,1-.72.41l-.29-.07h0c.14.37.54.69.07,1.12a.55.55,0,0,0,0,.91,1.65,1.65,0,0,0,2.41.25,1,1,0,0,0-.21-.16c-.54-.27-1.23.11-1.76-.2a.85.85,0,0,1-.19-.14h0c.34-.33.36-1.19,1.19-.72,0,0,0,0,0,.07l0,0a5.69,5.69,0,0,1,1.07.95,1.48,1.48,0,0,1,.13.21l3.75,1.72.42.42c-.73-.12-1.34.51-2.08.34C66.86,104,64.43,102.63,61.88,101.59Zm13.84,6.83c-.43.07-.85.16-1.28.21-.25,0-.57.18-.7-.2a.64.64,0,0,1,.05-.45c.16-.29.42-.1.63,0,.45.1.9.22,1.35.33Zm.41-2.14A9.69,9.69,0,0,0,73.94,105a3.5,3.5,0,0,0-.46-.14c.38.88,1.41,1,2.1,1.66l-.07,0h-.83L70,105.05c.78-.56,1.75-.07,2.55-.47l.69-.06.06,0c.43-.29.94,0,1.39-.18h0c.19-.21.57-.12.69-.44h.51c.45.21,1-.15,1.43.26s1.14.69,1.46,1.53c-1-.34-1.78-.66-2.63-.92-.36-.11-.79-.46-1.12.08l3.21,1.2C77.56,106.86,76.84,106.54,76.13,106.28Zm1.77.62c1.18-.72,2.07-.16,3.06.55A2.62,2.62,0,0,1,77.9,106.9Zm3.23-.37c.6-.6,1.5-.39,2.18-.77a.45.45,0,0,0,.63-.29c0-.08.07-.17.1-.26h0l.07,0,.11,0,.06,0a.41.41,0,0,0-.41-.54c-.09,0-.28,0-.28.08,0,.3.21.44.43.58l-.71.17-2.88.47a13,13,0,0,0-3.1-2c.24-.31.74-.11.94-.49.4.23.67,0,.91-.26l.77-.17.89.44a.68.68,0,0,0-.09-.66c.34,0,.69-.06.8-.49a1.25,1.25,0,0,1-.88.23l-.43,0c-.68-.48-.83.38-1.27.52a.9.9,0,0,0-.7.19h0l-2.17.27-.9.16a1.55,1.55,0,0,0-.35.07,1.86,1.86,0,0,1-1.62-.19,21,21,0,0,0-2.43-1.31c-.43-.16-1-.27-1.16-.91l0-.06a3.58,3.58,0,0,0,1.88-.84h0c.48-.07,1-.4,1.45,0a6.75,6.75,0,0,0,2.89,2.22A14,14,0,0,0,73.27,100L73,99.8c0-.39.82-.8,0-1.19l-.48-.3c-.2-.22-.46-.18-.72-.18a1,1,0,0,0,.4.3l-.06,0a.76.76,0,0,0,.58.43c.06.25,0,.36-.19.41l-.26,0-.45-.29c-.38-.3-.23-.61,0-.93l-1.37-.75a5.62,5.62,0,0,1,1.89-1.14c.61,0,.89-.49,1.14-1L74,95c-.23-.15-.42,0-.61.1a1.8,1.8,0,0,0-.2.19A2.18,2.18,0,0,0,72,96,6.07,6.07,0,0,0,69.88,97c-.7-.26-1.21-.55-.17-1.1a13.58,13.58,0,0,0,3.89-3.7,1.21,1.21,0,0,0,.28-1,3,3,0,0,1,.44-1.94c.64,1.56.1,3.2.68,4.73.22.59-.85.44-1,1,.48.18.83-.19,1.25-.29.75,1.51,1.28,3.17,2.6,4.29a36,36,0,0,1,3.25,2.51c.2.21.64.27.43.72,1.65.44,2.89,1.74,4.54,2.19,0,.21-.43.39-.2.55s.51-.1.78-.16l2.46.62-2.69.8c-.51-.49-.94-1.08-1.73-1.14l.51.51c.31.3.61.61.92.92-.25.1-.58.14-.75.32C83.83,108.47,82.5,107.26,81.13,106.53Zm22.7,5.64a1,1,0,0,1,0,.49c-.29-.4-.59-.72-1.11-.63a2.25,2.25,0,0,0-1-1.73c-.6-1-1.65-1.18-2.66-1.42-1.43-.36-2.71-1.38-4.33-1a21.56,21.56,0,0,0,4.32,1.24c.79.49,1.58,1,2.36,1.48l.28.49a19.37,19.37,0,0,0-4.19-1.63c-.67-.12-1.28-.22-1.45.68s-.76.43-1.3.36a2,2,0,0,1,.58,2.16,1,1,0,0,0,.4.94c3.6,3.61,4.74,8.06,4.37,13,0,.63-.09,1.27-.13,1.9l-.24-.45a10.13,10.13,0,0,0-.72-4.52c-.25,1.47.25,2.86.33,4.29-.08.56-.15,1.12.45,1.46-.11.42-.23.83-.37,1.33-.08-.33-.14-.57-.27-1.12-.24,1-.44,1.77-.56,2.5-.07.42-.23.73-.62.75s-.5-.36-.58-.66a7.53,7.53,0,0,1,.37-5,6.19,6.19,0,0,0-.08-5.09,5.67,5.67,0,0,0-2.18-2.61,11.91,11.91,0,0,1-4-3.67,4.52,4.52,0,0,0-1-.9,3.81,3.81,0,0,1-1.55-2.19c-.16-.72-.86-1.12-1.27-1.7-.24-.34-.68-.53-.81-1,1,0,1.72.85,2.81.7a7.17,7.17,0,0,0-2.5-1.28c-.35-.16-.74-.29-.14-.65a7.87,7.87,0,0,1,2.32-.31,9.76,9.76,0,0,0,3.77-.79,20.11,20.11,0,0,0-6.09.68,2.2,2.2,0,0,1-1.84.13,26.35,26.35,0,0,1,9.25-2.31C99.59,105.89,101.59,107.69,103.83,112.17Zm-1.14-8.46a30.66,30.66,0,0,0-3.32.21,26.59,26.59,0,0,1-9,.16c-.84-.13-.84-.86-.78-1.39s.64-.21,1-.19c1,.06,2.06.27,3.09.29s1.72,0,2.12,1.29a2.33,2.33,0,0,0-.62-2.61c-.05.66-.19,1-.89.77a57.45,57.45,0,0,0-8.28-1c-.26-.23-.58-.35-.8,0-.11.15.15.3.38.28h0a9.89,9.89,0,0,0,1.74.39c1.17.07,1.47.76,1.5,1.84a16.79,16.79,0,0,1-5.13-1.93c-.59-.33-1.15-.71-1.73-1.06-1.52-.91-1.76-1.19-1.73-2.92,0-1-.89-1.25-1.17-2,.46-.29,1.06.27,1.4-.33-1.11-.18-2-.5-2.21-1.9A30.12,30.12,0,0,0,77,88.8c-.43,1.43,0,2.81,0,4.23a11.16,11.16,0,0,1-1.88-3.7c0-.11,0-.29,0-.35,1.41-1.33.17-2.84.27-4.25,0-.42,0-.4.49-.91a1.09,1.09,0,0,0,.2-.67A27.31,27.31,0,0,0,76,77.09a9.85,9.85,0,0,1,.32-4.88,17,17,0,0,0,1.28-8,1.64,1.64,0,0,1,.3-1c1.88-2.69,3-5.8,4.51-8.66a1.21,1.21,0,0,0,.38-1,1.21,1.21,0,0,0-.63.74c-.59.88-1.19,1.75-1.86,2.73.35-4.64,4.47-7.86,8.45-8.51,2.88-.47,5.68.33,8.51.06a29.74,29.74,0,0,1,3.87-.76,1.22,1.22,0,0,1,1.39.77,2,2,0,0,0,2.18,1.36c-.22-.84-.94-1.19-1.55-1.84,2.24.08,4.33-.17,6.44.41,1.76.49,3.62.6,5.39,1a9.24,9.24,0,0,1,4.56,2.1c-.23,0-.47-.13-.69.15,1.16,1,2.33,2.09,3.57,3.22.2-.61-.14-.86-.26-1.17l-.08-.09-.59-.62c.48-.22.71.12,1,.43.7.74,1.63,1.3,1.88,2.39-.29,0-.49,0-.39.38a5.72,5.72,0,0,0,1.56,2.46c.41.41.48-.28.76-.16.55,1.39.35,3,1.06,4.31a4.75,4.75,0,0,0,.88,1.38,2,2,0,0,1,.65,2c-.62,1.74-.12,3.38.11,5.06.48,0,.22-.54.55-.67,1.34,4.27.79,8.48-.28,12.68-.24,1-.52,1.92-.8,2.87a13.56,13.56,0,0,1-5.74,7.36c.43-.91,1.09-1.73,1-2.85a.74.74,0,0,1,.46-.74,2.31,2.31,0,0,0,1.22-1.87c.17-.25.34-.55.1-.79s-.33,0-.4.24c-.23,0-.48.13-.27-.32a11,11,0,0,0,1-2.73c.3-.34.22-.77.27-1.17s.33-.56,0-.93l-.24.66-.27.94a18.6,18.6,0,0,1-2,3.58l-.24-.28a8.45,8.45,0,0,1,.73-2.5c.1-.18.16-.49-.18-.58a.41.41,0,0,0-.47.26c-.6,1.08-1.24,2.14-1.78,3.24-.17.35-.12.72-.39,1.13A12.93,12.93,0,0,0,120,91.79a.45.45,0,0,0,.38.67c.43-1.45,1.83-2,2.85-2.87a16.28,16.28,0,0,1-3.66,5.13c.79.27,1.12-.37,1.61-.66l.42.26.1.22c-1.61,1.6-3,3.45-4.89,4.78-.33.23-.62.64-1.13.47.54-.91,1.09-1.82,1.6-2.75.15-.28.45-.68,0-1s-.74.27-.82.44c-.49,1.24-1.6,1.61-2.67,2.1a12.4,12.4,0,0,0-3.08,1.66,10.9,10.9,0,0,0,4.33-1.21c.58.46-.66.82.1,1.23A21,21,0,0,1,102.69,103.71Zm37.49-43.65a7.27,7.27,0,0,1-1.79,3.37c-1.38,1.93-.91,4.2-.49,6.35.13.68.56.18.76,0a4.8,4.8,0,0,1,2.41-1.82.9.9,0,0,1,.63-.49c1-.54,1.71-1.6,3.29-1.28-1.32,1-1.94,2.41-2.88,3.53-1.81,2.13-2.12,4.66-2.47,7.22-.25,1.85-.41,3.72-.61,5.58,0,.23-.16.48.13.63s.35-.14.51-.16c2.14-.3,2.11-2.34,3-3.65.55-.8,1.21-1.52,1.88-2.35a2,2,0,0,1-.21,1.83c-.78,1.56-1.6,3.11-2.42,4.66a24.26,24.26,0,0,0-1.46,3.25,10.74,10.74,0,0,1-3.67,4.78A23.25,23.25,0,0,0,134.24,94a25.69,25.69,0,0,1-14.7,7.81l-.27-.27c.39-.25.91-.3,1.23-.89a4.07,4.07,0,0,0-1.74.51c-.89.49-1.7,1.19-2.81,1.12-.23-.12-.54,0-.73-.23a42.54,42.54,0,0,0,10.92-8.44,23.26,23.26,0,0,0,6.25-13.4c.08-.67.79-1.24.34-2-.49-.45-.23-.93-.08-1.42a25.61,25.61,0,0,0-1.07-8.48,1.33,1.33,0,0,1,.09-1.24c2.32-3.52,3.56-7.53,5.16-11.37a12.83,12.83,0,0,0,1.39-4c0-.6.37-.48.73-.28.9.51,1.54.16,2.17-.57,1.09-1.26,2.23-2.49,3.4-3.69.27-.28.5-.9,1.12-.52a1,1,0,0,0,.25,1l-.13.42c.15,0,.35,0,.44,0a.39.39,0,0,0-.07-.68h0a.1.1,0,0,0,0-.12A.88.88,0,0,1,147.3,47c.36.3,0,.75-.22,1-1,1.57-1.57,3.42-2.52,5s-1.6,3.42-2.59,5a3.19,3.19,0,0,1-1.28,1.37A1,1,0,0,0,140.18,60.06Z"/><path class="cls-1" d="M77.72,141c0,4-1.1,8.05-.6,12.11C77.25,149.1,78.25,145.09,77.72,141Z"/><path class="cls-1" d="M77.87,140.4a35.41,35.41,0,0,0,.81-10.11C78.38,133.66,77.66,137,77.87,140.4Z"/><path class="cls-1" d="M72.48,128.34v-.73a2.34,2.34,0,0,0,0-1.36c-.31.24-.19.56-.19.85a1.54,1.54,0,0,0-.18,1,57.73,57.73,0,0,0-1,8.28A34.54,34.54,0,0,0,72.48,128.34Z"/><path class="cls-1" d="M75.3,139.7c0,2.56-.9,5-.83,7.58a12.23,12.23,0,0,0-.44,5.44,26,26,0,0,0,.69-4.64C74.9,145.29,76,142.56,75.3,139.7Z"/><path class="cls-1" d="M70.79,159.92a1.86,1.86,0,0,0-.14,1.41.49.49,0,0,0,.39-.65c.84-2.79.5-5.71,1-8.54C71.23,154.68,71.21,157.33,70.79,159.92Z"/><path class="cls-1" d="M75.63,138.86c.36-1.83,1.16-3.58.91-5.49a4.36,4.36,0,0,0,.31-2,13.36,13.36,0,0,0,.24-3.27h-.3c-.05.49-.1,1-.16,1.48-.16,1.12-.31,2.24-.47,3.36A24.74,24.74,0,0,0,75.63,138.86Z"/><path class="cls-1" d="M70.17,142.5v1.17l0,.49a12.62,12.62,0,0,0-.37,5.63,31.83,31.83,0,0,0,.63-5h0c.26-2.54,1.08-5.05.52-7.66C70.41,138.85,70.77,140.74,70.17,142.5Z"/><path class="cls-1" d="M74.65,132.42l.06-.46c.42-.41.12-.94.24-1.39a6.29,6.29,0,0,0-.07-3.22l-.18,1.72a8.83,8.83,0,0,0-.29,2.34,1.19,1.19,0,0,0-.17.78,26.23,26.23,0,0,0-.49,5.46C74.13,135.91,74.93,134.26,74.65,132.42Z"/><path class="cls-1" d="M84.87,25.68a16.57,16.57,0,0,0-.58,4.13C85.25,29,85.5,27.43,84.87,25.68Z"/><path class="cls-1" d="M71.08,38.79a4.31,4.31,0,0,0,.77,3.29,14.78,14.78,0,0,0,0-3.29c0-.22-.09-.45-.29-.48S71.14,38.55,71.08,38.79Z"/><path class="cls-1" d="M79.43,15.51a13.68,13.68,0,0,0,.61,4.3A4.23,4.23,0,0,0,79.43,15.51Z"/><path class="cls-1" d="M72.94,143.1h0c-.12,2.49-1,4.92-.52,7.44a32.59,32.59,0,0,0,.78-7.1c.94-1.64.39-3.39.39-5.1C73,139.89,73.43,141.55,72.94,143.1Z"/><path class="cls-1" d="M64.86,36.06a5.07,5.07,0,0,0-.1-3.88A6.14,6.14,0,0,0,64.86,36.06Z"/><path class="cls-1" d="M64.7,20.44a17.82,17.82,0,0,1,.49-4.05A2.84,2.84,0,0,0,64.7,20.44Z"/><path class="cls-1" d="M73.52,120.17c.64-1.56.37-3.13.35-4.69A8.24,8.24,0,0,0,73.52,120.17Z"/><path class="cls-1" d="M42.19,37.63a7.72,7.72,0,0,0,1.11,3.69C43.68,39.85,43,38.72,42.19,37.63Z"/><path class="cls-1" d="M75.11,36.61a13.9,13.9,0,0,0-.66,3.94A3.46,3.46,0,0,0,75.11,36.61Z"/><path class="cls-1" d="M83.46,35.82a4.6,4.6,0,0,0-.26,2.46,2.28,2.28,0,0,0,1-2.34c0-.24-.14-.48-.41-.52S83.51,35.65,83.46,35.82Z"/><path class="cls-1" d="M68.42,42c.75-1.33.36-2.61-.09-3.88A7.62,7.62,0,0,0,68.42,42Z"/><path class="cls-1" d="M71.31,24.64a6,6,0,0,0-.4,4A5.13,5.13,0,0,0,71.31,24.64Z"/><path class="cls-1" d="M78.91,31.91a7.38,7.38,0,0,0-.49,3.86A4.53,4.53,0,0,0,78.91,31.91Z"/><path class="cls-1" d="M52.66,35.14a16.55,16.55,0,0,0,.81,4A3.71,3.71,0,0,0,52.66,35.14Z"/><path class="cls-1" d="M58.89,38.63a6.62,6.62,0,0,0,.85,3.87C60.13,41.4,59.87,40.13,58.89,38.63Z"/><path class="cls-1" d="M76.73,154.59a16.29,16.29,0,0,0-.58,5.15,24.57,24.57,0,0,0-.28,4.17,10.77,10.77,0,0,0,.68-5.35C76.59,157.23,77.26,155.93,76.73,154.59Z"/><path class="cls-1" d="M69.8,9.47a2.27,2.27,0,0,0-2,1.44c-.11.2-.18.5,0,.67s.45,0,.62-.16A4.33,4.33,0,0,0,69.8,9.47Z"/><path class="cls-1" d="M81.83,42.47a1.33,1.33,0,0,0-.2.89c0,.16,0,.35.23.25s.16-.25.24-.38a7.73,7.73,0,0,0,1.21-3.31A2.85,2.85,0,0,0,81.83,42.47Z"/><path class="cls-1" d="M75.18,126.78a8.09,8.09,0,0,0,.53-4.21A11.12,11.12,0,0,0,75.18,126.78Z"/><path class="cls-1" d="M15.23,42.43a8.59,8.59,0,0,0,1.55,3.64A4.24,4.24,0,0,0,15.23,42.43Z"/><path class="cls-1" d="M56,36.84a9.22,9.22,0,0,0,.73,4A4.55,4.55,0,0,0,56,36.84Z"/><path class="cls-1" d="M77.74,41.52c-.28,0-.34.29-.41.51a4.45,4.45,0,0,0-.18,2.28,2.17,2.17,0,0,0,1-2.19C78.16,41.88,78.11,41.52,77.74,41.52Z"/><path class="cls-1" d="M77.09,127.37a8.55,8.55,0,0,0,.54-4.42A12.67,12.67,0,0,0,77.09,127.37Z"/><path class="cls-1" d="M14.75,47.3a11.8,11.8,0,0,0,1.52,3.43C16.69,49.66,16.09,48.29,14.75,47.3Z"/><path class="cls-1" d="M16.18,53.36a3.51,3.51,0,0,0-1.59-3.15A5,5,0,0,0,16.18,53.36Z"/><path class="cls-1" d="M76.28,117a17.41,17.41,0,0,0-.37,4.88A9.43,9.43,0,0,0,76.28,117Z"/><path class="cls-1" d="M28.4,36.68c.53,1.24.59,2.44,1.31,3.46A3,3,0,0,0,28.4,36.68Z"/><path class="cls-1" d="M73.15,120.78a13.78,13.78,0,0,0-.53,4.38A8,8,0,0,0,73.15,120.78Z"/><path class="cls-1" d="M77.8,122.55a5.36,5.36,0,0,0,.52-3.25c.33-1,.07-2,.21-3.22-.35.45-.49.7-.45,1A28.71,28.71,0,0,0,77.8,122.55Z"/><path class="cls-1" d="M77.16,11.8s-.07,0-.18.06a3.32,3.32,0,0,0,1.44,2.4c.11.08.31-.09.28-.27A2.58,2.58,0,0,0,77.16,11.8Z"/><path class="cls-1" d="M71,36.63a2.25,2.25,0,0,0,.37-2.41.45.45,0,0,0-.44-.33c-.25,0-.29.22-.3.42A3.51,3.51,0,0,0,71,36.63Z"/><path class="cls-1" d="M67,12.6a3.16,3.16,0,0,0-1.93,2.65A3.28,3.28,0,0,0,67,12.6Z"/><path class="cls-1" d="M74.22,44.67c1-.75.91-1.73.71-2.87-.92.65-.77,1.54-.93,2.32Z"/><path class="cls-1" d="M84.09,34a2.83,2.83,0,0,0,.56-3A2.85,2.85,0,0,0,84.09,34Z"/><path class="cls-1" d="M78.66,37.06A2.77,2.77,0,0,0,78,40C78.91,39.14,78.86,38.24,78.66,37.06Z"/><path class="cls-1" d="M65.33,37.33a2.47,2.47,0,0,0,.4,2.87A2.56,2.56,0,0,0,65.33,37.33Z"/><path class="cls-1" d="M69.75,172.08c.17-1,.76-2,.16-3.11A4,4,0,0,0,69.75,172.08Z"/><path class="cls-1" d="M16,56.65a2.62,2.62,0,0,0-1.18-2.59A2.34,2.34,0,0,0,16,56.65Z"/><path class="cls-1" d="M71.27,175.49a5.08,5.08,0,0,0,0-3.2A4,4,0,0,0,71.27,175.49Z"/><path class="cls-1" d="M18.29,56.74a2.44,2.44,0,0,0-1-2.36c-.15-.12-.32.07-.32.22A2.29,2.29,0,0,0,18.29,56.74Z"/><path class="cls-1" d="M31.51,43.68A2.75,2.75,0,0,0,30.59,41,2.29,2.29,0,0,0,31.51,43.68Z"/><path class="cls-1" d="M75.93,164.28a5.09,5.09,0,0,0-.24,3.62,1.14,1.14,0,0,0,.06,1.1,1.19,1.19,0,0,0,.08-1.1A9.19,9.19,0,0,0,75.93,164.28Z"/><path class="cls-1" d="M70.89,32.54a2.8,2.8,0,0,0,.23-2.91A2.61,2.61,0,0,0,70.89,32.54Z"/><path class="cls-1" d="M71.51,168.05a6.86,6.86,0,0,0,.35-3.39A4.79,4.79,0,0,0,71.51,168.05Z"/><path class="cls-1" d="M16.24,62.87s.08,0,.16,0a2.19,2.19,0,0,0-.91-2.11.2.2,0,0,0-.35.12A1.86,1.86,0,0,0,16.24,62.87Z"/><path class="cls-1" d="M67.94,161.52a6.32,6.32,0,0,0-.4,3.74c-.12.35-.33.7.1,1.13a1.48,1.48,0,0,0,0-1.13A8.91,8.91,0,0,0,67.94,161.52Z"/><path class="cls-1" d="M69.32,151.22c-.61,1-.39,2.05-.66,3-.27,2.2-.53,4.41-.8,6.61a8.18,8.18,0,0,0,1-4.89C68.82,154.38,69.74,153,69.32,151.22Z"/><path class="cls-1" d="M75.35,174.28c.25-1,.65-2,.1-3A4.12,4.12,0,0,0,75.35,174.28Z"/><path class="cls-1" d="M70.41,165a4.85,4.85,0,0,0,.24-3.12C70.43,162.93,69.93,163.92,70.41,165Z"/><path class="cls-1" d="M79,111.81v0s0,0,0,0Z"/><path class="cls-1" d="M79,111.84c-.64,1.18-.37,2.46-.48,3.7A6.62,6.62,0,0,0,79,111.84Z"/><path class="cls-1" d="M67,172a6.6,6.6,0,0,0,.24-3.46A4.32,4.32,0,0,0,67,172Z"/><path class="cls-1" d="M73.6,154.13c-.55.28-.31.68-.39,1-.3.39-.17.83-.18,1.26a2.31,2.31,0,0,0-.3,1.36,1.94,1.94,0,0,0-.13.66v.07a7.18,7.18,0,0,1,0,1,15.46,15.46,0,0,0-.69,4.48c.32-1.16,1.11-2.18.91-3.47h0A3.33,3.33,0,0,0,73,159C72.92,157.39,73.92,155.88,73.6,154.13Z"/><path class="cls-1" d="M74.07,113.75a2,2,0,0,0,.41-1.39,4.4,4.4,0,0,0,.13-2.21.86.86,0,0,0-.4.94A5.37,5.37,0,0,0,74.07,113.75Z"/><path class="cls-1" d="M80,117.61a4.13,4.13,0,0,0,.12-1.85c0-.18-.09-.41-.35-.21-.06,0,0,.23,0,.34,0,.88-.11,1.77-.17,2.78C80.08,118.31,79.94,117.93,80,117.61Z"/><path class="cls-1" d="M79.26,121.64a15.53,15.53,0,0,0,.06,3.38c.65-1.51.33-2.82.35-4.09v-1.82A4.05,4.05,0,0,0,79.26,121.64Z"/><path class="cls-1" d="M69.05,175c.52-.67.65-1.1.4-1.7A2.51,2.51,0,0,0,69.05,175Z"/><path class="cls-1" d="M70.93,178.21a.42.42,0,0,0,.29,0,1.87,1.87,0,0,0,0-1.48A1.28,1.28,0,0,0,70.93,178.21Z"/><path class="cls-1" d="M74.78,176.91a.3.3,0,0,0,.29,0,1.16,1.16,0,0,0-.09-1.44C75,176.13,74.45,176.45,74.78,176.91Z"/><path class="cls-1" d="M74.27,183a1.15,1.15,0,0,0,.21-1.5A1.6,1.6,0,0,0,74.27,183Z"/><path class="cls-1" d="M66.16,176.93a1.13,1.13,0,0,0,.08-1.3C65.91,176.14,65.61,176.47,66.16,176.93Z"/><path class="cls-1" d="M71.49,170a1.41,1.41,0,0,0,.11-1.63A1.57,1.57,0,0,0,71.49,170Z"/><path class="cls-1" d="M70.74,184.79c.2-.42.53-.83.07-1.5A1.61,1.61,0,0,0,70.74,184.79Z"/><path class="cls-1" d="M71,180.65a1.07,1.07,0,0,0-.08-1.29C70.73,179.83,70.41,180.22,71,180.65Z"/><path class="cls-1" d="M65.87,178.78c.23-.44.53-.74,0-1.3C65.84,178,65.38,178.23,65.87,178.78Z"/><path class="cls-1" d="M70.88,182.65c.25-.51.36-.84,0-1.25A.91.91,0,0,0,70.88,182.65Z"/><path class="cls-1" d="M65.58,180.78a1.88,1.88,0,0,0,.16-1.64C65.49,179.77,65.18,180.1,65.58,180.78Z"/><path class="cls-1" d="M68.36,180.37c.41-.67.41-.67.15-1.17C68.33,179.56,68.05,179.91,68.36,180.37Z"/><path class="cls-1" d="M74.8,179c.4-.29.37-.62.14-1.13C74.54,178.27,74.45,178.58,74.8,179Z"/><path class="cls-1" d="M68.59,178.54c.47-.26.5-.59.28-1.06A.77.77,0,0,0,68.59,178.54Z"/><path class="cls-1" d="M74.54,180.79c.45-.3.45-.66.25-1.16A.87.87,0,0,0,74.54,180.79Z"/><path class="cls-1" d="M69,176.81a.86.86,0,0,0,.15-1.12A.69.69,0,0,0,69,176.81Z"/><path class="cls-1" d="M66.31,173.9c.22.2-.64.72.22.72.41-.42.23-.88.19-1.59C66.44,173.43,66.25,173.6,66.31,173.9Z"/><path class="cls-1" d="M70.53,165.6s-.23-.09-.26,0a.67.67,0,0,0,0,.8A.5.5,0,0,0,70.53,165.6Z"/><path class="cls-1" d="M67.35,167c-.2.23-.15.49,0,.79.32-.27.4-.5.27-.77C67.59,167,67.38,166.93,67.35,167Z"/><path class="cls-1" d="M79,111.81h0v0Z"/><path class="cls-1" d="M79.13,111s-.15,0-.2,0c-.41.28,0,.51,0,.77A.52.52,0,0,0,79.13,111Z"/><path class="cls-1" d="M75.51,170.07a.4.4,0,0,0,.27.09.65.65,0,0,0,0-.74A.44.44,0,0,0,75.51,170.07Z"/><path class="cls-1" d="M77.16,111.5c-.41.16-.26.52-.29.81a7,7,0,0,0-.26,3.21,6,6,0,0,0,.41-3.21C77.07,112,77.53,111.84,77.16,111.5Z"/><path class="cls-1" d="M71.41,171.24c.26-.36.37-.62,0-1A.94.94,0,0,0,71.41,171.24Z"/><path class="cls-1" d="M72.06,151.29a1.19,1.19,0,0,0,.13.35c.11-.14.22-.22.22-.31a.34.34,0,0,0-.17-.25C72.08,151,72.05,151.18,72.06,151.29Z"/><path class="cls-1" d="M80.45,95.49c.62.23.8.94,1.37,1.3a16,16,0,0,0-1.3-3.55A.54.54,0,0,0,80,93c-.36.06-.18.37-.25.56-.33.84.67,1.17.7,1.87h0s0,0,0,0h0Z"/><path class="cls-1" d="M74.25,51.58h0l0,0h.16C74.38,51.55,74.31,51.54,74.25,51.58Z"/><path class="cls-1" d="M44.07,100.46c-2.52-.35-5-.85-7.49.34C39.08,100.7,41.57,100.49,44.07,100.46Z"/><path class="cls-1" d="M59.64,104.76a3.27,3.27,0,0,0-2.58-1A4.33,4.33,0,0,0,59.64,104.76Z"/><path class="cls-1" d="M52.76,102.57a4.61,4.61,0,0,0,2.84.63C54.07,102.42,53.92,102.39,52.76,102.57Z"/><path class="cls-1" d="M63.63,106.25c-1.06-.83-1.49-1-2.47-.71C62.11,105.67,62.7,106.41,63.63,106.25Z"/><path class="cls-1" d="M47.23,101.2l.85.23a9.24,9.24,0,0,0,2.79.57,3,3,0,0,0-2-.77A1.84,1.84,0,0,0,47.23,101.2Z"/><path class="cls-1" d="M26.93,105.07A9.68,9.68,0,0,0,23,110.29a21.27,21.27,0,0,1,4.21-5,1,1,0,0,0,.64-.68C27.36,104.54,27.15,104.81,26.93,105.07Z"/><path class="cls-1" d="M32.06,102.16a.84.84,0,0,0,1-.15.89.89,0,0,0,.82-.5,1.33,1.33,0,0,0-1.12.25C32.46,101.81,32.19,101.85,32.06,102.16Z"/><path class="cls-1" d="M29.75,103.12c-.36.12-.74.21-.82.74.5,0,.79-.3,1.15-.49.18-.13.68-.13.44-.47S30,102.94,29.75,103.12Z"/><path class="cls-1" d="M48.92,95.61c.42-.57,0-1,0-1.61a18.66,18.66,0,0,0,5.91.34,16.66,16.66,0,0,0-7.14-1.17C48.33,94,48.08,95.06,48.92,95.61Z"/><path class="cls-1" d="M48,90.4c-.57-1.86-1.17-3.71-1.77-5.57-.06-.17-.15-.38-.58-.3a20.86,20.86,0,0,0,1.29,6.29c.13.32.42.68.82.53S48.1,90.73,48,90.4Z"/><path class="cls-1" d="M73.24,81.18c-1.85,2.43-2.54,5.38-4,8A16.53,16.53,0,0,0,73.24,81.18Z"/><path class="cls-1" d="M41.33,89.7c0-.17-.42-.3-.49-.14-.49,1.13-1,.14-1.49,0s-.9-.66-1.65-.48c1.79,1.77,3.68,3.08,6.36,3.19C43.08,91.39,41.66,91.1,41.33,89.7Z"/><path class="cls-1" d="M71,56.88c.1-1.9-2.3-5-4.87-6.47-.34-.28-.66-.63-1.24-.37l1,.63A26.64,26.64,0,0,1,71,56.88Z"/><path class="cls-1" d="M33.8,78.57A11.22,11.22,0,0,0,33.18,72,12.13,12.13,0,0,0,33.8,78.57Z"/><path class="cls-1" d="M74.26,65.87a8.8,8.8,0,0,0-1.43-6.22A18.49,18.49,0,0,0,74.26,65.87Z"/><path class="cls-1" d="M57.52,93.47a6.66,6.66,0,0,0,1.3-3.62C57.39,90.91,57.46,92.2,57.52,93.47Z"/><path class="cls-1" d="M58.71,49.3a7.06,7.06,0,0,0,.73,3.86A4.74,4.74,0,0,0,58.71,49.3Z"/><path class="cls-1" d="M45.81,78.09a2.86,2.86,0,0,0,.06,3.77A17.12,17.12,0,0,0,45.81,78.09Z"/><path class="cls-1" d="M39.78,80.56a5.48,5.48,0,0,0,0,3.64A4.48,4.48,0,0,0,39.78,80.56Z"/><path class="cls-1" d="M73.32,55.52c.32,0,.62-.15.57-.65a2.67,2.67,0,0,0-1.65-1.37c-.24-.06-.52.12-.31.41C72.33,54.5,72.37,55.44,73.32,55.52Z"/><path class="cls-1" d="M45.23,50.71c-1.17,1-1.24,2.24-.3,3.69A22.15,22.15,0,0,1,45.23,50.71Z"/><path class="cls-1" d="M56.05,45.86a3.91,3.91,0,0,0,1.63,2.41C57.86,47,57.39,46.29,56.05,45.86Z"/><path class="cls-1" d="M46.07,65a6.45,6.45,0,0,0-.68,3.48C46.46,67.44,46.13,66.17,46.07,65Z"/><path class="cls-1" d="M59.36,80.4c.79-.87.92-1.86.45-3.9A9.2,9.2,0,0,0,59.36,80.4Z"/><path class="cls-1" d="M45.85,74.44c0-.25-.17-.58-.53-.52s-.32.32-.34.56a3.3,3.3,0,0,0,.31,2.08A2,2,0,0,0,45.85,74.44Z"/><path class="cls-1" d="M33.86,53c-.55.1-.77.82-.91,1.39a.56.56,0,0,0,.61.7c.76,0,.54-.7.66-1.15C34.12,53.54,34.39,52.86,33.86,53Z"/><path class="cls-1" d="M59.08,85.71c-.31,0-.31.33-.37.53a4.64,4.64,0,0,0-.06,2.11,1.94,1.94,0,0,0,.9-2C59.52,86,59.42,85.72,59.08,85.71Z"/><path class="cls-1" d="M40.6,88.18a2.66,2.66,0,0,0-.36-2.85A2.34,2.34,0,0,0,40.6,88.18Z"/><path class="cls-1" d="M59.19,84.47c.81-1,1.05-1.83.53-2.84C58.86,82.37,59,83.26,59.19,84.47Z"/><path class="cls-1" d="M45.43,49.45A2.28,2.28,0,0,0,46.61,48a3.05,3.05,0,0,0,.12-.41s0-.18-.07-.25-.29-.06-.42,0a2.44,2.44,0,0,0-1.09,1.76C45.14,49.36,45.25,49.52,45.43,49.45Z"/><path class="cls-1" d="M45.71,69.9c-.24-.05-.35.16-.42.33a2.49,2.49,0,0,0,0,2.21c.73-.56.63-1.33.6-2.07C45.93,70.2,46,70,45.71,69.9Z"/><path class="cls-1" d="M71.3,52.8c.26.06.31-.14.27-.42s-.12-.67-.53-.74c-.25,0-.38.26-.4.48C70.6,52.57,71,52.71,71.3,52.8Z"/><path class="cls-1" d="M70,51.49c.29,0,.41-.19.42-.46a.42.42,0,0,0-.43-.47c-.24,0-.49.13-.51.41S69.66,51.47,70,51.49Z"/><path class="cls-1" d="M33,57.18a.54.54,0,0,0-.11-.72.34.34,0,0,0-.31,0,.52.52,0,0,0-.16.7,1.35,1.35,0,0,1,.05.45,2.09,2.09,0,0,0-.35,2.09s.36,0,.41-.05c.4-.61.91-1.22.42-2A1.33,1.33,0,0,1,33,57.18Z"/><path class="cls-1" d="M68,49.88c.19-.77-.1-1.11-1-1.16C67.21,49.33,67.38,49.76,68,49.88Z"/><path class="cls-1" d="M34.77,51.37c-.37,0-.45.24-.46.55s.07.45.32.39a.84.84,0,0,0,.65-.63C35.32,51.36,35,51.37,34.77,51.37Z"/><path class="cls-1" d="M74.44,56.92h0v0Z"/><path class="cls-1" d="M37.24,48.41c.07-.15.07-.38-.08-.4-.43-.06-.75.16-1,.68C36.64,48.84,37,48.87,37.24,48.41Z"/><path class="cls-1" d="M68.87,50.59c.23,0,.31-.21.33-.42s-.1-.48-.39-.5a.31.31,0,0,0-.37.35C68.43,50.32,68.51,50.59,68.87,50.59Z"/><path class="cls-1" d="M35.44,50.92c.25,0,.48,0,.46-.36a.48.48,0,0,0-.43-.47.37.37,0,0,0-.45.4C35,50.77,35.16,50.91,35.44,50.92Z"/><path class="cls-1" d="M36.09,49.82c.19,0,.4-.09.43-.33s-.25-.33-.47-.38-.42.06-.43.32S35.82,49.84,36.09,49.82Z"/><path class="cls-1" d="M33,55.54a.35.35,0,0,0-.43.29.28.28,0,0,0,.2.36c.19.06.38.05.47-.19S33.23,55.6,33,55.54Z"/><path class="cls-1" d="M74.13,56.16c-.21,0-.42.07-.39.32.06.42.37.44.7.42C74.4,56.63,74.63,56.24,74.13,56.16Z"/><path class="cls-1" d="M74.44,56.92l0,0h0Z"/><path class="cls-1" d="M39.11,50.68a1.05,1.05,0,0,0-.63.71,19.4,19.4,0,0,0-3.37,7,47.22,47.22,0,0,0,3.64-6.75C39,51.41,39.28,51.14,39.11,50.68Z"/><path class="cls-1" d="M113.65,97.27c1-1.81,2.8-2.08,4.19-3,.19.55-.47,1.13.19,1.79.63-.93,1.25-1.82,1.85-2.73a.49.49,0,0,0,0-.65c-.2-.17-.44,0-.61.14s-.32.35-.47.52c-.35,0-.72-.14-1,.19l-2.09.81c.87-1.81,2-3.34,2.31-5.25a10.21,10.21,0,0,0-2.19,3.19c-.7,1.64-1.49,3.17-3.39,3.72-.07,0-.11.17-.16.27C112.78,96.55,114,95.5,113.65,97.27Z"/><path class="cls-1" d="M126.45,83.32c0,.41-.24,1,.28,1.15s.66-.47.81-.86a21.33,21.33,0,0,0,1.26-5.68c.09-1,.38-2-.21-3a79.88,79.88,0,0,1-2.1,8A1.08,1.08,0,0,0,126.45,83.32Z"/><path class="cls-1" d="M124.82,78c0,.42.21,1.15.05,1.24-1.35.77-.62,2.13-1,3.16a1.38,1.38,0,0,0,.48,1.62,4,4,0,0,0,.33-.76c.33-2.48.94-4.9,1.47-7.34a2.69,2.69,0,0,0-.85-2.71C125.13,75,125,76.5,124.82,78Z"/><path class="cls-1" d="M125,64.4c.26,1-.56,1.93.08,2.95.45.71,1,1.64.59,2.45-.31.62-.06,1.12-.12,1.67a.54.54,0,0,0,.53.65c.37,0,.3-.41.39-.63s0-.47,0-.7a7.46,7.46,0,0,0-.35-3.21c-.29-1-.28-2.06-.53-3.08a.38.38,0,0,0-.41-.34C125.07,64.18,124.93,64.34,125,64.4Z"/><path class="cls-1" d="M105.08,98.58c.2.08.45.07.55.32a3.05,3.05,0,0,0-.35.87c-.08,1.32-.79,1.73-2.06,1.82a7.15,7.15,0,0,0-3.35.77c2.65.37,5,.33,7.23-1-.58-.48-1,0-1.45-.27a9.63,9.63,0,0,0,.68-2,.41.41,0,0,0,.06-.39c.29-.85,1.64-.65,2-1.62a59.76,59.76,0,0,0-7.27,1.09A10.13,10.13,0,0,0,105.08,98.58Z"/><path class="cls-1" d="M119.43,84.38a8.58,8.58,0,0,0,1.63-6.77A27.76,27.76,0,0,0,119.43,84.38Z"/><path class="cls-1" d="M119.71,63.41a10.31,10.31,0,0,0-4.76-7,1.07,1.07,0,0,0-1.11-.4l.86.65A25.89,25.89,0,0,1,119.71,63.41Z"/><path class="cls-1" d="M121.5,73.51a9.41,9.41,0,0,0-.38-6.63A21.38,21.38,0,0,0,121.5,73.51Z"/><path class="cls-1" d="M121.56,58.46a.62.62,0,0,0,.89-.48c-.23-.8-.89-1.18-1.52-1.6-.16-.11-.43-.2-.5,0-.19.61.38,1,.56,1.46A.91.91,0,0,0,121.56,58.46Z"/><path class="cls-1" d="M108.87,59.16a5.2,5.2,0,0,0-.52-4.17A8.58,8.58,0,0,0,108.87,59.16Z"/><path class="cls-1" d="M107.56,88.12a3.62,3.62,0,0,0,.51-4A13.6,13.6,0,0,0,107.56,88.12Z"/><path class="cls-1" d="M107.09,93.82c-.36-.07-.44.29-.49.53a3.87,3.87,0,0,0-.13,2.21,2.15,2.15,0,0,0,1-2.09C107.47,94.21,107.4,93.88,107.09,93.82Z"/><path class="cls-1" d="M107.33,53.81c.1-1.32-.17-1.78-1.71-2.81A4,4,0,0,0,107.33,53.81Z"/><path class="cls-1" d="M97.7,49l-.18.15a2.51,2.51,0,0,0-1,1.25c-.17.65,0,.85.58.56l.11,0c.34-.43.71-.84,1-1.3C98.73,48.87,98.14,49,97.7,49Z"/><path class="cls-1" d="M108,89.38a2.61,2.61,0,0,0-.66,2.94C108.18,91.41,108.09,90.51,108,89.38Z"/><path class="cls-1" d="M120,55.62c-.1-.61-.15-1.09-.66-1.29a.75.75,0,0,0-.31.44C118.94,55.4,119.39,55.53,120,55.62Z"/><path class="cls-1" d="M118.26,54.23c.33,0,.32-.29.33-.53s-.18-.52-.53-.44-.43.2-.41.48A.61.61,0,0,0,118.26,54.23Z"/><path class="cls-1" d="M116.07,52.46c.27-.92-.23-1.11-1-1.41A1.63,1.63,0,0,0,116.07,52.46Z"/><path class="cls-1" d="M123.64,61.1h0a5.31,5.31,0,0,0,.86,2.43c.1.18.21.41.42.31a.59.59,0,0,0,.24-.49c-.17-1-.19-2-1.44-2.33.19-.79-.29-.94-.89-1C123,60.51,122.92,61.09,123.64,61.1Z"/><path class="cls-1" d="M122.79,60.05h0v0h0l0,0Z"/><path class="cls-1" d="M117.09,53.18c.25,0,.31-.19.34-.38s-.18-.54-.51-.55-.32.2-.33.41A.45.45,0,0,0,117.09,53.18Z"/><path class="cls-1" d="M122.81,60c.18-.27.5-.55,0-.82-.13-.07-.3-.17-.39,0C122.19,59.67,122.45,59.88,122.81,60Z"/><path class="cls-1" d="M125.8,73c.11,0,.22-.09.16-.28s-.14-.21-.31-.21-.26.13-.2.3A.26.26,0,0,0,125.8,73Z"/><path class="cls-1" d="M132.17,60c.09.16,0,.43.26.49a7.84,7.84,0,0,0,1.51-3.35C132.79,57.77,132.59,58.11,132.17,60Z"/><path class="cls-1" d="M127,27.45a8.22,8.22,0,0,0-.75,4A5,5,0,0,0,127,27.45Z"/><path class="cls-1" d="M123,43.44a7.78,7.78,0,0,0-.64,3.8C123.41,46.14,123.07,44.76,123,43.44Z"/><path class="cls-1" d="M113.17,23.46c-1.61.71-2.21,2-1.86,3.89A20.71,20.71,0,0,1,113.17,23.46Z"/><path class="cls-1" d="M110.63,40.36c.25,0,.34-.17.4-.34a5.48,5.48,0,0,0,0-3.55,14.58,14.58,0,0,0-.64,3.42C110.4,40.06,110.35,40.32,110.63,40.36Z"/><path class="cls-1" d="M126.8,53.59c1-1.09.86-2.42.72-3.75A7.23,7.23,0,0,0,126.8,53.59Z"/><path class="cls-1" d="M93.8,31.41a12.36,12.36,0,0,0-.66,3.69C94.13,34.46,94.38,33,93.8,31.41Z"/><path class="cls-1" d="M97.76,38.33a10.06,10.06,0,0,0-.28,3.7C98.34,41.43,98.46,39.83,97.76,38.33Z"/><path class="cls-1" d="M93.77,40.82a.61.61,0,0,0-.43-.33c-.25,0-.26.26-.29.43a4.3,4.3,0,0,0,.27,2.33A2.15,2.15,0,0,0,93.77,40.82Z"/><path class="cls-1" d="M132.67,49.21c.33.12.48-.15.6-.42a6.5,6.5,0,0,0,.34-3.36,12,12,0,0,0-1,3.13C132.58,48.79,132.21,49.05,132.67,49.21Z"/><path class="cls-1" d="M135.26,53.07a.62.62,0,0,0-.34-.43c-.21-.07-.31.17-.39.35a3.88,3.88,0,0,0-.41,2.34A2.07,2.07,0,0,0,135.26,53.07Z"/><path class="cls-1" d="M132,55.5a.51.51,0,0,0-.32-.47c-.23-.07-.33.12-.42.31a3.73,3.73,0,0,0-.39,2.43A2.34,2.34,0,0,0,132,55.5Z"/><path class="cls-1" d="M101.59,42.08a7.25,7.25,0,0,0-.2,3.58C102.25,44.52,102,43.31,101.59,42.08Z"/><path class="cls-1" d="M90.37,42.45c-.08-.26-.21-.58-.53-.53s-.31.33-.3.58a3.27,3.27,0,0,0,.35,2.11A2,2,0,0,0,90.37,42.45Z"/><path class="cls-1" d="M135.43,51.14a2.67,2.67,0,0,0,.79-2.49c0-.19-.3-.15-.38,0a2.63,2.63,0,0,0-.61,2.4S135.29,51,135.43,51.14Z"/><path class="cls-1" d="M115.9,20.7a2.8,2.8,0,0,0-2.54,1.74A2.93,2.93,0,0,0,115.9,20.7Z"/><path class="cls-1" d="M132.82,50.76a2.66,2.66,0,0,0-.83,2.89A2.87,2.87,0,0,0,132.82,50.76Z"/><path class="cls-1" d="M90.17,37.67a2.31,2.31,0,0,0-.23,2.88A2.66,2.66,0,0,0,90.17,37.67Z"/><path class="cls-1" d="M87.91,41c-.91,1.08-1,1.66-.3,2.72A2.79,2.79,0,0,0,87.91,41Z"/><path class="cls-1" d="M97.74,45.6c0,.13.19.23.3.34.11-.15.3-.28.33-.44a3.19,3.19,0,0,0-.25-2.23A2.19,2.19,0,0,0,97.74,45.6Z"/><path class="cls-1" d="M93.74,36.29c-.89.83-.8,1.71-.44,2.81A2.64,2.64,0,0,0,93.74,36.29Z"/><path class="cls-1" d="M111,41.52a2.83,2.83,0,0,0-.39,3A3.13,3.13,0,0,0,111,41.52Z"/><path class="cls-1" d="M94.45,96.22c-.27-1.08-.54-2.16-.86-3.23-.12-.42-.11-.94-.73-1.28a35.87,35.87,0,0,0,.64,6.16c-2-.4-3.94-.11-5.78-.87-.33-.14-.74.27-.68.35.52.71.21,1.77,1,2.37.59-.5.16-1.22.4-1.84a36.1,36.1,0,0,1,5,.9c1.22.42,2-.07,3.1-.22C94.78,98.62,94.74,97.32,94.45,96.22Z"/><path class="cls-1" d="M77.8,80.54c0,.29.32.66.65.56.48-.14.27-.58.17-.9a14,14,0,0,1-.12-5.63,2.61,2.61,0,0,0-.89-2.71c-.09,1.85-.47,3.5.07,5.14,0,.1.06.28,0,.33C76.49,78.44,77.71,79.48,77.8,80.54Z"/><path class="cls-1" d="M78.63,82c0-.22,0-.54-.33-.53s-.28.3-.37.57c-.53,1.75,0,3.43.41,5,.17.62.07,1.73,1.34,2C79,86.72,79.16,84.32,78.63,82Z"/><path class="cls-1" d="M84.26,98.51c-1.23-2.78-1.58-5.84-2.65-8.68A12.45,12.45,0,0,0,84.26,98.51Z"/><path class="cls-1" d="M78.42,71c.55.24.64-.43.71-.72.41-1.76.38-3.62,1.25-5.29.12-.23.11-.56-.31-.61-.07,0-.18,0-.2.11-.32.79-1.36,1.14-1.17,2.29.14.87.36,1.88-.52,2.68C78,69.54,77.68,70.61,78.42,71Z"/><path class="cls-1" d="M80.54,84.85c.15-2.29.41-4.59-.37-6.86A10.52,10.52,0,0,0,80.54,84.85Z"/><path class="cls-1" d="M80.55,73.9a35.42,35.42,0,0,0,1.53-6.71C80.78,68.34,79.92,72.1,80.55,73.9Z"/><path class="cls-1" d="M93.17,85.11c-1,1.19-1,2.33-.11,3.89C93.18,87.59,93.56,86.43,93.17,85.11Z"/><path class="cls-1" d="M79.85,89.74a.42.42,0,0,0-.43-.35.79.79,0,0,0-.18.14c-.4.42.12,2.69.67,3,.37.19.56,0,.49-.33C80.25,91.36,80.05,90.55,79.85,89.74Z"/><path class="cls-1" d="M86.67,87.47a7.9,7.9,0,0,0-.22,4.2A5.27,5.27,0,0,0,86.67,87.47Z"/><path class="cls-1" d="M94.06,71.08a7.38,7.38,0,0,0-.78,3.73A4.17,4.17,0,0,0,94.06,71.08Z"/><path class="cls-1" d="M93.36,81a.46.46,0,0,0-.4-.39c-.23,0-.3.2-.35.41a3.54,3.54,0,0,0,.16,2.37A2.14,2.14,0,0,0,93.36,81Z"/><path class="cls-1" d="M82.33,59.06c.63-.31.56-1,.75-1.5,0-.31.09-.64-.24-.76s-.46.24-.6.45c-.32.47-.93.86-.52,1.55A.48.48,0,0,0,82.33,59.06Z"/><path class="cls-1" d="M93.84,56a2.66,2.66,0,0,0-.48,3.75C93.52,58.46,93.67,57.22,93.84,56Z"/><path class="cls-1" d="M80.39,64c.56-.66,1.18-1.31.7-2.29.08-.18.16-.35.23-.52s.16-.59-.18-.67-.5.25-.48.58a3.87,3.87,0,0,0,.15.56h0A2.27,2.27,0,0,0,80,63.87.21.21,0,0,0,80.39,64Z"/><path class="cls-1" d="M93.49,76.08a2.81,2.81,0,0,0-.45,3A2.94,2.94,0,0,0,93.49,76.08Z"/><path class="cls-1" d="M87,92.48a2.61,2.61,0,0,0,.18,3A3.12,3.12,0,0,0,87,92.48Z"/><path class="cls-1" d="M95.6,52.3c-1.15.48-1.46.88-1.75,2.36A2.72,2.72,0,0,0,95.6,52.3Z"/><path class="cls-1" d="M82,97.18s-.28.21-.26.31a2.1,2.1,0,0,0,1.69,1.94A4.29,4.29,0,0,0,82,97.18Z"/><path class="cls-1" d="M83.62,56.17a1.12,1.12,0,0,0,.85-.58.41.41,0,0,0-.37-.36.58.58,0,0,0-.75.53C83.31,56,83.37,56.19,83.62,56.17Z"/><path class="cls-1" d="M84.83,54.79c.28,0,.46-.11.41-.54a.5.5,0,0,0-.43-.37.49.49,0,0,0-.5.55C84.32,54.74,84.59,54.78,84.83,54.79Z"/><path class="cls-1" d="M85.6,53.76a.5.5,0,0,0,.52-.41c.06-.32-.22-.37-.51-.45s-.43.09-.44.41A.4.4,0,0,0,85.6,53.76Z"/><path class="cls-1" d="M87.06,52.22c0-.07,0-.29,0-.31-.5-.17-.8.11-1.12.57A.74.74,0,0,0,87.06,52.22Z"/><path class="cls-1" d="M81.32,60.25a.31.31,0,0,0,.37-.34.31.31,0,0,0-.33-.35c-.18,0-.28.16-.3.36A.28.28,0,0,0,81.32,60.25Z"/><path class="cls-1" d="M87.61,55.23a1.18,1.18,0,0,0-.7.72,26,26,0,0,0-4.29,7.6l.36.21,4.18-7.53A1.11,1.11,0,0,0,87.61,55.23Z"/><path class="cls-1" d="M22.42,62.36a8.71,8.71,0,0,0,2.08-5.89C24,58.5,22.92,60.33,22.42,62.36Z"/><path class="cls-1" d="M29.12,85.09a47.45,47.45,0,0,1-2.55-5A6.35,6.35,0,0,0,29.12,85.09Z"/><path class="cls-1" d="M13.32,75.2c.27-1.84.87-3.69,0-5.51C13.7,71.53,12.59,73.37,13.32,75.2Z"/><path class="cls-1" d="M25,53.71a5.18,5.18,0,0,0,.37-3A4.79,4.79,0,0,0,25,53.71Z"/><path class="cls-1" d="M24.93,42.42a4.48,4.48,0,0,0,0,2.85A3.42,3.42,0,0,0,24.93,42.42Z"/><path class="cls-1" d="M25.06,48.77a1.9,1.9,0,0,0,0-2.41Z"/><path class="cls-1" d="M11.42,64.84A3.54,3.54,0,0,0,12.62,67,2.77,2.77,0,0,0,11.42,64.84Z"/><path class="cls-1" d="M6.48,60.19A2.29,2.29,0,0,0,8,61.49,2,2,0,0,0,6.48,60.19Z"/><path class="cls-1" d="M20.51,84.22a16.34,16.34,0,0,0-3.27-2.51,9.61,9.61,0,0,0,3,2.79,3.69,3.69,0,0,0,1.46.91A2.6,2.6,0,0,0,20.51,84.22Z"/><path class="cls-1" d="M32.22,88.5a2.15,2.15,0,0,0,1.3,1.08A1.39,1.39,0,0,0,32.22,88.5Z"/><path class="cls-1" d="M14.45,78.74c.2-.7-.18-1-.65-1.63A2,2,0,0,0,14.45,78.74Z"/><path class="cls-1" d="M21.06,64a1.86,1.86,0,0,0-1,1.39C20.73,65.18,20.86,64.74,21.06,64Z"/><path class="cls-1" d="M15,79.74c.53.67.84,1.08,1.37,1.23A2,2,0,0,0,15,79.74Z"/><path class="cls-1" d="M27.16,77.25a6.43,6.43,0,0,0,.58-2.35,2.67,2.67,0,0,0-.83,1.83,1.15,1.15,0,0,0-.05,1.21C27,77.64,27.08,77.45,27.16,77.25Z"/><path class="cls-1" d="M32.24,90.48,27.5,86.84h0a3.8,3.8,0,0,0-1.26-.91A3.69,3.69,0,0,0,25,85a1.63,1.63,0,0,0-.7-.77c-1.33-1.64-2.9-3.09-3.87-5-.29-.53-.35-1.23-1.2-1.47a5.89,5.89,0,0,0,1,1.74,11.08,11.08,0,0,0,3.82,5,1.31,1.31,0,0,0,.82.67,2.53,2.53,0,0,0,1.15,1,4,4,0,0,0,1.18,1A20,20,0,0,0,32,90.73a.88.88,0,0,0,.95.35C32.8,90.7,32.51,90.6,32.24,90.48Z"/><path class="cls-1" d="M19,68.39c0-.31.52-.64.05-.9-.22-.12-.23.23-.28.41-.22.32-.43.69-.09,1C18.81,69,19,68.6,19,68.39Z"/><path class="cls-1" d="M28.39,73.19a2.07,2.07,0,0,0,.33-1.78,2.82,2.82,0,0,0-.59,1.27c-.24.26-.35.59-.11.84S28.34,73.4,28.39,73.19Z"/><path class="cls-1" d="M18.93,76.44c.3-.26.1-.6-.06-.89a27.25,27.25,0,0,1-.32-6,9.52,9.52,0,0,0,.08,6.49C18.68,76.23,18.82,76.54,18.93,76.44Z"/><path class="cls-1" d="M135.57,85.42c-.89,3.06-3.22,5.37-4.47,8.24C133,91.09,135.2,88.74,135.57,85.42Z"/><path class="cls-1" d="M136.12,84.12c1.17-1.8.93-3.91,1.37-5.86a1.16,1.16,0,0,0,.23-.86c0-.15,0-.33-.24-.22s-.14.23-.2.36C136.39,79.65,137,82,136.12,84.12Z"/><path class="cls-1" d="M134.56,71.76a5.66,5.66,0,0,0,.24-4.17c-.16,1.2-.32,2.4-.49,3.6-.16,2.14-1.46,4.09-1,6.32C133.48,75.54,134.59,73.78,134.56,71.76Z"/><path class="cls-1" d="M135.46,66.19a20.9,20.9,0,0,0,.9-3.75,17.33,17.33,0,0,0,1.52-3.51,5.12,5.12,0,0,0-1.81,3.49C135.93,63.69,134.86,64.8,135.46,66.19Z"/><path class="cls-1" d="M123.79,99.16a5.25,5.25,0,0,0-2.76,1.3A4.22,4.22,0,0,0,123.79,99.16Z"/><path class="cls-1" d="M141.3,53.37c.24.13.36-.09.45-.23a5.73,5.73,0,0,0,1-1.82c-.83.3-1.13,1-1.56,1.46A.36.36,0,0,0,141.3,53.37Z"/><path class="cls-1" d="M139.32,56.22a3.21,3.21,0,0,0-1.24,2.33A3.79,3.79,0,0,0,139.32,56.22Z"/><path class="cls-1" d="M138.41,74.41c-.14-.46.6-.8.18-1.3-.57.29-.21.88-.43,1.28a3.23,3.23,0,0,0-.52,2.28A3.43,3.43,0,0,0,138.41,74.41Z"/><path class="cls-1" d="M139.58,71.38c.27.12.36-.15.42-.3a3.7,3.7,0,0,0,.59-1.82,4.1,4.1,0,0,0-1.17,1.5A.41.41,0,0,0,139.58,71.38Z"/><path class="cls-1" d="M139.43,56a.8.8,0,0,0,.51-1C139.56,55.19,139.32,55.39,139.43,56Z"/><path class="cls-1" d="M144.44,49.75c-.68-.15-.85.17-1,.63C144,50.46,144.15,50.14,144.44,49.75Z"/><path class="cls-1" d="M130,94.28c-.46.18-.65.63-1,1a1.09,1.09,0,0,0-.84.37c-1,.87-2.11,1.72-3.17,2.57-.35.17-.74.28-.72,1l1-.73a18.35,18.35,0,0,0,4-2.9l1-1c.23-.17.64-.39.38-.64S130.21,94.08,130,94.28Z"/><path class="cls-1" d="M145,49a.35.35,0,0,0,.35-.24.17.17,0,0,0-.15-.25.6.6,0,0,0-.36.22C144.69,48.88,144.72,49,145,49Z"/><path class="cls-1" d="M91.75,112a3.12,3.12,0,0,0-1.58-.94,3.59,3.59,0,0,0,1.28,1.21,10.35,10.35,0,0,0,2.87,2.4c.37,1.23,1.64,1.78,2.2,2.86.18.33.28.75.88.71a2.08,2.08,0,0,0-.64-1,12.27,12.27,0,0,0-2.19-2.82A8,8,0,0,0,91.75,112Z"/><path class="cls-1" d="M99,122.77a8.74,8.74,0,0,0-1-3.49c-.08-.17-.18-.39-.43-.25a.27.27,0,0,0-.08.41C98.18,120.47,98.24,121.78,99,122.77Z"/><path class="cls-1" d="M94.07,110.27a.71.71,0,0,0-.87-.55c-.14,0-.31.2-.18.33A.84.84,0,0,0,94.07,110.27Z"/><path class="cls-1" d="M92.46,109.7c-.4-.25-.65-.59-1.14-.19A.89.89,0,0,0,92.46,109.7Z"/><path class="cls-1" d="M90.67,109.53c.11-.11-.06-.26-.22-.31a5.58,5.58,0,0,0-.81-.09c-.12,0-.38-.08-.31.19,0,.06.28.07.42.11C90.05,109.6,90.36,109.8,90.67,109.53Z"/><path class="cls-1" d="M110.81,5.56a.13.13,0,0,1,0,.06l0,0Z"/><path class="cls-1" d="M108.54,10.2c.74-.36.59-1.07.69-1.69h0a3,3,0,0,0,1.59-2.89c-.56.94-1.44,1.69-1.66,2.84h0c-.67.25-.46,1.07-.93,1.46-.21.72-1.1,1.21-.86,2.28C108.18,11.63,108.24,10.84,108.54,10.2Z"/><path class="cls-1" d="M104.53,18.37c.15,0,.27-.34.37-.47,0-.29-.06-.49-.28-.51s-.35.25-.38.47S104.25,18.4,104.53,18.37Z"/><path class="cls-1" d="M110.82,5.56l0,0,0,0Z"/><path class="cls-1" d="M111.94,4.31c-.72.3-.78.86-1.08,1.24C111.6,5.53,111.84,5.09,111.94,4.31Z"/><path class="cls-1" d="M112.58,3.75c.09-.26.19-.51.28-.77a.46.46,0,0,0-.2,0,.61.61,0,0,1,.13-.15c-.12-.19-.23,0-.34.1s-.08.08-.12.08a.55.55,0,0,0,0,.22c-.16.36-.68.74-.26,1.09C112.33,4.52,112.56,4.08,112.58,3.75Z"/><path class="cls-1" d="M106.34,14.28c.08-.68.89-1.09.74-1.94a1.77,1.77,0,0,0-1,1.43,1.93,1.93,0,0,0-.47,1C106.06,14.75,106.39,14.76,106.34,14.28Z"/><path class="cls-1" d="M105.51,15.3c-.53.22-.49.56-.33,1A.74.74,0,0,0,105.51,15.3Z"/><path class="cls-1" d="M75.46,100.22A3.26,3.26,0,0,0,78,101.41,3.19,3.19,0,0,0,75.46,100.22Z"/><path class="cls-1" d="M74.17,98.56a.36.36,0,0,0,.1.31.89.89,0,0,0,1-.65A.77.77,0,0,0,74.17,98.56Z"/><path class="cls-1" d="M81.83,103.65a.77.77,0,0,0,.88.64c.05,0,.14-.23.11-.28A.88.88,0,0,0,81.83,103.65Z"/><path class="cls-1" d="M44.23,20.49c-.52-.22-.49-1.25-1.47-.91.4.44.62,1,1.2,1.14A4.18,4.18,0,0,0,45.18,22C45.11,21.18,44.92,20.67,44.23,20.49Z"/><path class="cls-1" d="M47.12,23.8c-.12,0-.36,0-.34.2,0,.38.32.6.76.73C47.62,24.24,47.51,23.93,47.12,23.8Z"/><path class="cls-1" d="M45.21,22.22c.24.33.41.7.94.59C46.05,22.23,45.79,22,45.21,22.22Z"/></g></g></svg>