<svg xmlns="http://www.w3.org/2000/svg" viewBox="0 0 193.88 179.15"><defs><style>.cls-1{fill:#1d314f;}</style></defs><title>Asset 14</title><g id="Layer_2" data-name="Layer 2"><g id="Capa_1" data-name="Capa 1"><path class="cls-1" d="M193.64,1.68c-.12-.59.06-1.28-.59-1.68a32.83,32.83,0,0,1-11.39,2.6,72.32,72.32,0,0,0-9.52.9,45.83,45.83,0,0,0-21.56,10.92c-9.68,8.48-18.49,17.83-27.2,27.28a3.6,3.6,0,0,0-.64.88c-.32.72-.15,1.18.75,1a3.83,3.83,0,0,0,2.69-1.68c2-2.84,4-5.65,6-8.46.32-.44.67-1.07,1.1-1.17,1.55-.34,2.26-1.57,3.17-2.62,3.11-3.59,6.78-6.63,10-10.08a46.13,46.13,0,0,1,9.86-8.08,53.67,53.67,0,0,1,10.63-5,60.74,60.74,0,0,1,16.59-2.92,36.22,36.22,0,0,0,7.68-1.11c.95-.24.88.3.93.8a10.58,10.58,0,0,1-.73,5.22c-1.5,3.61-2.74,7.31-4.29,10.9a215.27,215.27,0,0,1-15,29.39h-2.38c.63.57,1.42.36,1.9.86-.88,1.33-1.49,3-3.6,2.73l-1.65-.26-.76-.09a1.48,1.48,0,0,0-1.24-.2c-.65.23-.07.34.12.46a4.34,4.34,0,0,0,2.41.31l1.13,0c.3.27,1.54-.26.81.89-3.35,5.23-7.44,9.68-13.28,12.17a5.49,5.49,0,0,0-2.83,2.8,40.15,40.15,0,0,1-6.43,9.45c-1.8,2-3.62,4.14-6.77,3.81a9.67,9.67,0,0,0-4.76-.48c1.68.94,3.23.73,4.76.66l1.67.43a23.59,23.59,0,0,1-2.68,1.88,6.1,6.1,0,0,0-3,4.07,19,19,0,0,1-13.31,13.09c-.52.15-.52.39-.47.77s.24.66.73.52a19.18,19.18,0,0,1,3.78-.4c.54,0,1,.08,1.22.64s-.25,1-.68,1.2a13.47,13.47,0,0,1-2.28.89,111.81,111.81,0,0,1-14.15,3,5.07,5.07,0,0,0-2.66,1,62.29,62.29,0,0,0,9.39-1,39.35,39.35,0,0,0,10-2.72c1-.46,2-1.19,1.74-2.49s-1.22-1.57-2.76-1.6l.68-.35a22,22,0,0,0,10.29-13.41,2.28,2.28,0,0,1,1.31-1.43c3-1.63,5.93-3.26,8.27-5.74,3-3.2,5.24-7,7.68-10.62a5,5,0,0,1,2-2,31.18,31.18,0,0,0,11.72-9.37c1.82-2.35,3.33-4.9,4.93-7.38,3.58-5.56,6.24-11.61,9.16-17.52,3.5-7,7-14.11,9.43-21.61.78-2.39,1.52-4.79,2.28-7.19V4.16C193.32,3.38,193.72,2.51,193.64,1.68Z"/><path class="cls-1" d="M193.74,1.79a.18.18,0,0,0,.14-.09h-.14v.1Z"/><path class="cls-1" d="M118.44,108.63c-.68-.16-1.13.45-1.65.81,1,.56.88.5.64,1.06-.66,1.59-2.18,2.36-3.13,3.54s-2.41,1.73-3.46,2.8c-1.41,1.44-3,3-5.24,3.3a3.44,3.44,0,0,0-1.16.38c-.94.49-2.22.36-2.9,1.23a5.94,5.94,0,0,1-1.86,1.54c-1.18.68-2.63,1.13-3.39,2.22a1.42,1.42,0,0,1-1.56.77c-2.47-.42-4.89.18-7.34.32-.65,0-1.59,0-1.53.93,0,.76.81,1.17,1.58,1.25a3.32,3.32,0,0,0,1.21-.14c1.24-.31,2.45-.71,3.7-1,1.61-.34,3.2-1.5,4.91-.26a.5.5,0,0,0,.4,0c2.39-.62,4.82-.14,7.22-.32l.21.25c-1.5,0-2.4,1.35-3.82,1.65-2,.4-4.08.54-5.61,2.13a1,1,0,0,1-.63.24,5,5,0,0,0-3,1.54,3.88,3.88,0,0,1-2.58,1A9.47,9.47,0,0,0,85.56,135a21.81,21.81,0,0,0,3.85.05c-1.51,1.07-2.67,2.44-4.12,3.43-3.28,2.23-7.15,3.54-10.07,6.36a2.34,2.34,0,0,1-.85.42c-3.52,1.34-7,2.81-10.57,4-5.16,1.65-10.4,3-15.88,1.41a29.78,29.78,0,0,0,6.33,5,26.51,26.51,0,0,1,4,2.62l-2.55-.52a2.41,2.41,0,0,0-.33-.15,5.88,5.88,0,0,0-1.71-.37c.32.58.91.65,1.46.8h0l2.9,1a1.74,1.74,0,0,1-1.49.19A57,57,0,0,1,46.23,157a6.77,6.77,0,0,0-3.12-.19c3.65,3.81,3.39,8.78,5,13.37a14.38,14.38,0,0,1-2.93-2,35.47,35.47,0,0,1-5.55-6.55c-.49-.72-.92-1.56-2.05-1.64.47.78.89,1.47,1.29,2.17,2.16,3.73,4.79,7,8.73,9a2.7,2.7,0,0,0,2.21.25c-1.92-4.1-1.63-8.82-4.25-13,5.33,2.16,10.56,2.4,15.8,2.64A1.54,1.54,0,0,0,63,159.94a1.61,1.61,0,0,0-.85-1.91c-2.59-1.44-5.09-3-7.62-4.56-.32-.19-.79-.25-.87-.75a.82.82,0,0,1,.24-.13,63.44,63.44,0,0,0,30.55-12.25c6.35-4.7,12.74-9.25,20.39-11.64a11.5,11.5,0,0,0,3.55-2c.38-.28.56-.53.28-1s-.46-.64-1-.48-1.32.35-2,.54c-2.27.66-4.53-.09-6.8,0l-.94-.05a30.41,30.41,0,0,1,3.41-2.19c1.87-1.2,4.18-1.08,6.11-2.18,1.12-.63,1.77-1.66,2.75-2.4,2.86-2.14,6-4.07,8-7.14a5.92,5.92,0,0,0,.81-2.06C119.09,109.39,118.9,108.73,118.44,108.63Z"/><path class="cls-1" d="M170.9,29.64c-.37.42-.91.74-.86,1.41a1.85,1.85,0,0,0,1.11-1.16,97.55,97.55,0,0,0,8.24-11.44,1.33,1.33,0,0,0,.56-.78,3,3,0,0,0,.78-1.19,1.46,1.46,0,0,0,.55-.81l.54-.84.55-.8c-.55-.24-.65.19-.78.55l-.55.82-.57.82h0l-.8,1.09h0l-.57.83Q175,23.89,170.9,29.64Z"/><path class="cls-1" d="M128.91,65.4a45.07,45.07,0,0,0,.32-8.37V55.64h0c0-1.74.68-3.4.61-5.14a6.5,6.5,0,0,0,.26-2.47c-.38.65-.56.95-.53,1.33a18.53,18.53,0,0,0-.59,6.29,3.7,3.7,0,0,0-.23,1.65A23,23,0,0,0,128.91,65.4Z"/><path class="cls-1" d="M148.71,46.53c.12-3.26-.49-6.3-.05-9.32C147.67,39,147.71,45.11,148.71,46.53Z"/><path class="cls-1" d="M73.11,139.4c1.91-.08,3.87.11,6-1a22.29,22.29,0,0,0-6,.8,31.47,31.47,0,0,0-8,.38A17.93,17.93,0,0,0,73.11,139.4Z"/><path class="cls-1" d="M151.68,69.17c-2.49-.26-4.93-1-7.47-.81C146.59,69.54,149.2,68.85,151.68,69.17Z"/><path class="cls-1" d="M74.93,137.1c-2.15.33-4.37-.39-6.51.34C70.64,138.21,72.77,137.37,74.93,137.1Z"/><path class="cls-1" d="M160.5,57.64l.07-.56-5.76-.6,0,.4C156.58,58,158.64,57,160.5,57.64Z"/><path class="cls-1" d="M39.43,158.67c.66.65,1.09,1.6,2.4,1.89-.42-.63-.71-1-1-1.44-.6-1-1.68-1.6-2.18-2.67l4.58-3.06a29.29,29.29,0,0,0,8.14,3.36l1.44.49c0-.76-.7-.58-1.1-.8-2.27-1.1-4.62-2-7-2.89-.29-.1-.77,0-.93-.38a.73.73,0,0,1,0-.32l3.86-2.67h0c.65-.52,1.16-1.27,2.17-1.14a10.73,10.73,0,0,0,4.66-.61,5.58,5.58,0,0,0,4-1,9,9,0,0,0-4,.85H51.25l-1-.06h0a4.4,4.4,0,0,1,.38-.37c10.74-8.08,21.87-15.62,32.06-24.41a1,1,0,0,1,1-.34c2.49.7,5-.25,7.46,0a1.51,1.51,0,0,0,1.41-.74,33,33,0,0,1-8.7.17l13.36-10.6c2.71,1,5.37.05,8.05,0a3.49,3.49,0,0,0-2.27-.21,18.06,18.06,0,0,1-5.18-.35c.36-.27.74-.53,1.09-.81,4.79-3.87,9.28-8.06,13.7-12.34s8.72-8.4,13.08-12.6c1.46,0,2.89.55,4.36.21a6.73,6.73,0,0,0,3.68.1,9.32,9.32,0,0,0-3.68-.3c-1.12-.49-2.48,0-3.52-.84.37-.33.75-.65,1.11-1,7.13-6.87,14.09-13.9,20.75-21.23l1.12.28a4.55,4.55,0,0,0,1.64.26h1.34l2,.27,1.62.09a1.28,1.28,0,0,0-1-.36,7.48,7.48,0,0,0-2.54-.19l-1-.07a4.73,4.73,0,0,0-2-.29,1.07,1.07,0,0,0-.81-.23c4.9-5.68,9.83-11.34,14.4-17.29a183.12,183.12,0,0,0,12.45-17.72,3,3,0,0,0,.74-1.16l.59-1.06a.81.81,0,0,0-.82.52l-.73,1.3-.05.09a247.25,247.25,0,0,1-19.57,25.64c-7.12,8.13-14.38,16.13-22,23.76a590,590,0,0,1-57,49.69Q57.31,140.9,37.38,155.12c-9,6.39-17.93,12.83-27.29,18.67a38.2,38.2,0,0,1-7.65,3.81,2.34,2.34,0,0,1,.78-1.5A22.51,22.51,0,0,1,9,171.27c12-7.39,23.24-15.72,34.52-24.08,17.62-13.06,35-26.42,51.78-40.56A622.13,622.13,0,0,0,141.6,63.92c8.41-8.68,16.77-17.41,24.15-27,.29-.38.56-.77.84-1.16l0-.06.68-.83c-.68-.18-.82.44-1.16.76-1.82,1.22-2.92,3.09-4.3,4.71-8.66,10.2-18.16,19.63-27.4,29.29,0-.45,0-.9,0-1.35.39-5.57.3-11.15.28-16.73a7.65,7.65,0,0,0,.26-2.48l.84-9.18-.39,0a27,27,0,0,0-.74,5.88,3.74,3.74,0,0,0-.13,1,39.23,39.23,0,0,0-.06,4.85c-.06.94-.13,1.89-.2,2.84a92.94,92.94,0,0,0-.16,15.47c-4.28,3.31-7.46,7.77-11.88,11.44.64-3.49.38-6.64.37-9.78,0-4.32-.36-8.64,0-13a39.89,39.89,0,0,0-1.14-14.06,11.54,11.54,0,0,1-.42-3.79c.09-1.73.16-3.47.24-5.21-6.34,8.74-12.79,17.29-19.17,25.9-.53-4.95-.8-6.21-1.77-7.46a54.59,54.59,0,0,0-4.08,5.46C93,63.73,89.4,67.7,86,71.89c-3.56,4.45-7,9-11.36,12.69-3.26,2.77-6.36,5.7-8.18,9.76a77.51,77.51,0,0,0-5.72,17c-.06.3-.11.62-.41.76-.63-4-.1-8.07-.08-12.11a10.64,10.64,0,0,0-.38-4.25c-.25.18-.48.32-.67.49q-6.43,5.64-12.47,11.7a25.27,25.27,0,0,0-6.94,13.95c-.55,3.14-.79,6.32-1.48,9.44-.45,2-.85,4-1.35,6.4-.51-.87-.82-1.37-1.11-1.88-1.19-2.08-1.6-4.44-2.43-6.65a9,9,0,0,0-6.48-6c3.11,6.58,3.48,13.47,4.25,20.3-2.23-4-3-8.76-6.62-12.13a101.54,101.54,0,0,0,.74,15.33,33,33,0,0,0,2.42,8.14c.18.42,1.19,1.26.07,2C21.75,161,16,165.6,9.62,169.42A34.72,34.72,0,0,0,4,173.51,15.05,15.05,0,0,0,0,179c1.68.38,3.05-.26,4.42-.83,5-2,9.3-5.18,13.79-8,6.74-4.26,13.25-8.85,19.86-13.31C38.81,157.26,38.89,158.14,39.43,158.67Zm-8.2-12.18c.44.84.78,1.74,1.17,2.61.14.31.34.58.72.5s.21-.5.22-.77-.12-.45-.05-.51c1.74-1.48.2-2.79-.23-4.14a14.16,14.16,0,0,0-.79-1.73c-.28-.57-.68-1.11,0-1.69.2-.17.15-.49.1-.78-.59-3.38-1.17-6.77-1.72-10.16-.14-.86-1-1.43-.86-2.39.11-.2,0-.51.34-.59,2,1.61,2.66,3.89,3.37,6.21.54,1.75.61,3.68,1.81,5.22a5,5,0,0,0,1.11,1.19c.58.38.86.48,1.22-.39,1.71-4.27,2.24-8.78,2.84-13.27a31.43,31.43,0,0,1,3-9.49,36.94,36.94,0,0,1,10.27-12.53c1.9-1.58,3-3.94,4.82-5.57.16-.14.26-.37.52-.36,0,2.11.07,4.22,0,6.33a50.35,50.35,0,0,0,.36,10.34,3.29,3.29,0,0,0,.86,2c.63.62.1,1.73.24,2.62-.49,3.74-.93,7.49-.13,11.62.63-4.1.31-7.87.34-11.63.36-1.08.27-2.21,1-3.28.64-.86-.17-2.18-.25-3.31-.06-.7-.54-1.42.55-1.75.22-.07.1-.41.15-.62.61-2.49,1.45-4.93,2.07-7.39a13.31,13.31,0,0,1,1.84-4c1.7-2.56,1.64-5.86,4-8.13,3.17-3,6.51-5.92,9.55-9.1,3.83-4,7.8-7.87,11-12.35,1.84-2.56,4.31-4.65,5.49-7.75.75-2,2.36-3.53,3.8-5.35a12.06,12.06,0,0,1,.26,7.31,3.16,3.16,0,0,1-.17.52,1.3,1.3,0,0,0,.19,1.52c.36-.88,1.7.36,1.92-.91a12.79,12.79,0,0,1,.57-2.1c.22-.62.15-1.58,1.29-1.35.08,0,.24-.14.28-.25.61-1.82,2.18-3,3.15-4.58a12,12,0,0,1,2.9-3.75,7,7,0,0,0,2.31-2.78,10.63,10.63,0,0,1,4-5.33,1.93,1.93,0,0,0,.86-1.33c0-1.47,1.41-2.06,1.71-3.3.22.12.34.15.34.2.37,3,.86,6,1.05,9,.22,3.34.25,6.71.26,10,0,6.49,1.08,12.95.62,19.45a7,7,0,0,0,0,3c.15.42-.2.57-.42.76a38.34,38.34,0,0,1-4,3.34,19.49,19.49,0,0,0-4.28,3.6c-3.29,3.93-7.82,6.39-11.49,9.87-.23.21-.45.44-.67.66-.62-1.14,0-2.46-.52-3.63a52.39,52.39,0,0,0-.62-6.49c-.08-.83-.16-1.65-.23-2.48.47-2.39.16-4.81.42-7.21-1.06,2.33-.93,4.76-.66,7.2a32.21,32.21,0,0,0,.2,6.36h0a22.33,22.33,0,0,0,.64,5.14h0l.19,1.64Q91.73,108,83,115.35c-.38-.09-.3-.4-.31-.65a65.76,65.76,0,0,0-.55-7,22.5,22.5,0,0,1,0-3.85,31.81,31.81,0,0,0,.29-4.9,10.8,10.8,0,0,0-.77,5.71v2.77a30.42,30.42,0,0,0,.73,8.45c-3.35,3-7.16,5.42-10.85,8.42.24-7.12-.32-14,.54-20.92a.79.79,0,0,0,.08-.23,4.8,4.8,0,0,0,.1-2,2.76,2.76,0,0,0-.45,1.38,12,12,0,0,0-.53,3.5c.06,6-.83,11.92-.14,17.89.09.78-.39,1-.85,1.38-4.28,3.25-8.88,6-13,9.46-2.85,2.34-5.43,5-8.45,7.12A92,92,0,0,0,49,131a30,30,0,0,0,.66-6.2,12.08,12.08,0,0,0-.84,6.2,37.43,37.43,0,0,0-.3,11.23c-3.69,2.58-7.47,5-11,7.79l-4.67,3.59a2.17,2.17,0,0,1-1.28.65,1.83,1.83,0,0,0-.24-1.42h0a46.56,46.56,0,0,0-2.57-8.4c-.18-.48-.14-1.09-.74-1.34l0-.29c.34-.47-.15-.93,0-1.4h0C29.93,142.5,30.28,144.69,31.23,146.49ZM28,141.37h0l-.22-.07h0l-.18-1.36C28.21,140.36,27.84,140.93,28,141.37Zm.29,11.36c-.07-.9-.79-1.51-.86-2.42a6.69,6.69,0,0,1-.19-1.07,3.78,3.78,0,0,0-.33-2.25,2.49,2.49,0,0,1-.24-2.79.59.59,0,0,0,.06-.51c-1.2-2-.47-4.31-1-6.42.1-.18,0-.48.28-.54a26.08,26.08,0,0,0,1.46,4.88,7.15,7.15,0,0,0,.27.9l0,.26a1.06,1.06,0,0,0,.09.36c.07.13.13.26.19.4a3.26,3.26,0,0,0,.39,1.2h0A42,42,0,0,0,31,153.38c.13.3.09.69.46.85a1.58,1.58,0,0,1-2.58.48A3.12,3.12,0,0,1,28.24,152.73Z"/><path class="cls-1" d="M62,141.29c1.79.74,3.5,0,5.23-.29C65.54,141.33,63.74,140.6,62,141.29Z"/><path class="cls-1" d="M137.5,77.08c1.9,1.23,3.68.58,5.33.8C141.17,77.7,139.61,76.87,137.5,77.08Z"/><path class="cls-1" d="M122.67,96.94c1.43-.12,2.94.16,4.57-.91a7.74,7.74,0,0,0-1.49,0,18.76,18.76,0,0,1-5.79.45,5.4,5.4,0,0,0-1.18.2,5.1,5.1,0,0,0-.68,0c-.22,0-.43.1-.65.15A8.54,8.54,0,0,0,122.67,96.94Z"/><path class="cls-1" d="M109,105c-.2,0-.73-.08-.23.34s.86.18,1.31.12a10.19,10.19,0,0,0,4.1-.65A23.86,23.86,0,0,0,109,105Z"/><path class="cls-1" d="M62.71,143.51a1.93,1.93,0,0,0,1.1-.23,3.6,3.6,0,0,0,3.15-.43,5.65,5.65,0,0,0-3.15.19H63a8.68,8.68,0,0,0-4.17.27A7.08,7.08,0,0,0,62.71,143.51Z"/><path class="cls-1" d="M89.64,120.69c1.18.78,2.33.33,3.47.09.7.06,1.45.27,2.08-.47a2,2,0,0,0-2.09.19A4.72,4.72,0,0,0,89.64,120.69Z"/><path class="cls-1" d="M128.94,89.36c-1.26.36-2.55-.32-4.14.2C126.11,90.22,128.28,90.08,128.94,89.36Z"/><path class="cls-1" d="M82.15,130.42a12.78,12.78,0,0,0-5.31.73,8.71,8.71,0,0,0,5.31-.52,7.06,7.06,0,0,0,4-1.07A7.73,7.73,0,0,0,82.15,130.42Z"/><path class="cls-1" d="M132.13,92.6a8.11,8.11,0,0,0-4,.59,17.8,17.8,0,0,0-6,.32,11.59,11.59,0,0,0,6-.13A5.83,5.83,0,0,0,132.13,92.6Z"/><path class="cls-1" d="M162.53,25.09a12.37,12.37,0,0,0-.36,4.83l0,3a3.31,3.31,0,0,0,.54,2.22,15.23,15.23,0,0,0-.25-3.89l-.09-1.31C162.32,28.42,162.87,26.94,162.53,25.09Z"/><path class="cls-1" d="M140.74,47.14a26.64,26.64,0,0,0,0,8.26A2.21,2.21,0,0,0,141,54l0-2.18-.08,0,.08,0V46.27h-.18Z"/><path class="cls-1" d="M56.46,145.68a2.86,2.86,0,0,0,2.68-.27c.7-.08,1.51.13,2.16-.89l-3.87.64C57,145.17,56.65,145.22,56.46,145.68Z"/><path class="cls-1" d="M119.27,99.3a2.64,2.64,0,0,0-2.34.43,7.87,7.87,0,0,0-3.86.38c1.47.74,2.66.24,3.86-.14C117.77,100,118.63,100.15,119.27,99.3Z"/><path class="cls-1" d="M141,45.34a2.29,2.29,0,0,0,.06-2.07A3.19,3.19,0,0,0,141,45.34Z"/><path class="cls-1" d="M157.59,34.29a4.54,4.54,0,0,0,.1-1.95V25.11h-.28v1.7a21.4,21.4,0,0,0-.2,4.73A4.48,4.48,0,0,0,157.59,34.29Z"/><path class="cls-1" d="M157.76,23.66a1.91,1.91,0,0,0-.15-2C157.54,22.49,157.37,23.09,157.76,23.66Z"/><path class="cls-1" d="M103,118c.12-.06.27-.08.35-.17s0-.29-.17-.28c-.66,0-1.35-.17-2,.22h0l-.67.08h0l-1.09.23a18.25,18.25,0,0,0-6,.12,10.81,10.81,0,0,0,6,.1h1.09A4.76,4.76,0,0,0,103,118Z"/><path class="cls-1" d="M147.65,74.52a4.1,4.1,0,0,0-2.51-.22l-4.08-.63c-.29-.07-.58-.17-.88-.22s-.4,0-.33.24.26.18.4.27a15.79,15.79,0,0,0,4.89.52A4.74,4.74,0,0,0,147.65,74.52Z"/><path class="cls-1" d="M182.93,14a1.06,1.06,0,0,0,.37-1.36,2.48,2.48,0,0,0-.93,1.11h0Z"/><path class="cls-1" d="M157.9,20.92a1.07,1.07,0,0,0,.34-1.17c0-.34,0-.69.07-1a1.6,1.6,0,0,0,0-1.53l-.25,1.24h0l-.13,1A1.38,1.38,0,0,0,157.9,20.92Z"/><path class="cls-1" d="M179.11,21.06a1.42,1.42,0,0,0-.81,1.39A1.45,1.45,0,0,0,179.11,21.06Z"/><path class="cls-1" d="M106,115.58a5.08,5.08,0,0,0,3.14-.72,10.8,10.8,0,0,0-3.68.25l-1.38.24a16.93,16.93,0,0,0-5.94,0,10.89,10.89,0,0,0,5.93.27Z"/><path class="cls-1" d="M99.12,120.32a2.65,2.65,0,0,0-1.86.12,3.2,3.2,0,0,0,1.86,0c.54-.06,1.15.18,1.61-.35C100.1,119.77,99.64,120.28,99.12,120.32Z"/><path class="cls-1" d="M78.05,136.44a1.6,1.6,0,0,0-1.31.15,1.52,1.52,0,0,0,1.3.07,2.9,2.9,0,0,0,1.55-.38C79,135.88,78.57,136.5,78.05,136.44Z"/><path class="cls-1" d="M184.15,11.36c.5.27.29-.38.44-.59s.64-.58.33-.82-.44.27-.56.54C184.62,10.88,183.65,11.1,184.15,11.36Z"/><path class="cls-1" d="M82.47,133.1a1.79,1.79,0,0,0,1.38-.18h0a10,10,0,0,0,4.83-1.43,21.65,21.65,0,0,0-5.41,1.14A.7.7,0,0,0,82.47,133.1Z"/><path class="cls-1" d="M141.61,39.5a1.36,1.36,0,0,0,0-1.5l-.29,1.5-.08.77a2.08,2.08,0,0,0-.13,1.68c.52-.31.41-.73.39-1.11h0l.08-1.34Z"/><path class="cls-1" d="M176.91,24.68c.6-.1.74-.56.84-1.06a1.2,1.2,0,0,0,.51-.81c-.47.07-.85.21-.75.8A1.12,1.12,0,0,0,176.91,24.68Z"/><path class="cls-1" d="M82.09,133c-.27-.33-.73-.14-1.08.08h0a38.8,38.8,0,0,0-8.58,1.24,26.12,26.12,0,0,0,9.14-1C81.86,133.4,82.25,133.2,82.09,133Z"/><path class="cls-1" d="M42.36,161.64a3.6,3.6,0,0,0,2,2,3.49,3.49,0,0,0-1.62-2c-.28-.31-.47-.75-1.2-.81Z"/><path class="cls-1" d="M168.46,48.77a3.13,3.13,0,0,0-2.11-.14l1.53.39a2.8,2.8,0,0,0,1.57,0C169.16,48.66,168.8,48.79,168.46,48.77Z"/><path class="cls-1" d="M116.92,104.57l1.08-.23a.65.65,0,0,0,.72-.48,1.86,1.86,0,0,0-1.29.22l-.76.13-1.09.21a1,1,0,0,0-1,.42c.38.13.71.18,1-.13h0Z"/><path class="cls-1" d="M135.8,39.4c.2,0,.26-.19.25-.44-.07,0-.16-.15-.25-.15a.26.26,0,0,0-.23.37C135.59,39.27,135.72,39.4,135.8,39.4Z"/><path class="cls-1" d="M184,12.25s-.06-.09-.08-.09-.07.05-.1.08.06.08.09.08S183.94,12.27,184,12.25Z"/><path class="cls-1" d="M111.07,71.36a46.37,46.37,0,0,0-.58,12.94A64.38,64.38,0,0,0,111.07,71.36Z"/><path class="cls-1" d="M77.26,113a54.26,54.26,0,0,0,.23-10c.34-2.17.76-4.34.9-6.54.2-.31.37-.68.07-.94-.14-.13-.35.16-.37.41a19,19,0,0,0-.82,7.07A28.19,28.19,0,0,0,77.26,113Z"/><path class="cls-1" d="M86.5,104.32c.58-3.52.26-7.07.31-10.61L87,92.6l.62-5.19a4.19,4.19,0,0,0-.88,2.91,10.45,10.45,0,0,0-.21,3.39C86.29,97.25,85.62,100.78,86.5,104.32Z"/><path class="cls-1" d="M66.08,124.42a25,25,0,0,0-.11-6V117a15.31,15.31,0,0,0,.55-4.61,7.36,7.36,0,0,0-.79,4.63,4.37,4.37,0,0,0-.23,1.65C65.35,120.6,65.2,122.56,66.08,124.42Z"/><path class="cls-1" d="M92.58,100.81c0,.2-.08.51.22.45s.29-.44.25-.74a32.88,32.88,0,0,0,0-5.7V94a13.3,13.3,0,0,0,.23-4.91A9,9,0,0,0,92.84,94a4.65,4.65,0,0,0-.24,1.65A17.63,17.63,0,0,0,92.58,100.81Z"/><path class="cls-1" d="M93.47,82.53a12.41,12.41,0,0,0,.71-5.79A5.46,5.46,0,0,0,94.55,73,5.76,5.76,0,0,0,94,76.74,13.46,13.46,0,0,0,93.47,82.53Z"/><path class="cls-1" d="M43.29,140c0,.28,0,.69.3.62.43-.12.19-.57.19-.89a18.52,18.52,0,0,0-.29-4.64c-.1-1.61.7-3.22,0-5.09a7,7,0,0,0-.27,4.49,2,2,0,0,0-.21,1.42A11.73,11.73,0,0,0,43.29,140Z"/><path class="cls-1" d="M115.66,80.08a6.09,6.09,0,0,0,.22-2.45c.4-2.49.06-5,.21-7.86a4,4,0,0,0-.5,2.32A35.09,35.09,0,0,0,115.66,80.08Z"/><path class="cls-1" d="M79.77,87.08c-.28,1.53-1,3-.48,4.59C80,90.19,79.76,88.63,79.77,87.08Z"/><path class="cls-1" d="M116.39,64.54a7.21,7.21,0,0,0-.36,3.82A7.75,7.75,0,0,0,116.39,64.54Z"/><path class="cls-1" d="M40.62,144.66c.58-1.37-.21-2.45-.36-3.58,0-.2-.22-.38-.35-.24a.75.75,0,0,0,.08,1.07C40.2,142.76,39.68,143.77,40.62,144.66Z"/><path class="cls-1" d="M67.15,108.17c.76-1,.45-2,.44-3,.26-.55.52-1.09-.08-1.69a1.53,1.53,0,0,0-.16,1.69C67,106.15,66.47,107.08,67.15,108.17Z"/><path class="cls-1" d="M52.27,133.76h0a1,1,0,0,0,0,.39c.17.3.27.07.27-.08,0-.67,0-1.34,0-2,.07-1.09.13-2.18.2-3.27h-.38C52.49,130.45,51.72,132.07,52.27,133.76Z"/><path class="cls-1" d="M105.2,88a8.86,8.86,0,0,0,.45-4.17V79.32a24.89,24.89,0,0,0-.45,7.25Z"/><path class="cls-1" d="M106,75.63a13.17,13.17,0,0,0,.34-2.93c.14-.37.47-.79,0-1.08-.17-.11-.26.25-.26.47a8.94,8.94,0,0,0-.38,3.16l0,.13a6.41,6.41,0,0,0,0,2.79Z"/><path class="cls-1" d="M111,70.84a1.76,1.76,0,0,0,.46-1.52,33.53,33.53,0,0,0,.64-6.79,14.1,14.1,0,0,0-.92,5.92A6.43,6.43,0,0,0,111,70.84Z"/><path class="cls-1" d="M35.83,145.21h0a6.93,6.93,0,0,0,1.5,4.41,9.4,9.4,0,0,0-1.25-4.42l-.45-1.8h0a3.83,3.83,0,0,0-.82-2.36,4.46,4.46,0,0,0,.58,3.05Z"/><path class="cls-1" d="M116.8,62.71c-.1.46-.6.81-.29,1.5A1.39,1.39,0,0,0,116.8,62.71Z"/><path class="cls-1" d="M112.41,61.25c-.44.26-.53.55-.28,1.08C112.54,62,112.63,61.67,112.41,61.25Z"/><path class="cls-1" d="M45.16,124.08c0-.46.48-.87.13-1.37-.54.06-.33.52-.44.8s-.39.8,0,1.15C44.88,124.73,45.16,124.37,45.16,124.08Z"/><path class="cls-1" d="M45.39,122.58a1,1,0,0,0,.39-.89l0-.12.46-1.29a.77.77,0,0,0,.38-.88c-.54.09-.43.55-.58.83s-.48.59-.38,1A1.16,1.16,0,0,0,45.39,122.58Z"/><path class="cls-1" d="M55,119.22c.29,3.34.84,6.66.83,10a5.6,5.6,0,0,0-.2,2.32,3,3,0,0,0,.49-1.44,10.44,10.44,0,0,0,.36-2.84,33,33,0,0,0-1.2-8.61c0-.29-.07-.7-.34-.53S54.79,118.86,55,119.22Z"/><path class="cls-1" d="M54.53,116.43c0,.38-.11.83.44,1a1.16,1.16,0,0,0-.18-1l-.06-1.37c0-2.07-.12-4.14,0-6.21a9.43,9.43,0,0,0-.24,6.85Z"/></g></g></svg>