<svg xmlns="http://www.w3.org/2000/svg" viewBox="0 0 179.5 201.52"><defs><style>.cls-1{fill:#1d314f;}</style></defs><title>Asset 12</title><g id="Layer_2" data-name="Layer 2"><g id="Capa_1" data-name="Capa 1"><path class="cls-1" d="M179.22,172.13h.28l-.22-.16A1.66,1.66,0,0,1,179.22,172.13Z"/><path class="cls-1" d="M18.08,138.16v0a.48.48,0,0,1,.28-.08l.12,0A.81.81,0,0,0,18.08,138.16Z"/><path class="cls-1" d="M10.22,1.15c-2.09,0-4.16.44-6.25.32a5.38,5.38,0,0,0-1.33.09C1,1.9.92,2,1.8,3.39A1,1,0,0,1,2,4.5a2.14,2.14,0,0,0-.23.9c-.12,1.93-.09,1.94,1.83,1.88a28.87,28.87,0,0,1,3.68.53c.73.08.83.8.77,1.36-.44,4.34.55,8.71-.39,13a4.32,4.32,0,0,0-.09,1.19c.16,4.23-.35,8.44-.3,12.67,0,2.35-.43,4.68-.59,7-.21,3-.18,6-.17,8.93,0,5.83-.51,11.63-.78,17.44-.26,5.64-.33,11.28-.33,16.93,0,3.78-.48,7.54-.66,11.31-.23,4.78-.7,9.57-.19,14.38a57.25,57.25,0,0,1,.07,5.86c0,3.78,0,7.57,0,11.35-.07,8.13-.48,16.25-.61,24.38-.06,3.42-.05,6.85-.2,10.26-.3,6.8-.33,13.6-.59,20.39-.15,3.74-.15,7.47-.18,11.2,0,1.38-.23,2.74-.29,4.12,0,1.07.36,1.52,1.48,1.48.77,0,1.53-.17,2.29-.25L4,200.64c-.91-.07-.57-.75-.55-1.21.18-3.94.46-7.89.59-11.84.15-4.52.17-9.06.29-13.59.28-10.74.73-21.49.83-32.23,0-6.14.22-12.26.42-18.38.52-15.45.88-30.9,1.71-46.34.64-11.66,1.32-23.33,1.19-35-.05-4.53.59-9,.53-13.58C9,22.14,9,15.83,9,9.51c0-.71.07-1.17.94-1.25s1.45,0,1.19,1.06c-.18.74.66,1.81-.68,2.19a.31.31,0,0,0,0,.23c1.38,2.12.43,4.42.42,6.61Q10.71,35.67,10.28,53C10,63.83,9.62,74.66,9.33,85.5c-.18,6.53-.1,13.07-.41,19.59-.49,10.47-.62,21-.84,31.43-.15,6.93-.09,13.88-.51,20.79-.45,7.41-.11,14.83-.56,22.22-.37,6-.32,11.9-.4,17.85a12.84,12.84,0,0,0,.23,3.46H7c.67,0,1-.58,1.23-1.1a8.44,8.44,0,0,0,.59-4.83c-.45-5.36-.94-10.71-1.32-16.08a9.28,9.28,0,0,1,.6-4.53,4.72,4.72,0,0,0,.24-2.11c-.12-3.29.08-6.58,0-9.87A3.2,3.2,0,0,1,9,159.93c2.53-2.73,3.39-6.2,4.37-9.62A195.54,195.54,0,0,0,18,128a12,12,0,0,1,1.21-4.07,12.29,12.29,0,0,0,1.34-4.58c1-8.12,2.19-16.21,3.09-24.34a142.6,142.6,0,0,0,1-14.89c0-5.38-.08-10.76.27-16.14.18-2.87-.8-5.63-.9-8.47-.15-4.22-.85-8.4-1-12.62a28.82,28.82,0,0,0-1.52-8.37,64.21,64.21,0,0,1-2.31-8.63,30.12,30.12,0,0,0-3.71-9.24,5,5,0,0,1-1-2.16s0-.06,0-.08c-.18-.11-.29-.31-.13-.44a.48.48,0,0,1,.55,0l.22-.08a3.21,3.21,0,0,1,3.8,1.93,89.6,89.6,0,0,1,8.1,26,156.65,156.65,0,0,1,1.66,15.74c.33,5.78.24,11.56.12,17.32-.06,2.93,0,5.87-.22,8.79-.29,4.46-.48,8.93-.95,13.39s-.85,8.65-1.45,13c-.44,3.21-1.06,6.39-1.59,9.58-.87,5.26-2.18,10.42-3.38,15.61a3.51,3.51,0,0,1-1.8,2.72c7.47-1.91,14.82-1.84,22,1.65a46.84,46.84,0,0,0,15,4c6.28.79,12.6.54,18.9.52,1.33,0,2.66-.19,4-.26a22.78,22.78,0,0,1,11,2.61,80.15,80.15,0,0,1,12.35,7.38,49.09,49.09,0,0,0,20.62,8.23,60.21,60.21,0,0,0,11.9,1.29,42.44,42.44,0,0,0,4.91-.44c4.68-.62,9.3-.66,13.8,1.07a22.48,22.48,0,0,1,5.77,3c3.38,2.65,7.34,3.45,11.4,4.11,2.66.43,5.37.32,8,.89a15.37,15.37,0,0,1-1.15-3.21c-3.29-10.43-6.52-20.88-9.38-31.43a27.21,27.21,0,0,1-.72-9.65c.28-2.91.45-5.84.62-8.76.06-1.11.18-2.22.27-3.32a18.93,18.93,0,0,0-.89-7c-1-3.24-1.79-6.52-2.89-9.71a21.74,21.74,0,0,1-.62-10.53c.49-3.3,1-6.58,1.61-9.87A31.75,31.75,0,0,0,164.16,62a7.12,7.12,0,0,0-4.68-4.54,100.29,100.29,0,0,0-16.22-4.78c-3.49-.62-6.51-2.55-9.56-4.29a79,79,0,0,1-7.25-4.5,26.54,26.54,0,0,0-13.37-4.86A35.32,35.32,0,0,1,98.41,34.6c-1.8-1-3.73-1.87-5.59-2.82a42,42,0,0,0-11.16-4.27,31,31,0,0,1-8.14-3.29,59.84,59.84,0,0,0-11.83-4.44,169.65,169.65,0,0,0-19.93-4.32,38.74,38.74,0,0,0-5.7-.42,113.31,113.31,0,0,1-22.33-2.63,1.76,1.76,0,0,1-1.63-2c0-.22,0-.44,0-.66,0-2.3.12-2.42,2.46-2.64L15.09,7C17,6.67,17,7.09,17,5c0-.8.35-1.56.3-2.37C17.26,1,16.82.64,15.26.71c-.75,0-1.63.38-2-.71H12.21C11.94,1.07,11,1.15,10.22,1.15Zm8.5,13.38c3.22-.23,4.75,1.28,5.67,4.41A139.08,139.08,0,0,1,28.3,34.12c.83,4.71,2.15,9.33,2.93,14.07A172.62,172.62,0,0,1,33,66.07c.15,2.61.22,5.23.32,7.84l.48-.25a39,39,0,0,0,0-4.59,55.8,55.8,0,0,1-.23-6.71c0-1.42-.45-2.72-.5-4.08A103,103,0,0,0,30.9,42.83c-.7-3.7-1.33-7.41-2-11.1-1.05-5.42-3.19-10.5-5-15.68l-.29-.8c1.19.14,2.25.26,3.31.4.68.08.61.71.74,1.13,2,6.72,3.47,13.58,4.86,20.45,1.42,7.06,2.39,14.19,3.35,21.31.66,4.93,1,9.9,1.42,14.85,0,.3,0,.61.1,1.23.29-2.17.25-14.71-2.41-29.82A222.11,222.11,0,0,0,28,15.91c6.41-.12,12.8-.32,19,1.53a10.42,10.42,0,0,0,2.69.6c1.78.07,1.77.25,3.51,2.16.4-.46-.2-.87-.09-1.33a15.86,15.86,0,0,1,8.1,3.54c-.22-.85,0-1,.78-.84a7.6,7.6,0,0,1,6.18,4.77c3.38,7.52,7.15,14.86,10.76,22.26a3.59,3.59,0,0,0,1.7,2c-3.65-9.27-8.22-18.1-12.8-27,.51-.18.83.12,1.16.26a82.35,82.35,0,0,0,15.1,5c2.69.54,5,2.28,7.46,3.47,3.76,1.79,7.5,3.63,11.23,5.48,3.33,1.66,6.94,2.15,10.57,2.48a29.76,29.76,0,0,1,13.86,5.33A79.67,79.67,0,0,0,140.35,53c2.61,1.1,5.45,1.2,8.13,2,4.14,1.19,8.15,2.72,12.16,4.27,2,.77,2.68,2.69,3,4.58,1.11,5.88,1.66,11.74,0,17.67-1.07,3.9-1.2,8-1.52,12-.21,2.72.74,5.25,1.44,7.81.94,3.47,1.94,6.91,2.91,10.37a9.16,9.16,0,0,1,.24,2.91c-.27,6.08-1.11,12.13-.9,18.22.13,4,1.52,7.73,2.55,11.54,2.19,8.14,5.39,15.95,7.8,24,.15.5.71,1.26.19,1.55-.85.48-.61-.68-1-1-1.05-.83-1.16-2.22-1.94-3.37a1.87,1.87,0,0,0,0,2.24,10,10,0,0,1,1.51,1.89,9.65,9.65,0,0,1-2.83-.23c-.51,0-.42-.5-.55-.79a2.81,2.81,0,0,0-2-1.81l1,2.17c-1.73.06-1.68-.1-2.49-1.48a25.36,25.36,0,0,1-1.67-3.54.58.58,0,0,0-.62-.37,4,4,0,0,0,1.29,3.55.83.83,0,0,1,.26,1.08c-.24.35-.64,0-1,0-1.28-.17-1.8-.94-2.17-2.14-1.63-5.15-4.05-10-5.65-15.17a.47.47,0,0,0-.65-.36c1.64,5.53,4.07,10.79,5.54,16.43a2.26,2.26,0,0,1-1.32-.67,25.55,25.55,0,0,0-20.52-4.83c-7.1,1.33-14,.62-21-1a37.93,37.93,0,0,1-8.53-2.49,2.23,2.23,0,0,1-1.23-1.38c-.81-2.18-1-4.5-1.71-6.69-.09-.27-.09-.64-.75-.81.78,2.56.24,5.2,1.6,7.69-1.81-.57-2.71-1.44-2.94-3.2a27.28,27.28,0,0,0-2.19-6.82c-.16-.4-.25-.88-.92-1,.83,3.08,1.64,6.09,2.49,9.23-2.16-1.39-4.14-2.78-6.23-4a3.37,3.37,0,0,1-1.81-2.87,41.21,41.21,0,0,0-1.17-5.85c-.56-2.59-.87-5.23-1.27-7.85a8.54,8.54,0,0,0-.61-2.23c-.4,1.34,0,5.63.82,8.57.73,2.75,1.62,5.49,1.37,8.41l-5.48-3.13c-.36-.2-.33-.58-.41-.93-.89-3.69-.85-7.49-1.29-11.23-.31-2.64-1-5.24-.91-7.93,0-.71.09-.93.82-.87,1.06.08,2.4-.31,3.1.2s.45,1.88.66,2.87a17.35,17.35,0,0,0,.86,3,8.44,8.44,0,0,0-.13-3.81c-.31-2.34-.37-2.33,1.94-2.65l.27-.05c2.29-.31,2.29-.31,2.22,2a7.76,7.76,0,0,0,.56,2.59c.74,2.32,1.79,4.57,2.13,7a39.9,39.9,0,0,0,1,4.74,2.84,2.84,0,0,0,1.32,2.14c-.84-3.33-1.39-6.48-2.33-9.56-.86-2.78-1.33-5.68-2-8.52-.2-.87.41-.67.85-.75,5.94-1.21,11.19-3.7,15.16-8.43a24.67,24.67,0,0,0,5.59-11c.65-3.16,1.57-6.26,1.63-9.51a3.41,3.41,0,0,0-.45-2.55l0,0h0s0,0,0,0c-.17,0-.38,0-.48,0-1.37,1.21-2.84.46-4.23.16q-12.73-2.74-25.46-5.56c-.38-.08-1,0-.9-.7s.73-.31,1.07-.28a136.58,136.58,0,0,1,14.91,2.7c4.73,1,9.43,2.09,14.14,3.15.34.08.81,0,1,.49h0c.49-.58.32-1.32.37-2,.82-10.23-2.13-19.36-9.4-26.47-7.75-7.58-16.83-9.36-27.67-3.86-6,3.05-9.88,8.11-12.91,14.19C69.46,82,69.57,89.55,69.74,97.23a39.32,39.32,0,0,0,3.2,15.53c2.81,6.19,7.17,10.51,14,11.9.69.14.8.54.85,1.11q.6,6.9,1.24,13.8c.16,1.72.33,3.43.51,5.24a37.27,37.27,0,0,0-5.46-1.76,20.28,20.28,0,0,0-6-.22,108.68,108.68,0,0,1-12.37.36c-1.76-.06-1.8,0-1.48-1.74,1.58-8.6,2.78-17.26,4.07-25.91A4.62,4.62,0,0,0,68,113c-.5,2.39-1,4.47-1.36,6.59-.85,5.35-1.6,10.71-2.41,16.07-.33,2.19-.74,4.37-1.06,6.56-.11.68-.4.84-1.06.82-3-.07-3,0-2.63-3a8.42,8.42,0,0,0,.14-2.65c-.67,0-.51.54-.6.84-.28.88-.46,1.8-.68,2.7-.44,1.76-.45,1.76-2.27,1.49l-1.9-.32c.24-.86.75-1.68.37-2.66a1.88,1.88,0,0,0-.63,1.45c0,1.33-.69,1.07-1.51.92a56.65,56.65,0,0,1-12.5-4,23.38,23.38,0,0,0-7.74-1.8c-.71,0-1-.2-.58-.95,2.66-5.32,4.33-11,6.12-16.65,1.29-4.09,2.75-8.13,4-12.23a57.27,57.27,0,0,0,2.52-11.67h0c-.06-.28,0-.61-.23-.83-2.83,11.82-6.45,23.41-10.43,34.88-.77,2.21-1.74,4.36-2.61,6.54-.17.44-.32.81-.9.79a28,28,0,0,0-4.49.22c-.22-.87.52-1.59.15-2.38-.48,0-.45.4-.55.65a3.74,3.74,0,0,1-3.62,2.51c-.51,0-.49-.24-.43-.57.1-.52.17-1.06.32-1.56a87.28,87.28,0,0,0,3-12.79c.62-4.34,1.79-8.61,2.24-13,.77-7.63,1.73-15.26,2-22.94.19-4.83.64-9.66.66-14.49,0-5.81,0-11.62-.45-17.44a121,121,0,0,0-7.12-32.5,48.53,48.53,0,0,0-3.44-7.07ZM71.54,85.06c.23.13.17.36.2.56,3.93.33,7.71,1.53,11.61,2,.87.11,1.11.59.77,1.43A88.32,88.32,0,0,0,72.44,87.4c-1-.12-1.4-.46-1.23-1.44C71.06,85.57,71.39,85.34,71.54,85.06Zm40.24-20.19c1.27.26,1.79,1.36,2.6,2.28-8.68-1.68-17.22-3.48-25.88-5.4A1.9,1.9,0,0,1,90.32,61C97.6,61.6,104.66,63.39,111.78,64.87Zm-18.09-5c6.16-.44,12-1,16.81,3.56C104.91,62.36,99.43,61.35,93.69,59.91Zm5.48,5.21q7.8,1.69,15.61,3.31c1.53.32,1.65,1.79,2.74,2.87L84.46,64.36a3,3,0,0,1,3.28-1C91.5,64.26,95.39,64.29,99.17,65.12Zm.3,3.48c5.94,1.27,11.87,2.55,17.81,3.79,1,.2,1.17,1,1.57,1.85-12.53-2.33-24.66-5.86-37.3-7.37.62-1.08,1.22-1.35,2.22-1C88.87,67.49,94.27,67.5,99.47,68.6Zm3.21,4c5.4,1,10.65,2.74,16.14,3.27,1,.09,1,.73,1.22,1.56-13.66-2.69-27-6.33-40.88-8.08.4-1.06.91-1.23,1.75-1C88.14,69.87,95.41,71.23,102.68,72.59Zm-23-1.68c7.78,1.75,15.63,3.16,23.46,4.69,4.74.93,9.4,2.26,14.18,3a6.54,6.54,0,0,0,1.45.18c1.57-.1,2.27.63,2.22,2.3-14.63-2.94-29.06-6.76-43.89-8.63C77.51,70.92,78.2,70.58,79.67,70.91Zm7.07,4.92c5.49.81,10.84,2.37,16.31,3.2,5,.74,9.74,2.33,14.71,3,1,.14,1.94.21,2.91.34.63.09,1.36,1.88,1,2.34-.25.28-.58.08-.87,0-4.24-.94-8.47-1.92-12.72-2.83C99.16,80,90.26,78.2,81.36,76.32c-1.51-.32-3-.68-4.53-1-.41-.1-1.14.06-1-.64s.59-1,1.06-.74C80.35,74.37,83.51,75.35,86.74,75.83ZM90.4,79.9c10.13,1.13,19.95,3.74,29.88,5.82.73.15,1.85,0,1.71,1.28.14,1.12-.53.81-1.08.69-4.59-1-9.15-2.19-13.76-3-5.15-1-10.24-2.15-15.35-3.25-5.56-1.2-11.17-2.17-16.67-3.64-.33-.08-1.09.18-.94-.56s.79-.35,1.23-.3C80.52,77.37,85.34,79.33,90.4,79.9Zm-.82,2.78c.94.2.25,1.3,1.07,1.38,0-.9.4-1.16,1.32-1.07a142.06,142.06,0,0,1,15.58,2.81c4.17.88,8.32,1.85,12.47,2.77,2.09.46,2.09.46,2,2.78-1.25-.29-2.47-.59-3.7-.85L91.94,84.86c-.43-.09-.86-.21-1.29-.31-5.68-1.11-11.35-2.31-17-3.69-.35-.09-.88,0-.65-.68.15-.48.26-.82,1-.72C79.25,80.24,84.39,81.57,89.58,82.68Zm13.21,11.83c5.75.7,11.18,2.89,17,3.29,1.52.11.87,1.2,1.14,2.21-5.59-1.21-11-2.36-16.33-3.53-3.38-.73-6.77-1.47-10.12-2.29a31.25,31.25,0,0,0-4.37-.77c-.61-.06-.82-.23-.77-.89s.44-.68,1-.61C94.51,92.52,98.57,94,102.79,94.51ZM92.09,89.3c3.17.7,6.2,1.58,9.3,2,6.11.84,12,2.89,18.1,3.59.31,0,.78-.1.9.37s.21.82,0,1-.73,0-1.09,0L100,92c-2.29-.5-4.58-1-6.88-1.49C92.5,90.39,92.18,90.14,92.09,89.3Zm7.33,30.33a1.12,1.12,0,0,1-1.06-1.1c-.1-.69,0-1,.77-.82,3.07.66,6.16,1.29,9.33,1.94-.59,1-1.15,1.55-2.46,1.32C103.8,120.58,101.62,120.05,99.42,119.63Zm5.36,2.13a2.51,2.51,0,0,1-2,.24c-.23,0-.4-.15-.35-.43s.29-.23.49-.19ZM93,103.26c-2-.43-4-.9-6-1.28-.92-.17-.7-.85-.66-1.33.08-.79.7-.29,1-.22a23.12,23.12,0,0,0,4.81.73c1.1,0,1.53.49,1.43,1.47C93.82,103.34,93.45,103.35,93,103.26Zm1.42,3a9.51,9.51,0,0,0-2.81-.78c-.28-.08-.65,0-.63-.49,0-.61.48-.44.78-.39C92.79,104.77,94.28,104.19,94.41,106.25Zm-7.76-2.17c.07-.55.46-.29.7-.25.78.14,1.54.34,2.32.46.43.07.69.29.6.68s-.5.14-.78.2l-2.33-.33C86.71,104.78,86.6,104.47,86.65,104.08Zm.3,3c.15-.64.73-.24,1.09-.18q3,.42,5.9.94c.52.09,1.16,0,1.48.61l0,0s0,0,0,0c1.24-.24,2.35.4,3.52.58.35,0,.44.46.37.75s-.45.24-.66.16c-1.11-.41-2.62,0-3.23-1.49h0c-.25.38-.42.67-1.1.51-2.11-.48-4.27-.77-6.41-1.12C87.42,107.75,86.79,107.77,87,107.07Zm4.84,3.56c.07-.69.64-.14.94-.12.7,0,1.37.33,2.06.4,1.17.1,1.29.78,1.11,1.78-1.15-.25-2.25-.5-3.36-.72C91.76,111.81,91.75,111.1,91.79,110.63Zm.77,3.65c.08-.71.63-.28.93-.23.78.12,1.54.42,2.33.53s1.2.58,1.07,1.59c-1.31-.28-2.51-.58-3.73-.79C92.42,115.25,92.5,114.73,92.56,114.28Zm3.82-3c1,.21,1.91.47,2.86.6.76.1.76.55.73,1.11-.06.85-.69.4-1,.35C97.8,113.2,96.39,113.23,96.38,111.32Zm3.74,4.21c.69.1.57.55.55,1,0,.73-.57.41-.87.32-1-.26-2.27-.08-2.19-1.82C98.51,115.2,99.31,115.42,100.12,115.53Zm3.26,2.11c-1-.14-2.12-.23-2-1.76,3.52.63,7.14.93,10.64,2.15a2.25,2.25,0,0,1-2.48.78A52.84,52.84,0,0,0,103.38,117.64ZM102,114.05c-1-.21-1.41-.63-1.28-1.66a92.13,92.13,0,0,1,13.64,2.77c-.38,1.31-1.21,1.4-2.28,1.15C108.76,115.53,105.41,114.72,102,114.05ZM101,110.37a4.77,4.77,0,0,0-.51-.13c-.43,0-.5-.29-.46-.64.08-.58.47-.25.7-.2a132.63,132.63,0,0,1,13.54,2.78c.73.21,1.47.34,2.26.53-.31.83-.77.93-1.5.76C110.33,112.41,105.65,111.4,101,110.37Zm-1.18-3.15c-1.3-.29-2.6-.54-3.9-.79-.61-.12-.62-.52-.57-1,.06-.64.51-.29.92-.4,4.59.95,9.28,1.91,14,2.89,2.3.48,4.6,1,6.88,1.55.35.09,1.26-.2,1,.76-.2.75-.69.88-1.43.71C111,109.68,105.41,108.45,99.79,107.22Zm17.76,1.28c-6.86-1.8-13.89-2.87-20.81-4.41-1.57-.34-2.33-1-2.31-2.65,3.11.39,6.18,1,9.25,1.69q7.23,1.53,14.43,3.15c.49.12,1.53-.12,1.15,1.09C119,108.25,118.77,108.82,117.55,108.5Zm-4.63-4.5c-5.86-1.24-11.73-2.41-17.57-3.7a19.68,19.68,0,0,1-3.94-.88C90.25,98.9,89.08,99,88,98.7c-.65-.2-2.13.3-1.8-1,.19-.82,1.23,0,1.87,0A195.32,195.32,0,0,1,108,101.14c3.88.91,7.79,1.73,11.68,2.62.44.1,1.26-.11,1.15.67s-.85.92-1.43,1C117.16,105,115.05,104.45,112.92,104ZM88.77,92.78c0,.52-.38.34-.57.35l-2.06-.26c-.85-.11-.54-.8-.55-1.25,0-.64.5-.31.78-.28.61.06,1.21.2,1.83.3S88.75,92.34,88.77,92.78ZM85.86,95c0-.22.22-.24.4-.21l2.49.42a.41.41,0,0,1,.35.48c0,.37-.18.45-.51.38l-2.33-.5A.46.46,0,0,1,85.86,95Zm4,.72c.09-.62.55-.34.81-.27.84.2,2.06-.11,2,1.48-.79-.17-1.54-.35-2.3-.49A.58.58,0,0,1,89.89,95.67Zm17.18,4.2c-4.32-.79-8.59-1.82-12.89-2.7-.21,0-.44-.06-.65-.13-.45-.14-.44-.57-.38-.88.08-.52.47-.22.73-.16,2.68.6,5.34,1.43,8.05,1.76,6.09.73,11.88,3,18,3.46,1.18.08,1,.79,1,1.68C116.25,101.86,111.69,100.71,107.07,99.87ZM91.41,89.79c-.08.51-.42.33-.7.26-1.62-.21-3.23-.45-4.85-.62-.48-.06-.59-.27-.6-.68,0-.65.44-.42.74-.38,1.62.24,3.23.52,4.86.74C91.32,89.17,91.47,89.35,91.41,89.79Zm-6.55-4.57c1.87.22,3.58.84,5.37,1a.54.54,0,0,1,.52.63c0,.58-.42.27-.67.24-1.49-.18-3-.43-4.45-.55C84.69,86.44,85.13,85.65,84.86,85.22Zm-6.72-1.61c1.71.21,3.38.67,5.06,1a1.84,1.84,0,0,1,.74.28,1,1,0,0,1,.23,1c-.07.41-.39.21-.63.15a97.44,97.44,0,0,0-10.63-1.5c-.34,0-.92.09-.93-.46a5,5,0,0,1,.35-1.4c0-.07.22-.08.25-.09C74.49,83,76.29,83.39,78.14,83.61Zm-5.9,5C75,88.7,77.61,89.7,80.33,90c.79.09,1.58.27,2.36.41,1.65.29,1.65.29,1.7,2.14a87.25,87.25,0,0,0-12.33-1.79c-1.18-.14-.84-.78-.91-1.45C71.06,88.34,71.68,88.56,72.24,88.58Zm8.41,4.93a15.63,15.63,0,0,1,3.39.65c.34.13.77.24.66.68s-.61.21-.89.15q-5.58-1.23-11.15-2.52c-.46-.11-1,0-1.58-.53C74.49,92,77.52,93.05,80.65,93.51Zm-9.5,1c.08-.52.48-.31.72-.24,3.95,1.07,8.07,1.22,12,2.38.52.15,1.23.12,1.15.86,0,.93-.57.5-.84.44-3.38-.73-6.75-1.5-10.13-2.25-.78-.18-1.57-.32-2.35-.45C71.26,95.16,71.07,94.93,71.15,94.5Zm0,3c0-.73.62-.36.9-.28,3.85,1.06,7.87,1.2,11.72,2.29,1.15.33,1.71.75,1.35,2.11-4.46-1-8.86-2-13.27-2.92C71.12,98.53,71.17,98,71.19,97.49Zm.43,3c4.37,1.18,8.87,1.36,13.17,2.68.69.21.88.64.73,1.16s-.66.19-1,.1a64.76,64.76,0,0,0-10.9-1.64C72.2,102.67,71.34,102.34,71.62,100.51Zm.65,3.21c2.66.51,5.3,1,7.94,1.53a29.15,29.15,0,0,1,4.8,1c.46.18,1,.25.84.91s-.73.29-1.08.19a64.82,64.82,0,0,0-10.9-1.67C72.63,105.61,71.89,105.33,72.27,103.72Zm.19,3.36c.09-.52.44-.29.71-.29,1.86,0,3.59.81,5.44,1.07a40.84,40.84,0,0,1,6.86,1.44c.86.28.76.87.84,1.4s-.42.23-.76.31a51.59,51.59,0,0,0-7.74-1.44c-1.27-.12-2.55-.28-3.82-.42A2,2,0,0,1,72.46,107.08Zm6.28,4.21a51,51,0,0,1,7.12,1.53c.49.16.9.28.76.82s-.66.19-1,.13c-3.63-.79-7.25-1.62-10.88-2.4-.63-.14-1.11-.3-1.17-1.27A33.87,33.87,0,0,0,78.74,111.29Zm7.48,4.34c.52.13.77.45.65,1s-.56.23-.84.17l-9.84-2.16c-.68-.15-1.29-.32-1.42-1.15A67.26,67.26,0,0,1,86.22,115.63Zm.44,3c.64.15.46.64.53,1s-.1.71-.64.59c-2.16-.47-4.33-.88-6.48-1.38-1-.24-1.43-1.23-2.44-2.12C81,117,83.79,118,86.66,118.67ZM82.23,121l4.91,1.23c.44.11.35.48.33.76,0,.51-.44.29-.71.29-1.83,0-3.15-1.14-4.63-2Zm5-10.87c0-.84.64-.32,1-.3.74,0,1.47.19,2.21.3s.52.71.54,1.13c0,.64-.49.26-.78.33-.73-.1-1.47-.23-2.21-.3S87.22,110.61,87.24,110.11Zm.39,3.42c.1-.73.62-.26.92-.25.57,0,1.14.15,1.71.19.95,0,1.35.5,1.13,1.52-1-.2-2-.42-3-.61C87.93,114.29,87.56,114.1,87.63,113.53Zm.4,2.77c.09-.28.36-.13.57-.1,2.37.31,4.74.69,7.12.91,1.31.12,1.92.64,1.78,2.07L89,117.4c-.34-.08-.74-.08-.91-.46A1,1,0,0,1,88,116.3Zm8.47,3.84c.94.12,1.87.26,1.93,1.51.63-.15,0-1.14.8-1a4.71,4.71,0,0,1,2.27.59c.32.28.27.73-.32,1a5,5,0,0,1-3.2.46c-1.26-.23-2.5-.59-3.77-.78-.72-.11-.82-.71-1.28-1.25-.09.59-.23,1.08-.91.75-1.22-.6-3.35.25-3.41-2.27Zm-7.17,2.94c.07-.68.63-.3.94-.28.75,0,1.49.17,2.23.27.2,0,.56-.13.51.16s-.46.3-.77.28a18.7,18.7,0,0,1-2,.17C89.89,123.67,89.25,123.78,89.33,123.08ZM12.48,15.47a6.06,6.06,0,0,1,0-.73A28.77,28.77,0,0,1,15.45,20c3.21,7.1,4.73,14.66,6.1,22.27A165.3,165.3,0,0,1,23.8,75a232.29,232.29,0,0,1-3.21,35.11c-1.09,6.25-1.51,12.64-3.14,18.78-2.32,8.73-4.63,17.48-7.93,25.92a1.07,1.07,0,0,1-.49.87,2.76,2.76,0,0,1,.2-1.69c0-5,0-10,.06-15a24.2,24.2,0,0,1,.4-3.7,7.4,7.4,0,0,0,.08-2.39,40.53,40.53,0,0,1,.5-13.23,23.21,23.21,0,0,0,0-5.71,17,17,0,0,1,.29-4.77c.74-3.66.35-7.36.21-11-.12-3.38-.1-6.75,0-10.12,0-1.55-.17-3.11-.07-4.65.36-5.48.35-11,1.18-16.45A36.68,36.68,0,0,0,12,58.6c-.34-4.61-.3-9.2-.2-13.82C12,35,12.69,25.24,12.48,15.47ZM14.4,2.34c1,.11,1.24.62,1.09,1.41a2.16,2.16,0,0,0,.53,2c-1.87.14-3.54.32-5.21.38-2.46.08-4.93-.06-7.4.2-.33,0-.78.25-.7-.53.12-1.17,0-2.37,0-3.64a26.86,26.86,0,0,0,4.76,0A53,53,0,0,1,14.4,2.34Z"/><path class="cls-1" d="M171.06,171c-4.06-.66-8-1.46-11.4-4.11a22.48,22.48,0,0,0-5.77-3c-4.5-1.73-9.12-1.69-13.8-1.07a42.44,42.44,0,0,1-4.91.44,60.21,60.21,0,0,1-11.9-1.29,49.09,49.09,0,0,1-20.62-8.23,80.15,80.15,0,0,0-12.35-7.38,22.78,22.78,0,0,0-11-2.61c-1.33.07-2.66.26-4,.26-6.3,0-12.62.27-18.9-.52a46.84,46.84,0,0,1-15-4c-7.14-3.49-14.49-3.56-22-1.65a3.69,3.69,0,0,1-.9.24h0l-.12,0a.48.48,0,0,0-.28.08v.11c1.49-.24,3-.47,4.47-.73A29.64,29.64,0,0,1,41.46,140a32.73,32.73,0,0,0,7.39,2.58c9.45,2.15,19,2.31,28.61,1.63a23.65,23.65,0,0,1,12.13,2.25,75.45,75.45,0,0,1,10.24,5.92c6.56,4.49,13.39,8.2,21.4,9.62,6.6,1.16,13.12,2.24,19.82,1.14a25.2,25.2,0,0,1,19.91,5.1,12.23,12.23,0,0,0,3.82,1.82,63,63,0,0,0,14.44,2.12l-.15-.27C176.43,171.29,173.72,171.4,171.06,171Z"/><path class="cls-1" d="M4,.93c-1.44,0-2.67.68-4,.93a3.41,3.41,0,0,0,.1.36c.39.89,2.07,1,1.27,2.71a4.83,4.83,0,0,0-.12,2.65C2.51,8.25,3.82,7,5.05,8a2,2,0,0,0,1.8.13c.72-.48.73.08.68.54-.36,4,.29,8-.12,12-.69,6.89-.65,13.84-1,20.75-.59,11.31-.7,22.64-1.32,34-.21,4,0,8.09-.18,12.13-.22,5.68-.63,11.35-.91,17-.23,4.71.26,9.41.27,14.12,0,12.27-.48,24.52-.8,36.78-.23,8.62-.42,17.23-.63,25.85-.15,6.35-.28,12.7-.46,19.05,0,.94.23,1.21,1.17,1.19A23.75,23.75,0,0,1,7,201.28a1.18,1.18,0,0,0,1.42-.81A8.2,8.2,0,0,0,9.3,196c-.49-5.85-.93-11.69-1.43-17.53a6.31,6.31,0,0,1,.62-3.87,3.49,3.49,0,0,0,.36-2.08c-.37-3.59,0-7.18-.08-10.78a2.36,2.36,0,0,1,.71-1.78,13,13,0,0,0,2.92-5,158.62,158.62,0,0,0,4.91-20.29c.74-4.12.79-8.42,3-12.19a4.38,4.38,0,0,0,.44-1.8c.45-5,1.49-9.92,2-14.91.67-6.45,1.69-12.86,2-19.35.29-5.6.05-11.2.26-16.8.1-2.79.64-5.63.11-8.38-.9-4.78-1-9.63-1.47-14.44-.47-4.58-.53-9.22-2.23-13.6a32.87,32.87,0,0,1-1.7-6.29,33.26,33.26,0,0,0-5.21-12.42l-.1,0s0,0,0,.08a5,5,0,0,0,1,2.16,30.12,30.12,0,0,1,3.71,9.24,64.21,64.21,0,0,0,2.31,8.63A28.82,28.82,0,0,1,23,42.88c.14,4.22.84,8.4,1,12.62.1,2.84,1.08,5.6.9,8.47-.35,5.38-.24,10.76-.27,16.14a142.6,142.6,0,0,1-1,14.89c-.9,8.13-2.08,16.22-3.09,24.34a12.29,12.29,0,0,1-1.34,4.58A12,12,0,0,0,18,128a195.54,195.54,0,0,1-4.62,22.32c-1,3.42-1.84,6.89-4.37,9.62a3.2,3.2,0,0,0-.66,2.38c.07,3.29-.13,6.58,0,9.87a4.72,4.72,0,0,1-.24,2.11,9.28,9.28,0,0,0-.6,4.53c.38,5.37.87,10.72,1.32,16.08a8.44,8.44,0,0,1-.59,4.83c-.28.52-.56,1.06-1.23,1.1H6.84a.13.13,0,0,0,0,.06l-.35,0c-.76.08-1.52.22-2.29.25-1.12,0-1.52-.41-1.48-1.48.06-1.38.28-2.74.29-4.12,0-3.73,0-7.46.18-11.2.26-6.79.29-13.59.59-20.39.15-3.41.14-6.84.2-10.26.13-8.13.54-16.25.61-24.38,0-3.78,0-7.57,0-11.35a57.25,57.25,0,0,0-.07-5.86c-.51-4.81,0-9.6.19-14.38.18-3.77.66-7.53.66-11.31,0-5.65.07-11.29.33-16.93.27-5.81.8-11.61.78-17.44,0-3,0-6,.17-8.93.16-2.35.61-4.68.59-7,0-4.23.46-8.44.3-12.67a4.32,4.32,0,0,1,.09-1.19c.94-4.32,0-8.69.39-13,.06-.56,0-1.28-.77-1.36a28.87,28.87,0,0,0-3.68-.53c-1.92.06-1.95,0-1.83-1.88A2.14,2.14,0,0,1,2,4.5,1,1,0,0,0,1.8,3.39C.92,2,1,1.9,2.64,1.56A5.38,5.38,0,0,1,4,1.47c2.09.12,4.16-.31,6.25-.32.81,0,1.72-.08,2-1.15A3.9,3.9,0,0,1,9.49.86C7.67.85,5.85.94,4,.93Z"/><path class="cls-1" d="M18.48,138.07l.92-.24a3.51,3.51,0,0,0,1.8-2.72c1.2-5.19,2.51-10.35,3.38-15.61.53-3.19,1.15-6.37,1.59-9.58.6-4.3,1-8.63,1.45-13s.66-8.93.95-13.39c.19-2.92.16-5.86.22-8.79.12-5.76.21-11.54-.12-17.32A156.65,156.65,0,0,0,27,41.73a89.6,89.6,0,0,0-8.1-26,3.21,3.21,0,0,0-3.8-1.93l-.22.08a1.22,1.22,0,0,1,.29.17,3.17,3.17,0,0,1,3.67,2.45,6.81,6.81,0,0,0,.33.73c5.92,12.28,8.29,25.4,9,38.88.38,7.13.33,14.29.07,21.44-.24,6.57-.45,13.13-1.05,19.68A257.48,257.48,0,0,1,20.9,134.9c-.41,1.69-1,2.82-2.81,3.09v.17A.81.81,0,0,1,18.48,138.07Z"/><path class="cls-1" d="M18.5,138.07a3.69,3.69,0,0,0,.9-.24l-.92.24Z"/><path class="cls-1" d="M15.26.71c1.56-.07,2,.33,2.08,1.88.05.81-.29,1.57-.3,2.37C17,7.09,17,6.67,15.09,7l-.53.06c-2.34.22-2.46.34-2.46,2.64,0,.22,0,.44,0,.66a1.76,1.76,0,0,0,1.63,2A113.31,113.31,0,0,0,36.06,15a38.74,38.74,0,0,1,5.7.42,169.65,169.65,0,0,1,19.93,4.32,59.84,59.84,0,0,1,11.83,4.44,31,31,0,0,0,8.14,3.29,42,42,0,0,1,11.16,4.27c1.86.95,3.79,1.78,5.59,2.82a35.32,35.32,0,0,0,14.67,4.47,26.54,26.54,0,0,1,13.37,4.86,79,79,0,0,0,7.25,4.5c3.05,1.74,6.07,3.67,9.56,4.29a100.29,100.29,0,0,1,16.22,4.78A7.12,7.12,0,0,1,164.16,62a31.75,31.75,0,0,1,1.76,16.37c-.58,3.29-1.12,6.57-1.61,9.87a21.74,21.74,0,0,0,.62,10.53c1.1,3.19,1.93,6.47,2.89,9.71a18.93,18.93,0,0,1,.89,7c-.09,1.1-.21,2.21-.27,3.32-.17,2.92-.34,5.85-.62,8.76a27.21,27.21,0,0,0,.72,9.65c2.86,10.55,6.09,21,9.38,31.43a15.37,15.37,0,0,0,1.15,3.21l.06,0,.15.09a2.2,2.2,0,0,0-.24-1.12c-2.77-8.6-5.49-17.22-7.93-25.93-1-3.67-2.4-7.26-2.83-11.07a62.21,62.21,0,0,1,.47-13.43c.53-5,.44-10-1.35-14.82-1-2.58-1.51-5.29-2.39-7.89a14.39,14.39,0,0,1-.67-6.3c.17-1.64.44-3.26.62-4.89.43-4,1.7-7.83,1.75-11.84A32.16,32.16,0,0,0,164,60.8a5.13,5.13,0,0,0-2.74-2.95c-4.34-1.67-8.62-3.67-13.21-4.44a43.49,43.49,0,0,1-16.16-6.48c-1.88-1.18-3.84-2.25-5.62-3.56a25.92,25.92,0,0,0-13.13-4.68,36.66,36.66,0,0,1-14.78-4.47c-2.54-1.45-5.2-2.69-7.83-4a24.25,24.25,0,0,0-6.79-2.64A20.13,20.13,0,0,1,78.32,26c-6.44-3-12.88-5.9-19.87-7.46s-14-3.66-21.32-3.8a126.56,126.56,0,0,1-21.8-2.37c-3-.59-3-.58-2.83-3.69.05-.9.38-1.35,1.29-1.15,1.09.24,2.09-.35,3.16-.29.35,0,.64-.14.54-.55a7.85,7.85,0,0,1,.27-3.47C18.19.92,17.24,0,15,.39A2,2,0,0,1,13.27,0C13.63,1.09,14.51.74,15.26.71Z"/><path class="cls-1" d="M179.13,171.88l-.06,0,.15.27a1.66,1.66,0,0,0,.06-.16Z"/><path class="cls-1" d="M17.49,138.3a.54.54,0,0,0,.52-.09h0A.73.73,0,0,1,17.49,138.3Z"/><path class="cls-1" d="M17.49,138.3a.73.73,0,0,0,.52-.1.17.17,0,0,1,0-.12q0-.09.09-.09a1.28,1.28,0,0,0-.87.43c.34.14.62.16.85-.13l-.06-.08A.54.54,0,0,1,17.49,138.3Z"/><path class="cls-1" d="M18,138.2h0l.07,0v0Z"/><path class="cls-1" d="M18,138.08a.17.17,0,0,0,0,.12l.07,0V138S18,138,18,138.08Z"/><path class="cls-1" d="M18,138.21l.06.08v-.11Z"/><path class="cls-1" d="M14.58,14.15a.49.49,0,0,1,.13-.12A.17.17,0,0,0,14.58,14.15Z"/><path class="cls-1" d="M14.71,14a.49.49,0,0,0-.13.12.66.66,0,0,0,0,.29c.08-.32.4-.24.61-.35A1.19,1.19,0,0,0,14.71,14Z"/><path class="cls-1" d="M14.71,14a.67.67,0,0,1,.18-.11.48.48,0,0,0-.55,0c-.16.13-.05.33.13.44a.82.82,0,0,1,.11-.25A.17.17,0,0,1,14.71,14Z"/><path class="cls-1" d="M14.71,14a1.19,1.19,0,0,1,.47.06,1.22,1.22,0,0,0-.29-.17A.67.67,0,0,0,14.71,14Z"/><path class="cls-1" d="M14.58,14.15a.82.82,0,0,0-.11.25l.1,0A.66.66,0,0,1,14.58,14.15Z"/><path class="cls-1" d="M165.84,163.63v0l0,0,0,0h0v0Z"/><path class="cls-1" d="M165.87,163.61l0,0v0Z"/><path class="cls-1" d="M6.85,200.9a.13.13,0,0,1,0-.06l-.34,0Z"/><path class="cls-1" d="M45.61,85.62c.31-1.87.59-3.68.77-5.39C46.13,81.6,45.93,83.6,45.61,85.62Z"/><path class="cls-1" d="M44,93.68c.27.22.17.55.23.83h0c.13-1.14.29-2.28.46-3.41A21.36,21.36,0,0,1,44,93.68Z"/><path class="cls-1" d="M45.61,85.62c-.3,1.78-.62,3.62-.91,5.48.35-1.67.56-3.37.84-5.06C45.56,85.9,45.58,85.76,45.61,85.62Z"/><path class="cls-1" d="M46.22,79.75q-1.11,7-2.21,13.93a21.36,21.36,0,0,0,.69-2.58c.29-1.86.61-3.7.91-5.48.32-2,.52-4,.77-5.39-.18,1.71-.46,3.52-.77,5.39,0,.14,0,.28-.07.42-.28,1.69-.49,3.39-.84,5.06-.17,1.13-.33,2.27-.46,3.41a93.27,93.27,0,0,0,2.3-15.34A.9.9,0,0,0,46.22,79.75Z"/><path class="cls-1" d="M95.42,108.44h0s0,0,0,0l0,0,0,0Z"/><path class="cls-1" d="M95.44,108.41l0,0h0Z"/><path class="cls-1" d="M9.23,154a2.76,2.76,0,0,0-.2,1.69,1.07,1.07,0,0,0,.49-.87C8.87,154.69,9.22,154.26,9.23,154Z"/><path class="cls-1" d="M9.23,154c0,.31-.36.74.29.82C9.14,154.6,9.39,154.2,9.23,154Z"/><path class="cls-1" d="M33.56,74.73h0v-.09a1.6,1.6,0,0,1,.25-1l-.48.25a1.13,1.13,0,0,1,.22.75A.15.15,0,0,0,33.56,74.73Z"/><path class="cls-1" d="M33.56,74.73a.15.15,0,0,1,0-.07,1.13,1.13,0,0,0-.22-.75v.82Z"/><path class="cls-1" d="M33.56,74.73h.2l.05-1.07a1.6,1.6,0,0,0-.25,1Z"/><path class="cls-1" d="M139.37,95a17.38,17.38,0,0,0,2.52,4.78l.26-.26a1.09,1.09,0,0,0-.23-.74c-1.56-2.47-2.35-5.27-3.42-8-1.66-4.13-1.69-8.63-2.76-12.9-.25-1-.06-2.09-.77-3a107.89,107.89,0,0,0,1.24,10.77C136.82,89,138.22,92,139.37,95Z"/><path class="cls-1" d="M26.91,132.05c1.31-1.3,5.58-12.29,5.32-13.86a17.22,17.22,0,0,0-2.7,6.15A9.4,9.4,0,0,1,28,128.49,4.41,4.41,0,0,0,26.91,132.05Z"/><path class="cls-1" d="M65.54,30.36l.36-.26c-.5-1-1-2-1.5-3a8.83,8.83,0,0,0-1.53-2.46c-.19-.18-.41-.42-.69-.28s-.23.56-.1.81A30.41,30.41,0,0,0,65.54,30.36Z"/><path class="cls-1" d="M104.8,132a20.5,20.5,0,0,0-2-5.82,20.31,20.31,0,0,0,1,6c.1.32.32.72.75.58S104.86,132.24,104.8,132Z"/><path class="cls-1" d="M63.37,34.21a.67.67,0,0,0-.5,0c-.26.12-.19.37-.08.57a19.11,19.11,0,0,0,4,5.07,23.94,23.94,0,0,0-2.91-5.24A1.32,1.32,0,0,0,63.37,34.21Z"/><path class="cls-1" d="M55.75,133.69a.67.67,0,0,0,.33.8c.39.13.56-.25.64-.52a18.09,18.09,0,0,0,.94-6.12A26.61,26.61,0,0,0,55.75,133.69Z"/><path class="cls-1" d="M58.21,27.06A24.8,24.8,0,0,0,54,20.61C54.39,22.71,56.77,26.29,58.21,27.06Z"/><path class="cls-1" d="M108.37,148.19a15,15,0,0,0-1.82-7.22A18.33,18.33,0,0,0,108.37,148.19Z"/><path class="cls-1" d="M169,165.27c0,.31.35.74.75.51s.2-.67,0-1c-.59-1.05-1.13-2.13-1.72-3.17-.27-.48-.13-1.18-.89-1.51C166.24,162.39,168.9,163.34,169,165.27Z"/><path class="cls-1" d="M149.62,94.47h.51a10.69,10.69,0,0,0-1.53-2.74c-.38-.59-.12-1.58-1.08-1.81l-.56,0C147.58,91.61,148.15,93.3,149.62,94.47Z"/><path class="cls-1" d="M35.44,106.79a.44.44,0,0,0,.63-.31,7.76,7.76,0,0,0,.47-4.34,14.37,14.37,0,0,0-1.4,3.85C35.1,106.29,35.08,106.63,35.44,106.79Z"/><path class="cls-1" d="M32.45,117.4c.36.13.54-.21.66-.5.65-1.54,1.3-3.08.9-4.82h-.1a25.49,25.49,0,0,0-1.45,4.59C32.41,116.93,31.93,117.2,32.45,117.4Z"/><path class="cls-1" d="M142.15,86.2c.73,1.23.66,2.9,2.06,3.76l.6,0a20.11,20.11,0,0,0-1.11-2.17c-.4-.59-.12-1.54-1-1.86C142.49,86,142.25,85.94,142.15,86.2Z"/><path class="cls-1" d="M145.66,87.08c.81.8.83,1.92,1.3,2.86a.4.4,0,0,1,.56,0c-.12-.18-.37-.4-.34-.53.51-1.74-.94-2.83-1.37-4.25l-.21.31C145.58,86,145.19,86.61,145.66,87.08Z"/><path class="cls-1" d="M147,89.94l.56,0A.4.4,0,0,0,147,89.94Z"/><path class="cls-1" d="M144.21,90c.38,1.46.56,3,1.93,4h.46a16.32,16.32,0,0,0-1.79-4A.5.5,0,0,1,144.21,90Z"/><path class="cls-1" d="M144.81,89.94l-.6,0A.5.5,0,0,0,144.81,89.94Z"/><path class="cls-1" d="M141.36,89.71c-.29-.65,0-1.68-1-1.93l-.32.3c-.15,1,.93,1.55.91,2.32a1.5,1.5,0,0,0,1.23,1.67h.19A6.72,6.72,0,0,0,141.36,89.71Z"/><path class="cls-1" d="M144.07,96.13a11.37,11.37,0,0,0-1.73-4.06c-.06.11-.12.11-.19,0A3.65,3.65,0,0,0,144.07,96.13Z"/><path class="cls-1" d="M142.34,92.07h-.19C142.22,92.18,142.28,92.18,142.34,92.07Z"/><path class="cls-1" d="M140.21,87a.38.38,0,0,0,.27-.52c-.48-1.07-.52-2.31-1.22-3.3l-.25.35c0,.41-.55.76-.2,1.22s.91.91.67,1.69C139.44,86.55,139.73,87.14,140.21,87Z"/><path class="cls-1" d="M149.62,94.47c.09,1.74,1.18,3.3,2.48,3.4-.84-1.07-1-2.47-2-3.4A.32.32,0,0,1,149.62,94.47Z"/><path class="cls-1" d="M150.13,94.47h-.51A.32.32,0,0,0,150.13,94.47Z"/><path class="cls-1" d="M33.6,75.18a13.14,13.14,0,0,0,.21,2.34A5.3,5.3,0,0,0,33.6,75.18Z"/><path class="cls-1" d="M33.6,75.18a5.3,5.3,0,0,1,.21,2.34,13.14,13.14,0,0,1-.21-2.34c0-.12,0-.23,0-.34a.33.33,0,0,1-.24-.11,12.31,12.31,0,0,0,0,2.78c0,.39,0,.92.55.85a.71.71,0,0,0,.55-.92c-.18-.91-.43-1.8-.66-2.71a.26.26,0,0,1-.19.1Z"/><path class="cls-1" d="M33.6,75.18l0-.35h0C33.57,75,33.58,75.06,33.6,75.18Z"/><path class="cls-1" d="M33.56,74.73h0v0Z"/><path class="cls-1" d="M33.56,74.84v-.11h-.24A.33.33,0,0,0,33.56,74.84Z"/><path class="cls-1" d="M33.56,74.78v0a.26.26,0,0,0,.19-.1h-.2Z"/><path class="cls-1" d="M33.57,74.83v0Z"/><path class="cls-1" d="M142.12,85.15l.3,0c.55-.44.13-1,0-1.29a21.23,21.23,0,0,1-.94-2.21H141C140.43,83.11,141.69,84,142.12,85.15Z"/><path class="cls-1" d="M60,135.1a8.13,8.13,0,0,0,1.29-4C59.91,132.3,60,133.54,60,135.1Z"/><path class="cls-1" d="M58.57,125.57a11.41,11.41,0,0,0,1.16-3.73C58.54,122.89,58.27,123.77,58.57,125.57Z"/><path class="cls-1" d="M51.47,23.51c.29-.12.24-.38.17-.57a3.65,3.65,0,0,0-2-2.32c.52,1.06.89,1.84,1.28,2.6C51.06,23.41,51.2,23.61,51.47,23.51Z"/><path class="cls-1" d="M69,44.67c.11.22.22.54.56.43s.23-.43.16-.67a4.69,4.69,0,0,0-1.4-2.09l-.32.22C68.34,43.26,68.67,44,69,44.67Z"/><path class="cls-1" d="M66.58,32.77c.62,1,.72,2.15,1.48,3A2.29,2.29,0,0,0,66.58,32.77Z"/><path class="cls-1" d="M76.49,56.24A9.08,9.08,0,0,0,75,53,3.27,3.27,0,0,0,76.49,56.24Z"/><path class="cls-1" d="M62.52,122.13a3.63,3.63,0,0,0,1-3.62A11,11,0,0,0,62.52,122.13Z"/><path class="cls-1" d="M162.77,157c-.21-.09-.4.21-.3.44.22.53.08,1.31.83,1.5a.54.54,0,0,0,.68-.46A2.46,2.46,0,0,0,162.77,157Z"/><path class="cls-1" d="M60,118.33a2.94,2.94,0,0,0-.16,2,2.18,2.18,0,0,0,1-1.73c0-.29.11-.68-.26-.79S60.06,118.07,60,118.33Z"/><path class="cls-1" d="M58.46,34.71A5.31,5.31,0,0,0,57,31.66,3.71,3.71,0,0,0,58.46,34.71Z"/><path class="cls-1" d="M70.5,39.49c.24-.1.14-.37.06-.57a3.82,3.82,0,0,0-1.22-1.74,2.14,2.14,0,0,0,.57,2.16A.71.71,0,0,0,70.5,39.49Z"/><path class="cls-1" d="M61.17,129.58c1-1,1.12-1.5.47-2.5A2.49,2.49,0,0,0,61.17,129.58Z"/><path class="cls-1" d="M72,48.81c.59-.32,0-.81-.22-1.18s-.42-.88-1-1c-.33.51,0,.94.18,1.34S71.56,49.06,72,48.81Z"/><path class="cls-1" d="M73,44.16a4.14,4.14,0,0,0,1.25,3.15A4.13,4.13,0,0,0,73,44.16Z"/><path class="cls-1" d="M62.87,109.47a6.45,6.45,0,0,0-1.21,3.36A4.27,4.27,0,0,0,62.87,109.47Z"/><path class="cls-1" d="M53.78,27.22c.08,0,.31-.07.32-.13a2.14,2.14,0,0,0-.69-1.51c-.15-.19-.25-.49-.78-.47a5.92,5.92,0,0,0,.07.69A1.86,1.86,0,0,0,53.78,27.22Z"/><path class="cls-1" d="M37.33,74.86v4A5.23,5.23,0,0,0,37.33,74.86Z"/><path class="cls-1" d="M163.25,154c.22.54.19,1.23.91,1.55.19-.2.69-.17.59-.56a1.94,1.94,0,0,0-1.14-1.35A.27.27,0,0,0,163.25,154Z"/><path class="cls-1" d="M166.84,159.92c.3-.7-.08-1.19-.32-1.69-.13-.27-.42-.6-.72-.46s-.17.62,0,.92A1.93,1.93,0,0,0,166.84,159.92Z"/><path class="cls-1" d="M169.39,159.61c.26.53.09,1.41,1,1.43.21,0,.56,0,.51-.49-.3-.48-.54-1.07-1.17-1.29C169.49,159.16,169.28,159.38,169.39,159.61Z"/><path class="cls-1" d="M74.07,52.5a2.12,2.12,0,0,0-1.31-2.43A3.11,3.11,0,0,0,74.07,52.5Z"/><path class="cls-1" d="M60.79,116.3a1.88,1.88,0,0,0,.78-2.39A2.28,2.28,0,0,0,60.79,116.3Z"/><path class="cls-1" d="M171.74,163.34h0v0l0,0Z"/><path class="cls-1" d="M173.18,165.55c-.17-1.09,0-2.14-1.42-2.21A2.52,2.52,0,0,0,173.18,165.55Z"/><path class="cls-1" d="M61.92,125.84a2.89,2.89,0,0,0,.83-2.74A2.56,2.56,0,0,0,61.92,125.84Z"/><path class="cls-1" d="M148.78,97.94s0,0,0,0l0,0Z"/><path class="cls-1" d="M148,96.26c-.2-.29-.56-.39-.78-.08a.59.59,0,0,0,.17.81c.45.34.93.64,1.4,1C149.26,97.06,148.36,96.77,148,96.26Z"/><path class="cls-1" d="M106.37,140.75a3.38,3.38,0,0,0-.91-3.07A4.41,4.41,0,0,0,106.37,140.75Z"/><path class="cls-1" d="M71.19,40.82a2.84,2.84,0,0,0,1,2.52A2.13,2.13,0,0,0,71.19,40.82Z"/><path class="cls-1" d="M38,98.19a.36.36,0,0,0-.33-.08c-.78.55-.68,1.36-.58,2.54C37.68,99.66,38.16,99,38,98.19Z"/><path class="cls-1" d="M54.82,28.41a2.31,2.31,0,0,0,1.27,2.36A2.35,2.35,0,0,0,54.82,28.41Z"/><path class="cls-1" d="M164.94,161.6l0,.06c0,.09.09.17.12.25.2.48.46.93.7,1.39a4.37,4.37,0,0,0-.75-1.64Z"/><path class="cls-1" d="M165.85,163.57l-.13-.27.09.28,0,0Z"/><path class="cls-1" d="M165,161.91c0-.08-.08-.16-.12-.25a1.94,1.94,0,0,0-.12.43l0-.13,0,.13a2.13,2.13,0,0,0,1,1.49l-.09-.28C165.48,162.84,165.22,162.39,165,161.91Z"/><path class="cls-1" d="M164.94,161.6l0,.06a4.37,4.37,0,0,1,.75,1.64l.13.27a1.94,1.94,0,0,0-.68-2.16A.55.55,0,0,0,164.94,161.6Z"/><path class="cls-1" d="M165.84,163.63l0,0h0Z"/><path class="cls-1" d="M60.18,29.85c-.31-1.42-.65-1.88-1.63-2.16A3.49,3.49,0,0,0,60.18,29.85Z"/><path class="cls-1" d="M152.89,99.8c-.48.48-.25.84.22,1.1s.86.38,1.29.57l.07-.42a.65.65,0,0,0,0,.13.33.33,0,0,0,0-.13,3.86,3.86,0,0,0-1.4-1.23H153Z"/><path class="cls-1" d="M151.74,98.4a1.35,1.35,0,0,0,1.15,1.4h0l.18,0a1.77,1.77,0,0,0-1-1.69A.26.26,0,0,0,151.74,98.4Z"/><path class="cls-1" d="M152.89,99.8l.09,0h.09l-.18,0Z"/><path class="cls-1" d="M146.14,93.94h0c.19.53.35,1.07.56,1.59a.5.5,0,0,0,.67.27c.33-.15.17-.47,0-.68-.24-.41-.54-.79-.82-1.18A.29.29,0,0,1,146.14,93.94Z"/><path class="cls-1" d="M146.6,93.94h-.46A.29.29,0,0,0,146.6,93.94Z"/><path class="cls-1" d="M40.19,89c-.78.61-.77,1.55-1.09,2.3C40.14,90.87,40.25,90,40.19,89Z"/><path class="cls-1" d="M141.89,99.81a1.39,1.39,0,0,0,.5.9c.24.21.51.37.82.15a.76.76,0,0,0,.27-.43c.06-.38-.31-.35-.52-.46s-.54-.29-.81-.42C142.23,99.8,142.12,99.87,141.89,99.81Z"/><path class="cls-1" d="M142.15,99.55l-.26.26C142.12,99.87,142.23,99.8,142.15,99.55Z"/><path class="cls-1" d="M139.26,83.18c.38-1-.14-1.38-1.09-1.53a4.78,4.78,0,0,0,.84,1.88C139.06,83.39,139.06,83.22,139.26,83.18Z"/><path class="cls-1" d="M139,83.53l.25-.35C139.06,83.22,139.06,83.39,139,83.53Z"/><path class="cls-1" d="M146.19,99.21h0l-1-1h-.52c-.5,1.19.68,1,1.15,1.4h0Z"/><path class="cls-1" d="M38.75,95.29c-.07-.23-.32-.42-.49-.27a1.69,1.69,0,0,0-.33,1.81C38.64,96.42,39,96,38.75,95.29Z"/><path class="cls-1" d="M145.6,85.45c-.16-.27,0-.29.21-.31.22-1-.6-1.19-1.21-1.57C144.88,84.23,144.73,85.11,145.6,85.45Z"/><path class="cls-1" d="M145.6,85.45l.21-.31C145.63,85.16,145.44,85.18,145.6,85.45Z"/><path class="cls-1" d="M137.36,79.77c0,.37.09.74.56.74.24,0,.62-.07.59-.38a1,1,0,0,0-.66-.87C137.44,79.24,137.35,79.47,137.36,79.77Z"/><path class="cls-1" d="M141,81.64a.29.29,0,0,1,.43,0c-.31-.51.11-1.42-.85-1.58l-.4.06A1.94,1.94,0,0,0,141,81.64Z"/><path class="cls-1" d="M141,81.64h.43A.29.29,0,0,0,141,81.64Z"/><path class="cls-1" d="M104.79,134.72a2.65,2.65,0,0,0,.6,2.43A2.31,2.31,0,0,0,104.79,134.72Z"/><path class="cls-1" d="M143.54,81.92c.08.36.05.83.63.8.26-.07.62-.15.55-.43a1,1,0,0,0-.87-.84C143.62,81.43,143.48,81.68,143.54,81.92Z"/><path class="cls-1" d="M61.9,32.37a2.66,2.66,0,0,0-1.2-2.06C60.57,31.36,61.1,31.82,61.9,32.37Z"/><path class="cls-1" d="M54.72,138.65c.84-.51.75-1.25.69-2.33A2.54,2.54,0,0,0,54.72,138.65Z"/><path class="cls-1" d="M146.91,100.24c-.42-.24-.43-.72-.72-1h0c.1.34-.07.42-.36.36.31.29.25.73.42,1.07s.54.65.84.46S147.22,100.42,146.91,100.24Z"/><path class="cls-1" d="M146.19,99.21l-.36.36h0C146.12,99.63,146.29,99.55,146.19,99.21Z"/><path class="cls-1" d="M154.4,101.47c.07.82.34,1.41,1.39,1.24-.21-.77-1-.94-1.28-1.53A.3.3,0,0,1,154.4,101.47Z"/><path class="cls-1" d="M154.4,101.47a.3.3,0,0,0,.11-.29.65.65,0,0,1,0-.13Z"/><path class="cls-1" d="M139.1,78.11c.08.33.1.73.62.62.25,0,.54,0,.5-.45-.23-.28-.38-.71-.85-.67C139.12,77.63,139,77.86,139.1,78.11Z"/><path class="cls-1" d="M39.28,92.24a1.28,1.28,0,0,0-.55,1.85A1.51,1.51,0,0,0,39.28,92.24Z"/><path class="cls-1" d="M34.31,110.21a1.76,1.76,0,0,0-.4,1.88H34A1.41,1.41,0,0,0,34.31,110.21Z"/><path class="cls-1" d="M144.85,97.33c-.24-.42-.32-1-1-1.06a1.2,1.2,0,0,0,.39,1.42A.63.63,0,0,0,144.85,97.33Z"/><path class="cls-1" d="M162.68,155.91c0-.28.12-.63-.33-.78-.2.11-.45.2-.47.51a.58.58,0,0,0,.4.6C162.58,156.36,162.67,156.13,162.68,155.91Z"/><path class="cls-1" d="M35.05,108.52c0-.09-.26-.21-.29-.18a1.14,1.14,0,0,0-.31,1.4A.92.92,0,0,0,35.05,108.52Z"/><path class="cls-1" d="M148.79,98c0,.56.1,1,.78,1.07.2,0,.39-.1.3-.28C149.64,98.35,149.44,97.83,148.79,98Z"/><path class="cls-1" d="M148.76,98h0v0Z"/><path class="cls-1" d="M103.63,143.85c-.2.55.21.88.51,1.32a1,1,0,0,0-.13-1.41C103.85,143.57,103.69,143.69,103.63,143.85Z"/><path class="cls-1" d="M161.09,152.62c.09-.44.52-.93-.25-1.33C160.61,151.82,160.51,152.27,161.09,152.62Z"/><path class="cls-1" d="M161.1,152.63h0a.06.06,0,0,0,0,0Z"/><path class="cls-1" d="M161.11,152.66v0l0,0Z"/><path class="cls-1" d="M161.36,153.59a.33.33,0,0,0,.38-.28c.16-.58-.21-.65-.63-.65C161.13,153,160.7,153.44,161.36,153.59Z"/><polygon class="cls-1" points="161.08 152.66 161.1 152.63 161.1 152.63 161.08 152.66"/><path class="cls-1" d="M164.38,160.77l-.06-.12h0c.18.28.37.55.53.84l.05,0A4.06,4.06,0,0,0,164.38,160.77Z"/><path class="cls-1" d="M164.81,161.49c-.16-.29-.35-.56-.53-.84h-.23c0,.56.56.82.7,1.3C164.71,161.77,164.69,161.59,164.81,161.49Z"/><path class="cls-1" d="M164.38,160.77a4.06,4.06,0,0,1,.48.69.54.54,0,0,1,.31-.05l-.57-.77h-.28Z"/><path class="cls-1" d="M164.5,160.58a.21.21,0,0,0,.1.06Z"/><path class="cls-1" d="M164.86,161.46l-.05,0,.09.17,0-.06S164.89,161.5,164.86,161.46Z"/><path class="cls-1" d="M164.86,161.46s0,.09.08.14a.55.55,0,0,1,.23-.19A.54.54,0,0,0,164.86,161.46Z"/><path class="cls-1" d="M164.9,161.66l-.09-.17c-.12.1-.1.28-.06.47l0,.13A1.94,1.94,0,0,1,164.9,161.66Z"/><path class="cls-1" d="M164.23,160.45c-.06.05,0,.08,0,.1h0Z"/><path class="cls-1" d="M164.23,160.45l0,.09a.49.49,0,0,1,.23,0c-.33-.27-.07-1.2-.73-.89s.25.61.28,1a.58.58,0,0,1,.18-.11S164.17,160.5,164.23,160.45Z"/><path class="cls-1" d="M164.27,160.54h0s0,0,0,.08v0h0Z"/><path class="cls-1" d="M164.27,160.54l0,.11h.28a.21.21,0,0,1-.1-.06A.49.49,0,0,0,164.27,160.54Z"/><path class="cls-1" d="M164.27,160.63s0,0,0-.08a.58.58,0,0,0-.18.11h.23Z"/><path class="cls-1" d="M164.55,156.38c0,.47.35.7.76.89-.38-.28,0-1-.53-1.1C164.73,156.15,164.55,156.31,164.55,156.38Z"/><path class="cls-1" d="M167.54,154.77c.25,0,.35-.24.37-.44a.61.61,0,0,0-.35-.64c-.32,0-.32.24-.31.45S167.18,154.72,167.54,154.77Z"/><path class="cls-1" d="M162.66,152.37c.06.26.17.55.5.46s.22-.36.19-.57-.07-.46-.42-.41A.44.44,0,0,0,162.66,152.37Z"/><path class="cls-1" d="M143.62,80c.09,0,.27-.22.26-.24-.17-.25-.36-.48-.55-.72C143.2,79.61,143.09,80.05,143.62,80Z"/><path class="cls-1" d="M161.64,149.76c0,.22,0,.43.25.5a.44.44,0,0,0,.46-.36.35.35,0,0,0-.29-.47C161.79,149.36,161.68,149.54,161.64,149.76Z"/><path class="cls-1" d="M169.29,158.54c.14-.45.28-.81-.09-1.09,0,0-.26,0-.32.1C168.57,158,168.79,158.25,169.29,158.54Z"/><path class="cls-1" d="M140.18,80.11a.27.27,0,0,1,.4-.06c-.15-.36-.21-.81-.83-.9C139.81,79.57,139.76,79.93,140.18,80.11Z"/><path class="cls-1" d="M140.18,80.11l.4-.06A.27.27,0,0,0,140.18,80.11Z"/><path class="cls-1" d="M162.12,154.33c0-.2-.08-.3-.29-.3s-.45.06-.43.32a.54.54,0,0,0,.3.37C162,154.77,162,154.51,162.12,154.33Z"/><path class="cls-1" d="M167.72,155.36c0,.23,0,.41.21.47a.37.37,0,0,0,.47-.37.47.47,0,0,0-.24-.38C167.93,155,167.76,155.12,167.72,155.36Z"/><path class="cls-1" d="M137.46,77.94c.26,0,.45-.06.48-.33s-.22-.2-.37-.25-.37,0-.41.23S137.28,77.9,137.46,77.94Z"/><path class="cls-1" d="M142.12,85.15a.73.73,0,0,0,0,1c0-.51.26-.41.55-.29a1.06,1.06,0,0,1-.28-.78C142.33,85.26,142.23,85.27,142.12,85.15Z"/><path class="cls-1" d="M142.15,86.2c.1-.26.34-.24.55-.29C142.41,85.79,142.12,85.69,142.15,86.2Z"/><path class="cls-1" d="M142.42,85.13l-.3,0C142.23,85.27,142.33,85.26,142.42,85.13Z"/><path class="cls-1" d="M138.68,75c.16-.23.55-.38.33-.76a.34.34,0,0,0-.33-.06C138.38,74.43,138.22,74.72,138.68,75Z"/><polygon class="cls-1" points="138.68 74.99 138.68 74.99 138.68 74.99 138.68 74.99"/><path class="cls-1" d="M161.71,149.05c.23-.34.16-.64-.28-1a.79.79,0,0,0,0,1A.38.38,0,0,0,161.71,149.05Z"/><path class="cls-1" d="M143.65,80.34a.33.33,0,0,0-.25.4c0,.19.18.35.38.23s.19-.26.24-.33C144,80.28,143.83,80.28,143.65,80.34Z"/><path class="cls-1" d="M168.11,156.6c0,.24.18.41.42.34a.54.54,0,0,0,.28-.37c0-.22-.17-.24-.39-.24S168.09,156.36,168.11,156.6Z"/><path class="cls-1" d="M143.18,78.77a1.93,1.93,0,0,0,.28-.53.26.26,0,0,0-.33-.29c-.23.06-.28.3-.31.51S143,78.71,143.18,78.77Z"/><path class="cls-1" d="M171.76,163.31h0v0Z"/><path class="cls-1" d="M171.74,163.31c.12-.33.15-.65-.31-.75a.32.32,0,0,0-.26.17C171.13,163.13,171.32,163.35,171.74,163.31Z"/><polygon class="cls-1" points="171.74 163.34 171.76 163.31 171.74 163.34 171.74 163.34"/><path class="cls-1" d="M162.09,150.92c0,.16,0,.36.24.41s.33-.08.42-.47c0,0-.16-.11-.34-.1S162.09,150.85,162.09,150.92Z"/><path class="cls-1" d="M137.7,78.17a1,1,0,0,0-.34.22c0,.32.17.42.31.37a.59.59,0,0,0,.32-.35C138.08,78.16,137.82,78.15,137.7,78.17Z"/><path class="cls-1" d="M145.2,98.17l-.35-.84c0,.52-.25.51-.61.36l.44.48A.45.45,0,0,1,145.2,98.17Z"/><path class="cls-1" d="M145.2,98.17h0a.45.45,0,0,0-.52,0h.52Z"/><path class="cls-1" d="M144.85,97.33a.63.63,0,0,1-.61.36C144.6,97.84,144.88,97.85,144.85,97.33Z"/><path class="cls-1" d="M26.26,132.46c-.11,0-.18.25-.2.4s0,.37.25.26.2-.24.25-.31C26.55,132.53,26.44,132.38,26.26,132.46Z"/><path class="cls-1" d="M139,75.79c-.11,0-.3,0-.22.22s.2.22.27.2a1.39,1.39,0,0,0,.41-.23C139.31,75.71,139.13,75.77,139,75.79Z"/><path class="cls-1" d="M138.86,75.51c.12,0,.34-.19.34-.29,0-.41-.28-.29-.52-.23C138.6,75.22,138.41,75.5,138.86,75.51Z"/><polygon class="cls-1" points="138.68 74.99 138.68 74.99 138.68 74.99 138.68 74.99"/><path class="cls-1" d="M140.33,87.78c-.12-.18-.08-.64-.42-.45s-.11.51.1.75C139.94,87.78,140.06,87.7,140.33,87.78Z"/><path class="cls-1" d="M140,88.08l.32-.3C140.06,87.7,139.94,87.78,140,88.08Z"/></g></g></svg>