<svg xmlns="http://www.w3.org/2000/svg" viewBox="0 0 159.48 179.32"><defs><style>.cls-1{fill:#1d314f;}</style></defs><title>Asset 9</title><g id="Layer_2" data-name="Layer 2"><g id="Capa_1" data-name="Capa 1"><path class="cls-1" d="M75,75.06l0-.3A.22.22,0,0,0,75,75.06Z"/><path class="cls-1" d="M146,142.65h0l0,0Z"/><path class="cls-1" d="M81.54,79.52c-.07,0-.28,0-.3,0a1.77,1.77,0,0,0,.05,1.26c.1.29.09.64.48.87a1.25,1.25,0,0,0,.32-.92A1.48,1.48,0,0,0,81.54,79.52Z"/><path class="cls-1" d="M83,110.12a3,3,0,0,0-.42-2.81A3.61,3.61,0,0,0,83,110.12Z"/><path class="cls-1" d="M82.13,104.86a2,2,0,0,0,.34,2.06A1.86,1.86,0,0,0,82.13,104.86Z"/><path class="cls-1" d="M122.35,70.55c-.22.17-.18.44-.18.71s.23.46.55.39.5-.16.35-.46S122.8,70.61,122.35,70.55Z"/><path class="cls-1" d="M123.88,69.08c-.28,0-.24.24-.24.42s0,.65.49.59c.2,0,.49,0,.47-.38C124.41,69.45,124.29,69.09,123.88,69.08Z"/><path class="cls-1" d="M122.26,67.52c-.08-.08-.19-.06-.28,0-.32.42,0,.67.3.91C122.21,68.15,122.54,67.81,122.26,67.52Z"/><path class="cls-1" d="M123.85,68.64c.26-.23.39-.49,0-.75-.1.25-.64.22-.41.65C123.53,68.66,123.71,68.78,123.85,68.64Z"/><path class="cls-1" d="M127.07,70.5c.37-.61.37-.61.09-1.06A.83.83,0,0,0,127.07,70.5Z"/><path class="cls-1" d="M127.73,71.49a.59.59,0,0,0-.29.33.22.22,0,0,0,.23.31c.28,0,.26-.23.32-.41S127.87,71.44,127.73,71.49Z"/><path class="cls-1" d="M123.88,67.87v0h0l0,0Z"/><path class="cls-1" d="M123.48,67.41c-.09,0-.23.14-.22.2.06.42.38.25.62.26C123.94,67.55,123.87,67.34,123.48,67.41Z"/><path class="cls-1" d="M80.78,94.58a7.08,7.08,0,0,0-.19-3.17A2.43,2.43,0,0,0,80.78,94.58Z"/><path class="cls-1" d="M88.2,95.29a5.89,5.89,0,0,0,.39,3.16A3.63,3.63,0,0,0,88.2,95.29Z"/><path class="cls-1" d="M89,99.5a2.42,2.42,0,0,0,.4,2.51C89.63,100.59,89.6,100.41,89,99.5Z"/><path class="cls-1" d="M85.18,98.38a1.78,1.78,0,0,0-.52-1.93C84.54,97.26,84.52,97.86,85.18,98.38Z"/><path class="cls-1" d="M92.35,127.94s-.26,0-.27.1c-.1.42.12.73.54,1.14A1,1,0,0,0,92.35,127.94Z"/><path class="cls-1" d="M94.58,125.39c-.26.3-.12.63.07.92a17.47,17.47,0,0,0,1.64,5.56,15.18,15.18,0,0,0-1.39-6.29C94.85,125.41,94.68,125.27,94.58,125.39Z"/><path class="cls-1" d="M54,103.45c.78-.61.88-.88.76-2C54,102.08,53.85,102.35,54,103.45Z"/><path class="cls-1" d="M145.72,141a2.09,2.09,0,0,0-1-1.22c-.17-.09-.44,0-.35.27.17.49.06,1.16.71,1.38A.45.45,0,0,0,145.72,141Z"/><path class="cls-1" d="M150.54,142.05c.21.47.15,1.16.83,1.29.27,0,.54-.11.52-.51-.25-.45-.49-1-1.06-1.14A.25.25,0,0,0,150.54,142.05Z"/><path class="cls-1" d="M147.34,141.07h0a1.66,1.66,0,0,0,1,1.27,1.61,1.61,0,0,0-.68-1.84c-.37-.25-.44-.83-1-.93C146.48,140.25,147.21,140.52,147.34,141.07Z"/><path class="cls-1" d="M146.63,139.56h0v0h0v0Z"/><path class="cls-1" d="M150.37,141c.24,0,.28-.19.27-.4s0-.5-.34-.49a.38.38,0,0,0-.31.41A.43.43,0,0,0,150.37,141Z"/><path class="cls-1" d="M144.57,138.54c0-.18,0-.44-.28-.42a.37.37,0,0,0-.37.47c.05.22.18.48.46.43S144.51,138.71,144.57,138.54Z"/><path class="cls-1" d="M152.11,144.53v0h0v0Z"/><path class="cls-1" d="M152,143.9a.25.25,0,0,0-.35.18c-.06.34.11.49.44.45C152.27,144.3,152.36,144.06,152,143.9Z"/><path class="cls-1" d="M149.71,139.68c.26,0,.29-.2.37-.36s-.11-.24-.27-.25-.4,0-.35.29S149.51,139.67,149.71,139.68Z"/><path class="cls-1" d="M146.64,139.54c.15-.2.24-.4,0-.55s-.34-.07-.39.12C146.13,139.47,146.28,139.63,146.64,139.54Z"/><path class="cls-1" d="M144.05,137.4a.25.25,0,0,0-.24-.31c-.16,0-.31,0-.31.24s0,.32.24.33A.27.27,0,0,0,144.05,137.4Z"/><path class="cls-1" d="M145.64,142.07c-.06,0-.17.14-.18.22,0,.41.23.39.5.34C146,142.38,146,142.08,145.64,142.07Z"/><path class="cls-1" d="M146,142.65l0,0h0Z"/><path class="cls-1" d="M159,150.43q-4.61-14.1-8.52-28.4a14.39,14.39,0,0,1-.62-3.38,127.33,127.33,0,0,1,.62-14.08,20.23,20.23,0,0,0-.41-7.18q-1.45-5.2-3-10.36a12.91,12.91,0,0,1-.69-5.37c.4-3.34.84-6.67,1.5-10a30.56,30.56,0,0,0-.89-15.56,8,8,0,0,0-5.43-5.73c-4.54-1.52-9-3.27-13.76-4a15.1,15.1,0,0,1-4.34-1.54,100.43,100.43,0,0,1-10.84-6.36,22,22,0,0,0-8.27-3.7c-1.44-.25-2.89-.49-4.33-.72-2.38-.39-4.82-.49-7.08-1.4-3.08-1.25-6-2.76-9-4.31s-6-3.27-9.35-4a33.82,33.82,0,0,1-6.5-2.19C64.42,20.55,60.93,18.56,57,17.6A6.74,6.74,0,0,1,55,16.71c-2.65-1.69-5.75-2.09-8.69-3a3.43,3.43,0,0,0-1.06,0,24.6,24.6,0,0,1-3.54,0c-2.31-.34-4.61-.71-6.93-.93-5.3-.5-10.52-1.62-15.9-1.62a28.92,28.92,0,0,1-6.45-.72c-.87-.2-1.22-.64-1.07-1.5a7.65,7.65,0,0,0,.15-.94c0-.68.38-1,1.08-1a8.8,8.8,0,0,0,2.33-.38c.36-.09.76-.25.75-.66,0-1.58.54-3.12.28-4.72A1.17,1.17,0,0,0,14.66.21C13.58.13,12.46.46,11.4,0h-.47A4.88,4.88,0,0,1,7.75.92C5.46,1,3.13.55.91,1.44c-.32.12-.78.05-.9.43s.39.47.5.74c.19.51,1.75.64.45,1.57.52.94-.15,1.93.09,3,1.89-.78,3.68.53,5.47.1C7,13,6.4,18.69,6.21,24.4c-.15,4.42-.33,8.84-.7,13.25C5,43.52,5.39,49.42,5,55.3c-.49,7.53-.72,15.07-.76,22.62,0,5.41-.84,10.8-.79,16.21.08,8.11.36,16.2.1,24.31-.35,11.09-.62,22.19-.9,33.29-.2,8.3-.36,16.59-.56,24.89-.07,2.85-.09,2.93,2.79,2.52.78-.12,1.85.56,2.38-.6a7.67,7.67,0,0,0,.9-2.67,13.46,13.46,0,0,0,0-1.42c-.41-5-.85-9.92-1.24-14.88-.12-1.49-.29-3,.58-4.38a3,3,0,0,0,.26-2c-.43-3,0-6.08,0-9.11,0-.48-.12-1.06.3-1.47,2.46-2.38,3.15-5.58,4.07-8.68,1.29-4.39,2.17-8.88,3.09-13.36l.22-.48c-.38-.57-.17-.91.45-1s1.38-.29,2.08-.37c.25,0,.67-.3.76.17s-.3.6-.66.67a7.54,7.54,0,0,0-2.14.58c.19.25.5.11.74.22h0l1.7-.17c-.29,1.81-.29,1.81-2.19,2.57l.24.21c.9-.14,1.8-.25,2.7-.41,6.26-1.16,12.33-.83,18.1,2.18a22.18,22.18,0,0,0,4.89,1.78c9,2.28,18.13,2.38,27.31,1.76a18.42,18.42,0,0,1,7.79,1,52.61,52.61,0,0,1,11.12,6c5.89,4,11.91,7.44,19.09,8.73,5.91,1.06,11.76,2.09,17.74,1.11a22.3,22.3,0,0,1,17.35,4.13,13.29,13.29,0,0,0,4,2,49.53,49.53,0,0,0,13,1.81v-.48C159.21,151.91,159.22,151.15,159,150.43ZM149.23,137a11.36,11.36,0,0,1-2.77-.56,2.29,2.29,0,0,1-1.5-1l4.82,1.19,2.77.67a6.74,6.74,0,0,1-3,.29C149.13,137.65,149.25,137.28,149.23,137Zm2.75-1c0,.47-.5.16-.77.23a2.31,2.31,0,0,1-.59,0,3.81,3.81,0,0,1-2.52-.76,8.11,8.11,0,0,0-2.32-.76,10.27,10.27,0,0,1-1.37-.68c-.15-.09-.37-.19-.2-.45s.17-.35.43-.2c2,1.12,4.35,1.09,6.47,1.82a.94.94,0,0,0,.22.07A.67.67,0,0,1,152,136Zm-8.88-1.65c.57,0,.89.35,1.37,1C143.69,135.11,143.29,134.85,143.1,134.35Zm-1.18-.72-2.21-1.4a16.55,16.55,0,0,1-1.86-.7,19,19,0,0,0-7.49-1.74,8,8,0,0,1-1-.24l-1.66,0c-4.16.5-8.33,1.34-12.54.92a17.19,17.19,0,0,1-5.69-1.38c-.49-.18-1-.09-1.49-.41a1.7,1.7,0,0,1-1.17-.39c.64-.23,1.13.18,1.65.19a4.19,4.19,0,0,1,1.51.37,42.4,42.4,0,0,0,11.12,1c1.71-.13,3.41-.33,5.12-.49h0a3.19,3.19,0,0,1,1.5-.17A19.37,19.37,0,0,1,140,132a4.34,4.34,0,0,1,1.93,1.37h0c.53.14,1,.36,1.12,1-.54,0-.8-.4-1.14-.69Zm-36.42-6.81c-2.85-.06-5.22-1.39-7.63-2.62-1.23-.63-2.35-1.45-3.52-2.18-.33-.2-.76-.33-.5-1,2.67,1.65,5.27,3.34,8.28,4.13,5.68,1.49,11.38,3,17.33,3,2.72,0,5.43-.45,8.14-.72a20.63,20.63,0,0,1,15,4.54,2.64,2.64,0,0,1,1.07,1.28c-.7.18-1-.42-1.41-.75a17.46,17.46,0,0,0-7.78-3.59,25.33,25.33,0,0,0-8.16-.59c-3.61.44-7.26,1.24-10.95.74a24.77,24.77,0,0,1-5.41-1.19A14.15,14.15,0,0,0,105.5,126.82Zm1,1.35c-3.46.27-6.39-1.11-9.19-2.88a.75.75,0,0,1-.51-.37l-1.2-.72h0l-.89-.44c.53-.41.68,0,.93.18a2.93,2.93,0,0,1,1.17.71,1,1,0,0,1,.76.41A38,38,0,0,0,106.51,128.17ZM85.19,117.5h0v0a1.15,1.15,0,0,1-.93-.43l0,0h0v0c-.63-.08-.92-.6-1.29-1,.64.07,1.28.15,1.29,1h0c.51-.32.89-.34.93.43h0c.56-.29.86.19,1.23.45l.88.53a2.62,2.62,0,0,1,1,.65l.41.28,1.72,1.07-.17.28a5,5,0,0,1-1.82-1.1l-.44-.27a2.43,2.43,0,0,1-1-.66l-.88-.53c-.34-.21-.79-.25-.94-.7l0,0Zm1.38-2.36-.89-.53c-.51-.32-1.24-.38-1.55-1.44L86,114.36l.88.53c.85.49,1.78.87,2.2,1.91Zm3.35,3.78a56.39,56.39,0,0,1-5.64-3.47l.36-.5C86.4,116.29,88.62,117,89.92,118.92Zm.51-.24,2.27,1.53c.25.17.47.4.32.67s-.48,0-.66-.11C91.65,120.28,90.75,120,90.43,118.68ZM90,117.54l.18-.31a13.79,13.79,0,0,1,3,1.92,1,1,0,0,1,.68.62c-.43.11-.64-.2-.9-.39Zm2.7,4.7h0a1.07,1.07,0,0,1,1,.83,1.27,1.27,0,0,1-1-.81,2.52,2.52,0,0,1-1.55-.85C92,121.32,92.27,121.67,92.74,122.24Zm1.42-2.12c.65-.25.81,0,1,.4C94.69,120.63,94.54,120.34,94.16,120.12Zm2.93,1.65a1.31,1.31,0,0,1,.88.14,31.17,31.17,0,0,0,8.83,2.91c.25.06.57,0,.72.39a17,17,0,0,1-10.43-3.44h0v0a1.05,1.05,0,0,1-.73-.38,1.36,1.36,0,0,1-.81-.51c.43-.38.6,0,.85.21s.72.2.69.68h0Zm54.28,12.47c-.12.46-.59.15-.92.15-1.92,0-3.43-1.27-5.21-1.73a2.5,2.5,0,0,1-1.19-.68,2.21,2.21,0,0,1-.94-.74,1.71,1.71,0,0,1-.91-.72l-.75-.49-1-.66a58.14,58.14,0,0,0-5.57-2.28,21.82,21.82,0,0,0-4.31-.56,5.42,5.42,0,0,1-1.49-.31,47.26,47.26,0,0,1-5.94.49,25.09,25.09,0,0,1-12.44-.42,12.21,12.21,0,0,1-1.3-.53h0l-1.42-.3a1.69,1.69,0,0,1,1.7.06h0a55.11,55.11,0,0,0,8.09,1c1.54,0,3.08-.06,4.61-.09h.06a1.17,1.17,0,0,1,.46-.09,37.27,37.27,0,0,1,5.48-.55,19.53,19.53,0,0,1,12.33,3.29,2.12,2.12,0,0,1,1,.68,1.09,1.09,0,0,1,.65.5,1.54,1.54,0,0,1,.88.74,2.48,2.48,0,0,1,1,.68l1.26.68,5,1.17C151,133.66,151.5,133.72,151.37,134.24Zm-2.48-8.76c.6,2.25,1.26,4.48,1.94,6.7.18.59.08.77-.54.74a2.43,2.43,0,0,1-2-.67,1,1,0,0,0-.63-.3,9.69,9.69,0,0,1-5.09-2.6,17.87,17.87,0,0,0-8.06-3.81,25.34,25.34,0,0,0-8.07-.58c-3.53.4-7.09,1.22-10.7.8a26.22,26.22,0,0,1-5.43-1.14,20.12,20.12,0,0,0-5.18-1.1c-2.75-.19-5.12-1.48-7.48-2.76a.28.28,0,0,1-.09-.07c-1.41-.87-3.2-1.47-4.1-2.71s-.89-3.13-1.48-4.68c-.14-.38-.12-.87-.81-1.11.3,1.71.58,3.31.87,4.92a4.06,4.06,0,0,1-2.79-3.41,11.75,11.75,0,0,0-1.28-4.48c.29,1.83.22,3.68.57,5.63-1.46-.87-2.88-1.65-4.23-2.55-.54-.35-.36-1.17-.72-1.69-.39.09-.23.41-.28.66-.08.4-.26.27-.44.06a1.92,1.92,0,0,0-.49-.33c-2.72-.72-3.46-2.82-3.78-5.27-.17-1.28-.51-2.54-.58-4.06,1.51.76,2.91,1.44,4.29,2.16.8.42,1.59.86,2.36,1.34,1.27.8,2.82,1.33,2.8,3.39.55-.51.23-.91.42-1.2s2.34,1.26,2.83,2l.5,0c2.32,1.42,4.55,3,7,4.26,3.76,2,7.93,2.55,12,3.54a44.09,44.09,0,0,0,16.59.4,20.37,20.37,0,0,1,16.13,4.65,10.22,10.22,0,0,0,5,2.32C148.33,124.7,148.72,124.82,148.89,125.48ZM83.35,112.86c-.55.21-.68-.16-1-.49A1,1,0,0,1,83.35,112.86ZM71.08,123.58c-4.22.13-8.43.21-12.65.28-.3,0-.93.29-.9-.36s.63-.44,1-.42A96.86,96.86,0,0,0,71.08,123a13.82,13.82,0,0,1,7.78,2,1.49,1.49,0,0,1,.27.23,1.92,1.92,0,0,1,.09.3,5.53,5.53,0,0,1-2.08-.77A11.44,11.44,0,0,0,71.08,123.58ZM73.66,125H70.89A5.42,5.42,0,0,1,73.66,125Zm-19.35-8.14a1.87,1.87,0,0,0-1,2c0,.86-.33,1.16-1.14,1l-1.58-.09h0c-.4-.14-.33-.41-.24-.75.24-.91.46-1.83.65-2.75a4.41,4.41,0,0,0,.09-2.62c-.58,1.73-1.45,3.38-1.58,5.21-.06.81-.38.75-.89.76a32.2,32.2,0,0,1-11.31-3.18,24.32,24.32,0,0,0-6-2.17c-.56-.11-.91-.23-.62-1,.72-1.83,1.36-3.69,2-5.56.22-.67.54-.47,1-.33,2.52.79,4.79,2.18,7.31,3A58.16,58.16,0,0,0,54.57,113a4.36,4.36,0,0,0-.29,2.51,2.1,2.1,0,0,0,.63-2.49c.82.07,1.65.19,2.47.19.65,0,.83.19.72.83-.32,1.87-.64,3.74-.86,5.62-.09.73-.38.81-1,.72-.86-.13-1.72-.19-2.59-.28C53.67,119,54.51,118.09,54.31,116.89Zm-34.86-2.4-3.3.66c-.19-2.87,1.72-5,2.21-7.59.16-.84.9-.65,1.42-.72,1.64-.25,1.64-.22,1.31,1.39L20,113.67C19.91,114,19.91,114.4,19.45,114.49ZM19,116.1c-1,.19-2,.42-3.06.65-.13-.66,0-1,.69-1.12s1.47-.23,2.21-.33c.23,0,.56-.3.66.15S19.37,116,19,116.1Zm2.2-72.63c-.09-.34-.52-1.08.39-1.17,2.11-.23,2.81.17,3,2.05-.38,1-1.71.4-2.56.59C20.75,45.22,21.33,44,21.18,43.47ZM47.35,24.06c.19.13.37.33.61.2s.07-.43,0-.6c-.19-.38-.43-.73-.65-1.09,1.28.18,2.65.07,3.63,1.19a.42.42,0,0,0,.5.18c.61-.22.62-.21.76.5-.44.91.51,1.29.74,1.95l0,.26a.39.39,0,0,0,.15-.23c.24.09.54.26.33-.29a9,9,0,0,0-.92-1.42,3.29,3.29,0,0,0,2.36.12,2.27,2.27,0,0,1,2.43,1,4.25,4.25,0,0,0,1,1.16c.44-.36-.19-.69,0-1.12,2.16.76,4.56,1.15,5.24,3.92-.63.1-1.35.46-1.63-.6-.09-.35-.54-.3-.84-.24a7.83,7.83,0,0,1-3-.28,2.91,2.91,0,0,1-1.93-1.34c-.51-.94-1.16-.89-2-.66-.42.12-.85.5-1.25,0a26.67,26.67,0,0,0-7.84-1.78,9.45,9.45,0,0,1-4-1.5,2.64,2.64,0,0,0-1.15-.52,8.94,8.94,0,0,1-3.25-1c-.79-.31-1.24-.71-1.21-1.56,2.16.4,4.24,1.13,6.43,1.39.35,0,.56.09.61.52A1.62,1.62,0,0,0,44,23.76a1.73,1.73,0,0,0,1.93-1.23c.1-.28.19-.52.55-.44C46.88,22.7,46.66,23.57,47.35,24.06ZM79.67,47.29l.06-.09h0c-.17-1.07.28-.81.91-.48,5.69,3,11.2,6.3,17,9.13,3.94,1.94,8.2,3,12.32,4.48a40.67,40.67,0,0,0,11.51,2.41,45.34,45.34,0,0,0,6.59-.59,19.87,19.87,0,0,1,11,2.41c.32,0,.53.21.89.59l-.09-.19,1.79,1.25c-.79.16-1.28-.16-1.69-1-.57-.07-.9-.1-1.17-.38-2.38-.65-4.78-1.25-7.12-2.06a3.55,3.55,0,0,0-2-.06,45.88,45.88,0,0,1-5.84.72,28.15,28.15,0,0,1-7.78-.07,24.36,24.36,0,0,1-4.43-1.19c-2.86-1-5.77-1.79-8.69-2.61a12.11,12.11,0,0,1-2-.63,88.18,88.18,0,0,1-12.82-7,49,49,0,0,0-6.39-3.82,6.16,6.16,0,0,0-2-.67c0,.58.55.59.88.79,5.77,3.54,11.55,7.06,17.62,10.76a14.75,14.75,0,0,1-4.4-1.83C90.89,55.27,88,53.38,85,51.55a27.53,27.53,0,0,0-6-3h0c-.26.36-.68.37-1.06.49l-1.31.52c-.53.2-1.2.81-1.15-.47,0-.38-.24-.32-.57-.26a4,4,0,0,1-2-.14,2.45,2.45,0,0,0-2.36.16,1,1,0,0,1-1,0c-.16-.09-.45-.25-.51-.19C67.71,50,67.45,48.6,67,47.8c-.08-.14-.13-.3-.37-.28-.24.66-.21,1.93-1.36.54-.38-.45-1.06,0-1.56.18s-1,.32-1.25-.35c0,0,0-.06-.08-.09-.85-.88-2.14,0-2.62-.29-.86-.58-1.42-1.11-2.43-.49s-1.64-.34-2.39-.67c-.41-.18-.75-.64-1.25-.57-2,.29-3.88-.63-5.8-.93a5.56,5.56,0,0,1-3-1.76,1.47,1.47,0,0,0-.85-.6c-1.76-.25-3-1.57-4.53-2.22-.86-.37,0-.82-.11-1.3,1.49,1.36,3.55,1.24,5.14,2.29a5.75,5.75,0,0,0,2.87.59c2.64.2,5,1.39,7.54,2s4.86,1.36,7.3,2a69.43,69.43,0,0,0,9.42,1.26c1.59.17,3.38.28,4.81,1.38.44.34,1.07.21,1.62.24l1-.08h0l.61-1.28Zm20.7,8.24,1,.48.7.26.94.28.06,0c.29.19.9-.08.86.59h0l-.91-.44a1.1,1.1,0,0,1-1-.19l-.93-.32C100.76,56.11,100.22,56.18,100.37,55.53Zm4.28,1.65a1.37,1.37,0,0,1,1.19.37c.48,0,1-.08,1.16.58-.33-.28-.9-.07-1.14-.53l0,0a1.51,1.51,0,0,1-1.16-.4Zm34.64,6.18a3,3,0,0,1-1.24-.42c-2-.54-4-1-6-1.67a4.18,4.18,0,0,0-2.19-.24,45,45,0,0,1-6.65.78,21.72,21.72,0,0,1-10.14-1.57s-.07-.13-.11-.19a9,9,0,0,1,2.77.47,29.27,29.27,0,0,0,10.92.27,18.85,18.85,0,0,1,11.7,1.89C138.76,62.77,139.17,62.87,139.29,63.36Zm-28.51-4h0c-.26-.24-.71-.1-.92-.45C110.19,59,110.78,58.54,110.78,59.31Zm-1.39-.68a1.54,1.54,0,0,1-1.65-.48A4.49,4.49,0,0,1,109.39,58.63Zm18,31.75a12.54,12.54,0,0,1,4.57,0,18.7,18.7,0,0,1,8,2.7c.22.11.67.18.46.47s-.52-.08-.74-.27l-4.49-1.79c-1.46-.58-3-.27-4.53-.59a4.17,4.17,0,0,1-1.34-.32l-1.92,0c-1.15.52-2.37.26-3.56.27l-1,.19-.88.08a19.06,19.06,0,0,1-8.3.09c-1.36-.27-2.81-.32-4-1.19,4,.64,8,1.28,12,.88l1.18-.07a1.1,1.1,0,0,1,1-.18,20.9,20.9,0,0,1,3.54-.32Zm-1.7-.78c-3.2-.15-6.3.92-9.53.63A29.9,29.9,0,0,1,110.08,89a19.2,19.2,0,0,0-4.72-1c-2.84-.15-5.3-1.41-7.7-2.78C93,82.56,88.72,79.3,84,76.68a28.15,28.15,0,0,0-3.08-2c-.3-.13-.38-.38-.18-.75a28.86,28.86,0,0,1,3.8,2c3.76,2.18,7.28,4.72,10.92,7.09,4.06,2.65,8.64,3.7,13.27,4.74a41.18,41.18,0,0,0,16.32.81c.36-.06.72-.13,1,.23a.83.83,0,0,1,.18.53C126.19,89.65,125.92,89.61,125.73,89.6Zm-27.5-2.73h0v0a1,1,0,0,1-.92-.69c.47.11,1,0,.92.69h0l0,0a1.44,1.44,0,0,1,.87.07c2.41,1.24,5,1.68,7.63,2.34l1.33.23a1.21,1.21,0,0,1-1.32-.06,15.24,15.24,0,0,1-8.51-2.58Zm-7.85-5.18c-.52.23-.67-.12-.89-.44C90,81.08,90.15,81.35,90.38,81.69Zm-1.51-.93c-.15.31-.43,0-.62-.2h0l-.72-.45h0c-.3-.16-.66-.24-.84-.66.44-.21.63.14.89.32a1.26,1.26,0,0,1,.7.47C88.54,80.35,89,80.41,88.87,80.76ZM85.2,78.54s0,0,0,0c.42,0,.75.12,1.2.71-.61-.27-1-.31-1.2-.71h0a.05.05,0,0,0,0,0A3.64,3.64,0,0,1,83,77.07c1,.46,1.78.63,2.18,1.46h0l0,0ZM71.08,71.67a120.07,120.07,0,0,1-13.14.2c-4-.18-7.93-.78-11.89-1.19a14.61,14.61,0,0,1-3.51-.84.26.26,0,0,1-.1,0,20.93,20.93,0,0,1-4.54-1.66c-1.26-.57-2.51-1.15-3.79-1.64-.55-.2-.88-.52-.72-1s.67-.11,1,0a21.61,21.61,0,0,1,4.54,2.26,19.93,19.93,0,0,0,3.8,1.85,7.24,7.24,0,0,1,3.34.89c4.12-.61,8.17.41,12.26.58a95.29,95.29,0,0,0,12,0,16.09,16.09,0,0,1,9.37,2.3.67.67,0,0,1,.4.77c-.92-.4-1.83-.71-2.66-1.17A11.28,11.28,0,0,0,71.08,71.67ZM69.59,73c-.78.59-1.52.26-2.2.33H62.12v-.18h3.63l1.64,0h0A3.09,3.09,0,0,1,69.59,73Zm-8.94.08a7.6,7.6,0,0,1-3.73.06l-1.13-.07a1.32,1.32,0,0,1-1.13-.25,1,1,0,0,1,1.12.06l1.41,0Zm-7.49-.53a.3.3,0,0,1-.1.18.42.42,0,0,1-.6-.12H51.05a3.39,3.39,0,0,1-1.7-.17,19.56,19.56,0,0,1-8.1-1.94c2.85.61,5.68,1.26,8.56,1.69a2,2,0,0,1,1.47.2l1.15.06C52.69,72.4,53,72.33,53.16,72.54ZM77.8,84.12c.44-.12.75,0,1.2.68-.62-.2-1-.17-1.17-.65-.69.12-1.08-.46-1.61-.71a1.77,1.77,0,0,1,1.58.68l0,0Zm2.87,2.82a7.71,7.71,0,0,1,2,1.08l.65.34c3.68,2,7.08,4.42,10.55,6.74l1.85,1.24c7.35,4.11,15.4,5.48,23.65,5.86a56,56,0,0,0,8.14-.69,20.4,20.4,0,0,1,15.22,4.61,10.89,10.89,0,0,0,4.47,2.32c.3.06.74,0,.6.5s-.55.23-.81.16a7.89,7.89,0,0,1-3.36-1.67c-2.52-2.37-5.73-3.44-8.85-4.63a18.9,18.9,0,0,0-4-.5c-3.43-.5-6.79.21-10.17.59a24.06,24.06,0,0,1-11.06-1.26,9.51,9.51,0,0,0-3-.7c-4.27-.1-7.78-2.05-11.17-4.37h0c-3.3-1.73-6.23-4-9.4-6-1-.62-2.3-.88-3-2a.86.86,0,0,1-.69-.29,8,8,0,0,1-2-1.1c-.28-.17-.71-.11-.86-.5h0v0A1.44,1.44,0,0,1,80.67,86.94Zm-.87-1.68a1.57,1.57,0,0,1,1.38.42l.68.31c.2.12.68.13.49.43s-.49-.08-.7-.27a1.1,1.1,0,0,1-.71-.31Zm25.91,28.51A15.81,15.81,0,0,1,98,111.15c-3.4-2-6.66-4.23-10-6.36-.47-.31-1-.55-.93-1.33A22.35,22.35,0,0,1,90.9,106c5.95,4.65,12.83,6.88,20.15,8.27a53.09,53.09,0,0,0,16.26.11,20.11,20.11,0,0,1,15.07,4.35,10.84,10.84,0,0,0,5,2.58c.55.08.54.45.63.89a6.65,6.65,0,0,1-4.21-1.65c-2.59-2.35-5.79-3.51-8.95-4.72a21.38,21.38,0,0,0-3.25-.44c-3.32-.67-6.59-.1-9.84.36a25.21,25.21,0,0,1-12.33-1.19A11.82,11.82,0,0,0,105.71,113.77Zm3.05,1.91a3.45,3.45,0,0,1-1.94-.5A2.57,2.57,0,0,1,108.76,115.68Zm-2.05-.55c-3.61.32-6.61-1.25-9.49-3.15A44.06,44.06,0,0,0,106.71,115.13Zm-14.38-6a1.61,1.61,0,0,1-1-.83c.6-.09.91.3,1.25.61l.94.64h0a1.53,1.53,0,0,1,.93.76h0l0,0,0,0s0,0,0,0a1.28,1.28,0,0,1,1.12.67h.06s0,0,0,0a1.36,1.36,0,0,1,.93.47c-.41,0-.78,0-.93-.47h0l0,0c-.45-.09-.92-.15-1.12-.67h0l0,0a1.35,1.35,0,0,1-1-.47l-1.18-.71Zm-2.47-1.6-2.65-1.78A3.2,3.2,0,0,1,89.86,107.54Zm-20.1,12.81c-3.58.28-7.18.14-10.78.24-.72,0-1-.13-.83-.9.33-1.87.61-3.74.87-5.62.07-.51.2-.79.79-.74a93.57,93.57,0,0,0,11.48-.1,12.19,12.19,0,0,1,6.4,1.38c.36.2.65.34.68.84.14,2.2.33,4.4.51,6.7a6.05,6.05,0,0,1-1-.36A13.32,13.32,0,0,0,69.76,120.35Zm6.14,1.87a1.23,1.23,0,0,1-1-.14C75.25,122,75.59,121.84,75.9,122.22ZM74,121.73c0,.07,0,.18-.07.19-.31.09-.61.13-.73-.29C73.46,121.46,73.73,121.43,74,121.73Zm-1.26-.16a2.46,2.46,0,0,1-1.81,0Zm-2.46.14a8.88,8.88,0,0,1-3.32.25H63.36a25.34,25.34,0,0,1-5.5-.17h7.42l1.65,0h0A12.75,12.75,0,0,1,70.24,121.71ZM54.72,110.39a6.72,6.72,0,0,1-2.31-.46,3.92,3.92,0,0,1,2.31-.2c.2,0,.54-.06.51.29A.44.44,0,0,1,54.72,110.39Zm.12,1.33a2.16,2.16,0,0,1-1.18,0,1.21,1.21,0,0,1-.95-.17,1,1,0,0,1,1.21-.06h0C54.2,111.55,54.52,111.43,54.84,111.72Zm-.53-3.23-1.13-.06a1.42,1.42,0,0,1-1-.16,18.09,18.09,0,0,1-3.37-.25A28.83,28.83,0,0,1,38,105.26l-3.22-1.48c-.27-.12-.75-.15-.59-.56s.6-.12.87,0c2,.81,3.85,1.79,5.89,2.45a57.46,57.46,0,0,0,9.32,2.14l1.91.22a2.11,2.11,0,0,1,1.24.17l1.36.09c.37-.13.66.08,1,.22a6.2,6.2,0,0,1,3,.23,5.18,5.18,0,0,1-3,0A2.33,2.33,0,0,1,54.31,108.49Zm-30.4,5.38a27.61,27.61,0,0,0-3.44.34c.84-1.82.75-3.72,1.12-5.52.51-2.48-.14-2.11,2.43-2.38a16.56,16.56,0,0,1,3.3-.15c.44,0,.78.25.41.64-1.43,1.53-1.34,3.57-1.84,5.4C25.6,113.29,25.14,113.88,23.91,113.87Zm5.44.79c.18,0,.31.11.25.3s-.17.46-.47.44l-1.77-.09v0c-.47,0-.95,0-1.42,0-.23,0-.63.17-.65-.25a.56.56,0,0,1,.53-.55A19.81,19.81,0,0,1,29.35,114.66Zm-4.77-9.19a11.64,11.64,0,0,1-1.77.15c-.23,0-.61.21-.66-.2s.34-.45.65-.48a23.7,23.7,0,0,1,5.77-.15,22.91,22.91,0,0,1,3.58.71c.19,0,.49,0,.55.3-.08.49-.35.47-.7.35a12,12,0,0,0-3.35-.75A19.14,19.14,0,0,0,24.58,105.47Zm-.84-10.92c0-1.06.43-1.45,1.45-1.47a25.73,25.73,0,0,1,5.18.39c.59.11,1,.22.78.94a.54.54,0,0,0,.35.68c.33.09.49-.19.55-.47.12-.67.46-.63,1-.46,2.86.86,2.87.84,2,3.68-.34,1.13-.71,2.25-1,3.38-.15.53-.37.7-.93.49a8.79,8.79,0,0,0-1.94-.5,1.06,1.06,0,0,1-1-1.11,1.21,1.21,0,0,1-1.51.73,20,20,0,0,0-4.83-.06c-.35,0-.93.26-.68-.49A16.85,16.85,0,0,0,23.74,94.55Zm3.91-65.2a1.81,1.81,0,0,1-2.1-1.24c-.13-.53-.27-1.06-.43-1.68.75,0,1.28.33,1.89.18.32-.09.49.12.54.45s.22.55.17.8C27.63,28.37,28.43,29.06,27.65,29.35ZM31,27.66A13.94,13.94,0,0,1,35.4,29a5.54,5.54,0,0,0,1.39.63,2,2,0,0,1,2,1.81,7.54,7.54,0,0,1-4.29-1.3,2.63,2.63,0,0,0-2.18,0c-.38.1-.84.22-.65-.5A2.23,2.23,0,0,0,31,27.66Zm9.32,7.53a20.23,20.23,0,0,0,6.14,1.41c3.68.06,7,1.77,10.78,2.56a2.44,2.44,0,0,0-1.53,2.44c.06.83-.87.46-1,.33-1.31-1-2.92-.87-4.36-1.33-.58-.18-.58-.49-.62-.94a1.59,1.59,0,0,0-1.08-1.44,1.56,1.56,0,0,0-1.87.34c-.81,1.14-1.44.35-2.05-.11-.27-.2-.46-.62-.8-.65-2.26-.23-4-1.77-6-2.51S34.14,33.8,32.05,34a2,2,0,0,1-.58-.09c-1.88-.34-1.95-.42-2-2.48C33.27,32.29,36.72,34,40.33,35.19Zm3.53,23.57c2.19.69,4.27.3,6.39.55,4,.49,8.11.53,12.17.71a29.43,29.43,0,0,0,8-.35c.32-.08.8-.29,1,.07a1.46,1.46,0,0,1,0,1.14.82.82,0,0,1-1,.34c-.53-.22-1-.47-1.36.21a.33.33,0,0,1-.33.06c-.87-.72-2.07-.17-3-.77a.76.76,0,0,0-.88.06,8.91,8.91,0,0,1-2.43.81,3.1,3.1,0,0,1-2.57-.6c-.53-.38-1.21-.52-1.5-.14-.94,1.27-2.26.69-3.23.55a34.92,34.92,0,0,0-5.87-.07,8.55,8.55,0,0,1-3.9-1.1c-.34-.16-.64-.5-1-.5-1.38,0-2.4-.9-3.59-1.36a10.28,10.28,0,0,1-3.83-2.14c-.44-.44-1.11-.33-1.7-.33-2.22,0-2.46-.29-2.28-2.66a32.9,32.9,0,0,1,4.67,2.55A23.44,23.44,0,0,0,43.86,58.76Zm-3.25-5.11c2,.55,3.94,1.56,6.09,1.78.48,0,.77.16.92.69a1.57,1.57,0,0,0,1.26,1.12h.74c.36-.07.79-.19.91-.5.45-1.26,1.35-.92,2.27-.77a13.67,13.67,0,0,0,3.18.23c1.05-.09,1.22.61,1.39,1.24s-.44.82-.91.69c-2.25-.6-4.58-.4-6.85-.69-.24.31-.48.14-.71,0-1.54.43-2.76-.53-4-1.12a7.46,7.46,0,0,0-2-.77A2.47,2.47,0,0,1,40.61,53.65Zm19.24,4.42a1.87,1.87,0,0,1,2.56-1.24,12.33,12.33,0,0,0,2.86.09A5.17,5.17,0,0,1,59.85,58.07ZM97.3,71l.87.39c-.49.16-.69,0-.86-.17a16.25,16.25,0,0,1-4.78-2.53c-3.42-2.33-6.78-4.75-10.33-6.9a3.93,3.93,0,0,0-4.09-.28c-.71.34-1.44.61-2.18.92-.45-.33.33-1.73-1-1.09.18-1.29.18-1.29,1.28-.65,1.67.95,3,.3,3.22-1.71.11-1.34.49-1.13,1.33-.57q7.8,5.24,15.64,10.43a1.4,1.4,0,0,1,.89.63,1.47,1.47,0,0,1-1.14-.38c-2.31-1-4.21-2.59-6.27-4-2.69-1.79-5.29-3.72-8.14-5.26a2.2,2.2,0,0,0-1.8-.45Zm0,1.78a1,1,0,0,1-1-.54C96.86,72.24,97.15,72.31,97.29,72.76ZM79.75,61.12c5.75,3.47,11,7.24,16.56,10.93a2.46,2.46,0,0,1-2-.64c-3-2-6.08-4.11-9.13-6.16a24.88,24.88,0,0,0-5-2.83C79.44,62.14,80,61.68,79.75,61.12Zm-4.26-1.85c0-1-.4-1.3-1.36-1.16a4.23,4.23,0,0,1-1.73-.29c-.36-.09-.8-.29-1-.07-.82.83-1.8.12-2.69.37-.42.12-.24-.75-.6-1.06,3.42-1.05,6.57-.35,9.88,1.09ZM39.06,61.51c-.49,0-.78-.32-1.1-.62a4.78,4.78,0,0,0-4.33-1.57c-.37.07-.5-.12-.52-.45s0-.93-.06-1.52a35.66,35.66,0,0,1,6.82,3.91c1.16.14,2,1.17,3.17,1.21.27,0,.18.3.15.48s-.3.35-.54.23a11.2,11.2,0,0,1-1.13-.62A8,8,0,0,0,39.06,61.51Zm.75,3.41c-.44.17-.73.18-1-.08-.61-.13-.92-.58-1.43-1.28a5,5,0,0,1,1.76,1Zm-3.15-1.75a.83.83,0,0,1-.34-.05c-.86-.09-1.78.24-2.58-.37a2.55,2.55,0,0,1,1.16-.08c.68-.52,1.24-.13,1.8.26A.13.13,0,0,1,36.66,63.17Zm25,21.13H66l3.7-.09a8.07,8.07,0,0,1,3.56,0,4.21,4.21,0,0,1-2.3.24l-1.58.08a65.06,65.06,0,0,1-8.14.16c-3.94.33-7.78-.69-11.68-.83a29.53,29.53,0,0,1-8.67-1.71,5.1,5.1,0,0,0-.55-.19.52.52,0,0,1-.42-.79c.17-.44.47-.11.68,0a50,50,0,0,0,6.27,1.7A105.35,105.35,0,0,0,61.69,84.3Zm-21.4-1.66c7.22,2.68,14.79,3,22.35,3.32h2.64L69,85.87a6,6,0,0,1,2.23-.15h1.15a1,1,0,0,1,1.13.43h-3l-1.54.08h0a70.31,70.31,0,0,1-7.95.13,31.09,31.09,0,0,1-7-.43c-3.35-.47-6.78-.29-10.08-1.21-1.32-.37-2.63-.8-3.94-1.22-.35-.1-.54-.32-.41-.71S40.08,82.56,40.29,82.64Zm-.69-2.89c-.23.52-.63,0-.87-.07A33,33,0,0,0,31,76.79a30.68,30.68,0,0,0-4.58-.49c-.35,0-1,.33-1-.43s.65-.34,1-.42a2.43,2.43,0,0,1,.71,0,24.7,24.7,0,0,1,10.16,2.8c.53.27,1.06.52,1.61.74C39.31,79.15,39.84,79.2,39.6,79.75ZM26.12,77a21,21,0,0,1,9.25,2c1.35.3,2.45,1.21,3.75,1.62.31.1.31.3.27.55a.28.28,0,0,1-.43.22c-1.23-.64-2.69-.89-3.58-2.11-.22.55-.61.23-.88.12a25.81,25.81,0,0,0-8.34-1.55c-.29,0-.78.22-.79-.39S25.78,77,26.12,77Zm13,5.54c0,.49-.16.54-.5.38-1.06-.51-2.12-1-3.19-1.49-.21-.09-.32-.19-.18-.42s.18-.41.41-.3c1.14.51,2.26,1,3.38,1.6C39.13,82.35,39.13,82.52,39.14,82.55ZM25,71h-.06c0,1,0,2,0,3,0,.61-.15.77-.78.81-2.08.11-2.09.15-2.08-2,0-1.46.07-2.92,0-4.38,0-.75.29-.93.94-1,2.12-.26,2.11-.27,2,1.81C25,69.83,25,70.42,25,71Zm-.14-17.21c-.77.24-1.81.67-2.35.35s-.61-1.58-.57-2.4c0-.6.76-.18,1.17-.25s.56.05.82,0c1-.27,1.43.13,1.19,1.19C25,53.05,25.39,53.65,24.85,53.81Zm.34,2.94c-.11,1.68-1.5.76-2.23,1.15s-.54-.35-.52-.71c.06-.92-.23-2.22,1.42-1.49C24.88,55.42,25.26,55.71,25.19,56.75Zm-2.56,7.5L24.5,64c.36,0,.71-.11.68.47,0,.41-.06.68-.56.67a6.69,6.69,0,0,0-.85.06c-.57,0-.8,0-1,.07s-.61,0-.62-.45S22.23,64.28,22.63,64.25Zm-.38-1.13c0-.91,1-.17,1.57-.38.4.39,1.23-.4,1.25.23s-.89.36-1.36.35S22.22,63.8,22.25,63.12Zm0,14.25L24,77.11c.37,0,.78-.15.78.39s-.3.49-.63.51c-.59,0-1.18.08-1.77.14-.24,0-.5.1-.51-.26S22,77.41,22.26,77.37Zm2.16-1-2,.17a.32.32,0,0,1-.39-.33c0-.26.06-.46.37-.49.63,0,1.25-.13,2-.21.15,0,.48-.11.51.32A.47.47,0,0,1,24.42,76.38Zm.55-9.9a8.4,8.4,0,0,1-2.83,0,5.05,5.05,0,0,1,2.68-.58c.16,0,.32,0,.35.21S25.16,66.47,25,66.48ZM24.51,61a4,4,0,0,0-.8.17c-1.51.32-1.56.26-1.4-1.27.14-1.26,1.08-.21,1.43-.54.73.07,1.67-.37,1.45,1C25.11,60.85,25,61,24.51,61Zm.64-18.3c0-.82.61-.34.88-.49,1.53.06,2,.72,2,2.45,0,.45-.21.4-.51.38C25.67,44.93,25.11,44.35,25.15,42.73ZM30.78,46c-2.23-.56-2.34-.72-2.45-2.67,0-.61.16-.65.64-.56C30.45,43.05,30.88,43.8,30.78,46Zm-.6-10.9,6.21,2.19c-.58,1.08-1.86,1.43-3.61,1C30.48,37.82,30.32,37.63,30.18,35.1Zm-.07,6.46c-.82-.7-2.51,0-2.3-1.75.05-.42.37-1.1,1-1C29.92,38.86,30.17,39.43,30.11,41.56Zm-3.29-6.2c-.09-.59.07-.8.67-.69,1.73.3,1.73.09,1.92,2.65C28.3,36.86,27.06,36.82,26.82,35.36Zm8,45.34c-.2.63-.65.24-1,.14a24.74,24.74,0,0,0-7.67-1.3c-.31,0-.88.32-.89-.39s.53-.46.88-.5a7.37,7.37,0,0,1,.94,0,22.84,22.84,0,0,1,7,1.46C34.4,80.19,35,80.12,34.8,80.7ZM26,46.48c1.53-.43,2.34.54,2.48,2.44-.16.26.45,1.09-.35.85s-2.25.65-2.45-.86C25.59,48.13,25,46.77,26,46.48Zm1.39,5c-.44.47-.95.84-1.08,1.48v.77A2.31,2.31,0,0,1,25.92,52C25.87,50.31,26.88,51.6,27.41,51.44Zm-.19,3.92c1.87.25,2.05.43,2,1.86a3.37,3.37,0,0,1-.05.43,18,18,0,0,1-2.76-.14c-.56-.1-.17-.74-.27-1.08C25.69,55.19,26.47,55.26,27.22,55.36Zm-.45,9.81c-.46,0-.72-.08-.72-.64s.36-.6.78-.58c.62,0,1.25.11,1.88.11s.75.17.75.75c0,.73-.48.43-.81.45a5.64,5.64,0,0,1-.82-.05v0C27.48,65.17,27.13,65.15,26.77,65.17Zm2.66-1.85a13.6,13.6,0,0,1-2.85-.1c-.21,0-.5,0-.5-.36s.27-.45.56-.41c.95.15,1.9.33,2.85.49Zm-.09-2.09A7.7,7.7,0,0,0,26.88,61c-.74.07-.79-.29-.83-.89-.07-.86.26-1.13,1.06-1a3.75,3.75,0,0,0,.79.18C29.2,59.25,29.64,59.89,29.34,61.23ZM26,66.16c0-.36.38-.33.66-.33h.54l1.94.16a.4.4,0,0,1,.4.36c0,.31-.22.36-.48.34-.79-.06-1.58-.1-2.36-.18C26.43,66.48,26,66.68,26,66.16ZM29.19,47.3c2.26.72,2.26.72,2.33,3.5C29.2,50.06,29.2,50.06,29.19,47.3ZM32,54.9C29.91,55,29.8,53.49,29.64,52,31.94,52.24,32.11,52.43,32,54.9Zm-2.28,2.33,0-1.27s.06-.05.08,0,.06,0,.09.07a2.24,2.24,0,0,0,.54.21c1.9.18,1.87.38,1.87,2.7L30,58C29.62,57.89,29.72,57.53,29.71,57.23Zm.23,2.62c3.2.52,2.62,1.07,2.65,2.52C29.8,61.52,29.8,61.52,29.94,59.85ZM32.54,66c-.69-.18-1.38-.32-2.07-.49-.53-.13-.45-.62-.4-1s.44-.21.68-.15c.58.13,1.15.3,1.72.43a.63.63,0,0,1,.56.75C33.07,66,32.91,66.08,32.54,66Zm-2.6.36a.3.3,0,0,1,.27-.13,8.09,8.09,0,0,1,3,.91l-.1.33c-1-.22-2-.43-2.92-.66A.36.36,0,0,1,29.94,66.35ZM45.79,67h1.93c5-.22,9.94,0,14.9.07,1.42,0,2.82-.16,4.24-.15A2,2,0,0,1,69,68.19c-.84.19-.86.22-1.55-.16a.56.56,0,0,0-.73.06c-.12.1-.32.27-.39.24-1.85-1-3.64.58-5.48.11-.36-.09-.75,0-1.08-.33a1.08,1.08,0,0,0-1.5-.09,2,2,0,0,1-1.79.28c-3.13-.48-6.29-.62-9.43-.92a1.74,1.74,0,0,1-1.22-.24L43,66.55A3.27,3.27,0,0,1,45.79,67Zm.82-3.07c0-.41.16-.64.63-.66a33.62,33.62,0,0,1,5.31-.11c1.2.16.29,1.29,1,1.77-1.84.35-3.56-.14-5.21.35C48,64.47,46.49,65.26,46.61,63.9Zm14.28,1.52c-1.34-1.13-2.52-1.28-3.68-.1-.15.15-.81.14-.73-.73.15-1.55,1-1.64,2.15-1.43a3.36,3.36,0,0,0,.71,0c.86,0,1.7,0,1.41,1.27A3.37,3.37,0,0,0,60.89,65.42ZM36.69,52.21a1.7,1.7,0,0,0-1.41-.51c-3.5-.11-2.57-.28-3-3.08a28.5,28.5,0,0,1,6.25,3.71C37.91,52.79,37.29,53,36.69,52.21Zm-4.87-10a3.66,3.66,0,0,1-.93-2.35c.18-.39.56-.24.81-.13a40.09,40.09,0,0,1,6.4,3,29.15,29.15,0,0,0,4.34,2.46c-.58,1.17-1.21.78-2.18.34a11.91,11.91,0,0,1-3.66-2.23A2,2,0,0,0,35,42.92,7.36,7.36,0,0,1,31.82,42.17ZM30.45,27.51h-1c-.31-.05-.56.51-.89.11a.47.47,0,0,1-.05-.43c.17-.35.46-.08.69-.09l1.3.29ZM28.72,32.9c-.07.49-.37.25-.58.27-1.47-.17-2-.73-2-2,0-.69.48-.37.75-.34A1.8,1.8,0,0,1,28.72,32.9ZM26.41,25c-.57-.12-1.36.06-1.65-.43A11.65,11.65,0,0,1,24,22.1a.36.36,0,0,1,.09-.31c.62-.33,1.26.16,1.92,0,.38-.12.45.34.52.64.2.84.38,1.68.62,2.72Zm-1.72,3.41a.63.63,0,0,1-.1.42c-.32.31-2.28-.27-2.44-.7l-.06-.23c-.15-.6-.31-1.2-.51-2l1.2.18C24.35,26.36,24.71,26.8,24.69,28.38ZM22.8,30.61c.09-.35.34-.25.54-.27,1.52-.1,1.84.24,2.18,2.36a2.36,2.36,0,0,1-1.15,0A1.81,1.81,0,0,1,22.8,30.61Zm1.77,3.73c1.22,0,1.71.5,1.68,1.66,0,.75-.63.48-.95.55-1.29,0-1.57-.39-1.6-1.65C23.69,34.14,24.19,34.33,24.57,34.34Zm-.19,4.15c0-.16,0-.32.19-.37s.36.18.43.4a1.76,1.76,0,0,0,1.7,1.37c.4,0,.6.15.58.54,0,.57-.45.26-.71.28s-.31,0-.23,0C24.84,40.56,24.27,39.83,24.38,38.49Zm.54,9.91c.45,1.23-.45,1.32-1.48,1.46-1.76.23-1.76.28-1.88-1.48-.13-1.94-.13-1.94,1.71-1.87C24.83,46.57,24.83,46.57,24.92,48.4ZM22.2,79l2-.23c.22,0,.48-.07.51.28s-.06.54-.42.57-.94.08-1.41.13h0a5.67,5.67,0,0,0-.58,0c-.27,0-.47,0-.46-.32S21.89,79,22.2,79Zm2.51,7.59c.21-1.84.31-3.69.44-5.54,0-.41,0-.8.59-.8a20.48,20.48,0,0,1,9.12,1.87h0c1.38.26,2.5,1.14,3.77,1.64.41.16.22.43.16.68-.41,1.69-.84,3.37-1.2,5.06-.13.65-.31.78-.92.47-.76-.39-1.58-.69-2.39-1-.48-.19-1-.31-.59-1,.08-.14.21-.4,0-.53a.39.39,0,0,0-.57.25c-.18.89-.73.69-1.32.54a21,21,0,0,0-6.11-.64C25,87.58,24.61,87.47,24.71,86.6ZM75.77,97.46c.36.09.81.12.81.83-3-1.42-6.06-.64-9.1-.73-3.51-.1-7,.51-10.52,0-4.5-.68-9.1-.45-13.53-1.66a31.33,31.33,0,0,1-5.54-2c-.3-.15-.72-.22-.52-.75s.58-.15.83,0A55.44,55.44,0,0,0,53.71,96.6a110.73,110.73,0,0,0,17.75.26A13.41,13.41,0,0,1,75.77,97.46Zm-2.23-1.95a3.23,3.23,0,0,1,1.89.41A3.18,3.18,0,0,1,73.54,95.51ZM76.38,85c.43,0,.73.1.74.58A.72.72,0,0,1,76.38,85ZM78.3,87.4l1.3.59a1.79,1.79,0,0,1-1.6-.36,3.73,3.73,0,0,1-1.57-.89A4.24,4.24,0,0,1,78.3,87.4Zm-.65,21.21c-4.27-2.43-8.71-1-13-1.16-1.33-.06-2.67,0-4,.07-.67,0-.56-.32-.5-.74.2-1.24.4-2.49.56-3.74a2.63,2.63,0,0,0-.33-2.25c-.42,2-.94,3.85-1.18,5.75-.2,1.58-1.19.82-1.91.86-1.09.07-.77-.66-.65-1.26a.32.32,0,0,0-.13-.41s-.16,0-.17.06c-.23,2.09-1.77,1.14-2.85,1.23.21-.73.8-1.43.26-2.32a1.82,1.82,0,0,0-.72,1.57c0,.6-.4.55-.78.57-4.31-.24-8.59-.69-12.61-2.41-1.52-.64-3-1.39-4.53-2-.55-.23-.52-.56-.34-.92a55.12,55.12,0,0,0,1.75-5.27c.15-.39.19-.61.7-.38a49,49,0,0,0,16.35,4,96.68,96.68,0,0,0,16.23.35,18.61,18.61,0,0,1,5.76.43c.94.23,1.51.59,1.56,1.69C77.19,104.36,77.44,106.39,77.65,108.61Zm-.39-12.1.92.41C77.85,97.11,77.58,97.15,77.26,96.51ZM75,108.94h0a1.09,1.09,0,0,1,1.22.38A1.52,1.52,0,0,1,75,109h0a1.89,1.89,0,0,1-1.61-.4,2.49,2.49,0,0,1,1.61.4Zm-2.55-.4a2.22,2.22,0,0,1-1.43.1C71.53,108.28,72,108.58,72.45,108.54Zm-1.76-.13a3,3,0,0,1-1.87.48H59.91v-.18H66l1.64,0C68.51,108.35,69.44,108.6,70.69,108.41Zm-10.76,3.4a62.94,62.94,0,0,0,6.3.2,3.85,3.85,0,0,1,2.15-.18h1.54c-.18.41-.54.18-.8.25a8.19,8.19,0,0,1-2.92.15H61c-.55,0-1.15.32-1.64-.21C59.45,111.71,59.71,111.79,59.93,111.81ZM35.65,94.33c-.92-.35-1.85-.69-2.78-1-.25-.09-.42-.17-.37-.47s.2-.3.43-.27l3,1.16c.23.1.42.25.25.54S35.84,94.41,35.65,94.33ZM53,98.46h0c.39-.1.78-.35,1.17,0,.29,0,.61-.11.92.2a2.22,2.22,0,0,1-1.17,0c-.33,0-.7.17-.92-.23h0a2.66,2.66,0,0,1-1.19,0,32.47,32.47,0,0,1-14.17-3.22c-.28-.14-.7-.22-.52-.63s.46,0,.68,0a48.24,48.24,0,0,0,13,3.39,1.9,1.9,0,0,1,1,.24c.41,0,.84-.17,1.19.2h0l0,0Zm2.82.33h4.7l7.18,0h0c.61,0,1.25-.26,1.82.18-.63.49-1.36.22-2,.23-2.23.06-4.47,0-6.71,0A15.26,15.26,0,0,1,55.79,98.79Zm14.73-.16a4.27,4.27,0,0,1,2.34.11h1.41a2,2,0,0,1-1.39.2A3.76,3.76,0,0,1,70.52,98.63Zm.43-3-1.37.06a57.92,57.92,0,0,1-8.12.18,34.35,34.35,0,0,1-8-.49,1.48,1.48,0,0,1-1-.17L51,95.13A4.43,4.43,0,0,1,49.3,95h0a28.92,28.92,0,0,1-11-2.7c-.27-.12-.67-.22-.47-.65s.48-.06.69,0a54.91,54.91,0,0,0,12,3c.21,0,.49,0,.58.26l2.12,0a3.12,3.12,0,0,1,1.48.18l5.4.3h8.34L71,95.38a3.5,3.5,0,0,1,1.84-.08v.32ZM25.2,88.29c.55,0,1.1,0,1.66,0a23.13,23.13,0,0,1,9.54,2.34c.3.14.93.21.64.75s-.68,0-1-.15a24,24,0,0,0-10.78-2.11c-.3,0-.79.23-.83-.35S24.86,88.3,25.2,88.29Zm-.11,1.58a17.49,17.49,0,0,1,7,.81,16.81,16.81,0,0,1,4.23,1.45c.27.11.58.21.38.68s-.44.29-.73.18c-.88-.34-1.75-.7-2.65-1a.86.86,0,0,1-.69-.79c-.1-.63-.34-.07-.52,0,0,.45-.24.36-.54.29a24.91,24.91,0,0,0-6.44-.6c-.32,0-.84.25-.84-.45S24.73,89.89,25.09,89.87Zm-.32,1.78h1.77a16.13,16.13,0,0,1,4.43.46c.27.06.72,0,.67.46s-.43.32-.73.26a29,29,0,0,0-6.1-.47c-.23,0-.61.15-.62-.29S24.48,91.65,24.77,91.65Zm-1.51,9.94a19.26,19.26,0,0,1,5.52,0c.2,0,.62-.14.5.39-.09.37-.32.38-.62.37-.86-.06-1.72-.09-2.58-.14s-1.81.1-2.71.13c-.24,0-.61.16-.59-.31C22.78,101.69,23,101.62,23.26,101.59Zm.08,1.49a21.2,21.2,0,0,1,5.57,0c0,.73-.2,1-1,1a24.87,24.87,0,0,0-5.52.18C22.27,103.35,22.72,103.14,23.34,103.08Zm9.2,1.75c-.82-.22-1.67-.37-2.5-.59-.23-.06-.74.15-.58-.44.12-.42.34-.71.85-.58.83.23,1.65.47,2.48.68.34.08.45.22.31.57S32.93,104.94,32.54,104.83Zm.25-1.73c-.72-.17-1.46-.34-2.18-.53-.21-.06-.63.13-.56-.37s.38-.43.72-.38c.76.22,1.51.45,2.27.65.29.08.56.17.43.54S33,103.16,32.79,103.1Zm.46,3c.19-.6.61-.1.85,0,2.18.68,4.13,1.91,6.32,2.63a52.61,52.61,0,0,0,10.35,2.36c.29,0,.64,0,.87.37a32,32,0,0,1-13.71-3,38.43,38.43,0,0,0-4-1.75C33.66,106.64,33.07,106.69,33.25,106.14ZM51.11,110A31.71,31.71,0,0,1,37,106.56c-.91-.45-1.87-.8-2.81-1.21-.33-.14-.82-.17-.56-.78s.62-.2.88-.1c2.3.91,4.48,2.07,6.87,2.82a56.31,56.31,0,0,0,10,2.13c.23,0,.64-.09.58.36S51.61,110.07,51.11,110Zm7.43.43c-.08.88-1,.14-1.57.24a1.49,1.49,0,0,1-.47,0c-.29-.05-.71.09-.71-.39s.51-.27.79-.34a2.18,2.18,0,0,1,.52,0C57.54,110.17,58.62,109.53,58.54,110.41ZM58.37,112c-1.06.44-2.07-.07-3.1-.14A5.14,5.14,0,0,1,58.37,112Zm11.93-.08a2,2,0,0,1,1.46,0A2.06,2.06,0,0,1,70.3,111.92Zm6.13.78c-.4-.13-.88,0-1.17-.44h0l0,0c-.4,0-.82.14-1.16-.2h0v0H72.53c.5-.17,1-.45,1.49,0h0l0,0c.4,0,.84-.21,1.16.2h0a1.5,1.5,0,0,1,1.15.31c.32.08.69.06.87.5a.71.71,0,0,1-.85-.37l0-.13A.2.2,0,0,0,76.43,112.7Zm-2.93-2.15c-2.41-.22-4.8.19-7.21.15-2,0-4,.08-6,.1-.27,0-.7.16-.67-.38s.37-.32.64-.31c4,.17,8-.07,12.05-.16a10.45,10.45,0,0,1,4.91,1.14c.34.18.76.27.87,1A13.27,13.27,0,0,0,73.5,110.55Zm4.09-12.12a6.93,6.93,0,0,1,3.34,1.81C79.84,99.61,78.46,99.44,77.59,98.43Zm.35-2.83c-.35-.15-.75-.25-.79-.77-.18-2.15-.37-4.3-.58-6.66,2.18,1.1,4.17,2.13,6.17,3.1.75.36.53,1.08.74,1.64s.18,1.69.92,1.53.08-1.06.08-1.64v-.47a50.17,50.17,0,0,1,6.22,4c6.41,5.11,13.93,7.31,21.84,8.66a49.91,49.91,0,0,0,14.39-.12,20.64,20.64,0,0,1,15.89,4.66,9.06,9.06,0,0,0,4,2.12c.51.1.82.28.73.93a30.62,30.62,0,0,0-.16,5.33c0,.78-.2,1-1,.71a9.22,9.22,0,0,1-3.18-1.78c-2.43-2.3-5.57-3.26-8.57-4.4-1.3-.49-2.87-.33-4.31-.55-3-.46-5.95.13-8.89.52a25.22,25.22,0,0,1-12.09-1.2,10.94,10.94,0,0,0-3.69-.75c-2.94,0-5.46-1.25-7.86-2.66-3.6-2.12-7-4.48-10.58-6.73a3.66,3.66,0,0,1-2-2.26c-.17.61-.15.92-.71.67-1.08-.51-1.9-1.4-3-2C80.46,96.81,79.23,96.14,77.94,95.6Zm2.48-6.77.16-.26a6.67,6.67,0,0,1,2.31,1.29l-.16.27Zm3.41,1.48c3.84,2.13,7.32,4.61,10.86,7l2.7,1.6c6.77,3.21,14,4.45,21.41,4.95,2.75.18,5.51-.43,8.25-.72a20.81,20.81,0,0,1,15.79,4.7A10.17,10.17,0,0,0,147,110c.24.06.77-.07.65.46s-.57.25-.86.17a6.7,6.7,0,0,1-3.05-1.51c-2.56-2.38-5.79-3.5-8.95-4.7A19.76,19.76,0,0,0,131,104c-3.52-.56-6.95.19-10.41.58a24.06,24.06,0,0,1-11.06-1.3,21.63,21.63,0,0,0-4.75-.87,16.5,16.5,0,0,1-7.66-3.16l-2.69-1.61c-2.61-1.39-4.91-3.26-7.44-4.77-.77-.46-1.53-1-2.32-1.39A1.22,1.22,0,0,1,83.83,90.31Zm59.56,27.63a9.56,9.56,0,0,0,3.59,1.65c.32.07.72.15.58.55s-.53.16-.8.08a8.73,8.73,0,0,1-3.65-2L141.63,117a32.55,32.55,0,0,0-6.77-3c-1.24-.48-2.72-.33-4.07-.56-3-.52-5.86,0-8.76.43a25.36,25.36,0,0,1-13.33-1.42c-3.2-.51-6.47-.68-9.39-2.33a9.73,9.73,0,0,1-2-1.22,2.48,2.48,0,0,1-1-.65,3.06,3.06,0,0,1-1.25-.71,29.16,29.16,0,0,1-4.91-3.2l.22-.33,5,3.3a2.52,2.52,0,0,1,1,.62,3,3,0,0,1,1.26.7c3.49,1.94,7.42,2.52,11.2,3.54a.35.35,0,0,1,.17,0c2,.32,4,.67,6,1a38.38,38.38,0,0,0,10.86-.35c5.87-.77,11.31.28,16.1,3.93h0A4.91,4.91,0,0,1,143.39,117.94Zm-58-13.73a2,2,0,0,1,1.09.85c-.68,0-1-.35-1.38-.59-1.51-.68-1.51-.68-2.24-1.66A10.15,10.15,0,0,1,85.43,104.21Zm-3.3-3.54c1.47.7,3.05,1.23,4,2.67A7.79,7.79,0,0,1,82.13,100.67Zm3.31.68a6.38,6.38,0,0,1-2.37-1.45c-.34-.21-.76-.32-.94-.85a2,2,0,0,1,1.24.6A5.71,5.71,0,0,1,85.48,101a13.1,13.1,0,0,1,4,2.58l-.18.29Zm62.41,6c-.09.3-.41.18-.61.14a7,7,0,0,1-3.19-1.4,3.77,3.77,0,0,1-1.23-.94l-1.91-1.41a46.8,46.8,0,0,0-6.08-2.55c-1.28-.48-2.79-.32-4.18-.57a22,22,0,0,0-4.66.08c-3.49.08-6.92,1.1-10.44.65a31.31,31.31,0,0,1-7.08-1.73c-1.23-.22-2.48-.36-3.72-.51a17.18,17.18,0,0,1-7.44-3h0c-.34-.2-.77-.28-.94-.7.54-.25.88.15,1.26.41,3.34,1.83,7,2.56,10.69,3.38a2.57,2.57,0,0,1,.47.15l.19.07c1.94.32,3.88.66,5.83,1A40.51,40.51,0,0,0,126,100a20.75,20.75,0,0,1,15.18,3.44,7.42,7.42,0,0,1,1.91,1.42l1.25.92a11.61,11.61,0,0,0,3,1.05C147.59,106.91,148,107,147.85,107.36ZM82.61,86.59c.21-.28.53,0,.75.25a16.2,16.2,0,0,1,2.79,1.69h0A33.79,33.79,0,0,1,90.9,91.6a5.94,5.94,0,0,1,2.15,1.63,5.22,5.22,0,0,1,1.88,1c.48.36,1.29.34,1.41,1.16a3.92,3.92,0,0,1-1.7-.92L93,93.57,90.6,91.88,85.85,88.8a9.8,9.8,0,0,1-2.78-1.7C82.85,87,82.41,86.86,82.61,86.59Zm-3.09,0v0a1.91,1.91,0,0,1-1-.41c-.39-.16-.9-.14-1.14-.74.61,0,1,.34,1.42.51a.93.93,0,0,1,.74.64h0ZM76.23,94.8c-3.37-1.42-6.67-.54-9.92-.53a115.85,115.85,0,0,1-14.54-.59c-3.56-.43-7.15-.57-10.57-1.82a8.2,8.2,0,0,1-2.7-1.13c-.8-.72.19-1.71.22-2.62.05-1.09.31-2.18.46-3.27.09-.63.24-.87,1-.61,9.66,3.33,19.66,3.57,29.72,3.17a17.2,17.2,0,0,1,5.06.32c.43.12.72.25.73.74C75.71,90.51,76,92.55,76.23,94.8ZM74,86.09c.65-.31,1,.12,1.47.24A1.85,1.85,0,0,1,74,86.09Zm-.12-1.71c.53-.21.91.1,1.33.25A1.34,1.34,0,0,1,73.83,84.38ZM74.39,83a.51.51,0,0,1-.58-.2l-1.17,0-1.21,0-1.6.06a14.82,14.82,0,0,1-4.1.17c-4.35.08-8.7.27-13-.58a1.36,1.36,0,0,1-.33-.06h0a35.84,35.84,0,0,1-11.07-1.7c-.22-.08-.45-.17-.67-.23s-.6-.26-.48-.67.49-.24.76-.14a41.49,41.49,0,0,0,7.45,1.88c1.52.24,3,.42,4.57.63,4.1.31,8.2.59,12.31.64a1.09,1.09,0,0,1,.34-.07,14.9,14.9,0,0,1,3.27-.1l2.3-.07a1.57,1.57,0,0,1,1.49,0l1.16,0a.56.56,0,0,1,.67.24S74.42,83,74.39,83Zm-34.6-4.46c-.89-.41-1.75-.77-2.58-1.18a23.74,23.74,0,0,0-10.82-2.66c-.81,0-1-.26-1-1,.17-2,.29-3.94.44-5.9,0-.26-.05-.59.37-.61a9.34,9.34,0,0,1,2.94.22c.58.15.18.83.35,1.25s-.19,1.15.54,1,.54-.75.36-1.27a4.41,4.41,0,0,1-.14-.78,9.54,9.54,0,0,1,2.76.67c.32,0,.67-.08.9.24,2.21.73,4.16,2.11,6.44,2.67.44.11.54.4.44.81C40.33,74.16,40.38,76.37,39.79,78.58Zm.63-8c-2.2-.93-4.41-1.87-6.61-2.82-.17-.07-.39-.12-.35-.39s.17-.22.62-.1,1.13.41,1.8.73a29.43,29.43,0,0,0,4.67,2c.27.07.71,0,.54.55S40.65,70.65,40.42,70.56Zm38.46,1a.81.81,0,0,1,.84.4A.92.92,0,0,1,78.88,71.55ZM80,70.73c-.69-.35-.32-.77-.27-1.18.18-1.38.06-1.48-1.24-1a3.33,3.33,0,0,1-3,0,9.81,9.81,0,0,0-4-.66c.69-1.61.65-1.31,2.43-1.09,1.45.18,2.63,1,4,1.11.52,0,1,.16,1.32-.44a3.35,3.35,0,0,0,.43-2.38c-.08-.39-.43-.21-.68-.11-.88.34-1.77.67-2.64,1-.42.18-.71.18-.66-.38s-.14-.68-.73-.57a3.68,3.68,0,0,1-1.63-.21,2.66,2.66,0,0,0-2.38,0c-.34.22-.71,0-1-.09s-.57-.18-.8.15-.38.47-.56.33c-.89-.71-2.09-.16-3-.78-.51-.37-1,.33-1.44,0-.33-1.46.6-1.53,1.61-1.4A11.22,11.22,0,0,0,69,63a14,14,0,0,1,5.12.06c1.35.28,2.52,1.09,3.93,1.12.71,0,1.2-.09,1.39-.75s.51-.58,1-.28c3.33,2.12,6.64,4.27,9.89,6.5A70.77,70.77,0,0,0,100.82,76a48.5,48.5,0,0,0,8.35,2.55,37.67,37.67,0,0,0,12.11.79c.44,0,.72,0,.89.48.64,1.86,1.3,3.72,2,5.56.19.49.19.62-.39.73a29.72,29.72,0,0,1-8.72.49,23,23,0,0,1-4.84-1,21.8,21.8,0,0,0-5.41-1.12,17.2,17.2,0,0,1-7.12-2.71c-4.69-2.69-9-5.93-13.71-8.65C82.65,72.35,81.4,71.41,80,70.73ZM103,73.63h0c.33.14.74.08,1,.42.33,0,.71-.09.94.31-.37.35-.64,0-.93-.11a3.84,3.84,0,0,1-1.49-.4,4.59,4.59,0,0,1-2.94-1.66Zm-2.79-2.58c.45-.15.73.14,1,.34l.82.33.71.26.71.22c.36.19.85,0,1.11.55-.37-.09-.8,0-1.1-.37a1.72,1.72,0,0,1-1-.2,1,1,0,0,1-.74-.22l-.83-.33C100.59,71.52,100.29,71.43,100.18,71.05Zm-.27,3.23h0c.63-.14,1.11.25,1.63.5l.7.26h0l.92.33a1.23,1.23,0,0,1-1.22-.08l-.72-.27h0a2.25,2.25,0,0,1-1.31-.74h0v0c-.29-.07-.6-.08-.74-.48C99.67,73.64,99.86,73.85,99.91,74.28Zm7.4.69,1.62.32a36.74,36.74,0,0,0,11.26.89c.37,0,.86-.17.87.45s-.52.41-.8.43A22.78,22.78,0,0,1,110.6,76c-.62-.22-1.29-.34-1.93-.5a4,4,0,0,1-1.63-.28l-1.19-.3C106.42,74.48,106.86,74.73,107.31,75Zm-1.07-1.88a4.19,4.19,0,0,1,2,.66A2.61,2.61,0,0,1,106.24,73.09Zm3.42.8a2.42,2.42,0,0,1,1.73.35,29.5,29.5,0,0,0,8.34.32,2.16,2.16,0,0,1,.36,0c.28,0,.67-.13.71.37s-.35.42-.64.44a21,21,0,0,1-7.37-.45,4.58,4.58,0,0,1-1.7-.46C110.64,74.27,110.08,74.33,109.66,73.89Zm11.84,4.36c0,.56-.54.31-.82.34a21.12,21.12,0,0,1-8.41-.53,4.5,4.5,0,0,1-2.16-.64l.08-.31,2.44.62a.8.8,0,0,1,.15,0l.23.06c2.52.14,5,.12,7.56,0C120.93,77.83,121.48,77.65,121.5,78.25Zm-11.73-.93-1.31-.22a2.52,2.52,0,0,1-1.76-.66l1.76.47A1.62,1.62,0,0,1,109.77,77.32Zm20.4-.14c3.19-.24,6,.79,8.83,2.09l-.06.33ZM131.63,76c-.37-.11-.77-.11-1.15-.2s-.87.23-.82-.33.58-.2.9-.19a17.41,17.41,0,0,1,5.95,1.3,6.82,6.82,0,0,1,3.1,1.73C137,77.49,134.29,76.71,131.63,76Zm8,3.64a3.52,3.52,0,0,1,.43.27c-.07.17-.07.32-.24.23s-.39-.1-.4-.34A.15.15,0,0,1,139.62,79.59ZM137.82,76c-1.77-.47-3.57-.84-5.29-1.44a6.65,6.65,0,0,0-3.66-.27,2,2,0,0,0-.62.07,1.8,1.8,0,0,1-2.19-.29,8.52,8.52,0,0,1,3-.44,19.93,19.93,0,0,1,9.25,2.12,2.25,2.25,0,0,1,1.46,1ZM128,77.83c-.38.12-.58-.07-.53-.48.09-.8.76-.23,1-.49.35.09.87-.17.82.29C129.18,77.85,128.44,77.67,128,77.83Zm-1.26-2.15c0-.07.06-.17.11-.2a2.38,2.38,0,0,1,1.92-.12c.12,0,.27.43.22.49-.48.57-1.16.33-1.77.38a2.36,2.36,0,0,1-.45-.08c-.18,0-.28-.18-.56,0-.59.43-1.39.89-1.7-.37A4.23,4.23,0,0,1,126.71,75.68Zm-1.44-.82c-.37,0-.78.23-1.1-.11a.3.3,0,0,1,.09-.49c.44-.14.9-.4,1.33,0a3.69,3.69,0,0,1,.29.42C125.64,74.75,125.46,74.83,125.27,74.86Zm-1,2.89c.41.31.27-.41.57-.32.62.07,1.42-.83,1.87.36-.65.11-1.22.45-1.87.27l-2.21.3c-.31,0-.6,0-.6-.39s.34-.31.55-.3C123.14,77.69,123.72,77.33,124.26,77.75Zm-29.11,3.9h0v0A2,2,0,0,1,93.92,81c-2.64-1.69-5.28-3.36-7.89-5.09-1-.64-2.16-1-3-1.87l-1-.68L81,72.82a1.53,1.53,0,0,1,1.33.36,2.5,2.5,0,0,1,1,.6,123,123,0,0,1,10.84,6.94h0c.36.26,1,.22.94.91h0c.73-.2,1.15.38,1.67.71,3.35,2,7.12,2.76,10.82,3.7a.7.7,0,0,1,.35.09c2.57.38,5.1,1,7.7,1.28a34.64,34.64,0,0,0,8.14-.21c.45-.06,1-.41,1.37.28a34.77,34.77,0,0,1-10,.74,21.08,21.08,0,0,1-5.62-1.31,19.86,19.86,0,0,0-2-.58,19.53,19.53,0,0,1-7-1.57,20.24,20.24,0,0,1-3.87-2.2c-.5-.27-1.09-.4-1.42-.93Zm29.57,3.48c-.54-1.69-1.29-3.33-1.82-5-.08-.27-.49-.67-.06-.79s1.27-.56,1.65-.08l.23.25a2.54,2.54,0,0,0,.45.78l0,0a1.22,1.22,0,0,1,0,.42.77.77,0,0,0,.17.66c.16.24.37.48.46.49s.55.2.51,1,1.1,2.57,1.39,3a.69.69,0,0,1-.32,0l-1,.2C125.52,86.24,125.05,86.16,124.72,85.13Zm-1.45-8.45a.25.25,0,0,1-.12,0c-.39-.11-1.05.58-1.16-.13-.13-.91.79-.42,1.11-.61.47-.06.91,0,.92.4S123.54,76.59,123.27,76.68Zm-1-1.5c-.39.07-.7,0-.61-.35.15-.65.79-.26,1.17-.45.18-.08.57-.15.54.19C123.37,75.33,122.61,74.94,122.32,75.18Zm3.46,12.13c-.08-.42.3-.41.54-.4.7,0,1.47-.39,2.11.31-.73.15-1.38.27-2,.42C126.09,87.71,125.84,87.62,125.78,87.31Zm2.46-1.64a12.51,12.51,0,0,1-.71-1.8c-.24-.87-.51-.88-.67-1s-.39-.87-.24-1,0-.66-.39-.8l-.08,0c-.07-.19-.14-.37-.22-.56l0,0c.11-.17-.08-.35-.26-.46,0,0,0,0,0-.06a3.19,3.19,0,0,1-.23-.45,2.91,2.91,0,0,1,0-.3.47.47,0,0,1,.06-.09c.41-.46,1.07-.4,1.62-.43.25,0,.26,0,.22.12a1,1,0,0,0-.11.17.34.34,0,0,0-.06.12.28.28,0,0,0,.1.37l.27.16a1.32,1.32,0,0,0,.87.64.63.63,0,0,1,.18.4c0,.51-.47,1,.53,2.08s1.08,1.37,1.1,1.75.25,1,.56,1c.11,0,.16.12.18.23a.37.37,0,0,1-.2.21C129.89,86.12,129.09,85.56,128.24,85.67Zm1.15,1a8.26,8.26,0,0,1,3,.34v0h0l0,0a2.6,2.6,0,0,1,2.61.87,2.47,2.47,0,0,1-2.61-.87h0c-.1.48-.22.87-.9.65s-1.49,0-2.2-.35c-.17-.07-.42,0-.41-.32S129.16,86.73,129.39,86.72Zm5.38-.45c-.13-.5-.41-1.4-.79-1.6l-.09,0c-.16-.2-.37-.39-.53-.6h0a.79.79,0,0,1,0-.13c.09-.4-.4-1-.65-1.1s-.41-.26-.3-.61a.7.7,0,0,0-.39-.83c-.29-.17-.37-.25-.37-.84s-1-.82-1.06-.47-.1.78.29,1.06a1.42,1.42,0,0,1,.67.8c.24.49.47.24.24.49s-.55.3-.08.63.9.34,1.14.91,0,.32.11.69a4.12,4.12,0,0,0,.72,1.6.56.56,0,0,1-.05.08,2.05,2.05,0,0,1-1.82-.38,2.11,2.11,0,0,0-.55-.54c-.34-.16,0-.79-.55-1.22s-.47-1.24-.73-1.49-.29-1.37-.71-1.65-.27-.9-.59-1.27l-.1-.12c-.22-.35-1-.58-.38-1a1.31,1.31,0,0,1,1.85.19l0,0a.5.5,0,0,0,.26.43.55.55,0,0,0,.35,0l.09,0v0a.66.66,0,0,0,.5-.68,1.8,1.8,0,0,1,.84,0c4.43.64,8.15,2.8,11.66,5.42a.8.8,0,0,1,.39.56A67.17,67.17,0,0,0,146,92.42a4.63,4.63,0,0,1-2.16-1.07,21.36,21.36,0,0,0-7.49-4.17A3.83,3.83,0,0,1,134.77,86.27Zm6.93-6.84h0l.73.45h0c.49.32,1,.66,1.47,1,.31.18.58.42.32.73s-.57,0-.79-.17c-.38-.35-.72-.72-1.07-1.08h0l-.67-.64c-.61-.23-1.36-.29-1.62-1.25A3.34,3.34,0,0,1,141.7,79.43Zm-1.18-2c0-.22.16-.27.29-.22a.76.76,0,0,1,.4.37c.06.15-.09.26-.28.2S140.55,77.64,140.52,77.4Zm1.63.89a10.27,10.27,0,0,1,2.54,1.51C143.6,80,143.05,79.65,142.15,78.29ZM144,83.16c-.2.28-.38.1-.56-.06l-1.65-1.45.27-.27A16.35,16.35,0,0,0,144,82.65C144.24,82.73,144.15,83,144,83.16ZM141.37,81c-.48-.05-1-.06-1.16-.84A1.89,1.89,0,0,1,141.37,81Zm4.34-10.75c.33.12.17.39.09.6s-.12.34-.32.19c-1.1-.85-2.68-1.1-3.22-2.66A27.4,27.4,0,0,0,145.71,70.26Zm-3.43-3.48a18.66,18.66,0,0,0,3.57,1.86c.32.1.4.34.32.66s-.27.34-.43.23C144.54,68.67,142.92,68.35,142.28,66.78Zm2.81,4.84c.45.19.46.47.39.84A46.2,46.2,0,0,0,144.7,78c0,.66-.39.71-.87.44a3.19,3.19,0,0,1-.75-.56,14.4,14.4,0,0,0-8.17-4.17A20.18,20.18,0,0,1,132,72.8a4.56,4.56,0,0,0-2.31-.21c-1,.15-2,.23-3,.45a.93.93,0,0,1-1-.43c0-.74,0-1.51-1.13-1.37.23.56.25,1.16.86,1.39-.42,1-.79,1-2.08.19l-.39-.86c-.12.43-.35.88.27,1-.13.8-.78.67-1.3.67s-.23-.54-.37-.81c-.81-1.67-.75-3.53-1.09-5.3,0-.25.06-.57-.41-.75-.3,1.15.18,2.22.26,3.31a21,21,0,0,0,.47,3c.15.68-.18.71-.68.74a29,29,0,0,1-9.43-1c-2.56-.73-5.17-1.36-7.75-2.06A9.82,9.82,0,0,1,100.7,70,100.79,100.79,0,0,1,87,61.61a44.29,44.29,0,0,0-5.1-3.23,4.28,4.28,0,0,0-2-.71c0-.91.94-1.78-.1-2.58a2.57,2.57,0,0,1-1.23.41h0a13.7,13.7,0,0,0-1.55.58c-.59.29-1,.36-.93-.5,0-.26,0-.58-.46-.4A2.79,2.79,0,0,1,73.74,55a3.08,3.08,0,0,0-2.7,0,.82.82,0,0,1-.91-.07c-.36-.24-.62-.25-.88.16s-.67.26-1,.13c-.65-.26-1.2-1.11-2-.24-1.51-1.54-2.82.53-4.28.23a4.25,4.25,0,0,1-2.31-.88c-.51-.51-1.17-.66-1.58-.25-1.15,1.19-2.42.38-3.48.17a48.17,48.17,0,0,0-5.84-.6,9.39,9.39,0,0,1-4-1.5c-.29-.16-.54-.5-.89-.53-1.45-.12-2.48-1.12-3.72-1.69a13.62,13.62,0,0,1-4-2.39c-.45-.43-1.19-.28-1.89-.4a2.51,2.51,0,0,0,.36-1.78A11,11,0,0,1,37.64,47a29.59,29.59,0,0,0,6.26,3.41c2.12.86,4.24.66,6.3,1.18,3.3.84,6.68,1.14,10,1.65a33,33,0,0,0,10.82.25,4.35,4.35,0,0,1,3,.37.24.24,0,0,0,.1,0c1.68-.16,3,1.13,4.63,1.15l.72,0c.46-.9,1.24-2.05.55-2.81s-1.68.32-2.56.55a9.65,9.65,0,0,0-1.3.53c.09-1-.31-1.32-1.28-1.2a4.63,4.63,0,0,1-1.83-.39,1.69,1.69,0,0,0-1.49,0c-1,.63-1.14.1-1.27-.74-.07-.43,0-.57.4-.62a4.47,4.47,0,0,1,1.89,0,5.52,5.52,0,0,0,2.87.41c.6-.12.75.6,1.28.73,2.22.57,2.63.31,3.07-2.11,3.63,2,7.2,4.12,10.63,6.45a61.16,61.16,0,0,0,19.89,8.76A47.32,47.32,0,0,0,122.75,66c.36,0,.33.22.41.41s-.11.58.23.73a.2.2,0,0,0,.2-.06c.31-.32-.18-.42-.18-.66.22-.18.3-.44.68-.52a20.87,20.87,0,0,1,17.21,3.29A18.91,18.91,0,0,0,145.09,71.62ZM44.69,46.21c2,.33,3.8.59,5.56.93A2,2,0,0,1,52,48.46a1.59,1.59,0,0,0,2.52.51,1.54,1.54,0,0,1,1.61-.28c.8.2,1.59.49,2.4.63a1.25,1.25,0,0,1,1.07.94,2.37,2.37,0,0,0,2.61.22c1.51-.61,3.07,0,4.59.36.06,0,.11.18.11.28a.81.81,0,0,1-.37.7c-.27.19-.44,0-.56-.21a.77.77,0,0,0-1.13-.28,4.7,4.7,0,0,1-2.81.56c-.9-.07-2-.13-2.48-1.3a2.15,2.15,0,0,0-2,.43.73.73,0,0,1-.77.18,40.28,40.28,0,0,0-8.58-1.57,8.16,8.16,0,0,1-3.06-1.5C44.53,47.73,45.47,46.92,44.69,46.21ZM98.34,59a2.32,2.32,0,0,1,1.37.58l.67.29h0L103.7,61l1.19.32-.07.34c-.36-.19-.77-.1-1.11-.43a7.49,7.49,0,0,1-3.61-1.2l-.64-.3A1.75,1.75,0,0,1,98.34,59Zm8.4,3.33a1.14,1.14,0,0,1,1.25.12c.26,0,.54-.05.71.23a1.46,1.46,0,0,1,1.35.49l-1.35-.31-.94-.23Zm3.47.53,3,1a42,42,0,0,0,11,.47,29.33,29.33,0,0,1,7.54-.45,19.42,19.42,0,0,1,8,2.9c-1.83-.51-3.68-1-5.49-1.52a12.6,12.6,0,0,0-6.09-.61,38.52,38.52,0,0,1-12.36.37,27.73,27.73,0,0,1-3.28-.94A3.47,3.47,0,0,1,110.21,62.83Zm29.7,3.81,2.25,1.55C141,68,140.33,67.79,139.91,66.64ZM63.44,43.33c.43.52.07.76-.37.74a5.78,5.78,0,0,1-3.47-1A1.1,1.1,0,0,1,59.14,42,2.65,2.65,0,0,0,59,40l3.35,1.07c.26.08.56.1.48.51A2,2,0,0,0,63.44,43.33Zm6.52,2c-.46-.27-.77-.68-1.35-.14s-1-.1-1.41-.44c-.73-.59-.14-1.24,0-1.81s.64-.13,1-.14a1.62,1.62,0,0,1,.34.1C70.41,43.32,70.41,43.32,70,45.35Zm-2.87-4.3c-.29.13-.76-.39-1-.83s-.63-1-1.29-.5c-.08.06-.12.13-.15,0-.47-1.34-1.48-.65-2.3-.6a.88.88,0,0,1-.86-.48,2.07,2.07,0,0,0-1.19-1c.17.38.26.57.34.77s.19.29,0,.42a.39.39,0,0,1-.54,0c-.41-.7-1.41-.66-1.73-1.53A1,1,0,0,0,57,36.81c-1.31.82-2.43-.12-3.37-.53a19.12,19.12,0,0,0-5.8-1.35,9.74,9.74,0,0,1-3.72-1.39,8.25,8.25,0,0,0-2.82-1,8.44,8.44,0,0,1-1-.31c1.5-1.61,3.28-.67,4.88-.53,4.95.41,9.58,2.11,14.12,4,1.19.5,2.54.59,3.6,1.44a6.8,6.8,0,0,1,.7.61c.19.19.45,1.49.82.06,0,0,.28,0,.42,0a6.89,6.89,0,0,0,1,.3c2.08.14,2.8,1.62,3.39,3.45C68.46,41.23,67.94,40.65,67.09,41.05Zm-3.28-6.33a.42.42,0,0,1-.39.49c-.25,0-.36-.16-.42-.33-.21-.72-.93-1-1.34-1.85-.38,2.34-1.64.68-2.67.93.89-1.11,1.07-2.07-.09-3.16A49.62,49.62,0,0,0,65.21,33C64.43,33.5,63.8,33.88,63.81,34.72ZM40.2,25.94a35.39,35.39,0,0,0,5.43.74,34.14,34.14,0,0,1,4.69,1.15c2.6.35,4.93,1.52,7.4,2.45-.69.54-.71.56-1.37.26-.45-.22-.62-.19-.63.37,0,.29.68.68,0,.82s-1.14.78-1.76.29a2,2,0,0,0-1.28-.49c-.26,0-.5-.1-.47-.4.17-1.3-1.1-1.83-1.5-2.93-.15.65-.43,1.06-1.1,1-.62.72-1.27,1.39-2.33.92-.84-.36-1.75-.2-2.65-.52-1.6-.56-2.88-1.95-4.74-1.84a3.17,3.17,0,0,1-1.2-.45,6.93,6.93,0,0,0-3.24-.92,2.64,2.64,0,0,1-1.62-.65A3.06,3.06,0,0,0,31,25.32a2.79,2.79,0,0,1-.34.09c-2.09.4-2.69,0-3.26-2C27.29,23,27.18,22.6,27,22a36.9,36.9,0,0,1,6.22,1.49A65.57,65.57,0,0,0,40.2,25.94ZM31,20.17c-1-.22-2,.45-3,.38s-1.52-.32-1.63-1.34a12.55,12.55,0,0,0-.47-1.68c2.49.44,4.91.68,7.18,1.78A1.74,1.74,0,0,1,31,20.17Zm-5.29,0a.6.6,0,0,1-.82-.27,2,2,0,0,0-2-1.48c-.6,0-.45-.8-.73-1.34a8.91,8.91,0,0,0,2.27.09.77.77,0,0,1,.92.7c.11.54.29,1.06.42,1.59C25.79,19.7,26.07,20,25.69,20.17Zm-2,3.77c.07.41.08.62-.5.6-2.18-.07-2.31-.17-3.1-3.29C22.76,21.56,23.39,22,23.73,23.94ZM22,18.54a1.2,1.2,0,0,1-1.08,1.14c-.85,0-1.74,0-2-1.17a8.7,8.7,0,0,0-.65-1.62,10.47,10.47,0,0,1,2.88.21C22,17.17,22,18.07,22,18.54Zm-3.29.89c-2.56.23-2.56.23-3.44-2.52C17.75,16.77,17.75,16.77,18.7,19.43Zm.28,1.8c.76,0,.73.62.89,1.05.73,2,.71,2-1.43,1.95-.68,0-1-.21-1.09-.9s-.27-1.39-.43-2.19C17.65,21.17,18.31,21.24,19,21.23Zm1.66,4.69c.35,0,.45.23.52.52.18.72.39,1.43.58,2.14a1.3,1.3,0,0,1-.31.09c-3,.18-3,.18-3.46-3.05A12.14,12.14,0,0,0,20.64,25.92Zm1.23,4.49c.87.25.51,1.24.74,1.89s-.41.4-.67.44C20,33,20,33,19.49,31.18c-.08-.29-.13-.59-.22-1A13.54,13.54,0,0,1,21.87,30.41Zm-1.41,4.38c0-1.08.94,0,1.11-.19,1.69-.61,2,.46,1.79,1.36-.24,1.16-1.55.74-2.24.7C20.15,36.61,20.44,35.42,20.46,34.79Zm2.46,3.4c1.44,0,.86,1.08,1.09,1.73s-.36.77-.84.86a9.63,9.63,0,0,0-2.25.53c0-.34,0-.57-.06-.8C20.63,38.13,20.63,38.19,22.92,38.19Zm-1.3,43.24c0-.53.2-.79.75-.81s1-.12,1.53-.18.94,0,.72.53c-.18,2-.38,3.76-.49,5.57-.05.82-.35,1.09-1.18,1.18-2,.21-2,.27-1.82-1.7C21.29,84.49,21.49,83,21.62,81.43Zm-.5,7.31,2.11-.26c.25-.15.53-.31.7,0a.43.43,0,0,1-.23.67l-2.46.32c-.21,0-.5.11-.51-.27A.42.42,0,0,1,21.12,88.74ZM21,90.32,23.32,90c.32,0,.42.11.42.4a.56.56,0,0,1-.54.64l-2.34.31c-.09,0-.41.12-.34-.3S20.55,90.38,21,90.32Zm-.18,1.79L23,91.85c.21,0,.51-.11.53.26s-.15.4-.43.43l-2.27.3c-.16,0-.44.12-.45-.27A.41.41,0,0,1,20.79,92.11Zm.26,1.44c2.45-.36,2.43-.38,2.06,2.11-.21,1.41-.42,2.81-.55,4.23-.07.76-.38,1.14-1.14,1.2a9.86,9.86,0,0,0-1.52.26c-.62.15-.79-.09-.61-.75.27-2,.6-4,.82-6.13C20.18,93.8,20.48,93.63,21.05,93.55Zm-1.56,8.53,2.1-.27c.22,0,.53-.14.54.24a.42.42,0,0,1-.41.48c-.7.1-1.4.24-2.1.36-.23,0-.56.3-.64-.16A.52.52,0,0,1,19.49,102.08Zm-.21,1.55c.7-.06,1.39-.19,2.25-.32.06,0,.33-.11.34.27s0,.71-.49.79c-.66.11-1.31.24-2,.32-.24,0-.66.4-.74-.13S18.64,103.69,19.28,103.63Zm-.34,1.83,2.1-.31c.18,0,.48-.16.55.2s-.15.48-.47.53c-.69.12-1.37.28-2.05.41-.2,0-.49.17-.52-.22S18.6,105.51,18.94,105.46Zm4.95,10.88c-.93,1.58-2.75.7-4.05,1.48C20.05,116.39,20.05,116.39,23.89,116.34Zm-.09-1c-1,.14-1.95.28-2.93.39-.23,0-.57.27-.66-.16s.23-.54.57-.58l2.91-.38c.28.08.72-.24.77.28S24.1,115.31,23.8,115.35Zm1.95.65c.9,0,1.81,0,2.71.07.23,0,.64-.1.53.37s-.13.72-.63.71c-1.28,0-2.56,0-3.93,0C24.67,116.28,25,116,25.75,116Zm4.24,2a21.24,21.24,0,0,1,4.53,1.32,56.33,56.33,0,0,0,13.66,4.52l3.08.33,0,.3a7,7,0,0,1-3-.32,8.3,8.3,0,0,1-3.67-.41,28.62,28.62,0,0,1-7.13-2.49,25.9,25.9,0,0,0-8.54-2.66C29.05,118,29.45,117.93,30,118.05Zm18.59,4.49c-.09.45-.43.38-.74.35a32.48,32.48,0,0,1-10.71-3.19,24.67,24.67,0,0,0-6.68-2.28c-.31,0-.89.09-.77-.6s.54-.52,1-.42a24.59,24.59,0,0,1,5.26,1.74,45.34,45.34,0,0,0,12,3.85C48.24,122.05,48.71,121.94,48.58,122.54ZM29.33,114c-1-.11-2-.18-3.19-.28a33.26,33.26,0,0,1,2.21-6.74c.16-.4.33-.71.84-.59.89.19,1.78.35,2.66.54.49.11.47.42.33.81-.69,1.93-1.38,3.86-2,5.8C30,113.92,29.73,114,29.33,114Zm40.33,11c-.91.64-1.73.32-2.51.35l-5.92,0a11.78,11.78,0,0,1-4-.22,11.56,11.56,0,0,1,4,0h5.93A4.36,4.36,0,0,1,69.66,124.92Zm78.66-1.22c-.15.33-.39,0-.58,0a6.64,6.64,0,0,1-3.9-1.72h0a1.35,1.35,0,0,1-1-.71c-.42-.07-.66-.42-1-.66l-1-.7-.74-.45c-1.71-.7-3.43-1.36-5.12-2.11-.73-.33-1.49-.11-2.2-.29-3.11-.79-6.25-.25-9.37-.22h0l-.09,0-.25.06a24,24,0,0,1-13.92-.92l0-.32,4.37.73a25.52,25.52,0,0,0,4.7.43c1.53,0,3.06-.14,4.59-.21,3.8-.52,7.6-1,11.4-.06a19.36,19.36,0,0,1,6.14,2.64l.73.44a2.39,2.39,0,0,1,1,.71c.31.22.71.33.82.76h0c.42.12.79.28.91.76h0a18.41,18.41,0,0,0,4,1.32C148.23,123.2,148.45,123.39,148.32,123.7Zm-.23-24.19c.49,2-.09,4,0,6,0,.5-.26.43-.62.39a6.22,6.22,0,0,1-3.54-1.5c-2.62-2.37-5.82-3.63-9-4.78a23.11,23.11,0,0,0-4.53-.63c-3-.4-5.88.17-8.78.56a25.21,25.21,0,0,1-12.09-1.21,11.85,11.85,0,0,0-3.82-.76c-3,0-5.49-1.35-7.95-2.76-4.69-2.69-9-6-13.74-8.61a2.15,2.15,0,0,1-1.32-2c0-.32.1-.74-.32-1-.45.38-.36.89-.32,1.49-1.13-.25-1.91-1.1-3-1.4.71-1.15.32-2.25-.11-3.36a9.73,9.73,0,0,0-.16,1.28c-.1.62.37,1.3-.2,1.86-2.66-1.28-2.65-1.28-2.86-4.23a9,9,0,0,0-.72-3.8c-.54,1.27-.07,2.59-.15,3.89-.06.78.35,1.8,0,2.29s-1.44-.06-2.2,0c-3.87.11-7.73.16-11.59.33a65,65,0,0,1-8.49-.62c-3.81-.32-7.63-.5-11.29-1.82-.76-.27-.92-.52-.76-1.32.34-1.78.55-3.59.76-5.39.07-.58.13-.81.83-.6,8.38,2.5,17,2.81,25.66,2.64,2.42,0,4.88-.56,7.26.33,2,.19,5.39,2.06,6,3.41.33-.61.72-.54,1.23-.25a71.34,71.34,0,0,1,8.33,5.21c6.13,4.74,13.12,7.17,20.67,8.52a50.68,50.68,0,0,0,15.55.11,20.4,20.4,0,0,1,15.74,4.43,10.48,10.48,0,0,0,4.78,2.46C147.85,98.74,148,99.05,148.09,99.51ZM143.93,96l1.54.76C144.85,96.94,144.43,96.71,143.93,96Zm1.84,1.18c.6-.27,1.06,0,1.69.25A1.47,1.47,0,0,1,145.77,97.17Zm1.34-.86a8.35,8.35,0,0,1-3.37-1.56,20.84,20.84,0,0,0-4.83-3.13c-.62-.25-.82-1.05-1.51-1.22v0h0c0,.52-.24.62-.63.38-1.56-1-3.34-1-5.07-1.16-.59-.06-1-.45-1.57-.54v0h0l0,0a5.15,5.15,0,0,1-3.91-.51c1.58-.19,2.86-.71,3.91.51h0c-.13-.5,0-.81.59-.78a13.79,13.79,0,0,1,4.6.86c.72.29,1.28,1,2.08,1.24v0h0c0-.7.38-.35.66-.22a20.64,20.64,0,0,1,4.7,2.89,9.07,9.07,0,0,0,3.65,2.08C147,95.29,147.1,95.69,147.11,96.31Zm-.55-2.23a6.13,6.13,0,0,1-3.45-1.76h0l-1.48-1.15a20.91,20.91,0,0,0-4.7-2.18,1.4,1.4,0,0,1-1.15-1.23,18.14,18.14,0,0,1,6.14,3.14,5.35,5.35,0,0,1,1.47,1.17C144.35,92.89,145.7,93.11,146.56,94.08Zm-.8-26.16a2.24,2.24,0,0,1-1-.73c-.57-.29-1.31-.26-1.66-.94a3.73,3.73,0,0,1-1.16-1.18,2.6,2.6,0,0,1,1.48.88l1.68.94c.5.21,1.14.12,1.4.75C146.43,68.22,146.11,68.08,145.76,67.92Zm.41-6.66c.11,1.1.2,2.2.3,3.3h0c.06.59.3,1.3,0,1.75a.28.28,0,0,1-.21.22.68.68,0,0,1-.49-.15c-1-.71-2.19-1-3.07-1.93a11.14,11.14,0,0,0-5.33-3.18c-1.26-.3-2.47-.79-3.74-1.05s-2.51-1-3.9-.7a40.33,40.33,0,0,1-8,.85,16.28,16.28,0,0,1-6.3-.8c-3.88-1.42-7.75-2.84-11.68-4.09a64.23,64.23,0,0,1-12-5c-3.52-1.95-7-4-10.61-5.73a2.92,2.92,0,0,0-2.12-.4l17.59,9.58.06,0,.63.24c.36.16.79.2.94.66h0A2.58,2.58,0,0,1,97,54.4c-.25,0-.53,0-.72-.25a16.61,16.61,0,0,1-3.85-1.78C89,50.46,85.5,48.5,82,46.61a5.1,5.1,0,0,0-5.21-.07c-.5.26-1.34,1.05-1.27-.49,0-.52-.5-.14-.75-.22-.44-.13-1.25.24-1.1-.76,0-.3-.28-.7,0-.87s.72,0,1.05.33a2.76,2.76,0,0,0,2.76.45c.73-.28.76-1.3.8-2.1s-.16-1.09-1-.73c-.64.28-1.31.53-2,.8s-1.36.89-1.25-.54c0-.16-.1-.26-.38-.26-2,0-3.78-.33-4.41-2.93,1.1,1.24,2.68.44,3.83,1.5a2.28,2.28,0,0,0,2.57.17c.77-.5.73-1.52.7-2.4,0-.61-.38-.59-.81-.42l-3.17,1.31c.06-.91-.31-1.15-1.19-1.35-1.48-.35-3.21-.6-3.81-2.43-.2-.58,0-1.27-.51-1.78a.63.63,0,0,1,.68,0c1.26.51,2.3,1.39,3.8,1.5.66,0,1.38.79,2.26.95s1.57-.16,1.71-1.07.49-.73,1.09-.46c8.36,3.73,16.92,6.93,25.58,9.87,4.35,1.48,8.2,3.79,12.13,6,1.54.88,3.13,1.67,4.7,2.49,3,1.56,6.14,1,9.29.76a19.31,19.31,0,0,1,11.44,2.75c2,1.19,3.81,2.83,6,3.69C146.17,60.47,146.13,60.88,146.17,61.26Zm-.24-2.36c-.05.31.11.82-.53.54a2.14,2.14,0,0,1-1.12-.79l-.49-.4h0a4,4,0,0,1-2.34-1.74c1,.08,1.59.91,2.37,1.4h0l.77.44,1.34.55Zm-6.75-4.07c-.53.21-.82-.11-1.08-.48.47-.11.77.2,1.08.48ZM102.08,43.2c-.43,0-.89.13-1.27-.19-.37,0-.73-.06-.79-.54l1.06.29c.33.17.76.08,1,.44Zm2.3.92h0c-.26-.24-.69-.1-.9-.43C103.84,43.7,104.32,43.47,104.38,44.12Zm-4.66-1.64c-.5.31-.83-.06-1.2-.29s-.82-.18-1-.65a2.33,2.33,0,0,1,1.21.45C99.13,42.06,99.51,42.11,99.72,42.48Zm13.51,6.18a4.23,4.23,0,0,1,1.69.92,61.52,61.52,0,0,0,5.89,2.7c2.2.69,4.37.32,6.56.12h0a8.69,8.69,0,0,1,3.93,0A20.87,20.87,0,0,1,137.52,54a.49.49,0,0,1,.37.4c-2.62-.49-5.25-1-7.84-1.66l-1.44,0c-1.11.07-2.06.68-3.2.75-4.09.25-7.47-1.53-10.78-3.57A1.69,1.69,0,0,1,113.23,48.66Zm26.07,6.27c.38.22.89.28,1,.85C139.7,55.78,139.33,55.55,139.3,54.93Zm2.89-2.4a2.55,2.55,0,0,0,.94.41h0c.61,0,.8.51,1.12.88l.28.75c.24.06.25.28.31.45h0c.15.27.53.48.16.84a1.15,1.15,0,0,1-.72-.54l-.73-.48c-.62-.2-1.22-.42-1.35-1.18L140,52.22h0C140.82,51.63,141.51,52.17,142.19,52.53ZM99,35.81c4.57.43,8.9,1.42,12.79,4.12a81.09,81.09,0,0,0,10.51,6.15,28.93,28.93,0,0,0,5,2,7.07,7.07,0,0,1-5.39.2,20.45,20.45,0,0,1-6.12-3.53c-2-1.54-4-3.1-6-4.61-1.65-1.23-3.67-1.62-5.55-2.3s-3.67-1.17-5.51-1.75l-.67-.28A.63.63,0,0,1,99,35.81ZM62.67,22.5c2.86,1.11,5.67,2.34,8.62,3.23a2.83,2.83,0,0,0,2.14,0c.86-.38,1.85.16,2.69.58,2.72,1.36,5.42,2.74,8.13,4.11l0,.31C81,29.67,78,28,74.69,27.16l-.12.29c1.34.64,2.63,1.37,4,1.9Q90.42,34,102.3,38.46c1.84.7,3.75,1.21,5.56,2,2.26,1,4.12,2.61,6.14,4,1.55,1,3,2.18,4.55,3.22a10,10,0,0,0,7.56,1.59,17.35,17.35,0,0,1,1.77-.13.62.62,0,0,1,.33-.08,5.93,5.93,0,0,1,2.1,0,1.21,1.21,0,0,1,.35.07l.15,0A13,13,0,0,1,137,50.8a62.72,62.72,0,0,1-6.9-1.47h-1.69a11.54,11.54,0,0,1-7.07.3,21,21,0,0,1-7.32-3.5,34.79,34.79,0,0,0-11.64-6.08c-3.42-.92-6.74-2.15-10.1-3.24-5.09-1.65-10-3.84-15-5.79a1.94,1.94,0,0,0-1.76-.19c.63.31,1.11.56,1.6.79C82.27,34.06,87.68,35.91,93,38c3.93,1.51,7.92,2.87,11.88,4.3l.06,0,2.08.94a3.37,3.37,0,0,1,1,.44l.14,0a1.19,1.19,0,0,1,.43.23l.23.17a1.9,1.9,0,0,1,1.27.76L111.85,46l6.24,3.33a13,13,0,0,0,8.23,1.33A19.48,19.48,0,0,1,141,54.16c1.53.68,2.67,2,4.28,2.56a1.63,1.63,0,0,1,.41,1.4,23.36,23.36,0,0,1-5-3.72c-.26-.07-.59,0-.78-.21-2.49-2.07-5.72-1.72-8.53-2.7-2.21-.77-4.18.2-6.24.38A12.65,12.65,0,0,1,119,50.69a31.06,31.06,0,0,1-7.46-4.46A3.9,3.9,0,0,1,109.89,45c-.47-.31-1.08-.4-1.44-.91l-.19-.21a1.9,1.9,0,0,1-1.53-.46,7.65,7.65,0,0,1-2-.84l-.16-.08c-4.35-1-8.47-2.67-12.7-4-5.09-1.62-10-3.85-15-5.81a1.77,1.77,0,0,0-1.73-.1c6.58,3.12,13.34,5.41,20,8l.07,0c.35.12.87,0,.87.61l-1.15-.36a.56.56,0,0,1-.26-.08c-2.83-.47-5.39-1.74-8-2.75a109.07,109.07,0,0,1-10.49-4.26c-1.42-.73-2.24-.11-3.32.16a12.27,12.27,0,0,0-1.31.48c.1-.89,0-1.46-1-1.39a2.71,2.71,0,0,1-1.71-.72A1.58,1.58,0,0,0,67.45,32c-1.17.28-1.74-.62-2.27-1.27a13.81,13.81,0,0,1-1.41-2.78,34.76,34.76,0,0,1,3.51,1.21,15,15,0,0,0,3.36,1.3c.82.17,1.54.86,2.52,1a1.2,1.2,0,0,0,1.61-1A11,11,0,0,0,75,29.11c.07-.73-.23-.91-.9-.63s-1.56.56-2.34.83l-.67.23c.2-1-1.33-1-1.12-2a1.72,1.72,0,0,0-1.14-2.09,1.68,1.68,0,0,0-2.25,1c-.34,1-.79.72-1.25.25s-.48-.57-1-.36-1-.08-.88-.86a1.58,1.58,0,0,0-1.21-2,1.74,1.74,0,0,1-1.45-1.53A4.43,4.43,0,0,1,62.67,22.5ZM25,14.61a12.76,12.76,0,0,1,5.67-.12c.23.06.52.1.64.26.81,1.08,1.69.91,2.64.23a.85.85,0,0,1,.78-.19,26.81,26.81,0,0,0,6.89,1.06A15.43,15.43,0,0,0,44,16.1a3.48,3.48,0,0,1,3.28,2c.44-.35-.08-.64.1-.91a51.81,51.81,0,0,1,6.72,2.43,21.45,21.45,0,0,1,2.8,1.52,3.1,3.1,0,0,0,1.69.44,2.5,2.5,0,0,1,1.92,1.91c0,.35-.3.41-.58.47a3.48,3.48,0,0,1-3.57-1.44A3.07,3.07,0,0,0,53,21.64a3.92,3.92,0,0,1-3.26-.88l-1.72-2.24c-.26.75.28,1.13.4,1.62-.25.41-.69.14-1,.3-.86-.09-.86-.09-3.16-2.09,0,.06-.07.12-.06.18.06.47.76,1.1.25,1.32a3,3,0,0,1-2-.08c-1.64-.55-3-1.77-4.83-1.87a4.34,4.34,0,0,1-1.58-.46,6.15,6.15,0,0,0-3.26-.86,3.53,3.53,0,0,1-2-.7,3,3,0,0,0-2.73-.2,4.78,4.78,0,0,1-1.5.26C25.61,16,25,15.74,25,14.61Zm-.46,1.06c-3.09,0-3.11,0-3.59-1.93C24,13.75,24.25,13.87,24.58,15.67Zm-5-2.3c1.12.11.93,1.18,1.31,1.87-3,.35-3.49.14-4.62-2.3A15.59,15.59,0,0,0,19.59,13.37Zm-6.37-.65a.65.65,0,0,1,.94.1c.26.41.44.52.9.26s.79.11,1,.54.46.89.78,1.5l-1,.08a2.64,2.64,0,0,1-2.76-2C13,13,13,12.83,13.22,12.72ZM4.58,5.59a1,1,0,0,1-.24,0c-.64-.21-1.74.76-1.86-.33-.06-.62-.52-1.41,0-2.14.15-.22,0-.66,0-1,2.7.19,5.36-.29,8-.08.48,0,.95,0,1.42.08,1.76.16,1.79.16,1.68,1.88,0,.49.43.74.43,1.2A54.88,54.88,0,0,1,4.58,5.59ZM7,127.37c-.12,4.62-.17,9.25-.4,13.86-.22,4.22-.48,8.43-.4,12.65.13,7.43-.83,14.83-.46,22.26a6,6,0,0,0,.09,1.42c.39,1.26-.29,1.23-1.19,1.1-1.68-.25-1.69-.23-1.59-1.93.53-9,.5-17.93.83-26.89C4.38,136.22,4.27,122.58,5,109c0-.39,0-.79,0-1.45.36-10.55.56-21.37,1.1-32.18C6.61,64,7.37,52.61,7.41,41.23c0-7.15.73-14.28.56-21.43C7.88,16,8,12.29,7.85,8.53c0-1.11.65-1.09,1.33-1.14.9-.06.66.71.56,1.09-.15.6.67,1.57-.6,1.77,0,.08,0,.18,0,.23,1.1,1.29.52,2.83.48,4.22Q9.38,26.55,9.2,38.4C9,48.83,8.7,59.25,8.44,69.68c-.22,8.84-.26,17.7-.68,26.53C7.27,106.6,7.3,117,7,127.37Zm8.24-12a224.52,224.52,0,0,1-7,22.7L8,137.64c.34-4,0-8,0-12a34.43,34.43,0,0,1,.41-5.07,9.74,9.74,0,0,0-.07-3.53,16.18,16.18,0,0,1,0-4.61,34.7,34.7,0,0,1,.62-6,10.15,10.15,0,0,0,.12-4,27.47,27.47,0,0,1,.35-6.59c.42-4.18,0-8.37-.11-12.55-.06-2.41.22-4.81.12-7.22A106.08,106.08,0,0,1,10.24,61a49.49,49.49,0,0,0,.23-10.74,84.42,84.42,0,0,1-.06-10.06c.05-7.9.8-15.79.52-23.7,0-.31,0-.63,0-.94a1.11,1.11,0,0,1,.57-1.21c.54-.17.59.51.77.84,3.12,5.71,4.7,11.93,6,18.25a149.86,149.86,0,0,1,2.79,34.4,211.17,211.17,0,0,1-2.94,30.63C17.15,104.1,16.76,109.84,15.25,115.37Zm.37,3.49c-.25-1.29.33-1.72,1.38-1.8.73-.06,1.45-.2,2.32-.32C18.66,118.8,16.67,117.85,15.62,118.86ZM19,121.8c-.35-.11-.24-.37-.22-.56.05-.52-.07-1.17.7-1.29s1.77-.24,2.78-.37A3.14,3.14,0,0,1,19,121.8Zm1-2.64c-.21,0-.58.35-.65-.14s.2-.56.57-.6c.9-.11,1.8-.24,2.7-.36.24,0,.47-.09.51.27s-.22.35-.45.39C21.71,118.87,20.82,119,19.92,119.16Zm7.76.36c0,.52-.12,1.37-1,1.4-1.37,0-2.74,0-4.11,0,0-1.08.42-1.67,1.65-1.6.82,0,1.65-.1,2.47-.08C27.06,119.27,27.73,119,27.68,119.52Zm-3.95-.88c-.15,0-.31,0-.27-.23s.06-.47.38-.49l2.45-.23v.09c.5,0,1,0,1.52,0,.22,0,.5,0,.47.38a.41.41,0,0,1-.47.41A22.36,22.36,0,0,0,23.73,118.64Zm24.05,7.26c-.14.83-.66.41-1,.35a41.94,41.94,0,0,1-10.37-3.19,25.2,25.2,0,0,0-7.63-2c-.34,0-1.07.28-.94-.4.09-.49.24-1.32,1.17-1.25a25.05,25.05,0,0,1,7.2,2.17A43.36,43.36,0,0,0,47,125.08C47.45,125.18,47.91,125.14,47.78,125.9Zm2.63.94a18.2,18.2,0,0,0-2.42-.36c1-2.06,2.43-.34,3.64-.8C51.63,126.73,51.34,127.1,50.41,126.84Zm1.72-3.67H51.2v-.05L49.57,123c-.23,0-.49,0-.42-.38s.15-.4.37-.38c.89.1,1.77.21,2.66.33a.29.29,0,0,1,.26.33A.28.28,0,0,1,52.13,123.17Zm3.93,3.48c0,.51-.28.67-.75.61-.31,0-.63,0-.94,0v0c-.43,0-.86-.07-1.29-.12s-.67,0-.57-.51.16-.74.74-.65,1.41.11,2.11.18C55.66,126.18,56.1,126.05,56.06,126.65Zm-1.52-1.76h0l-1.25-.07c.49-.36,1-.19,1.52-.18a2.27,2.27,0,0,1,1.61.27A2.59,2.59,0,0,1,54.54,124.89Zm2.07-1.5c0,.34-.32.29-.55.27-.74-.07-1.48-.16-2.22-.26-.33-.05-.87,0-.83-.43s.58-.1.78-.25l2.32.21C56.42,123,56.67,123,56.61,123.39Zm-2.56-1.83-1.11-.08a1.61,1.61,0,0,1-1-.16,17,17,0,0,1-3.34-.24,28.6,28.6,0,0,1-11.1-3,29,29,0,0,0-6.76-2.41c-.23,0-.88.2-.67-.48.16-.51.57-.28.9-.2a21.69,21.69,0,0,1,4.92,1.63,46.7,46.7,0,0,0,14.19,4.24l2.13.23a1.53,1.53,0,0,1,1,.15l1.35.09a4.79,4.79,0,0,1,2.29.37A5.11,5.11,0,0,1,54.05,121.56Zm23.78,6.62c-3.56-1.45-7.25-1.25-11-.91a83.92,83.92,0,0,1-9.11.14c-.35,0-.82.16-.83-.51s.38-.64.85-.6a84,84,0,0,0,10.52.15,22.63,22.63,0,0,1,6.82.25A19.72,19.72,0,0,1,78.29,128l1.21.54A1.86,1.86,0,0,1,77.83,128.18Zm5.7-13.76a.57.57,0,0,1,.19.8c-.17.19-.34-.14-.47-.3-1.15-1-2.69-1.36-3.73-2.51A16,16,0,0,1,83.53,114.42Zm-1.07,1c-.11.13-.19.28-.24.27a2.3,2.3,0,0,1-.42-.2c.06-.08.13-.22.19-.22A1.66,1.66,0,0,1,82.46,115.44Zm-1.43-.6c0,.06-.17.15-.25.13s-.32-.07-.31-.27.12-.18.25-.13S81.05,114.64,81,114.84Zm-.38,7.74a41.3,41.3,0,0,0-1-7.06c1.64.88,3,1.58,4.27,2.3.23.12.53.21.58.54.35,2.52.14,5.1,1.22,7.69-2-.66-3.15-2.09-4.77-2.74C80.63,123.19,80.68,122.86,80.65,122.58Zm1.72,3h0l0,0,0,0v0a1.55,1.55,0,0,1-.83-.63c.41.12.79.15.83.63l0,0h0a.72.72,0,0,1,.94.26,7.78,7.78,0,0,1,2.54,1.76A6.64,6.64,0,0,1,83,126h0ZM86.53,130a30.62,30.62,0,0,1-5.62-3.69C83,126.72,86.37,129,86.53,130Zm-4,.46c-.16-.06-.39-.08-.38-.32s0-.24.21-.15.38.08.41.37C82.66,130.36,82.55,130.45,82.49,130.43Zm4.08.89c-.14.29-.48-.06-.67-.28a2.9,2.9,0,0,1-1.24-.7,3.23,3.23,0,0,1-1.59-1c-.22-.1-.62-.23-.44-.48s.49,0,.69.24l1.64,1h0a2.07,2.07,0,0,1,1,.63C86.21,130.87,86.77,130.91,86.57,131.32Zm.28-3.33a2.44,2.44,0,0,1,1,.62A12.07,12.07,0,0,1,91.15,131c.6,0,1,.46,1.4.78.27.08.64.28.44.52s-.49-.1-.69-.29l-1.16-.74-3.56-2.37A.91.91,0,0,1,86.85,128Zm6.77,6.38A24.77,24.77,0,0,1,87.33,130,25.13,25.13,0,0,1,93.62,134.37Zm-6.27-2.69c.5.13.83.19,1,.8C87.82,132.44,87.58,132.22,87.35,131.68Zm1.24.83c.48.12,1,.2,1.14,1C89.15,133.26,88.72,133.09,88.59,132.51Zm5.28,3.54c-.14.34-.42,0-.61-.16h0l-.93-.62-.72-.45-1-.69c-.3-.14-.66-.23-.64-.71.46-.06.66.28.93.46l1,.68h0l.67.49.7.51C93.55,135.62,94,135.73,93.87,136.05Zm1.16,1c.65-.29.82.15,1.12.25C95.76,137.58,95.54,137.19,95,137.1Zm1.69-.57c-.61-.39-1.22-.76-1.82-1.16a.59.59,0,0,1-.17-.38s.21-.18.25-.15c.68.43,1.6.6,2,1.4Zm-2-3c.55-.25.79.12,1.34.5A2.25,2.25,0,0,1,94.67,133.49Zm2.25-.38c-.23-.69-.77-.12-1.15-.4-1.15-.85-2.64-1.29-3.06-3-.2.53-.24,1-.9.51-1.61-1.14-3.27-2.2-4.94-3.25a1.25,1.25,0,0,1-.6-1.07c-.18-2.43-1-4.75-1.1-7.35A42.77,42.77,0,0,1,90.35,122c.68.6.69,2,1,3a3.78,3.78,0,0,0,1.19,2.37,22,22,0,0,0-.94-4.53c.91.62,2,.92,2.55,1.9.27.49.62,0,1,.27,4.48,3.16,9.74,4.12,14.93,5.3a44.31,44.31,0,0,0,16.47.42,20.8,20.8,0,0,1,14,2.9,35.58,35.58,0,0,0,2.64,7.83h0l.48,1.89c-2.36-2.4-5.28-3.2-8-4.46-1.26-.59-2.55-.39-3.81-.61a21.35,21.35,0,0,0-5.49-.22c-3.67.3-7.34,1.22-11.06.71a31.52,31.52,0,0,1-5.18-1.15,15.43,15.43,0,0,0-4.36-1c-2.79-.08-5.16-1.34-7.56-2.5A2.1,2.1,0,0,1,96.92,133.11Zm44.25,9.79-.72-.47h0c-1.85-.77-3.65-1.67-5.55-2.26a25,25,0,0,0-4.18-.57c-.62-.09-1.23-.22-1.85-.32a27.14,27.14,0,0,1-5.47.48,26.15,26.15,0,0,1-12.25-.26,4.45,4.45,0,0,1-1.74-.69h0l-1.65-.37a2.57,2.57,0,0,1,1.82.12.18.18,0,0,1,.09,0,50,50,0,0,0,9.76,1.06l3.19-.14h0l.17,0a1,1,0,0,1,.33-.06,34.65,34.65,0,0,1,5.75-.54,19.4,19.4,0,0,1,11.85,3.3h0l.72.46h0a2.32,2.32,0,0,1,.95.72,3.62,3.62,0,0,1,1.18.95c.29.07.64.31.46.51s-.47-.08-.63-.31a3.45,3.45,0,0,1-1.25-.92l-1-.7Zm-33.89-4.79c-3.68.28-6.83-1.08-9.75-3.11C100.61,136.57,104,137.25,107.28,138.11Zm-4.54,3.64c0-.09.39,0,.6.09C103.11,142,102.8,142.06,102.74,141.75Zm2.81.77a.86.86,0,0,1,.88,0A.82.82,0,0,1,105.55,142.52Zm5.53,1.08h0c-.39-.06-.84.19-1.16-.22h0c-.39,0-.84.19-1.16-.22h-1.22c.6-.29.91-.32,1.2,0h0v0c.4,0,.84-.16,1.16.22h0v0c.4,0,.83-.16,1.16.22h1.23C111.71,143.89,111.37,143.93,111.08,143.6Zm1.32.51a1.34,1.34,0,0,1,1.15-.22C113.24,144.17,113,144,112.4,144.11Zm1.93.06a1.3,1.3,0,0,1,1.06,0A1,1,0,0,1,114.33,144.17Zm6,.31H117v-.11h3.32Zm19.9,1c-.72-.28-1.47-.51-2.17-.86a20.65,20.65,0,0,0-7.69-1.8,6.24,6.24,0,0,1-1-.23c-2.07,0-4.11.51-6.18.45a25.32,25.32,0,0,1-12.32-.4,4.43,4.43,0,0,1-1.41-.56c-.49-.16-1-.09-1.49-.39a1.41,1.41,0,0,1-.92-.2,14,14,0,0,1-2.66-.27,14.17,14.17,0,0,1-6-2.51,47,47,0,0,0,7.76,2.29l1,.22,1.18.25,1.38.36.12,0A66.24,66.24,0,0,0,117.9,143c1.5,0,3-.13,4.48-.11h0l.18,0a1.3,1.3,0,0,1,.31-.06,36.2,36.2,0,0,1,5.3-.54,19.49,19.49,0,0,1,12.31,3.12,3.79,3.79,0,0,1,1.42,1.06A4.44,4.44,0,0,1,140.22,145.51Zm3.53,1.16c-2.53-2.41-5.78-3.48-8.92-4.75-1.07-.43-2.26-.17-3.39-.41-3.17-.69-6.35-.14-9.49.32a25,25,0,0,1-12.57-1.17,18.16,18.16,0,0,0-4.88-.84c-2.26-.18-4.17-1.37-6.18-2.25-.4-.17-.56-.53-.48-1.13,4.18,2.27,8.81,2.85,13.31,3.87a37.07,37.07,0,0,0,14.12.34,21.45,21.45,0,0,1,18,4.89c.58.49,1.57.66,1.59,1.88A7.86,7.86,0,0,1,143.75,146.67Zm.31-4.08c-.24-.54-.5-1.07-.75-1.6l-2-5.77c-.12-.36-.37-.71,0-1.07l2,1.61c-.05.28-.45.53-.11.82s.5-.36.83-.34c.54.43,1.21.73,1.3,1.56a.57.57,0,0,0,.64.56c.44,0,.5-.3.37-.66,0-.11-.08-.19.07-.26a5.55,5.55,0,0,1,2.6.84c.1.27.21.5.46.31,1.21-.94,2.22.43,3.36.25.23,0,.27.26.33.43.75,2.19,1.49,4.38,2.25,6.62-.82.05-1.57.34-2.15-.39l-.11-.05c-.39-.25-.41-1-1-.9-.2.63.48.81.66,1.25-1.68.53-2.47.19-3.1-1.32-.29-.7-.65-1.37-1-2.16-.9,1.7.5,2.46,1.27,3.66a3,3,0,0,1-2.54-1.52c-.22-.32-.24-.76-.7-.88-.26-.29-.25-.8-.72-.93-.55.63.18.85.43,1.22l.15.81C145.15,144.67,144.56,143.69,144.06,142.59Zm1,2.69,2,.58c.19.06.37.17.28.41a.28.28,0,0,1-.25.16C146.43,146.24,145.64,146.21,145.08,145.28Zm.85,2c.13-.36.47-.11.7-.06a1.64,1.64,0,0,1,1.48,1.11,4.23,4.23,0,0,1-1.77-.29A.61.61,0,0,1,145.93,147.28Zm1.45,2.22-.9-.28a.67.67,0,0,1,.89.07,1.12,1.12,0,0,1,.92.23C148,149.9,147.66,149.59,147.38,149.5Zm.69-3.38c1,.12,1.91.07,2.19,1.29C149.13,147.55,148.34,147.36,148.07,146.12Zm1.66,3.74a1.5,1.5,0,0,1,1.44.47A1.54,1.54,0,0,1,149.73,149.86Zm2.79.65a3.23,3.23,0,0,1,1.71.1A2.15,2.15,0,0,1,152.52,150.51Zm-.87-1.74c-.36-.11-.27,0-.6.33a1,1,0,0,1-1.45,0c-.29-.35-.86-.62-.81-1.3,1.13-.07,2.09.52,3.13.74.72.09,1.54-.23,2.35.75C153.19,149.18,152.33,149.68,151.65,148.77Zm2.83-1.36a7.58,7.58,0,0,1-3.35,0c-.28-.41-.34-.66.31-.55s1.4.21,2.09.31l1.18,0h0l1,0C155.2,147.49,154.89,147.7,154.48,147.41Zm.48,1.5a2,2,0,0,1,1.4,0A.94.94,0,0,1,155,148.91Z"/></g></g></svg>