<svg xmlns="http://www.w3.org/2000/svg" viewBox="0 0 161.02 181.15"><defs><style>.cls-1{fill:#1d314f;}</style></defs><title>Asset 16</title><g id="Layer_2" data-name="Layer 2"><g id="Capa_1" data-name="Capa 1"><path class="cls-1" d="M160.81,153.76c-2.76-8.57-5.44-17.17-7.87-25.84-1.06-3.79-2.36-7.55-2-11.6.25-3.06.31-6.14.64-9.19a25,25,0,0,0-1-11.32c-1-2.85-1.72-5.8-2.6-8.7a11.26,11.26,0,0,1-.45-4.36,103.72,103.72,0,0,1,1.65-11.25,28.62,28.62,0,0,0-1.78-16.63A4.51,4.51,0,0,0,145,52.09c-4.94-1.93-9.85-3.94-15.13-4.8a18,18,0,0,1-4.66-1.43A75.14,75.14,0,0,1,113.46,39a25.93,25.93,0,0,0-11.89-4.28c-3.64-.44-7.29-.88-10.61-2.66-2.07-1.11-4.18-2.15-6.29-3.18-3-1.46-5.86-3.3-9.17-4a34.76,34.76,0,0,1-7.44-2.54c-3.65-1.68-7.2-3.58-11.16-4.52-2.48-.59-4.92-1.35-7.4-1.93-5.32-1.24-10.64-2.67-16.13-2.73A116.79,116.79,0,0,1,13.18,11c-2-.38-2-.37-2-2.27s0-1.83,1.86-2a6.2,6.2,0,0,1,.71-.12c1.36.07,1.95-.46,1.81-1.91-.12-1.2.47-2.4.2-3.65-.09-.4-.11-.63-.59-.68a4.16,4.16,0,0,0-1.89,0A1.3,1.3,0,0,1,11.87,0h-1.2c-.62.79-1.51.69-2.38.77C6,1,3.68.39,1.47,1.31,1,1.52,0,1.14,0,1.9c0,.42.72.89,1.14,1.31s.69.55-.08.73c-.15,0-.16.21-.1.39a3.46,3.46,0,0,1,0,2c-.14.5,0,.74.59.65a4.71,4.71,0,0,1,2.23-.06,4.22,4.22,0,0,0,2.73.29c.45,6.07,0,12.12-.28,18.16-.16,4.39-.44,8.77-.73,13.15-.32,5.05-.17,10.14-.37,15.2-.28,6.86-.88,13.7-.79,20.57,0,4.56-.26,9.1-.62,13.64-.48,6.22-.13,12.45,0,18.67.11,6.79-.17,13.57-.37,20.36C3.09,134,3,141.08,2.78,148.14Q2.4,163.47,2,178.79c-.05,2.48,0,2.6,2.53,2.15.94-.16,2.29.6,2.87-.91a7.91,7.91,0,0,0,.83-3.33c0-.28,0-.56,0-.84Q7.56,168,6.88,160.12a4.36,4.36,0,0,1,.35-2.69A4.91,4.91,0,0,0,7.71,154a8.53,8.53,0,0,1-.11-1.67c.05-2.31.15-4.62.17-6.94a2.24,2.24,0,0,1,.64-1.7A11.28,11.28,0,0,0,11,139.12a139.31,139.31,0,0,0,4.46-18.59c.63-3.55.71-7.24,2.61-10.49a5.68,5.68,0,0,0,.5-2.08c.69-5.18,1.41-10.35,2-15.54a162.92,162.92,0,0,0,1.6-16.8q.09-6.89.19-13.77c0-2.16.56-4.33.14-6.45-.83-4.22-.92-8.49-1.32-12.74-.45-4.76-.66-9.54-2.44-14.08a55.34,55.34,0,0,1-1.57-6.37,30.89,30.89,0,0,0-4.5-9.6,2.24,2.24,0,0,1,2.5,1.51,85.22,85.22,0,0,1,7,21.76,114.45,114.45,0,0,1,1.5,24.81c-.14,3.74-.32,7.5-.21,11.23a162.81,162.81,0,0,1-1.26,22,212.67,212.67,0,0,1-5.64,29.82L16,124c-.19.1-.45.08-.54.35a1,1,0,0,0,.79-.14h0a2.33,2.33,0,0,0,1.21-.26c.43,0,.87-.08,1.3-.16,6.51-1.31,12.83-1,18.87,2.12A30.47,30.47,0,0,0,46,128.54a92.87,92.87,0,0,0,23.49,1,20.14,20.14,0,0,1,9.25,1.32,61.4,61.4,0,0,1,11.43,6.43c5.72,3.92,11.72,7,18.64,8.23,5.93,1.08,11.8,2,17.81,1a22.62,22.62,0,0,1,17.79,4.55,10.17,10.17,0,0,0,2.86,1.46c4.2,1.43,8.58,1.77,13,2.08.32,0,.77.15.78-.44A2.35,2.35,0,0,1,160.81,153.76ZM2.93,5.74c-.5,0-.67,0-.59-.63A22.41,22.41,0,0,0,2.38,2c2.91.08,5.83-.27,8.75-.08.4,0,.79.06,1.19.07,1.21,0,1.78.54,1.39,1.8-.16.51.31.86.38,1.38-1.5.12-2.95.28-4.41.33C7.43,5.62,5.17,5.49,2.93,5.74ZM7.18,118.61c0,6.91-.19,13.81-.41,20.72-.16,4.88-.63,9.76-.53,14.66.17,8-.77,16-.41,24,0,.2,0,.4,0,.6,0,1.84,0,1.78-1.79,1.71-.9,0-1.13-.32-1.07-1.22.87-11.79.67-23.61,1.15-35.42.29-7.05.21-14.12.37-21.19.11-5.22.35-10.44.49-14.64.2-6.69.37-12.36.53-18,.23-8.7.79-17.38,1.21-26.06.25-5.18.52-10.36.61-15.55C7.57,35,8.27,21.68,8,8.38c0-1.05.64-.89,1.24-1,.76-.09.83.43.67.89-.22.67.49,1.62-.59,2,0,0,0,.15,0,.2,1,1.67.44,3.51.4,5.25-.21,9.38-.34,18.76-.51,28.14C9,54,8.59,64,8.32,74.09c-.14,5.06-.23,10.13-.33,15.2C7.8,99.07,7.24,108.83,7.18,118.61Zm8.28-96.27A110.31,110.31,0,0,1,20,43.22c1.71,12.59,1.47,25.22.57,37.87C20,89,18.64,96.76,17.5,104.58a98.35,98.35,0,0,1-3.24,16c-1.8,5.65-3.11,11.46-5.29,17-.16.41-.33.81-.49,1.22l-.25.76a4.74,4.74,0,0,1,0-2.48c.18-4.35-.58-8.72.07-13s-.37-8.58.21-12.87a23.73,23.73,0,0,0,.62-4.36c-.27-4.52.59-9,.5-13.47-.12-7-.36-14-.07-20.94a109.55,109.55,0,0,1,1-12.62,38.24,38.24,0,0,0-.09-10.52,38.49,38.49,0,0,1,0-7c.2-3.47,0-7,.28-10.41.45-5.79.13-11.58.36-17.36a1.72,1.72,0,0,1,.18-1.12A38.46,38.46,0,0,1,15.46,22.34ZM143.81,58.53a.83.83,0,0,0,0,.58c1.08,2.54.84,5.3.75,7.9a17.37,17.37,0,0,1-1.11,5.63,12.43,12.43,0,0,0-.89,4.46c0,3.12,0,6.24.06,9.37a3.86,3.86,0,0,0,.51,1.82c2.06,3.41,2.41,7.37,3.58,11.06.72,2.26.36,4.71.16,7.11s-.78,4.79-.76,7.23c0,1.27-.07,2.55-.1,3.83a13.24,13.24,0,0,0,.64,5.07,20.57,20.57,0,0,1,.93,4.67h0c2.37,5,3.86,10.32,5.57,15.56.08.26.13.54.2.81a3.38,3.38,0,0,1,.47,1.38,1,1,0,0,1,.2,1l-.71.08h0c-.17-.44.71-.22.45-.72-.47-.09-1.4.11-.51-.83.33-.36-.11-.62-.17-.93-1.3-.78-1.34-2.29-1.73-3.46-1.37-4.11-3-8.14-4-12.37-1.47-4.73-3-9.45-2.67-14.51.2-3.38.22-6.77.43-10.16a35.86,35.86,0,0,0-2.25-13.83c-1.26-3.72-2.67-7.45-2.25-11.52a67.09,67.09,0,0,1,1-7.59,43.09,43.09,0,0,0,.84-12.26,8.42,8.42,0,0,0-.88-3.2C143,55.21,144.22,57.35,143.81,58.53Zm-8.37-7.4c1.25,1.14,2.73,2.41,2.59,3.6-.2,1.72.62,3.18.48,4.81-.11,1.23.21,2.49.12,3.69-.16,2.06-.19,4.19-1.15,6.11-.06.1-.19.21-.18.3.2,2-1,3.69-.72,5.72a43.17,43.17,0,0,1,0,5.09c0,2.09-.11,4.2,1.23,6.17a14,14,0,0,1,1.5,4.49c.18.72-.42.08-.63.22a.71.71,0,0,0-.33-.89c-1.11-.72-1.36-1.94-1.81-3-2.39-5.88-2.33-11.88-1-18A43.25,43.25,0,0,0,136.49,57a10.38,10.38,0,0,0-.59-2.68A6.73,6.73,0,0,1,135.44,51.13Zm2.44,68.24a23.67,23.67,0,0,1,.82,4.33c3.09,6.37,4.73,13.25,7,19.91a1.07,1.07,0,0,1,.28.9c-.38-.09-.42-.39-.5-.66-.46-1.14-.95-2.27-1.36-3.43-1.89-5.39-4.24-10.63-5.57-16.22-1.26-4.07-2.7-8.13-2.75-12.44,0-3,.08-6,.24-9,.28-5.33.47-10.7-1.57-15.83-.14-.33-.44-.7-.18-1.13h0c-.5-.35-.49-.87-.53-1.52a1.36,1.36,0,0,1,.54,1.53A26.2,26.2,0,0,1,138,98.31c.23,3.1-.55,6.15-.7,9.22C137.11,111.47,136.38,115.47,137.88,119.37ZM135,53.29a.93.93,0,0,1,.22.54c-.3,2.84.64,5.59.53,8.42,0,.15.1.34.05.47-.73,1.86-.16,4-1.37,5.79a1,1,0,0,0-.17.44,42.76,42.76,0,0,0-.57,8.82,32.06,32.06,0,0,1-.11,4.59,12.86,12.86,0,0,1-1.95-7.12c.12-4.44,1.06-8.78,1.73-13.15a29.84,29.84,0,0,0-.55-11.63A12.8,12.8,0,0,1,135,53.29Zm-8.43-5.38c.9,0,1.26.67,1.58,1.25.51,1,1.64,1.69.86,3.17-.27.52.37,1.55.48,2.38a20,20,0,0,1,0,6.32c-.39,2.08-.13,4.37-1.41,6.28a1.79,1.79,0,0,0-.11,1.17c0,.31.13.7,0,.93-.9,1.5-.44,3.11-.49,4.68.22.2.27.62.1.64-.35,0-.22-.42-.34-.65s0-.56-.28-.7c-.22-.62-.1-1.42-1-1.68a6.13,6.13,0,0,1,.09-3c.73-4.89,1.91-9.72,1.5-14.72a18,18,0,0,0-.68-3.51A7.26,7.26,0,0,1,126.52,47.91Zm-2.93-1c.81-.3,1.06.72,1.48,1.25a12.37,12.37,0,0,1,1,1.51c.12.21.33.53.26.65-.75,1.27.1,2.45.22,3.66a24.34,24.34,0,0,1,0,5.59c-.33,2.29-.23,4.77-1.53,6.88-.05.32.23.73-.24.94l-.45.29a1.15,1.15,0,0,1,.32,1.36,6.81,6.81,0,0,0-.32,2.45c.18.66.46,1.32-.09,1.94.29,1.77.56,3.56.89,5.33a13,13,0,0,1,.27,2.34,4.43,4.43,0,0,0,.91,2.68c1.24,1.63,1.11,3.71,1.92,5.48.07.16.19.4-.12.45a.4.4,0,0,1-.46-.28c-.4-.82-.89-1.6-1.23-2.44-2.15-5.34-4.31-10.67-3.67-16.63a2.4,2.4,0,0,1,.32-1.23.94.94,0,0,1,0-1.25c.51-4.11,1.6-8.15,1.53-12.33a19.86,19.86,0,0,0-.87-6.72C123.49,48.16,123.27,47,123.59,46.87ZM54.84,20.5a70.18,70.18,0,0,1,3.28,10.69A.91.91,0,0,1,58,32c-.31-.36-.6-.72-.9-1.06s-.44-.41-.73-.29-.19.41-.2.65c-.91-2.91-1.56-5.91-2.61-8.78l-1.47-4.07A2.89,2.89,0,0,1,54.84,20.5ZM31.26,15.64a75.56,75.56,0,0,1,6.15,18.93,95.87,95.87,0,0,1,1.81,21.07c-.1,3.5.05,7-.1,10.52-.32,7.93.14,15.9-1.14,23.77-.41,2.6-1.5,5-2.26,7.84a10.28,10.28,0,0,1-.11-4.15c.35-3.12,1-6.22,1-9.38s.18-6.54.33-9.79c.12-2.59.35-5.22.68-7.83s.06-5,.15-7.53a94,94,0,0,0-.31-9.93,105,105,0,0,0-7.37-31.72c-.39-1-.93-1.93-1.41-2.9C30.5,14,30.51,14.09,31.26,15.64Zm-6.45-.14a116.7,116.7,0,0,1,2.9,11.8,1.44,1.44,0,0,1,.24,1,1.92,1.92,0,0,1,.23,1.22,3.82,3.82,0,0,1,.4,1.76c-.55-.47-.4-1.18-.62-1.77l-.22-1-.24-.95a63.37,63.37,0,0,0-5.26-13.52C24.07,13.74,24.35,13.89,24.81,15.5Zm8.33,37.76a4.53,4.53,0,0,1-.38-2.46c-.72-6.59-2-13.09-3.24-19.59-.64-3.25-1.6-6.42-2.4-9.63a1.77,1.77,0,0,1,0-1.16A90.56,90.56,0,0,1,33,48.9,16.75,16.75,0,0,1,33.14,53.26Zm-4.37-8.15c-.94-5.53-1.92-11-3-16.56a38.12,38.12,0,0,0-2.43-8.34,12.57,12.57,0,0,1-.47-1.47,1.37,1.37,0,0,1-.22-1.46,1.39,1.39,0,0,1,.46.95c2.07,4.13,3.14,8.59,4.31,13A95,95,0,0,1,29.7,45.76,51,51,0,0,1,30,53.58a3.91,3.91,0,0,1-.51-2.46A24.62,24.62,0,0,0,28.77,45.11Zm-.63-.38c-.31-.36-.21-.61-.13-.95C28.26,44.12,28.13,44.37,28.14,44.73Zm-1.63-7.8c-.39-.3-.27-.68-.18-1.36.17.65.27,1,.36,1.38l.25,1.18c.07.28.13.56.22.93-.51-.25-.42-.61-.42-.93A1.69,1.69,0,0,1,26.51,36.93Zm.73,3.53-.36-1C27.52,39.72,27.47,40.06,27.24,40.46Zm.35,1.48-.41-1.29A1,1,0,0,1,27.59,41.94ZM26.17,34.8c-.1-.31-.46-.56-.21-.95C26.32,34.13,26.15,34.49,26.17,34.8ZM25.42,32a.8.8,0,0,1,0-.89A.83.83,0,0,1,25.42,32ZM29,34.26c-.11-.52-.21-1-.31-1.42s-.12-.68-.2-1.11c.53.3.4.73.39,1.12A1.43,1.43,0,0,1,29,34.26Zm.38,1.48v0c.44.3.18.75.23,1.13l0,0h0v0A.94.94,0,0,1,29.74,38c-.25-.38-.09-.74-.12-1.09v0a0,0,0,0,1,0,0c-.45-.29-.17-.75-.23-1.13h0v0a.91.91,0,0,1-.11-1.07c.24.37.09.73.11,1.07ZM29.92,39a.83.83,0,0,1,.26,1.1C30.11,39.82,30.05,39.53,29.92,39ZM22.15,16.29a1,1,0,0,1,.49,1C21.93,17.21,22.17,16.68,22.15,16.29Zm-1.52-2.16a79.73,79.73,0,0,1,3.49,11,4.21,4.21,0,0,1,.42,1.75L24.79,28c-.49-.23-.44-.58-.47-.91a4,4,0,0,1-.43-1.46c-1.38-4.15-2.72-8.31-5-12.09C20.12,13.33,20.35,13.38,20.63,14.13Zm-2.14,5.16c.71.44.68.86.9,1.35C18.74,20.35,18.84,19.89,18.49,19.29Zm1.33,2.47c.2.55.31.86.43,1.17C19.69,22.74,19.63,22.42,19.82,21.76ZM20.28,24c.55.15.43.56.46.9a2.11,2.11,0,0,1,.45,1.47,2.75,2.75,0,0,1-.64-1.48ZM21,26.72l.33-.08c.09.36.18.72.35,1.34C21.09,27.5,21.23,27.05,21,26.72Zm1.84,7.1a1.3,1.3,0,0,1-.23-1,1.9,1.9,0,0,1-.26-1.19c-.3-.32-.21-.74-.27-1.12h0c-.3-.39-.2-.84-.44-1.58a1.77,1.77,0,0,1,.67,1.28l.27,1.42.25,1.19.23,1c.1.35.37.69.06,1.16A1.49,1.49,0,0,1,22.88,33.82Zm.76,4.53-.23-1.43c0-.45-.38-.88-.12-1.44.44.45.3,1,.33,1.45a3,3,0,0,1,.27,1.44.69.69,0,0,1,.09.92A1.12,1.12,0,0,1,23.64,38.35Zm1.23,34.58a5.74,5.74,0,0,1,.19-2.67V69a1.63,1.63,0,0,1,.19,1.25,19.94,19.94,0,0,1-.09,2.89c0,.08-.05.18-.07.27,0,1.42-.05,2.84-.08,4.26a40.84,40.84,0,0,1-.4,5.84l-.06,1.34c-.07.68.2,1.41-.39,2.17a6.86,6.86,0,0,1,.12-2.66l.09-1.4c.08-2.64.17-5.27.26-7.91A4.17,4.17,0,0,1,24.87,72.93Zm.65-13.45c0,.47,0,.94,0,1.41h0v4.76h-.2V60.89h0c0-.47,0-.94,0-1.41V57.83h.22v1.66Zm-.07,7.2c.1.46.14.74-.08,1C24.92,67.37,25.21,67.1,25.45,66.68ZM25.19,50.5a2.05,2.05,0,0,1,0-1.35A2.23,2.23,0,0,1,25.19,50.5ZM24.11,88.26a.24.24,0,0,1,.16.18l-.16-.18v-.79h.16v1c0,.29.12.62-.32.73A.64.64,0,0,1,24.11,88.26Zm-.34,1.45.31,0-.27,2.51A4.54,4.54,0,0,1,23.77,89.71Zm-.08,3a.7.7,0,0,1-.22,1A.74.74,0,0,1,23.69,92.75Zm-.33,1.33c.42.83-.07,1.58-.08,2.38A3.31,3.31,0,0,1,23.36,94.08Zm-2.1,13.83.19-1a4.26,4.26,0,0,1,.31-2.39l.2-.73c.1-.53.19-1.06.3-1.69.33.67,0,1.17-.1,1.69a1.49,1.49,0,0,1-.19,1h0l-.3,2.08a1.29,1.29,0,0,1-.23,1,1.38,1.38,0,0,1-.44,1.31C21.08,108.78,21.17,108.35,21.26,107.91Zm-.19,2c.18.35-.06.57-.23.83A.62.62,0,0,1,21.07,109.87Zm-2.69,12c0,.21,0,.45-.2.63-.41-.37-.1-.77-.05-1.16a3.83,3.83,0,0,1,.78-1.86A7.17,7.17,0,0,1,18.38,121.87Zm1.73.22c-.06.28,0,.68-.45.76-.24,0-.5.19-.69.12s-.16-.41-.12-.63a11.38,11.38,0,0,1,.35-1.51,87.5,87.5,0,0,0,3.22-15.27c.28-1.92.92-3.8,1.18-5.72.41-3.12.56-6.28,1-9.39,1.05-7.93,1.12-15.92,1.6-23.88A142.41,142.41,0,0,0,26,51.25a115.88,115.88,0,0,0-4.6-26.08,50.5,50.5,0,0,0-5.07-12,1.61,1.61,0,0,1,2,1.13,84,84,0,0,1,6.12,17.55A101.78,101.78,0,0,1,27,54.35c0,4.07,0,8.14-.1,12.2-.2,9.52-.29,19.07-1.58,28.54a201.18,201.18,0,0,1-4.41,23.74C20.58,119.91,20.38,121,20.11,122.09Zm3.53-1.93a6.42,6.42,0,0,1-.75,2.39,3.09,3.09,0,0,1,.13-1.67c0-.28.34-.77-.35-.72-.22.64-.41,1.29-.67,1.91a.59.59,0,0,1-.77.4c-.35-.14-.21-.47-.14-.73a10.55,10.55,0,0,1,.45-1.48c2-4.66,2.46-9.62,3-14.57a17.82,17.82,0,0,1,1.06-4.39,7.72,7.72,0,0,0,.63-3.84c-.34-2.58.26-5.1.6-7.59.53-3.89.62-7.79.79-11.68s.62-7.94.74-11.9c.15-5.05.55-10.12,0-15.18-.5-1.7-.06-3.43-.15-5.14a4.81,4.81,0,0,1,.42,2.24c.54,4.68.86,9.38,1.06,14.08.13,2.94-.1,5.89,0,8.83a170.6,170.6,0,0,1-2.25,30.29,126.39,126.39,0,0,1-2.83,14.66,9.84,9.84,0,0,0-.72,2.87A1.64,1.64,0,0,1,23.64,120.16Zm2.24,1.92a10.08,10.08,0,0,1-1.65-.07c-.17,0-.06-.34,0-.53a10.78,10.78,0,0,1,.44-1.36c1.11-2.49,1.48-5.2,2.31-7.77a26.87,26.87,0,0,1,1.54-4.24,2.29,2.29,0,0,0,.35-1.86c-.76.51-.6,1.58-1.4,2.13a20.86,20.86,0,0,1,1.28-7.18,7.94,7.94,0,0,0,.61-3.48c-.38-2.67.22-5.26.57-7.83.47-3.33.45-6.68.75-10,.17-1.91-.07-3.85.11-5.73s.18-3.91.49-5.82c.46-2.79.17-5.58.28-8.36a64.94,64.94,0,0,0-.07-8.6h0a5,5,0,0,1,0-2.84c.07.61.15,1.22.23,1.83.74,6.24,1.56,12.47,1.08,18.81-.25,3.21,0,6.46-.1,9.69-.14,5.42-.77,10.81-1.35,16.2-.17,1.59-.77,3.1-1,4.63-.24,1.89-1.27,3.5-1.43,5.37,0,.22-.4.9.4.44l.29-.68.27-.69a.67.67,0,0,1-.05.91,2.39,2.39,0,0,1-.26,1.2,97.85,97.85,0,0,1-2.23,11c-.38,1.34-.61,2.72-.93,4.08C26.39,121.65,26.39,122.09,25.88,122.08Zm1.33-.52.44-1c0-1,.87-1.8,1-2.8a77.64,77.64,0,0,0,2-11.63A21.53,21.53,0,0,1,32,100.68,7,7,0,0,0,32.44,97a7,7,0,0,1,.16-2.58,8.21,8.21,0,0,0,.26-3.2c-.06-.38-.22-.9.34-1.15s.68-1,.85-1.51-.25-.44-.57-.36l0,0v.06c-.11.07-.11.2-.13.31l-.06.14a3.76,3.76,0,0,1,.17-1.91c.15-3,.42-6.06.42-9.09,0-4,.68-7.93.74-11.89.07-5.09.16-10.19-.09-15.31C34,39.84,31.35,29.68,27.94,19.66a43.11,43.11,0,0,0-2.43-5.32c2-.26,1.92-.22,2.71,1.41a79,79,0,0,1,6.31,19.87,118.83,118.83,0,0,1,1.59,24.21c-.11,5.94-.45,11.88-.26,17.83A9.68,9.68,0,0,1,35,81.82s0,.15.11.18.14,0,.21,0c.3.06.22.33.29.52-.72,8.81-1.48,17.63-3.41,26.28A39.48,39.48,0,0,1,28.91,118a9.81,9.81,0,0,1-1,2.82C27.8,121.15,27.83,121.55,27.21,121.56Zm4-7.07c-.15.38,0,.84-.55,1.27A1.9,1.9,0,0,1,31.18,114.49Zm-1.07,4c-.21,1-.4,2-.63,3-.06.27,0,.71-.48.7a1.35,1.35,0,0,1-.89-.2c-.26-.27.11-.56.24-.83l1.56-3.2c.19-.48,0-1.07.54-1.69a3.6,3.6,0,0,1-.28,2Zm.77,4c-.87,0-.62-.69-.45-1.15a9.31,9.31,0,0,1,1.14-2.86.59.59,0,0,0,.15-.32c0-2.49,1.48-4.65,1.47-7.18a25.68,25.68,0,0,1,2.24-9.44c.65-1.66,1.09-3.41,1.63-5.11l.25-1.17h0l.18,0a2.3,2.3,0,0,1-.18,1.46c-.52,4.68-1.49,9.29-2.27,13.93-.65,3.81-1.89,7.49-2.55,11.29C32.27,123.14,31.47,122.5,30.88,122.47Zm3.8,1c-.46-.23-1.28,0-1.3-.92a8.85,8.85,0,0,1,1-3.64c.09-.22.35-.41.35-.62-.05-2.11,1.25-3.89,1.38-6a42.47,42.47,0,0,1,1.61-10.22,23.48,23.48,0,0,0,.81-6.55c.1-3.09.7-6.15,1.05-9.23.51-4.48,1.64-8.86,2-13.35,0-.23,0-.47,0-.7h0c.21-.35.47-.71,0-.89a1.41,1.41,0,0,0-.3-.08v.47l-1,6.68-.21,1.1-.17,0v-4.9c.29-3.52.69-7,.85-10.57a84.17,84.17,0,0,0,0-10.17c-.28-3.54.12-7.14-.67-10.61-1.85-8.06-3-16.31-6.22-24-.69-1.65-1.45-3.26-2.29-4.86,2-.38,1.93-.35,2.71,1.33a77.17,77.17,0,0,1,4.88,13.58,99.67,99.67,0,0,1,3.08,25c0,4-.36,8-.05,12.08A15.08,15.08,0,0,1,42,68.81c0,3.71,0,7.41,0,11.12a1.64,1.64,0,0,1-.15.44c-.39,6.37-.88,12.73-1.85,19-.69,4.49-1.45,9-2.33,13.43-.66,3.36-1.56,6.67-2.37,10C35.25,123.15,35.21,123.69,34.68,123.42Zm1.75-.68c.16-.49-.06-1.14.2-1.64,1.16-2.14,1.18-4.65,2.24-6.83a3.83,3.83,0,0,0,.27-1.4,41.23,41.23,0,0,1,1.51-10c.9-2.75.83-5.52,1-8.33.21-3,.85-6.07,1-9.13.19-3.59.36-7.17.39-10.77,0-3.17.82-6.34.77-9.51-.07-4.82.54-9.65-.17-14.46-.36-2.37.19-4.8-.38-7.16-1.93-8.05-3-16.33-6.2-24a36.65,36.65,0,0,0-2.36-4.94c1.92-.26,2-.14,2.85,1.57a73.31,73.31,0,0,1,5.93,18.37,97.71,97.71,0,0,1,1.87,20.71c-.08,3.74.06,7.53-.12,11.24-.33,7,0,14.12-.78,21.16s-1.62,13.87-2.86,20.75c-1,5.49-2.48,10.87-3.65,16.33C36.88,124.4,36,124.17,36.43,122.74ZM39,125.19c-.21-.17-.23-.29-.11-.48.93-1.46.52-3.25,1.2-4.8,1.92-4.37,2.32-9.07,2.88-13.74a21.8,21.8,0,0,1,1.34-5.43A7.46,7.46,0,0,0,44.71,97c-.35-2.46.32-4.85.6-7.24.59-4.84.65-9.7.86-14.56.14-3.17.75-6.34.71-9.5-.05-5,.59-10.05-.15-15.07-.34-2.28.2-4.64-.33-6.92-2.08-9-3.3-18.13-7.23-26.58-.31-.69-.66-1.36-1-2.13a2.75,2.75,0,0,1,2.94,1.91,76.85,76.85,0,0,1,5.57,17.87,94.73,94.73,0,0,1,1.77,20.94c-.11,3.54.11,7.13-.08,10.65-.39,7.13,0,14.28-.81,21.41-.76,6.79-1.58,13.55-2.78,20.27-1,5.58-2.45,11-3.72,16.56C40.74,125.78,40,126,39,125.19Zm3.31,1.17c-1-.21-.8-.79-.47-1.3.94-1.44.55-3.19,1.19-4.69,1.94-4.54,2.44-9.37,3-14.2a21.87,21.87,0,0,1,1.38-5.53,5.84,5.84,0,0,0,.39-3.06c-.43-2.66.28-5.25.59-7.83.29-2.38.43-4.76.56-7.14.15-2.7.15-5.43.27-8.12a54.06,54.06,0,0,1,.68-7.6,2.54,2.54,0,0,0,.07-.47c-.1-4.71.43-9.43,0-14.13-.28-2.79.19-5.61-.43-8.35-2-8.81-3.24-17.83-7-26.18-.29-.65-.6-1.29-.95-2.06a3,3,0,0,1,3,2.61A4.34,4.34,0,0,0,45,19.56c2.15,3.88,3,8.19,4.07,12.44a82.69,82.69,0,0,1,2.43,19.66c0,5.79.07,11.57-.23,17.36-.2,3.74.08,7.52-.14,11.26a215.86,215.86,0,0,1-3.63,29.43c-1.07,5.36-2.43,10.64-3.69,16C43.55,126.76,43,126.52,42.3,126.36Zm2.9.72c-.73-.07-.88-.47-.6-1.07.93-2,.88-4.19,1.69-6.16,1.84-4.45,2.25-9.16,2.83-13.87a19.3,19.3,0,0,1,1.31-5.19,5.72,5.72,0,0,0,.47-3.16c-.45-2.63.22-5.18.56-7.71.44-3.3.54-6.6.7-9.9.19-4,.34-8,.65-12a115.81,115.81,0,0,0,.1-17c-.14-2,.11-4-.22-6C52,40.81,51,36.61,50.16,32.4c-.47-2.31-1.33-4.54-1.68-6.84-.5-3.32-2.63-6-3.32-9.25,1.63.12,2.27,1.44,2.87,2.64a28.07,28.07,0,0,1,2.88,8.57c.32,2.21,1.43,4.12,1.74,6.28s.74,4.41,1,6.62a89.64,89.64,0,0,1,.88,14.09c-.1,3.91.14,7.83-.06,11.73-.4,7.61-.18,15.23-.95,22.84-.83,8.07-2.09,16.06-3.63,24-.89,4.53-2.22,9-3.3,13.47C46.38,127.65,45.76,127.12,45.2,127.08Zm3.39.71c0-.84.74-1.58.32-2.53a2.35,2.35,0,0,0-.59,1.15c-.15.41.14,1-.49,1.21-.36-.06-.45-.3-.34-.61,1-2.63,1.08-5.5,2.26-8.07.16-.33.31-.65.47-1,.16-.53,0-1.09.14-1.63a1.81,1.81,0,0,1,.09-.31c1.44-3.32,1.09-6.94,1.77-10.38a24.75,24.75,0,0,1,1.3-5A7,7,0,0,0,54,97a10.27,10.27,0,0,1,.12-3.32,61,61,0,0,0,.85-7.11c.16-4,.48-8,.43-12a35.69,35.69,0,0,1,.49-5.81c.57-3.73.2-7.48.38-11.22.13-2.59-.23-5.17-.29-7.76-.2-8.86-2.69-17.26-4.93-25.72a2.36,2.36,0,0,1,0-.25c.47,0,.64.38.89.65.58-.49,0-.84-.18-1.18-1.07-2-2.63-3.67-3.13-6,1.07.08,2,.22,2.46,1.42.69,1.72,1.44,3.43,2,5.21.17.53.33,1.14-.64.8A1.71,1.71,0,0,0,53.09,26,5.22,5.22,0,0,1,54.51,29a98.33,98.33,0,0,1,3.15,26.18c0,3.67.06,7.36-.11,11-.3,6.77.1,13.56-.72,20.32-.61,5-.88,10.1-1.76,15.1-.22,1.19-.89,2.3-.61,3.59.06.25-.24.45-.39.67-.45.65-.88,1.35-.26,2.2.17.23,0,.69,0,1h0a3.69,3.69,0,0,0-1.37,3.71l.48-1,0-.07c.06-.22.13-.44.19-.65s.13-.73.45-1h0c-.17.27-.12.63-.29.91-.06,0-.11,0-.15.06l.1,0h.12a1.93,1.93,0,0,1-.22,1.23,20,20,0,0,1-1,4.27c-.15.56-.29,1.12-.44,1.68a2.42,2.42,0,0,1,.08-1.87,3.53,3.53,0,0,0,.14-.56c-.11-.3.2-.72-.37-1-.28.83-.56,1.63-.84,2.43h0v0l-.28,1-.3.85-.07.18c.07.55-.38,1.3.27,1.58.46.18.53-.53.7-.9,0,0,0,0,0,0,.2-.47-.14-1.19.65-1.39a9.82,9.82,0,0,1-.39,1.77.7.7,0,0,1-.06.17c-.41,2.34-1.13,4.6-1.71,6.9C49.35,127.88,49,127.8,48.59,127.79Zm3.51-.46c-.09.34,0,.82-.66.78s-1.18-.13-.92-1a5.57,5.57,0,0,1,.22-1c1.26-2.5.89-5.49,2.46-7.9.2-.29.13-.77.18-1.16a3.84,3.84,0,0,1,.19-1.29c1.55-2.81,1-6,1.6-9a43,43,0,0,1,1.45-6,6.24,6.24,0,0,0,.4-3.06c-.42-2.55.2-5,.53-7.47.53-3.94.66-7.87.81-11.81.16-4.25.72-8.48.83-12.72.13-5,.5-10-.14-15.06-.33-2.6.19-5.28-.51-7.85-.94-3.39-1.49-6.86-2.24-10.28a6.77,6.77,0,0,1-.07-1c.87,1.15,1.79,2.27,2.6,3.47.6.88.49,2,.64,3a103.72,103.72,0,0,1,1.26,17.88c-.08,3.5.06,7-.1,10.51-.33,7.32,0,14.67-.88,22-.69,5.79-1.19,11.6-2.35,17.31-.24,1.16-1.09,2.18-1.3,3.41-.05.31-.06.31.36.3l.35-.85c.18.38.21.64-.1.85l-.26,1.42c-1,.36-1.28,1.12-.72,2.17l.19-.26.27-.38a1.15,1.15,0,0,1-.19.92c-.07.68-.07.68-.83,1-.31.13-.69,1.84-.38,2.12.74.65.24,1.27-.13,1.65a3,3,0,0,0-.82,2.52,4.37,4.37,0,0,1-.74,3.3C52.42,124.72,52.43,126.14,52.1,127.33Zm3.33.68c-.33.87-1,.3-1.53.32s-.41-.44-.33-.75c.67-2.72,1.24-5.47,2.11-8.13.38-1.13.48-2.36.91-3.38,1.45-3.48,1-7.22,1.85-10.76a20.67,20.67,0,0,1,1.27-4.71,5.36,5.36,0,0,0,.38-3.17c-.37-2.59.25-5.11.57-7.6.61-4.73.65-9.46.88-14.2.13-2.73.32-5.47.56-8.2a16.44,16.44,0,0,0,.22-2.62c-.18-3.07.2-6.14.08-9.21-.17-4.14,0-8.36-.8-12.39-1-5.23-1.91-10.51-3.4-15.65a4.77,4.77,0,0,1-.11-.59c.41-.17.54.43.84.12s0-.45-.14-.64c-.93-2.06-2.26-3.94-2.93-6.13-.07-.26-.16-.5-.25-.78a2.78,2.78,0,0,1,2.87,2.19c.84,2.68,1.65,5.38,2.39,8.09-.41.16-.67-.3-1,0,.41,1.77,1.94,3,2.2,4.91.9,6.56,1.84,13.1,1.72,19.76-.07,3.94,0,7.91-.14,11.84-.33,7.28.1,14.6-.87,21.87-.55,4.19-.48,8.49-1.53,12.58-2.24,8.66-2.74,17.67-5.55,26.2C55.62,127.31,55.56,127.67,55.43,128Zm51.73,16a34.12,34.12,0,0,1-6.61-2,1.79,1.79,0,0,1-1-1.16,47.31,47.31,0,0,1-1.32-5.21,3,3,0,0,0-.75-1.59c.46,2.27.14,4.65,1.19,6.9a3.11,3.11,0,0,1-2.57-2.79A24.19,24.19,0,0,0,94.15,132c-.13-.32-.17-.7-.76-.9.38,1.54.72,3,1.09,4.4.22.85.5,1.68.74,2.52.08.26.27.56,0,.77s-.45,0-.66-.16c-1.78-1.14-3.59-2.24-5.32-3.44-.81-.56-.84-1.59-1-2.48-.65-4.28-1.76-8.48-2.3-12.78a5.1,5.1,0,0,0-.3-1c-.42.13-.33.43-.32.7a31.82,31.82,0,0,0,1.37,8.44,10.87,10.87,0,0,1,.74,4.93c-.05.34.22.73.38,1.24a52.34,52.34,0,0,1-5.17-3c-.8-.59-.69-1.89-.78-2.9a21.58,21.58,0,0,0-.76-4.59c-.37-3.14-.73-6.29-1.1-9.43l-.3,0c0,.12,0,.25,0,.37s-.09.12,0,0h0a30.7,30.7,0,0,0,1.1,9.09.65.65,0,0,0,.11.39c.4,2.1.18,4.26.78,6.49L79,129.63a18.79,18.79,0,0,0-9.14-1.3,89.75,89.75,0,0,1-11.24.33c-.94,0-1.3-.18-1.06-1.28.54-2.58.68-5.25,1.4-7.77.5-1.73.27-3.66,1.37-5.24a2.31,2.31,0,0,0,.24-1c.28-2.49.44-5,.87-7.47a22,22,0,0,1,1.34-5.19,5.47,5.47,0,0,0,.4-2.93c-.41-2.67.2-5.27.56-7.84.46-3.25.44-6.52.74-9.77.18-2-.06-4,.12-6s.17-3.91.49-5.83c.45-2.66.09-5.33.3-8,.39-5-.32-10-.34-15.07,0-2.82-1.25-5.51-1.69-8.3a91.06,91.06,0,0,0-4-15.61c-.07-.21-.26-.42.06-.78.55,1,1.09,1.94,1.56,2.92q5,10.14,9.89,20.3a4.3,4.3,0,0,0,1.76,2.06C69.09,37.31,65,29.3,60.82,21.28c.32-.26.57,0,.78.1A66.78,66.78,0,0,0,75.5,26a8.91,8.91,0,0,1,2.32.94c4.36,2.15,8.75,4.24,13.06,6.5a31,31,0,0,0,11.51,2.94,21.59,21.59,0,0,1,11.08,4.36c.84.64,1.28,1.8,2,2.67a19.67,19.67,0,0,1,1.49,2.3,1.46,1.46,0,0,1,.3.76c-.38,2.95.59,5.83.42,8.78a6.09,6.09,0,0,1-.36,2.44,2.12,2.12,0,0,0-.21,1.28,5.9,5.9,0,0,1-.62,3c-.06.19-.3.36-.28.52.21,1.59-.81,3-.76,4.51.12,3,.27,6,.66,9a16.64,16.64,0,0,0,1.64,5.25c.79,1.61.91,3.53,1.5,5.25,1.31,3.8.37,7.69.56,11.53a20.85,20.85,0,0,1-.46,5.19c-.54,2.68-.06,5.25.39,7.84a62.36,62.36,0,0,0,3.22,12c2,5,3.53,10.06,5.25,15.1.74,2.14,1.41,4.3,2.07,6.35C122.49,146.45,114.81,145.94,107.16,144Zm23.84-.57c-2.79-8.39-5.69-16.74-7.94-25.29-1.15-4.35-2.47-8.75-2.28-13.28.2-4.71-.12-9.42.23-14.12a15.1,15.1,0,0,0-.91-5.38c-.65-2.26-1.28-4.52-2.07-6.73-1.77-4.9-1.64-9.84-.63-14.86a51.72,51.72,0,0,0,1.12-14.15,11.89,11.89,0,0,0-.55-2.57,7.73,7.73,0,0,1-.46-2.77,13.29,13.29,0,0,1,2.67,3.59,1,1,0,0,1,.14.46c-.33,2.94.52,5.84.33,8.77,0,.08,0,.17,0,.24-.71,2.13-.39,4.49-1.4,6.56-.06.11-.18.22-.17.31.24,1.92-.91,3.63-.71,5.6.28,2.73.63,5.44,1,8.16a14.87,14.87,0,0,0,1.53,4.78,27.47,27.47,0,0,1,1.46,4.9c1,3.92.47,7.94.44,11.9a39.62,39.62,0,0,1-.58,6.38c-.33,1.83.17,3.65.44,5.46A57.8,57.8,0,0,0,126,124.1c2.48,6.31,4.35,12.8,6.59,19.18.16.45.28.91.42,1.37C131.8,145,131.35,144.5,131,143.45Zm2.74.25c-3.13-9.74-6.66-19.35-8.79-29.39a44.78,44.78,0,0,1-1.07-11.13c.16-4.1-.07-8.21.15-12.32.1-1.92-.74-3.74-1.28-5.57q-1.22-4.12-2.44-8.25c-1.33-4.45-.44-8.85.25-13.26.62-3.94,1.42-7.86,1-11.89a9.84,9.84,0,0,0-.36-2.36,21.17,21.17,0,0,1-.88-4.44,13.49,13.49,0,0,1,2.9,3.9c.07.13.16.38.1.44-.86.86-.11,1.72,0,2.55a25.43,25.43,0,0,1,.16,6.8,24.44,24.44,0,0,1-.9,5.19c-.33,1.06-.91,2-.62,3.21a.61.61,0,0,1-.31.72c-.37.12-.09-.54-.55-.47-.21,1.59.37,3.13.34,4.7,0,2.72.84,5.33.92,8a4.23,4.23,0,0,0,.72,2.26,14.14,14.14,0,0,1,1.42,3.5c1.43,4,1.4,8,1.25,12.14-.12,3.18-.46,6.33-.67,9.5a28.26,28.26,0,0,0,1.25,8.49,138.41,138.41,0,0,0,5.17,16c1.6,4.23,2.83,8.61,4.24,13A1.68,1.68,0,0,1,133.74,143.7Zm2.76.34c-3.25-10-6.8-19.9-8.91-30.23a28.64,28.64,0,0,1-.73-8.67,43.52,43.52,0,0,0,0-6.46,58,58,0,0,1,.17-6.33,23.81,23.81,0,0,0-.37-3.25c1.28,1.27,2.29,2.39,2.25,4.21-.07,2.75,0,5.52-.16,8.25a57.48,57.48,0,0,1-.59,6.39c-.37,2.25.26,4.45.66,6.64A61.37,61.37,0,0,0,132,126.32c2,5,3.55,10.21,5.34,15.31.46,1.32.86,2.66,1.33,4.08A2,2,0,0,1,136.5,144Zm3,1.08c-3.32-10.23-7-20.36-9.07-30.93a31.07,31.07,0,0,1-.58-8.56c.17-2.14,0-4.31,0-6.46a17.53,17.53,0,0,1,0-3,18.47,18.47,0,0,0-1.21-9.13,3.56,3.56,0,0,1-.07-.44c1.19-.42.27-1.12.24-1.69s-.3-.83-.44-1.24a19.53,19.53,0,0,1-2.28-5.56,12,12,0,0,1-.49-4.34c.05-.38-.16-.88.35-1.12l.56.72a2.15,2.15,0,0,0,.33,1.72A27.16,27.16,0,0,1,128,78.86c.44,1.49.34,3.06.69,4.56.14.33.29.66.43,1a4.82,4.82,0,0,1,1.26,3.1c.67.88-.15.62-.54.7-.2.48.06.75.46.91.78.32.85,1,1.07,1.71,1.18,3.89.36,7.86.4,11.78a27.87,27.87,0,0,1-.59,6.52,11.8,11.8,0,0,0,.24,3.92c.41,3.7,1.88,7.16,2.56,10.79.54,2.92,2.06,5.42,3,8.17,1.63,4.94,3.22,9.9,4.86,15A2.6,2.6,0,0,1,139.52,145.12Zm2.64.07c-2.44-8-5.36-15.92-7.36-24.09a57.69,57.69,0,0,1-2.05-11.38c-.08-1.84.23-3.65.18-5.49-.09-3.31-.15-6.62.09-9.93.16-2.23-.79-4.29-1.4-6.39-.29-1-.59-2-.88-3-.29-.34-.27-.78-.43-1.24.46.08.57.41.71.7a.27.27,0,0,0,.19,0c.29.6,0,1.53,1,1.74v.08a.51.51,0,0,0,0-.17c.42-.88-.53-1.28-.74-2a40.48,40.48,0,0,0-2.26-4.92,11.59,11.59,0,0,1-.59-5.11l0-1.25s.05,0,.07,0a.93.93,0,0,1,.1,0c.13-.14.39-.34.36-.42-.88-2.32.24-4.52.54-6.73A66.18,66.18,0,0,0,130.58,55c-.07-2-1-3.77-1.14-5.72-.07-.71.16-.63.58-.62a2.18,2.18,0,0,1,1.85,2.83.81.81,0,0,0,0,.68,9.85,9.85,0,0,1,.65,4.09c0,.88.15,1.77.12,2.62a16.44,16.44,0,0,1-1.13,6.46c0,.11-.18.21-.17.3.24,1.7-1,3.18-.73,4.87.27,1.51-.19,3,.11,4.52.15.73-.3.43-.62.3-.14.1-.21,0-.3-.08,0,.16.19.19.25.32a13.33,13.33,0,0,1,.72,4.3,3.87,3.87,0,0,0,.95,2.39c1,1.22.62,2.9,1.63,4.32l-1.11-.32c-.29.36-.19.79.15.9,1.08.33,1.11,1.33,1.47,2.12a17.49,17.49,0,0,1,1.2,9.16c-.42,4-1,7.88-1,11.86a13.42,13.42,0,0,0,.6,5.19,6.91,6.91,0,0,1,.52,2.08c.22,3.28,2.06,6,3,9,1.83,5.6,3.64,11.2,5.5,16.79.28.84.18,2.09,1.62,2.07,0,0,.06.14.09.22a34.17,34.17,0,0,1,1.32,4.45C144.5,149,142.91,147.67,142.16,145.19Zm8.13,5.95c-.29.43-.71,0-1.08,0-1.91-.26-1.56-2-2.17-3.19.4.1.49.53.9.45.05-1.24-.77-2.32-.62-3.56l.5.26a2.42,2.42,0,0,0,.89,1.88c0-.14,0-.28,0-.42a1.3,1.3,0,0,0,.15.18s0,0,0,0A1.34,1.34,0,0,0,149,146h0a.7.7,0,0,1-.22-.64v0h0l-.4-.3c-.53-.08-.32-1-1-.9,0-.27.29-.65-.26-.74-.26,0-.54-.28-.35-.47,1-1-.07-1.33-.52-1.82-.19-.21-.46-.33-.33-.66.2-.51.33-.89-.41-1.15-.21-.07-.25-.81-.38-1.21-1.28-4.21-2.93-8.29-4.1-12.54-1.34-4.86-2.58-9.67-2.2-14.8.17-2.29.35-4.61.37-6.91,0-4.34.3-8.71-1.45-12.84.55-.21.71.24,1,.34.11,1,1,1.5,1.39,2.45a21.39,21.39,0,0,1,.76,9.76c-.53,4.5-1.33,9.07-.63,13.55.54,3.48,1,7.1,2.74,10.32a15,15,0,0,1,1.61,4.35c.83,4.32,2.94,8.22,4,12.44.07.27.13.54.2.81.32.26.21.69.41,1s.21.62.31.93a2.16,2.16,0,0,1,.39,1.35,1.31,1.31,0,0,1-.41-1.07L149,147a3,3,0,0,0,.86,3C150.19,150.28,150.59,150.7,150.29,151.14Zm2.78-1c-.34-.05-.93-.39-.51.45.23.45.44.91.69,1.44-1.12-.14-2.25-.11-2.37-1.65,0-.24-.43-.45-.58-.71s-.44-.61.27-.37.34-.38.3-.58c-.18-.85-.41-1.69-.66-2.69.66.64,1.22,1.06,1.19,2,0,.71.59,1,1.19.69-.8-1.6-1.59-3.2-2.39-4.81-.3-.1-.13.65-.51.31s0-.58.23-.81c-1.59-2.43-2.3-5.23-3.19-7.94-1.84-5.64-3.82-11.25-4.74-17.13-.61-3.84-.18-7.71,0-11.58.32-5.8.23-11.57-2-17.09-.59-1.43-.89-3-1.41-4.44-1.57-4.43-1.06-8.91-.23-13.35.89-4.77,1.69-9.55,1-14.38a27,27,0,0,0-1.73-6.62,3.37,3.37,0,0,1,2.08,1.68c.63,1,1.8,1.69,1.17,3.33-.26.69.42,1.87.55,2.86a20.53,20.53,0,0,1,.2,5.11c-.25,1.89,0,4-1.26,5.69a.35.35,0,0,0-.09.22c.23,1.46-.68,2.72-.67,4.14,0,3.19,0,6.37,0,9.55a4,4,0,0,0,.61,2.17c1.35,2,1.66,4.35,2.24,6.61a5.28,5.28,0,0,0,.3,1c1.43,2.91,1.41,6.09,1.22,9.15-.12,1.94-.57,3.95-.68,5.89-.23,3.83-1,7.72.38,11.51a12.85,12.85,0,0,1,.5,2.21,19.86,19.86,0,0,0,1.74,5.56c1.75,3.69,2.61,7.7,3.95,11.53,1,3,2,6,3,9a2.12,2.12,0,0,0,1.11,1.52c.08-1.08-.7-2-.44-3.09.22.12.37.39.68.31.86,1.82,1.15,3.88,2.4,5.53l-.19.23C154.51,152.84,153.92,151.29,153.07,150.11Zm5.32,2.62c-.4.16-.53-.23-.74-.55-1.84-2.86-2.35-6.2-3.44-9.33-2.08-5.93-4-11.92-5.56-18a31.91,31.91,0,0,1-.91-8.77c.12-5,.57-9.89.3-14.84-.16-3-1.2-5.76-2.07-8.57-.41-1.33-.79-2.68-1.26-4-1.75-4.9-1.15-9.83-.19-14.76.87-4.44,1.53-8.93.82-13.43C145,58,144.66,55.33,143,53a2.93,2.93,0,0,1,2.83,1.61c1.37,2,1.3,4.39,1.75,6.65,1,4.88-.18,9.58-1,14.32a59.55,59.55,0,0,0-.92,8.93c-.07,2.36.76,4.55,1.37,6.78.81,3,1.65,5.9,2.5,8.85a13.51,13.51,0,0,1,.14,4.53c-.24,5.09-1,10.18-.65,15.29.22,3.46,1.44,6.7,2.33,10,1.94,7.2,4.79,14.1,6.91,21.25a4.15,4.15,0,0,1,.19.69C158.44,152.19,158.85,152.54,158.39,152.73Z"/><polygon class="cls-1" points="134.25 85.84 134.25 85.84 134.26 85.85 134.25 85.84"/><path class="cls-1" d="M25.31,60.89h.2C25.45,60.8,25.38,60.8,25.31,60.89Z"/><path class="cls-1" d="M25.52,59.48H25.3C25.37,59.58,25.45,59.57,25.52,59.48Z"/><path class="cls-1" d="M88.47,78.78q9.11,2,18.2,4.08c.6.13,1,.13,1.2-.54a47.43,47.43,0,0,0,1.58-6,11.81,11.81,0,0,0-3.14.92c.68.39,1.3.06,1.9.28a5.63,5.63,0,0,0-.17.68c-.1.89-.42,1.28-1.45,1-1.33-.4-2.73-.57-4.08-.89-.42-.1-1.09,0-1.19-.38s.47-.84.81-1.19c.88-.89,1.25-.78,1.57.4s.49,1.27,1.46.52c-1.4-.86-.78-2.53-1.42-3.77-2.12,1.09-3.23,3.18-4.92,5.08.06-.88.05-1.47.15-2,.4-2.29,1.27-4.49,1.46-6.82.08-1,.64-2-.1-2.94-1.17-.85-1.25.55-2,.81.75.39,1.06-.23,1.54-.34.16.74,0,1.14-.89.94a1.47,1.47,0,0,1-1.33-1.17c-.27-1.07-.73-2.08-1-3.18-.32-1.52-.92-3-1.45-4.63-1.86,2.36-3.74,4.43-5.32,6.73-.82,1.19-1.48,1.28-2.16,0a4.89,4.89,0,0,0-2-1.85c-.09-.15-.27-.27-.36-.15a.74.74,0,0,0,.06.93A68.83,68.83,0,0,0,86.91,77c.4-1.21,1.27-.89,2.14-.69,2.75.63,5.5,1.29,8.27,1.82.93.18.8.68.71,1.26-.12.85-.69.31-1,.24-3.38-.69-6.75-1.42-10.12-2.14-.48.51-.87.44-1.14-.19-.7-1.67-2.13-2.91-2.7-4.67a3.42,3.42,0,0,0-1.14-1.65c-.22.64-.45,1.69-.6,1.68-.83-.06-.56.41-.56.81s.1,1-.44,1.1-1.47.35-1.8-.16c-.64-1-1.65-.82-2.5-1.14-.57-.21-.72,0-.69.55A26.33,26.33,0,0,0,76,79.16c.24.91-.07,2.31-.7,2.64.06.46.13.71.79.58,1.1-.2,2.15.33,3.22.57.41.1.34.5.51.74l0,0a.29.29,0,0,1-.33.15c-1.48-.55-3.19-.34-4.53-1.38-.36,0-.59.11-.38.46a13.86,13.86,0,0,0,2,2.88c1.35,1.27,2.47,2.71,3.67,4.07a3.37,3.37,0,0,0,2.3,1.3c1.28.12,1.73.73,1.55,2-.41-.19-1.07.12-1-.75,0-.28-.18-.42-.46-.44s-.28.25-.33.47a1.8,1.8,0,0,1-.56,1.21c-.19-.51,0-1-.43-1.39a1.23,1.23,0,0,0-.35,1.21,3.79,3.79,0,0,1-.19,2.54c-.32.6.28.46.6.42,2.53-.32,5.07-.6,7.59-1a12.18,12.18,0,0,1,3.42.28c.75.09,1,.59.81,1.28-.52-.59-.62-.22-.75.29-.82,3.39-.37,6.88-.9,10.28-.71,1.18-.16,2.21.37,3.47.3-1.31-.14-2.36-.09-3.44,1.42.62,1.3.58,1.7-.84s-.21-2.53-.29-3.79c.63-.3.64-.91.69-1.48.08-.91.07-.9-.83-1-.32-.06-.23-.35-.25-.58,0-.72.82-1,.84-1.64.64-.32.39-1,.49-1.46,0-.26-.07-.76.46-.59s1.14.16,1.52.6c1.14,1.33,2.77,1.3,4.37,1.71-.35-.57-.95-.54-1.38-1h1.18c.07-.86-.54-1-1.12-1.12-4.1-1-8.21-2-12.39-2.57-1.34-.2-1.85-.77-1.86-2.08a6.89,6.89,0,0,1,.81.1l12.48,2.74c.77.16,1.57.22,2.07,1a1.69,1.69,0,0,1,.82-1.41,28.44,28.44,0,0,0,3.47-3.11c.89-1,.67-1.68-.63-2-2.61-.55-5.22-1.1-7.83-1.67l-11.77-2.6c-1-.22-1-.23-.77-1,3.89.85,7.84,1.37,11.69,2.42s7.87,1.19,11.8,1.76c1.11.31,1.3-.83,2-1.24-.31-.61-.65-.14-.94,0s-.52.47-.89.5a.37.37,0,0,1-.11,0q-7.87-1.69-15.76-3.39c-2.49-.54-5-1.14-7.45-1.7-.6-.13-1.24-.25-1-1.08s.85-.3,1.23-.21c7.89,1.71,15.78,3.47,23.68,5.21.41.1.83.32,1.24,0a1.36,1.36,0,0,0,0-.2c.4-.26.5-.5.09-.9a8.78,8.78,0,0,1-1.63-1.59c-.87.53-.13,1,.05,1.45a14,14,0,0,1-3.52-.6C98.73,83.15,93.48,82,88.23,80.81a1.55,1.55,0,0,1-1-2C87.45,78.2,88.06,78.69,88.47,78.78Zm13.48.33c1.63.49,3.31.85,5,1.19.76.15.39.6.39,1s-.25.58-.68.49c-2.48-.54-5-1.06-7.56-1.61A2.22,2.22,0,0,1,102,79.11ZM94.06,63c1.55-.07,1.47,1.35,2,2.44l-3.84-.79C92.74,63.92,93.1,63,94.06,63Zm-3.29,3.52c.13-.44.31-1.12,1-1,1.48.28,3,.61,4.43,1,.71.18.58,1,1.16,1.66l-5.91-1.24C91.17,66.86,90.63,67,90.77,66.51Zm-4.29,1.34c0-.53.46-.26.64-.3s.19,0,.22,0c1.78.92,3.82.51,5.69,1.13A27.07,27.07,0,0,0,99,70c.42,0,.37.3.34.59,0,.55-.37.48-.76.4L92,69.65l-4.89-1.08C86.71,68.48,86.45,68.28,86.48,67.85Zm.38,3.2c-.08-.72,0-1,.82-.84,2.76.37,5.41,1.24,8.13,1.81l3.24.69c0,1.18-.48,1.46-1.63,1.18-3.2-.78-6.44-1.42-9.66-2.12C87.35,71.69,86.93,71.69,86.86,71.05Zm10.58,6.07c-3.19-.67-6.37-1.39-9.57-2-1.18-.24-.44-1.14-.84-1.86,3.85.42,7.27,1.68,10.82,2.33.89.16.28.84.33,1.26C98.26,77.45,97.74,77.19,97.44,77.12Zm-4.68,29.1a2.41,2.41,0,0,1-.3-.11,2.41,2.41,0,0,1,.05-1.5s.38,0,.43.07C93.27,105.23,92.79,105.66,92.76,106.22Zm.06-4.17.31,1-.07,0,0,.05C92.06,103.12,92.8,102.43,92.82,102.05Zm-7.09-7.54,1.16.22c.24,0,.55-.07.61.2s-.23.25-.41.26a6.89,6.89,0,0,1-1.2,0C85.27,95.14,85.28,94.86,85.73,94.51ZM81.4,75.82c.23-.35.1-1.07.83-.94s1.51.18,1.85,1a8.62,8.62,0,0,0,.75,1.18l-3.17-.68C81.31,76.34,81.2,76.12,81.4,75.82Zm-5.07-1.1c.21-.63.6-.1.84,0,.94.32,1.84.72,2.76,1.09a1.09,1.09,0,0,1,.84.34A.55.55,0,0,1,80,76L77,75.42C76.65,75.35,76.15,75.3,76.33,74.72Zm2.58,6.37h0l-1.64-.31c-.41-.07-.47-.37-.44-.71s.4-.29.64-.26c.75.09,1.49.22,2.24.33h0c.58.09,1.17.16,1.75.27s.64.72.59,1.12c-.07.57-.61.25-.85.15-.43-.17-1,0-1.29-.63C79.73,80.62,79.29,81.75,78.91,81.09ZM80,87c-1.37.18-1.86-.92-2.48-1.79C78.52,85.6,80.15,85.05,80,87Zm1.58,3.07a.61.61,0,0,1-.44-.76c.14-.41.52-.15.71-.08.66.28,1.83-.14,1.79,1.35C82.9,90.39,82.24,90.27,81.61,90.06Zm.53,5.33c.31-.57.06-1.4.91-1.4s1.55.06,1.6,1.19ZM99,93.82c-4.55-1.15-9.16-2.06-13.77-2.91-.77-.14-.76-.18-1-1,5.65.29,10.93,2.54,16.57,3.08A1.3,1.3,0,0,1,99,93.82ZM86,87.06a14.35,14.35,0,0,1,2.84.37c3.16.68,6.29,1.47,9.45,2.09,1.74.35,3.53.45,5.32.67a2.58,2.58,0,0,1-3.25,1.36c-6.24-1.46-12.51-2.77-18.78-4.1-.67-.15-1.21-.25-.89-1.14.08-.24.08-.49.42-.34.73.31,1.73,0,2.2.91a.79.79,0,0,0,.14.18C84.26,86,85.12,87.05,86,87.06ZM83,83.7a1.68,1.68,0,0,1-.06.24c-.13.49-.45.7-1,.49s-1.49,0-2-.65a.86.86,0,0,1-.07-.1.74.74,0,0,1,.95-.4C81.56,83.48,82.3,83.56,83,83.7Zm4.11-3L79.62,79c-.78-.17-1.56-.32-2.33-.5-.33-.08-.65-.1-.72-.62-.12-.91-.06-1.48,1.08-1.19a9.26,9.26,0,0,0,1.3.2c1.27.15,2.72,0,2.89,2.1,0-1.93,1-1.32,2-1.28C85.64,77.84,86.25,79.21,87.14,80.7Z"/><path class="cls-1" d="M93.49,128.54c-1.28-6.24-3.2-12.21-4.62-18.3.31,2.08,0,4.21.73,6.23a25.93,25.93,0,0,1,1.94,6.64,31.05,31.05,0,0,0,1,4.33A1.25,1.25,0,0,0,93.49,128.54Z"/><path class="cls-1" d="M83.07,103.31a18.52,18.52,0,0,0-1.44-5.46,18,18,0,0,0,.59,5.58c.08.27.24.54.59.46S83.09,103.53,83.07,103.31Z"/><path class="cls-1" d="M94.05,118.54a18.82,18.82,0,0,0-1.86-5.22,21.05,21.05,0,0,0,.92,5.35c.11.33.29.72.72.6S94.11,118.79,94.05,118.54Z"/><path class="cls-1" d="M85.23,118c0-2.29,0-4.56-1.16-6.65A16.64,16.64,0,0,0,85.23,118Z"/><path class="cls-1" d="M88.5,109.35A13.32,13.32,0,0,0,87,102.84,16.36,16.36,0,0,0,88.5,109.35Z"/><path class="cls-1" d="M97.22,133.15a13.6,13.6,0,0,0-1.59-6.46A15.74,15.74,0,0,0,97.22,133.15Z"/><path class="cls-1" d="M77.06,93.09c-.36,2.34,0,5.2.88,6A19.42,19.42,0,0,0,77.06,93.09Z"/><path class="cls-1" d="M79.6,113.25c0-2.2,0-4.41-.88-6.49A19,19,0,0,0,79.6,113.25Z"/><path class="cls-1" d="M68.71,51A6.52,6.52,0,0,0,67.27,48C67.15,49.15,67.8,50,68.71,51Z"/><path class="cls-1" d="M76.85,87.25A3.6,3.6,0,0,0,77,90.61,9.68,9.68,0,0,0,76.85,87.25Z"/><path class="cls-1" d="M66.69,42.61a5.23,5.23,0,0,0-1.11-2.93C65.37,40.77,65.88,41.6,66.69,42.61Z"/><path class="cls-1" d="M90.27,104.58a3.55,3.55,0,0,0,.6,1.87,1.86,1.86,0,0,0,0-2.09c-.08-.17-.23-.34-.46-.27S90.25,104.39,90.27,104.58Z"/><path class="cls-1" d="M89.44,99.65a3.66,3.66,0,0,0-.28-3.19A5.56,5.56,0,0,0,89.44,99.65Z"/><path class="cls-1" d="M86,100a4,4,0,0,0,.8,2.51C86.93,101.11,86.77,100.61,86,100Z"/><path class="cls-1" d="M90.14,102.88a1.76,1.76,0,0,0-.32-2.37A2.41,2.41,0,0,0,90.14,102.88Z"/><path class="cls-1" d="M63.85,36.66c0,1.21,0,1.32.95,2.19A2,2,0,0,0,63.85,36.66Z"/><path class="cls-1" d="M95.49,126.46a3.41,3.41,0,0,0-.89-2.81A3.62,3.62,0,0,0,95.49,126.46Z"/><path class="cls-1" d="M65.37,45c-.18,1,.28,1.53,1.09,2.26A2.23,2.23,0,0,0,65.37,45Z"/><path class="cls-1" d="M83.91,111.19a3,3,0,0,0-.57-2.77A3.53,3.53,0,0,0,83.91,111.19Z"/><path class="cls-1" d="M78.55,106.07A2.59,2.59,0,0,0,78.3,104,2.66,2.66,0,0,0,78.55,106.07Z"/><path class="cls-1" d="M82.9,105.64a2.49,2.49,0,0,0,.27,2.2C83.72,107.07,83.36,106.51,82.9,105.64Z"/><path class="cls-1" d="M94.16,121.26c-.41.75-.14,1.31.34,2A1.79,1.79,0,0,0,94.16,121.26Z"/><path class="cls-1" d="M85.51,97.36a2.2,2.2,0,0,0,.38,2A1.56,1.56,0,0,0,85.51,97.36Z"/><path class="cls-1" d="M78.29,103.18c0-.84.15-1.45-.5-2.07C77.82,101.88,77.64,102.48,78.29,103.18Z"/><path class="cls-1" d="M93,129.24c-.11.47.11.81.55,1.15a1,1,0,0,0-.26-1.24S93,129.19,93,129.24Z"/><path class="cls-1" d="M49,25.46a2.4,2.4,0,0,0,1.22,2.18A2.15,2.15,0,0,0,49,25.46Z"/><path class="cls-1" d="M62.48,40.38a2.71,2.71,0,0,0-1.12-2.2s-.14,0-.38,0a6.44,6.44,0,0,0,1.23,2.35S62.48,40.44,62.48,40.38Z"/><path class="cls-1" d="M34.8,84.4a1.34,1.34,0,0,0,.55-1.07c0-.21-.11-.44-.33-.36-.46.17-.56.61-.58,1A.34.34,0,0,0,34.8,84.4Z"/><path class="cls-1" d="M34.65,85.59c0-.19-.21-.31-.34-.21-.55.39-.47.94-.34,1.54C34.69,86.69,34.75,86.17,34.65,85.59Z"/><path class="cls-1" d="M129.89,88v0l-.06-.09a.42.42,0,0,1,.17-.28.71.71,0,0,1,.09-.07,2.83,2.83,0,0,0-.36-.74c-.42-.46-.63-.3-.68.19h0a.46.46,0,0,0,.07.07l-.13,0c.16.4.3.82.75,1Z"/><path class="cls-1" d="M124.06,71.46c-1.12-.67-.6.31-.69.68a1.2,1.2,0,0,0,.72,0,.67.67,0,0,0,.18-.11c.15-.17-.06-.32-.16-.49A.21.21,0,0,1,124.06,71.46Z"/><path class="cls-1" d="M123.77,69.71c0-.19-.18-.14-.31-.17s-.31,0-.33.19.12.27.29.28S123.71,69.94,123.77,69.71Z"/><path class="cls-1" d="M128.87,73.21v0c0,.24,0,.49,0,.74,0,0,0,0,0,0l.06,0a1.19,1.19,0,0,1-.09.15c.34.35.87.33.94-.06S129.49,73.14,128.87,73.21Z"/><path class="cls-1" d="M49.26,124.46a1.84,1.84,0,0,0,.36-1.78C48.9,123.68,48.9,123.68,49.26,124.46Z"/><path class="cls-1" d="M80,75.92s0-.09-.08-.12a.27.27,0,0,1,0,.2S80,76,80,75.92Z"/></g></g></svg>