<svg xmlns="http://www.w3.org/2000/svg" viewBox="0 0 171.14 192.22"><defs><style>.cls-1{fill:#1d314f;}</style></defs><title>Asset 7</title><g id="Layer_2" data-name="Layer 2"><g id="Capa_1" data-name="Capa 1"><path class="cls-1" d="M65,40.47c.3.68.6,1.36.92,2,.11.24.18.62.57.5s.11-.52.23-.76h.22a.26.26,0,0,0-.25,0c-.56-.55-.58-1.63-1.6-1.73a.61.61,0,0,0-.25-.08.37.37,0,0,0-.22.2c0,.13,0,.26.08.39A.54.54,0,0,1,65,40.47Z"/><path class="cls-1" d="M69.57,47.89l-.27-.06C69.36,48,69.45,48,69.57,47.89Z"/><path class="cls-1" d="M99.58,136.45c-1.62-6.55-3.22-13-4.82-19.45l-.43.09c.64,2.07.23,4.26,1,6.33a32.91,32.91,0,0,1,2.12,7,31.75,31.75,0,0,0,1.12,4.86C98.67,135.74,98.75,136.31,99.58,136.45Z"/><path class="cls-1" d="M90.29,101.08c.12.18.3.34.52.21a.52.52,0,0,0,.21-.41A16.4,16.4,0,0,0,89.17,95a22,22,0,0,0,.87,5.65A1.48,1.48,0,0,0,90.29,101.08Z"/><path class="cls-1" d="M100.08,125.92a16.74,16.74,0,0,0-.61-2.44c-.4-1.06-.46-2.27-1.47-3.48a24.78,24.78,0,0,0,.7,4.49,11.11,11.11,0,0,0,.49,1.68c.1.27.3.58.64.49S100.13,126.18,100.08,125.92Z"/><path class="cls-1" d="M88.4,109.68A19.36,19.36,0,0,0,87,103.89a13.11,13.11,0,0,0,.15,4,12.18,12.18,0,0,0,.44,2,.5.5,0,0,0,.55.41C88.46,110.24,88.42,109.92,88.4,109.68Z"/><path class="cls-1" d="M94.23,116.05c-.15-2.39-.35-4.76-1.66-6.9A17.88,17.88,0,0,0,94.23,116.05Z"/><path class="cls-1" d="M91,125.53c-.24-2.72-.29-5.11-1.44-7.28A14.52,14.52,0,0,0,91,125.53Z"/><path class="cls-1" d="M103.48,141.35c-.18-2.39-.38-4.8-1.75-6.89A18,18,0,0,0,103.48,141.35Z"/><path class="cls-1" d="M82,98.85c0,2.17-.15,4.36.79,6.41C83.19,103.05,82.55,101,82,98.85Z"/><path class="cls-1" d="M84.72,120.25a18,18,0,0,0-.86-6.88A20,20,0,0,0,84.72,120.25Z"/><path class="cls-1" d="M97.77,118.12a6.24,6.24,0,0,0-.44-3.74C96.65,115.67,97.26,116.7,97.77,118.12Z"/><path class="cls-1" d="M86.61,97.69a3.54,3.54,0,0,0,.11,3.62A8.63,8.63,0,0,0,86.61,97.69Z"/><path class="cls-1" d="M88.8,92.34a7.15,7.15,0,0,0-.29-3.48C87.74,90.29,88.32,91.31,88.8,92.34Z"/><path class="cls-1" d="M94.85,102.27a5.66,5.66,0,0,0,.36,3.27A3.68,3.68,0,0,0,94.85,102.27Z"/><path class="cls-1" d="M86.18,77a5.48,5.48,0,0,0,.2,3.13A3.42,3.42,0,0,0,86.18,77Z"/><path class="cls-1" d="M96.82,113a2.14,2.14,0,0,0-.58-2.68A3,3,0,0,0,96.82,113Z"/><path class="cls-1" d="M96.11,109.34c.2-1.12.32-1.93-.49-2.68A2.62,2.62,0,0,0,96.11,109.34Z"/><path class="cls-1" d="M85.64,93.67a3.53,3.53,0,0,0,.44,2.8A2.26,2.26,0,0,0,85.64,93.67Z"/><path class="cls-1" d="M84.89,85.74A6.47,6.47,0,0,0,85,88.92,3.6,3.6,0,0,0,84.89,85.74Z"/><path class="cls-1" d="M85.41,90.06a2.28,2.28,0,0,0,.24,2.71A2.87,2.87,0,0,0,85.41,90.06Z"/><path class="cls-1" d="M81.27,88.71a3,3,0,0,0,.13,2.46A2,2,0,0,0,81.27,88.71Z"/><path class="cls-1" d="M87.94,87.68c.37-1.72.3-2-.58-2.53A3.09,3.09,0,0,0,87.94,87.68Z"/><path class="cls-1" d="M81.78,93a4.19,4.19,0,0,0,.16,3.43A8.57,8.57,0,0,0,81.78,93Z"/><path class="cls-1" d="M87.26,83.84a2.9,2.9,0,0,0-.39-2.71A2.35,2.35,0,0,0,87.26,83.84Z"/><path class="cls-1" d="M101.55,134.15a3,3,0,0,0-.89-2.84A4.09,4.09,0,0,0,101.55,134.15Z"/><path class="cls-1" d="M89.32,117.91a3,3,0,0,0-.62-2.78A3.56,3.56,0,0,0,89.32,117.91Z"/><path class="cls-1" d="M81.1,84.91a2.22,2.22,0,0,0,.11,2.53A3.81,3.81,0,0,0,81.1,84.91Z"/><path class="cls-1" d="M88.16,112.24a2.51,2.51,0,0,0,.45,2.26C89.07,113.65,88.83,113.05,88.16,112.24Z"/><path class="cls-1" d="M92.36,108.91a3.42,3.42,0,0,0-.69-2.89A4,4,0,0,0,92.36,108.91Z"/><path class="cls-1" d="M100.06,128.51a2.56,2.56,0,0,0,.58,2.33A2.22,2.22,0,0,0,100.06,128.51Z"/><path class="cls-1" d="M91,103.28a2.28,2.28,0,0,0,.55,2.18A1.92,1.92,0,0,0,91,103.28Z"/><path class="cls-1" d="M82.9,107.37a2.49,2.49,0,0,0,.24,2.1A1.62,1.62,0,0,0,82.9,107.37Z"/><path class="cls-1" d="M83.74,112.81a3.68,3.68,0,0,0-.44-2.63A3.3,3.3,0,0,0,83.74,112.81Z"/><path class="cls-1" d="M121.94,50.78h0a44,44,0,0,1,.58,6.47v2.58l-.05.72a8.86,8.86,0,0,0-.62,3.29l.33.07.51-2.84a.35.35,0,0,1-.06-.14l.06.14.11-.94a17.79,17.79,0,0,0,0-5.78h0a14.6,14.6,0,0,0-.6-4.46,6.93,6.93,0,0,0-.46-1.79c-.18-2.54-1.67-5.11-3.17-5.24a20.39,20.39,0,0,1,2.92,5.24C121.91,49,121.57,49.92,121.94,50.78Z"/><path class="cls-1" d="M99,137.15c-.32.56.13.89.41,1.3.47-.52.22-.93-.12-1.33A.17.17,0,0,0,99,137.15Z"/><path class="cls-1" d="M81,81.21c0-.27.08-.57-.42-.67,0,1.1-.31,2.14.2,3.16C81.34,82.92,81,82.05,81,81.21Z"/><path class="cls-1" d="M131.15,137.46c-.05-.2,0-.57-.33-.46s-.08.33,0,.5.09.3.14.46a2.14,2.14,0,0,0,.59,1.2,1.72,1.72,0,0,0,.43,1.52,1.25,1.25,0,0,0-.36-1.5A3.05,3.05,0,0,0,131.15,137.46Z"/><path class="cls-1" d="M134.65,148.18l-.26-.77-.22-.76a2.25,2.25,0,0,0-.46-1.29h0a3,3,0,0,0-.48-1.59c-.19-.43-.16-1-.53-1.3h0a2.54,2.54,0,0,0-.59-1.66,3.81,3.81,0,0,0,.5,2.11l.33,1.17c.14.44.09,1,.55,1.27a2.38,2.38,0,0,0,.43,1.57.9.9,0,0,0,.27.74.87.87,0,0,0,.25.77.84.84,0,0,0,.26.76l.38,1.61a2.21,2.21,0,0,0-.18-1.87Z"/><path class="cls-1" d="M130.59,135.7a2.81,2.81,0,0,0-.44-1.35h0c-.23-.81-.45-1.62-.68-2.43-2.21-7.77-5.33-15.36-4.68-23.69a10.09,10.09,0,0,0,.1-2.33c.12-2.72.24-5.43.35-8.15a13.89,13.89,0,0,0-.75-6.61c-.23-.78-.47-1.57-.71-2.35h0a1.61,1.61,0,0,0-.52-1.27,3.56,3.56,0,0,0-.47-2.07h0c-.55-2-1.09-4-1.64-6-1.06-4.9.26-9.7.8-14.54-.44,0-.4.27-.48.45a16.49,16.49,0,0,0-.72,4.11c-.49,3.51-.82,7.06.16,10.56a18.69,18.69,0,0,0,1.59,5.77h0l.51,2h0l.53,1.51.49,2h0l.79,3.06c.18,3.32-.4,6.62-.26,9.94-.35,3.87-.86,7.77-.1,11.61a115.67,115.67,0,0,0,5.45,18.67l.38,1.05c.12.24,0,.8.39.67S130.63,135.94,130.59,135.7Z"/><path class="cls-1" d="M129.46,73.36a.56.56,0,0,0,0-.21A.39.39,0,0,0,129.46,73.36Z"/><path class="cls-1" d="M52.33,27a2.79,2.79,0,0,0,1.19,2.45A2.39,2.39,0,0,0,52.33,27Z"/><path class="cls-1" d="M37.07,91c0-.19-.22-.47-.42-.34-.58.4-.55,1-.41,1.69C36.91,92.05,37.21,91.63,37.07,91Z"/><path class="cls-1" d="M37.54,88a1.22,1.22,0,0,0-.5,1.77A1.45,1.45,0,0,0,37.54,88Z"/><path class="cls-1" d="M153.77,153.07l-.1,0,0,0a.2.2,0,0,1-.09-.05c-.22.54.08.91.5,1.46Z"/><path class="cls-1" d="M131.53,75.61c-.35,0-.39.25-.37.51s.1.71.56.66c.22,0,.52,0,.54-.45C132.07,76.07,132,75.63,131.53,75.61Z"/><path class="cls-1" d="M131.7,74c0-.06-.25-.16-.4-.18s-.33,0-.35.25.18.27.35.29A.33.33,0,0,0,131.7,74Z"/><path class="cls-1" d="M132.41,71.53c.15-.23.53-.36.31-.73,0-.06-.26-.11-.31-.06C132.12,71,132,71.26,132.41,71.53Z"/><polygon class="cls-1" points="132.41 71.53 132.41 71.53 132.41 71.53 132.41 71.53 132.41 71.53 132.41 71.53"/><path class="cls-1" d="M132.59,72c.12,0,.33-.18.33-.27,0-.38-.27-.3-.51-.22C132.33,71.75,132.16,72,132.59,72Z"/><path class="cls-1" d="M131.38,75.13c.2,0,.28-.13.35-.27s0-.28-.28-.32c-.07.06-.23.13-.28.26S131.19,75.1,131.38,75.13Z"/><path class="cls-1" d="M137.44,77.68c-.36,0-.45.23-.38.51s.06.73.53.7c.27,0,.67-.06.58-.45A1.15,1.15,0,0,0,137.44,77.68Z"/><path class="cls-1" d="M137.27,77.23c.13-.07.19-.24.24-.31,0-.34-.19-.35-.36-.29a.32.32,0,0,0-.23.39C137,77.2,137.08,77.34,137.27,77.23Z"/><path class="cls-1" d="M68,38.85A2.73,2.73,0,0,0,69,41.32,2.19,2.19,0,0,0,68,38.85Z"/><path class="cls-1" d="M52.29,132.27c.79-.49.72-1.18.65-2.21A2.38,2.38,0,0,0,52.29,132.27Z"/><polygon class="cls-1" points="137.85 87.01 137.95 87.03 137.84 86.98 137.83 86.99 137.76 87.06 137.84 87.02 137.85 87.01"/><path class="cls-1" d="M171,163.05c-2.67-8.25-5.28-16.52-7.61-24.87-1-3.49-2.29-6.92-2.68-10.56a59.73,59.73,0,0,1,.44-12.68c.51-4.87.43-9.61-1.3-14.27-.92-2.46-1.43-5-2.28-7.53a14,14,0,0,1-.62-6c.15-1.52.4-3,.57-4.54.43-3.79,1.61-7.47,1.69-11.3a31.61,31.61,0,0,0-2.27-12.67c-.56-1.39-1.25-2.78-2.73-3.37-4.48-1.76-8.93-3.75-13.7-4.55a36.77,36.77,0,0,1-13.35-5.28c-2.2-1.35-4.47-2.6-6.57-4.1a24.9,24.9,0,0,0-12.41-4.42A34.9,34.9,0,0,1,94,32.65c-2.42-1.39-5-2.56-7.47-3.78a23.31,23.31,0,0,0-6.24-2.48A24.85,24.85,0,0,1,73.12,24a77.13,77.13,0,0,0-17.34-6.38c-6.67-1.57-13.32-3.5-20.21-3.63a124.45,124.45,0,0,1-21.19-2.3C12,11.23,12,11.24,12,8.79c0-1.7,0-1.68,1.65-1.63.42,0,.84-.18,1.25-.16,1.3.06,2-.35,1.82-1.82s.5-2.72.15-4.13c-.1-.39-.15-.56-.56-.64C14.89.14,13.39.52,12,0c-.15,0-.42.09-.58.21A4.23,4.23,0,0,1,8.83.79c-3,.09-6-.18-8.83,1V2A4.25,4.25,0,0,1,.94,5.42a8.51,8.51,0,0,0,0,1c0,.86.28,1.37,1.26,1.32a20.4,20.4,0,0,1,3.65.34c1,.11,1.25.59,1.1,1.44a14.64,14.64,0,0,0,0,4.18,17.27,17.27,0,0,1,0,4.19c-.64,4.81-.43,9.65-.67,14.47-.09,1.65-.14,3.3-.32,5a69.38,69.38,0,0,0-.46,7.35c0,4.88,0,9.75-.29,14.62C4.81,65,4.43,70.71,4.45,76.43c0,4,0,8-.32,12.07-.33,4.52-.67,9-.72,13.58,0,2,.26,4.06.24,6.09-.06,7.21.16,14.41-.17,21.62-.3,6.47-.36,13-.53,19.44s-.36,13.22-.49,19.82c-.11,5.68-.48,11.36-.31,17A22.46,22.46,0,0,1,2,189.26a4.12,4.12,0,0,0,.31,3H7.38A7.18,7.18,0,0,0,8.94,187c-.39-4.77-.8-9.54-1.17-14.31-.17-2.22-.72-4.46.55-6.58a2.6,2.6,0,0,0,.19-1.5c-.38-3.38,0-6.77-.08-10.15a2.54,2.54,0,0,1,.71-1.95A12.42,12.42,0,0,0,12,147.61a150,150,0,0,0,4.66-19.37c.69-3.89.78-7.94,2.86-11.49a4.31,4.31,0,0,0,.42-1.72c.41-4.73,1.4-9.38,1.89-14.1.65-6.15,1.63-12.26,2-18.45.28-5.38.05-10.77.25-16.15.09-2.66.59-5.36.11-8-.69-3.72-.71-7.5-1.21-11.23-.53-4-.22-8.07-1.29-12-.86-3.18-2.11-6.26-2.67-9.52a31.69,31.69,0,0,0-5-11.84c-.23-.09-.4-.32-.23-.46s.56-.08.81.12h0c.79-.07,1.18.34,1.52,1A86.28,86.28,0,0,1,24,39.1a90.3,90.3,0,0,1,1.54,16.8c-.13,6.44-.19,12.88-.26,19.31-.07,7.59-.43,15.15-1.19,22.7a229.43,229.43,0,0,1-6,32.68c-.11.46-.16.94-.75,1l0,.28c1.42-.23,2.85-.44,4.27-.69a28.19,28.19,0,0,1,18.07,2.29A31.34,31.34,0,0,0,46.7,136c9,2.05,18.16,2.2,27.32,1.55a22.4,22.4,0,0,1,11.47,2.11,74.56,74.56,0,0,1,9.88,5.71c6.24,4.25,12.7,7.82,20.33,9.13,6,1.05,12,2.22,18.16,1.2a24.63,24.63,0,0,1,19.57,4.61,12.33,12.33,0,0,0,3.85,1.89,59.21,59.21,0,0,0,13,2C171.44,164.27,171.16,163.72,171,163.05ZM2.61,6.09c.35-1.36-.11-2.66.31-4a25.69,25.69,0,0,0,4.3-.06,51.8,51.8,0,0,1,6.59.16c.91.1,1.17.59,1,1.35a1.65,1.65,0,0,0,.52,1.84C11,6.18,6.85,5.67,2.61,6.09ZM7.77,130.35c-.15,6.57-.09,13.15-.48,19.71-.41,6.81-.14,13.64-.5,20.44-.33,6-.38,12-.42,18a8.53,8.53,0,0,0,.29,3.16l-1.11-.12c-2.28-.32-2.26-.33-2.12-2.71.39-6.47.59-13,.71-19.43.22-11.4.73-22.79.85-34.19q.1-8.83.41-17.67c.5-14.69.84-29.39,1.63-44.07.6-11.09,1.25-22.18,1.13-33.29-.05-4.45.58-8.88.52-13.34-.08-5.94,0-11.88,0-17.82,0-.91.32-1.17,1.14-1.22s1.11.18.9.89S11.37,10.54,10,11c0,0,0,.16,0,.22,1.32,2,.41,4.21.4,6.3,0,7.2-.21,14.41-.37,21.61-.27,11.78-.58,23.56-.86,35.34C9,83.2,8.86,92,8.55,100.74,8.19,110.61,8,120.48,7.77,130.35Zm7-111.25c3.07,6.77,4.53,14,5.83,21.24a158.6,158.6,0,0,1,2.15,31.15A221.49,221.49,0,0,1,19.71,105c-1,5.92-1.43,12-3,17.78a229.12,229.12,0,0,1-7.59,24.86,1,1,0,0,1-.46.83,2.49,2.49,0,0,1,.18-1.6c0-4.79,0-9.58.06-14.36A23.5,23.5,0,0,1,9.31,129a7,7,0,0,0,.08-2.28,38.48,38.48,0,0,1,.47-12.62,21,21,0,0,0,0-5.32,16.71,16.71,0,0,1,.26-4.68c.71-3.49.33-7,.21-10.52-.12-3.23-.1-6.44,0-9.66,0-1.48-.16-3-.06-4.44.35-5.23.32-10.48,1.12-15.69a35.08,35.08,0,0,0,.17-7.87c-.33-4.4-.3-8.78-.2-13.19.21-9.32.82-18.63.63-28,0-.17,0-.33,0-.71A27.06,27.06,0,0,1,14.8,19.1ZM146.48,57a5.64,5.64,0,0,0,.31.93,1.85,1.85,0,0,0,.11.45,1.43,1.43,0,0,0,.07.28.63.63,0,0,0-.06.61,27.33,27.33,0,0,1,.61,3.71,1,1,0,0,0,0,.28,3.89,3.89,0,0,0,.09.47h0c0,1.59,0,3.19,0,4.78,0,.11,0,.22-.07.32a.77.77,0,0,0,0,.15,3.21,3.21,0,0,0-.33,1.86l-.12.49a2.32,2.32,0,0,0,0,.38,2.06,2.06,0,0,0-.16.58,24.07,24.07,0,0,0-.89,4.58,36.4,36.4,0,0,0-.34,10.21A12.33,12.33,0,0,0,147,91.89l.62,2.06a1.2,1.2,0,0,0,.09.29,8.23,8.23,0,0,0,.74,2.33h0c0,.2,0,.55-.06.55a.56.56,0,0,1-.44-.09l-.14-.13a4.27,4.27,0,0,1-.3-.51A7.83,7.83,0,0,0,146,95h0c.31-.52-.16-.88-.39-1.14a5.24,5.24,0,0,1-1-2,65.66,65.66,0,0,1-1.73-6.58h0c0-.59-.05-1.18-.05-1.77a75.94,75.94,0,0,1,1.39-12.31h0l0-.34h0a9.32,9.32,0,0,0,.58-2.81h0a1.64,1.64,0,0,0,.15-1.13c0-1.26,0-2.52,0-3.78a3.91,3.91,0,0,0-.17-1.89h0a11.53,11.53,0,0,0-.57-3.73l-.41-1.48a.27.27,0,0,0,0-.12c-.06-.35,0-.73-.27-1h0c-.25-.69-.5-1.38-.79-2.21C145.18,53.1,145.59,55.26,146.48,57Zm-4.91,31.34h-.43c.06-.18-.21-.5.11-.53S141.6,88,141.57,88.31Zm-1-35.11c.14-.33-.38-.79.08-1s.68.25.92.54a13.52,13.52,0,0,1,1.59,2.73l.26.76h0l.25.76c.05.19.09.38.12.56a1,1,0,0,0,0,.89,24.27,24.27,0,0,1,.63,4.17l0,4.86a10,10,0,0,0-.44,2.86c0,.16-.08.32-.13.48a2.65,2.65,0,0,0-.07.48,1,1,0,0,0-.18.45,38.26,38.26,0,0,0-1.15,7.59,28.66,28.66,0,0,0,0,6.28,1.21,1.21,0,0,0,.07.36.83.83,0,0,1,0,.15h0c.09.91.19,1.82.29,2.72l0,0c-.11,0-.26-.08-.28-.15-.42-1.6-2.06-2.66-1.95-4.5a1.06,1.06,0,0,0-.23-.69,4.21,4.21,0,0,1-.81-2.86A69.5,69.5,0,0,1,141,68.12c.07-.2.15-.4.23-.6a1.32,1.32,0,0,0,.07-.59,1.42,1.42,0,0,1,0-.2,8.67,8.67,0,0,0,.33-1.83,27.83,27.83,0,0,0-.2-8.2,7.58,7.58,0,0,0-.41-2.26c0-.11,0-.23,0-.34a1,1,0,0,0-.4-.9l.25.77c-.47.39-.29.89-.21,1.35.15.9.33,1.8.5,2.7.07,2.1.13,4.19.19,6.29a.19.19,0,0,0,0,.08s0,.1,0,.15c-.24.83-.75,1.63-.16,2.53h0v.36c-.44-.06-.44.27-.52.55a48.17,48.17,0,0,0-1.42,10.89c0,.71.33,1.89-1.18.76.26.88.85,1.48,1,2.12a28.27,28.27,0,0,0,1.93,6.58l.24,1a6.21,6.21,0,0,0,.68,2.15h0v.9h0c-.35-.25-.49-.84-1-.82a1.83,1.83,0,0,0-.13-.24c.48-.71-.14-1.06-.59-1.47a16.29,16.29,0,0,0-1.8-4.07,12.76,12.76,0,0,1-1.71-9.37c.68,0,.34-.52.44-.82.49-.31-.09-.54-.11-.8-.13-1.44.44-2.78.41-4.19h0a3,3,0,0,0,.25-1.56,9.51,9.51,0,0,0,.48-2.84,5.62,5.62,0,0,0,.45-2.59V59.83a5.38,5.38,0,0,0-.18-2.11,11.92,11.92,0,0,0-.57-3.25,5.59,5.59,0,0,0-.45-1.83l-.07-.68c.18-.37.57-.2.84-.32C139.33,51.45,140,52.29,140.56,53.2Zm-2,38.55a2.3,2.3,0,0,0,.24.5l0,.08c-.18.52.42,1.07.17,1.59l-.38-.28c-.42-.57-.07-1.75-1.2-1.76l-.09-.21c.27,0,.22-.31.07-.64a18.44,18.44,0,0,0-1.19-2.92h-.27c-.82.07,0,.87-.25,1.17l-.25-.23-.23-.21,0-.07h0l0,0L135,87.73c.15-.24.56.12.81.1l.07,0,0,0c.07-.07.11-.2.09-.46-.29-.25-.65-.48-.69-.87-.19-1.59-1.14-2.9-1.44-4.5a24.86,24.86,0,0,1-.63-5.49h0c.2-.22.41-.12.63,0a1.82,1.82,0,0,0,.8,1.46,1.19,1.19,0,0,0-.07,1.31c1.2,1.55,1.28,3.5,1.85,5.25.74,2.23,1.05,4.6,2,6.76A5,5,0,0,1,138.55,91.75ZM134.5,50.68a2.93,2.93,0,0,1,2.56,2.48l.24.68a2,2,0,0,0,.14.78c0,.07,0,.15.05.23-.07,1.51.53,2.94.56,4.44-.14,2.21.2,4.44-.27,6.64a7.87,7.87,0,0,0-.49,2.8L137,70a55,55,0,0,0-1.39,9.52L135,77.86c-.27-.5.11-1.34-.8-1.5-.07-.54-.61-.79-.78-1.26.21,0,.54-.12.43-.34-.68-1.43,0-2.82.09-4.22h0a11.34,11.34,0,0,0,.45-2.59l.33-2a6.62,6.62,0,0,0,.44-2.1,27.2,27.2,0,0,0-.58-10.13c0-.11,0-.21,0-.32a1.17,1.17,0,0,0-.1-.78,3.26,3.26,0,0,1-.24-.4,2.45,2.45,0,0,0-.3-1.17C133.92,50.64,134.15,50.63,134.5,50.68Zm-.76,1c.21.34,0,.93.57,1.05h0l.13.52a1.3,1.3,0,0,0-.19,1.19c.79,2.92.6,5.92.66,8.9h0v0a1.11,1.11,0,0,0-.05.25l-.36,1.57a5.37,5.37,0,0,0-.3,2.51,5.49,5.49,0,0,0-.48,2.06c-.4.43-.3,1-.3,1.48-.28.31-.14.72-.23,1.07-.25,0-.61-.21-.69.19,0,.22.28.23.46.3,0,.25-.24.38-.22.74a11.51,11.51,0,0,1-.3,4.56c0-.28-.1-.6-.4-.41s.15.46.17.72c.28,1.31.51,2.64.86,3.93.64,2.34.83,4.8,1.94,7h0c.11.41.14.88.57,1.1a1,1,0,0,0,0,.25v0c-.23.56.13,1,.31,1.56l.06.17.7,2.37,0,0c0,.05,0,.1,0,.15h0c-.38.7-.67,0-1-.07-1-2.38-2.17-4.65-3-7.12a39.75,39.75,0,0,1-1.93-6.61c-.49-3.43-1-6.81-.23-10.27a8.08,8.08,0,0,0,.4-3.09c0-.11.07-.23.12-.35a3.11,3.11,0,0,0,.09-.6v-.06a.39.39,0,0,0,.12-.23c.16-1,.31-2,.47-3,.08-.19.16-.38.26-.57a1.5,1.5,0,0,0,0-.63.57.57,0,0,1,0-.13,2.09,2.09,0,0,0,0-.75h0c0-1.26,0-2.53,0-3.79h0a17.24,17.24,0,0,0-.56-4.7l-.09-.67a3,3,0,0,0-.09-.41l-.2-.51a1.5,1.5,0,0,0-.26-.9l-.26-1.45A3.59,3.59,0,0,1,133.74,51.65ZM33.54,16.87A80,80,0,0,1,40,37.23a98.89,98.89,0,0,1,1.82,21c-.11,4.1.08,8.23-.1,12.32-.36,8,.12,16-1,24-.46,3.16-1.73,6.06-2.6,9.41-.76-3.11.06-5.82.42-8.49.48-3.54.59-7.08.76-10.63.2-4.13.22-8.28.68-12.39a119,119,0,0,0,.33-12.94A91.31,91.31,0,0,0,38,38.34c-1.61-6.81-3.11-13.61-5.94-20-.44-1-1-2-1.44-3C33.05,15,32.52,14.77,33.54,16.87Zm-7-.36a103.16,103.16,0,0,1,2.74,10.92,2.84,2.84,0,0,1,.29,2.18A3.47,3.47,0,0,1,29.06,28a63.36,63.36,0,0,0-5.28-13.14C26,14.68,26,14.68,26.57,16.51ZM35.2,56.1l-.27-2.93a233.13,233.13,0,0,0-6.15-31.72,23.78,23.78,0,0,1,2.11,5.49,100.75,100.75,0,0,1,4.28,23.54c0,.3,0,.59,0,.89A14.71,14.71,0,0,1,35.2,56.1ZM29.05,42.74l-.26-1.51a2,2,0,0,1-.3-1.27c-.36-.34-.23-.74,0-1.18L28.74,40,29,41.23a3.64,3.64,0,0,1,.3,1.53,2,2,0,0,1,.23,1.49h0v0c.42.3.23.67,0,1v-1h0v0A3.38,3.38,0,0,1,29.05,42.74ZM24.31,18.61C29.89,30.87,32,43.84,32.06,57.22,30.27,44.19,28.61,31.13,24.31,18.61Zm2.94,15h0v0c-.41-.36-.19-.84-.24-1.26v0h0c-.42-.37-.14-.93-.37-1.34.52.33.34.86.37,1.34h0v0c.43.35.2.83.24,1.26h0v0c.43.44.15,1.08.51,1.55C27.11,34.77,27.29,34.16,27.25,33.61Zm.56,2.88-.21-.84C28.18,35.88,27.92,36.22,27.81,36.49Zm1.76-6.63c.58.25.46.74.5,1.18.39.43.32.94.42,1.7-.6-.64-.44-1.24-.64-1.72Zm1.49,6.24h0l0,0,0,0v0c.42.35.18.83.22,1.25l0,0,0,0v0c-.37-.36-.21-.82-.22-1.25h0v0c-.42-.31-.14-.79-.29-1.15C31.23,35.25,31,35.7,31.06,36.1Zm.24,1.33,0,0v0c.45.29.16.7,0,1.08V37.44ZM31.72,39c.14.43.2.73,0,1A1,1,0,0,1,31.72,39ZM32,61.56c.2.27.17.54,0,.94A.9.9,0,0,1,32,61.56Zm.21-20.13a.68.68,0,0,1,.11.81C31.89,42,32.17,41.7,32.16,41.43Zm-8-23.34c-.6-.26-.51-.65-.54-1C24.05,17.3,24.09,17.62,24.16,18.09Zm-1.78-2.54A89.6,89.6,0,0,1,26,27.41h0a1.69,1.69,0,0,1,.25,1.05c.35.52.21,1.12.28,1.7A2.21,2.21,0,0,1,26,28.74l-.24-1c-1.37-4-2.57-8.06-4.63-11.79l-.91-1.64C21.36,14,22,14.41,22.38,15.55ZM21,23.06c.46.35.43.7.6,1.27A1.36,1.36,0,0,1,21,23.06Zm1,3.32-.42-1.29A1,1,0,0,1,22,26.38ZM23.31,31l-.45-1.59c.78.5.52,1.12.86,1.53Zm-.77-3.15c.51.27.41.66.37,1.13C22.5,28.6,22.61,28.19,22.54,27.84Zm1.87,7.83A5.57,5.57,0,0,1,24,33.83l-.24-1.37c.56.49.44,1,.5,1.37a3.7,3.7,0,0,1,.45,1.55c0,.39.33.75.12,1.23C24.32,36.4,24.5,36,24.41,35.67Zm1.08,5.8-.24-1.27h0L25,38.68c0-.49-.41-1-.13-1.54.49.46.32,1,.36,1.54a2.66,2.66,0,0,1,.26,1.52,2,2,0,0,1,.24,1.28A2.17,2.17,0,0,1,25.94,43h0c.41.26.26.64.14,1L25.75,43Zm1,40.15c.08-1.24-.48-2.49.06-3.72l.21-2.46a21.94,21.94,0,0,1,.07,6.11l-.09,3a4.42,4.42,0,0,1-.14,1.91h0c0,.64-.07,1.27-.11,1.91a2.34,2.34,0,0,1-.21,1.54v1.43A2,2,0,0,1,26,89.88a6.71,6.71,0,0,1,.16-2.64l.07-2A15.49,15.49,0,0,1,26.44,81.62Zm.31-29.69V50.44H27v1.5h0c0,.44.12.89-.12,1.34C26.63,52.82,26.79,52.37,26.75,51.93Zm.32,19.63a2.76,2.76,0,0,1-.21,2.31A3.15,3.15,0,0,1,27.07,71.56Zm0-5.13V63.88h.12v2.55Zm.05-10.83a2.83,2.83,0,0,1,0-1.68A2.87,2.87,0,0,1,27.11,55.6ZM26,93.15a2.28,2.28,0,0,1,0-1.69C26.42,92,26.18,92.36,26,93.15Zm-.55,2.48.09-.91c.06-.14.07-.35.17-.41s.32,0,.29.23-.13.63-.2.95l-.06.73a3.85,3.85,0,0,1-.33,1.92A4.56,4.56,0,0,1,25.4,95.63ZM25,99.55a1,1,0,0,1,.34-.79,1.22,1.22,0,0,1-.08,1.14l-.09,1.16a2.32,2.32,0,0,1-.23,1.2c-.43-.3-.18-.65-.18-1A3.39,3.39,0,0,1,25,99.55Zm-1.78,11.72.25-.78.24-1.27.3-1.6a1.7,1.7,0,0,1-.08,1.59,2,2,0,0,1-.25,1.28,2,2,0,0,1-.22,1.34c-.07.47.09,1-.37,1.47A3,3,0,0,1,23.22,111.27Zm-.53,3.8a1.49,1.49,0,0,1,.29-1c.38.37,0,.66-.07,1a2.22,2.22,0,0,1-.36,1.46C22.23,116,22.68,115.55,22.69,115.07Zm-.23,2.19-.08,1.33A1,1,0,0,1,22.46,117.26Zm-1.44,6a4,4,0,0,1,.14-.45c.3.58,0,1-.09,1C20.69,123.68,21,123.42,21,123.24Zm-1.58,7.42a3.14,3.14,0,0,1,.48-2.83h0c-.19-.5.09-.86.35-1.29a1,1,0,0,1-.21,1.26A8.3,8.3,0,0,1,19.44,130.66Zm2-.54a.83.83,0,0,1-1,.44c-.53-.09-.2-.55-.18-.82a4.83,4.83,0,0,1,.27-1.24A89.27,89.27,0,0,0,24,112.16c.37-2.77,1.36-5.42,1.58-8.22.55-7.26,1.59-14.48,1.89-21.77.18-4.65.62-9.3.63-14,0-5.2,0-10.41-.35-15.62a115.88,115.88,0,0,0-6.89-32,43.93,43.93,0,0,0-3.25-6.65c1.24-.21,1.7.4,2.13,1.3a92,92,0,0,1,6.5,18.65C28.64,44.23,29,54.72,28.72,65.3c-.14,5.72-.19,11.44-.29,17.16A189.38,189.38,0,0,1,25.87,109c-1.09,6.82-2.54,13.56-4.21,20.26A6.28,6.28,0,0,1,21.43,130.12Zm3.54-1c-.13.19,0,.51-.47.66-.26-.78.48-1.51.11-2.31-.7.46-.65,1.24-.9,1.87-.16.39-.41.74-.81.67-.59-.11-.24-.62-.23-.94a2.06,2.06,0,0,1,.28-1c1.25-2.13,1.14-4.71,2.24-6.89a4.56,4.56,0,0,0,.27-1.62,76,76,0,0,1,1.65-11.14,19.84,19.84,0,0,0,.89-2.63,19.54,19.54,0,0,0,.06-3.67,25.72,25.72,0,0,1,.65-6.54,105.6,105.6,0,0,0,.84-11.9c.18-4.52.44-9,.9-13.52a83.21,83.21,0,0,0,.1-8.51A43.55,43.55,0,0,0,30.27,54a2.64,2.64,0,0,1-.2-.7c0-1.72,0-3.44.05-5.16a4.42,4.42,0,0,1,.41,2.06c.52,4.8.84,9.62,1.15,14.44.18,2.79.11,5.58.13,8.37,0,3.69,0,7.38-.12,11.06-.26,6.56-.92,13.1-1.74,19.62-.73,5.71-1.93,11.35-2.92,17a45.84,45.84,0,0,1-1.48,5.22C25.21,127,25.68,128.17,25,129.15Zm1.21.44c-.63,0-.21-.74-.07-1.1,1.17-3.05,1.85-6.23,2.77-9.35A19.28,19.28,0,0,1,30.4,115a3.94,3.94,0,0,0,.61-2.21c-1,.47-.71,1.78-1.7,2.28A27.64,27.64,0,0,1,31,106.88a6.69,6.69,0,0,0,.42-3.38c-.46-2.75.25-5.42.58-8.07.66-5.19.71-10.39.92-15.59.13-3.24.68-6.48.76-9.71.13-5.45.51-10.92-.1-16.37a7,7,0,0,1-.2-2.63,2.17,2.17,0,0,1,.46,1.58,92.5,92.5,0,0,1,1.41,17.7c-.3,7.74.13,15.51-1,23.21-.4,2.81-.53,5.65-.91,8.46a10,10,0,0,1-.94,3.7,1.44,1.44,0,0,0-.07,1.12c.16,0,.4-.27.47.06s-.14.5-.49.47c-.89,1.24-.82,2.81-1.46,4.13-.08.17-.1.36.09.41.36.12.54-.12.66-.42h0l.22-.79.32-.81c.3.33.16.57-.11.79h0c0,.37.15.75-.18,1.05-.82,5.79-2.28,11.45-3.6,17.13C28,130.28,26.85,129.59,26.18,129.59Zm2.94,0a2,2,0,0,1,.36-1.36,4.61,4.61,0,0,1,1.08-2.46,96,96,0,0,0,2.15-12.13,27.53,27.53,0,0,1,1.58-6.87,13.65,13.65,0,0,0,.37-4.15c.12-2.45.46-4.89.71-7.34.05.16.05.57.26.35a2.52,2.52,0,0,0,.74-1.9c0-.22-.28-.25-.47-.06l-.29-.26c.17-4.78.5-9.55.59-14.34A50,50,0,0,1,36.9,71a4.43,4.43,0,0,0,.06-.51c0-4.7.26-9.4.13-14.1a96.33,96.33,0,0,0-2.43-18.57c-1.53-6.7-3.1-13.35-5.89-19.65-.46-1-1-2-1.48-3,1.8-.44,2.43.52,3.11,2a80.86,80.86,0,0,1,6.24,19.53,101.27,101.27,0,0,1,1.94,22.74c-.13,3.67,0,7.38-.1,11-.18,4.66-.1,9.32-.23,14a4.3,4.3,0,0,1-.55,1.54c-.18.46-.16.45.33,1,.1.12,0,.4,0,.61-.76,9.5-1.58,19-3.7,28.32A57.72,57.72,0,0,1,30.76,126c-.33.84-.66,1.69-1,2.54C29.63,128.92,29.63,129.37,29.12,129.59Zm4-8c0-.07.07-.21.17-.46.15.5.13.94-.13.95S33.17,121.82,33.09,121.64Zm-1.55,7.45c-.14.81-.7.78-1.22.6-.71-.25-.17-.67,0-1,.58-1.15,1.19-2.29,1.79-3.44a3.34,3.34,0,0,1,.49-2,3.38,3.38,0,0,1-.31,2C32,126.53,31.76,127.81,31.54,129.09ZM33,130c-.92-.05-.58-.71-.4-1.21a9.54,9.54,0,0,1,1.21-3,.91.91,0,0,0,.18-.47c.07-2.7,1.55-5.09,1.54-7.87a24.25,24.25,0,0,1,2.18-9.16c.75-1.84,1.07-3.82,1.86-5.65l.23-1,.31-1.12a.79.79,0,0,1-.09,1.09,3.09,3.09,0,0,1-.24,1.56c-.38,4.38-1.37,8.67-2.07,13s-2.1,8.79-2.93,13.23C34.44,130.87,33.56,130,33,130Zm4.13,1c-.53-.22-1.47,0-1.44-1.06a11.14,11.14,0,0,1,1.07-3.75c.12-.27.44-.52.43-.77,0-2.07,1.21-3.82,1.37-5.85A78.15,78.15,0,0,1,40.05,109c.23-1,.77-1.87,1-2.88a24.61,24.61,0,0,0,.1-4.29,67.32,67.32,0,0,1,.71-6.92C42.36,90,43.33,85.26,44,80.45c.13-.92.19-1.85.29-2.77a.6.6,0,0,0,.1-.31l.16-.48h.19a.21.21,0,0,0-.19-.06c0-.43.35-.93,0-1.3a1.14,1.14,0,0,0-.23-.15l-.22,1.26c-.61,2.32-.6,4.74-1.12,7.08l-.24,1.16a5,5,0,0,1,0-2.45c-.19-4.44.65-8.83.77-13.25.22-7.46.66-15-.61-22.33-1.77-10.26-3.55-20.63-8.29-30.12a3.88,3.88,0,0,1-.71-1.59c2-.23,2-.2,2.82,1.57a84.34,84.34,0,0,1,6.66,21,116.33,116.33,0,0,1,1.67,26.22c-.12,3.55.16,7.12-.28,10.67h0v2.31a144,144,0,0,1-.72,17A235.59,235.59,0,0,1,40,121c-.62,3.11-1.48,6.17-2.25,9.25C37.64,130.6,37.77,131.31,37.08,131Zm3,1.19c-.47-.27-1.4,0-1.31-1.12a11.93,11.93,0,0,1,1.56-5.54,2,2,0,0,0,.22-1.1,5.58,5.58,0,0,1,.73-2.78c.71-1.34.46-2.9.66-4.36.5-3.59.75-7.22,2.12-10.65a5.54,5.54,0,0,0,.38-2.24c-.27-6.66,1.51-13.18,1.4-19.83a115.66,115.66,0,0,1,.68-12.76c.5-5.29.28-10.59.27-15.88a88.65,88.65,0,0,0-2.5-18.69A95.88,95.88,0,0,0,38.48,18c-.39-.88-.86-1.74-1.34-2.71a2.53,2.53,0,0,1,3,1.7,83.46,83.46,0,0,1,6.29,19.66,101.79,101.79,0,0,1,1.95,22.12c-.11,3.94.06,7.9-.11,11.82-.35,7.66-.14,15.33-.9,23-.91,9.13-2.32,18.15-4.09,27.13-.72,3.65-1.72,7.25-2.63,10.86C40.62,131.81,40.73,132.58,40.12,132.22Zm2.21,1c-.88-.32-1-.68-.56-1.45.78-1.35.35-3,1-4.41,2.1-4.79,2.52-9.94,3.14-15.06A18,18,0,0,1,47.23,107a6.05,6.05,0,0,0,.47-3.36c-.42-2.71.23-5.34.58-7.94.55-4,.68-8,.85-12,.19-4.64.72-9.26.88-13.88.19-5.4.51-10.84-.14-16.25-.31-2.56.16-5.18-.45-7.72-2.07-8.5-3.17-17.25-6.61-25.38-.66-1.55-1.35-3.08-2-4.62,1.57-.09,2.38.63,3.07,2.12A80.94,80.94,0,0,1,49.7,36.58a102,102,0,0,1,2,20.71c0,4.4,0,8.83-.14,13.21-.3,8-.17,16-1,24-.9,8.79-2.28,17.47-4,26.11-.79,4-1.93,8-2.87,12C43.5,133.47,43.16,133.53,42.33,133.22Zm4.33.44c-.27,1.28-1,.51-1.52.46s-1-.39-.6-1.08c1.09-1.87.57-4.24,1.67-6s.6-4.07,1.84-5.85a4.32,4.32,0,0,0,.32-2.11,45.17,45.17,0,0,1,1.71-10.74,22.94,22.94,0,0,0,.85-7,42.23,42.23,0,0,1,.63-6A133.36,133.36,0,0,0,52.5,80,54.25,54.25,0,0,1,53,72.67c.56-3.34.18-6.68.35-10a71.15,71.15,0,0,0-.78-16.58c-1.65-8.84-3.13-17.78-6.74-26.13L44.32,16.4c1.28.55,2.67.72,3,2.12.45,2.2,1.82,4,2.5,6.06A103.11,103.11,0,0,1,55,56.79c0,3.9-.11,7.79-.16,11.69-.13,10.75-.21,21.51-1.6,32.2A208,208,0,0,1,48.52,126C47.87,128.56,47.21,131.1,46.66,133.66Zm1.51,1.25c-.86,0-.82-.6-.56-1.15,1.26-2.63.91-5.75,2.58-8.25a.25.25,0,0,0,0-.12c-.06-2.52,1.39-4.69,1.53-7.23a36.49,36.49,0,0,1,2.17-11.52,5.38,5.38,0,0,0,.31-2.63c-.42-2.83.22-5.59.59-8.32.46-3.38.5-6.75.78-10.12.18-2.12.08-4.24.13-6.36.07-2.61.42-5.21.65-7.82a21.89,21.89,0,0,0,.24-2.78c-.13-3.3.19-6.61.07-9.91-.24-6.67-.52-13.33-2.28-19.86-1.07-4-2-8.06-2.82-12.11-.71-3.33-2.74-6-3.42-9.42,1.74.07,2.38,1.52,3,2.77a31.16,31.16,0,0,1,3.14,9.22c.55,3.25,2,6.22,2.33,9.54s.91,6.63,1.22,10a81.68,81.68,0,0,1,.25,9.77c-.1,3.26,0,6.53-.1,9.79C58,73.56,58,78.78,57.78,84a208.75,208.75,0,0,1-3.9,32.65c-1.19,5.93-2.67,11.79-4.12,17.67C49.45,135.57,48.78,134.94,48.17,134.91Zm3.82.72c-.5-.2-.06-.52,0-.71a3.77,3.77,0,0,0,.15-2,4,4,0,0,0-.72,2c0,.31,0,.6-.46.53s-.33-.39-.32-.67a1,1,0,0,1,0-.25c1-2.56,1.27-5.3,2.12-7.89a2.51,2.51,0,0,1,.43-.61l.26-1h0l.22-.29,0,0-.06-1.52c1.77-2.93,1.21-6.33,1.81-9.5a47,47,0,0,1,1.62-6.87,6.61,6.61,0,0,0,.41-3.25c-.47-2.83.3-5.58.63-8.32.32-2.57.45-5.14.6-7.71.17-2.83.15-5.68.29-8.49A56.14,56.14,0,0,1,59.76,71a2.5,2.5,0,0,0,.06-.38c-.11-5.29.42-10.59-.07-15.88a9.67,9.67,0,0,1-.15-1.39c.31-4.47-.7-8.74-1.65-13.06-1.13-5.11-2-10.28-3.77-15.42L55.51,26c.24-.72-.29-1.19-.6-1.69-1.19-1.92-2.56-3.73-3.14-6a2.86,2.86,0,0,1,2.86,2,55.6,55.6,0,0,1,2.19,6.17c-.2.63-.82-.85-.83.31,3,3.95,3.27,8.76,4.08,13.37A92,92,0,0,1,61.48,55c0,3-.07,5.93-.11,8.9-.1,7.11,0,14.24-.35,21.34a202,202,0,0,1-2.28,22.49c-.22,1.32-1,2.53-.7,3.94,0,.21-.1.41-.28.63-.57.7-1.13,1.4-.34,2.41.24.3-.09,1-.15,1.59-1.25.44-1.76,1.7-1.32,3.22l.39-.6,0-.08.2-.67.39-.91.07-.14a1.62,1.62,0,0,1-.2,1.29,2.68,2.68,0,0,1-.27,1.28A20.59,20.59,0,0,1,55.47,124a5.37,5.37,0,0,1-.47,1.85,2.52,2.52,0,0,1,.14-2c0-.13.07-.27.1-.4h0c-.11-.48.23-1-.24-1.74-.41,1.17-.73,2.1-1,3a.19.19,0,0,0,0,.08A2.72,2.72,0,0,1,53.5,126h0c-.07.42-.17.83-.22,1.24s-.11.88.3,1,.57-.37.72-.7l.1-.09h0l-.06,0c.2-.49-.14-1.23.66-1.45h0a4.38,4.38,0,0,1-.44,2.05h0c-.42,2.38-1.13,4.69-1.77,7C52.64,135.6,52.44,135.81,52,135.63Zm4-2.27a10.68,10.68,0,0,0-.53,2.09c-.12.86-.7.49-1.15.51-.71,0-.59-.42-.48-.85a2.21,2.21,0,0,1,0-.25c1.18-3,1-6.4,2.76-9.24a.68.68,0,0,0,.08-.24c.2-2.85,1.47-5.46,1.63-8.38a31.38,31.38,0,0,1,2-10.26,5.74,5.74,0,0,0,.41-3.11c-.51-2.75.21-5.42.57-8.06.48-3.54.57-7.08.76-10.63.26-4.88.64-9.76.88-14.64A110.27,110.27,0,0,0,63,54.56c-.21-2.23.08-4.53-.27-6.73-.68-4.21-1.66-8.37-2.52-12.56-.06-.29-.09-.58-.13-.88a1.44,1.44,0,0,1-.2-1.3s0,0,0,0h0a.15.15,0,0,0,0-.07c-.6-2.12-1.16-4.26-1.83-6.37-.76-2.37-1.61-4.7-2.44-7.1a3.22,3.22,0,0,1,2.85,2.11,65.17,65.17,0,0,1,3.49,11.63h0c.28.39.26.82.16,1.57l-.41-1a8.2,8.2,0,0,0-.9-1c-.37-.3-.8-.47-.92.22l0,.06h0v0c.32.15.33.49.47.76a1,1,0,0,0,.15.2c2.79,2.65,2.94,6.21,3.41,9.68,1,7.26.77,14.54.72,21.84,0,5.76-.23,11.51-.28,17.27a176.52,176.52,0,0,1-1.83,21.4c-.39,2.94-.93,5.85-1.4,8.78-.16.08-.49-.11-.47.28a9.8,9.8,0,0,0-.62,1.77c-.06.35-.86,1.06.3,1.19a6.27,6.27,0,0,1,0,1.07,1.84,1.84,0,0,0-1.26,2.11c0,.16-.08.47.26.37.13,0,.21-.24.31-.36a.14.14,0,0,0,.15,0l0,0-.05,0,.29-.88.11-.31c-.12.42.26,1-.3,1.27.18.7-.24,1.32-.23,2H59.1a1.9,1.9,0,0,0-.75,2.16,1.34,1.34,0,0,1-.14,1.81,3,3,0,0,0-.61,3.22,2.32,2.32,0,0,1-.43,2.12C56.22,131.45,56.37,132.48,56,133.36Zm2.15,3c-1-.11-1.3-.39-1.07-1.38a11.44,11.44,0,0,1,1.12-3.48c.56-.94,0-2.05.49-3,1.18-2.29,1.29-4.92,2.36-7.25a7.29,7.29,0,0,0,.33-2.38A66,66,0,0,1,63,108.55c.22-.85.65-1.66.81-2.52a11.67,11.67,0,0,0,.12-3.78c-.31-2.16.31-4.31.63-6.41a99.13,99.13,0,0,0,.81-11.26c.19-5.16.62-10.29,1-15.43a85.07,85.07,0,0,0,0-12.57c-.41-5.08.06-10.29-1.74-15.21a1.21,1.21,0,0,1,0-.38.4.4,0,0,1-.08-.39C64,38,63.48,35.32,62.9,32.69c-.32-1.44-.7-2.86-1.06-4.3.48-.12.52.6,1.06.34-1-2.73-2.93-5.08-3.57-8a2.86,2.86,0,0,1,3,2.34c.7,2.57,1.54,5.1,2.32,7.65a1.22,1.22,0,0,1,0,1c-.38.06-.38-.6-.93-.38.58.94.62,2.06,1.6,2.92.59.51.68,1.69.84,2.59.31,1.79.51,3.6.76,5.41h0a113.25,113.25,0,0,1,1,21.93c-.06,1.86,0,3.73.07,5.59.08,1.33-.25,2.61-.28,3.92-.12,4.19.19,8.39-.16,12.58-.56,6.88-.93,13.79-2.18,20.58-.44,2.42-1.34,4.8-1.66,7.26a145.83,145.83,0,0,1-4.44,21.21C59.1,135.82,59.17,136.49,58.19,136.39Zm3.28.06c-.6-.16-.16-.67-.11-1a79.63,79.63,0,0,1,1.55-8.75c.49-1.8.24-3.8,1.43-5.45a4.18,4.18,0,0,0,.33-2,47.2,47.2,0,0,1,1.7-10.87,22.76,22.76,0,0,0,.87-7.23,36.27,36.27,0,0,1,.61-5.66,131,131,0,0,0,1-15.58c.1-2.82.35-5.65.65-8.45A34.83,34.83,0,0,0,69.69,67c0-2.5,0-5,.09-7.51a47.23,47.23,0,0,0-.31-5.7h0c-.47-2-.06-4-.17-5.92-.29-3-1.39-5.93-1.87-8.94a90.86,90.86,0,0,0-4.24-16.3c-.09-.25-.34-.52-.14-.84.6.3.69.95,1,1.44,3.43,5.56,4.87,11.75,5.7,18.12.3,2.26.55,4.52.83,6.78l-.28.25c-.16-.28-.34-.53-.72-.45l.18,1c1.1,1,1,2.29,1.09,3.61.19,5.17,0,10.34-.06,15.51-.14,10.76-.21,21.52-1.54,32.22-.74,6-1.75,12-2.94,17.93s-2.63,11.73-4.23,17.53C62,136,62.05,136.6,61.47,136.45Zm75,17.08a8.11,8.11,0,0,0-1.13-2.94c-.13,1.43.84,2.31.6,3.41a48.7,48.7,0,0,1-9.1.78,66.49,66.49,0,0,1-19.47-3.87,2.29,2.29,0,0,1-1.49-1.65c-.52-1.62-.84-3.27-1.22-4.92a3.48,3.48,0,0,0-.88-1.94c.5,2.36.08,4.84,1.29,7.24-1.67-.53-2.54-1.32-2.77-3a25.76,25.76,0,0,0-2.12-6.63,1.28,1.28,0,0,0-.85-.94c.8,3,1.57,5.81,2.38,8.83-2.31-1.49-4.47-2.88-6.63-4.29A3.07,3.07,0,0,1,94,141a34.32,34.32,0,0,0-1-4.7c-.6-2.63-.91-5.32-1.33-8a5.76,5.76,0,0,0-.63-2.19c-.87,5.72,2.37,10.75,2.21,16.26-1.7-1-3.48-2-5.27-3-.35-.19-.33-.5-.43-.83-.52-1.72-.4-3.52-.73-5.27-.09-.44-.07-.93-.51-1.24A76.3,76.3,0,0,0,85,121.34a38.64,38.64,0,0,0,1.12,11c.59,2,.2,4.17.87,6.41-.65-.26-1.09-.41-1.52-.61a21.41,21.41,0,0,0-11.63-1.88,70.89,70.89,0,0,1-9.78.32c-.84,0-1-.27-.81-1.05a17.2,17.2,0,0,1,1.25-4.24c.51-1.06.14-2.32.64-3.45,2.1-4.84,2.64-10,3.23-15.2a23,23,0,0,1,1.44-5.76,8.73,8.73,0,0,0,.39-4.51,5.71,5.71,0,0,1,0-1.89,130.69,130.69,0,0,0,1.62-19.85c.08-3.33.48-6.64.74-10,.2-2.57.08-5.17.1-7.75,0-2.84-.13-5.7,0-8.5.08-2.12-.49-4.13-.36-6.23.14-2.28-.81-4.48-1.31-6.71s-.89-4.4-1.32-6.6a1.67,1.67,0,0,1,0-.48c2.5,4.69,4.35,9.59,7.26,13.93-2.71-8.73-8.27-16.25-10.45-25.2.27-.14.56.09.87.21a77.46,77.46,0,0,0,13,4.21c2.61.53,4.84,2.21,7.23,3.36,3.59,1.73,7.17,3.45,10.73,5.23,3.38,1.68,7.06,2.11,10.72,2.43,5,.43,9.13,2.69,13.09,5.43,1.34.93,1.64,2.62,2.27,4l.27,1.29.72,5.6a10.86,10.86,0,0,0,0,1.89c.21,1.32-.3,2.68.23,4a2,2,0,0,0-.5,2.65v.38h0c-.94.33-.46,1.23-.75,1.82a37.1,37.1,0,0,0-1,11.69,7.07,7.07,0,0,0,.42,2.41h0a25,25,0,0,0,1.23,5,10.29,10.29,0,0,1,.89,2.75l.5,1.53.66,2.18,0,.11a.64.64,0,0,0,0,.07h0a21.53,21.53,0,0,1,.58,7.83c-.14,2.32-.33,4.64-.4,7-.1,3.15-.57,6.34.05,9.47a118.21,118.21,0,0,0,5.43,18.69c.16.48,0,1.15.72,1.29-.28.69-.22,1.27.55,1.62h0c-.45.4,0,.77,0,1.15a3.07,3.07,0,0,0,.46,1.32.55.55,0,0,0,.51.61c-.52.65.07,1.13.26,1.67.13.32-.17.75.23,1,.46,1.34.91,2.69,1.36,4,.15.44.1,1,.7,1.17a1,1,0,0,0,.51,1.52,1,1,0,0,0,.53,1.54h0v.26c-.5.76.48,1.38.21,2.12h0C138,153.58,137.16,154.1,136.45,153.53Zm2.79-.25a3.37,3.37,0,0,0-.51-1.42.66.66,0,0,1,0-.14,1.56,1.56,0,0,0-.11-.52l-.15-.21a2.57,2.57,0,0,0-.31-1,.16.16,0,0,1,0-.07,1.39,1.39,0,0,0-.1-.33l-.1-.15a2.36,2.36,0,0,0-.32-1v-.07a.9.9,0,0,0-.09-.32l-.11-.17a3.68,3.68,0,0,0-.44-1.32,18.94,18.94,0,0,0-1.27-3.81l-.3-1a3.19,3.19,0,0,0-.35-1.21,1.12,1.12,0,0,0,0-.32l-.19-.26-.2-.74-.42-1.11a1.74,1.74,0,0,0-.16-.68v-.06a1,1,0,0,0-.1-.3l-.09-.12a3.68,3.68,0,0,0-.33-1.13s0-.06,0-.08a.85.85,0,0,0-.13-.31,3.23,3.23,0,0,0-.46-1.38c-.73-2.43-1.52-4.84-2.18-7.29-1.25-4.6-3-9.12-3.1-14-.08-3.72.11-7.45.18-11.18l.06-.69a3.55,3.55,0,0,0,.08-.85c.27-3.11.48-6.22-.71-9.25a8.88,8.88,0,0,0-.72-2.33,2.09,2.09,0,0,0-.47-1.32.5.5,0,0,0,0-.13c-.5-2.69-1.47-5.27-2.09-7.93a26.36,26.36,0,0,1-.27-5.61q.43-3.54.85-7.06h0l0-.15a1.16,1.16,0,0,0,.07-.4l.3-1.63a3,3,0,0,1,.18-.36,1.2,1.2,0,0,0,.08-.56c0-.09,0-.17,0-.25a8,8,0,0,0,.37-2.17l.12-.2a.76.76,0,0,0,0-.21,2,2,0,0,0,.07-1v-4a4.71,4.71,0,0,0-.18-2.14h0a10.47,10.47,0,0,0-.67-3.92.28.28,0,0,1,0-.09c0-.15-.06-.31-.1-.46a1.48,1.48,0,0,0-.25-1.09,5.45,5.45,0,0,0-.76-2.48,2.89,2.89,0,0,1,2,1.3,16.44,16.44,0,0,1,1.77,3.5c.4.84,0,1.8.43,2.64a32.86,32.86,0,0,1,.36,9.34l-.25,1-.08.44a8,8,0,0,0-.43,2.61l-.28,1a5.61,5.61,0,0,0-.31,2,1.69,1.69,0,0,0-.09.77l-.1.84a21.08,21.08,0,0,0-.25,8.41,10.71,10.71,0,0,0,.69,3.15h0a15.64,15.64,0,0,0,.42,2.35c.33,1.53,1.23,2.86,1.44,4.42h0c.33,1.19.67,2.38,1,3.57a19.49,19.49,0,0,1,.71,7.52,6.79,6.79,0,0,0-.17,2.42c-.15,2.66-.31,5.32-.44,8a25.58,25.58,0,0,0,.27,6.71A158.75,158.75,0,0,0,136,136l.33,1.26.45.77a3.1,3.1,0,0,0,.5,1.56h0l.33,1.22h0l.4,1.12c0,.38.08.74.54.81-.45.39,0,.76.06,1.13s0,1.06.71,1.17c-.5.66,0,1.13.33,1.63a2.3,2.3,0,0,0,.44,1.56,1,1,0,0,0,.26.76.86.86,0,0,0,.25.76.89.89,0,0,0,.26.77c0,.38.07.67.5.74-.57.9.57,1.65.22,2.54C140.8,153.45,139.88,154,139.24,153.28Zm5.29.68c-.86-.11-1.84.2-2.47-.69a6.83,6.83,0,0,0-.59-1.77v-.05a.94.94,0,0,0-.11-.32c-.05-.07-.09-.15-.14-.23l-.21-.69-.25-.76-.25-.76-.23-.76a2.07,2.07,0,0,0-.46-1.29h0a3.08,3.08,0,0,0-.4-1.47.13.13,0,0,1,0-.06.89.89,0,0,0-.08-.32l-.11-.17a3,3,0,0,0-.41-1.12,1.68,1.68,0,0,0-.16-.64v0a1.09,1.09,0,0,0-.08-.31,2.13,2.13,0,0,1-.16-.25l-.18-.71a2.2,2.2,0,0,0-.43-1.11h0l-.37-1.18c-.12-.44-.11-.93-.48-1.28a1.55,1.55,0,0,0-.27-1,2.88,2.88,0,0,0-.44-1.35c-.31-1.09-.61-2.19-.95-3.28-1.45-4.73-2.85-9.47-4-14.3-.93-4.07-.29-8.19-.43-12.28a4.53,4.53,0,0,0,.07-.62,48.45,48.45,0,0,0,.17-5l0-.41a5.64,5.64,0,0,0,.16-2,9.28,9.28,0,0,0-.85-5.19l-.13-.49a8.07,8.07,0,0,0-.94-3.25l0-.13a2.8,2.8,0,0,0-.22-1.17c-.57-1.93-1.11-3.87-1.67-5.81l-.59-2.38c0-.11,0-.23,0-.34a35.21,35.21,0,0,1,.14-5.53c.22-1.88.37-3.76.55-5.65l.09-.35c.28-.17.21-.46.2-.73a9.44,9.44,0,0,0,.43-2.36l.09-.69a1.93,1.93,0,0,0,.25-1.15,3.41,3.41,0,0,0,.06-.43c0-.2.07-.39.1-.59a7.54,7.54,0,0,0,.12-.83,27,27,0,0,0-.61-9c-.15-.52-.06-1.1-.43-1.55a8.6,8.6,0,0,0-.79-2.84c2.21.3,2.94,1.91,3.6,3.59.1.37.1.78.46,1a87.24,87.24,0,0,1,.57,10.47c0,.1.13.2.2.3l0,.5c-.29,0-.41.18-.48.45a14.16,14.16,0,0,0-.5,3.29v.5c-.83,1.6-.59,3.43-1.08,5.1h0a1.7,1.7,0,0,1,0,.22,2.5,2.5,0,0,1-.41,1v-1c-.14-.43,0-1-.72-1.43.46,3.66.82,7.13,1.33,10.57a48.2,48.2,0,0,0,2.46,8.44,11.25,11.25,0,0,0,.72,2.55c.16.62.31,1.24.46,1.86h0a20.47,20.47,0,0,1,.52,4.12h0a7.71,7.71,0,0,0-.2,2.44l-.06,2.22h0a13.87,13.87,0,0,0-.17,3.64c-.33,3.55-.75,7.13-.1,10.64a119.88,119.88,0,0,0,5.43,18.86c.17.44,0,1.07.7,1.18-.44.39,0,.75.06,1.13s.14,1,.47,1.37l.51,1.09c-.62.6.34.87.29,1.35.24.7.16,1.52.8,2.07l.19.39a1.74,1.74,0,0,0,.75,2,1,1,0,0,0,.51,1.53,1,1,0,0,0,.51,1.53c-.5.63,0,1.12.25,1.64h0a3.14,3.14,0,0,0,.51,1.56C144.59,153.68,144.54,154,144.53,154Zm6.17,2.17c-1-.43-2.14-.64-2.76-1.68a2.25,2.25,0,0,1-3.11-1.42c-.19-.33,0-.94-.51-1,0-.06,0-.13-.08-.2a1.36,1.36,0,0,0-.25-1.25.19.19,0,0,0,0-.08.78.78,0,0,0-.07-.33.91.91,0,0,1-.11-.16,2.87,2.87,0,0,0-.31-.95v-.11a1.17,1.17,0,0,0-.09-.32,1.13,1.13,0,0,1-.1-.13,2.46,2.46,0,0,0-.32-1v-.1a1.39,1.39,0,0,0-.1-.33l-.09-.13a2.91,2.91,0,0,0-.52-1.4c0-.07,0-.14,0-.22a1.16,1.16,0,0,0-.21-.64,2.33,2.33,0,0,1-.2-.34,3.64,3.64,0,0,0-.52-1.77h0a1.33,1.33,0,0,0-.39-1,.45.45,0,0,1,0-.11,3.26,3.26,0,0,0-.43-1.25.93.93,0,0,0-.05-.1c.2-.52-.29-1-.39-1.43a1.45,1.45,0,0,0-.16-.68v-.09a1.21,1.21,0,0,0-.11-.32l0-.06a3.06,3.06,0,0,0-.46-1.34c-.49-1.61-1-3.22-1.45-4.84-1.73-6.33-4.18-12.52-3.89-19.26a30.64,30.64,0,0,0,.18-5.16l.06-3.38s0,0,0-.08a10.23,10.23,0,0,0,.18-2.65,14.51,14.51,0,0,0-.5-6.86,3.66,3.66,0,0,0-.42-1.4h0c0-.18-.14-.44.16-.55a13,13,0,0,0,1.82,3.21c0,.4.25.85.56.9,1.16.2,1,1.16,1.25,1.91v2l-.06,1.88a.08.08,0,0,0,0,0c0,.15,0,.29-.05.44a6.77,6.77,0,0,0-.12,2.2h0l0,.27c-.07,1.27-.17,2.53-.21,3.8-.08,3-.63,6.09-.15,9.11A109.89,109.89,0,0,0,142.36,138a8.67,8.67,0,0,0,.49,1.67l0,.17a1.44,1.44,0,0,0,.16.33,1.59,1.59,0,0,1,.18.27.78.78,0,0,0,.33,1l0,.11c0,.11.07.21.11.31l0,.07c-.22.47.19.86.34,1.28a1.41,1.41,0,0,0,.31.91h0c0,.2,0,.4.19.52.05.27,0,.56.25.76h0l.36,1.24a18.76,18.76,0,0,0,1,3c0,.12,0,.25.05.38a2.65,2.65,0,0,0,.23.48l.08.13c-.11.42.22.79.37,1.17a.78.78,0,0,0,.3.69,2.64,2.64,0,0,0,.1.3.3.3,0,0,0,0,.1.87.87,0,0,0,.35,1.09v0a.82.82,0,0,0,.27.41v-.28a2.76,2.76,0,0,0-.51-1.55l-.3-1.13c-.12-.4-.12-.86-.47-1.17a.56.56,0,0,0-.17-.09,10.06,10.06,0,0,0-1.09-3.87l-.32-1-.26-.76c-.08-.34-.16-.67-.25-1h0l-.24-.78-.47-1.14h0l0-.07-.48-1.56h0l-.25,0a4.44,4.44,0,0,0-.53-2.35c-.91-3-1.9-6.05-2.71-9.11-1.2-4.52-2.84-9-2.73-13.74.05-2.28.05-4.57.08-6.85a49.07,49.07,0,0,0,.27-6.06,6.24,6.24,0,0,0,.19-2.15,12.68,12.68,0,0,0-.8-5.32h0l-.72-2.56a3.69,3.69,0,0,0-.47-1.4l.23-.41,1,1.56.23.24a2.27,2.27,0,0,0,.93,1.75h0c-.24.37-.29.72.21.89,1,.35,1.23,1.23,1.49,2.14a16.3,16.3,0,0,1,.68,4.33h0a7.25,7.25,0,0,0-.19,2.37h0c0,.81-.05,1.62-.08,2.44h0a16.09,16.09,0,0,0-.17,3.67c-.32,3.45-.73,7-.1,10.37a118.49,118.49,0,0,0,5.71,19.66c.19.38.06.94.48,1.19l.08.23.06.17a.87.87,0,0,0,.34,1.09v0c0,.1.08.2.13.3s0,0,0,.05a1.72,1.72,0,0,0,.32,1.35c.14.47.14,1,.51,1.37l0,.09a1.92,1.92,0,0,0,.11.31.08.08,0,0,0,0,0c-.2.46.17.84.35,1.24h0l.35,1.19a6.39,6.39,0,0,0,.57,1.83s0,0,0,.06a1.07,1.07,0,0,0,.13.31l0,0a3.32,3.32,0,0,0,.48,1.35.9.9,0,0,0,.26.75.86.86,0,0,0,.26.76h0a.84.84,0,0,0,.24.74.64.64,0,0,0,0,.07,3.35,3.35,0,0,0,.48,1.54C150.87,155.79,151.25,156.36,150.7,156.13Zm9.16,4.32c-.25.46-.65.08-1,.05-2-.18-1.89-1.82-2.29-3.13a6.55,6.55,0,0,1-1-2.94h0c-.32-.23-.25-.64-.41-.94-1.29-2-1.75-4.26-2.6-6.4-.37-.94-.69-1.89-1-2.85-.13-.38-.25-.73-.76-.64.07.21-.63.32-.08.6h0c-.31.93.29,1.64.59,2.43.1.54,0,1.16.61,1.5h0c-.08.68-.21,1.4.84,1.4l-.05.06c-.68,0-.47.45-.38.74.19.57.47,1.12.71,1.67,0,.21,0,.43.26.55l.17-.19.06-.06c.13,0,.18-.17.22-.31l-.21.29-.07,0h0a4.66,4.66,0,0,1-.22-.45.86.86,0,0,0,.1-.16l-.08-.19c.08-.17-.21-.4.07-.55.38.25.31.68.44,1l.25.78c.73,2.17,1.47,4.33,2.2,6.5-1.9-1.23-4.19-1.81-5.17-4,.12-.55-.2-1-.32-1.5l-.26-.76-.25-.77-.23-.76c-.22-.44.11-1.19-.72-1.29a2.9,2.9,0,0,0-.51-2.3l-.33-1.24a2.4,2.4,0,0,0-.44-1.17h0l-.56-1.9a3.64,3.64,0,0,0-.46-1.28,3.75,3.75,0,0,0-.51-1.53,3,3,0,0,0-.52-1.54c-.45-2.23-1.31-4.35-1.91-6.54-1.67-6.11-4-12.09-3.66-18.58a33.19,33.19,0,0,0,.18-5.18l.06-3.23a10.33,10.33,0,0,0,.19-2.88c0-.64,0-1.27.07-1.91a3.34,3.34,0,0,0,0-2.05h0a21.28,21.28,0,0,0-1.32-5.45A2.87,2.87,0,0,0,139,92h0l-.24-.12a12.07,12.07,0,0,0-.55-3c-.06-.1-.11-.2-.16-.3a3.26,3.26,0,0,1-.32-1.51c-.22-.41-.56-.8-.06-1.24a.66.66,0,0,1,.19.3,3.86,3.86,0,0,1,.05.9h0a1.19,1.19,0,0,0,.15.6c.11.22.25.43.34.66l0,.08c.44.51.7,1.19,1.38,1.48a1.19,1.19,0,0,0,.71,1.6c0,.06,0,.11,0,.16-.31,1.14.77,1.12,1.31,1.55a19.48,19.48,0,0,1,1.52,4.59c.51,1.42.18,2.9.29,4.35-.2,2.75-.27,5.51-.61,8.23-1,7.81.79,15.14,3.64,22.3.33.68.05,1.66,1,2h0v.12c-.45.63,0,1.14.23,1.68a3.14,3.14,0,0,0,.51,1.54h0c0,.27,0,.56.27.76a.84.84,0,0,0,.26.76c.12.53,0,1.15.56,1.53a.46.46,0,0,1,.21.13,1.64,1.64,0,0,0,.76,2.14l.28.27a.78.78,0,0,0-.23-.45l-.11-.15a4.84,4.84,0,0,0-.55-1.56s0-.09,0-.14a1.15,1.15,0,0,0-.19-.46,2.53,2.53,0,0,1-.2-.36,2.32,2.32,0,0,0-.32-1.22l-.24-.76-.26-1a1.82,1.82,0,0,0-.45-1,3.81,3.81,0,0,0-.36-1.37c0-.08,0-.16,0-.24a.93.93,0,0,0-.12-.33l-.12-.21a7.94,7.94,0,0,0-.66-2c-.38-1.34-.73-2.68-1.14-4-1.36-4.46-2.54-8.93-2.24-13.66.2-3.16.23-6.33.33-9.5h0a26.39,26.39,0,0,0,.21-5.89,2.62,2.62,0,0,0-.38-1.75c0-.14-.07-.27-.1-.41a14,14,0,0,0-1.25-4.78l-.09-.44-.22-.77h0l-.48-2h0c.39,0,.52.58,1,.54.52.64.06,1.58.7,2.21a8.07,8.07,0,0,1,1.91,3.63.63.63,0,0,0,.18.58,10.62,10.62,0,0,0,.84,3.23c.23.89.46,1.78.68,2.67h0c0,1.18,0,2.36-.07,3.54-.26,4.93-.88,9.85-.75,14.79.15,5.3,1.88,10.25,3.68,15.16a11.07,11.07,0,0,0,.48,1.64l0,.2a2.3,2.3,0,0,0,.24.5.75.75,0,0,0,.07.12c-.07.29.16.57.22.85a2.19,2.19,0,0,0,.41,1,1.57,1.57,0,0,0,.19.77v.08a.82.82,0,0,0,.1.3l0,0a3.07,3.07,0,0,0,.47,1.37,9.42,9.42,0,0,0,.3,1.19l0,.14a1,1,0,0,0,.17.28l.13.17c-.19.48.19.89.36,1.32s0,.75.56.7h0c-.34.39-.23.65.14.83a.56.56,0,0,0,0,.12c-.25.3,0,.44.19.59a1.06,1.06,0,0,0,0,.25v0c-.25.48.14.88.33,1.3l.35,1.19a2.82,2.82,0,0,0,.46,1.29h0c.1.34.2.67.31,1a.45.45,0,0,0,0,.23h0a.34.34,0,0,1,.21,0v0a.86.86,0,0,1-.06.23l.14.25,0,.45V154h.13c.16.16.08.55.28.68a.43.43,0,0,0,.29,0,2.65,2.65,0,0,0-.43-1.57h0v-.34a.65.65,0,0,0,.24,0l.06,0,.45.45c0,.53.52.78.67,1.23l0,.13a1.92,1.92,0,0,0,1.05,1.43,3.61,3.61,0,0,0,1.18,3.37A.86.86,0,0,1,159.86,160.45Zm3.73-.06c-.1-.4-.57-.71-.87-1.06-.31,0-.9-.32-.51.46.25.5.49,1,.75,1.55-2.11-.23-2.86-1-3.37-3.48a.73.73,0,0,1-.41-.78l-.26-.77-.53-.24a2,2,0,0,0-.7-2.09l-.54-.73c-.62-1.08-.62-1.08-1.06-.5h-.22l-.28-.26-.05-.83c.39.05.92,0,1-.33.09-.55-.41-1-.76-1.36s-.63,0-.9.18c.16-.36-.5-.68,0-1.05.65-.08.62-.57.4-.91s-.47,0-.65.21c-.34-.06-.25-.46-.48-.61.18-.3.9-.16.69-.69s-.62,0-.95-.08c0-.27.21-.36.37-.52.52-.53.36-.85-.38-.87v-.26c.31-.42.3-.76-.23-1h0l-.48.16a1,1,0,0,0-.29-.69h-.22a4.76,4.76,0,0,0-.35-1.79h0c-.19-.49,0-1.18-.7-1.41.43-.32,0-.59-.06-.88a4,4,0,0,0-.44-1.35,1,1,0,0,0-.29-.84h0a1,1,0,0,0-.17-.1,4.89,4.89,0,0,0-.55-2.37,6,6,0,0,0-.17-.73A51.34,51.34,0,0,1,147,110.82a37.66,37.66,0,0,0,.13-9.49,10.91,10.91,0,0,0-.68-2.64h0c-.18-.84-.37-1.67-.55-2.51l1.52.61c.1.52.1,1.12.82,1.22.43,0,.54.39.63.69.31,1.12.59,2.25.88,3.38,0,.1.07.2.1.3q.1.54.18,1.08c.06,1-.09,2,0,3-.16,2.11-.29,4.22-.47,6.33a47.91,47.91,0,0,0-.14,11.16,56.62,56.62,0,0,0,3.66,13,3,3,0,0,0,.43,1.2v0l.06.17a3.5,3.5,0,0,0,.3,1.14c.14.36.07.83.42,1.07,0,.09.06.19.1.28l0,.08c-.24.41-.54.81.05,1.22a.36.36,0,0,0,0,.11c-.69.77.37,1.05.54,1.58-.15,0-.3.07-.27.27a.25.25,0,0,0,.31.24l1,2.28c-.42.45,0,.83.15,1.22s.85.69.73,1.34l1,2.79c.13.38.27.75.4,1.12h0c.28.8.21,1.76,1.08,2.28h0l0,0h0c-.21.15-.21.39-.23.61h0l.1.18.18.36a1.48,1.48,0,0,0,0,.21h0l.27.56.11.43h.05a.09.09,0,0,1,.06,0l-.08.07a1.09,1.09,0,0,0,.65.7L160,157a1.18,1.18,0,0,0-.24-.79h0a1.38,1.38,0,0,0-.2-.69.13.13,0,0,0,0-.06.73.73,0,0,0-.09-.32h0v-.35l.09,0h.08c.64.73,1.49,1.29,1.44,2.5a.69.69,0,0,0,1,.66,1.36,1.36,0,0,0,.28-.11c-.57-1.79-1.91-3.21-2.38-5a1.34,1.34,0,0,0-.29.2c-.53.49-.18,1.1,0,1.69h-.07l-.09,0c-.47-.58-.46-1.37-.82-2l-.06.08,0-.09h.09c.13-.26-.43-.56,0-.79l0,0a.84.84,0,0,1,.54.32,2,2,0,0,0,.25.25c-.09-.89-.15-1.81-1.27-2.08a2.47,2.47,0,0,0-1-1.5,2.2,2.2,0,0,0-.56-2.28,13.63,13.63,0,0,0-1-2.82.22.22,0,0,0,0-.22c-.15-.59,0-1.38-1-1.42,1-.5.06-1,0-1.51h0a3.43,3.43,0,0,0-.47-1.49,1.48,1.48,0,0,0-.37-.94,2.83,2.83,0,0,0-.42-1.6h0c-.3-1.1-.59-2.2-.93-3.29-1.47-4.82-2.81-9.66-2.46-14.8.21-3.08.23-6.17.34-9.26h0a11.67,11.67,0,0,0,.21-2.89c0-1.55.26-3.14-.48-4.62,0-2-.81-3.72-1.33-5.55l-.76-2.54c-.23-.72-.45-1.43-.68-2.14h0c-.43-1.72-.87-3.43-1.3-5.14h0c0-1.61,0-3.21.1-4.82.23-3.39,1-6.69,1.4-10v-.28A6.69,6.69,0,0,0,147.9,69a27.94,27.94,0,0,0,0-6.59,10.35,10.35,0,0,0-.71-3.89v-.21a4.63,4.63,0,0,0-.47-1.82,11.75,11.75,0,0,0-1-2.76c1.7.45,3.31.86,3.81,2.79.2.36,0,1,.72,1h0l0,.28c-.07.08-.21.17-.2.25q.36,2.92.74,5.86c0,1.62,0,3.24,0,4.86h0a15.9,15.9,0,0,0-.53,3.29c0,.07,0,.14,0,.21a25,25,0,0,0-1.3,7.63c-.06.58-.16,1.16-.19,1.74-.18,3.58-.14,7.14,1.44,10.49.13.28.19.55.56.55v.13a2.64,2.64,0,0,0,.78,2.79h0v0a.42.42,0,0,0-.23.52c.51,1.73,1,3.45,1.54,5.18l.33,1.36a1.44,1.44,0,0,0,.08.33,1,1,0,0,1,0,.14c0,3.82-.44,7.6-.65,11.41s-.59,7.47.25,11.13a75.52,75.52,0,0,0,3.53,11.77c.14.45.08,1,.69,1.18-.48.6.12,1.07.21,1.61h0c.34.18.31.51.33.83a7,7,0,0,0,1.08,3l.18.1c-.46.57,0,1,.2,1.51a1,1,0,0,0,.27.77h0l.84,2.69a3,3,0,0,0,.46,1.3l.31,1a19.63,19.63,0,0,0,1.14,3.34c.1.25,0,.63.3.72s.23-.24.26-.41l-.24-.34v0l-.2-1.18c.42.14,1,.16.9-.35s-.42-1.44-1.42-1.2l-.34-.37-.09-.23c.29-.28.63-.51.45-1s-.6.17-.81-.17c.21-.57.41-1.14-.43-1.38h0c.35-1.1-.39-1.85-.87-2.69l-.24-.76a3.3,3.3,0,0,0-.35-1s0-.06,0-.09a1.32,1.32,0,0,0-.19-.46c0-.13-.11-.25-.16-.38a3.29,3.29,0,0,0-.71-2c0-.12,0-.23,0-.35a1.88,1.88,0,0,0-.26-.84,1.52,1.52,0,0,1-.17-.3,1.31,1.31,0,0,0-.22-.93c0-.08,0-.16,0-.24a1,1,0,0,0-.11-.34l-.09-.14a2.94,2.94,0,0,0-.45-1.29,11.92,11.92,0,0,0-.39-1.45,52.42,52.42,0,0,1-2.81-24.3,33.88,33.88,0,0,0,.09-8.83c-.14-.56-.28-1.11-.41-1.66h0a22.47,22.47,0,0,0-1.32-4.56c0-.12-.05-.23-.08-.35a1.35,1.35,0,0,0-.08-.36l-.1-.16a6,6,0,0,0-.63-2.2v-.35a1,1,0,0,0-.16-.35c0-.09-.08-.18-.13-.27-.89-3.32-1.88-6.62-1.42-10.14.26-2.54.55-5.08,1-7.6.11-.57.51-1.2.25-1.81l0-.16a1.84,1.84,0,0,0,.09-.42c0-.13,0-.26.07-.39a7.92,7.92,0,0,0,.41-2.29,2,2,0,0,0,.18-1.35V64.42a4.71,4.71,0,0,0-.18-2.14h0a12.29,12.29,0,0,0-.66-4,2.89,2.89,0,0,1,0-.29,1.18,1.18,0,0,0,0-.37l-.1-.17-.09-.15-.26-1.21a.42.42,0,0,1-.19-.06h0c-.3-.74-.21-1.12.69-.73h0l-.19.48a18.64,18.64,0,0,1,2.59,4.3l0,.08a2.76,2.76,0,0,0,.25.75l.09.4a6.56,6.56,0,0,0,.09.76c0,1.14.41,2.24.57,3.37a4.05,4.05,0,0,0,.15,1.51,2.28,2.28,0,0,0,0,.26c-.1,1.79.23,3.59-.18,5.37a2.31,2.31,0,0,0-.19,1.54c0,.11-.06.21-.1.32a3.89,3.89,0,0,0-.08.51c-.14.13-.12.39-.19.59a26.56,26.56,0,0,0-.83,4.32,36.8,36.8,0,0,0-.37,10.53,13.3,13.3,0,0,0,1.27,4.83h0l.4,1.13h0c.12.66.07,1.39.65,1.9l0,0a7.71,7.71,0,0,0,.61,2.64h0c.46,1.75.91,3.49,1.36,5.24v3.58c-.15,2.11-.29,4.22-.47,6.33a47.89,47.89,0,0,0-.12,11,59.84,59.84,0,0,0,3.66,13.16c.12.38.09.85.44,1.08,0,.08.05.16.08.25s0,.12.07.19a1,1,0,0,0,.3,1c0,.11,0,.22,0,.34a2.92,2.92,0,0,0,.32.85c.06.13.12.25.17.38a3.54,3.54,0,0,0,.53,1.95c0,.14.05.28.07.43a1.65,1.65,0,0,0,.23.46c0,.06.06.12.1.18a.9.9,0,0,0,.36,1v0c0,.11.07.21.11.31h0c-.15.33.12.64.21.95s.07.87.46,1.08l.09.26,0,.05c-.24.53.22,1,.39,1.45l.19.51h0c.06.24,0,.52.2.73v0a.85.85,0,0,0,.09.31l.09.14.15,1.09-.06.06,0,.05c-.18-.17-.22-.6-.59-.36l-.07.06c-.14.18,0,.42.09.62l.43,0c.14,1.44,1.7,2.33,1.53,3.89h0c.3.72,1,1.25,1.06,2.19C165.33,161.78,164,162.09,163.59,160.39Zm4.84,1.74c-.57.27-.52-.42-.78-.67-1-1-1.24-2.26-1.91-3.35l-1.05-3c-.11-.47-.13-1-.7-1.18.46-.32,0-.59-.06-.88l-.25-1-.06.14a.25.25,0,0,1,.06-.14,2.09,2.09,0,0,0-.45-1.18,3.21,3.21,0,0,0-.46-1.5,1.05,1.05,0,0,0-.31-.8A2.58,2.58,0,0,0,162,147l-.19-.1a5.9,5.9,0,0,0-.81-3h0l-.29-.88a3.37,3.37,0,0,0-.49-1.63,3.38,3.38,0,0,0-.49-1.69c-.38-1.34-.75-2.68-1.16-4-1.36-4.46-2.52-8.93-2.23-13.67.2-3.16.23-6.33.33-9.49a10.5,10.5,0,0,0,.19-3.11c0-1,0-2,0-3a1,1,0,0,0-.19-.85h0a29,29,0,0,0-1.33-5.26c-.24-.71-.16-1.54-.82-2.08v0c.25-.82-.29-1.49-.45-2.23a3.56,3.56,0,0,0-.43-1.35L152.4,90c0-.07,0-.15-.05-.23a1.46,1.46,0,0,1,0-.2h0c0-1.6,0-3.2.11-4.8.23-3.34.93-6.6,1.39-9.9v-.44h0a2.05,2.05,0,0,0,.27-1.3,3.07,3.07,0,0,0,.27-1.74,11,11,0,0,0,0-4h0l-.06-1.7a3.4,3.4,0,0,0-.2-1.61h0l-.6-3h0c-.11-.42-.23-.84-.34-1.27a.52.52,0,0,0-.08-.3,11.24,11.24,0,0,0-1.79-3.78c3.71.59,4.84,3.3,5.28,6.52.3,2.27.5,4.55.77,6.82.36,3-.52,5.8-1.07,8.66a100.57,100.57,0,0,0-1.39,11.47c-.19,2.56.71,4.93,1.35,7.33s1.35,4.81,2.09,7.19a18.73,18.73,0,0,1,.85,7.51c-.33,3.37-.41,6.77-.74,10.14-.56,5.66.87,11,2.39,16.35,2.18,7.65,5.12,15,7.4,22.66.08.24.16.48.22.73S168.85,161.93,168.43,162.13Z"/></g></g></svg>