<svg xmlns="http://www.w3.org/2000/svg" viewBox="0 0 214.93 162.9"><defs><style>.cls-1{fill:#042d4f;}</style></defs><title>Asset 4</title><g id="Layer_2" data-name="Layer 2"><g id="Capa_1" data-name="Capa 1"><path class="cls-1" d="M153.89,18.42l-.09-.15A.24.24,0,0,0,153.89,18.42Z"/><path class="cls-1" d="M189.63,69.23c.28.09.36,0,.55-.26,1.38-1.58,2-3.58,3.11-5.33a3.11,3.11,0,0,0,.29-3.26c-.37-.63-.42-.12-.56.13l-.26,1.62-.31-.06c.12-.6.24-1.2.37-1.79,0-.38-.43-.67-.07-1.14s.07-.9-.5-.92a8,8,0,0,1-2.74-.85c-1.3-.53-2.76-.25-4.07-.51-2.49-.51-3.9,1.35-5.79,2.16a.41.41,0,0,0-.19.31c0,1.22-.6,2.38-.42,3.63.37,2.6,2.58,3.58,4.39,4.79A8.69,8.69,0,0,0,189.09,69a.18.18,0,0,0,.11,0c.23-.15.06-.59.46-.67C190,68.62,189.46,68.93,189.63,69.23Zm-1.15-1.92a1.48,1.48,0,0,1-1.84.39,32.13,32.13,0,0,1-5.8-3c-1.09-.63-.71-1.75-.93-2.51,0-2.66,1.72-3.94,4.48-4.37a9.07,9.07,0,0,1,5.46.56,14.36,14.36,0,0,1,2.1,1.25c.28.19.18.62.09.94A17,17,0,0,1,188.48,67.31Z"/><path class="cls-1" d="M45.35,10.8a3.63,3.63,0,0,0-2,4.39C43.57,13.4,45.62,12.65,45.35,10.8Z"/><path class="cls-1" d="M200.4,63.37c-.45,1.56-1.48,2.94-1.27,4.67-.11,1.12-.61,2.23-.19,3.37-.13-1.11.65-2.06.58-3.14C199.6,66.6,200.6,65.1,200.4,63.37Z"/><path class="cls-1" d="M197.28,63.11c-.08,1.09-.84,2-.65,3.17s-.33,2.3.23,3.43c.06-.73.13-1.46.19-2.19l0-1.23h0A4.83,4.83,0,0,0,197.28,63.11Z"/><path class="cls-1" d="M201.2,66.68c-.7.18-.18,1.12-.63,1.58-.07.07,0,.64.32.5.48-.22.87-.63.69-1.18S201.77,66.53,201.2,66.68Z"/><path class="cls-1" d="M63,162.26c-.2.17-.52.46-.21.61s.46-.28.53-.59a1.84,1.84,0,0,0,.73-1.26C63.36,161.24,63.32,161.85,63,162.26Z"/><path class="cls-1" d="M50.32,161.92c.4-.27.83-.53.77-1.19A1.27,1.27,0,0,0,50.32,161.92Z"/><path class="cls-1" d="M104.13,10.36c-.75.38-1.08.71-1.08,1.29C103.7,11.59,103.78,11.05,104.13,10.36Z"/><path class="cls-1" d="M103.05,11.65h0v0h0Z"/><path class="cls-1" d="M110.87,161.37c.48-.42.78-.73.72-1.27A1.38,1.38,0,0,0,110.87,161.37Z"/><path class="cls-1" d="M62,5.44c-.53.42-.89.69-.82,1.34A1.49,1.49,0,0,0,62,5.44Z"/><path class="cls-1" d="M96.37,158.82l-.51.86a.76.76,0,0,0,.69-.62c.32-.34.65-.66.39-1.29Z"/><path class="cls-1" d="M137.9,158.35c.59-.11.9-.41.71-1.08Z"/><path class="cls-1" d="M96.36,110.79c.22-.45.37-.77.52-1.09s.56-.48.25-.64-.45.31-.53.61h0C96.36,110,96,110.19,96.36,110.79Z"/><path class="cls-1" d="M149.94,98.17c.51-.1.64-.5.73-.93C150.09,97.29,150,97.71,149.94,98.17Z"/><path class="cls-1" d="M124.08,162.43c-.08.21.1.3.26.21a2.65,2.65,0,0,0,.43-.48c-.15-.07-.29-.17-.32-.15A1.34,1.34,0,0,0,124.08,162.43Z"/><path class="cls-1" d="M58,159.71c-.46-.25-.49.3-.63.58h0a1.09,1.09,0,0,0-.5.86c.57-.13.67-.5.83-.82S58.29,159.85,58,159.71Z"/><path class="cls-1" d="M119.25,3.16c-.61,0-.68.33-.72.87A1.36,1.36,0,0,0,119.25,3.16Z"/><path class="cls-1" d="M96,5.94c.27-.2.46-.42.31-.8-.44.11-.48.46-.61.75s-.47.4-.35.83A.94.94,0,0,0,96,5.94Z"/><path class="cls-1" d="M157.48,10.6c.2-.17.4-.36.25-.67-.4,0-.45.28-.5.55C157.22,10.5,157.45,10.63,157.48,10.6Z"/><path class="cls-1" d="M73.21,155.88c-.36-.18-.47.36-.6.67a1,1,0,0,0-.45,1,1.44,1.44,0,0,0,.79-.93C73.12,156.37,73.56,156.05,73.21,155.88Z"/><path class="cls-1" d="M203.76,64.52h0l.09-.45c.24-.29.37-.62.1-.93-.11-.12-.28,0-.31.2h0l-.09.67h0a1,1,0,0,0-.2.78c-.22,1-.94,1.78-.81,2.84h0a1.65,1.65,0,0,0-.19,1.15c-.25,1.08-.5,2.16-.74,3.24-.14.48-.51.91-.24,1.58a1.69,1.69,0,0,0,.5-1.24,8,8,0,0,0,.73-3c.25-.24.2-.54.18-.84.1-1.18,1-2.16.81-3.42a.29.29,0,0,0,0-.16Z"/><path class="cls-1" d="M100.86,95.23s0,0,0,0l0,0Z"/><path class="cls-1" d="M87.07,72.54l-.16,0a.2.2,0,0,0,.21,0l.25-.07-.16-.07Z"/><path class="cls-1" d="M119.75,92.84a.36.36,0,0,1,0-.1s-.07,0-.1.07,0,0,0,0l-.14,0-.21.08c.11,0,.17-.07.27-.09l.08,0a.19.19,0,0,0,.09.09v-.1Z"/><path class="cls-1" d="M113.27,94l.3.22C113.52,94.09,113.38,94.08,113.27,94Z"/><path class="cls-1" d="M40.89,108.94a.43.43,0,0,0,0-.07.53.53,0,0,1-.26,0v.25A.77.77,0,0,0,40.89,108.94Z"/><path class="cls-1" d="M93.36,105.59l-.07.12a1,1,0,0,0,.24-.1Z"/><path class="cls-1" d="M65.66,102.75l0,0h0v0l0,0h0l-.17,0,.08,0,.09,0h.06Z"/><path class="cls-1" d="M76.5,101.28a.45.45,0,0,0,.11.14v-.15Z"/><polygon class="cls-1" points="74.49 101.28 74.49 101.28 74.49 101.28 74.49 101.28"/><path class="cls-1" d="M153.71,17.67c0-.13,0-.09,0,0h0Z"/><path class="cls-1" d="M138.36,91.26l.26-.08c0-.07,0-.14.07-.22A2.35,2.35,0,0,0,138.36,91.26Z"/><path class="cls-1" d="M126.87,120.74c4.23-7.23,8.63-14.36,12.61-21.73.21-.38.61-.74.34-1.44-.23.34-.37.53-.49.73-5.31,8.52-10.73,17-16,25.51-6.19,10-12.21,20.13-18.34,30.19a2.36,2.36,0,0,0-.69,1.06,3,3,0,0,0-.71,1.52,2.67,2.67,0,0,0,1-1.24l.69-1.05c3.47-4.47,6.38-9.31,9.39-14.07C118.73,133.74,123,127.37,126.87,120.74Z"/><path class="cls-1" d="M132.43,120c4.11-6.86,8.31-13.67,12.23-20.64.23-.41.66-.79.45-1.56-.24.3-.35.41-.43.54-3.06,4.69-6.15,9.36-9.15,14.08-3.7,5.81-7.26,11.7-11,17.49-5.27,8.19-10.19,16.59-15.3,24.88a9.4,9.4,0,0,0-1.27,2l-.7,1.07-.62,1h0c-.17.19-.53.48-.19.63s.46-.31.53-.62h0l.54-.7.71-1a9.61,9.61,0,0,0,1.27-2c3.44-4.22,6.16-8.94,9.12-13.48C123.31,134.42,128,127.31,132.43,120Z"/><path class="cls-1" d="M85.31,129.46c3.47-5.75,7-11.43,10.32-17.3.2-.36.65-.68.35-1.24-.38.18-.52.54-.72.85q-7.5,11.37-14.88,22.82c-5.3,8.23-10.38,16.59-15.55,24.9a2.13,2.13,0,0,0-.72,1.35c.64-.18.77-.66,1-1.06,3.15-3.92,5.81-8.19,8.56-12.37C77.57,141.45,81.62,135.58,85.31,129.46Z"/><path class="cls-1" d="M213.69,80.26c-2.87-1-5.88-1.43-8.8-2.24-5.32-1.47-10.6-3-15.44-5.76-1.56-.88-3.45-1.25-4.62-2.8a1,1,0,0,0-1-.32,2,2,0,0,1-2.33-1.07,1.54,1.54,0,0,0-1.26-.78,4.32,4.32,0,0,1-4.15-5,6.29,6.29,0,0,1,3-4.76c.68-.37,1.94-.06,2.63-.67,1.54-1.37,3.32-1,5.05-.92A99.57,99.57,0,0,1,198.7,58a51.65,51.65,0,0,0,9.42,1.34c.52,0,1.34.19,1.34-.67s-.39-1.46-1.4-1.33a1.84,1.84,0,0,1-1.6.32c.55-.51,1.23-.38,1.6-.83.06-.37.83-.35.57-.76s-.61.09-.9.22a1.7,1.7,0,0,1-2.39-.66,7.59,7.59,0,0,0,1.33-2.51,4.76,4.76,0,0,0-1.56,2.22c-.2.2-.14.74-.64.56s-.26-.56-.2-.86a5.16,5.16,0,0,0,0-2.44l0-3.82c0-.27-.07-.49-.37-.53s-.36.07-.3.27c.45,1.51-.26,3.13.41,4.63h0c-.09.38-.18.76-.26,1.14v1.46a.6.6,0,0,1-.44-.69c-.49-.85-.19-1.92-.73-2.75-.27-.26-.5-.09-.72.08l.4.5h0c-.11.3.2.75-.31.93l-.45-.73-.91-1.83-.3-.67c-.23-.43-.45-.87-.69-1.29a.37.37,0,0,0-.62-.12c-.33.31.11.32.21.48.31.48.56,1,.83,1.5l.31.42h0a3.69,3.69,0,0,0,.94,1.8c.32,1.18,0,1.78-1.33,1.41a3,3,0,0,0-.85,0,1.84,1.84,0,0,0-1.3-.2,30.6,30.6,0,0,1-3.58-.38c-.89-.19-1.85.16-2.68-.38-.53-1-.38-2.34-1.41-3.13l-.53-.66a2.46,2.46,0,0,0-.77-.95,6,6,0,0,0-2-1.77c1.08-.93,2-2.08,3.44-2.49s2.3-2.3,4.17-1.93c.07,0,.23-.15.25-.25.1-.54.53-.53.93-.64a17.16,17.16,0,0,0,2.47-.74c1.93-.85,3.62,0,5.32.68a26.23,26.23,0,0,0,3.17,1.52,9.23,9.23,0,0,1,2.31.77,18.46,18.46,0,0,0,3.42,1.47c.51.15,1.35.55,1.55-.07s-.74-.77-1.19-.91a31.68,31.68,0,0,1-7.81-4,6.39,6.39,0,0,0-4.83-1.11,32.79,32.79,0,0,0-9.5,3.51c-1.48.85-2.72,2-4.15,2.91-.79.5-2.33.91-1.92,2.59-2.47-1.29-4.63-2.85-7.15-3.72a14.11,14.11,0,0,0-4.48-1,10,10,0,0,0-5.09.81c-.82.29-1.39.08-1.6-.82-.76-3.26-1.81-6.44-2.56-9.71A138.09,138.09,0,0,1,160.09,9.4a21.36,21.36,0,0,0-.29-4.79c-.12-.44.06-1.08-.66-1.18a1.36,1.36,0,0,0-1.22.5c-.41.46,0,.82.13,1.24.29,1.17,1.95,2.09.67,3.55,0,0,0,.08,0,.12.68,1.69-.16,3.56.63,5.24.11.23,0,.47-.16.7-1.28,2.55-3.1,4.74-4.72,7.35-.1-3.13-.89-6.1,1.2-8.66a3.18,3.18,0,0,0,.76-1.22,1.83,1.83,0,0,0,.64-1.41,2.21,2.21,0,0,0-.88,1.1l-.78,1.24c-.37.5-.74,1-1.3,1.75V12.18a4.71,4.71,0,0,0-.21-1.75c-.28-1.9.64-3.4,1.62-4.9a21.57,21.57,0,0,0,1.11-2.07c.09-.17.43-.41-.12-.63-1.13,1.61-2.38,3.17-3.37,4.89-.78,1.36-1.47,2.78-2.31,4.1-8.54,13.38-17.11,26.73-25,40.48-.91,1.57-1.9,3.11-2.85,4.66-.17.27-.28.6-.69.66a30.59,30.59,0,0,1-5.59.81,13.31,13.31,0,0,1,1.83-2.23A13.71,13.71,0,0,0,121,53.08c3.33-5.72,7.34-11,10.46-16.88,1.48-2.77,3.44-5.28,5.1-8C140.75,21.46,145,14.66,149,7.75a2.47,2.47,0,0,0,.72-1,2.92,2.92,0,0,0,.92-2l-1.19,1.73-.7,1c-2.33,3.08-4.33,6.37-6.45,9.59-6,9-12.12,17.93-17.92,27.06-2.65,4.19-5.46,8.3-7.84,12.67-.26.47-.59.9-.89,1.35-.15.24-.29.53-.59.6-1.55.36-3.11.7-4.85,1.08a23.05,23.05,0,0,1,4.26-6.19,16,16,0,0,0,2.33-3c3.48-6,7.65-11.52,10.9-17.64,1.59-3,3.7-5.7,5.49-8.59C137.59,17.19,142,10,146.22,2.76a2.59,2.59,0,0,0,.73-1c.25-.28.59-.52.43-1a1,1,0,0,0-.71.71l-.69,1h0c-.25.34-.51.66-.74,1-4.88,7.37-9.78,14.71-14.62,22.1-5.06,7.73-10.14,15.46-15.06,23.28-2.21,3.5-4.31,7.08-6.52,10.58a2.09,2.09,0,0,1-1.43,1c-.81.15-1.61.36-2.63.59a23.7,23.7,0,0,1,4-6,15.08,15.08,0,0,0,2.25-3c3.44-6.05,7.56-11.68,10.75-17.88,1.52-2.94,3.58-5.58,5.27-8.44C131.58,18.57,135.91,11.36,140,4a2.9,2.9,0,0,0,.69-1.07c.16-.29.54-.51.32-.95-.42,0-.45.38-.59.64l-.69,1.07c-2.18,3.09-4.06,6.36-6.1,9.53-8.93,13.87-18,27.69-26.31,41.91-1.09,1.86-2.29,3.66-3.4,5.5a1.7,1.7,0,0,1-1.38.91c-.76.1-1.52.28-2.33.43a8.59,8.59,0,0,1,1.6-3.18,2.12,2.12,0,0,0,.6-1.06c.27-2.74,2-4.66,3.69-6.6a27.92,27.92,0,0,0,2.82-3.78c3.66-6.21,7.65-12.21,11.13-18.53,1.46-2.64,3.24-5.11,4.77-7.72,3.3-5.65,6.62-11.3,9.91-17,.75-1.29,1.45-2.61,2.24-4-.75.12-.87.63-1.11,1-1.91,2.81-3.61,5.76-5.45,8.61-7.76,12-15.51,24-22.89,36.27-3.13,5.18-6.35,10.3-9.34,15.57-.21.38-.33.91-.82,1-2,.53-4,1-6.07,1.55,1.1-2.82,2.94-5.07,3.79-7.87a11.22,11.22,0,0,1,3.23-4.52,13.22,13.22,0,0,0,2.31-2.91c3.2-5.52,7.11-10.58,10.11-16.23,1.49-2.81,3.51-5.33,5.21-8,4.13-6.6,8.21-13.23,12.31-19.85a2.63,2.63,0,0,0,.73-1l.52-.72a2,2,0,0,0,.68-1.08c-.6.08-.72.48-.92.8l-.54.72a2.43,2.43,0,0,0-.74,1c-2.33,2.92-4.26,6.12-6.38,9.19C114,24.69,106.47,35.85,99.34,47.24c-3.34,5.35-6.86,10.59-9.9,16.11-1,1.91-2.69,1.8-4.6,2.31a69.55,69.55,0,0,0,6.91-12.3A13.64,13.64,0,0,1,95,49a18.94,18.94,0,0,0,2.89-3.72c3.82-6.21,7.85-12.29,11.78-18.43,5.56-8.7,11-17.44,16.61-26.15.12-.19.31-.36.23-.63-.74-.23-1,.37-1.25.78-1.32,2-2.56,4-3.91,5.92Q108.56,25.14,96.41,44c-4.61,7.1-9,14.3-13.52,21.49a2.6,2.6,0,0,1-2.43,1.29A8.32,8.32,0,0,1,82,63.83c.22-.28.54-.51.59-.93.3-2.82,2.14-4.79,3.88-6.78a26.51,26.51,0,0,0,2.83-3.77c3.58-6,7.3-11.85,11-17.77q8.94-14.43,17.49-29.09a1.67,1.67,0,0,0,.63-1.35,1.78,1.78,0,0,0-.88,1.07c-.19.27-.39.53-.57.81-4.85,7.44-9.67,14.88-14.54,22.31C97,36.54,91.69,44.79,86.6,53.2c-3,4.89-6,9.72-9.1,14.53l-3,.81c1-1.44,1.82-2.75,2.7-4.06a23.4,23.4,0,0,0,3.18-5.7A20.34,20.34,0,0,1,85,51.26a19.55,19.55,0,0,0,1.94-2.58c4.78-7.76,9.6-15.49,14.33-23.28,4.46-7.33,8.81-14.73,13.2-22.1.57-1,1.08-2,1.69-3.08-.75.16-.88.65-1.13,1-2,2.89-3.77,6-5.71,8.9-8,12.14-15.9,24.28-23.48,36.66-4.19,6.82-8.41,13.61-12.56,20.46a4.65,4.65,0,0,1-3.36,2.57,16.35,16.35,0,0,0-2.8,1c-.41-.1-.75.4-1.15.15A19.2,19.2,0,0,0,69,65.47a16.58,16.58,0,0,1,3.9-6.36A21.84,21.84,0,0,0,75.35,56c3.6-5.8,7.41-11.48,10.91-17.35,1.93-3.23,4.11-6.32,6.09-9.54q4.73-7.68,9.47-15.34a4.81,4.81,0,0,0,1.2-2c-.76.35-1.06,1.09-1.47,1.74-2.16,2.68-3.93,5.64-5.87,8.48C89.38,31.12,83,40.28,77.11,49.74a.91.91,0,0,1-1.09.54L74.3,49.9C84.87,33.64,95.2,17.29,105.56.78c-.91,0-1.06.58-1.34,1q-6.72,9.79-13.4,19.62c-3.7,5.45-7.43,10.89-11,16.42-1.71,2.64-3.18,5.44-5.11,7.94-.18.24-.28.76-.69.53-.6-.34-1.34-.06-2-.68,2.44-2.78,3.92-6.17,5.77-9.34,1.4-2.39,3-4.63,4.49-7,4.19-6.95,8.37-13.91,12.37-21a2.18,2.18,0,0,0,.72-1.35c-.65.17-.76.66-1,1.06-2.24,3.14-4.22,6.44-6.31,9.68C82.34,26.44,76.54,35.19,70.82,44c-1,1.51-.94,1.55-2.77,1,2.52-4.34,5.45-8.41,7.73-12.87,1.37-2.69,3.28-5.08,4.83-7.68,4.12-6.95,8.32-13.84,12.22-20.92a3.23,3.23,0,0,0,.76-1.2c.2-.23.58-.55.37-.74s-.48.15-.62.41L92.57,3.2c-.25.34-.51.66-.73,1L78.06,25.64C74.67,30.9,71.21,36.11,68,41.45c-1,1.71-1.74,3.34-4.14,2.39a2.87,2.87,0,0,0-.37-.09c2.4-4.09,5.22-7.83,7.38-12,1.42-2.74,3.4-5.19,5-7.86,4-6.64,8-13.25,11.52-20.15h0a4.35,4.35,0,0,0,1-2.15,4.26,4.26,0,0,0-1.28,1.85c-2.26,3.18-4.09,6.62-6.16,9.92-6.35,10.05-13.27,19.74-19.32,30-.61,1-1.38.68-2.36.7,2.57-4.2,5.22-8.13,7.66-12.2,2.75-4.58,5.71-9,8.45-13.62,2.93-4.9,5.74-9.87,8.25-15,.16-.26.7-.53.24-.82s-.36.32-.47.56c-2,3.3-3.93,6.63-6,9.89C71,23.1,63.9,32.93,57.59,43.26c-.23.37-.46.71-1,.62a19.37,19.37,0,0,0-2.85,0c-1.26-.07-1.7-.79-.9-1.78a61.72,61.72,0,0,0,4.48-7c1.35-2.23,3-4.25,4.45-6.44,3.36-5.18,6.7-10.37,9.82-15.7a4.67,4.67,0,0,0,1-2,2.65,2.65,0,0,0,1-1.27,1.29,1.29,0,0,0,.46-.78A.76.76,0,0,0,74.42,8a1.37,1.37,0,0,0-.64.88.81.81,0,0,0-.4.55l-.8,1.19C70.7,13.2,69,15.87,67.16,18.49,62.82,24.81,58.32,31,53.88,37.28c-.34.49-.72.95-1.17,1.53a11.34,11.34,0,0,1,1.77-8.34c1.45-2.07,2.79-4.21,4.05-6.41C62,18.15,65.45,12.29,68.63,6.24A3.48,3.48,0,0,0,69.39,5c.28-.28.57-.56.42-1-.44.06-.51.44-.67.73A3.68,3.68,0,0,0,68.37,6c-.33.47-.69.92-1,1.41Q60.18,18.66,53,30c-.22.34-.36.78-.83,1v-.2l-.4-6.11a1.7,1.7,0,0,0,0-.5h0l-.06-.32h0a2.57,2.57,0,0,1,.56-1.48L60.41,8.24a2.83,2.83,0,0,0,.8-1.53,2.28,2.28,0,0,0-1.09,1.22C57,12,54.65,16.54,51.47,20.67l-.12-.75a13.85,13.85,0,0,0-.43-3.07l0-1.68c1-2.14,2.57-4,3.54-6.18a2.09,2.09,0,0,0,.67-1.07l.53-.75c.19-.2.59-.44.3-.69s-.46.17-.54.46l-.51.72a2.21,2.21,0,0,0-.74,1c-3.39,4.56-6.14,9.57-9.47,14-1.45-2.65.37-4.51,1.55-6.57,1.5-2.58,2.94-5.2,4.41-7.81l-.28-.18c-2.51,2.73-3.89,6.29-6.36,9.15-.06-.24-.09-.36-.11-.48-.09-.44-.08-1-.67-1.07a1.31,1.31,0,0,0-1.11.45c-.43.39-.21.8,0,1.24.53,1.28,1.22,2.33,1.15,4a17.9,17.9,0,0,0,.53,5.77c.24.8.09,1.81.36,2.7.2.68-.45,1.28-.3,1.93.37,1.57.25,3.19.74,4.77a7.55,7.55,0,0,1,0,4.88,1.49,1.49,0,0,0,.11,1.21c.86,1.22.64,2.63.8,4s.11,2.53.33,3.8A32.39,32.39,0,0,1,46.36,56a32.25,32.25,0,0,1-.63,4.65,19.4,19.4,0,0,1-4,10A4,4,0,0,0,41,71.73,9.49,9.49,0,0,1,38.6,75c-2.91,2.79-6.19,5.15-9.28,7.74a2,2,0,0,0-.85,1.58c.45,0,.7-.54,1.17-.34.12.51,1.09.7.55,1.46-.71-1-2-.21-2.91-.93a2.91,2.91,0,0,0-2.17-.7c-2.22.27-4,1-5.17,3.1-.72,1.31-1.57,2.54-2.37,3.8-.13.2-.28.52-.46.54-2,.27-3.8,1.45-5.89,1.4a3.39,3.39,0,0,0-2.51.82,15.79,15.79,0,0,1-3.6,2.37A54.1,54.1,0,0,0,0,99v.5c.47.28.55,1,1.3,1.14-.47-1.09.27-1.46,1-1.79,1.32-.64,2.63-1.33,3.93-2a7.27,7.27,0,0,0,2.43-1.77,1.81,1.81,0,0,1,1.29-.54c1.45-.22,3-.08,4.17-1.29a.59.59,0,0,1,.84-.09l-2.75,5.26a2.72,2.72,0,0,0-.68,1.06c-.19.27-.38.54-.56.82-.54.82-1,2.07-2,.39a.32.32,0,0,0-.53-.06c-.37.36.09.36.23.46.92.77,1.19,1.54.1,2.39-.34-.3-.67-.61-1-.9a.33.33,0,0,0-.3,0c-.15.11-.17.24,0,.35,1.29.66.91,1.57.36,2.5a.22.22,0,0,0-.08.2c-.44.14-.79-.14-1.17-.25L5.13,105a.33.33,0,0,0-.45.28c0,.37.24.2.46.24a21.14,21.14,0,0,1,2.1.62c-.12,1.16-1.16,2-1,3.26a4,4,0,0,0-.43,2.75,1,1,0,0,0,.16.24c.31.6-.2,1.15-.32,1.72-.18.28-.47.54-.24.94a1.49,1.49,0,0,0,.57-.91,4.41,4.41,0,0,0,.73-1.51c.18-.41.37-.82.56-1.23.66,0,.91.26.47.91-.64,1-1.22,2-1.83,2.94a1.57,1.57,0,0,0-.34,1.67,20.78,20.78,0,0,0,3.74-5.26c.21-.45.33-1.08,1.08-1a11.74,11.74,0,0,0,3.35.72,4.62,4.62,0,0,0-2.76-1h0c-.24-.13-.63,0-.72-.38-.15-.6.91-1.5,1.55-1.47a2.34,2.34,0,0,1,1.44.79c.34.25.64.59,1.14.47-.06-.42-.35-.57-.65-.7a1.74,1.74,0,0,0-1.5-.92c-.94-.13-.79-.55-.54-1.27.33-.88.88-.2,1.29-.35a24.29,24.29,0,0,1,6.23,2.29h0c.28.23.54.54,1.08.35a1.18,1.18,0,0,0-.83-.59c-1.86-1.6-4.18-2-6.48-2.45-.38-.13-.94,0-.55-.79,1.1-2.27,2.08-4.6,3.13-6.89.1-.21.06-.64.54-.55a2.47,2.47,0,0,0,.62,1.45,9.13,9.13,0,0,0,4.18,2.47,3.31,3.31,0,0,0,3.54-.94A12.21,12.21,0,0,0,26,98.24c.81-2.21,1.69-4.4,2.43-6.63.92-2.78.31-4.42-2-5.82a2.55,2.55,0,0,0-.33-.17c-.12-.05-.26-.08-.39-.12l.26-.27a4.7,4.7,0,0,1,3.32,2.27c1.59,3,1.53,6.18,1,9.34-1.06,6.47-3.67,12.45-6.22,18.42-1.45,3.38-3.55,6.42-5.22,9.69-.28.55-.59,1.15.25,1.39.67.2,1.44.25,1.62-.78s.4-2.2.61-3.3c.08-.44.08-.94.75-.94.27,0,.42-.2.5-.47.64-2.19,2.26-3.92,2.82-6.19.35-1.41.9-1.48,2.25-1.09.72.21.86.77,1.25,1.25a22,22,0,0,0,3.56,4.06c.77.57.52,1.32.95,1.89a20.44,20.44,0,0,0,2.52,3.13c.27,1,1.17,1.8,1.06,3,0,.25.32.61.58.77.54.32.69.83,1,1.33.59,1,.87,2.14,1.39,3.17a23.8,23.8,0,0,1,2.24,5.56c.85,4,.92,8.19,2.65,12a2.54,2.54,0,0,1,.12.61c.56,3.06,1.12,6.11,1.67,9.17.08.47.12.92.75,1a4.07,4.07,0,0,1,.21-1.57c1.36-2.18,2.76-4.34,4.25-6.44.39-.54.16.3.37.33a12.42,12.42,0,0,0,.31,3.67.83.83,0,0,0,.56-1.16c-.24-.83-.46-1.67-.69-2.51a4.43,4.43,0,0,1,1.06-2.63c.94-1.32,1.77-2.73,2.65-4.1,2.48-3.64,5.12-7.17,7.39-10.93,5-8.31,10.46-16.34,15.11-24.87a1.06,1.06,0,0,1,1-.68,16.05,16.05,0,0,0,4.61-.3c-.34.53-.51.8-.7,1.07-2.48,3.68-5,7.33-7.45,11-3,4.61-5.92,9.31-9,13.89-5.11,7.61-9.82,15.47-14.74,23.2a4.32,4.32,0,0,0-1.21,2,3.27,3.27,0,0,0,1.48-1.69A105,105,0,0,0,59.48,149c4.26-6.22,8.58-12.4,12.57-18.8,4.18-6.68,8.48-13.27,12.31-20.16a3.09,3.09,0,0,1,2.15-1.68c1.72-.37,3.5-.28,5.24-.75-2.56,4-5.23,7.74-7.8,11.59-3.31,5-6.47,10-9.82,15-4.88,7.21-9.4,14.65-14.06,22a17.63,17.63,0,0,0-2,3l.32.21,1.94-2.89A6.85,6.85,0,0,0,61.63,155l5.54-8.1c3.61-5.26,7.43-10.39,10.79-15.8,4.79-7.7,9.91-15.19,14.32-23.13.16-.29.29-.61.7-.6,1.83,0,3.55-.65,5.41-.84-.14.32-.26.58-.38.84a2.07,2.07,0,0,0-.67,1.25c.6-.17.73-.6.91-1l.8-1.21,5-1c-4,6.5-7.86,12.88-11.87,19.16-6.23,9.77-12,19.81-18.12,29.67a2.23,2.23,0,0,0-.72,1.36c.65-.17.77-.66,1-1.06,3.85-5.16,7.16-10.68,10.67-16,7-10.76,13.78-21.7,20.38-32.72a2.38,2.38,0,0,1,1.31-1c1.54-.63,3.2-.3,4.83-.79-1,1.91-2.28,3.55-3.37,5.31q-8.28,13.23-16.46,26.52c-4,6.54-7.91,13.14-11.86,19.71h0l-.51.72a4.46,4.46,0,0,0-1,1.56c-.22.25-.52.49-.41.92.44-.06.54-.36.64-.67l1-1.5.48-.75c3.88-5.18,7.22-10.73,10.7-16.17,4.82-7.54,9.8-15,14.25-22.75,2.55-4.45,5.33-8.78,8-13.16l4.71-.74c.31.47-.07.78-.28,1.1-.61,1-1.3,1.92-1.91,2.91-5,8.19-9.89,16.49-15,24.67C96.19,138.77,92,146,87.78,153.25a11.23,11.23,0,0,0-1.44,2.3l-.46.76-.57,1c-.24.19-.43.4-.34,1.05l.63-1a1.26,1.26,0,0,0,.49-.71,1.29,1.29,0,0,0,.51-.74,11.77,11.77,0,0,0,1.46-2.3c3.5-4.4,6.16-9.33,9.19-14Q107.89,123,117.61,106c1.39-2.43,2.8-4.42,5.78-4.69,0,0,.06,0,.1-.08h1.28c-.46.74-.92,1.42-1.32,2.14-3,5.36-6,10.78-9.16,16.09-5.54,9.34-10.61,18.93-16,28.33a3,3,0,0,0-.75,1.25,2.44,2.44,0,0,0-.7,1.31c-.34.12-.39.45-.53.72s-.56.57-.34.73.44-.23.58-.47.37-.65.55-1h0a1.92,1.92,0,0,0,.71-1l.75-1.24c3.36-4.54,6-9.52,9-14.33,6.47-10.61,12.58-21.43,18.53-32.35.19-.35.33-.8.8-.88,2.25-.4,4.32-1.37,6.68-2-.28.47-.45.79-.65,1.09-2.18,3.33-4.43,6.62-6.53,10q-9.25,14.82-18.41,29.7c-3.22,5.26-6.27,10.63-9.39,16l-1.44,2.23a3.6,3.6,0,0,0,1.7-1.93c2.9-4,5.37-8.27,8-12.42,4.73-7.41,9.61-14.71,14.12-22.26,4-6.69,8.34-13.17,12-20,1-1.88,2.19-3.08,4.37-3.16.92,0,1.73-.74,2.72-.46.24.07.32-.17.47-.29,1.93-1.45,4.25-2,6.63-2.79-.28.6-.45,1-.63,1.34-.34.13-.43.44-.52.74h0c-.22.27-.55.48-.39.93.49-.11.51-.56.68-.89a1,1,0,0,0,.43-.77c1.41-2.53,4.16-2.15,6.61-3.25l-1.17,2.18a1.26,1.26,0,0,0-.48.77,1.22,1.22,0,0,0-.48,1c.48,0,.56-.42.73-.74l.43-.68,0-.07c.05-.07.12-.12.16-.19a5.38,5.38,0,0,1,3.94-3.27l.14.08s0-.08,0-.12c1-.08,1.91-.72,3.12-.69l-3,4.69c-.25.39-.69.7-.54,1.26l-.07.06c-.29.17-.8.26-.28.78-.28.38-.77.62-.76,1.18-.6.16-.73.68-.94,1.15l0,.07c-2,3-4,6.11-6.05,9.11a5.38,5.38,0,0,1-5.13,2.42l6.22-11.2.09-.11a3.31,3.31,0,0,0,.6-1.43c-.64.16-.73.74-1,1.22-2.1,3.28-4.26,6.52-6.28,9.85-1,1.71-2,3.34-4.28,3.49a2.09,2.09,0,0,0-.23.08c-.27.06-.47.2-.45.5s.37.41.65.39c.44,0,.89-.14,1.38-.23-.85,1.89-1.86,3.42-4,3.79-.48.08-1.22.16-1.17,1a6.8,6.8,0,0,0,2.45-.19c-2.27,3.7-4.38,7.32-6.65,10.83-5.78,8.95-11.12,18.17-16.64,27.27a7.88,7.88,0,0,0-1.25,2,2.24,2.24,0,0,0-.73,1.37c.66-.16.75-.67,1-1.05a9.24,9.24,0,0,0,1.26-2c3.47-4.3,6.17-9.13,9.19-13.74,5.24-8,10.46-16,15.2-24.35,1.12-2,3-2,5.06-2.72-2.84,4.54-5.41,8.8-8.14,13-5.51,8.38-10.57,17-15.85,25.56l-2.47,3.7.32.2a22.36,22.36,0,0,0,2.42-3.59c3.39-4.11,6-8.75,9-13.16,5.53-8.27,10.93-16.63,16.06-25.16.26-.42.46-.91,1-1a11.83,11.83,0,0,0,4.77-2c.16.34,0,.48-.14.64-2.86,4.43-5.65,8.9-8.61,13.26-5.68,8.33-10.9,17-16.37,25.42a2.61,2.61,0,0,0-.71,1.05l-.28.45a2.73,2.73,0,0,0-.7,1.06c-.16.29-.56.47-.41.95a1.1,1.1,0,0,0,.65-.7l.72-1,.29-.46a2.36,2.36,0,0,0,.72-1c3.2-3.78,5.75-8,8.57-12.07q9.56-13.72,18.36-28c1.39-2.24,3.86-2.31,5.87-3.36-2.05,3.26-4.25,6.36-6.35,9.53-4.68,7-9.23,14.18-13.92,21.22-4.07,6.11-7.88,12.38-11.81,18.58h0a4.19,4.19,0,0,0-.92,1.32l-.3.47c-.18.22-.58.55-.34.73s.45-.23.6-.46l.29-.44h0a4,4,0,0,0,.92-1.32c3.36-4.08,6.14-8.57,9.14-12.9q10.23-14.79,19.71-30.07c1.37-2.21,2.56-4.53,4.11-6.63l.89,3.68a2.33,2.33,0,0,0,.08.36,2.06,2.06,0,0,1-.28,1.42c-2.91,4.53-5.72,9.13-8.7,13.63-4.67,7-9,14.33-13.46,21.49a7.44,7.44,0,0,0-1.2,1.8l-.29.47c-.27.36-.67.67-.42,1.33l.69-1.05.28-.44a6.76,6.76,0,0,0,1.23-1.8c.42-.51.89-1,1.26-1.53,3.16-4.67,6.34-9.32,9.42-14,2.13-3.26,4.56-6.33,6.46-9.73,1.66-3,3.56-5.77,5.5-8.82.23,1.37.36,2.51.64,3.61a2,2,0,0,1-.3,1.74c-1.92,3-3.72,6-5.7,8.89-5.25,7.71-10.06,15.7-15.07,23.56-.34.49-.67,1-1,1.49s-.7.71-.65,1.33c.58-.2.72-.65.92-1a5.49,5.49,0,0,0,1-1.49c.55-.68,1.15-1.32,1.64-2,2.93-4.23,5.89-8.43,8.72-12.73,3.18-4.85,6.75-9.45,9.57-14.54.39-.7.87-1.36,1.43-2.21a17,17,0,0,0,.42,2.73c.57,1.75,0,3.12-1,4.57-5.26,7.61-9.86,15.63-14.81,23.44a2.68,2.68,0,0,0-.69,1c-.15.26-.5.45-.31.85.35,0,.4-.35.53-.58a2.27,2.27,0,0,0,.73-1c5.75-7.54,10.64-15.67,16.27-23.65.28,2.2.58,3.87-.7,5.77-4.36,6.5-8.43,13.2-12.61,19.82a1.28,1.28,0,0,0-.51.73,2.68,2.68,0,0,0-.68,1.07c-.25.21-.54.41-.39.83.48-.11.56-.5.75-.78h0l.57-.81.5-.76c4.9-6.45,9.29-13.26,14-20.11.14.69.24,1.18.33,1.66a1.43,1.43,0,0,0,.19,1l.06.7,0,1.27-7.08,11.4a6,6,0,0,0-1.21,1.81,1.14,1.14,0,0,0-.45.79c.61,0,.64-.43.73-.78a5.46,5.46,0,0,0,1.18-1.52c2.55-3.1,4.66-6.51,7.1-10.11.11.74.16,1.06.2,1.38a27.27,27.27,0,0,0,.33,3.26,2,2,0,0,0,.12.52,3.35,3.35,0,0,1-.59,2.33c-1.74,2.77-3.43,5.56-5.15,8.34a2.7,2.7,0,0,0-.7,1l-.6,1c-.22.16-.55.44-.24.6s.5-.26.54-.6a1.16,1.16,0,0,0,.54-.69,2.56,2.56,0,0,0,.73-1.05,89.94,89.94,0,0,0,5.65-8c.07.6.1.92.13,1.25l.24,3.76-.41.73c-.17.17-.43.44-.24.6s.45-.45.82-.28a1.4,1.4,0,0,0,.25,1v-1.57c.06-.61.63-.95.8-1.5,1.52-1.87,2.95-3.82,4.46-6a62.23,62.23,0,0,1-.29,8.85,1.81,1.81,0,0,0,.46,1.72c1.41-5.31,1-10.58.52-15.82-.37-4.33-1.22-8.61-1.66-12.94a171,171,0,0,0-2.86-18,58.29,58.29,0,0,1-1.11-17.07,5.15,5.15,0,0,1,3.67-5c.82-.27,1.63-.6,2.44-.9a19.88,19.88,0,0,0,7.85-5.94c2.44-2.77,4.09-6.13,6.32-9.07.26-.34.42-.83,1.06-.55a23.86,23.86,0,0,1,3.77,1.58,7.94,7.94,0,0,0,3.61,1.23,17.18,17.18,0,0,1,3.39.78,122.88,122.88,0,0,0,13.6,3.53c.65.12,1.35.43,2.05-.26Zm-7.35-23.34c-.52.71-1.11.35-1.76.32C205.09,56.17,205.7,56.66,206.34,56.92Zm-2.79-.75c.25,0,.28.22.28.43s0,.37-.21.36a.39.39,0,0,1-.36-.43A.34.34,0,0,1,203.55,56.17Zm-1.48-2c.58.26.49.76.79,1.26C201.87,55.26,202.09,54.68,202.07,54.13Zm-4.31,1.07a.71.71,0,0,0,.26-.07,5.81,5.81,0,0,0,.58.09,2,2,0,0,1-.51-.19v0h0c.66.19,1.39-.15,2,.29.18,0,.41,0,.45.24h0l0,0h0c.33-.07.64-.1.84.28-.31,0-.64.05-.86-.27h0v0l-1.46-.07-1.46-.23Zm-5,.07c.13-.37.48-.41.93-.33,2,.32,3.94,1,6,1.22a8,8,0,0,1,2.3,1.08l-.07.41c-1.91-.87-4-.59-6-1.37-.81-.33-1.73.21-2.5-.36C193.13,55.73,192.55,55.78,192.73,55.27ZM11.08,101.1a1.42,1.42,0,0,1,.38-.13c-.16.35-.32.71-.47,1.07a.9.9,0,0,1-.16-.28A.45.45,0,0,1,11.08,101.1Zm-.86,1.63a1,1,0,0,1,.24,0c.06.56-.49.91-.48,1.45a.55.55,0,0,1-.45,0,1.12,1.12,0,0,1-.29-.21l-.06-.06C9.6,103.61,9.58,102.82,10.22,102.73Zm-2.11,2.73h0c.48-.14.33-1.37,1.17-.87l.16.11a3.05,3.05,0,0,1-.05,1c-.12.3-.13.91-.55.78S7.87,106.16,8.11,105.46Zm-1.19,5.91v0s-.09,0-.13.1-.22.47-.36-.07a3.24,3.24,0,0,1,0-2h.06a.3.3,0,0,0,0-.08c.2-.49.37-1,.59-1.49s.48-1,.71-1.41c.91.33,1,.8.63,1.61C7.81,109.17,7.39,110.28,6.92,111.37ZM10,108l-.22.44L9,110.16c-.18.37-.51,1.09-.68.94-.54-.49.22-.76.38-1.17a.17.17,0,0,0,0-.1,2.57,2.57,0,0,1,.84-1.41c0-.27-.06-.56.24-.73a2.6,2.6,0,0,0,.55-1.64C11,107,10.28,107.45,10,108Zm1.62-3.23c-.19.42-.42.82-.71,1.38-.45-.77,0-1.27.05-1.8a.24.24,0,0,1,.37-.16C11.56,104.33,11.77,104.5,11.64,104.78Zm.35-.73c-.42-.86.09-1.23.72-1.54Zm1.12-2.58c-.28-.47-.14-.86.27-1.32C13.66,100.75,13.18,101.06,13.11,101.47Zm.68-3.25c-.18-.6.22-.9.49-1.23A1.27,1.27,0,0,1,13.79,98.22Zm1.15-2.52a1.78,1.78,0,0,1-.46,1c-.2-.49.21-.7.33-1,.44-1.17.52-2.54,1.77-3.24A6.17,6.17,0,0,1,14.94,95.7ZM20.41,101c-1.65-.49-3.19-1.13-3.77-3.06,1.09,1.34,2.77,1.77,4.06,2.8.32.18.7.25,1,.67A2,2,0,0,1,20.41,101ZM28,89.17c0,1.45-.71,2.71-1.08,4.06-.6,2.22-1.08,4.5-2.47,6.45-.53.73-1.08,1-1.75.48C21,99,18.9,98.54,17.3,97.17c-.6-.51-.81-.86-.4-1.6a74.21,74.21,0,0,1,5.15-8.5c.7-.95,1.49-1.81,2.89-1.33C27.11,86.5,28,87.45,28,89.17Zm115.66,25.17a4.07,4.07,0,0,0-2.69,1.29,3.34,3.34,0,0,1-.77.38c.6-1.18,1-2.36,1.91-2.93s2.18.1,3.37-.56A2.1,2.1,0,0,1,143.64,114.34ZM180.9,69.69c.51.4,1.12.82,1.65,1.32.16.15-.08.42-.3.34a3.85,3.85,0,0,1-1.81-1.25C180.25,69.84,180.48,69.66,180.9,69.69Zm-2.82-.1c.47.13.49.4.25.8-2.4,3.92-4.78,7.85-7.19,11.75a7.42,7.42,0,0,1-1,1.09l-.77.49-.79.48a7.17,7.17,0,0,0-2.7,1.77,4.74,4.74,0,0,0-2.15,1.62,3,3,0,0,1-2,1c.69-1.16,1.31-2.24,2-3.3,2-3.19,3.85-6.48,6.06-9.54a6.44,6.44,0,0,1,1.46-1.49c.49-.36,1.32-.71.77-1.66-.07-.12.17-.44.3-.65.79-1.21,1.63-2.4,2.38-3.64.36-.6.65-.61,1.12-.17A5.7,5.7,0,0,0,178.08,69.59ZM169.82,84c-.65,2.61-2.69,3.27-5.08,3.59.3-.71,1-.89,1.4-1.37l2.74-1.79h0l.76-.44.09,0Zm1.58-19.47,1-1.23a6.38,6.38,0,0,0,1.54,3.24c.3.37,0,.61-.13.87-1.2,2-2.43,4-3.6,6.09a2.16,2.16,0,0,1-1.37,1l-3.43,1-.06,0,0,0c-.37,0-.71.35-1.17.15l7.18-11h.1Zm4.5-6.19a.72.72,0,0,1-.44.52l-.55,1a10.25,10.25,0,0,0-.07,5.13c.1.42.09.84-.26,1s-.49-.34-.65-.58c-1-1.45-1.55-2.92-.15-4.47a10.33,10.33,0,0,0,.88-1.34,1.46,1.46,0,0,1,.55-.78l.45-.73A1.89,1.89,0,0,1,176.8,57C176.79,57.72,176.31,58,175.9,58.35Zm.73-5.13c-2.13,3.5-4.39,6.93-6.34,10.54h0s0,0,0,0c-2.16,3.66-4.36,7.29-6.45,11a3.6,3.6,0,0,1-2.63,2,28.21,28.21,0,0,1-3.29.75c6-8.71,11.5-17.58,17-26.47l.26.13,1.61.79.14.07C177.37,52.55,176.84,52.88,176.63,53.22ZM110.71,96.45A2.7,2.7,0,0,1,112.94,95c1.61-.29,3.21-.68,4.88-1a2.1,2.1,0,0,1-2,1.78c-1,.12-2,.39-3,.6h0c-.66,0-1.26.66-2,.22l.1,0,0,0Zm-.56-.29-.29.19.16,0a2.54,2.54,0,0,1-1.7,1.06c-1.32.28-2.62.65-4,1a2.18,2.18,0,0,1,1.46-1.72l.19.08a.39.39,0,0,0,.08-.14c1.34-.37,2.77-.27,4.06-.85C110.29,95.72,110.12,96,110.15,96.16ZM54.54,136.61l0,.07c-1.19,1.65-2.39,3.29-3.65,5a14.25,14.25,0,0,1-1.26-3.78c-.11-.47.29-.76.52-1.08,1.64-2.29,3.3-4.56,5-6.84h0l.09,0,0-.08c3.2-4.78,6.43-9.55,9.6-14.36,2.52-3.83,2.49-3.85,7-4.86a4.34,4.34,0,0,1,.57,0,2.67,2.67,0,0,1-.76,1.38c-5.57,7.9-11.23,15.74-16.51,23.83-.16.24-.29.49-.44.74h-.1ZM40.67,109.17h0a27.11,27.11,0,0,0-3.23,4.59l-.11-.1a.7.7,0,0,0-.36-.12.19.19,0,0,0-.1,0,1.52,1.52,0,0,0-.93-.89l0-.25v-.07c-1.13-.84-1-1.72-.24-2.78a31.53,31.53,0,0,0,1.8-3.09,1.47,1.47,0,0,0,.1-.13,3.73,3.73,0,0,0,.78-1.55,2.11,2.11,0,0,1,.19-.23c.11-.19.24-.37.13-.6v0h0l-.22.43a4,4,0,0,0-1.21,1.67l0,.11c-.94,1.36-1.89,2.72-2.9,4.19l-.83-1a.41.41,0,0,0,0-.09,2.4,2.4,0,0,0-.72-.89l-.58-.81a.85.85,0,0,0,0-.24,1,1,0,0,0-.12-.52l0,0v-.07l-.1,0a1.18,1.18,0,0,1-.94-1.65c1-2.83,1.34-5.82,3.21-8.38,3.18-4.34,5.95-9,9.28-13.22L44,82.8c.75,1.12,1.73,1.12,3.09.45L36.53,99.6c-.81,1.25-1.6,2.52-2.39,3.77l-.11.1a2.77,2.77,0,0,0-.61.94,1.43,1.43,0,0,0-.5.91c-.31.48-.62,1-.92,1.43.75-.17.91-.85,1.2-1.41a.49.49,0,0,1,0-.11.89.89,0,0,0,.44-.55l.65-.93.05-.08c3.17-4.2,5.81-8.75,8.73-13.11.49-.73.79-1.61,2-.84.45.29,1,0,1.53-.24s.7-.61,1.34-.41l-7.78,12.37-.09.09a1.2,1.2,0,0,0-.36.55l0,.11a4.26,4.26,0,0,0-1,1.77c.26,0,.43-.47.75-.17.92.87,1.89.48,2.87.15.41-.14.93-.55,1.26-.19s-.38.71-.4,1.15l-.09.08a1.39,1.39,0,0,0-.4.68,1.23,1.23,0,0,0-.47.77c-.24.25-.68.44-.27.88l.13-.09a1.91,1.91,0,0,0,.47-.74l.39-.55.44-.68,0-.07c.91-1.27,1.71-2.66,3.47-2.9.21,0,.48-.22.59-.14,1.15.77,2.34.13,3.54,0a.91.91,0,0,1-.93.79c-.77.11-1.54.27-2.32.42-.48.08-1.1.07-1.07.76s.6,1.06,1.25,1.15a10.31,10.31,0,0,0,1.47,0,12.86,12.86,0,0,1,4.59-2c.86-.27,1,.42.62,1.13l-.12.12a6.9,6.9,0,0,0-1,1.51l-.1.18c-1.41.18-2.81.37-4.23.52-.39,0-.29-.29-.26-.52h0L49,106l.19-.29a.86.86,0,0,0,.14-.13.25.25,0,0,0,.06-.16.18.18,0,0,0,0-.12l0,.1a.63.63,0,0,0-.45.11.69.69,0,0,0-.25.38l0,.1c-.31.53-.61,1.05-1.35,1.11-.45.05-.89.42-.65.85.42.71-.08,1.08-.37,1.53a13.87,13.87,0,0,0-1,1.54c-1.06,2.46-3.15,2.79-5.45,2.71l-1.41-.07,1.83-3.23C40.45,110,40.81,109.68,40.67,109.17Zm-4.77,3.65c0,.39.73.67.47,1.1a.77.77,0,0,1-.22.23,18.23,18.23,0,0,0-3.52.57l1.87-3.14c.44,0,.58.51.88.72a.48.48,0,0,0,.4.09l.08,0a.35.35,0,0,0,0,.25A1.09,1.09,0,0,0,35.9,112.82ZM34.86,90c-1-3.33,1.5-5.11,3.14-7.27.41-.54,1.14-.84,1.21-1.64A3.33,3.33,0,0,0,41.16,79l0-.3c.64.2.73-.37,1-.7a14.09,14.09,0,0,0,3.51-5.2c.45-.69,1.1-1.32.75-2.28l.24-.21c.75-.12.71-.8.93-1.3,1-1.78,1.8-3.74,3.24-5.27,1.11-1.7,1.64-3.72,3-5.23a1,1,0,0,0,.31-.79c-.06-1,.48-1.35,1.32-1.28,1.11.08,2.15-.41,3.33-.39a10.88,10.88,0,0,1-4.6,5.37c-1.15.76-1.94,2-3.32,2.41h0C50.36,65,51.18,65.42,52,66a14.42,14.42,0,0,1-.08-1.51c1.08-.15,1.43-1.22,2.22-1.68a.6.6,0,0,1,.56.06c.15.23-.09.45-.21.65-1.46,2.46-2.93,4.92-4.38,7.38-1,1.68-2,3.34-3,5a3.64,3.64,0,0,1-2.24,2c-.76.21-1.21.71-.42,1.41.32.28.23.45.06.71L33.83,96.22c-.06.09-.19.13-.4.27.52-2,1.35-3.86,1.37-5.88C34.8,90.4,34.92,90.18,34.86,90ZM45.32,72.5s0,0,0,.08l0,.07c0,.11-.07.22-.15.23a.18.18,0,0,0-.22-.1l0,0v0c-.06-.5.05-.86.65-.82C45.53,72.13,45.28,72.22,45.32,72.5Zm-.31.29h0A1.44,1.44,0,0,1,44.54,74l-.1.13c-.61,1.39-1.81,2.39-2.49,3.74l-.53.44L41.14,78c-.1.23,0,.32.22.39l-.09.17-.19.16a.94.94,0,0,0-.12.22c-.13,0-.24,0-.3.22-.34-.59.22-.81.48-1.16a37.88,37.88,0,0,1,3-4.21C44.38,73.38,44.47,72.89,45,72.79ZM50.9,58.08a7.74,7.74,0,0,0,.44-2.28c0-.36.09-.74.17-1.09a2.38,2.38,0,0,1,2.92-1.51c.26.13.55.43.24.79-.72.84-.85,2.3-2.43,2.25-.42,0-.83.44-.45.71,1,.75.1,1.2-.14,1.76a6.81,6.81,0,0,1-.53.83c-.24-.1-.18-.35-.27-.53l0-.93Zm-3.07-.25c-.28-2.25-.56-4.48-.8-6.7a1.09,1.09,0,0,1,.2-.69c1-1.44,2-2.85,2.91-4.31.38-.6,1.3-.33,1.54-1.11C51.82,49.73,51.25,54.17,47.83,57.83ZM69.22,53.9l.14.29C68,56.4,66.62,58.6,65.27,60.81c-2.49,4-5,8.09-7.43,12.19-.82,1.41-2.22,1-3.32,1.58-.17-.63.21-.9.41-1.22,1.71-2.74,3.41-5.47,5-8.25,1.25-2.14,1.48-4.69,3.19-6.6a43.37,43.37,0,0,1,3.06-3.42C67,54.36,68.28,54.53,69.22,53.9Zm-1.45-.1c.44-.73.93-.56,1.6-.35Zm26.2,18c1.18-.81,2.6-.94,3.9-1.4.21-.07,0,.24.08.37l-.24.12h.15c-1,1.31-2.58,1.2-3.93,1.6-.42.12,0-.36,0-.63l.06,0Zm1.18-1.46c.24-.42.62-.22.94-.24.34-.24.69-.46,1.13-.17a2,2,0,0,1-1.17.32C95.79,70.59,95.5,70.61,95.15,70.31Zm4.13,1.41a11,11,0,0,1,2.76-1L101.43,72h0v0l-2.68.85.5-1,.11,0A.58.58,0,0,1,99.28,71.72Zm71.93-21.16c.59,0,1.14-.89,1.59-.32s-.45,1.08-.64,1.66a3.46,3.46,0,0,1-3.56,2.44,2.55,2.55,0,0,0-.76.18l-.05-.06,0,0-.11.14h0c-.21-.1-.89.23-.44-.5s1-1.73,1.5-2.53,1.69-.48,2.44-1l.05,0s0,0,0,0Zm-3.06,4.77h0l.09.09a.25.25,0,0,0,0-.07c.62,0,1.19-.49,2-.17-.67,1.16-1.32,2.3-2,3.43-.22.37-.62.37-1,.42l-2.42.29,0-.06,0,0a.52.52,0,0,0-.11.1c-.61,0-.67-.13-.36-.67C165.21,57.12,166.06,55.53,168.15,55.33ZM136.29,65.71a17.79,17.79,0,0,0,5-1.06c.12.45-.19.66-.35.9-4,6.32-7.94,12.63-11.69,19.08a1.75,1.75,0,0,1-1.32,1,21.24,21.24,0,0,1-4.19.58h-.47L131,73.54c1.63-2.69,3.39-5.29,5.24-7.83a1,1,0,0,0,.08.11l0,0A.14.14,0,0,1,136.29,65.71Zm27-9c-.69,2.66-1.45,3.25-5,3.74C159.52,58.39,160.47,56.24,163.33,56.66Zm-6.62,3.73a.74.74,0,0,1-.46.36,68.38,68.38,0,0,1-6.82,1.09c.61-.9,1.16-1.65,1.65-2.45a1.46,1.46,0,0,1,1.09-.69c2-.35,4-.73,6.21-1.15C157.77,58.61,157.26,59.51,156.71,60.39Zm2.48-4.3a.8.8,0,0,1-.5.32c-2,.42-4.05.82-6.46,1.3l2.23-3.1a1.17,1.17,0,0,1,.69-.5L161,53C160.33,54.16,159.77,55.13,159.19,56.09Zm-12.32,2.39c1-2.55,2.75-4,5.66-3.74C151.67,57.44,149.9,58.94,146.87,58.48Zm2.75.94c-1.09,2.85-1.77,3.25-5.68,3.38C145.42,59.8,146.87,59,149.62,59.42Zm-5.11,4.39c.9-.11,1.79-.31,2.88-.5l-4.09,6.52c-2.83,4.54-5.76,9-8.31,13.72-.2.37-.36.76-.83.85l-4.72.93c2.62-4.29,5.09-8.41,7.64-12.48,1.59-2.53,3.15-5.07,4.91-7.49A3.43,3.43,0,0,1,144.51,63.81ZM131.78,71q-4.4,7.31-8.77,14.61a1.74,1.74,0,0,1-1.43,1c-1.77.19-3.49.78-5.3.65.15-.33.3-.66.44-1,3.58-5.2,6.64-10.71,9.94-16.08,2.06-3.35,2-3.4,5.87-4,.7-.12,1.4-.16,2.3-.26C133.76,67.63,132.78,69.3,131.78,71ZM124.51,87.8l.07,0a.09.09,0,0,1,0,0l1.87-.07h0c.31-.13.62-.38,1-.06,0,0-.14.17-.21.25a1.73,1.73,0,0,1-1.55,1.33,16.15,16.15,0,0,0-1.9.61l-.11-.06-.1,0a.93.93,0,0,0-.1.2l-2.74.5C121.16,88.38,122.81,88.05,124.51,87.8Zm4.82-.66a22.07,22.07,0,0,0,4.14-1.09c-.11.39-.18.65-.24.9a4.92,4.92,0,0,1-2.56,1c-1.07.3-2.15.54-3.31.82A2,2,0,0,1,129.33,87.14Zm7.1-1.78a24.37,24.37,0,0,0,5.93-1.66c.18.67-.25.84-.62,1-2.61.81-5.23,1.59-7.83,2.4a.59.59,0,0,1-.66-.14l0,0C134,85.78,135.18,85.55,136.43,85.36Zm-1.38-1.13c4.47-7,8.32-14,13-20.35a2.07,2.07,0,0,1,1.48-1c2-.28,4-.64,6.28-1-1.29,2.2-2.43,4.15-3.59,6.09q-3.91,6.51-7.86,13c-.19.31-.31.7-.72.81Zm14.29-2.87c-1.56,1.94-4.05,1.87-6.09,2.76C144.71,82,147.25,82.16,149.34,81.36Zm-.15-1c-1.4.32-2.79.72-4.2,1.08-.16-.36.12-.56.25-.77,3.71-6.28,7.83-12.3,11.78-18.42a1.5,1.5,0,0,1,1.17-.77c.89-.1,1.77-.29,2.89-.48-2.25,4-4.37,7.77-6.52,11.54-1.28,2.22-2.61,4.42-3.87,6.65A2.22,2.22,0,0,1,149.19,80.35Zm1.93.34c1-.22,1.89-.56,2.83-.86l.05,0a.17.17,0,0,0,0-.05l2-.48c0,.74-.54.92-1.06,1.1-1,.35-2.07.67-3.11,1l-.13-.08h0a.53.53,0,0,0,0,.13l-1.82.46A1.45,1.45,0,0,1,151.12,80.69Zm4.19-2.22a13.39,13.39,0,0,0-1.7.54l-.1-.06-.09.12h0l-2.23.48c.51-.87.88-1.59,1.33-2.27,3.48-5.3,7-10.58,10.22-16,.6-1,1.65-.56,2.41-1,0,0,0,0,0,0v0l2.31-.34c-1,1.78-1.89,3.41-2.82,5-2.23,3.82-4.52,7.6-6.69,11.45A3.86,3.86,0,0,1,155.31,78.47Zm6-22.72c1.13-1.86,1.89-4.19,4.85-3.67C164.6,55.28,163.8,55.88,161.27,55.75Zm-2.22-3.4c-1.1,0-2.15.54-3.41.47L159,47.65c.17-.27.31-.6.74-.22a6.15,6.15,0,0,0,3.6,1.45C162.63,51,161.4,52.33,159.05,52.35ZM157,47.72a34.28,34.28,0,0,0-3,4.84,1.8,1.8,0,0,1-1.64,1.06,19.8,19.8,0,0,0-2.55.53c2.41-3.89,4.75-7.52,7.28-11.08C158,44.72,158.28,46.13,157,47.72Zm-.68-6.93q-4,6.49-8.08,13a1.53,1.53,0,0,1-1.27.82c-1.31.14-2.62.37-4.21.61,1.46-2.31,2.64-4.41,4-6.35,2.15-3,3.68-6.3,5.49-9.44.9-1.57,1.29-3.53,2.39-5.1.22-.32.31-.77.8-.89.38,2.08.76,4.14,1.15,6.2A1.54,1.54,0,0,1,156.32,40.79Zm-9.4,14.8c-1,3-2.91,4.12-6.74,3.91C141.25,56.25,144.22,56.19,146.92,55.59Zm-6.32,5.59a17.18,17.18,0,0,0,3.63-.93c-.57.93-1,1.68-1.49,2.45a1,1,0,0,1-.78.53c-1.38.21-2.77.4-4.15.66-.25,0-.38,0-.5-.14s.14-.24.2-.36A3.47,3.47,0,0,1,140.6,61.18Zm-4.17-1a20.79,20.79,0,0,0-3.32.35c.8-1,.77-2.77,2.47-2.89l4-.26C139,58.86,138.47,60.28,136.43,60.19Zm.93,1.41c-.87.94-.88,2.33-2.18,2.71l-.11-.07-.11.13-4.89.56a15.53,15.53,0,0,1,1.9-2.68.71.71,0,0,0,.07.09l0-.07s0,0,0,0A26.8,26.8,0,0,1,137.36,61.6Zm-4.94-2.36c-.34.53-.51,1.22-1.17,1.5l0,0v0a24,24,0,0,0-3.94.33c1.13-1.69,2.38-2.89,4.44-2.82l.06,0h0c.33.07.7-.38,1,0S132.59,59,132.42,59.24Zm-4.63,3.55c.82-.06,1.63-.16,2.47-.24-.54,2-1.1,2.51-3,2.74-.49.06-1,.17-1.46.25s-.88.14-1.43.22C125.06,63.33,125.52,63,127.79,62.79Zm-2.68,4.59a18.15,18.15,0,0,0,2.71-.35L116.46,85.92a2.44,2.44,0,0,0-.67,1.08c-1.48.71-3.14.54-4.9,1.11.38-.62.59-1,.85-1.38,3.14-4.43,5.87-9.13,8.87-13.66a18.64,18.64,0,0,0,2.09-3.79A2.36,2.36,0,0,1,125.11,67.38ZM119,72.1c-3,5.08-5.94,10.16-8.87,15.26a2.46,2.46,0,0,1-1.78,1.32c-1.42.29-2.81.68-4.47,1.08.68-1.06,1.21-2,1.8-2.82,3.62-5.21,7.39-10.33,10.59-15.81a5.69,5.69,0,0,1,5.06-2.9C120.54,69.57,119.77,70.83,119,72.1ZM118,64.25l-1.21.26-3.61,1.17c.59-1.7,2.14-1.08,3.28-1.44h0c.39-.35.88-.17,1.33-.25.22-.25.51-.19.9-.19A.83.83,0,0,1,118,64.25Zm.19.45c-.58,2.88-2.93,2.64-4.86,3-.39.08-1.14.52-1.22,0a1.46,1.46,0,0,1,1-1.5Zm-2.71,4.7c-4,6.8-7.94,13.48-12.08,20.06a1.27,1.27,0,0,1-.86.63l-6.42,1.45c.41-.65.67-1.14,1-1.58,4.34-6.12,8.46-12.37,12.5-18.69a2,2,0,0,1,1.78-1C112.69,70.18,114,69.47,115.43,69.4ZM101.51,92.56c-1.12,2.63-3.26,3.67-6,3.83a26.5,26.5,0,0,0-2.88.52c1.19-1.47,1.58-3.17,3.05-4.12l0,0,.08-.1c1.44.17,2.71-.52,4.06-.81a7.28,7.28,0,0,1,2-.43c.14.43-.33.63-.33,1h-.1ZM40.4,101.69c3-4,5.48-8.28,8.13-12.48a6.59,6.59,0,0,1,2.75-2.39c.22-.11.57-.31.68-.22a2.11,2.11,0,0,0,2.4,0c-.17.38-.33.76-.49,1.14l-.18,0a.19.19,0,0,0,0,.1l0,.06C51.2,92,48.61,96,46.13,100.14a3.2,3.2,0,0,1-2.71,1.78c-.83,0-1.65.2-2.47.31-.14-.07-.31-.07-.44-.15a.4.4,0,0,1-.14-.17.28.28,0,0,0,0-.15A.17.17,0,0,0,40.4,101.69ZM49.17,82a3.67,3.67,0,0,1,4-1.38c-1.14,1.83-2.29,3.64-3.39,5.47-.23.39-.59.41-.93.52-1.11.39-2.23.75-3.35,1.13l-.17-.27C46.63,85.64,47.84,83.78,49.17,82Zm-4.59,0c1.15-2.58,3.63-3.52,6-5C49.7,80.33,47.25,81.29,44.58,82Zm6.15-2c1.27-2.25,2.62-4.36,5.61-4.56C54.5,78.71,53.63,79.42,50.73,79.94Zm6-.77c.74-.25,1.49-.46,2.62-.8-1.31,2.2-2.44,4.12-3.59,6-.08.14-.18.35-.31.37-1.67.37-3.16,1.4-5,1.51l4.23-6.1C55.15,79.45,56,79.42,56.71,79.17ZM48.28,97.71c1.95-3.17,3.95-6.3,6.07-9.37h.08s0-.07,0-.11c1-2.26,3-2.92,5.2-3.26l.06,0h0v0a16,16,0,0,0,3.06-1A3.5,3.5,0,0,1,62,85.36c-3.12,4.83-6.26,9.65-9.36,14.5a2.06,2.06,0,0,1-1.79,1.08c-1.64.08-3.18.89-5,.73C46.69,100.3,47.48,99,48.28,97.71Zm7.94,3.7c-.49,1.18-2,1.54-5,1.16C52.89,101.41,54.63,101.83,56.22,101.41Zm-.13-1.07c-1,.09-2.05.28-3.35.46,1.71-2.63,3.25-5,4.81-7.4,2-3.05,3.89-6.18,6.14-9.06.37-.48.69-.92,1.39-.82a1.47,1.47,0,0,0,1-.41,4.62,4.62,0,0,1,2.46-.71C66.94,85,65.47,87.35,64,89.71c-2,3.12-4,6.2-5.94,9.34A2.37,2.37,0,0,1,56.09,100.34ZM89,77.4c-2.23,3.46-4.35,6.77-6.48,10.06-1.69,2.61-3.42,5.19-5.1,7.8a2.22,2.22,0,0,1-1.55,1.07c-2.15.42-4.24,1.11-6.58,1.38,1.72-2.79,3.4-5.43,5-8.11,2.12-3.52,4.54-6.83,6.79-10.25.26-.39.5-.77,1-.85Zm-6.35-.22c0-.1.08-.24.16-.28s.29,0,.38.18-.11.2-.21.2A1.39,1.39,0,0,1,82.61,77.18Zm10.21-1.52A15.1,15.1,0,0,0,95.39,75c-1,1.66-1.85,3.19-2.79,4.68-3,4.73-6,9.44-9,14.17A2.22,2.22,0,0,1,82,95c-1.34.23-2.66.56-4.31.92,2.67-4.06,5.1-7.9,7.75-11.6,1.69-2.36,3.39-4.71,5-7.11A2.94,2.94,0,0,1,92.82,75.66Zm-.43-.9c.46-1.11.46-1.11,4.52-2.26C95.76,74.29,93.89,74,92.39,74.76Zm-2.76.74c-1.87.53-3.74,1-5.62,1.54,1.84-1.7,4.36-1.77,6.61-3C90.29,75.28,90.3,75.31,89.63,75.5ZM76.86,84.28c-2.57,4.15-5.17,8.29-7.72,12.45a2.49,2.49,0,0,1-1.88,1.36c-1.47.22-2.9.62-4.69,1,4-5.89,7.3-11.85,11.39-17.28.1-.13.18-.32.32-.37a33.6,33.6,0,0,1,5.56-2.08C78.74,81.18,77.82,82.74,76.86,84.28ZM66,92.76c-1.09,1.71-2.28,3.37-3.28,5.13a2.89,2.89,0,0,1-2.51,1.69,17.43,17.43,0,0,0-2.07.39c1.2-1.89,2.27-3.55,3.31-5.22,2.51-4,5.4-7.76,8-11.68.81-1.2,2.26-1.16,3.37-1.78l.23.25Q69.53,87.15,66,92.76Zm-5.15,7.79s0,.23,0,.35l.25.28c1.38-1.36,3.19-1.52,5-1.73a6.55,6.55,0,0,1,1,0h0c.34,0,.32.36.53.47a4,4,0,0,1,3.27-1.08c1.1.2,2.09-.4,3.12-.69a4.08,4.08,0,0,1,1.62-.43C75,99,74.33,100,72.63,100a27.23,27.23,0,0,0-4.79.74c-.38.07-.61.13-.71-.31h-.25a1.3,1.3,0,0,1-.88.61,44.61,44.61,0,0,1-5.16.64l-.4-.23c-1,1-2.34.23-3.58.69C57.37,101.15,60,100.17,60.84,100.55Zm21.32-4.49c-.65,1-1.09,1.71-1.55,2.38-.13.19-.34.43-.54.46-1.62.3-3.24.56-4.92.83C76.41,96.52,79.25,96.58,82.16,96.06Zm.52.26a1.23,1.23,0,0,1,1.16-.57,10.09,10.09,0,0,1,1.35.07c.6.06,1.26-.7,1.78,0,.18.25-1.45,2.23-1.86,2.3-1.22.19-2.44.35-4,.57C81.76,97.76,82.23,97.05,82.68,96.32Zm11.59-3.06c-.73,1.18-1.41,2.28-2.09,3.4a1.08,1.08,0,0,1-.82.5l-4.7.73C87.62,93.81,91.12,93.93,94.27,93.26Zm11.12-24.45a12.6,12.6,0,0,1,4.19-1.29C109.18,68.61,108.72,68.76,105.39,68.81Zm1.34.94h0a3.92,3.92,0,0,1,1.69-.23.54.54,0,0,1-.66.48c-1.16.42-2.32.84-3.48,1.24-.1,0-.24,0-.37,0C104.34,69.71,105.71,70.07,106.73,69.75Zm.28,1.73c.28.25.09.37,0,.48q-5.62,9.45-11.26,18.88a9.72,9.72,0,0,1-.78,1l0,0L89.3,93.26c1-1.64,1.94-3.11,2.91-4.53,3.36-4.94,6.8-9.83,9.94-14.91.14-.23.25-.48.38-.72l0,0,0-.06C104,72.26,105.6,72.14,107,71.48Zm-7-.86c.64-1.28,1.62-1.39,3-1.31A5.41,5.41,0,0,1,100,70.62Zm.23,3.27q-3.7,6.24-7.43,12.47c-1.19,2-2.46,3.94-3.62,6a2.63,2.63,0,0,1-2.09,1.51c-1,.12-1.93.42-3.18.7,2.55-4.19,5.46-7.77,8-11.58,1.73-2.58,3.68-5,5.18-7.76C97.82,74,99.13,74.21,100.26,73.89ZM91.64,70.7a30.93,30.93,0,0,1-5.15.77c.31-.61,6.06-2.72,7.28-2.66A2.34,2.34,0,0,1,91.64,70.7Zm-4.81,1.62h0a5.38,5.38,0,0,1,3-.62c.52-.32,1.14-.22,1.7-.41a.87.87,0,0,1-.36.41l-1.1.22-.17,0-.06,0a.13.13,0,0,0,0-.09.06.06,0,0,0,0-.06.18.18,0,0,0-.06-.13V72h0l-2.43.56-.25.07-1.52.45c.09-.43.34-.47.55-.55a.53.53,0,0,0,.17-.08Zm1.38.67c1.2-.34,2.57,0,3.65-1a2,2,0,0,1-1.62,1.7c-1.8.55-3.57,1.24-5.35,1.87a1.55,1.55,0,0,1-1.26.13C84.48,73.61,86.47,73.48,88.21,73Zm-3.94-1.12c-.91,2.48-3.22,2.11-5.2,2.76,1-2.27,2.4-3.5,4.73-3.48C84.54,71.15,84.49,71.28,84.27,71.87Zm-1.71,2.57C81.84,78,79,78.68,76,79.12,77,75.83,79.56,74.69,82.56,74.44Zm-7.79,1c.56-1.78,2-2.19,3.53-2.73C77.36,75,76.71,75.51,74.77,75.46Zm1.92.27c-1.58,2-1.93,4.9-5.23,4.57C72.87,78.57,73.56,76.09,76.69,75.73ZM69.5,80.66c-.88,1.09-2.64,1.11-4.25,1.49,1-1.54,1.93-2.92,2.85-4.29h.1a.7.7,0,0,0,.36-.36l0-.08c0-.09,0-.17,0-.26.22-.27.45-.54.66-.82a6.73,6.73,0,0,1,4.15-2A56.23,56.23,0,0,1,69.5,80.66ZM67.35,77,67.2,77s0,0,0,0a.24.24,0,0,0,0,.08c-1,1.54-2,3.06-2.94,4.62A2.52,2.52,0,0,1,62.69,83c-1.21.31-2.39.72-3.59,1.09L58.94,84h-.06a.75.75,0,0,0-.08.18c-.63-.08-1.18.39-1.75.24,1.25-1.82,2.6-3.61,3.72-5.52a4.05,4.05,0,0,1,2.79-2.06A8.48,8.48,0,0,0,67,75.74a1.05,1.05,0,0,1,1-.15ZM56.29,78A6.45,6.45,0,0,1,62,73.65C61.08,76.36,59.29,78,56.29,78Zm4.87-23c.66-2.29,2.23-1.53,3.69-1.1Zm.6.45c.34.25.09.38-.19.41a3.76,3.76,0,0,1-.47,0C61.32,55.48,61.53,55.25,61.76,55.41Zm1,1.71L57,66.71c-1.56,2.59-3.21,5.13-4.63,7.8-.8,1.49-2,1.68-3.55,1.69,1.51-2.44,2.93-4.75,4.38-7A48,48,0,0,0,57.37,62a32.81,32.81,0,0,1,1.89-3.15C59.89,57.67,61.4,57.72,62.79,57.12Zm-4.9-1.56a25.93,25.93,0,0,0-3.28.41l1.5-2.25c.13-.2.31-.52.55-.42,1.39.54,2.69-.38,4.17-.18C60.18,54.39,59.65,55.6,57.89,55.56ZM33.25,94.89c-.09-.45-.14-.74.27-1A1.13,1.13,0,0,1,33.25,94.89Zm.25-1.32V91c-.29-.83-.61-1.65.41-2.34a6.38,6.38,0,0,1,0,3.82A1.41,1.41,0,0,1,33.5,93.57Zm-.56-5.15c0-.44.22-.68.67-1C33.58,88.06,33.44,88.33,32.94,88.42ZM32.64,94a2.85,2.85,0,0,1-.27,1.72,15.76,15.76,0,0,1-.43,3,7.4,7.4,0,0,1,.21-3.24l.09-1.22c-.08-1,.43-2,.49-3.16C33.36,92.17,32.58,93.05,32.64,94Zm-.71-2.26c0-.13.08-.41.18-.22a.78.78,0,0,1-.14,1V93.8C31.72,93.1,31.29,92.39,31.93,91.71Zm.32-3.77c-.31-.78-.61-1.52-.88-2.28a.56.56,0,0,1,.21-.66c.3-.21.41.12.57.28C33.43,86.49,33.43,86.62,32.25,87.94ZM32,89.8c.23.33,0,.57-.21.89-.35-.35-.44-.62-.11-.89A.36.36,0,0,1,32,89.8Zm-.07,8.9a.9.9,0,0,1-.43.84C31.43,99.11,31.3,98.71,31.93,98.7ZM56,111.86H54.58c1.18-1.69,1.9-3.56,3.26-5h0a.59.59,0,0,0,0-.08l5.17-.38c-1.17,1.7-2.15,3.16-3.16,4.61-.36.51-1,.38-1.49.47-.77.13-1.54.28-2.31.42l-.09,0Zm-2.51,0c-.38.52-1,.39-1.6.49s-1.22.16-1.87.24c.21-1.13,1.33-1.81,1.36-3-.82.38-1.11,1.21-1.51,1.89a2.41,2.41,0,0,1-2.42,1.35c-.74,0-1.49,0-2.44,0,.77-1.27,1.49-2.49,2.24-3.69a.56.56,0,0,1,.39-.25c1.47,0,2.66-.83,4-1.23.33-.09.68-.38,1,.07.67-.75,1.33-1.36,2.39-.52.55.44,1-.4,1.81-.18C55.7,108.7,54.63,110.31,53.51,111.89Zm-12.27,2.32a1,1,0,0,1,1.24.26c.3.39-.16.66-.33.94-.55.87-1.15,1.71-1.82,2.7-.67-1-1.24-1.93-1.87-2.91Zm1.1,2.74a5.29,5.29,0,0,1,5.36-3l.5,0c-2,2.61-3.53,5.36-5.58,7.83l-.27-.34C41.05,119.93,41.42,118.65,42.34,117Zm1.87,4.86c1.39-2.21,2.81-4.4,4.12-6.66.57-1,1.18-1.63,2.41-1.5a8.51,8.51,0,0,0,1.65-.19c-2.52,4-5.45,7.66-7.85,11.78C43.22,123.49,43.22,123.38,44.21,121.81Zm2,3.16a120.21,120.21,0,0,0,6.69-10.45A2.75,2.75,0,0,1,56,112.86a3,3,0,0,0,.6,0l.16.11.11-.12c.71.15,1.25-.57,2.14-.46a111,111,0,0,0-6.18,9.47l-.07,0h0s0,0,0,0l-5.71,8.76-.49-.82,0-.07L46,128.73l-.08-.16C45,127.28,45.36,126.22,46.25,125Zm2.07,6.39a72.17,72.17,0,0,0,5.37-8.62v0c2.22-3.13,4.24-6.4,6.21-9.7.3-.5.55-1,1.3-.9a6.24,6.24,0,0,0,3.76-.41,1.07,1.07,0,0,1,1.06.14c-4.13,5.66-8.19,11.35-11.94,17.26,0,0,0,0-.05,0h0l0,0-4.8,6.61c-.38-.2-.47-.59-.68-.89a.29.29,0,0,0,0-.09,7.57,7.57,0,0,0-.73-2,1.76,1.76,0,0,0-.14-.23A2.08,2.08,0,0,1,48.32,131.36Zm18.28-21c-1.72.19-3.45.34-5.41.53.93-1.6,1.8-3,2.62-4.52a1.14,1.14,0,0,1,1.12-.63c2,.19,3.78-.77,6-.76-1.26,1.78-2.43,3.45-3.64,5.1A1,1,0,0,1,66.6,110.38Zm2.43-6.2c-1.35.28-2.74.44-4.18.67.16-.82.81-1.35.75-2.11-1.24,2.76-3.82,2.57-6.23,2.86-.93.11-1.06-.15-.74-.92h0c-.63.08-.55,1-1.24,1l-.08,0,0,0a9.78,9.78,0,0,0-2.63.49c-.17-.08-.66.11-.61-.16a1.12,1.12,0,0,1,.18-.34c.23-.31.42-.64.62-1a.25.25,0,0,1,0-.07c.93-1.77,2.72-1.35,4.22-1.63.25,0,.18.24.19.46a.23.23,0,0,0,0,.12l.09-.11a1.65,1.65,0,0,1,1.47-.63,16.26,16.26,0,0,0,4-.73c.47-.09.91-.22.81.5a9.15,9.15,0,0,1,5.42-1.19c.68.08,1.43-.28,2,.24-.06.07-.14.14-.22.22s-.33.34,0,.64l.14-.1a1,1,0,0,0,.32-.45l0-.09.71-.78h0c.18-.34.47-.15.72-.16a.37.37,0,0,1-.05.29.31.31,0,0,1-.14.11.79.79,0,0,1-.22.06c-.14.7.23.87.83.78s1.4-.22,2.09-.33h.08c.2.17.68,0,.65.41a.79.79,0,0,1-.63.67l-2,.46,0,0a.06.06,0,0,0,0,0l-2.26.14c-.33,0-.74.25-.86-.3v0s0,0,0,0C71.25,104.11,70.08,104,69,104.18Zm8.81-2.69-.34,0-.89,0c-.28,0-.59.06-.87,0a.68.68,0,0,1-.38-.23l1.25-.23,2.76-.76C79,101,78.69,101.56,77.84,101.49Zm5.16.6-4.3.67-.08-.48A8.11,8.11,0,0,1,83,102.09Zm-3.55-.72c.89-1.44,2.92-2.21,5.18-2C84,101,82.43,101.61,79.45,101.37Zm6.64-.11a9.21,9.21,0,0,1,3.8-.9c-1,1.21-2.19.93-3.25,1.12h0a12.47,12.47,0,0,1-2.58.46C84.62,101.05,85.46,101.5,86.09,101.26Zm-1.22-.63c.33-1.34,1.18-1.72,2.48-1.45s2.26-.28,3.43-.47C90.29,99.59,87.44,100.49,84.87,100.63Zm12.69-2.4A1.87,1.87,0,0,1,95.81,100c-1.78.29-3.54.65-5.31,1l-.08-.4C92.53,99.08,95.17,99.35,97.56,98.23Zm-6.16,1.1c.26-1.13.86-1.55,1.8-1.52,1.3,0,2.5-.5,3.77-.62a3.32,3.32,0,0,1,1.28.12C96.08,98.32,93.72,98.56,91.4,99.33ZM104.1,97c-.28,1.17-.68,1.67-1.64,1.78-1.5.17-3,.49-4.49.75C99.34,96.88,101.94,98,104.1,97Zm-.12-2h0l-3.1.4,0,0s0,0,0,0,0,.06,0,.07l-.44.06,1.45-2.58,0,0c1.56-2,1.75-2.12,7-3C107.11,91.69,107,94.59,104,94.94Zm2.8.45c1.24-.38,2.47-.76,3.72-1.11.16,0,.5,0,.54.15.09.27-.12.47-.39.52A10.31,10.31,0,0,1,106.78,95.39Zm5.07-1,1.42-.33,1.24,0a1.31,1.31,0,0,1-.94.24A2.11,2.11,0,0,1,111.85,94.35Zm2.72-.37c.27-.46.72-.22,1.32-.49C115.38,94.1,115,93.93,114.57,94Zm1.52-.49a2.25,2.25,0,0,1,1.66-.18C117.3,93.44,116.9,93.82,116.09,93.49Zm.7-1.66c-1.19.32-2.43.43-3.66.64,0-.51.5-.78.38-1.25-.12,0-.3,0-.36,0-.43.52-.48,1.38-1.25,1.59-1.58.44-3.18.82-5,1.28A38.42,38.42,0,0,1,110,89.51a.69.69,0,0,1,.66-.28,9.18,9.18,0,0,0,3-.22c.59-.14.92.06.54.72h0A1.79,1.79,0,0,0,113.5,91c0,.07,0,.13,0,.2a.83.83,0,0,0,.22-.24l0-.09c.4-.28.47-.79.69-1.19.41-1,1.31-.93,2.11-1a19.65,19.65,0,0,0,4.46-.29C120.6,90.89,118.64,91.33,116.79,91.83Zm3,1.6c.2,0,.54-.06.4-.41,0-.07-.3,0-.46-.07a.89.89,0,0,1-.85.19,1,1,0,0,1,.87-.4l4.47-1.33h0l.06.07,0,0a.14.14,0,0,0,0-.06l.88-.16c-.5,1.46-1.26,2.42-2.86,2.52a7.23,7.23,0,0,0-1.7.48l-.1-.07a1.47,1.47,0,0,0-.1.13L118.1,95C118.06,93.71,119,93.59,119.81,93.43Zm7.83-2.92c1.34-.31,2.63-.88,4-1.36a3.76,3.76,0,0,1-3.55,3.1,26.24,26.24,0,0,0-3,.72A2.85,2.85,0,0,1,127.64,90.51Zm6.56-1.93a15.72,15.72,0,0,0,5.55-2.08,13.42,13.42,0,0,1,1.41-.54,5.4,5.4,0,0,1-4.32,3.86,50,50,0,0,0-5.54,1.65C131.92,90,132.38,88.76,134.2,88.58Zm13.68-4.75-.41.91h-.1s0,0,0,0l0,0a5,5,0,0,1-3.72,2.94l-.2-.12a.67.67,0,0,0-.06.17l-3,.8C141.74,85.6,143.09,84.72,147.88,83.83Zm0,1.23h.07l-.05-.07c.7-2.06,2.78-2,4.3-2.73l.1.06a.14.14,0,0,0,0-.06v0l2.46-.66c-.86,1.85-1.74,3.45-4,3.8a24,24,0,0,0-3.49,1.14C147.27,85.85,147.72,85.51,147.86,85.06Zm12.85-5.42c-.82,3.62-4,3.69-6.58,4.66C154.91,80.54,158.11,80.57,160.71,79.64Zm-3.9,0c1.42-1.37,3.4-1.4,5.2-1.91C160.49,78.88,158.55,79,156.81,79.64Zm21.58-24h0l-1.28.49a11.41,11.41,0,0,1,1.52-2.53l.89.75C180,55.51,178.63,55.07,178.39,55.63Zm8.21-.86-2.84.16a3.7,3.7,0,0,1,2.35-.59c1-.23,2,.11,3-.25l0,.48Zm4-1.72.16.08a1.42,1.42,0,0,0,.32.45,1.5,1.5,0,0,1,0,.22C190.78,53.65,190.42,53.52,190.59,53.05Zm-4-5.4h0l.15.23v-.1l1.88,1.54h0a.59.59,0,0,0,0,.13h.05c.09.4.44.61.71.88a.31.31,0,0,0,0,.08h.07l.45.64h0a.41.41,0,0,1,0,.08s0,0,0,0a.34.34,0,0,0,.17,0c.07.24.14.49.2.73l0,.18h0c-.52,0-.56-.38-.71-.71l-.5-.31,0,0-.22,0c-.52-.23-.67-.86-1.11-1.18l.09-.17h0a2.69,2.69,0,0,0-.82-.89,1.11,1.11,0,0,0-.19-.09C186.87,48.25,185.8,48.2,186.59,47.65Zm-.84,3.19a9.39,9.39,0,0,1,2,1.61c.81.7.22,1-.36,1.06-1,.15-2,.16-3.12.24Zm-3.45-2.36c2.12,1.18,2.13,1.16.9,3.17-.43.7-.85,1.41-1.29,2.11a1.37,1.37,0,0,1-2.07.56,2.25,2.25,0,0,0-.91-1c.81-1.52,1.63-3,2.43-4.56C181.6,48.28,181.82,48.21,182.3,48.48Zm-4.93-2.08v0c3,.43,3.13.65,1.59,3.13-.4.64-.81,1.26-1.17,1.91-.23.39-.48.56-.9.31h0l-1.49-1-.25-.17a32.88,32.88,0,0,1,2.21-4.14ZM170.57,48c.17-.32.58-.53.54-.93-.16-1.54.8-1.83,2-1.86l0,0v0c2.54.61,2.53.62,1.22,2.87a2.25,2.25,0,0,0-.12.21c-.42,1.1-1,1.8-2.35,1.22a1.4,1.4,0,0,0-.33-.15c-.42-.13-.89-.08-1.3-.23a.59.59,0,0,1-.14-.06C169.87,48.59,170.39,48.38,170.57,48Zm-.44,1.3.07.06v0h0a.63.63,0,0,0,.24,0c.25,0,.53,0,.7.13l0,0h.06a.83.83,0,0,1,.13.25,1.78,1.78,0,0,0-.52.11.66.66,0,0,0-.19.15h-1.18C169.37,49.51,169.68,49.35,170.13,49.34Zm-.58-3.18c-1.73,3.26-1.05,2.69-3.62,2.38C167,46.48,167.39,46.25,169.55,46.16Zm-1.9,3.2c-.45,1.9-2.21,1.24-3.44,2C165.21,49.15,165.21,49.15,167.65,49.36Zm-3.76-9c.29.34.53.65.47,1a9.52,9.52,0,0,0,.66,4c.37,1.34-.66,2-1.16,2.81-.35.59-1.08,0-1.59-.11-2.6-.83-2.69-1.17-1.17-3.44C162,43.19,162.94,41.77,163.89,40.31Zm-1.48-5.55a4.06,4.06,0,0,1-.28,4.84c-1.26,1.66-2.28,3.51-3.51,5.43-.75-1.58-1.26-2.82-.06-4.33C160,38.87,160.58,36.44,162.41,34.76Zm-1.53-7.36a2.61,2.61,0,0,0,.52,2.42,2.26,2.26,0,0,1,.06,2.86c-1.43,2.2-2.83,4.43-4.44,7-.39-2.35-.72-4.31-1.06-6.26a1.44,1.44,0,0,1,.36-1.37,38.69,38.69,0,0,0,4.58-5.85A4.73,4.73,0,0,1,160.88,27.4Zm-1.61-9.14c.7,1.49,0,3.23,1,4.65.31.45-.23.82-.49,1.17a54.2,54.2,0,0,0-3.85,6.48c-.56.08-.41-.36-.46-.64-.15-.86-.29-1.73-.43-2.59a3.67,3.67,0,0,0-.05-.66l0-1.78C156.65,22.88,157.65,20.38,159.27,18.26Zm-4.92,7.41a9.19,9.19,0,0,1,.36,2.21c-.26,1.3.35,2.49.49,3.74C150.4,39,146,46.68,141.51,54.29a2.47,2.47,0,0,1-2.07,1.45c-.91.08-1.81.23-2.72.35-.29.19-.62.36-.93.09-.12-.11,0-.28.17-.37,3.38-5.35,6.82-10.67,10.09-16.09,1-1.72,2.37-3.42,2.91-5.27a23.27,23.27,0,0,1,3.1-6A14.8,14.8,0,0,1,154.35,25.67Zm-.45-8c0,.24,0,.49,0,.73,0,1.45,0,2.9.05,4.35a2.4,2.4,0,0,1-.53,1.36c-5,8.12-10,16.25-14.83,24.48-1.23,2.11-2.5,4.21-3.62,6.38a2.45,2.45,0,0,1-2.63,1.58,2.93,2.93,0,0,0-.72.07v0l-.07-.07-.06.1c-.6,0-1,0-.5-.75,1.27-2,2.45-4.12,3.73-6.15,1.67-2.66,3.17-5.41,4.75-8.12,3.26-5.61,6.58-11.19,9.9-16.77,1.29-2.17,2.43-4.42,3.6-6.65l.13-.15.34-.4c.05-.24.13-.54.39-.49S153.9,17.51,153.9,17.69ZM126.3,53.77c2.88-2.91,4.6-6.58,6.73-10,1.41-2.25,3-4.41,4.2-6.74,2-3.9,4.35-7.62,6.64-11.36,2.45-4,4.76-8.06,7.11-12.11.81-1.38,1.55-2.8,2.38-4.29l.35,1.13a.1.1,0,0,0,0,.05.46.46,0,0,0,.05.72h0s0,.05,0,.07a11.3,11.3,0,0,0,0,1.16c.15,1.85.14,3.65-1.15,5.16h-.1s0,.05,0,.08c-3.53,5.66-7.11,11.29-10.58,17-3.7,6.08-7.85,11.9-11.14,18.24-.68,1.32-1.63,2.49-2.43,3.75a1,1,0,0,1-.83.43l-3.49.31A12.35,12.35,0,0,1,126.3,53.77Zm.6,5.17c-.91,2.39-1.45,2.69-4.59,2.57C123.42,59.11,123.94,58.82,126.9,58.94Zm-2.81,4.41c-.66,2.26-1.78,3.06-4.56,3.17C120.43,64.44,121.59,62.9,124.09,63.35ZM114.76,62c.21-1,.49-1.88,1.86-2s3,.06,4.58-.39c-.58,2-1.66,3-3.64,2.85a7.35,7.35,0,0,0-2.08.24C114.82,62.86,114.64,62.64,114.76,62Zm-1-1.47c-.63,3.06-3.08,3.3-5.45,3.65C108.67,61.78,110.43,60.6,113.81,60.57ZM111,65.36c-1,1.84-2.84,1.41-4.37,1.85C107.63,65.66,109.43,65.82,111,65.36Zm-3.4-3.59c-1.11,1.67-1.55,4-4.45,3.44C104.12,63.51,104.9,61.54,107.55,61.77Zm-3.15,4.48c-.51.68-1,.58-1.42.83l-.15-.37Zm-.25.86c-.32,1.06-1.06,1-1.62,1.14-.32,0-.6.41-1,.14.25-.46.66-.27,1-.34Zm-1.75-4.24c-1,2.79-1.88,3.42-5,3.67C98.32,64.18,99.84,62.78,102.4,62.87Zm-2.76,4.71c-1,1.27-2.57,1.28-4.09,2C96.24,67,98.32,68.2,99.64,67.58ZM96.73,64C96.05,65.12,95.5,66,95,67a1.07,1.07,0,0,1-.7.47l-6.08,1.5C89.4,64.65,93.17,64.82,96.73,64ZM82.58,68.91h.09l0-.11c1.46-2,2.62-2.45,4.47-2-.65,1.84-1.76,3.16-3.83,3.4h0l-1.56.25Zm-3.75.2h0v0c.56-.94,1.54-1.06,2.47-1.3a3.12,3.12,0,0,0-.46.43,1.6,1.6,0,0,1,.23,0c-.49.87-1,1.74-1.49,2.59s-1.42.63-2.33.91C77.85,70.74,78.34,69.92,78.83,69.11Zm-2.56.51c-.9,2.14-2.11,3.83-4.81,3.6C72.91,70.6,72.91,70.6,76.27,69.62Zm-8.66,1.86,0,0v0c1-.07,1.89-.59,3-.12-.76,1.22-1.13,2.75-2.73,3.2l-.09-.07h0l-.14.15L62.7,76.15A7.53,7.53,0,0,1,67.61,71.48Zm8.62-20c-2.24,2.62-3.67,5.67-5.52,8.46-2.21,3.35-4.31,6.78-6.4,10.21C63,72.23,62.46,72.57,59.65,73c1.94-3.35,4.07-6.41,6.18-9.48,1.29-1.88,1.91-4.14,3.5-5.84.22-.24.2-.7.27-1.07.34-1.71,1-3.14,3.05-3.43-.23-.52-.73-.16-.92-.46C73.32,50.29,72.8,50.59,76.23,51.45Zm-4.08-4.59c.37.32,1.23-.1,1.44.62.15.52-1.24,2.1-1.64,2-.58-.19-1.43,0-1.61-.85C70.22,48.06,71.55,46.8,72.15,46.86Zm-1.71,3.7c.41.14,1,.24.81.79s-.37,1.24-1.1,1.06a15.73,15.73,0,0,1-2.06-.22C68.61,51.13,69,50,70.44,50.56Zm-1.29-3.85c-.16,2.09-1.81,1.25-3,1.51C66.53,46.22,67.82,46.35,69.15,46.71Zm-1.81,3c-1.81,2.78-1.51,3-3.45,1.94C65.46,49.05,65.56,49,67.34,49.7Zm-2.08-3.79c-1.56,2.62-2,2.84-4.48,2.14C62.67,44.39,62.66,44.64,65.26,45.91Zm-2.44,3.77c-.91,2.78-3.26,2.23-5.38,2.34.78-.81,1.53-1.64,2.33-2.42C60.79,48.62,61.77,50,62.82,49.68Zm-2.31-4.5c-1.5.89-1.31,3.48-3.85,2.82C57.43,46.42,58.26,45.08,60.51,45.18ZM57.6,49.05c-.89,2.59-1.6,3.26-3.18,3.05-.36.19-.76.37-1.11.1-.14-.1.11-.33.3-.41a26.43,26.43,0,0,0,2-2.31C56.16,48.71,56.94,49.3,57.6,49.05Zm-4.74-4.2c1.08.14,2.29-.43,3.25.67-1.76,1.68-2.58,4-4.07,6,0-2.09.45-4.11.4-6.16C52.43,45.06,52.56,44.81,52.86,44.85Zm-7.19-21c1.69-2.33,3-4.94,4.49-7.42h0a1,1,0,0,1,.12.35,1,1,0,0,0,.08-.14.54.54,0,0,0,.07-.13c.25.14.21.41.19.67a.68.68,0,0,0,.06.47A14.61,14.61,0,0,0,51,20.13a1,1,0,0,0-.1.32,1.93,1.93,0,0,0,.25.24c-.06.32.07.64-.14,1-1.89,2.9-3.77,5.81-5.83,9C44.93,28.14,44.08,26,45.67,23.86Zm.54,19c-.33-3.06-.37-6.15-.85-9.2a4.32,4.32,0,0,1,0-2.52l.34,2.22h0a1.1,1.1,0,0,0,.64-.83c1-3.16,3.35-5.5,4.84-8.37l.06.05c0,.07,0,.14.05.23-.08.34-.13.59.12.7.32,2.31.4,6.58.4,6.68a4.61,4.61,0,0,1-.8,1.37,56,56,0,0,0-4.06,6.61,3.37,3.37,0,0,0-.51,1.75h0l0,.18a2,2,0,0,1,.11.7l.18,1.16C48.63,41,49.8,38.11,52,35.44c-.17,2.15.4,4-.89,5.71-1.43,1.91-2.32,4.21-4,6a3.35,3.35,0,0,1-.38.29A32.14,32.14,0,0,1,46.21,42.83ZM41.86,73A24.55,24.55,0,0,0,47.2,63a6.6,6.6,0,0,1,.92-2,34.51,34.51,0,0,0,2.73-5.39c.17.68-.22,1.31-.16,2-.41,3.39-2.11,6.19-3.91,9-2.79,4.35-5.42,8.81-8.1,13.24a31.93,31.93,0,0,1-4,5.64l-1,.78-.28-.41c-.35-.6-1.37-.93-1.27-1.52s.91-1.25,1.31-1.93C35.65,78.7,39.13,76.17,41.86,73ZM30.19,83.49h0l2.44-2,.64-.82a.91.91,0,0,1-.34,1.11L31.44,84a.93.93,0,0,0-.14-.22l-.06.08,0,0-.71-.29ZM30.4,87c1.44,1,1.6,1.43.87,2.26Zm.21,19.38c1,1.21.82,1.83-.56,2.59C30.23,108.1,30.4,107.3,30.61,106.33Zm-.55-3.49c.17.62.11,1-.39,1.31A2.15,2.15,0,0,1,30.06,102.84ZM29.62,107c.09-.55.11-.74.16-.92,0,0,.18,0,.18,0C30.07,106.3,30,106.5,29.62,107Zm-.19-2.36a.48.48,0,0,1,.22-.46,1.63,1.63,0,0,1,0,1.21l-.25.87A1.75,1.75,0,0,1,29.43,104.66Zm-.07,4.56h0a1.17,1.17,0,0,1-.19,1.16C28.84,109.93,29.24,109.59,29.36,109.22Zm-2.08,2.26c-.33-.33-.41-.45-.11-.7a2,2,0,0,0,.78-1.7c0-.61.46-.91,1-1.12-.24.82-.49,1.63-.71,2.45s.24.66.71.53C28.59,111.75,28.3,112.49,27.28,111.48Zm3.63,3.84a10.6,10.6,0,0,0-.71-.93c-1.52-1.52-1.52-1.52-.38-3.39l1.86-3.07.21.19.55.53a2.18,2.18,0,0,0,.65.9l.1.09h0c.91.81.67,1.54,0,2.39C32.36,113.05,31.68,114.18,30.91,115.32Zm1.8,2.28c-1.06-.89-1.17-1.77,0-2.77.34,1.37,1.4,1.63,2.73,1.55a13,13,0,0,1-1.57,2.54A10.66,10.66,0,0,0,32.71,117.6ZM36.77,123s0-.07,0-.11,0,.12,0,.19c-2.25-2.11-2.11-4.25-.13-6.45a10.48,10.48,0,0,0,.85-1.21l.1.15,0-.08c1.17.64,1.52,1.93,2.25,2.92.17.23-.16.43-.29.61Q38.16,121,36.77,123Zm2.2,4.13-.21-.19a3.14,3.14,0,0,1,.19-4.66,16.46,16.46,0,0,0,1.64-2.39A11.46,11.46,0,0,1,42,122.15c.22.33.05.53-.11.77C40.92,124.31,40,125.71,39,127.16Zm2-.47a32.66,32.66,0,0,0,1.89-2.76c1.34,1.76,1.35,1.86.26,3.53l-2.23,3.39C39.39,129.34,39.82,128,41,126.69Zm2.22,9.38c-.55-1.06-1.46-2.1-1.54-3.2s1.09-2,1.63-3.09c.43-.84,1-1.62,1.51-2.51.34.59.63,1.09.91,1.59l0,.08.54,1.09.09.17a1.69,1.69,0,0,1-.29,2c-.94,1.31-1.79,2.67-2.68,4C43.28,136.15,43.21,136.12,43.18,136.07Zm1.57,6.41a14.29,14.29,0,0,0-.84-3.88.82.82,0,0,1,.11-.82,56.38,56.38,0,0,1,3.34-4.9l.14.3c.26.6.52,1.2.79,1.79l.08.19a2.42,2.42,0,0,1-.51,2.7C46.81,139.26,45.89,140.76,44.75,142.48Zm1,6.48c-2-4.59,1.27-7.39,3.56-10.73.39,1.35.73,2.54,1.07,3.74a.9.9,0,0,1-.13.82c-1.42,2.11-2.84,4.23-4.35,6.5Zm4.69,3.81c-1,1.48-1.9,3.09-2.95,4.84-.66-1.79-.58-3.52-1.08-5.1a2.7,2.7,0,0,1,.61-2.69c1.32-1.74,2.5-3.57,3.81-5.45l.39,1.45v.05a7.37,7.37,0,0,0,.36,1.8c0,.07.05.13.07.19C52.18,149.74,51.46,151.26,50.4,152.77ZM76,113.34c-7,10.09-13.35,20.6-20.19,30.8-.25.38-.45.79-.67,1.18l0,0v0c-.89,1.38-1.79,2.77-2.78,4.28l-.46-2.06a.15.15,0,0,1,0-.07,3.27,3.27,0,0,0-.36-1.79c0-.06-.05-.12-.08-.19a4.41,4.41,0,0,1,1.2-3.82c1.08-1.36,2-2.81,3-4.23h0l.09,0a.19.19,0,0,0,0-.08c2-2.34,3.25-5.1,5-7.57,4-5.64,7.8-11.46,11.25-17.46,1.16-2,2.8-2.3,4.67-2.56a14.43,14.43,0,0,1,1.63,0C77.47,111.06,76.76,112.22,76,113.34Zm9.61-6.15c-.29.53-.82.45-1.3.52l-4.61.72.16-.75v0s0,0,0,0c-.85,1.26-2.27,1.06-3.49,1.19-.77.09-1.6.74-2.38,0-1.24.91-2.77.59-4.14,1a11.24,11.24,0,0,1-1.49.23c1-1.6,1.67-3.32,2.89-4.5a4.31,4.31,0,0,1,3.53-.86,3.93,3.93,0,0,0,1.18,0l.41-.06-.76,1.44-.09.07a1.54,1.54,0,0,0-.41.67,3.36,3.36,0,0,0-.68,1c-.06.07-.13.14-.19.22a1,1,0,0,0-.27.71.29.29,0,0,0,0,.09l.06-.1.32-.54a1.9,1.9,0,0,0,1-1.06l.47-.68,0-.07c1.15-2.34,3.37-2.66,5.6-3,.33,0,.7-.12.63.44-.07.07-.12.14-.18.21a7.12,7.12,0,0,0-1.08,1.82,2,2,0,0,0-.7,1L80,107c-.15.18-.3.36-.19.61l.23-.41h0c.62-.2.83-.75,1-1.28a5.21,5.21,0,0,0,1.17-1.66l.06-.1c1.52-2.25,3.74-1,5.9-1.43l-.71,1.38-.09.09a2,2,0,0,0-.61,1h0a1.27,1.27,0,0,0-.18.27l-.07.16a.93.93,0,0,0-.46.72,1.12,1.12,0,0,0-.46.59A1.42,1.42,0,0,1,85.59,107.19Zm12.7-1.76a.1.1,0,0,0-.05,0v0c-1.4.18-2.81.33-4.2.58-.39.06-.6,0-.75-.31a3.37,3.37,0,0,1-1.73.77c-1.59.22-3.15.58-4.73.85-.3,0-.7.35-.94-.15h0a.67.67,0,0,0,.25-.18,2.18,2.18,0,0,0,.26-.53.93.93,0,0,0,.42-.92,1.55,1.55,0,0,0,1-1l0-.07c1.32-2.21,3.55-2.66,5.84-3l2.23-.36c-.15,1-1.15,1.44-1.32,2.37l-.12.11a1.16,1.16,0,0,0-.4.92,1.29,1.29,0,0,0,.31-.16,1.06,1.06,0,0,0,.41-.56l0-.08a5.28,5.28,0,0,1,5.09-3.26,14.08,14.08,0,0,0,2.72-.55c-1.1,1.77-2.1,3.33-3,4.92C99.25,105.33,98.67,105.14,98.29,105.43Zm7.09-1.86a1,1,0,0,1-.67.51,24.76,24.76,0,0,1-4.58.89c1-1.69,2.05-3.31,3-4.93a.81.81,0,0,1,.58-.4l4.71-1C107.33,100.42,106.35,102,105.38,103.57Zm6.63-1.12-.05,0,0,0v0l-5.26,1.1c1.09-1.85,2.06-3.54,3.06-5.21a1.07,1.07,0,0,1,1.1-.4,7.39,7.39,0,0,0,2.8-.42l0,0,.07-.08c.62.19,1.49-.5,1.78.07s-.55,1.07-.88,1.62c-.49.81-1,1.58-1.52,2.39A2,2,0,0,1,112,102.45Zm6.2-1.49-1,.36-.07,0-.15,0a1.06,1.06,0,0,0-.06.19,13.69,13.69,0,0,1-3,.51l2.63-4.65c.17-.29.48-.26.77-.3a15.28,15.28,0,0,0,4.12-1.28.16.16,0,0,0,.07.07l0,0a.07.07,0,0,1,0,0l1.18-.19c-1,1.56-1.93,3-2.81,4.48C119.55,100.68,118.87,100.75,118.21,101Zm9.23-4.16a4.85,4.85,0,0,1-4,2.86l0,0-.13.06c-.71-.1-1.36.42-2.14.21a8.93,8.93,0,0,0,1-1.85c1-3.43,4-3.49,6.89-4.14l-1.54,2.8-.06.06Zm14.32-2.56a1.49,1.49,0,0,1-.84.7l-5.34,1.52c.27-.57.47-1,.67-1.45l-.26-.29h0a4.46,4.46,0,0,1-3.8,2.68c-1.48.25-2.94.67-4.51,1l.46-1.17h.06l0-.06h0c.55-1,1.14-2,1.64-3.06a2.16,2.16,0,0,1,1.66-1.29A37,37,0,0,0,138.15,91l.54,0c.7-1,1.86-1.11,2.87-1.54.78-.33,1.59-.61,2.39-.92l.1,0v-.07l1.2-.26-2.84,5-.09.08a2.71,2.71,0,0,0-.52.86A.61.61,0,0,1,141.76,94.24Zm5.7-1.18-5.26,1.4.08-.18.38-.76,0-.06c1-1.6,2.06-3.19,3.05-4.81a2.21,2.21,0,0,1,1.42-1.09c1.58-.38,3.06-1.11,4.9-1.4l-3.91,6.43A1,1,0,0,1,147.46,93.06Zm6.42-2c-1.6.52-3.2,1-5.13,1.6,1.48-2.38,2.76-4.46,4.06-6.52a1.19,1.19,0,0,1,.53-.49c1.55-.52,3.12-1,5-1.6-1.44,2.39-2.71,4.5-4,6.61A.87.87,0,0,1,153.88,91Zm2.27-.61s0,0-.06,0l0,.06-.93.11c1.27-2.15,2.51-4.19,3.69-6.27a2,2,0,0,1,1.19-.79c1.58-.65,3.32-.89,4.81-1.79a.43.43,0,0,0,0-.07,1.53,1.53,0,0,1,.19-.3l0,0c-.19-.46-.65,0-.86,0-1.33.27-2.63.63-4.15,1,1-1.71,1.56-3.51,3.74-3.76a1.59,1.59,0,0,0,1.28-.95c0-.05,0-.1.07-.16l-.13,0-2.25.51c.38-.76.38-.75,1.56-1.11.52-.15,1-.34,1.56-.52l.17.08a.83.83,0,0,0,.13-.18,26.32,26.32,0,0,0,2.78-.73,70.37,70.37,0,0,1-3.81,5.94,83.41,83.41,0,0,1-4.3,7.29c-.19.34-.61.37-1,.48A27.15,27.15,0,0,0,156.15,90.42Zm-4.22,20.75c-1.1.64-2,1.67-3.54,1.77.61-1.4,2-1.45,3-2h0a4.75,4.75,0,0,0,1.63-1.07C153,110.86,152.44,111,151.93,111.17Zm-3.74.5c-.54.46,0,.94,0,1.45h-1.38c.42-.63.76-1.15,1.1-1.68a1.76,1.76,0,0,1,.79-1.06c1.3-.62,2.58-1.28,3.9-1.87,1.64-.74,1.72-1.16.28-2.54h0c.39,1.82-1.5,1.46-2.12,2.33,0,.06-.48-.07-.64-.21-.32-.28,0-.54.15-.75,1.29-2.27,2.61-4.52,3.91-6.78a5.45,5.45,0,0,0,.25-.55l.11-.12a2.43,2.43,0,0,0,.55-1.14,2,2,0,0,1,.19-.22,6,6,0,0,0,.74-1.21.53.53,0,0,1,0-.13,1.38,1.38,0,0,0,.3-.62l0-.13a56.18,56.18,0,0,0,3.92-5.64c.26-.39.4-1,1.07-.81a.6.6,0,0,1,0,.42c-.09.28-.35.52-.42.82-1,1.61-2,3.18-2.05,5.17a9.28,9.28,0,0,0-.18,2.29v0a1.65,1.65,0,0,0-.06.49c.4,2.28-.89,3.92-1.9,5.78C154.83,108.54,151.65,110.22,148.19,111.67Zm8.24-4.86,2.12-3.59C159.06,105.84,159.06,105.84,156.43,106.81Zm2.72.68c-1.26.55-2.18,1.68-3.52,2.07a.57.57,0,0,1-.57-.2c-.15-.22.06-.4.16-.53.9-1.21,2.34-1.47,3.63-2C159.33,106.69,159.23,107.45,159.15,107.49Zm2.22-2.27a6.08,6.08,0,0,1-1.58,2.49C159.13,106,160.9,106,161.37,105.22Zm9.51,43.63a63.64,63.64,0,0,0-3.5,5.43l-.11,0-.11,0c-.13.07-.11.3-.2.41l0,0a32,32,0,0,1-.3-3.24,5.11,5.11,0,0,0-.2-1,2.25,2.25,0,0,1,.23-.82c1.77-2.21,3.15-4.68,4.75-7,0-.06.14-.07.33-.14C171.88,144.75,172.48,146.85,170.88,148.85Zm.48-9.3a1.12,1.12,0,0,1-.08.84l-5,7.83c-.09-.72-.14-1.18-.2-1.64a0,0,0,0,0,0,0h0a18.14,18.14,0,0,0-.32-2.86,1.11,1.11,0,0,0,.07-.16,1,1,0,0,0-.18-.22,3.09,3.09,0,0,1,.72-2.39c1.25-1.8,2.4-3.65,3.66-5.58A20.05,20.05,0,0,1,171.36,139.55Zm-2.47-4.83a52,52,0,0,0-3.25,5.11,1.29,1.29,0,0,1-.14-.36.3.3,0,0,0-.27-.2h0a.82.82,0,0,0,.08-1c0-.09.05-.18.08-.28,0-.32.1-.66-.17-.85a.68.68,0,0,0-.27-.12,3.33,3.33,0,0,1,.85-2.95,35.09,35.09,0,0,0,3.43-5.5C169.77,130.93,170.44,132.78,168.89,134.72Zm-.56-12.38c.55,2.46.88,4.53-.75,6.48a47.89,47.89,0,0,0-3,4.49,6.35,6.35,0,0,1,.82-6.37C166.44,125.55,167.28,124,168.33,122.34Zm-1.59,0a43.55,43.55,0,0,0-3.1,5c-.28-1.85-.52-3.38-.73-4.92a1,1,0,0,1,.17-.57c1.39-2.19,2.8-4.38,4.33-6.78C167.72,117.69,168.62,120,166.74,122.32Zm.36-9.84a1.83,1.83,0,0,1-.35,1.5c-1.39,2-2.76,4-4.23,6.14a28,28,0,0,1-.87-4.09,1.2,1.2,0,0,1,.21-.82c1.44-2.41,2.86-4.82,4.39-7.41C166.55,109.49,166.8,111,167.1,112.48ZM171,88.7a8.46,8.46,0,0,0-5,5.85,6.35,6.35,0,0,0-.09,4.4l-.24.13c-.95.6-1.22,1.72-1.82,2.58a2.42,2.42,0,0,0-.73,1.3v.34a.49.49,0,0,0,.16-.16.65.65,0,0,0,.13-.23c.42-.14.49-.63.71-1l1.65-2.24h0l.08,0,0,.69a49.3,49.3,0,0,0,.12,5.3,1.48,1.48,0,0,1-.19,1.17c-1.52,2.26-3,4.53-4.52,6.81-.38-.14-.33-.51-.46-.78v0a25.88,25.88,0,0,0-.78-3.38l.09-.14-.24-.28c.19-.61.75-.84,1.21-1.17,1-.73,2.14-1.29,3.11-2.1.46-.39,1-.73.94-1.32s-.71-1-1.33-1.11c-.24-.06-.48-.08-.72-.12h0a16,16,0,0,1-3.68,2.25c-.34-1.67-.65-3.29.42-4.8h0c-.21-.07-.43-.16-.48.18a1.58,1.58,0,0,1-.36-.81c0-.21,0-.42,0-.63s0-.38.06-.57a3.17,3.17,0,0,0,0-1,16.86,16.86,0,0,1,2-6.45h0l.63-1,.06-.09c.63-1.18,1.85-1.29,2.94-1.63.74-.23,1.49-.42,2.62-.73l-5.32,8.54-.09.12a4.91,4.91,0,0,0-1,1.7c0,.1-.06.21-.08.31.75-.36,1-1.1,1.43-1.75l.05-.07c1.95-2.69,3.72-5.49,5.43-8.34a2.51,2.51,0,0,1,1.51-1.17c1.4-.45,2.94-.62,4.09-1.69-1-.32-1.77.29-2.66.39-.48.06-1,.21-1.62.36,1.19-1.56,1.76-3.35,3.29-4.44h0l.24-.09a2.25,2.25,0,0,0,.94-.73A3.94,3.94,0,0,0,175.13,80a8.84,8.84,0,0,0,3.24-3.74l.47-.92,0,0-.09,0c-.37.17-.5.54-.66.88l0,0a.45.45,0,0,0-.36.26A15.49,15.49,0,0,1,175,79.77,4.34,4.34,0,0,0,173.37,81l-.26.08-.45.14q3.28-4.86,6.59-9.72c.05-.08.19-.11.36-.21.08,1.45-.68,2.67-.74,4,.93-.88,1-2.13,1.46-3.23.12-.31,0-1,.62-.65.39.23,1.24.43.75,1.27a.39.39,0,0,1-.06.11c-2.69,4.38-5.15,8.9-8,13.17A4.7,4.7,0,0,1,171,88.7Zm-7.51,15.23c.77,1.77-1.09,1.48-1.66,2.18C161.75,104.86,162.62,104.41,163.51,103.93ZM185,75.1a.86.86,0,0,1-.07.21,23.93,23.93,0,0,1-3.85,6.2c-.38.49-.78,1-1.17,1.45-1.55,1.89-3,3.85-5.68,4.3a1.16,1.16,0,0,1-1,.64l.7-.94,9.26-13.74,1.23,1c.13-.08.61.16.3-.33-.18-.29-.61-.43-.49-.89l.82.26A1.94,1.94,0,0,1,185,75.1Zm.39-2.09c-.6,0-1-.54-1.49-.75.17-.73.58-.56,1.1-.38C185.64,72.12,185.52,72.53,185.35,73Z"/></g></g></svg>