<svg xmlns="http://www.w3.org/2000/svg" viewBox="0 0 167.53 174.59"><defs><style>.cls-1{fill:#1d314f;}</style></defs><title>Asset 6</title><g id="Layer_2" data-name="Layer 2"><g id="Capa_1" data-name="Capa 1"><path class="cls-1" d="M1.88,104.72c.87-.45,1.71-.9,1.59-2.16-.22-2.43-.35-4.86-.53-7.28-.07-1-.12-2,1.12-2.36a.93.93,0,0,0,.54-1.11,3.34,3.34,0,0,1,.15-1.3c1-4.13,3.13-7.86,4.25-12,.48-1.74,2-3.07,2.29-5,.18-1.12,1.16-2.16,1.91-3.13.45-.58.36-.93-.09-1.33a7.69,7.69,0,0,0-1.23-1c-1.08-.62-2.19-1-2.59-2.52-.2-.73-.21-.94.31-1.19a25.82,25.82,0,0,1,7.09-2.4c1.51-.24,3.06-.78,4.59-.49a7.62,7.62,0,0,0,4.28-.31,18.06,18.06,0,0,1,7.57-1.5c1.62,0,1.89,0,2.26,1.67a16.28,16.28,0,0,0,1.25,3.33c2.84,6.2,6.08,12.21,8.49,18.61.45,1.2.83,2.43,1.3,3.8a16.22,16.22,0,0,0-4.2-1.19,2.31,2.31,0,0,0-2.52,1.28c-1.07,1.93-2.19,3.83-3.24,5.77-2.72,5-4.65,10.38-7.42,15.37-1.9,3.43-2.2,7.52-3.58,11.2-.39,1.06.05,2.68-1.21,3.08s-2.38-.45-3.55-.85a2.44,2.44,0,0,0-.24-.1.43.43,0,0,1-.37-.67,53.65,53.65,0,0,0,2.12-6.14c.16-.54.64-1.43.07-1.64s-.89.75-1.25,1.26a.42.42,0,0,0,0,.12c-.75,2.12-1.49,4.24-2.26,6.43l-4.55-2.08c.17-.76,1.09-.82,1.33-1.75.31-1.16.56-2.34.87-3.51.1-.38.28-1-.23-1.15s-.94.48-.93.87a6.41,6.41,0,0,1-.71,2.32c-.32.91-.32,2-1.22,2.71l-1.07-.74a22.58,22.58,0,0,1-5.56-4.79.31.31,0,0,0,0-.18c.19-.69,1-.9,1.26-1.54A54,54,0,0,1,10,106c1.42-2.75,1.85-5.86,3.31-8.6a6.28,6.28,0,0,0,.82-3c-2.39,1.84-2.43,4.73-3.75,7-1.09,1.84-1.46,4-2.39,6a23,23,0,0,0-1.66,5.26c-1.1-1.18-2.39-2.23-2.61-4,.86-1.48,1.7-3,2.57-4.44s1.21-3.51,2-5.15C9.24,97,10,95,10.88,93c1.79-3.7,2.56-7.79,4.34-11.5.79-1.66,1.28-3.46,1.92-5.2a.51.51,0,0,0-.27-.73c-.63,1.32-1.41,2.54-2.07,3.84-1.16,2.29-1.47,4.89-2.78,7.1-.26.46-.46,1-.69,1.42-1.4,3-2.2,6.13-3.52,9.11a89.43,89.43,0,0,0-4.43,11.43c-1.25-2.31-1.26-2.33-2.39-2.76a22.46,22.46,0,0,0,3.56,7.52L7.22,116a43.76,43.76,0,0,0,14.27,7.68,9,9,0,0,0,2.58.56c1.19,0,2.05-.17,2.07-1.68a7.09,7.09,0,0,1,.61-2.15c3.95-10.82,9.31-21,14.89-31a1.06,1.06,0,0,1,1.27-.58A46.83,46.83,0,0,1,50.36,90c-.56-1.46-1-2.72-1.52-3.91-4-8.88-8.68-17.48-12.25-26.57-.58-1.5-1.82-1.78-3.26-1.65A120.8,120.8,0,0,0,12,61.48a55.86,55.86,0,0,0-7.69,2.68c2.06,2,3.88,3.76,5.79,5.46.71.63.9,1.1.45,2a77.57,77.57,0,0,0-4.07,9.19c-1.18,3.33-3,6.43-3.74,9.9-.39,1.72-.44,3.53-1.26,5.13a9.74,9.74,0,0,0-.75,2.52C.45,99.87.65,101.48,0,103V104C.48,104.65,1.05,105.14,1.88,104.72Z"/><path class="cls-1" d="M25.79,41.56a3.17,3.17,0,0,0,1.7-3.13,28.13,28.13,0,0,1,1.39-7c.27-.91.54-1.67,1.68-1.72a1,1,0,0,0,1-.81,10,10,0,0,1,1.71-3.11c2-3.24,4.7-6,6.3-9.49A5.82,5.82,0,0,1,42,13.79a1.9,1.9,0,0,0,.95-.88c.91-2.31,2.89-3.2,5.07-3.77a2.47,2.47,0,0,0,1.42-.65C51,6.4,53.58,7,55.68,6a0,0,0,0,1,0,0A7.54,7.54,0,0,1,53,9.12c-.46.3-.72.78-1.12,1.11-1.86,1.59-3,3.75-4.72,5.5a40.33,40.33,0,0,0-5.82,8c-.25.18-.51.61-.31.69.53.22.48-.4.68-.68.39-.76,1.32-.78,1.84-1.36,1.63-1.82,2.89-3.91,4.56-5.7,3.57-3.82,6.74-8,10.58-11.61C60.25,3.62,61.91,3.22,64,2.82l.07.11c-4,4.93-8.25,9.24-11.51,14.35.61-.61,1.56-.66,2.1-1.26,1.77-2,3.51-4,5.2-6,2.15-2.6,4.24-5.25,6.35-7.88A6.23,6.23,0,0,1,68.8,2l.2.1.14.08a.36.36,0,0,1,0,.09.48.48,0,0,1,0,.22A128.17,128.17,0,0,0,57.68,17.51c.56-.78,1.62-.85,2.27-1.56.93-1,1.54-2.26,2.43-3.23,2-2.21,3.65-4.71,5.52-7,1.38-1.7,2.32-5,5.78-3.28a1,1,0,0,1,.16.13c-4.21,5.28-8.72,10.31-12,16.25.52-1,1.66-1.07,2.38-1.85,1-1.09,1.62-2.37,2.52-3.48a42.63,42.63,0,0,0,3.72-4.61c1.33-2.21,3.25-3.94,4.62-6.1a.86.86,0,0,1,.78-.42,32.8,32.8,0,0,0,4.42-.83,2.57,2.57,0,0,1,1.9.22h0A16.56,16.56,0,0,0,79.65,3.5c-2.28,1.56-3.71,4-5.75,5.76a13.38,13.38,0,0,0-2.76,3,28.38,28.38,0,0,1-3,4.06A57.71,57.71,0,0,0,61.6,26.39c.71-.77,1.7-1.21,2.33-2,1.8-2.17,3.15-4.66,5-6.84,3.94-4.75,7.46-9.88,12.22-13.9.76-.64,1.33-1.72,2.41-1.75,1.61,0,3.22.17,5,.29h0C82.21,7.65,76,12.93,71.33,19.65c.59-.52,1.45-.52,2-1,1.69-1.56,3-3.51,4.73-5,3.31-2.78,6-6.18,9.34-9,1.55-1.32,2.71-2,4.77-1.5s4,.59,6.23,1.25a.13.13,0,0,1,0,.06A15.49,15.49,0,0,0,93.26,6.6c-3,2.05-6.29,3.8-8.77,6.51-1.71,1.86-3.91,3.2-5.31,5.36-2.11,3.28-4.63,6.26-7,9.37-3.4,4.52-6,9.57-9.45,14.08A12.75,12.75,0,0,0,61,45.61a102,102,0,0,1-4.34,9.8c-.51,1.12-1.1,1.33-2.27.94A95.07,95.07,0,0,1,28.39,43a8.17,8.17,0,0,0-2.6-1.27c-1.33.17-.12.63,0,.72a57.52,57.52,0,0,0,11.44,8.11,99.12,99.12,0,0,0,16.88,7.27c2,.63,2.59.28,3.63-1.58C61.13,50.12,64.33,43.86,68.27,38c4.67-6.93,10.12-13.31,14.88-20.19a3.36,3.36,0,0,1,1.92-1.53c.08.94-1.32,1-1.22,2.11.9-.63,2.05-.59,2.59-1.61a1.37,1.37,0,0,1,.67-.42,2.37,2.37,0,0,1,.36-.09.76.76,0,0,1-.49.51c-.65,1.15-1.25,2.34-2,3.45-1,1.58-.72,2.82.45,4.28,7.26,9.14,15.56,17.42,22.25,27-.54.14-1.35.11-1.62.9a29.68,29.68,0,0,1-2.34,4.6c-.28.53-.18.79.38.92a14.73,14.73,0,0,0,4.06.61c.86,0,1.58.09,1.92,1a1,1,0,0,0,1.08.61c1.44-.23,2.81.27,4.21.36,2.44.15,4.75,1.12,7.2,1.1,2,0,4.08-.08,6,.92a.81.81,0,0,0,.63.1c1.35-.7,2.67-.18,4,0s2.7.07,3.09-1.36a14.82,14.82,0,0,1,2.5-5.4.61.61,0,0,0,.08-.25c.78-3.08,1.55-6.16,2.49-9.2a18.56,18.56,0,0,1,1.05-2.83c.89-1.8,1.7-3.64,2.63-5.43a12.6,12.6,0,0,0,1.1-7.24A17.12,17.12,0,0,0,141,32.68a14.08,14.08,0,0,1-3.65,1.14,1.91,1.91,0,0,1-2-.65c-1.9-2-3.79-4-5.79-5.85-3.31-3.1-6.61-6.21-9.84-9.39-1.86-1.82-3.33-4-5.46-5.57a38.55,38.55,0,0,1-4.07-3.21A3.74,3.74,0,0,0,106,8.39c-5.16,1.66-10,4.1-15.31,5.48l-1.54,1a1.77,1.77,0,0,1,0-.41,1.07,1.07,0,0,1,1.22-.89c2.09-1.77,4.73-2.49,7.14-3.66s5.21-1.6,7.59-3c.29-.17.53-.28.37-.64-1.71.06-3.23.82-4.84,1.16-.91.19-1.48,1-2.38,1.11A15.77,15.77,0,0,0,92,11a26.36,26.36,0,0,1-4,2.36,3.08,3.08,0,0,1,.38-.67,22.57,22.57,0,0,1,10.9-6.51l2.84-.68L105,4.79V4.45A83.78,83.78,0,0,0,80.85,0H72.31A62.25,62.25,0,0,0,52.15,4.69,28.89,28.89,0,0,0,38.86,14.86c-3.47,5-7.54,9.62-10.27,15.13a5.25,5.25,0,0,1-.8,1.22c-2.28,2.38-3,5.44-3.69,8.51C23.75,41.32,24.14,41.72,25.79,41.56ZM90.11,17.29a70.19,70.19,0,0,0,11.94,14.42,1.69,1.69,0,0,0-.5-1.89c-3.43-3.64-6.31-7.72-9.44-11.61-1.23-1.52-1.22-1.52.66-2.41.65-.31,1-.49,1.65.32a48.13,48.13,0,0,0,3.89,4.2c.19.2.41.63.72.33a.9.9,0,0,0,.09-.87,10.61,10.61,0,0,0-1.84-2.6C96.52,16.5,96.09,15.53,95,15A15.56,15.56,0,0,1,98,13.89c.36-.13.54.14.78.33.68.54,1.39,1,2.09,1.54.29.22.6.48.91.11a.72.72,0,0,0-.11-1,10.09,10.09,0,0,0-.93-.92c-.22-.18-.64-.22-.55-.61s.51-.26.79-.38a4.21,4.21,0,0,1,.63-.2c.78-.21,1.33-.84,2,.62.77,1.7,2.52,2.94,3.72,4.47a52,52,0,0,0,5.28,5.45c.3-1.46-.59-2.22-1.37-2.88a10.39,10.39,0,0,1-1.73-2,39.07,39.07,0,0,0-5.5-6.14c1.56-1,1.63-.89,3,.22s2.77,2.38,4.2,3.52c1.11.89,1.67,2.29,3,2.95.25.12.46.56.78.22s-.1-.59-.22-.79a5.28,5.28,0,0,0-1.55-1.91c-.73-.48-1-1.39-1.47-2.07l-.78-.54c-1.19-.6-2-1.71-3.1-2.42-.19-.11-.55-.27-.31-.59s.48-.16.66.06c.82,1,2.05,1.54,2.78,2.62a.83.83,0,0,1,.78.46h0c3.31,2.06,5.64,5.22,8.66,7.6a91,91,0,0,1,13.93,13.25,2.85,2.85,0,0,0,3.56.89c2-.81,4.07-1.6,6.27-2.45-1.38,4.58-2.82,9-4.45,13.29-1.69,4.5-3.08,9.12-5.29,13.43a1.61,1.61,0,0,1-1.92,1.1c-6.22-.84-12.5-1.22-18.64-2.67A37.19,37.19,0,0,0,110,58a4.92,4.92,0,0,1-1.53-.39c-.82-.39-1.44-.94-.58-1.88,1.74-1.92,1.78-3.65.18-5.88-2.11-2.94-3.92-6.08-6.35-8.81-3.74-4.2-7.33-8.53-11.06-12.73-1.36-1.52-2.69-3-3.93-4.66a1.89,1.89,0,0,1,.17-2.9,27.54,27.54,0,0,0,2.71,3.46c.22.27.55.76,1,.39a.88.88,0,0,0,0-1.11c-.77-1.07-1.49-2.19-2.35-3.18-.5-.57-.48-.93,0-1.38Z"/><path class="cls-1" d="M167.42,104.76a72,72,0,0,0-1.91-9c-1.65-5.88-4.57-11.28-6.49-17.06a12.06,12.06,0,0,0-1.78-3.24c-2.52-3.44-4.66-7.1-6.86-10.73-.91-1.5-1.28-1.61-2.91-.85-3.81,1.77-7.58,3.6-11.2,5.73-6,3.48-12.45,6.11-17.38,11.18,0,.06-.17,0-.25.08a2.36,2.36,0,0,0-1.06,3.76,41.69,41.69,0,0,0,5.53,6.61c.63.63,1.28,1.22.82,2.29A1.15,1.15,0,0,0,124.4,95a5.54,5.54,0,0,1,1.44,1.72c1.77,2.7,3.21,5.72,5.41,8s3,5.8,5.44,8a2.82,2.82,0,0,1,.45.8c1.37,2.41,1,5.5,2.94,7.68a.69.69,0,0,1,.08.52c-.28,1.85.54,3.45,1.08,5.12a8.3,8.3,0,0,1,1,2.49,28.44,28.44,0,0,1,1,11.5c-.39,2.81-1.64,5.41-1.86,8.25,0,.34-.29.78,0,1s.77,0,1.08-.28c.52-.48,1-1,1.54-1.47,3.26-3.1,5.7-6.88,8.22-10.52,4.48-6.46,7.47-13.79,11.29-20.64,1.13-2,1.9-4.27,3-6.34A9.74,9.74,0,0,0,167.42,104.76Zm-2.85,2.5c-2.83-6.71-4.84-13.58-8.82-19.53l-.33.13a26.6,26.6,0,0,0,1.64,4.85c1.12,2,1.81,4.16,2.72,6.23,1.46,3.3,2.84,6.63,4.27,9.94a1.47,1.47,0,0,1,0,1.38c-.51,1-1,2-1.47,3.07-.75-1.74-1.45-3.4-2.14-5.07-1-2.55-1.93-5.16-3.06-7.67a.43.43,0,0,0-.51-.3c-.4.09,0,.34-.1.51-.56,1.09,0,2.07.41,3a63.55,63.55,0,0,0,3.82,8.73c1.37,2.32.21,4-.55,5.85-.14.36-.32.7-.44,1-2.9-4.9-4.52-10.42-7-15.53a23.64,23.64,0,0,0,2.72,10c.94,2,2.19,3.9,3.14,5.94a2.21,2.21,0,0,1,0,2.22c-.57,1.08-1.06,2.21-1.63,3.41-2.65-5.67-4.23-11.68-7.3-17-.21-.29-.27-.73-.79-.78-.06.66.54,1.19.31,1.84a5.88,5.88,0,0,0,.85,2.68c1.08,1.75,1.46,3.74,2.29,5.57,1.21,2.67,2.35,5.38,3.6,8a1.61,1.61,0,0,1,0,1.81c-.72,1.11-1.35,2.28-2,3.42-.41-.13-.11-.67-.47-.83a21.75,21.75,0,0,0-1.61-5.4c-.73-1.32-.81-2.93-1.43-4.36-2-4.53-3.75-9.17-6.26-13.46-.33-.56-.29-1.3-.89-1.72-.14-.32-.16-.75-.67-.79-.11.38.15.58.31.8a21.93,21.93,0,0,0,2.47,7,51.25,51.25,0,0,1,2.93,6.86c.52,1.27,1,2.53,1.67,3.74,1.37,2.66,1.74,5.64,2.79,8.4a2.1,2.1,0,0,1-.23,2c-.89,1.32-1.73,2.67-2.72,4.21-.5-3.89-.47-7.65-1.56-11.22a27.31,27.31,0,0,0-4.34-9.3c.32.7,0,1.58.32,2.3a49.74,49.74,0,0,1,4,13.66c.27,1.72.21,3.51.57,5.25a1,1,0,0,1,0,.65c-1.39,2.18-2.57,4.51-4.73,6.57a40.16,40.16,0,0,0,.34-11.48,54.87,54.87,0,0,0-10-26.77c-3.57-4.91-6.62-10.15-10-15.14-2.17-3.16-3.43-6.93-5.14-10.41-.29-.6.23-.6.46-.72,5.57-2.89,10.8-6.39,16.35-9.32,3.79-2,7.52-4.12,11.43-5.87.9-.41,1.25-.32,1.72.52,5.07,9.17,9.83,18.47,12.71,28.64a81.57,81.57,0,0,1,2.23,9.26A12.25,12.25,0,0,1,164.57,107.26Z"/><path class="cls-1" d="M70,132c-2.9-.34-5.79-.73-8.7-.89-2.26-.13-4.49.31-6.75.13-3.52-.27-7-.88-10.59-.34a24.19,24.19,0,0,1-3.7.3,72.48,72.48,0,0,1-21-3.59c-5-1.54-8.77-5-12.32-8.68a2.44,2.44,0,0,1-1.38-1.59l.22,0a1.78,1.78,0,0,1,1.38,1.36,11.61,11.61,0,0,1,2.59,2c2.55,2,5.64,2.88,8.44,4.34a7.42,7.42,0,0,0,3.62.86c-2.57-2.29-5.89-2.67-8.41-4.57A10.27,10.27,0,0,0,11.49,120a12.72,12.72,0,0,1-4.58-3.71,9.4,9.4,0,0,1-2.66-2.67c-1-.22-1-1.62-2.06-1.73a9.43,9.43,0,0,0,1.73,3.52c.26.34.65.62.59,1.13-.62-.08-1.1-.73-1.81-.45.11.58.81.78.73,1.41-2.17,0-3.16,1.61-2.2,3.56a12,12,0,0,0,2,2.82c1.17,1.27,2.37,2.51,3.54,3.78.56.61,1,1.24.39,2.11a1.11,1.11,0,0,0,.19,1.46,5.63,5.63,0,0,1,.93,1.74c1.74,3.8,2.85,7.91,5.56,11.24a7.24,7.24,0,0,1,1.32,3.15,1.72,1.72,0,0,0,.68,1.23c1.74,1.16,2.47,3.07,3.37,4.8a4.11,4.11,0,0,0,2.26,2.26A4.45,4.45,0,0,1,23.64,157a4.53,4.53,0,0,0,2.42,1.53c1.8.59,3.63,1.11,5.4,1.81a8.68,8.68,0,0,0,3.6.69,22.35,22.35,0,0,1,7.51,1.37,14.4,14.4,0,0,0,7.37.65,8.57,8.57,0,0,1,2.77,0,67.42,67.42,0,0,0,16.37.48c.92-.11,1.1-.39,1.16-1.26.3-4.44-.67-8.9.18-13.34a2.61,2.61,0,0,0,0-.39,32.22,32.22,0,0,1,.2-6.07c.69-3.25.14-6.44.14-9.65C70.75,132.23,70.53,132,70,132Zm-2.36,29.82a135.43,135.43,0,0,1-21.87-1l-11.18-1.48a5.62,5.62,0,0,1-1.81-.39c-2.94-1.52-6.12-2.5-8.93-4.39,2.32.44,4.67.8,7,1.35a53.74,53.74,0,0,0,7.44,1.25c2.39.21,4.78,1,7.2.08a17.85,17.85,0,0,0-6.1-.95c-1.23.06-2.26-.61-3.44-.8-4.63-.74-9.24-1.68-13.86-2.53a1.77,1.77,0,0,1-1-.6,18.24,18.24,0,0,1-3.24-4.18l.28-.28c4.08,1,8,2.69,12.33,2.72a46.36,46.36,0,0,1,5.3.63,4.35,4.35,0,0,0-4.24-1.62,10.89,10.89,0,0,1-3.42-.55c-2.66-.54-5.28-1.24-7.93-1.85A6.89,6.89,0,0,0,18.6,147a2.42,2.42,0,0,1-2.52-1.62c-.41-1.14-1.26-2.1-1.66-3.27l0,0,0-.06c1-.41,1.27.81,2,1a46.59,46.59,0,0,1,5,1.23c2.95,1,6.07,1,9.07,1.71a14.09,14.09,0,0,0,3.19,0c-.09-.19-.1-.31-.15-.34-2.29-1.22-5-.82-7.33-1.75-1.84-.72-3.86-.65-5.76-1.29a34,34,0,0,0-5.26-1.07c-.26,0-1.11-.46-.85.51h0A26.15,26.15,0,0,1,12,137.54c.9-.19,1.08.8,1.71,1.05,1.9.77,4,.9,5.87,1.61,3.13,1.15,6.49,1.06,9.7,1.77a17.91,17.91,0,0,0,3.54,0A4.53,4.53,0,0,0,31,141c-2.07-.49-4.23-.38-6.29-1.09s-4.3-.76-6.4-1.43-4.26-1-6.39-1.47c-.78-.84-.9-2-1.39-3.19,1.25.42,2.18,1.08,3.29,1.36s2.47.58,3.73.8c2.32.42,4.64.85,7,1.35a18,18,0,0,0,3.43.34,88.09,88.09,0,0,1,9.84,1.2c.14,0,.3-.08.7-.2a14.15,14.15,0,0,0-7.35-1.77,27,27,0,0,1-4.8-.77c-4.62-.67-9.21-1.53-13.8-2.34-1.24-.22-2.42-.42-2.77-2a25.34,25.34,0,0,0-1.28-3c3,1.88,6.48,2.1,9.74,3s6.66,1.74,10.14,1.16a17.16,17.16,0,0,0-6-1.3,10.16,10.16,0,0,1-3.23-1.07,11.26,11.26,0,0,0-3-.78c-2.72-.31-5.12-1.59-7.68-2.35a1.55,1.55,0,0,1-1.2-1.15c-.25-1.59-1.24-2.81-2-4.14a10.89,10.89,0,0,1-1.46-4.61c.72.81,1.27,1.42,1.8,2,5.3,6.3,12.07,9.8,20.16,11.26a168.23,168.23,0,0,0,28,2.52c4.37.06,8.74.59,13.11.85,1,.06,1.25.39,1.28,1.36.22,6.54-.23,13.09.27,19.63.14,1.8.14,3.62.25,5.43C68.66,161.48,68.49,161.77,67.62,161.79Z"/><path class="cls-1" d="M18.42,92.67c-1.26,2.42-1.68,5.16-2.9,7.61-1.07,2.13-1.35,4.54-2.39,6.69-1.27,2.64-1.91,5.52-3.09,8.23.71-.51,1.55-1,1.85-1.72,1.36-3.16,2.48-6.42,3.84-9.59s1.69-6.39,3.18-9.37A21.61,21.61,0,0,0,20,90.93l-.3-.06A15.91,15.91,0,0,0,18.42,92.67Z"/><path class="cls-1" d="M140.08,143.88l-.06-.13A.2.2,0,0,0,140.08,143.88Z"/><path class="cls-1" d="M141.25,142.37c1.39-4.12,1.08-8.31.72-12.52l-1-2.7c-.72-.43-.73-1.37-1.35-1.86-.15-.27-.13-.75-.54-.72s-.14.48-.26.72a2.81,2.81,0,0,0-3.3-.87,62.59,62.59,0,0,1-6.6,2q-14.76,2.62-29.51,5.29a.93.93,0,0,1-1.18-.7,22.59,22.59,0,0,0-2-4c-.59-.9-1-1.28-2-1.18a2,2,0,0,0-1.93,1.66c-.67,2.34-1.43,4.65-2.1,7-.24.84-.52,1.49-1.55,1.49a1,1,0,0,0-1,.92,5.1,5.1,0,0,1-.8,1.66c-2,3.44-4.84,6.34-6.32,10.09a6,6,0,0,1-1.08,1.51c-1,1.18-.82,1.9.66,2.48a7.14,7.14,0,0,1,3.58,3.72,4.47,4.47,0,0,0,1.85,2.14A2.61,2.61,0,0,1,87.09,160a4.25,4.25,0,0,0,1.64,2.34,49.85,49.85,0,0,1,10.36,10.9,3.24,3.24,0,0,0,1.27,1.32,12.28,12.28,0,0,0,.34-7c-.19-.82,0-1,.68-1.14a4.72,4.72,0,0,1,1.18-.11c3.06.34,6.06-.37,9.08-.59,2.09-.15,4.12-1,6.21-1.34,4.51-.74,8.36-3,12.13-5.33a65.41,65.41,0,0,0,5.41-4,8.19,8.19,0,0,0,3.15-5.17c.21-1.09.4-2.18.59-3.26l.24-1.33a3.1,3.1,0,0,1,.46-1.93l.07-.73c.19-.43-.44-1.16.49-1.31a2.3,2.3,0,0,0,0,.26,4.77,4.77,0,0,1-.19,1.88h0l-.09.46a6.94,6.94,0,0,1-.47,1.91h0l-.06,1h0c.16,1-.48,2.07,0,3.19a14.55,14.55,0,0,0,1.5-5A24.46,24.46,0,0,1,141.25,142.37Zm-15.32,3.82c1-.47,2.28-.56,3.36-1,2.63-1.1,5.21-2.3,7.89-3.49a20.54,20.54,0,0,1-.68,3.95c-.06.31-.27.36-.52.48a56.23,56.23,0,0,1-9.67,3.37c-.21,0-.52,0-.48.28.07.45.49.18.74.26.69.83,1.53.37,2.28.19a28.13,28.13,0,0,0,7.22-3,9.92,9.92,0,0,1-.55,3.06c-.09.4-.44.41-.77.56a80.5,80.5,0,0,1-11.22,3.8,4,4,0,0,0-.72.39c1.76.6,1.75.59,5.42-.33a13.61,13.61,0,0,0,4.6-1.93,5.18,5.18,0,0,1,1.53-.45c0,.6-.44.77-.76,1-1.36,1.07-2.81,2-4.06,3.21-4,3.78-8.79,5.64-14.1,6.53a101.06,101.06,0,0,1-15.79,1.84c-1,0-1.09.39-1.06,1.18,0,1.13,0,2.26,0,3.75-2.17-2.47-4-4.71-6-6.75-3.76-3.87-7-8.23-11.19-11.69-.52-.43-.5-.78-.15-1.33a91.08,91.08,0,0,1,6.5-9.54,3.25,3.25,0,0,0,.53-.76c1.81-4.15,5.22-7.32,7.08-11.45.09-.2.16-.41.49-.47a29.14,29.14,0,0,0,1.45,4.74c.27.67.57.93,1.37.78,6.35-1.16,12.72-2.19,19.06-3.41,5.86-1.12,11.76-2,17.64-3a1.85,1.85,0,0,1,1.89,2.08c0,.37-.29.37-.56.4a13.1,13.1,0,0,0-5,1.5c-.92.5-2,.37-3.06.68a79.62,79.62,0,0,1-11.94,2.49c-.29,0-.64,0-.76.36,2.34.61,4.58.21,7-.13,4.07-.57,7.74-2.24,11.64-3.23a9.33,9.33,0,0,0,2-.94c.71-.38,1-.2,1.12.59a39.88,39.88,0,0,1,.26,4.37h0c-3.61.54-6.87,2.14-10.27,3.33,3.78,1,6.7-1.45,10-2.45.29.49-.08,1,.06,1.53.12,2.37-1,3.34-3.3,4.19-4.09,1.54-8.2,3-12.33,4.36-.56.18-1.23.05-1.7.64A7.54,7.54,0,0,0,125.93,146.19ZM140,130.49a2,2,0,0,1,0-.24,5.56,5.56,0,0,1-.09-2.37,1.17,1.17,0,0,1,.2.31,5.83,5.83,0,0,1,.27,1.37c.77,2,.6,4,.55,6.1l0,0,0,0V137l-.12.67-.12.64c-.5-.47-.11-1-.19-1.56l0-.55a39.7,39.7,0,0,1-.33-5.23h0Zm.56,10a.52.52,0,0,1-.15.18h0c-.37-.49-.61-1,.23-1.22a.71.71,0,0,0,0,.25A1.61,1.61,0,0,1,140.57,140.46Z"/><path class="cls-1" d="M30,95.39c.84-2.15,1.38-4.43,2.11-6.83-1.75,1-5.24,10.4-5,12.88C29.18,100,29.18,97.46,30,95.39Z"/><path class="cls-1" d="M18.08,108.61a3.74,3.74,0,0,0,2-2c.92-2.57,1.81-5.15,2.69-7.74.1-.29.56-.67.11-.89-.28-.14-.74.14-1,.47a5.68,5.68,0,0,0-.67,1.14c-.83,2.13-1.62,4.28-2.44,6.41A10.06,10.06,0,0,0,18.08,108.61Z"/><path class="cls-1" d="M25.61,105.11c-.27-.21-.73-.14-.81.14-.23.91-.88,1.77-.5,2.75.15.4.76.15.93,0,.52-.44.6-1.11.54-2.08C25.78,105.83,26,105.39,25.61,105.11Z"/><path class="cls-1" d="M52.88,48.84a32.56,32.56,0,0,0,2.55-3.27c1.49-2.08,2.4-4.44,3.7-6.61.16-.27.68-.73.24-1s-.85.21-1.13.57c-.53.69-.78,1.67-1.3,2.22-1.26,1.35-1.82,3.09-2.9,4.53C53.34,46.23,52.36,47.34,52.88,48.84Z"/><path class="cls-1" d="M53.78,34.16c2.11-1,2.38-3.32,3.3-5.11s1.85-3.74,2.8-5.6C57.79,24.16,53.7,31.6,53.78,34.16Z"/><path class="cls-1" d="M55.45,22.69a.57.57,0,0,0-.72.14,18.42,18.42,0,0,0-1.81,3.32c-.09.24-.07.69.14.7a1.4,1.4,0,0,0,1-.33,9.36,9.36,0,0,0,1.52-3.26C55.64,23.05,55.7,22.78,55.45,22.69Z"/><path class="cls-1" d="M47.23,26.32c.2-.05.5,0,.59-.17A10.83,10.83,0,0,0,49.17,23a.4.4,0,0,0-.29-.52.59.59,0,0,0-.7.22,10.55,10.55,0,0,0-1.53,3.1C46.54,26.19,46.71,26.45,47.23,26.32Z"/><path class="cls-1" d="M50.3,46.17a1.74,1.74,0,0,0,.53-.07,6.06,6.06,0,0,0,1.08-2.83.5.5,0,0,0-.93-.16,6.57,6.57,0,0,0-1.24,2.51C49.66,46,49.81,46.33,50.3,46.17Z"/><path class="cls-1" d="M62.56,33.31a2,2,0,0,0,.51-.09c.52-.28,1.11-2.5.77-2.87a.57.57,0,0,0-.72-.13A8.54,8.54,0,0,0,62,32.93C62,33.25,62.27,33.31,62.56,33.31Z"/><path class="cls-1" d="M37.8,31.66c.19-.72.33-1.44.46-2s-.06-.6-.34-.71a.48.48,0,0,0-.66.26,16.4,16.4,0,0,0-.79,2.16c-.08.3-.06.83.38.86A.85.85,0,0,0,37.8,31.66Z"/><path class="cls-1" d="M67.27,26.52a7.67,7.67,0,0,0,1-2.08.48.48,0,0,0-.34-.51.67.67,0,0,0-.81.23c-.31.51-.62,1-.91,1.54-.17.29-.43.68,0,.88S67,26.92,67.27,26.52Z"/><path class="cls-1" d="M59.07,30.53c-.91.34-1,1.36-1.36,2.14-.19.45.41.55.71.52,1.12-.12.91-1.18,1.22-1.85C59.7,30.87,59.52,30.37,59.07,30.53Z"/><path class="cls-1" d="M53.94,38c-.22.42.12.59.55.62,1.28.09.89-1,1.2-1.66.06-.37,0-.86-.49-.8C54.18,36.28,54.28,37.33,53.94,38Z"/><path class="cls-1" d="M143.77,116.24c.15.18.3.35.44.53A1.34,1.34,0,0,0,143.77,116.24Z"/><path class="cls-1" d="M146.33,99.69c-.78-1.59-1.59-3.26-3.33-4.2.24.55-.32,1.07.09,1.63a46.31,46.31,0,0,1,3.17,4.88c.13.22.24.83.7.55.31-.19.31-.63.27-1.06C147.15,100.75,146.61,100.27,146.33,99.69Z"/><path class="cls-1" d="M133.19,92.38c-.24-.27-.61-.78-.93-.48a1.06,1.06,0,0,0-.1,1.3c.81,1.22,1.64,2.42,2.48,3.62.14.19.31.51.62.33s.37-.38.31-.91A13,13,0,0,0,133.19,92.38Z"/><path class="cls-1" d="M151.67,91.62a.93.93,0,0,0-.3,1.17,13,13,0,0,0,1.83,2.47.49.49,0,0,0,.57.21c.28-.12.29-.41.38-.71-.51-.89-1-1.81-1.59-2.71C152.37,91.75,152.09,91.25,151.67,91.62Z"/><path class="cls-1" d="M137.1,101.37c-.25.22-.6.55-.39,1a5,5,0,0,0,1.76,1.87c.41.3.71,0,.86-.59l-1.47-2C137.67,101.39,137.34,101.15,137.1,101.37Z"/><path class="cls-1" d="M138,92.63c.18-.45-1.24-2.59-1.85-2.63-.29.25-.76.57-.55,1.07a4.75,4.75,0,0,0,1.69,1.9C137.66,93.22,137.89,92.94,138,92.63Z"/><path class="cls-1" d="M149.36,96.22c-.46-.45-.7,0-.87.34-.29.59,1.06,2.62,1.82,2.61.25-.13.62-.36.44-.75A7,7,0,0,0,149.36,96.22Z"/><path class="cls-1" d="M140.63,100.3c.29,0,.43-.25.48-.52a5,5,0,0,0-1.19-2.07c-.26-.25-.51,0-.75.25-.54.52-.06.94.17,1.25S139.89,100.33,140.63,100.3Z"/><path class="cls-1" d="M140.64,107.73c-.39.2-.72.43-.77.84s1.17,1.78,1.57,1.73.66-.3.54-.61A3.56,3.56,0,0,0,140.64,107.73Z"/><path class="cls-1" d="M57.29,158.71c-.72-.36-1.51,0-2.26-.06-1.65-.1-3.33-.78-5.3,0,.68.3.82.87,1.42.93a14.93,14.93,0,0,0,3.2.38,10.15,10.15,0,0,0,3-.37c.23-.1.58-.12.57-.45S57.52,158.82,57.29,158.71Z"/><path class="cls-1" d="M44.89,152.08c-1.18-.15-2.36-.26-3.54-.35-.43,0-1.13-.2-1.09.45a1.09,1.09,0,0,0,1.21.95c1,0,2,.33,3,.06.43,0,1,.33,1.24-.27S45.36,152.13,44.89,152.08Z"/><path class="cls-1" d="M50.48,136.39a7.53,7.53,0,0,0,1-.13c.85.51,1.6-.4,2.48-.29a.58.58,0,0,0,.67-.51c0-.42-.31-.63-.71-.61-1.17.06-2.33.14-3.5.23-.32,0-.88,0-.75.44S49.93,136.4,50.48,136.39Z"/><path class="cls-1" d="M42.49,148.4c.35,0,.76-.07.81-.48a.67.67,0,0,0-.74-.74c-.61.1-1.19-.31-1.74,0a2.52,2.52,0,0,0-.69-.09c-.48.07-1.24,0-1.2.62s.56.87,1.28.76A17.26,17.26,0,0,1,42.49,148.4Z"/><path class="cls-1" d="M41.54,143.2c-.1-.7-.71-.62-1-.5-.89.05-1.53.07-2.17.14-.36,0-.93,0-.83.56s.3.93,1,.8,1.29.07,1.91-.28C40.82,143.69,41.65,144,41.54,143.2Z"/><path class="cls-1" d="M42.5,136a5,5,0,0,0,1.66-.31c.37-.16.84-.16.74-.71a.57.57,0,0,0-.82-.5c-.66.05-1.14.08-1.62.14s-.88.1-.76.66C41.78,135.61,42,136,42.5,136Z"/><path class="cls-1" d="M45.71,142.88l-.63.08c-.43,0-1,0-.92.63a.83.83,0,0,0,1.09.79,4.22,4.22,0,0,0,1-.31c.38-.17.94-.13.79-.78S46.35,142.91,45.71,142.88Z"/><path class="cls-1" d="M35.22,134.17c-.09,0-.2-.07-.26,0-.3.19-.92.11-.79.67s.23,1,1,.78,2,0,1.91-1S35.87,134.24,35.22,134.17Z"/><path class="cls-1" d="M52.29,139.56c-.59.23-1.55-.33-1.74.68-.08.47.27.94,1.22.67.23-.29,1.25.16,1.34-.84C53.15,139.6,52.79,139.36,52.29,139.56Z"/><path class="cls-1" d="M44,139.45c0,.46.26,1,.92.78s1.3-.06,1.39-.87-.47-.57-1-.53C44.93,139.07,44,138.44,44,139.45Z"/><path class="cls-1" d="M103.43,20.52c.4.11.62-.23.78-.61-.3-.46-.59-1-1.17-1.11a.79.79,0,0,0-.81.71C102.28,20.14,102.9,20.37,103.43,20.52Z"/><path class="cls-1" d="M100.81,22.85a.81.81,0,0,0-.66.86c.06.46.6.46.95.46a.67.67,0,0,0,.72-.65C101.53,23.24,101.31,22.77,100.81,22.85Z"/><path class="cls-1" d="M121.6,140.89a.59.59,0,0,0-.68-.48,15.67,15.67,0,0,0-1.94.12c-.44.07-1.24-.2-1.14.64.07.57.47,1.09,1.26.68.72.35,1.31-.29,2-.31A.51.51,0,0,0,121.6,140.89Z"/><path class="cls-1" d="M117.37,154.8c-.7.19-1.7-.27-2,.78-.1.33.13.9,1.15.68.46,0,1.42,0,1.71-1C118.34,154.87,117.84,154.68,117.37,154.8Z"/></g></g></svg>