<svg xmlns="http://www.w3.org/2000/svg" viewBox="0 0 167.44 187.97"><defs><style>.cls-1{fill:#042d4f;}</style></defs><title>Asset 13</title><g id="Layer_2" data-name="Layer 2"><g id="Capa_1" data-name="Capa 1"><path class="cls-1" d="M150.57,147.05l-.12-.35.06.17A1.27,1.27,0,0,0,150.57,147.05Z"/><path class="cls-1" d="M80,111.1h.39Q80.16,110.82,80,111.1Z"/><path class="cls-1" d="M90.55,108.33c-.56.44-.3,1-.2,1.51C90.46,109.35,90.2,108.8,90.55,108.33Z"/><path class="cls-1" d="M73.07,89.55c-.56.33-.27.9-.28,1.36-.05,2.48-.05,5-.07,7.46h0v5.23A7.84,7.84,0,0,0,73,98.35h0c.24-2.43.49-4.85.7-7.27,0-.47.4-1,0-1.41A.66.66,0,0,0,73.07,89.55Z"/><path class="cls-1" d="M59.54,25.92c.55.77.93,1.7,2,2.09-.35-.72-.67-1.45-1-2.16A15.35,15.35,0,0,0,58.85,23c-.19-.25-.47-.58-.81-.36s-.16.63,0,.9C58.51,24.33,59,25.15,59.54,25.92Z"/><path class="cls-1" d="M59.5,32c-.23-.19-.49-.54-.84-.23s-.06.55.09.78c.43.69.88,1.38,1.38,2a15.41,15.41,0,0,0,2.13,2.55l.32-.21C62,36,61.48,35,60.9,34A8,8,0,0,0,59.5,32Z"/><path class="cls-1" d="M53.18,120.6a25.15,25.15,0,0,0-1.11,3.78c0,.37-.07.84.37.93s.51-.34.6-.66a18,18,0,0,0,.87-5.56C53.38,119.5,53.35,120.08,53.18,120.6Z"/><path class="cls-1" d="M100.29,130.54v0h0Z"/><path class="cls-1" d="M100.89,131.1a1.21,1.21,0,0,0-.6-.56,19.12,19.12,0,0,0,2.14,6.78A18.58,18.58,0,0,0,100.89,131.1Z"/><path class="cls-1" d="M86.17,84.15c-.08-.41-.1-1-.56-1s-.49.55-.5.94c0,.89,0,1.79,0,2.69l.47.07C85.4,85.86,86.38,85.2,86.17,84.15Z"/><path class="cls-1" d="M63.67,33.13c.25-.08.24-.33.2-.52a4.36,4.36,0,0,0-1.61-2.47,10.43,10.43,0,0,0,1,2.68C63.32,33,63.41,33.22,63.67,33.13Z"/><path class="cls-1" d="M56.14,125.54a6.37,6.37,0,0,0,1.07-3.35C55.93,123.28,56.11,124.44,56.14,125.54Z"/><path class="cls-1" d="M54.54,116.81a4.74,4.74,0,0,0,1.11-3.32A4,4,0,0,0,54.54,116.81Z"/><path class="cls-1" d="M84.1,75.12a9.18,9.18,0,0,0,.29,3.34A3.06,3.06,0,0,0,84.1,75.12Z"/><path class="cls-1" d="M63.5,39.68c.36.7.7,1.39,1.06,2.06a.66.66,0,0,0,.36.24s.19-.15.22-.25C65.36,41.07,64.37,39.8,63.5,39.68Z"/><path class="cls-1" d="M86.11,88.13c-1.2.2-.65,1-.56,1.65.14,1,.51.46.83.07.23-.19.5.9.55.09a4.79,4.79,0,0,0-.41-3A1.35,1.35,0,0,0,86.11,88.13Z"/><path class="cls-1" d="M58.63,101.76a10.28,10.28,0,0,0-1.1,3.18A2.9,2.9,0,0,0,58.63,101.76Z"/><path class="cls-1" d="M144.48,94.6h0v0h0l0,0Z"/><path class="cls-1" d="M142.66,92.32h0c-.15-.4-.25-.84-.77-.93a11.85,11.85,0,0,0-1.79-3.48,9,9,0,0,0-1.39-2.45c-.29-.52-.11-1.25-.75-1.6-.26-.14-.5-.38-.77-.17s0,.51.06.65c.87,1.15,1,2.8,2.42,3.58-.22,1.68.89,2.58,2,3.46-.1.75,0,1.36.92,1.5-.32,1.56,1,1.38,1.81,1.71C144.15,93.6,143,93.29,142.66,92.32Z"/><path class="cls-1" d="M56.48,109.51a3,3,0,0,0-.65,2.64C56.65,111.28,57,110.56,56.48,109.51Z"/><path class="cls-1" d="M58.54,113.5a3.83,3.83,0,0,0,1-3.25A6.58,6.58,0,0,0,58.54,113.5Z"/><path class="cls-1" d="M69.4,44a6.44,6.44,0,0,0-1.15-3.27A4,4,0,0,0,69.4,44Z"/><path class="cls-1" d="M66.1,43.37A1.58,1.58,0,0,0,66.47,45c.19.29.49.69.87.4s0-.61-.18-.86C66.91,44.05,66.72,43.51,66.1,43.37Z"/><path class="cls-1" d="M57.68,118.5c-.53-.16-.45.44-.56.73a2.44,2.44,0,0,0,0,1.54c.68-.24.72-.82.87-1.3S58.07,118.62,57.68,118.5Z"/><path class="cls-1" d="M85,79.3c-.54,1.23-.48,1.63.33,2.5A3,3,0,0,0,85,79.3Z"/><path class="cls-1" d="M65.9,36.88a2.88,2.88,0,0,0-1.14-2.34A1.85,1.85,0,0,0,65.9,36.88Z"/><path class="cls-1" d="M83.79,90.37A2.59,2.59,0,0,0,83.55,88C83,89.07,83,89.54,83.79,90.37Z"/><path class="cls-1" d="M83,83.69a6.8,6.8,0,0,0,.09,3.14A3.64,3.64,0,0,0,83,83.69Z"/><path class="cls-1" d="M100.29,130.51l0,0v0Z"/><path class="cls-1" d="M99.38,127.75a3.47,3.47,0,0,0,.89,2.74A2.88,2.88,0,0,0,99.38,127.75Z"/><path class="cls-1" d="M71.37,52.46a6.28,6.28,0,0,0-1.51-3.09A4.26,4.26,0,0,0,71.37,52.46Z"/><path class="cls-1" d="M68,46.42a2.44,2.44,0,0,0,1.16,2.35A2.36,2.36,0,0,0,68,46.42Z"/><path class="cls-1" d="M51.1,26.26c.14,1.11.36,1.8,1.28,2.24A2.37,2.37,0,0,0,51.1,26.26Z"/><path class="cls-1" d="M57.85,117.13a2.39,2.39,0,0,0,.75-2.51A2.39,2.39,0,0,0,57.85,117.13Z"/><path class="cls-1" d="M34.89,73.48c.31-1.1.66-2.21,0-3.31Z"/><path class="cls-1" d="M79.51,89.12c.56-1,.56-1.36-.07-2.59A3.71,3.71,0,0,0,79.51,89.12Z"/><path class="cls-1" d="M56.81,108.46a2.73,2.73,0,0,0,.85-2.53A2.38,2.38,0,0,0,56.81,108.46Z"/><path class="cls-1" d="M67.43,40.05c.09-1.14,0-1.23-1-2.13C66.49,39.24,66.55,39.38,67.43,40.05Z"/><path class="cls-1" d="M135.2,91.12c.42-.22,0-.66-.19-1a3.69,3.69,0,0,0-.61-.77,10.78,10.78,0,0,0-1.53-3.73h0c-.69-2.45-1.51-3.83-2.33-3.91.07.88,1,1.67.93,2.27-.11,1.08.48,1.29,1.09,1.68A4.26,4.26,0,0,0,134,89.45c.08.32.14.64.24,1S134.67,91.39,135.2,91.12Z"/><path class="cls-1" d="M35.84,88.46a1.48,1.48,0,0,0-.41,1.69,1.07,1.07,0,0,0,.82-1.35C36.21,88.62,36,88.32,35.84,88.46Z"/><path class="cls-1" d="M79.12,79c0-.21-.1-.49-.3-.37s-.11.56-.12.86A4.29,4.29,0,0,0,79,81.67,5.27,5.27,0,0,0,79.12,79Z"/><path class="cls-1" d="M54.77,25.61a2.32,2.32,0,0,0,1.55,2A3.15,3.15,0,0,0,54.77,25.61Z"/><path class="cls-1" d="M79.28,82.91a2.67,2.67,0,0,0,0,2.61A3.61,3.61,0,0,0,79.28,82.91Z"/><path class="cls-1" d="M36.56,85.19a2,2,0,0,0,.86-2.39A5,5,0,0,0,36.56,85.19Z"/><path class="cls-1" d="M57.79,30c-.37-1.38-.42-1.43-1.2-1.53A1.73,1.73,0,0,0,57.79,30Z"/><path class="cls-1" d="M36.16,87.61a1.42,1.42,0,0,0,.59-1.77A1.29,1.29,0,0,0,36.16,87.61Z"/><path class="cls-1" d="M51.09,129.22c.79-.87.79-.87.48-2A2.43,2.43,0,0,0,51.09,129.22Z"/><path class="cls-1" d="M99.3,127.18a2,2,0,0,0-.75-2.09C98.61,126,98.54,126.66,99.3,127.18Z"/><path class="cls-1" d="M137,93.25c-.48-.15-.21-.69-.55-.86l-.62-.74c-.23-.27-.55-.52-.81-.16s-.06.68.35.87.71.37,1.07.55c0,.17,0,.33,0,.49a.76.76,0,0,0,.68.74c.1,0,.29,0,.3-.11A.66.66,0,0,0,137,93.25Z"/><path class="cls-1" d="M144.74,94.83a2,2,0,0,0-.28-.21c-.62.5-.19.8.26,1,.14.08.41.38.56.1C145.55,95.23,145,95.08,144.74,94.83Z"/><path class="cls-1" d="M128.5,73.4a.84.84,0,0,0,.33-.46c.08-.27-.19-.15-.3-.22a.39.39,0,0,0-.35.41C128.19,73.32,128.38,73.46,128.5,73.4Z"/><path class="cls-1" d="M54.6,101.9c-.09.57-.19.9.06,1.24A1.51,1.51,0,0,0,54.6,101.9Z"/><path class="cls-1" d="M96.79,134c-.27.5.14.8.47,1.38.23-.67.2-1.06-.16-1.39A.31.31,0,0,0,96.79,134Z"/><path class="cls-1" d="M167.12,159.3c-2.71-8.34-5.33-16.7-7.68-25.15-.87-3.14-2.05-6.22-2.39-9.49-.44-4.19.06-8.36.43-12.52.4-4.36.57-8.65-1-12.88-1-2.71-1.62-5.55-2.53-8.3a13.93,13.93,0,0,1-.6-6c.39-3.5.87-7,1.6-10.44a30.17,30.17,0,0,0-1.65-17.42,5,5,0,0,0-2.62-3.18c-4.53-1.78-9-3.76-13.87-4.56a32.09,32.09,0,0,1-11.17-4.24c-2.57-1.52-5.19-3-7.61-4.7a26.87,26.87,0,0,0-13-4.56c-3.5-.41-7-.88-10.18-2.56-2.59-1.37-5.24-2.65-7.87-4s-5.31-3-8.28-3.58A35.65,35.65,0,0,1,70.7,23c-1.84-.84-3.65-1.77-5.51-2.57-4.85-2.07-10-3.18-15.11-4.39-5.35-1.27-10.74-2.56-16.28-2.55a102.65,102.65,0,0,1-19.48-2.15c-2.79-.53-2.76-.58-2.59-3.47,0-.86.43-1.22,1.25-1,1.06.22,2-.27,3.06-.3.32,0,.41-.22.34-.51a7.22,7.22,0,0,1,.21-3.1c.15-.86.17-2.35-.4-2.49A11.39,11.39,0,0,0,11.13.19,14,14,0,0,1,8.26.75C5.48.78,2.68.51,0,1.54V2A4.45,4.45,0,0,1,.92,5.58c0,.2,0,.41,0,.62,0,.86.36,1.37,1.27,1.27a28.5,28.5,0,0,1,3.58.31c.9,0,1.17.51,1,1.3a16.1,16.1,0,0,0,0,4.33,17.09,17.09,0,0,1,0,4c-.64,4.61-.4,9.27-.65,13.9C6,32.94,6,34.6,5.8,36.25c-.26,2.51-.45,5-.46,7.56,0,4.56,0,9.12-.27,13.68-.54,7.77-.82,15.56-.75,23.35,0,2-.19,4-.33,6-.25,3.68-.51,7.35-.63,11-.09,2.65.18,5.3.18,8,0,7,.17,13.92-.14,20.89-.28,6.33-.35,12.67-.51,19s-.35,12.93-.49,19.39c-.11,5.63-.47,11.26-.3,16.91a21.54,21.54,0,0,1-.16,3.1,3.77,3.77,0,0,0,.25,2.66h.08l0,.21H5a.74.74,0,0,1,0-.21c.44-.09,1-.36,1.32-.22,1.15.41,1.39-.34,1.76-1.11a7.35,7.35,0,0,0,.66-3.86c-.45-5.41-.86-10.83-1.32-16.24a5.63,5.63,0,0,1,.57-3.6,3.09,3.09,0,0,0,.34-1.93c-.35-3,0-6-.08-9.06a4.13,4.13,0,0,1,.56-2.12,30.63,30.63,0,0,0,2.91-5.45,148,148,0,0,0,4.76-20.27c.55-3.24.66-6.6,2.44-9.55a4.52,4.52,0,0,0,.52-1.9c.41-4.67,1.37-9.25,1.87-13.9.62-5.85,1.52-11.67,1.89-17.55.39-6.33-.11-12.68.44-19,.28-3.27-.47-6.43-.7-9.64-.33-4.58-.94-9.14-1.1-13.74-.12-3.31-1.29-6.4-2.28-9.51-1.06-3.31-1.29-6.83-2.79-10A44.51,44.51,0,0,0,13.43,13c1,0,1.75,0,2.24.94a84.3,84.3,0,0,1,7.47,22.14A93.25,93.25,0,0,1,24.9,51.34c0,.51,0,1,.75,1s.78.4.79,1c0,2,.13,4,.15,6,.05,9-.17,17.9-.74,26.83a2.79,2.79,0,0,1-.36,1.9,7.71,7.71,0,0,1,.07-2.71,1.05,1.05,0,0,1,.05-.19c-.1-.37.26-1-.53-1s-.51.59-.62,1a5.37,5.37,0,0,0-.07,1c-.35,4-.62,8-1.09,12a222.37,222.37,0,0,1-5.16,27.55c-.25,1-.17,2.08-.95,2.88l.27.25c.86-.13,1.72-.24,2.57-.4,6.7-1.28,13.19-.9,19.34,2.34a20.57,20.57,0,0,0,4.18,1.55C53.2,134.89,63,135,72.91,134.32a19.54,19.54,0,0,1,8.17,1.06A59.71,59.71,0,0,1,94,142.48c5.8,4,11.87,7.08,18.89,8.38,6.11,1.14,12.18,2.21,18.36,1.18a23.84,23.84,0,0,1,18.66,4.48,10.14,10.14,0,0,0,2.12,1.26c4.92,2,10.11,2.33,15.41,2.62C167.3,159.93,167.22,159.61,167.12,159.3ZM2.55,5.81c.38-1.13-.09-2.23.18-3.32.07-.27-.1-.53.41-.51,3.26.15,6.52-.35,9.78,0,1.59.18,1.61.15,1.52,1.79a1.28,1.28,0,0,0,.71,1.37C10.79,5.89,6.73,5.54,2.55,5.81ZM7.6,127.2C7.48,133.12,7.32,139,7.24,145a11.36,11.36,0,0,1-1.34,4.21c-.44,1.09-.74,2,.73,2.44.44.14.25.44.22.71-.35,4.35.14,8.71-.18,13-.46,6.42-.44,12.83-.45,19.25v.63c0,.63.28,1.73.06,1.83-.82.39-1.76-.06-2.67-.13-.69-.05-.33-.65-.32-1,.17-3.85.42-7.7.55-11.55.15-4.09.16-8.2.27-12.3.26-10,.68-20,.77-30.06.06-5.72.21-11.43.4-17.15.48-14.36.74-28.73,1.61-43.08.52-8.52.75-17.05,1.12-25.73-.39-6.86.53-13.84.47-20.84,0-5.52,0-11,0-16.55,0-.47-.15-.94.62-1.09,1-.19,1.6-.13,1.35,1-.14.65.6,1.64-.67,1.89,0,.11,0,.26.11.33.69.68.48,1.52.46,2.34C10.16,21.49,10,29.73,9.83,38q-.47,20.39-1,40.76c-.17,6.38-.19,12.77-.45,19.14C8,107.64,7.81,117.42,7.6,127.2ZM16.41,23.51A118.29,118.29,0,0,1,20.89,44a153.87,153.87,0,0,1,1.38,24.55,214.07,214.07,0,0,1-3,34c-.93,5.34-1.45,10.75-2.58,16.07a165.11,165.11,0,0,1-4.8,16.8A44.34,44.34,0,0,1,8.81,142c.13-5.56-.65-11.12.37-16.64A10.44,10.44,0,0,0,9,122.51a38.72,38.72,0,0,1,.48-10.14,24.15,24.15,0,0,0,.17-6.18,15.27,15.27,0,0,1,.28-4.57,30.85,30.85,0,0,0,.24-8.42c-.33-6-.26-11.94-.05-17.88a89.15,89.15,0,0,1,1-13.12,30.43,30.43,0,0,0,.17-7.81C11,50.17,11,46,11.09,41.74c.18-9.11.81-18.22.61-27.34,0-.18-.1-.41.2-.6A40.64,40.64,0,0,1,16.41,23.51Zm119.46,27a2.48,2.48,0,0,1,1.28,2.78,1,1,0,0,0,0,.72c1,2.57.82,5.34.76,8,0,2,0,4.2-1.33,6a1.57,1.57,0,0,0-.12,1.09c0,.29.13.63,0,.85-1.25,2.45-.32,5-.57,7.55,0,.32.23.83-.47.69-.1-.37-.13-.86-.64-.83a.18.18,0,0,0-.13.06,3.36,3.36,0,0,0-.2-.43c.29,0,.59,0,.59-.34a.7.7,0,0,0-.88-.7c-.24-.07-.23-.27-.24-.46.13-2.32.56-4.6.89-6.89a52.67,52.67,0,0,0,1-10.11,17.92,17.92,0,0,0-.75-5.25,8.06,8.06,0,0,1-.37-1.82C134.57,50.27,134.8,50.11,135.87,50.52Zm-4.29-.87c1.54.36,3,2.87,2.55,4.23a.88.88,0,0,0,0,.71,11.38,11.38,0,0,1,.58,5c-.1,1.95-.23,3.92-.43,5.85-.22,2.18-1.08,4.16-1.31,6.33a24.4,24.4,0,0,0-.27,5.47c-.72-.21-.15-1.26-1-1.35.42-.72.11-1.15-.57-1.43a4.91,4.91,0,0,1-.06-3.1c.66-4.62,1.78-9.18,1.62-13.91a16.94,16.94,0,0,0-.76-5.25A6.91,6.91,0,0,1,131.58,49.65ZM26,16.07a98.61,98.61,0,0,1,2.66,10.58A3.83,3.83,0,0,1,29,28.59a1.8,1.8,0,0,1-.61-1.42C27,22.8,25.62,18.41,23.24,14.4,25.28,14.19,25.46,14.29,26,16.07Zm3.23,14.25-.38-1.59A1.31,1.31,0,0,1,29.21,30.32ZM23.13,16.41c-.56-.2-.47-.68-.55-1.06A1.11,1.11,0,0,1,23.13,16.41ZM21.84,15a90.4,90.4,0,0,1,3.58,11.6c.38.55.21,1.17.31,1.76a1.73,1.73,0,0,1-.54-1.23,60.12,60.12,0,0,0-5.47-13.35A1.64,1.64,0,0,1,21.84,15ZM26.31,31.4c.46.27.34.67.22,1.24-.13-.53-.22-.9-.32-1.27h0L26,30.15l-.35-1.31a1.18,1.18,0,0,1,.49,1.33C26.56,30.51,26.39,31,26.31,31.4Zm-6.4-11c.25.31.51.62.25,1.06C19.9,21.19,19.68,20.87,19.91,20.44Zm.52,1.8a2.19,2.19,0,0,1,.73,1.7C20.58,23.52,20.66,22.81,20.43,22.24Zm1,2.4c.24.5.76,1,.25,1.58C21.59,25.69,21.07,25.23,21.4,24.64Zm1.23,4.76c-.38-.43-.3-1-.45-1.49l-.27-1.23a1.39,1.39,0,0,1,.5,1.24c.41.44.28,1,.22,1.48Zm.27.75c.34.29.6.61.25,1.07A1.09,1.09,0,0,1,22.9,30.15Zm.5,1.43c.24.3.44.6,0,.9C23.11,32.18,23,31.88,23.4,31.58Zm.71,4.35a6.14,6.14,0,0,1-.42-1.8.92.92,0,0,1,0-1.25l.26,1a3.77,3.77,0,0,1,.42,1.53l.29,1h0c-.07.19,0,.58-.17.53C23.9,36.82,24.24,36.28,24.11,35.93Zm.56,3.19c-.07-.39-.15-.77-.27-1.37.61.5.47,1,.51,1.38A1.33,1.33,0,0,1,25,40.36,2.13,2.13,0,0,1,24.67,39.12Zm.59,3L25,40.75C25.53,41.18,25.41,41.54,25.26,42.1Zm1,9.79a2.94,2.94,0,0,1-.11-1.31V49.12h.22v1.47h0A2.94,2.94,0,0,1,26.26,51.89ZM24.84,93.31l.09-.88c0-.17.17-.36.3-.23.32.3.08.65,0,1l-.07.71A4.69,4.69,0,0,1,24.78,96,5.22,5.22,0,0,1,24.84,93.31Zm-.1,3.37a6,6,0,0,1-.48,3.07A3.66,3.66,0,0,1,24.74,96.68Zm-1.24,8.57a1.47,1.47,0,0,1-.24,1.54C23,106.19,23.53,105.76,23.5,105.25Zm-.38,1.93c.08,0,.19,0,.21,0,.2.39,0,.64-.29.89A.69.69,0,0,1,23.12,107.18Zm-.2,1.18c.31.79-.11,1.49-.19,2.23C22.17,109.77,22.53,109.06,22.92,108.36Zm-.28,3.06-.27,1.38c-.08.38-.17.76-.29,1.32a1.18,1.18,0,0,1,.08-1.32A1.59,1.59,0,0,1,22.64,111.42Zm-.49,2.82c-.14.68-.24,1.14-.33,1.59A1.5,1.5,0,0,1,22.15,114.24Zm-2.7,11.58h0c-.11.54-.23,1.09-.38,1.85a3,3,0,0,1,.15-2.41l.22-.75a2.11,2.11,0,0,1,.78-1.43c-.21.7-.36,1.22-.51,1.74A1.69,1.69,0,0,1,19.45,125.82Zm10.11.84c-.55-.2-.11-.59,0-.88.56-1.11,1.13-2.22,1.7-3.33l.29.12c-.26,1.2-.53,2.39-.77,3.6C30.65,127,30,126.82,29.56,126.66Zm2.1-6.13c.11-.24.13-.55.54-.73a2.45,2.45,0,0,1-.3,1.33c0,.3.08.67-.43.89C31.25,121.46,31.55,121,31.66,120.53Zm.47,6.43c-1-.12-.42-.81-.29-1.23A8.73,8.73,0,0,1,33,122.87a.81.81,0,0,0,.19-.45c0-2.61,1.53-4.89,1.51-7.57a23,23,0,0,1,2.08-9c.78-1.87,1.12-3.88,1.89-5.76.08-.32.15-.65.23-1l.32-1c.2.41.2.7-.13.93a2.63,2.63,0,0,1-.21,1.54c-.32,3.92-1.2,7.75-1.81,11.63-.75,4.74-2.13,9.33-3.07,14C33.66,127.82,32.79,127,32.13,127Zm44.67-5q-.06,5.14-.08,10.3c0,.56-.13.91-.75.72s-1.42.55-1.43-.7a19.92,19.92,0,0,1,.27-4.8c.29-1.28-.45-2.73.1-4,.85-2,0-4.16.88-6.15a5.78,5.78,0,0,0-.05-2.58,51.68,51.68,0,0,1,.45-10.25,1,1,0,0,1,.53-.86C76.18,109.81,76.85,115.86,76.8,121.93Zm2.39-21c-.18,6.66-.42,13.32-.51,20-.05,3.8.16,7.61.21,11.42,0,.3.38.92-.33.94s-.3-.56-.36-.86a35.3,35.3,0,0,1-.52-3.55,9.28,9.28,0,0,1,.38-3,2.56,2.56,0,0,0,.19-1.44c-1-2.57-.18-5.21-.34-7.81s-.49-5.28.06-7.88c.52-2.44.23-5,.8-7.37.27-1.14-.22-2.31.18-3.44l.24-1.14A12.75,12.75,0,0,1,79.19,100.92ZM80,132.16c-.41-2.54-.11-5.08-.27-7.62a47.09,47.09,0,0,1,.6-7.64,26.34,26.34,0,0,0-.26-4.44L80,111.1v-2.31l0-1.7c.11-.67.21-1.34.31-2h.13v2.25c0,.49,0,1,0,1.46,0,.77,0,1.54,0,2.31.94,7.63.81,15.33,1.57,23C80.05,133.88,80.24,133.85,80,132.16Zm.58-29.31c.12.6.17,1-.27,1.43C80.05,103.75,80.34,103.39,80.56,102.85Zm9,34.81c-1.06-3.09-1.58-6.33-2.35-9.49-.41-1.67-1.1-3.42-1-5.14.17-2.23-.64-4.37-.35-6.58a7.94,7.94,0,0,0-.43-2.81,31.79,31.79,0,0,1-.63-10c0,2.42,1.07,4.6,1.41,7,.5,3.43.89,6.87,1.44,10.29.62,3.84,1,7.71,1.65,11.54.36,2.07.9,4.09,1.29,6.2C89.93,138.57,89.75,138.16,89.58,137.66Zm2.3.18c-.4-2.93-1.12-5.79-1.67-8.69a18.26,18.26,0,0,1-.52-4.66,2.15,2.15,0,0,0-.2-1.33c-.91-1.24-.71-2.7-.85-4-.27-2.67-.77-5.31-1.07-8a33.81,33.81,0,0,1,0-3.77c0-.08.13-.16.2-.24l.39.46c.06.26.28.24.48.25a6.81,6.81,0,0,1-.13,2.37,1.09,1.09,0,0,0,.55,1.5c.39.17.3.54.33.85-.93.36-.42,1-.25,1.53.8,2,.55,4.3,1.21,6.37.23.72,0,1.69,1,2.08.06,0,.11.26.07.35-.59,1.09.11,2.18,0,3.24A13.82,13.82,0,0,0,92,131c.52,2.31,1.52,4.52,1.27,7-.08.8.59,1.69.55,2.62C92.43,140.41,92.15,139.83,91.88,137.84Zm-3.4-32a.85.85,0,0,1,0-.87A.73.73,0,0,1,88.48,105.87Zm0-5.91c-.09,1.43,0,2.86-.13,4.3-1.05-1.72-.47-3.57-.56-5.36l.24-.51A2.07,2.07,0,0,1,88.53,100Zm4,29.32c.36.19.29.45.19.79A.77.77,0,0,1,92.58,129.28Zm2.08,10.87c-.2-1.29-.79-2.52-.6-3.87a.22.22,0,0,1,0-.1,3,3,0,0,1-.19-1.23c-.29-.14-.25-.43-.28-.69a6,6,0,0,1-.65-3.33,7.13,7.13,0,0,1,.9,3c.07.33.15.66.22,1l.29,1c.8,2.14,1.59,4.28,2.43,6.54C95,141.9,94.91,141.76,94.66,140.15Zm5.57,4.09a33.26,33.26,0,0,0-2.16-7.1,2.42,2.42,0,0,0-1-1.41l2.34,8.69c-1.41-.75-1.57-2.06-2-3.22-.58-1.55-1.19-3.08-1.78-4.62a2.14,2.14,0,0,1-.22-.83c.07-2.67-1.1-5-1.91-7.43a5.14,5.14,0,0,1-.26-2.9A1.91,1.91,0,0,0,93.1,124c-1.73-3.09-1.35-6.65-2.22-9.92a8.57,8.57,0,0,1-.53-4.23c-.4-.76-.15-1.57-.25-2.49a.92.92,0,0,1,.45,1A28.42,28.42,0,0,0,92,113.41c.46-.33.11-.78.29-1.16a6.61,6.61,0,0,1,.8,2.78.37.37,0,0,1-.18,0c-.11-.27-.15-.6-.58-.76a29.21,29.21,0,0,0,1.64,8.65,15.62,15.62,0,0,1,1.37,5,19.83,19.83,0,0,0,1.17,4.62c.09.3.21.71.8.64-.86-3.18-1.21-6.43-2.45-9.46a5.2,5.2,0,0,1-.27-2h.27c1.56,3.54,2.29,7.33,3.31,11,1.17,4.21,2.31,8.43,3.51,12.81C100.81,145.36,100.38,145.06,100.23,144.24Zm-10-41.36a12.91,12.91,0,0,1,1,3.91l-.25.25C90.06,105.75,90.19,104.3,90.18,102.88Zm74.44,55.53c-.18,0-.51,0-.55-.17-.38-1-1.2-1.8-1.51-2.89-1.46-5-3.35-10-4.85-15-1.69-5.69-4-11.29-4.11-17.34a73.17,73.17,0,0,1,.35-10c.1-.78.06-1.57.09-2.36s-.56-.67-1-.73-.45.39-.48.7a106.31,106.31,0,0,0-.77,13.47c.08,2.19,1.21,4.12,1.4,6.28a15.42,15.42,0,0,0,1.69,5.16c1.72,3.64,2.56,7.59,3.88,11.37a4.15,4.15,0,0,1,.53,2.26c-1.37-.5-1.35-1.93-1.71-3-2.09-6.07-4.13-12.16-5.8-18.37a30.71,30.71,0,0,1-1.28-11c.23-2.26-.11-4.55.31-6.81.15-.81-.46-.82-1-.94s-.47.26-.53.58c-.71,3.47-.46,7-.67,10.51a6.53,6.53,0,0,0,.29,2.57,31.94,31.94,0,0,1,1.31,5.42,11.75,11.75,0,0,0,1.19,3.51,22.73,22.73,0,0,1,1.6,3.89c1.93,5.89,3.84,11.79,5.77,17.68a2.58,2.58,0,0,0,1.33,1.92c-.14-.64-.29-1.11-.35-1.59-.08-.64-.63-1.23-.22-1.92h0a1.27,1.27,0,0,0,.68.79c1.05,1.85,1.4,4,2.44,5.88-1-.4-2.37.16-2.74-1.48a2.27,2.27,0,0,0-1.15-1.22c-.17-.24-.28-.69-.63-.53s.19.36.16.59l.88,1.87c-1.77.08-2.65-.74-2.92-2.69l.69.28c0-1.11-.66-2.09-.56-3.27.53.31.86.64.91,1.1a1.89,1.89,0,0,0,.38,1.23c.2.22.37.54.68.36s.2-.53.08-.78a43.62,43.62,0,0,1-2.24-4.42c-.06-.18-.26-.17-.43-.13v.21l0,.37c-.18-.27-.51-.56-.2-.79a.68.68,0,0,1,.21-.11,1.68,1.68,0,0,0-.49-1.49c-1-.74-1.09-1.89-1.44-2.9-.7-2-1.29-4.1-2-6.14a125.15,125.15,0,0,1-4-14.06c-1-4.8-.47-9.64-.12-14.47.1-1.42.13-1.42-1.29-1.61a58.86,58.86,0,0,0-.84,12.85,5.81,5.81,0,0,0,.3,2,26.71,26.71,0,0,1,1.2,5.07,12.59,12.59,0,0,0,1.13,3.4,21.84,21.84,0,0,1,1.32,3.07,15.31,15.31,0,0,1,1,4,11.69,11.69,0,0,0,1.16,3c1.17,3,2.06,6,3.05,9.08-.3.13-.47-.17-.71-.23a.93.93,0,0,0-.21,0,.38.38,0,0,0-.12.09c-.15.16,0,.42,0,.65a2.42,2.42,0,0,0,.77,1.23.59.59,0,0,0,0-.35l.09.15.06.09c.29-.26-.05-.65,0-1a.4.4,0,0,1,.12-.23,2.72,2.72,0,0,1,.69,2.26h0c-.18-.28-.1-.8-.67-.71a3.12,3.12,0,0,0,1,3c.3.27.64.69.4,1.09s-.74.13-1.11,0c-1.45-.39-1.84-1-2.06-3.16l.74.48.14.09,0-.16c-.32-1.31-.59-2.46-.87-3.6-.45-.24.13-.75-.26-1h0l.19-.1.06,0-.09-.08-.09-.06-.25-.29c0-.12-.14-.29-.1-.34.82-1.08.14-1.66-.7-2.2-.11-.08-.25-.35-.21-.39.79-.92-.36-1.49-.5-2.22a37.86,37.86,0,0,0-1.74-4.52c-.94-2.82-1.82-5.66-2.66-8.51a52.45,52.45,0,0,1-2.48-11.37c-.13-2,.32-4,.14-6.07a31.5,31.5,0,0,1,.31-4.95c0-.7-.38-.83-.89-.93-.7-.14-.6.42-.63.78-.16,2.31-.8,4.57-.56,6.91a11.93,11.93,0,0,1-.09,2.23,13.08,13.08,0,0,0,.6,5.62,23.18,23.18,0,0,1,1,5.1l.15.33c3.12,6.66,4.83,13.83,7.25,20.74a3,3,0,0,1,.08.61h0c-.67-.4-.62-1.22-1.05-1.75-1.16-4-3-7.78-4.27-11.74-.83-2.53-1.77-5-2.35-7.63v-.06c-.15-.43-.28-.86-.44-1.29-2.3-6.13-2.6-12.51-2.27-19,.06-1.09.33-2-1.21-1.9-.92,3.3-.48,6.71-.62,10.08-.11,2.41,1.22,4.53,1.43,6.89a11.55,11.55,0,0,0,1.27,4.12,23.72,23.72,0,0,1,1.31,3.08q3.12,9.42,6.19,18.85a2.51,2.51,0,0,0,.86,1.46c.51.34.33-.2.4-.4.87,1.64,1.15,3.48,1.9,5.46-2.22-1.36-4.06-2.41-4.84-5-3.18-10.3-6.92-20.44-9.06-31a29.69,29.69,0,0,1-.72-8.62c.15-1.6,0-3.23,0-4.85,0-.56-.14-.89-.71-.9-.75,0-.25.53-.31.8a37.86,37.86,0,0,0-.71,8,32.45,32.45,0,0,0,2,10.7,14.17,14.17,0,0,1,.82,3c.35,3.46,2.32,6.35,3.36,9.56l4.81,14.89A2.68,2.68,0,0,1,145,150.3c-3.38-10.34-7-20.59-9.23-31.26a27.72,27.72,0,0,1-.71-9.13,35.17,35.17,0,0,0,0-4.59c0-.72-.5-.75-1-.75-.59,2.51-.43,5.09-.79,7.62s.43,5.18.93,7.74c.68,3.53,1.81,7,2.79,10.41.85,3,2.44,5.77,3.36,8.79,1.17,3.83,2.44,7.64,3.67,11.46a4.62,4.62,0,0,1,.12.52c-1.06-.05-1.73-.3-2.08-1.39-3.21-10-6.8-19.79-9-30a43.23,43.23,0,0,1-1.25-8.58c0-2.14.17-4.29.11-6.44,0-.3.18-.7-.28-.85s-.62-.46-.78.35a55.23,55.23,0,0,0-.65,7.14c-.28,3.79.71,7.48,1.76,11.1a39.59,39.59,0,0,1,1.22,4.42,14.31,14.31,0,0,0,1.11,3.8c3,6.29,4.42,13.15,6.92,19.67-1.26.33-1.78-.14-2.15-1.25-3-9.15-6.24-18.23-8.49-27.61a50.64,50.64,0,0,1-1.87-11c0-2.19.32-4.37.13-6.57-.06-.77-.25-1.16-1-1.17a52.74,52.74,0,0,0-.79,7.73c-.29,3.07.51,6.11,1.31,9.06a131.91,131.91,0,0,0,4.88,15.17c2,4.86,3.3,10,4.9,15a3.43,3.43,0,0,1,.09.44c-1.13.37-1.59,0-2-1.13-3-8.86-6-17.69-8.39-26.74-1.15-4.4-2.29-8.84-2.3-13.42,0-1.89.18-3.8.16-5.7,0-.51.18-1.22-.66-1.19-.66,0-.59.7-.65,1.13-.78,6.05-.63,12,1.52,17.85a15.87,15.87,0,0,1,.8,3,23.33,23.33,0,0,0,2,6.1c1.93,4.13,2.94,8.6,4.42,12.9.82,2.38,1.56,4.79,2.33,7.18-1,.4-1.41.13-1.76-.86-2.94-8.47-6-16.92-8.37-25.57-1.27-4.57-2.58-9.18-2.63-14,0-2.44.31-4.88.1-7.32a8.31,8.31,0,0,0,0-.87c-.08-.41-.49-.45-.78-.48-.51,0-.27.4-.29.63-.24,2.54-.38,5.08-.67,7.61a23.15,23.15,0,0,0,1.06,8.47,129.88,129.88,0,0,0,5.12,15.76c2.25,5.49,3.86,11.24,5.76,16.88-1.65.46-1.59.44-2.08-1.1-1.53-4.81-3.2-9.57-4.65-14.4-1.73-5.78-3.59-11.53-4.81-17.46-.65-3.16-1.6-6.27-1.78-9.5-.13-2.22,0-4.46,0-6.69,0-.8-.25-1.15-1-1.14-.74,2.41-.32,4.91-.74,7.34a10.32,10.32,0,0,0,.31,3.82c.78,3.68,1.92,7.28,2.67,11s2.6,7.13,3.73,10.75c1.77,5.69,3.57,11.37,5.35,17,.1.33.52.85-.2,1-.49.07-1.12.43-1.4-.48-1.51-4.81-3-9.63-4.62-14.4-2.39-7-4.38-14.05-6.1-21.21a41.12,41.12,0,0,1-1.14-12c.06-1-.06-1.91-.06-2.86,0-.55-.3-.77-.77-.73s-.28.49-.3.77c-.22,2.5-.41,5-.65,7.51a11.39,11.39,0,0,0,.23,3.09c.9,5.14,2.61,10.07,3.83,15.14.62,2.56,2.15,4.81,3,7.35,1.89,6,3.88,12,5.83,18.05-.83.32-1.21.08-1.48-.81-1.66-5.59-3.79-11-5.61-16.55a180.54,180.54,0,0,1-5.33-18c-.64-2.9-1.6-5.76-1.78-8.74-.14-2.39,0-4.79,0-7.19,0-.29,0-.58,0-.87,0-.68-.5-.75-.91-.75s-.23.5-.25.76c-.16,2.34-.24,4.69-.47,7a12.52,12.52,0,0,0,.09,3.46,114.71,114.71,0,0,0,4.19,15.42c1.48,4.45,3.47,8.74,4.94,13.23,1.33,4.09,2.79,8.13,4.2,12.2.09.27.27.52.17.83-1.81.24-1.73.22-2.27-1.54-1.32-4.26-2.7-8.51-4.09-12.75-2.91-8.8-5.39-17.71-7.59-26.72a52.82,52.82,0,0,1-1.19-11.66c0-.83-.24-1.22-1.07-1.16-.25,2.4-.33,4.77-.4,7.14a11.41,11.41,0,0,0,.23,3.2q2.1,8,4.22,16.07c.59,2.26,1.91,4.21,2.62,6.43q3.27,10.21,6.59,20.41c.06.19.09.38.14.58-2.18.12-2.09.09-2.7-1.91Q118,143,116,136.89c-3.15-9.33-5.65-18.84-8-28.41-.81-3.3-.49-6.58-.83-9.86-.06-.57,0-1.16-.09-1.73s-.37-.51-.71-.53c-.5,0-.34.37-.35.62-.14,2.84-.29,5.68-.38,8.53a5.27,5.27,0,0,0,.27,1.84c1.27,3.84,1.68,7.92,3.17,11.72a19.35,19.35,0,0,1,.8,3.5c.52,2.85,2.2,5.25,3,8,2.12,6.74,4.3,13.46,6.45,20.2-1.93-.08-1.85-.1-2.38-1.86q-1.93-6.28-4-12.52c-3-9.08-5.47-18.29-7.77-27.57-1-4-1-8.09-1.19-12.15,0-.84-.24-1.25-1.19-1.19.21,3.6-.86,7.27,0,10.8,1,3.92,1.56,8,3.11,11.73a10.55,10.55,0,0,1,.56,2.16,28.42,28.42,0,0,0,2.19,6.82c2,4.3,3,8.93,4.52,13.4,1.11,3.27,2.11,6.59,3.16,9.89-1.41.19-1.83-.56-2.19-1.81-1.17-4-2.54-7.87-3.81-11.8-2.44-7.55-5-15.08-6.66-22.85-.55-2.51-1.17-5-2-7.44-1.07-3.27-.53-6.66-.92-10,0-.41,0-.83,0-1.24s-.36-.5-.7-.53-.43.3-.42.58c.13,4.75-.44,9.47,1,14.24a111.47,111.47,0,0,1,3.59,13.27,5.46,5.46,0,0,0,.41,1.3c3.57,7.76,5.54,16.09,8.32,24.13.16.46.32.93.49,1.4-1.4.2-1.46.13-1.84-1.07-1.77-5.59-3.74-11.12-5.54-16.7-2-6.06-3.94-12.11-5.34-18.34-.66-2.9-1.44-5.78-2.29-8.63s-.41-5.59-.82-8.37a10.9,10.9,0,0,1-.08-2c0-.6-.41-.7-.8-.72-.55,0-.35.45-.35.73,0,3,0,6,0,9a8,8,0,0,0,.36,2.07c1.48,5.47,3.13,10.88,4.5,16.37.72,2.86,2.38,5.36,3.27,8.17,1.94,6.15,4,12.26,6,18.38.06.19.08.38.14.66-1.17,0-1.9-.27-2.26-1.58-1.62-5.86-3.8-11.54-5.66-17.33-2-6.33-4.12-12.66-5.57-19.17-.57-2.54-1.26-5-2-7.55-.82-2.78-.41-5.69-1-8.48a4.21,4.21,0,0,0,0-.5c-.2-.61.22-1.84-.94-1.59-.73.15-.11,1.1-.12,1.68,0,.91-.08,1.81-.12,2.71a11.33,11.33,0,0,1,.07,3.49l-.33-1a4,4,0,0,0,.29,3.19c0,.06.2.08.2.12a7.91,7.91,0,0,0,1.28,4.28c.18.25-.62.61-.36,1.19s0,1.14.86,1.42c.38.14.57,1,.35,1.49a3.34,3.34,0,0,0,.56,3.22c.29,0,.26-.34.47-.42a16,16,0,0,1,1.12,4.12l-.25.29c-.31-.52-.25-1.27-1.1-1.71a33.36,33.36,0,0,0,1.25,5.42c.13.38.29.9.8.77s.16-.64.26-1l.2,0c3.9,8.38,5.87,17.42,9.22,26.06-2-.13-2.33-.58-2.74-2.31-.58-2.45-1.37-4.84-2.09-7.25a1.13,1.13,0,0,0-.46-.55c.38,3.12.77,6.21,2.44,9.15a3.29,3.29,0,0,1-2.82-2.73c-.94-4.1-2.15-8.15-3.25-12.22-2.07-7.62-4.21-15.21-5.57-23-.52-3-1.36-5.88-1.89-8.85-.44-2.48-.41-5-.91-7.51-.16-.84-.55-1-1.24-1.19s-.86.11-.83.75a27.07,27.07,0,0,1-.08,3.24,16.66,16.66,0,0,1-.91-3.73c-.11-.47-.24-.89-.73-.73s-1.08.16-1.05.89a2.43,2.43,0,0,0,.07.86c.8,1.85.39,3.74.23,5.62-.13,1.51-.22,3-.33,4.52-1.36-2.25-.81-4.75-1-7.15.08-.38-.17-.47-.46-.52,0-1.28,0-2.56,0-3.84,0-.43.2-1-.54-1s-.54.59-.53,1c.12,6,.14,12,.52,18a140.69,140.69,0,0,0,3.94,25.33,5.68,5.68,0,0,1,.29,2.06c-2.35-.85-2.8-1.49-2.89-4.34a14.72,14.72,0,0,0-.56-3.79l-.4-3.33c-.55-2.38-.37-4.88-1.17-7.21a31.45,31.45,0,0,0,.9,9.27,6.55,6.55,0,0,0,.45,2c.27,1.85.07,3.75.6,5.61-1.77-.3-2-.69-1.66-2.35a3.11,3.11,0,0,0-.26-1.57,9.15,9.15,0,0,1-.2-5.78,1.47,1.47,0,0,0,0-1.09c-1.2-2.34-.41-4.85-.72-7.26a3.17,3.17,0,0,1-.13-.67.88.88,0,0,1,.24-.66l.09,0h0l.37,1.49,0-.46a.5.5,0,0,0,0,.12s0-.08,0-.12a18.63,18.63,0,0,0-.5-6c-.07-.26-.12-.62-.55-.36a7.15,7.15,0,0,0,.37-2.91c-.07-2.45.54-4.85.34-7.29a.53.53,0,0,1,0-.25c.82-2.86-.06-5.73,0-8.6,0-.16,0-.33,0-.49,0-.33-.05-.59-.44-.6s-.36.34-.38.61q-.26,3.58-.49,7.17c0,.24.15.68-.14.64s-.34-.53-.3-.88c-.59-2.3.13-4.61,0-6.92,0-.39.19-.81-.49-.86s-.63.4-.63.8A28.33,28.33,0,0,1,79.41,94a6.37,6.37,0,0,1-.47-3.16c0-.28.17-.7-.39-.73s-.45.4-.48.67c-.22,2.48-.41,5-.64,7.42-.06.7-.19,1.4-.29,2.09.14.48-.15.86-.26,1.28V103a2.19,2.19,0,0,1-.17-1.36c0-.59,0-1.18,0-1.77-.64-2.72.12-5.43.11-8.14a6.42,6.42,0,0,1,.14-.86c.06-.45.2-.89-.55-1s-.69.35-.7.83c-.14,5.09-.45,10.18-.76,15.26-.54,8.76-1,17.53-1.49,26.3,0,.64-.23.85-.83.9-4,.27-8,.35-12.06.26-.8,0-.71-.38-.61-1q1.47-9.07,2.9-18.15c.37-2.33.67-4.67,1-7a4.29,4.29,0,0,0-.35-2c-.48,2.23-1,4.14-1.27,6.07-.79,5-1.5,10-2.25,15-.31,2-.69,4.08-1,6.12-.1.63-.34.81-1,.82-2.85,0-2.85,0-2.51-2.72a6.83,6.83,0,0,0,.05-2.84,12.17,12.17,0,0,0-.92,3c-.14.47-.27,1-.39,1.43s-.06,1-.67.77-1.56.35-1.57-.84h0a4.26,4.26,0,0,0,.19-2c.35-.22.32-.51.14-.94-.12.39-.22.69-.31,1h0c-.08.41-.17.81-.25,1.21-.38,1.21-.38,1.21-1.25,1.13a3.09,3.09,0,0,0,.37-2.42,3.42,3.42,0,0,0-.66,1.78c0,.22.19.66-.33.61s-.48-.36-.42-.74a7.21,7.21,0,0,1,.72-2.49c.86-1.59.52-3.45,1.25-5.1,2.1-4.74,2.31-9.84,2.53-14.92a1.31,1.31,0,0,0,.12-.47c.13-.67.08-1.35.15-2a1.89,1.89,0,0,0,.13-1.44.57.57,0,0,0-.37.72c-.09.65-.17,1.3-.25,2-1.24,7.34-2.92,14.6-4.77,21.81a14.93,14.93,0,0,0-.43,1.55c-.09.75-.43.8-1.1.7-1-.15-1.39-.65-.91-1.53,1.06-2,.86-4.27,1.71-6.28,1.89-4.45,2.29-9.19,2.87-13.92a24.49,24.49,0,0,1,1.37-5.63,8.55,8.55,0,0,0,.48-3.9c-.28-2.8.45-5.51.74-8.25.15-1.4.21-2.8.36-4.2,0-.4-.05-.7-.57-.76s-.56.3-.6.68c-.37,3.79-.68,7.6-1.15,11.37a195.61,195.61,0,0,1-4.38,23.67c-.62,2.45-1.16,4.91-1.8,7.36-.29,1.14-.87.6-1.47.5s-1-.37-.62-1c1.07-1.74.73-3.86,1.51-5.68,2-4.67,2.41-9.67,3-14.64a18.79,18.79,0,0,1,1.08-4.57,10.36,10.36,0,0,0,.67-4.85c-.23-2.46.44-4.85.66-7.27.15-1.63.32-3.29.52-4.93,0-.39.14-.83-.52-.89s-.65.4-.69.86a230.12,230.12,0,0,1-3.19,24.51c-1.08,5.69-2.54,11.3-3.84,16.94-.17.76-.41,1.09-1.29.73s-1.18-.72-.59-1.51c.73-1,.11-2.21.65-3.23,1.16-2.19,1.19-4.74,2.25-7a5.21,5.21,0,0,0,.29-1.83,49.08,49.08,0,0,1,1.69-10.74,21.53,21.53,0,0,0,.84-6.94,32.49,32.49,0,0,1,.72-6.27,45.36,45.36,0,0,0,.49-5.06c0-.45,0-.8-.59-.84s-.57.47-.6.83c-.34,3.54-.64,7.1-1,10.64C45,103.72,44,109.13,43,114.55c-.84,4.65-2.18,9.17-3.18,13.78-.07.35,0,1.12-.7.81-.51-.22-1.29-.11-1.15-1.31a13.12,13.12,0,0,1,1.49-5.17,2.92,2.92,0,0,0,.24-1.33,4.5,4.5,0,0,1,.64-2.35c.75-1.22.51-2.66.68-4,.48-3.68.73-7.39,2.16-10.89a4.31,4.31,0,0,0,.28-2c-.45-4.92,1.13-9.67,1.11-14.55,0-.21,0-.41,0-.62s-.14-.51-.5-.56-.56.15-.6.55c-.19,2.07-.47,4.12-.61,6.19A191.7,191.7,0,0,1,39.7,115c-.75,4.12-2,8.12-2.82,12.21-.07.36,0,1-.66.74s-1.43,0-1.38-1a10.74,10.74,0,0,1,1.07-3.66c.1-.23.36-.42.37-.64.07-1.88,1.08-3.54,1.29-5.35a105.61,105.61,0,0,1,1.59-10.9,24.69,24.69,0,0,0,1-3.3c.09-1.12,0-2.23,0-3.33a65.9,65.9,0,0,1,.67-7c.68-4.79,1.48-9.56,2.19-14.35a19.4,19.4,0,0,0,.4-4.69,33.28,33.28,0,0,0-1.13,6c-.27,1.84-.62,3.67-.94,5.51-.08.42,0,.89-.75.89-.54,0-.32.59-.34.9a44.67,44.67,0,0,1-2.7,13.33c-.1.26-.21.52-.35.86-.79-2.38.14-4.57.3-6.79.17-2.55.66-5.08.67-7.65,0-.49.26-1.05-.57-1.06s-.51.63-.53,1a191.51,191.51,0,0,1-3.52,26.46,56.89,56.89,0,0,1-3.28,9.34,12.07,12.07,0,0,1-1.77,3.73A9.89,9.89,0,0,1,30,122.49c.95-4.4,1.66-8.84,2.2-13.32a12.3,12.3,0,0,1,1.32-4.86,2.45,2.45,0,0,0,.25-1.2c-.1-2.81.51-5.57.55-8.37,0-.45-.18-1,.28-1.34,0,0,0,.08.07.09a.09.09,0,0,0,.1,0,3.47,3.47,0,0,0,.81-1.77c.09-.37-.2-.36-.47-.28l-.29-.3.24-4.83c0-.38.24-.85-.44-.93s-.61.51-.65.89c-.46,4.53-.84,9.07-1.38,13.59a8.05,8.05,0,0,1-.88,3.39,1.51,1.51,0,0,0-.09,1.09l.24.48c-.92.63-.87,1.72-1.19,2.62a17.35,17.35,0,0,0-.46,2c.48.31.5-.41.93-.25,0,.34-.05.7-.11,1-.8,4.35-1.6,8.7-2.77,13-.25.92-.43,1.85-.62,2.78-.07.3-.12.6-.49.62-.57,0-1.29.23-1.67,0s0-1,.16-1.46c1.05-2.84,1.79-5.75,2.58-8.67a18.52,18.52,0,0,1,1.52-4.15,3.67,3.67,0,0,0,.55-2.11c-.94.42-.66,1.68-1.56,2.12a21.89,21.89,0,0,1,1.36-7.42,9,9,0,0,0,.6-4c-.36-2.77.39-5.43.68-8.12.25-2.35.4-4.7.52-7.05,0-.4,0-.73-.54-.77s-.49.42-.52.74c-.62,6.1-.93,12.22-1.95,18.28-.91,5.34-1.71,10.7-3,16-.25,1-.89,2-.78,3.1.05.54-.49.3-.72.48a3,3,0,0,1-.41,3.27c-.39-.76.66-1.56-.07-2.28a8,8,0,0,0-.75,2,.66.66,0,0,1-.72.55c-.52-.07-.28-.5-.28-.79a1.12,1.12,0,0,1,.1-.48c1.2-2.27,1.3-4.89,2.36-7.21a6,6,0,0,0,.3-1.83,73.92,73.92,0,0,1,1.61-10.76,19.35,19.35,0,0,0,.88-2.7c.1-1.2,0-2.39.05-3.58a47.49,47.49,0,0,1,.74-7.14c.45-2.42.32-4.86.56-7.29.05-.51-.26-.66-.68-.66-.65,0-.38.54-.41.82-.42,4.33-.71,8.68-1.23,13a183.48,183.48,0,0,1-4.37,24c-.34,1.32-.65,2.65-.88,4-.14.8-.51,1.19-1.39,1.12a13.37,13.37,0,0,1,.89-4,69.06,69.06,0,0,0,2-8.42,90.75,90.75,0,0,1,2-10.85,9.94,9.94,0,0,0,.27-1.72c.56-7.43,1.74-14.8,1.91-22.26.13-5.25.66-10.48.68-15.75,0-5.81-.22-11.59-.63-17.37a101.89,101.89,0,0,0-2-11.49c-.4-1.86-.73-3.74-1.21-5.57a62,62,0,0,0-6.44-16.57c1.07-.25,1.62.24,2.08,1.2A88.49,88.49,0,0,1,25.64,33a106.47,106.47,0,0,1,2.47,19.14c0,.51.16.81.66.83.32,0,.91.42.82-.41-.53-1.9-.11-3.83-.16-5.75a4.37,4.37,0,0,1,.41,2c.68,6.6,1.19,13.22,1.31,19.86v.77a12.37,12.37,0,0,0,0,2.72c0,.32,0,.75.46.73a.63.63,0,0,0,.56-.81c-.14-.81-.38-1.6-.58-2.4l0-1h0a13.49,13.49,0,0,0,.05-3.91c-.37-3.8-.35-7.62-.69-11.43-.53-5.72-1.78-11.29-2.66-16.94C27.67,32.69,26.79,29,26,25.28c-.42-2-1.48-3.68-2-5.6-.13-.48-.26-1-.4-1.43a1.5,1.5,0,0,1-.37-1.1c.56.14.47.56.61.83a71.44,71.44,0,0,1,4.86,14.66,99.94,99.94,0,0,1,2.61,20.14c0,.93.64.92,1.11.92.92,0,.15-.76.38-1.1h0a10.07,10.07,0,0,1-.26-2.94,2.66,2.66,0,0,1,.51,1.69c.84,5,.9,10.11,1.58,15.14.08,1,.17,1.92.25,2.88a29.39,29.39,0,0,0,.09-5,7.16,7.16,0,0,0-.11-1.21c.09-3.05-.36-6.08-.48-9.13a10.2,10.2,0,0,1-.26-2.27A203.47,203.47,0,0,0,28.53,23c-.09-.32-.13-.65-.19-1-.35-.43-.22-1-.44-1.52.62.19.57.64.69,1A95,95,0,0,1,34.38,50h0a16.43,16.43,0,0,1,.21,4,3.06,3.06,0,0,0,1.69.31c-1-13.8-3.71-27.09-9.45-39.67,2,0,1.93,0,2.84,1.9a77.2,77.2,0,0,1,5,14,102.93,102.93,0,0,1,3.07,21.6c0,.7,0,1.41.09,2.11S38.56,55,39,55c.67.06.37-.52.32-.8-.54-2.92.16-5.92-.5-8.8-2.11-9.3-3.4-18.84-7.46-27.62-.45-1-.93-1.92-1.4-2.89,1.94-.47,1.88-.44,2.72,1.28a80.14,80.14,0,0,1,6.47,20.27,94,94,0,0,1,1.78,18c0,.69.14,1,.91,1.14s.8,0,.8-.7c0-7.38-1.61-14.53-3.2-21.68a72.34,72.34,0,0,0-6.21-18.14,1.5,1.5,0,0,1-.1-.32c1.85-.43,1.92-.36,2.67,1.21A81.64,81.64,0,0,1,42.4,36.74,90.55,90.55,0,0,1,44.11,55c0,.39-.22.88.45,1.11,1.1.4,1.38.21,1.27-1.14-.47-5.34-.65-10.68-1.93-16-1.57-6.47-2.8-13-5.28-19.24-.67-1.68-1.49-3.3-2.31-5,1.95-.15,2.09,0,2.85,1.57a75,75,0,0,1,5,14,95.74,95.74,0,0,1,3.1,24.7c0,1.29.24,2,1.6,1.86.89-5.31-2.7-29.37-9-41.55a2.78,2.78,0,0,1,2.92,1.83,80.56,80.56,0,0,1,5.74,18.18,92.61,92.61,0,0,1,2,20.62c0,.56-.3,1.27.67,1.46.76.14,1.16.1,1.07-.85-.54-5.66-.44-11.35-1.83-17-1.63-6.58-2.77-13.28-5.32-19.61-.53-1.3-1.1-2.58-1.64-3.86a2.85,2.85,0,0,1,3.06,2.59A4.12,4.12,0,0,0,46.84,20c2.27,4.11,3.22,8.65,4.31,13.15a97.78,97.78,0,0,1,2.57,22.15,7.19,7.19,0,0,1-.09,1.61c-.2,1.07.5,1.22,1.26,1.36.46.09.6-.09.58-.52,0-.25,0-.5,0-.74-.42-6.39-.54-12.79-2.25-19.06-1.06-3.86-1.84-7.81-2.72-11.72-.67-3-2.32-5.63-3.2-8.54-.08-.27-.36-.47-.24-.83,1.69,0,2.31,1.36,2.9,2.48a27.72,27.72,0,0,1,3.14,9.35c.21,1.55,1.1,2.74,1.22,4.21.07.41.15.81.23,1.21l.32,1c.18-.42.22-.71-.13-.92a6.49,6.49,0,0,0-.21-2.52,19.16,19.16,0,0,0-1.44-6.84c.51-.36.73.4,1.34.35-1.1-2.61-3.22-4.59-3.81-7.45A32.73,32.73,0,0,1,56,19.55c.33.14.52.6.78.92s.46.65.52-.08c0-.21,0-.39.25-.46,3.41.31,5.21,2.31,6.57,5.39,2.86,6.41,6.09,12.66,9.2,19,.9,1.81.63,3.74.61,5.61,0,3.73-.21,7.45-.45,11.17-.07,1,.52,1,1.14,1.15,1,.15.54-.63.58-1,.59-4.87,0-9.76.28-14.64.16-2.83-.84-5.55-1.08-8.36s-.63-5.84-1-8.76a2.06,2.06,0,0,0-.55-1.83c.28,2.19,0,4.13.29,6.05.16,2.88.33,5.76.51,8.92-3.57-7-6.57-13.88-10.27-20.45.56-.39.91,0,1.25.13a75.89,75.89,0,0,0,9.06,3.37,1.79,1.79,0,0,1,1.43,1.68,144.53,144.53,0,0,1,1.85,20c.15,4.81-.22,9.6-.42,14.4,0,.93.46,1,1.09,1.11s.58-.27.61-.6a100.43,100.43,0,0,0,0-18.35c-.61-5.5-1.17-11-2.13-16.5-.15-.83-.1-.93.85-.87,1.41.09,1.73.78,1.92,2a128.75,128.75,0,0,1,1.55,28.35c-.13,1.9-.07,3.81-.2,5.71-.07,1,.59,1.08,1.22,1.14.93.1.49-.68.51-1.05a50.57,50.57,0,0,0,.23-5.21c-.12-5.08.5-10.2-.43-15.23s-1.1-9.86-2.08-14.77c2.47.51,3.08,1.15,3.37,3.56a138.29,138.29,0,0,1,1,25.16c-.13,2.18-.19,4.38-.27,6.57-.07,1.66-.06,1.66,1.74,1.9-.19-4.39.68-8.76.11-13.16a13.17,13.17,0,0,1,.14-2.72c.28-3-.33-5.86-.77-8.77-.33-2.25-.49-4.52-.73-6.79l.06-.87a22.82,22.82,0,0,1,2.11,4c.07.15.16.39.1.47-.9,1.14-.12,2.28,0,3.4.22,2.43.42,4.89.42,7.3a34.48,34.48,0,0,1-.39,7.07,24.36,24.36,0,0,0,.36,9.9c.1.49.35.92.89.8s.23-.62.19-.91c-.7-4.64.11-9.27,0-13.9s.08-9-.82-13.48c-.35-1.69-.14-3.47-.86-5.1a6.71,6.71,0,0,0-.61-1.48c.87.4,1.81.33,2.16,1.77S89.44,34.6,90,36c.35.85.78,1.54.23,2.63-.38.74.21,1.92.18,2.89-.12,3,.33,6.09-.32,9.13-.24,1.1.16,2.29-.17,3.44a24.23,24.23,0,0,0-.54,10.68,4.34,4.34,0,0,0,.23,1,.7.7,0,0,0,.86.33c.31-.08.18-.42.14-.64-.76-5,.46-9.82.61-14.73.13-4.46.84-8.92-.11-13.37a5.7,5.7,0,0,1,0-2.1l.3-.3A14.52,14.52,0,0,1,94.1,39c.09.18.24.4.2.57-.61,3,.55,5.89.1,8.86-.19,1.25,0,2.55-.55,3.77-.4.85.24,1.79-.18,2.68-.92,2-.85,4.13-1.45,6.17-.51,1.76.19,3.61.38,5.41.07.6.7.42,1.16.66-.76-5.65.95-10.95,1.45-16.36.34-3.76.76-7.5-.37-11.21-.39-1.25-.2-2.62-.73-3.84,1.68,1.13,3.09,2.89,3.16,4.62.09,2.16.7,4.3.41,6.48s-.19,4.47-.8,6.73c-.43,1.6-.75,3.33-1,5-.46,2.8-1,5.66-.27,8.54.16.63.52.92,1,.88s.24-.61.19-.89c-.55-3.35.34-6.59.69-9.88.39-3.74,1.42-7.4,1.3-11.21a14.16,14.16,0,0,0-.46-4.41c-.49-1.43-.43-2.95-.88-4.37.13,0,.2,0,.17-.18a13.2,13.2,0,0,1,2.91,4.1.62.62,0,0,1,.08.35c-.42,3.09.61,6.14.15,9.24a9.88,9.88,0,0,1-.56,2.9,2.8,2.8,0,0,0-.22,1.67,6.65,6.65,0,0,1-.64,3.12c-.1.27-.34.51-.37.78-.26,3-.93,6-.19,9,.18.71.64.71,1.23.79-.73-5.18.53-10.12,1.26-15.09.65-4.38,1.07-8.71-.26-13-.26-.87,0-1.81-.29-2.73,1.34,1.17,2.81,2.6,2.86,4.23.09,3.41.92,6.88.17,10.22-.53,2.38-.24,5-1.56,7.16a.31.31,0,0,0-.05.12c.16,2.37-1.13,4.65-.49,7.07a7.11,7.11,0,0,1,.19,1.84c0,.84.38,1.19,1.22,1.2-.65-5.94,1-11.61,1.69-17.38a24.15,24.15,0,0,0-.46-10.11c-.53-1.72-.37-3.65-1.64-5.14.15-.08.26-.16.29-.14,1.84,1.24,2.85,3.13,3.84,5,0,0,.05.09,0,.12-.82,1.63.3,3.16.24,4.75a32.24,32.24,0,0,1-.15,4.83c-.51,2.59-.3,5.32-1.56,7.75a.43.43,0,0,0-.08.23c.27,2.06-1,4-.6,6.06.25,1.12.22,2.3.41,3.45.12.79.23,1.68,1.46,1.73-1.36-5.4.15-10.63.91-15.88.67-4.63,1.15-9.19-.32-13.79.81.51,2.86,3,2.67,3.67-.58,2.13.62,4.07.38,6.14-.13,1.15,0,2.32-.07,3.48a2.28,2.28,0,0,1,0,.74c-.92,2.16-.27,4.68-1.58,6.75a.55.55,0,0,0-.1.22c-.28,2.93-.87,5.84-.39,8.81a.74.74,0,0,0,.72.69c.47.07.41-.23.4-.54-.17-5.22,1.14-10.27,1.78-15.39.42-3.45.68-6.94-.38-10.35a13.79,13.79,0,0,1-.51-3l.31-.31A9.89,9.89,0,0,1,112,44.48a6.48,6.48,0,0,1,1,1.62h0a.46.46,0,0,1,0,.29c-.72,1.15.07,2.06.1,3.06.11,3.11.71,6.25-.53,9.28.56,2.34-1.39,4.31-1,6.63a1,1,0,0,1-.19.58,3.72,3.72,0,0,0-.43,2.38c.09,1.2.18,2.4.16,3.6,0,.88.4,1.13,1.28,1.13-.5-4.24.49-8.3,1.11-12.38.77-5,1.55-10.07-.13-15.09a1.57,1.57,0,0,1-.06-.49,7.41,7.41,0,0,0-1.62-4.2c-.33-.51-.7-1.18-1.39-1.1s-.48.93-.75,1.39c0,.06-.12.08-.19.12h0c-.65-1.08-.82-2.65-2.68-2.51-.16,0-.37-.67-.67-1.25,2.88.62,5.71.63,8.08,2.32-.85-.27-1.22.05-1.29.92a2,2,0,0,0,.52,1.41c1.15,1.6,3.33,2.78,2.4,5.33,0,.07,0,.16,0,.24a20.11,20.11,0,0,1-.11,11,1,1,0,0,0,0,.62,4.22,4.22,0,0,1-.48,3.11c-.79,1.68-.66,3.51-1,5.24s.07,3.37.2,5.06c.06.7.16,1.45,1.29,1.44a23,23,0,0,1-.25-3.7,115.79,115.79,0,0,1,1.61-12.17c.61-4.26,1-8.51-.42-12.76,1.18,1,2.65,2.39,2.5,3.77s.32,2.36.29,3.55c-.06,2.85.78,5.76-.51,8.54a1,1,0,0,0,0,.62,5.47,5.47,0,0,1-.53,3.13,27.9,27.9,0,0,0-1.06,5.34,24.35,24.35,0,0,0,.1,3.71c0,.65.29,1,.84,1s.31-.57.32-.87a56.17,56.17,0,0,1,.47-5.93c.59-3.8,1.37-7.57,1.61-11.43a31.32,31.32,0,0,0-1.29-10c-.42-1.64-.82-3.75-3.22-4-.11,0-.22-.22-.3-.35l-1.44-2.44c1.7.83,3.51,1.31,4.59,3.26.73,1.33,1.94,2.44,2.72,3.81.29.52.62,1,.08,1.56a.69.69,0,0,0-.06.81,11.53,11.53,0,0,1,.66,4.51,15.76,15.76,0,0,0,.14,3.22,1.58,1.58,0,0,1,0,.86c-.78,2.12-.27,4.52-1.5,6.53,0,.07-.12.15-.11.22.23,2.07-1.09,4-.66,6.07.29,1.43-.13,2.9.2,4.33.13.54.23,1.08,1,.92a46.84,46.84,0,0,1,1-11.33,47.77,47.77,0,0,0,1-13.07,16.9,16.9,0,0,0-.66-3.4,5.9,5.9,0,0,1-.36-2.56c1.32,1.24,2.73,2.59,2.76,4,.07,3.37,1,6.77.34,10.07-.43,2.16-.18,4.54-1.47,6.53,0,.07-.11.15-.1.22.33,1.84-.92,3.47-.63,5.33.17,1.13,0,2.31.12,3.47.06.76-.09,1.74,1.23,1.86-.46-5.91,1.17-11.57,1.8-17.35.35-3.26.6-6.62-.58-9.84-.4-1.1-.22-2.31-.81-3.65a12.82,12.82,0,0,1,3.25,4.22.78.78,0,0,1,.06.37c-.3,3,.59,5.9.3,8.86a34.88,34.88,0,0,1-1.24,7,4.15,4.15,0,0,0-.38,2.13,1.66,1.66,0,0,1-.32,1.35l-.53-.74c-.07.21-.14.31-.13.4.35,5,.79,10,2.76,14.75,1.19,2.85,2.09,5.82,3.84,8.42a2.17,2.17,0,0,0,.67.71c.3.17.46,0,.61-.21s.19-.47-.06-.52c-1.32-.23-1.46-1.49-1.9-2.36A17.81,17.81,0,0,1,130,86.13a11.45,11.45,0,0,0-.81-1.79c-1.64-4.23-1.74-8.62-1.44-13h0l.47-.1a.31.31,0,0,1,.05.12c-.07.15-.5.24-.12.45h0c.25.22-.28.52.06.7a.44.44,0,0,0,.42,0c.28-.28-.33-.39-.16-.68.43-.25-.11-.44-.09-.66a.3.3,0,0,0,0-.08c.36-.68-.52-.15-.49-.5,1.34-7.4,2.9-14.79.37-22.31,1.61.9,3,2.42,2.9,3.75-.16,2.32.91,4.47.46,6.73-.21,1,.28,2.11,0,3.09-.53,1.93-.43,4-1.11,5.87-.22.61-.21,1.51-1.22,1.78-.27.07.19.8.62,1.07-.19,0-.45-.07-.47.24s.22.28.42.29a5.22,5.22,0,0,0-.47,3.41c-.4-.08-.49-.92-1.07-.49-.24.18-.18.54,0,.79.33.51.72.16,1.09.07l.07.69c-.32.49-.39-.49-.67-.13s.19.55.24.84c0,.1.13.19.2.28-.06,1.47.7,2.74,1,4.12a.46.46,0,0,0,.55.38c.38-.1.34-.35.23-.67-.6-1.81-.34-3.68-.33-5.53.33.62.88,1.16.77,1.95,1,1.63.94,3.62,2,5.26.45.7.36,1.75,1.47,2a3.63,3.63,0,0,0,1.73,3.74c-.28.86.42,1.36.74,2-.13,1.13,1,.94,1.49,1.46,0,0,0,0,0,0v0h0c-.28.94.49,1,1.17,1.47-.13-.86-.44-1.33-1.14-1.47l0-.08c.09-.92-.61-1.29-1.26-1.68.24-1-.6-1.55-1-2.3a8.58,8.58,0,0,0-1.57-3.19c.37-.78-.53-1-.74-1.49a14.57,14.57,0,0,1-.67-4.94c.26-.17,0-.66.44-.73a1.49,1.49,0,0,0,0,.21c.25.29.16.75.52,1l.52.49a23.87,23.87,0,0,0,1.41,4c.12.23.33.56.66.45s.24-.44.16-.73c-1.14-4.3-.4-8.54.39-12.77a49.43,49.43,0,0,0,1-13.83,24.65,24.65,0,0,0-.85-3.45,12.76,12.76,0,0,1,2.53,3.24.82.82,0,0,1,.14.46c-.41,2.73.56,5.38.47,8.09a5.33,5.33,0,0,1-.25,2.55c-.47.87.14,1.83-.35,2.67-1,1.62-1,3.52-1.38,5.26-.45,2-.12,4.11-.12,6.18a4.07,4.07,0,0,1,0,1.1c-.24.85.14,1.11,1,1.13-.23-5.74,1.38-11.25,1.93-16.88a24.56,24.56,0,0,0-.84-10.56,14.85,14.85,0,0,1-.39-2.54c1.39,1.14,2.84,2.41,2.81,3.72,0,1.82.66,3.49.55,5.26-.09,1.29.29,2.61.13,3.84-.26,2.07-.11,4.26-1.2,6.18-.09.15-.24.31-.22.44.26,1.49-.7,2.76-.71,4.19,0,2.23,0,4.46,0,6.69,0,.69.47.66,1,.86.08-1.59.15-3.1.23-4.6.19-4,1.33-7.84,1.71-11.79.35-3.58.49-7.19-.66-10.7-.45-1.4-.27-3-1.17-4.26,1.86.8,3.44,2.41,3.48,4s.69,3.37.54,5.1c-.11,1.23.22,2.51.12,3.71-.16,2.13-.15,4.35-1.19,6.35,0,.1-.19.22-.17.31.28,1.57-.79,2.9-.78,4.42,0,2.4,0,4.79,0,7.18,0,.89.31,1.33,1.22,1.38a46.57,46.57,0,0,1,1.06-13,38.84,38.84,0,0,0,.81-5.65c.12-3.29.28-6.61-.77-9.86,1.07.85,2.39,2,2.3,3.11-.15,1.89.67,3.58.52,5.41a15,15,0,0,0,.19,3.6s0,.08,0,.12c-.56,2-.19,4.26-1.29,6.18-.09.14-.24.31-.22.44.28,1.4-.66,2.6-.68,3.93,0,1.94.07,3.88.09,5.83,0,.5.07,1,.67.93s.28-.6.28-.91c0-4.88,1.3-9.59,1.86-14.4A26.37,26.37,0,0,0,150.52,60c-.53-1.75-.48-3.69-2.1-5.21a3.43,3.43,0,0,1,2.92,1.41A9.05,9.05,0,0,1,153,60.8c.28,2.22.49,4.45.77,6.67.35,2.91-.51,5.67-1.05,8.46a81.49,81.49,0,0,0-1.37,11.84c-.11,2.3.76,4.47,1.37,6.66.86,3.15,1.76,6.29,2.65,9.44a9.42,9.42,0,0,1,.26,2.95c-.23,5.67-1,11.31-.83,17,.11,3.35,1.24,6.49,2.09,9.68,2.12,8,5.3,15.74,7.65,23.71.07.24.17.47.22.71S164.92,158.38,164.62,158.41Zm-4.7-6.95-.13,0c0-.12,0-.34,0-.35-1.25-.28-.64-.89-.28-1.46a.74.74,0,0,0,.1-.22,5.2,5.2,0,0,1,.72,2.19Zm-7.58-.06c.18.39.51.76.25,1.24C152.31,152.26,152,151.9,152.34,151.4Zm-125-115h0v0a.81.81,0,0,1,.1,1.1c-.22-.37-.07-.74-.1-1.1v0c-.42-.46-.25-1-.2-1.51C27.54,35.31,27.33,35.85,27.38,36.36Zm1.47,6.47a1.49,1.49,0,0,1,.14,1.4l-.34-1.4-.21-1c-.09-.42-.19-.83-.28-1.25s-.15-.75-.25-1.24c.53.38.47.82.5,1.24a1.54,1.54,0,0,1,.23,1.25h0C28.93,42.13,28.87,42.49,28.85,42.83Zm.39,1.9a.85.85,0,0,1,0,.91A.89.89,0,0,1,29.24,44.73Zm1.16-9.57a1.6,1.6,0,0,1,.2,1.21l0,0v0c.44.41.19.95.24,1.42l0,0h0v0c.4.34.2.79.2,1.2l0,0v0c.47.42.2,1,.43,1.53a1.84,1.84,0,0,1-.43-1.53l0,0h0v0c-.41-.34-.18-.79-.2-1.2l0,0h0v0c-.44-.4-.19-.94-.24-1.42l0,0h0v0c-.43-.34-.16-.8-.2-1.21l0,0h0v0c-.47-.32-.13-.88-.34-1.28.44.33.29.83.34,1.28h0Z"/></g></g></svg>