<svg xmlns="http://www.w3.org/2000/svg" viewBox="0 0 259.04 213.26"><defs><style>.cls-1{fill:#042d4f;}</style></defs><title>Asset 10</title><g id="Layer_2" data-name="Layer 2"><g id="Capa_1" data-name="Capa 1"><path class="cls-1" d="M104.54,190.33l.22-.12A.32.32,0,0,0,104.54,190.33Z"/><path class="cls-1" d="M258.75,187.9a46.68,46.68,0,0,0-5.49-13c-3.1-5-7.66-7.16-13.57-6.46a48.59,48.59,0,0,1-13.14,0c-8.74-1.33-17.39-3.1-26-5-3.91-.87-7.64-2.31-11.51-3.32a80.21,80.21,0,0,1-24.68-11.53,19.24,19.24,0,0,1-3.47-2.7c4.22-1.83,6.76-5.51,10.09-8.24a2.88,2.88,0,0,0,.8-1.9,8.71,8.71,0,0,0-.5-4.65,88.12,88.12,0,0,1-3.09-9.48,2.67,2.67,0,0,0-1.19-1.68,24.63,24.63,0,0,0-9.9-2.46c-2.26-.16-2.7-.12-3.47-2.3a18.7,18.7,0,0,0-.89-2.29,27,27,0,0,1-2.66-14.08c.12-2.13.79-4.14.88-6.24.33-7.56,2.3-14.91,2.78-22.46.2-3.26,1.38-6.46,1.47-9.71.37-12.33,2.42-24.46,3.86-36.67.55-4.65,1.18-9.29,1.72-13.94a5.6,5.6,0,0,0-.5-3.92c-.44,2.47-.73,4.56-1.21,6.6s-.34,4.22-1.15,6.19l-15.2,23.09a1.18,1.18,0,0,0-.54.56l-1,1.8-.09.13q-3.18,4.77-6.38,9.53c.21-3.12-.32-6.24.71-9.18l22.23-32.87-16,22.87-.06-.15a5.43,5.43,0,0,0-.67,1,.3.3,0,0,0,0,.21l-5.5,7.86-.2-.18c0-2.47-.13-5,.94-7.28l4.93-7.38,0,0a1.46,1.46,0,0,0,.68-1.05l14.05-21L141.06,27.73a.94.94,0,0,0-.12.18l-4.77,6.86c-.68-1-.33-2.18-.27-3.24.15-2.79.24-5.58.61-8.37L146,8.22l-9.43,14.39c.29-2.64-.08-5.38.45-7.95a10,10,0,0,0,.16-1.19l5-7.55-5,7.21c.06-1.51-.14-3,0-4.46.08-.63-.34-.92-.85-1.18a.68.68,0,0,0-.76,0l1.56-2.45-1.64,2.51c-.13.09-.24.2-.37.29a2.06,2.06,0,0,0-.84,1.54l-.16.26a1.41,1.41,0,0,0-.41.62l-1,1.48-1.24.53c-1.51.55-1.68,1.56-1,2.86l-.07.1a2,2,0,0,0-.63,1l-2.69,4.1a.53.53,0,0,0-.33.5l-1.18,1.8a1.15,1.15,0,0,0-.28.42l-.37.57a2.16,2.16,0,0,0-.29.45l-2.2,3.36a1,1,0,0,0-.34.52l-.76,1.15a1.15,1.15,0,0,0-.38.5c-.45.73-.9,1.46-1.37,2.17-1.81,2.77-3.74,5.47-5.3,8.4l-2.33,3c-.38-2.66-.9-5.07,1-7.17l6-9.15c.3-.51.61-1,.92-1.52a3.62,3.62,0,0,0,.62-1l.71-1.09c.41-.21.48-.66.7-1l.7-1.05.71-1.06c.23-.35.45-.71.67-1.07s.69-.6.44-.84L133,5.07l-8.87,13.06c-.27,0-.41.44-.53.78l-.16.24a1.68,1.68,0,0,0-.54.8l-.2.28a1.75,1.75,0,0,0-.49.73l-.24.36a1.77,1.77,0,0,0-.45.66l-.3.43a1.48,1.48,0,0,0-.31.47l-4.34,6.38h0c-1.39,2.06-2.73,4.15-4,6.31-.55.37-.64,1.18-1.49,1.51.11-2.23-.68-4.3-.28-6.45a1.65,1.65,0,0,0,.67-1.05,1.49,1.49,0,0,0,.71-1.05h0a1.48,1.48,0,0,0,.67-1.07h0l.71-1.09a1.12,1.12,0,0,0,.63-1l12.14-18.6L113.76,25.47a.72.72,0,0,0-.25.37l-1.21,1.8a1.13,1.13,0,0,0-.32.46l-1.14,1.7-.37.47a2.61,2.61,0,0,0-.92-.42c-.69,0-1.54,0-1.86.67s.51.92.92,1.23.46.56.38.78l-.35.52a1.74,1.74,0,0,0-.2.3l-.09.12c-.62.24-.59,1-1,1.37l-.73,1.23L94.46,54h0c-3.44,4.76-6.6,9.7-9.82,14.6l-1.71,2.58c-.29-2.77-1.26-4.91.51-7.12a62,62,0,0,0,3.91-6c1-1.65,2.15-3.26,3.09-5h0l4.75-7.72c3.55-4.69,6.57-9.75,9.71-14.72a1.92,1.92,0,0,0,.66-1l.11-.16a1.89,1.89,0,0,0,.58-.87l.15-.22c.23-.22.52-.51.5-.73L122.14,5.07,106.5,27.43c-.25,0-.36.42-.49.7l-1.78,2.55v.12L95.58,43.7l-1.69,2.49a3.13,3.13,0,0,0-.8,1.18l-.59.87a.64.64,0,0,1,0-.07l-.94,1.5-.83,1.21h0L81.78,64.1c0-2.1-.6-3.67.38-5.21,2.15-3.41,4.34-6.8,6.34-10.29.62-1.07,1.35-2.1,2-3.19h0l8.59-13.74c.88-1.37,1.73-2.75,2.58-4.13l0-.07.18-.29c1.14-1.87,2.27-3.75,3.42-5.61a3.07,3.07,0,0,0,.73-1.24l.77-1.27a.75.75,0,0,0,.48-.78l1.1-1.81c.51-.14.6-.58.75-1l.9-1.33c.19-.3.76-.69.3-.92l.48-.81a.58.58,0,0,0,.23.06c.17-.28.31-.57.46-.86.47-.2.6-.58.72-1.21l-.24.09,3.18-5.25-3.53,5.46a1.14,1.14,0,0,0-.31.48l-.46.71v0L110,13.23c-.21.08-.33.38-.43.66l-1,1.5a1.39,1.39,0,0,0-.4.62l-1.44,2.23a1,1,0,0,0-.32.49l-.37.57v0l-.49.79L94,38a2.63,2.63,0,0,0-.46.71l-.88,1.36a3.32,3.32,0,0,0-.73,1.13l-.28.43-1.18,1.83h0L81.53,57.14a20.78,20.78,0,0,1-.63-5.64L83.74,47a36.55,36.55,0,0,0,2.64-4.2l2.53-4,.16-.26.23-.37,5.38-8.84a1,1,0,0,0,.15-.24l.73-1.19c.21,0,.32-.26.36-.59l12.25-20.1L95.53,27c-.06,0-.11.07-.12.12s-.35.39-.31.56l-2.65,4.15-.08.12-.47.75a2.77,2.77,0,0,0-.46.72L89,37.19l0,0a29,29,0,0,0-1.73,2.67l-6.46,10c0-.35,0-.69-.1-1-.34-2.83-.8-5.8.62-8.57h0L82,39.15a3.79,3.79,0,0,0,1-1.5l1.06-1.37a42.43,42.43,0,0,0,5-7.28c.71-1,1.43-2,2.13-3h0l0-.07c.48-.68.94-1.37,1.39-2.07L105.22,5.07l-6.93,9.56a.15.15,0,0,0-.13,0,1.5,1.5,0,0,0-.52.6c0,.13,0,.21,0,.26l-3.32,4.58a3.3,3.3,0,0,0-.52.71l-1.74,2.4-.07.22a46.6,46.6,0,0,0-3.31,5.12h0a70.86,70.86,0,0,0-5,7.33,3.18,3.18,0,0,0-1,1.48,3.54,3.54,0,0,0-1,1.41L81,39.82c-.22.08-.39.62-.62.24a2.55,2.55,0,0,1-.12-1.19c0-1.39.41-2.94.37-4.17L98.54,9.26,80.46,33.48c-.44-2.87-.34-5.39,1.62-7.81A21.69,21.69,0,0,0,83.9,22.9l2.29-3.56a62.43,62.43,0,0,0,3.39-5.29l2.13-3.32a2.65,2.65,0,0,0,.71-1.09L92.8,9a.3.3,0,0,0,0,.1c.35-.59.78-.9.82-1.4l.71-1.11-.71,1a1.17,1.17,0,0,0-.06-.35c-.37.38-.94.67-.81,1.59l-.24.36,0-.17A2,2,0,0,0,91.29,11l-.7,1,.12-.27a68.18,68.18,0,0,0-6.19,9l-.79,1.13h0l-3.52,5c.14-2.8,0-5.18.89-7.46L88,9.26l-6.65,8.15c-.29-2.38.79-4.54,1.61-6.68l2.2-2.88-2.09,2A4.67,4.67,0,0,0,82.63,9c-.38-.76-1.16-.67-1.86-.46a1.17,1.17,0,0,0-.93,1.31A12,12,0,0,1,80,11.47c0,1.68,1.66,3.51-.41,5-.1.07,0,.45,0,.67-.17,1.45-.26,2.92-.55,4.35a21.61,21.61,0,0,0-.26,6.54c.25,2.31-1,4.32-.49,6.62.18.76-.27,2,0,3a22.48,22.48,0,0,1,.6,8.12c-.12,1.14-.84,2.39-.28,3.4,1,1.92.83,4,1,6,.11,1.09-.14,2.24,0,3.31,1.4,7.56,1.35,15.21,1.23,22.84-.06,4,.49,7.92.14,11.89a5.24,5.24,0,0,0,.51,2.38c1.64,3.61,2.62,7.53,4.72,10.92,1.1,1.77.37,3.66.77,5.49.58-.33.59-1,1.16-1.17,1.61,3.13,1.24,5-1.51,7.66-.37-1,.25-1.78.39-2.65s.47-1.62-.37-2-1.4.35-2,.82a2.11,2.11,0,0,0-.68,1.56,26.94,26.94,0,0,0,.85,9.91c.1.33.34.75.23,1a3.07,3.07,0,0,0,.58,3.69c.24.25.41.74-.31.86-1.94.35-1.82,1.83-1.7,3.27s1.86,2.35,1.13,4c0,.06.24.23.35.36l3.11,3.33,1.06.32,1.76.45c-.63.14-1.25.33-1.72-.15l-1.75,0a2.48,2.48,0,0,0-.37,2c.07.56.31.76,1,.64,1.36-.25,2.41-1.15,4.21-.19,2.76,1.47,6.26.92,9.27,2.34a4.83,4.83,0,0,0,3.18.78,6.41,6.41,0,0,1,5.6,1.09,1.64,1.64,0,0,0,1.83.09,2.61,2.61,0,0,1,1.82-.17,35.29,35.29,0,0,0,8.88.7,7.27,7.27,0,0,1,1.68.19,73.8,73.8,0,0,0,9.62,1.64c5.63.35,6.56.69,10.76,3.72,1.88,1.37,3.33,3.21,5.44,4.35a9.93,9.93,0,0,1,3.14,2.25,13.07,13.07,0,0,0,6,4.51A12,12,0,0,1,164,170c.62.59,1,1.65,1.92,1.65,1.74,0,3.09.91,4.55,1.57,1,.45,1.91,1.14,2.94,1.53,4.44,1.68,9,3,13.47,4.69s9.13,2.37,13.71,3.48a2.18,2.18,0,0,0,.88,0c3.38-.68,6.64.21,9.91.79,3.09.54,6.14,1.23,8.83,3.33a107.94,107.94,0,0,1-25.66,2.64c-7.19-.15-14.42-.17-21.59.31q-15.47,1-30.93.57c-10.12-.3-20.22-1.1-30.32-1.93-11-.9-21.89-1.82-32.54-4.76-1.37-.37-3.27-.28-4-1.16s-.43-2.8-.57-4.26c-.44-4.56.46-9,1.43-13.38a57.28,57.28,0,0,1,3.1-6.83c2-3.67,3.84-7.48,5.71-11.25a6.19,6.19,0,0,0,.81-3.37c0-.4-.06-.86-.5-1.06s-.79.09-1,.44a1.46,1.46,0,0,1-1.36.61,58.69,58.69,0,0,0-8.87,1.17A94.92,94.92,0,0,1,61,146.29a48.76,48.76,0,0,0-12.8,1.53c-1.75.5-3.49.93-5.28,1.27-6.4,1.19-12.72,2.26-19.29.66-4.55-1.12-8.4-3.6-12.67-5.23-.55-.21-.36-.62-.31-1,.31-2.32.65-4.64.9-7,.36-3.38,1.84-6.41,3.12-9.45.77-1.81,2.38-3.26,3.62-4.87.55-.22.87.45,1.46.31,1.52-.35,2.85-1.18,4.69-.54a7.92,7.92,0,0,0,4.81-.21,7.35,7.35,0,0,1,2.7-.64A10.69,10.69,0,0,0,37.74,120a5,5,0,0,1,4.18-.33,1.6,1.6,0,0,0,1.79-.39,2.57,2.57,0,0,1,1.87-.7,50.27,50.27,0,0,0,7.65-1.7,9,9,0,0,1,2.14-.5c4.69-.22,9.37-.62,14.06-1a2.49,2.49,0,0,0,1.3-.46c1.54-1.15,3.38-1.58,5.11-2.26a33.68,33.68,0,0,0,8.28-4.53c.53-.41,1-.77.65-1.67-.69.32-1.36.62-2,1a12.3,12.3,0,0,0-1.37.77,29.35,29.35,0,0,1-16.79,5.19,31.76,31.76,0,0,0-11.83,1.95,26.17,26.17,0,0,1-3.22.82c-6.25,1.47-12.7,2-18.87,3.89a17.43,17.43,0,0,1-8.12.25c-1.73-.3-3.27-.93-4.25,1.14-1.29-1.38-2-1.26-2.88.19-1.22,1.9-1.25,4.16-2.7,6.18-2.11,2.93-2.77,7-2.93,10.59-.09,2.28-1.19,4.19-1.26,6.46,0,1.64-.18,3.35-.21,5s.47,3.38-.19,5c-1.23,3.1,0,6.12.38,9.16a1.74,1.74,0,0,0,.85,1.28c1.55.93,2.93,2.1,4.74,2.6a93.44,93.44,0,0,0,20,3.71c4.3.23,8.51-.45,12.77-.43a8.17,8.17,0,0,0,3.38-.86,18.48,18.48,0,0,1,3.84-1.23c7-1.52,14-3.05,21-5.08.3-.09.57-.09.68.29-.86,1.09-1.91,2-2.17,3.53a38.7,38.7,0,0,0-.1,13.45c.29,1.69.31,3.35-1,4.75a4,4,0,0,0-1,2.58,40.79,40.79,0,0,0,1.48,14.41,3.8,3.8,0,0,0,1.56,2.26,23.7,23.7,0,0,0,7.21,3.08c5.85,1.43,11.85,1,17.76,1.69,6.47.79,13.09.11,19.64.27a138.21,138.21,0,0,1,14.7,1.12,66.49,66.49,0,0,0,16.43.43,13.82,13.82,0,0,1,3.34,0,93.2,93.2,0,0,0,11.93.61,9.43,9.43,0,0,1,4.54.69h1.05c.94-.75,2-.3,3-.33,2.05-.07,4.1,0,6.15,0h6c6.91-.09,13.78-.65,20.65-1.41a217.78,217.78,0,0,0,23.83-4c5.51-1.24,10.6-3.63,15.67-6,2-.94,4-2,5.94-3,3-1.5,5.5-3.49,6.74-6.74v-3.51C258.94,188.15,258.79,188,258.75,187.9ZM63.66,148.24l1.83,0,1.41-.35c2.38-1.43,5.13-1.25,7.72-1.76,1.24-.24,2.52-.3,3.78-.44h0l.16,0a2.38,2.38,0,0,1,.81-.14l3.48-.62c-1,1.16-2.09.89-3,1.13a121.56,121.56,0,0,1-12.6,2.2,2.68,2.68,0,0,1-1.82.28,1.44,1.44,0,0,1-1.47.31H60.61A5,5,0,0,1,63.66,148.24Zm-9.12,1a.76.76,0,0,1,.9-.25c.06,0,.11.2.08.28-.11.34-.39.33-.68.28-5.92.69-11.63,2.93-17.75,2.21C43,151.45,48.48,148.52,54.54,149.2Zm-41-2.1c0-.12.2-.2.29-.28.28.05.52.1.44.4a.43.43,0,0,1-.32.25C13.71,147.47,13.45,147.4,13.51,147.1Zm-3.22,6.14c.4.86,1.3,1,1.93,1.59.19.18.57.28.46.64a.48.48,0,0,1-.69.33c-.89-.55-1.2-.14-1.39.7a.58.58,0,0,1-.68.41c-.37-.09-.3-.45-.28-.72C9.7,155.19,9.35,154.09,10.29,153.24Zm-.78,7.28c.06-.39-.56-1.25.57-1.12.21-.88,1.38-.93,1.58-1.88.08-.38.48,0,.71.07.57.21.41.71.18,1A19.52,19.52,0,0,1,11,160.15l-.75,1C9.24,161.75,9.45,160.87,9.51,160.52Zm.16,2,1.83,1.28c-.19-.83-.73-1.66.6-2.07.44-.13.68-.92,1-1.41.53-.84,1.09-1.57,2.27-1.32a.8.8,0,0,0,.94-.29c.89-1.86,2.67-1.42,4.22-1.85,0,1.46-1.31,2.25-1.18,3.53-.55-.65-1.05-1.49-1.89-.28-.34.5-.86.47-1.4.43s-.91.07-.89.59c.05,1.09-.71,1.55-1.47,1.94a1.43,1.43,0,0,0-.67,2.3A3.91,3.91,0,0,1,9.67,162.55Zm3.64-5.47c.85-1.09,1.45-.86,2.2-.47C14.89,157.43,14.22,156.82,13.31,157.08ZM74,163.26c-4.57.42-8.89,2-13.32,3-9,2.15-18,3.52-27.27,2.91-4.72-.31-9.41-.78-14.1-1.32a5.89,5.89,0,0,1-1.36-.34c-.76-.3-.7-.67,0-1,.45,0,.76-.16.73-.71a1,1,0,0,0-.79-1,6,6,0,0,0-1.35-.08c-.33,1.39-.79,2.53-2.53,1.41-.71-1.87,1.2-1.45,1.87-2.12,0-1,.34-1.65,1.45-1.55s.77-1.39,1.63-1.6c.86,2,.22,4,.35,6,.84.55,1.41-.06,1.33-.67-.52-3.64,1.86-6.53,2.44-9.88.16-.91.05-1.09-.76-.9-4.69,1.11-8.41-.88-12-3.57-.85-.64-.13-1.26-.41-1.83v-2.68c.54.58,0,1.39.66,1.89.59,0,1.17,0,1.76,0,1,.06,2-.57,3.1.77.72.84,2.76,1.28,4.29,1.63,1.88.42,3.77.53,5.61,1.42s4.24.59,6.4.4a2.86,2.86,0,0,1,.86-.07c5.69,1.43,11.15-.1,16.64-1.27a9.06,9.06,0,0,1,1.38,0c4.05-.26,8.09-.75,12.13-1.07,5-.39,9.48-2.8,14.47-3a40.69,40.69,0,0,0,4.37-.69c-1.29,3.51-2.88,6.62-3.87,10A23.55,23.55,0,0,0,76.63,161C76.41,162.6,75.54,163.12,74,163.26Zm173.79,9c.44.3,1,.57.58,1.21a12.69,12.69,0,0,1-1.77,2.38,32.8,32.8,0,0,1-10.42,6.61,1.59,1.59,0,0,1-1.35.45,2,2,0,0,1,1.32-.92,44.91,44.91,0,0,0,9.16-7.26,8.23,8.23,0,0,0,1.63-2C247.14,172.26,247.26,171.85,247.81,172.22Zm-20.91-1.66c.74-1.31,1.83-.26,2.66-.17a81.52,81.52,0,0,0,11.05.25,12.18,12.18,0,0,1,6.14,1c-4.57,4.19-9,8.09-14.49,10.71-.84.4-1.37.31-1.66-.5a25.3,25.3,0,0,0-3.58-7.09,2.51,2.51,0,0,1-.29-1.18A4.89,4.89,0,0,1,226.9,170.56Zm-14-1.39c.61,2.66,1.45,5.32.1,8.31-2.26-3.29-2.75-6.95-3.35-10.59C212.31,166.84,212.34,166.85,212.87,169.17Zm1.33,9.28a2.29,2.29,0,0,1,.62.1c-1,1.61-2,2-2.76,1.12-.28-.31-.59-.8.13-.82S213.53,178.53,214.2,178.45Zm-5.64-11.82c-.86.1-1.87,1.37-2.5-.42C207,166,207.73,166.56,208.56,166.63Zm-.43,2.54c-.65-.09-.73-.77-1-1.24.49.22,1.12.08,1.35.6C208.55,168.67,208.22,169.18,208.13,169.17Zm-4.07-3.44c1.14,1.14,3.46,5.8,3.53,7.41-2.42-2.29-3.43-5.2-5.45-7.56C203,165.36,203.58,165.25,204.06,165.73ZM197,164.06a4.42,4.42,0,0,1,2.35.52c.47.23-.17.66-.26,1,0,.15-.09.3-.2.63,1.69-.85,2.17.61,3,1.35a2.47,2.47,0,0,1,.41,3,7.45,7.45,0,0,1-2.32,1.89c-.32.18-.54-.33-.67-.65-.9-2.14-2.14-4.16-2.36-6.54C196.86,164.82,196.44,164.11,197,164.06Zm-12-3.68c-2.67,3-6,5-9.43,7,.21-2.85,2.67-3.95,4.4-5.25C181.24,161.19,182.58,159.08,185,160.38Zm-.39,7.49c-1.48-.65-1.47-2.1-2-3.19-.2-.42.51-.67.86-.89s.52.2.63.51A5.23,5.23,0,0,1,184.63,167.87Zm-8.2,3.16c-.56.39-.78-.15-1.11-.4h-1.6l1.59-.6c.45.07,1-.45,1.31.25A.6.6,0,0,1,176.43,171Zm3.41-11.52c0-.48.3-.89.9-.8.41.06.55.34.55.74,0,.67-.28.7-.63.33C180.24,159.85,179.79,160.14,179.84,159.51Zm-4.21-2.34c.57-.35,1.09-.61,1.21.5a1.47,1.47,0,0,0,1.16,1.48c.75.18-.49.93,0,1.31,1.61,1.37-.19,1.45-.73,1.74-1.57.81-1.24-.23-1-1.13-.16-.59.2-1.23-.6-1.78A1.23,1.23,0,0,1,175.63,157.17ZM174.05,156a109.42,109.42,0,0,1-9.8,5.66,1.21,1.21,0,0,1,.56-1.22,72,72,0,0,1,6.37-4.74A2.07,2.07,0,0,1,174.05,156Zm.19,4.35c-.11.38-.21.77-.33,1.15s0,.64-.39.69-.64-.23-.75-.58a12.29,12.29,0,0,1-.66-2.48c-.06-.66.74-.78,1.22-1s.49.32.57.64Zm-9.52,3.59c0,.31-.13.55-.5.54-.52,0-.68-.47-.73-.82-.07-.55.44-.32.7-.36C164.69,163.17,164.75,163.5,164.72,163.89ZM161.32,150c.87-.28,1,.26,1.08.87.08.46.21.91.27,1.21-.06.67.05,1.41-.58,1.47s-.57-.78-.76-1.22,0-.86-.17-1.19S160.41,150.27,161.32,150Zm3.45-28.26c.13-.39-.1-1,.71-.86.32.28,1.27.1,1,.67-.83,1.81,1.27,2.57,1.25,4.11s.87,3,1.46,4.45-.08,3,.13,4.51-.87,2.67-2.26,3.41a1.19,1.19,0,0,0-.52.68c-1,3.25-3.75,4.41-6.4,5.77-.68.35-1.09.07-1.55-.34a32,32,0,0,0-4.48-3.66c-.69-.42-.42-.76-.15-1.25a5.69,5.69,0,0,0,.54-4.88c-.51-1.42,1-1.33,1.56-1.37a5.64,5.64,0,0,0,4.17-2.62,22.47,22.47,0,0,1,3.2-3.26C164.91,125.56,164.19,123.46,164.77,121.7Zm-10,0c0-.41,0-.82,0-1.23.13-1.17,1-1.62,2.23-1.46q2.08.29,4.17.63c1.78.29,2.35,1,2.09,2.67a4.62,4.62,0,0,1-2.2,3.76,3.1,3.1,0,0,0-1.34,1.92c-.74,2.43-3.06,3.07-5.11,3.76-.8.27-2.12,1-2.73.08-.5-.76.58-1.64,1-2.39C154.43,127,154.64,124.34,154.79,121.65Zm-8.44,23.08c-.25.14-.47.37-.91.13,2.88-3.42,6.11-8.8,6.72-11.18,1.54,1.76,1.58,2.8.32,4.72A19.52,19.52,0,0,1,146.35,144.73Zm3.89-1c-1.08,2.17-3.2,3.22-5.11,4.5C146.41,146.25,148.36,145,150.24,143.72Zm1.13-17.94c-2.26,3.12-4.17,6.49-6.14,9.81-1.47,2.45-3.92,2.89-6.7,3.67a40.57,40.57,0,0,0,5-7.79,24.36,24.36,0,0,1,4-6c1.65-1.92,2.48-4.37,3.85-6.47.34-.53.67-1.08,1.19-1.9C153.57,120.39,153.32,123.09,151.37,125.78ZM149.32,132a8.09,8.09,0,0,1-2.64,3.38C146.9,133.41,148.36,132.88,149.32,132Zm1.39-14c-3.93,5.38-7,11.35-11,16.68-1.12,1.49-2.16,3-3.25,4.56-.8,1.11-2.08.4-3.23.67,1-1.44,1.94-2.87,2.86-4.33,1.89-3,4.22-5.75,5.16-9.27a1.32,1.32,0,0,1,.4-.57c3.17-2.69,4.72-6.49,6.82-9.91.67-1.09,1.5-2.07,2.28-3.12C152.25,114.56,152.05,116.12,150.71,118ZM135.3,145c.16,0,.39.13.25.32s-.38.77-.91.5C134.51,145.24,134.76,145,135.3,145ZM109.73,47.14a8.28,8.28,0,0,1-.62.76l.07.07-1.8,2.76h0l-1.27,2h0q-9.53,14.79-19,29.58L83.36,88c0-1.68,0-3.27,0-4.86a2.79,2.79,0,0,1,.54-1.45c5.76-9.9,12.65-19.09,18.57-28.9a37.49,37.49,0,0,0,3.14-5.6l.24-.38a5.24,5.24,0,0,0,.75-1.54l.16-.12a2,2,0,0,0,.24-.39s0-.07,0-.11a3.48,3.48,0,0,0,1-1.37l.63-.89.11-.16c.46-.35.55-1.15,1.2.19a4.17,4.17,0,0,1,0,4.32Zm6.5-1.49h0a25,25,0,0,0,3.14-5.39,63.49,63.49,0,0,0,5.09-7.51l7.06-10.69a.67.67,0,0,1,.41.62c.16,2.71.3,5.42-.65,8l-.64,1a1.53,1.53,0,0,0-.26.4l-.37.56a1.75,1.75,0,0,0-.37.57l-.31.47a1.85,1.85,0,0,0-.39.55c-.11.11-.22.22-.31.33a6.08,6.08,0,0,0-.33.68L114.63,56.09a2.43,2.43,0,0,0-.19.29l-.07.11c-.13.17-.26.22-.44-.33a12.25,12.25,0,0,1-.9-5.49ZM114,78.73c-.27-2,.87-3.38,1.87-4.89,2.55-3.82,5-7.69,7.5-11.57h0l5.37-7.93.75-.84c-.18,1.55-.13,2.75-.76,3.79a5.3,5.3,0,0,0-.49,4.08,3.66,3.66,0,0,1-.56,3.1c-.2.3-.4.61-.59.92l0,0h0q-8,12.35-15.81,24.76c-.79,1.26-1.41,1.33-2.57.66-.94-.55-1.65-1.56-3.07-1.4,1.86-3.95,4.42-7.19,6.85-10.55.36.45.2,1.39,1,1.27S114.06,79.21,114,78.73Zm18.36-19.17a15,15,0,0,1-.32,4.68l-2.69,4.12c.23-1.57.21-3.15.43-4.67Zm24.89-33.75c-.36,3.1-.69,6.21-1.09,9.31a2.69,2.69,0,0,1-.14.54l-.67,1.06,0,0,0,0h0v0l-3.77,6a1.4,1.4,0,0,0-.49.78L136.18,67.21h0l-2.77,4.25-.48,1a1.52,1.52,0,0,1,.11-1.7l.75-6.79a2.12,2.12,0,0,1,.11-.45Zm-1.3,10a2.94,2.94,0,0,1-.39.66Zm-16.21,57.9c.72-.86.58-2.62,2.58-2.38A11.18,11.18,0,0,1,140.49,94c-1.82,2.85-3.62,5.71-5.46,8.55-.27.42-.56,1.29-1.22.46-.51-.64-2.17-.75-1.19-2.19a50.69,50.69,0,0,0,3.63-5.25l1.39,1.29C137.06,94.8,138.81,94.58,139.74,93.73Zm5.75-4.8,2.22-3.41a8.36,8.36,0,0,0,.71-1.51l.75-1.27c.55.14.3.65.24,1.09-.2,1.44-.41,2.88-.57,4.33a5.15,5.15,0,0,1-.94,2.41q-4.29,6.39-8.52,12.84c-1.47,2.25-1.44,2.27-3.8.67q4.95-7.55,9.89-15.11h0Zm2.77,6.18c.24,5-3.24,8.21-5.64,11.91-.83,1.28-1.89-.31-2.81-.61-1.08-.34-.15-1,.07-1.3,2.62-4.08,5.29-8.12,7.94-12.18a.93.93,0,0,1,.72-.78C148.38,93.19,148.73,94.17,148.26,95.11Zm-13.2,15c-.52,1-1,.88-1.89.43-1.18-.61-1.24-1.17-.53-2.25,1.54-2.34,1.48-2.38,4.57-1.54C136.43,108,135.66,109,135.06,110.15Zm6.33-1.21c-.65,1-1.38,2-1.95,3.07-.48.92-1,1-1.93.68-2.09-.82-2.11-.77-.94-2.68C138.35,107.1,138.35,107.1,141.39,108.94Zm-7.18,5.29c.52-.88.89-1.08,2-.67,1.6.61,1.62,1.18.65,2.4a30.91,30.91,0,0,0-2,3.22,9.71,9.71,0,0,0-.93-2.45C133.24,115.76,133.72,115.07,134.21,114.23Zm.47,10.37c-.89-4.17,2.26-6.35,4.32-9,.89-1.15,1.82.25,2.88.31l-7.28,11.6-.4-.22A7.39,7.39,0,0,0,134.68,124.6Zm6.14-12.4c.23-.41.48-.8.72-1.2,1-1.62,1.64-1.72,3.18-.51.26.21.46.4.28.69-.74,1.18-1.51,2.34-2.29,3.49-.07.12-.28.15-.34.18A1.77,1.77,0,0,1,140.82,112.2Zm2.39-4A73.23,73.23,0,0,0,147.6,102c1.38,2.64,1.14,3.71-1.72,7.7A7.32,7.32,0,0,0,143.21,108.2Zm-11.59-.57c-.25.35-.36,1-1,.81s-.64-.61-.81-1c-.46-1.26-.43-1.38.95-3.45C133.3,105.29,133.31,105.29,131.62,107.63Zm-1.34,5.18c1.76,2.32,1.76,2.32-.26,5.14C128.13,114.92,128.14,114.88,130.28,112.81Zm-2.49,16.6a71.42,71.42,0,0,0-5.28,7.86c-.94,1.49-2,2.47-3.92,1.57,3-6,7.54-11,10.6-17.11C130.43,124.83,129.72,127.11,127.79,129.41ZM129,111.7c-.43.53-.8,1.12-1.35,1.89l-1.12-2.2c-.44-.85.22-1.32.69-1.77s1-.08,1.33.32S129.6,110.89,129,111.7Zm-2.14-10.82.27,5C124.93,105.51,124.81,104,126.81,100.88Zm-.6,7.55-.41.39a2.82,2.82,0,0,1-.23-.61c0-.21,0-.53.33-.41A.48.48,0,0,1,126.21,108.43ZM122.78,104c-.64.31-1.18-.53-1.82-.75-.4-.14-.53-.33-.29-.76.52-.9,1-1.84,1.48-2.77.18-.35.44-.55.83-.39s.59.38.4,1.14c0,.35-.11,1-.2,1.74S123.35,103.72,122.78,104Zm-31,13c0-.62.47-.71.86-1s.59.09.84.32.55.66.18,1.18c-.55.77-1,1.6-1.53,2.4l-.34-.08C91.81,118.86,91.82,117.91,91.8,117Zm-.06-.9c-.79-2.29.88-3.29,1.59-4.94.61,1,.59,1.9,2,2.13,1.15.19-.06,1.36-.43,2.16C93.59,113.44,92.71,114.86,91.74,116.05Zm3.35-8c1.83-3,3.81-6,4.65-9.56.14-.58.71-1,1.08-1.58,1.05-1.47,2.08-3,3.17-4.41.51-.69.6-1.67,1.47-2.09,0,1.23,1.23.74,1.71,1.32a2.08,2.08,0,0,0,1.54.73c.32,0,.73,0,.7.6-.46.55-.6,1.44-1.4,1.67-.51.15-.9.31-1,.84-.52,3.32-2.72,5.76-4.45,8.44s-3.47,5-5.12,7.53c-.57.87-.9.69-1.6.19C94.41,110.65,94.05,109.74,95.09,108Zm2.59,7.1c.72.29,2,.26,2.06,1.34a2.37,2.37,0,0,1-1.32,1.9c-.78-.59-1.75-1-1.92-1.92C96.41,116,97,114.83,97.68,115.11ZM99.09,114c-1.22-.73-.18-1.39.2-2,1.9-3,4-5.92,5.38-9.21a23.26,23.26,0,0,1,3.72-5.62c.24-.3.8-.84.83-.72.23,1.11,1.86.78,2,2-.08.14-.18.28-.26.44-2.72,5.18-6,10-9.23,14.88C100.8,115.11,100,114.55,99.09,114Zm10.65-18.58a5.92,5.92,0,0,1,.64-1c.23-.24.22-1.13.83-.54s2.11.62,1.55,2.07c-.23.61-.62,1.24-1.28.33C111.06,95.73,110.36,95.82,109.74,95.45Zm-8.42,22.69a2.3,2.3,0,0,1,1.46,1.56c-.13.3-.36.73-.53.6a8.84,8.84,0,0,1-1.64-1.65C100.52,118.53,100.9,118,101.32,118.14ZM103,115a45.57,45.57,0,0,0,4.68-8.21c1-2.61,2.85-4.49,4.34-6.67.25-.37.43-.89.91-.82.91,0,1.93,1.89,1.48,2.65-1.34,2.26-2.66,4.54-4.1,6.74-1.7,2.59-3.49,5.12-5.28,7.65-.25.34-.39,1.46-1.14.61C103.43,116.43,102.07,116.33,103,115Zm23.85-22.32a2.19,2.19,0,0,1,.14,1.71C126.5,93.9,126.75,93.44,126.81,92.64Zm-.59,6.08c-.24-.56.13-.92.44-1.61C126.7,98,126.86,98.47,126.22,98.72Zm.54-21.58a14.59,14.59,0,0,1-3.11,10.12,68,68,0,0,0-4.6,7.26c-1,1.74-1.83.25-2.7,0-1.21-.36-.63-1.07-.24-1.71l10.28-16.73c.08-.33.17-.65.59-.76A2.25,2.25,0,0,1,126.76,77.14Zm-7.63,20.39c.55.57,1.6.45,1.89,1.24a10.8,10.8,0,0,1-2,3.09,3.76,3.76,0,0,1-1.77-1.57A8.92,8.92,0,0,1,119.13,97.53Zm-2.07,0a3.39,3.39,0,0,1-1.2,1.71c-.28.17-2.32-1.66-2.16-1.89.42-.6.23-1.7,1.35-1.74A2.5,2.5,0,0,1,117.06,97.54Zm-12.72,23.14a1.9,1.9,0,0,0,2.13,1c-.3.73-.43,1.59-1.09,1.55a2.77,2.77,0,0,1-1.75-1.05C103.18,121.62,104,121.25,104.34,120.68Zm1.85-2.82a65.62,65.62,0,0,0,5.8-9.77,17.44,17.44,0,0,1,3.23-5.08c.5-.53.82-1.6,1.85-.81a1.72,1.72,0,0,1,.44,2.58c-1.42,2.34-2.7,4.77-4.26,7-1.76,2.54-3.46,5.12-5.21,7.67-.2.3-.26.81-.81.75A1.5,1.5,0,0,1,106.19,117.86Zm3.49,2.51a64.53,64.53,0,0,0,5.55-9.52,24.89,24.89,0,0,1,3.8-6c.21-.26.33-.64.76-.65a2.17,2.17,0,0,1,1.47,2.79c-2.85,5.11-6.52,9.68-9.69,14.57-.7,1.08-1.28.35-1.89.12C108.66,121.31,109.42,120.78,109.68,120.37Zm13.06-24.06c-1,1.48-1.89.32-2.64,0-1-.41,0-1,.21-1.5,1.37-2.83,3.45-5.18,5.22-7.77C125.1,90.32,124.67,93.51,122.74,96.31Zm5.71-11.14L128,86.6a6.17,6.17,0,0,1,.07-3.56,5,5,0,0,1,1.38-2.32,11.9,11.9,0,0,1-1,4.45Zm.38-6.41c-.15.17-.28.34-.66.81a36.23,36.23,0,0,1,1.44-9.23l2.32-3.73a3.58,3.58,0,0,1-.26,1.71C131.14,71.92,131.43,75.73,128.83,78.76Zm-3.1-3.92c-3.71,5.66-7.11,11.54-10.65,17.31-.38.61-.62,1.76-1.76.89-.77-.59-1.89-.86-.93-2.4,4.88-7.77,10.11-15.32,15-23.14h0l.42-.67C127.29,69.56,127.38,72.33,125.73,74.84Zm-15,4.38c-2,2.63-3.73,5.52-5.58,8.3-.32.47-.53.91-1.32.89a1.54,1.54,0,0,0-1.27,2.3c.32.4.37.53.17.9-3.12,5.75-6.31,11.47-9.9,17a.54.54,0,0,1-.24-.09c-1.88-1.84-1.83-1.81-.52-4.13,1.75-3.1,3.9-6,4.82-9.5a1.94,1.94,0,0,1,.47-.74c3.8-4.07,5.94-9.23,9-13.8,1.91-2.87,4-5.63,6.08-8.57A8.41,8.41,0,0,1,110.69,79.22Zm-20.31,33c-.38-.91-.69-1.72-1.06-2.49-.28-.58-.21-1.1.35-1.31s.73.1,1.07.68C91.4,110.26,91.66,111.13,90.38,112.23Zm4.08,7.15c.46-.94,1-2,2-.1.72,1.4,1,1.3,0,2.86-2.32,3.51-4.68,7-7.12,10.61-2-2.33-2-2.33-.45-4.68C90.73,125.18,93,122.51,94.46,119.38Zm-3.24,14.13c2.54-4.44,5.92-8.35,8.11-13,1.83,1.52,1.41,2.91.24,4.51-2.27,3.11-4.39,6.33-6.55,9.52-.4.58-.69.83-1.36.33S90.81,134.24,91.22,133.51ZM95.08,135c2.08-3.74,5-6.9,7-10.74.32-.65.73-1,1.32-.37.44.44,1.77.43,1,1.55-2.43,3.72-4.93,7.41-7.4,11.11a.71.71,0,0,1-.83.36c-.48-.19-1.25-.16-1.6-.73C94.31,135.73,94.86,135.34,95.08,135Zm4.19,1.6c.07-.09.12-.19.19-.29,2.84-4.14,5.56-8.35,8-12.71.65-1.15,1.25-.78,2.06-.35,1.17.64.16,1.19-.1,1.65-2.46,4.26-5.59,8.06-8.23,12.19a1.12,1.12,0,0,1-1.34.58C99,137.68,98.65,137.43,99.27,136.56Zm4.75-.26c2.29-3.52,5-6.8,6.9-10.57.36-.69.73-1.58,1.84-1a.62.62,0,0,0,.78-.23c.26-.3.09-.55-.17-.72-.9-.59-.37-1.14,0-1.71a63.12,63.12,0,0,0,6.17-10.19,17.53,17.53,0,0,1,3.68-5.32c.68,3.18,1,5.86-1.24,8.62-5.54,6.74-9.89,14.35-15.18,21.29-1,1.38-2,1.9-3.73,1.32C103.42,137.27,103.71,136.78,104,136.3Zm20.5-23.37a1.34,1.34,0,0,0,.21.26c1.93,1.82,1.35,3.48-.07,5.36q-6.48,8.61-12.36,17.66c-1,1.52-2.11,2.22-4,1.65C113.68,129.43,120,121.74,124.52,112.93Zm-.66,9.19a14,14,0,0,0,2.06-4.23A1.56,1.56,0,0,1,127,116.6c.68-.11.79.72,1.09,1.18a2.92,2.92,0,0,1-.14,3.8,170.79,170.79,0,0,0-10,14.65c-1.11,1.84-2.25,3.16-4.59,1.85C116.43,132.47,120.62,127.61,123.86,122.12Zm-4.38,19.11c-.8,1.15-1.57,2.1-2.16,3.15-.8,1.43-1.75,2.31-3.45,1.45C115.05,142.3,116.6,141,119.48,141.23Zm-.19,3.75a13.57,13.57,0,0,1,1.14-1.76C122,141,122,141,125,141.33c-1.31,1.75-2.51,3.44-3.81,5.06a1.77,1.77,0,0,1-2.39.13C118.07,146,119.05,145.48,119.29,145Zm4.26-5.72a74.74,74.74,0,0,1,6.49-10,4.16,4.16,0,0,1-.16,4.62,42.18,42.18,0,0,0-2.52,4C126.5,139.57,125.39,140.18,123.55,139.26Zm7.44-3.58c1,4.24.64,4.75-2.9,4.07A27.39,27.39,0,0,1,131,135.68Zm.35-11.58c-1.6-4.1-1.48-4.79,1.24-7.21C133.47,119.54,134.08,122.05,131.34,124.1Zm1.39.89c.12-.19.22-.52.36-.53.47,0,.31.37.27.59a4.9,4.9,0,0,1-.29,1,18.78,18.78,0,0,1-.88,4.72C131.52,128.59,131.22,126.69,132.73,125Zm.78,18.65c-.57-2.26-.57-2.26,1.3-2C134.66,142.48,133.91,142.91,133.51,143.64Zm15.21-30.3c-4.32,6.31-8.07,13-12.6,19.17-.69.94-1.41,1.85-2.37,3.09a11.43,11.43,0,0,1,1.33-6.49c4.13-7.07,8.9-13.72,13.24-20.65.15-.24.35-.44.54-.69C150.44,110.77,150.47,110.79,148.72,113.34ZM149,82.43l-.26.33c-1.44,1-2,2.64-3.08,3.94a13.77,13.77,0,0,1-5.16,2.58c1.14-1.89,2.26-3.75,3.39-5.6h0l6.86-10.42C150.28,76.38,150.56,79.6,149,82.43Zm3.24-16.58a11.75,11.75,0,0,1-1.8,6.1l-5.07,7.63h0l-1.76,2.65h0c-3.8,5.74-7.59,11.47-11.42,17.18-.4.58-.49,1.7-1.9,1.12s-1.68-1.15-1.41-2.44a5.5,5.5,0,0,1,.79-2.28c4.8-6.47,8.82-13.45,13.06-20.29a3.29,3.29,0,0,0,.35-.76l9.52-14.4C153,62.41,152.25,64.12,152.27,65.85Zm.08-6.53c-.44.76-.91,1.51-1.38,2.25L140.32,77.36l-.49.72-.15.23h0c-3.06,4.6-6,9.3-9,13.92-.34.51-.47,1.22-1.21,1.41A22.61,22.61,0,0,1,133.85,81c.46-.61.9-1.23,1.34-1.85h0l.05-.07a56.45,56.45,0,0,0,3.09-4.88L153.61,50l.32.1C154,53.28,154,56.45,152.35,59.32ZM155.86,38c-.31,2.71-.67,5.42-1,8.14a8.59,8.59,0,0,1-.91,3.18l-14.55,21.3a34.33,34.33,0,0,0-2.05,3l-.23.34c-1,1.38-1.91,2.77-2.88,4.2v0h0c-.82,1.22-1.65,2.46-2.53,3.74a17.65,17.65,0,0,1,2.94-10.53,9,9,0,0,0,.91-1.7L151.22,43.7h.17s0,.09-.07.13a9.79,9.79,0,0,0-.64,1.14c.51-.21.56-.85.86-1.26a1.51,1.51,0,0,0,.45-.78l.06-.32-.21,0,3.53-5.86C156.13,36.89,155.92,37.48,155.86,38Zm1.65-13.56a8,8,0,0,1-.25,1.35v0L139.75,52.49l0,0h0l-1,1.55-4.81,7.34a1,1,0,0,1-.13-.31,3,3,0,0,1,.25-2.27,6.3,6.3,0,0,1,.24-2.31l23.49-37.61a1.42,1.42,0,0,1-.08.18h0C158.47,20.85,157.55,22.61,157.51,24.39ZM133.27,48c-.32,1.46,0,3-.72,4.37a5.11,5.11,0,0,0-.21,3.61,2.29,2.29,0,0,1-.1,1.62l-1.29,2-.08-.05c-.07.27-.39.66-.45.57a1.21,1.21,0,0,1,.13-1.34c.32-2.66.63-5.34,1-8a2.86,2.86,0,0,1,.23-.8l.77-1.14C132.75,48.49,133,48.23,133.27,48ZM132,47.8l-.05-1h0a33.27,33.27,0,0,1,.87-5.88A6.06,6.06,0,0,1,132,47.8h0c0,.11,0,.24,0,.32s-.3.18-.28,0a6,6,0,0,1,.13-.72A.73.73,0,0,0,132,47.8Zm-2.26-2.14a8.17,8.17,0,0,1-1.17,7.48l-.1.15c-.2.29-.42.57-.66.86a10.54,10.54,0,0,0-1,1.48l-3,4.31h0c-3,4.09-5.81,8.34-8.68,12.53-.29.42-.56.85-.91,1.38a6.93,6.93,0,0,1,1-6.56c2.17-3.09,4.17-6.29,6.23-9.44l6.21-9.28A34.78,34.78,0,0,1,129.73,45.66ZM127,48a7.71,7.71,0,0,0-.65.93l-4.25,6.12-.06.22-7.83,11.16c.53-3.09-.23-6.29.72-9.3l14.34-22.55c.43-.19.6-.67.83-1.09h0l.7-1.05h0a1.81,1.81,0,0,0,.54-.78.88.88,0,0,0,0-.29c.71-.24.66.35.59.66-.52,2.14-.19,4.35-.53,6.5a18.3,18.3,0,0,1-1.75,5.57Zm7.85-21.28c-.77,2.76.5,5.81-1.15,8.45-.2,1.16.73,2.41-.3,3.5-.17.25-.39,1-.6.2a3.23,3.23,0,0,1,.25-2.3,38,38,0,0,1,.35-5.43,9.24,9.24,0,0,1,.31-3.55l1.13-1.78Zm-1.24.43c-.3-.25-.14-.64-.08-.93a11.85,11.85,0,0,0-.06-5,4.42,4.42,0,0,1,.11-2.23l1.26-1.91c.84,1.55.23,3.18.22,4.77a18.23,18.23,0,0,1-.24,2.07,2.61,2.61,0,0,0-.17,1.18c.07-.39.13-.78.17-1.18l0,1.4Zm1.59-10.65.49-.74A2.44,2.44,0,0,1,135.16,16.54Zm-1.42-6a.57.57,0,0,0,0,.13c.23,0,.4-.34.63-.4a.4.4,0,0,1,.38.1,25.91,25.91,0,0,0,.79,3.15,3.57,3.57,0,0,1,.27,1.67l-1.75,2.56.06-.14c-1-.25-.6-1.09-.74-1.7-.26-1.16-.47-2.34-.71-3.51l.13,0c.28-.12.28-.41.32-.69l-.14.06Zm-19,30.09h0l.13-.19a118.3,118.3,0,0,0,6.42-10.12c.26-.45.52-.9.79-1.35H122l.28-.44c.67-.18.81-.77.92-1.36l-.06,0,1.61-2.54c.61,0,.7-.56.91-1a2.39,2.39,0,0,0,.73-1.23h0l-.24,0,.81-1.27a1.36,1.36,0,0,0,.11.2h0a1.48,1.48,0,0,0,.68-1.19l-.18,0,2.31-3.62v0c.39,0,.48-.49.77-.66a.37.37,0,0,1,.3-.07,2,2,0,0,0,.14.49c.82,1.49,1.34,3,.81,4.51l-.83,1.21c-.6.13-.74.66-.84,1.21l-.64.93a1.2,1.2,0,0,0-.77,1.12L126.28,29a1.64,1.64,0,0,0-.65.9l-.94,1.42-.78,1.13h0a56.84,56.84,0,0,0-4.64,7.22q-1.78,2.4-3.38,4.93h0L113,49.08c-.18.15-.35.21-.45-.36-.34-2.07-.64-4.1.92-5.91A14.39,14.39,0,0,0,114.78,40.59ZM85,70.26c3.27-4.5,6.14-9.29,9.1-14L106.66,37l0,0a3.33,3.33,0,0,0,1-1.51l.09-.17.91-1.39c.34-.27.69-.47.77.33.13,1.55.57,3.09.6,4.6,0,1-1,2-1.62,3l-.12.19-.6.84c-.42.62-1.19,1.06-1,2a2.2,2.2,0,0,0-1.34,1.49l-.05.1L87.15,74l-3.54,5.35C82.75,76,82.91,73.17,85,70.26ZM84.81,88.1c2.66-2.59,3.94-6.19,5.92-9.29,4.49-7,9-14.07,13.5-21.11.55-.86,1.09-1.73,1.61-2.61h0l4.84-7a1.56,1.56,0,0,1,.44.92c.1,1.22.33,2.45-.46,3.7Q98.82,71.37,87.15,90.12c-1.07,1.71-2,3.48-3.43,5.33C83.3,92.69,82.5,90.35,84.81,88.1Zm.86,14.07c-1.17-2.5-2-4.68-.09-7a7.36,7.36,0,0,0,1.73-4,1.44,1.44,0,0,1,.47-.9c3.86-3.42,5.71-8.19,8.38-12.42,4-6.43,8.13-12.83,12.18-19.27,1-1.66,2-3.39,3.11-5.26a9.87,9.87,0,0,1-.84,9.12c-6.92,11-14,22-20.63,33.24C88.72,97.86,87.2,99.88,85.67,102.17Zm3,2.62c-.57-.63-2.12-1-1.32-2.21,2.51-3.9,3.95-8.4,7.16-11.93,2.36-2.6,3.44-6.09,5.38-9,3.89-5.88,7.67-11.83,11.42-18.14a3.61,3.61,0,0,1,.3,3.07,1.48,1.48,0,0,0-.07,1.19c1.17,1.68,0,2.8-.85,4C104.59,80.52,99,89.6,93.57,98.85c-1.06,1.81-2.24,3.55-3.38,5.33C89.84,104.73,89.5,105.64,88.72,104.79Zm-2.79,18.76a14,14,0,0,1,.43-3.42c.6.74-.33,1.71.54,2.29,1-1.87,2.06-3.74,3.27-5.92.59,2.82,1.54,5.22-.7,7.51a34.05,34.05,0,0,0-3.06,4.29A6.75,6.75,0,0,1,85.93,123.55ZM86.17,138c-.9-2.14.17-3.6.69-5.26,1.24.84,1.87,1.67.62,3A13.58,13.58,0,0,0,86.17,138ZM89,140.71c-.27.39-.6-.09-.82-.31-.4-.4-1-.79-.54-1.47.59-1,1.21-2,1.85-2.93.18-.27.42-.58.83-.26s.82.62,1.23.92C90.67,138.07,89.89,139.43,89,140.71Zm3.28,1.81c-1.77-.34-1.88-.58-.94-2.17.12-.2.23-.4.36-.6,1.42-2.27,1.42-2.27,4-1.29-.78,1.24-1.51,2.35-2.18,3.5A1,1,0,0,1,92.28,142.52Zm2.65.48,2.8-3.9c.66-.93,1.33-.07,2.21-.25-.91,1.48-1.64,2.7-2.39,3.91S96,143,94.93,143Zm3.92.95c1.54-2.29,2.44-4.81,5.69-4.38-.82,1.28-1.61,2.62-2.49,3.9S100.15,143.71,98.85,144Zm2.58,1.88a8.28,8.28,0,0,1,5.09,1A10,10,0,0,1,101.43,145.83Zm5.12-1.74c-.23.33-.44.77-.92.67s-1.45.15-1.78-.41.34-1,.67-1.49c.71-1,1.53-1.9,2.25-2.88s1.7-.15,2.9-.46Zm1.84,1.19c1.92-4.38,3.19-5.37,6.59-5.05-1.14,1.68-2.16,3.38-3.36,4.93C110.67,146.39,109.52,145.1,108.39,145.28Zm7.06,3.19a4,4,0,0,1-2.2-.26l-3.89-.51.06-.52a13.61,13.61,0,0,1,5.64.71c.66.08,1.36-.12,2,.24h0c2.45-.14,4.84.6,7.3.47C121.37,149.42,118.41,148.83,115.45,148.47Zm7.71-1.52c1.45-1.95,2.57-3.65,3.89-5.17.65-.75,1.77-.16,3.08-.45-1.48,2-2.68,3.66-4,5.26C125.43,147.45,124.44,146.8,123.16,147Zm7.92.13a1.83,1.83,0,0,1-1.31.7,1.9,1.9,0,0,1-1.43-.5c-.29-.39.28-.81.54-1.17,1-1.29,1.93-2.56,2.94-3.9C132.34,144,132.61,145.69,131.08,147.08Zm7-1.3a3.71,3.71,0,0,1-1.11,1.7c-.74.72-3.17,1-3.76.5a.46.46,0,0,1,0-.74c.45-.5.66-1.24,1.42-1.43h0v0c.48.73.45,2,1.9,1.66,0-.8.19-1.53,1.14-1.74,0-1-1.2-1.22-1.18-2.34,0-1.71.39-2.35,2.06-2.2.72.07,1.74-.44,2.1.21s-.61,1.26-1,1.9c-.48.87-1.06,1.67-1.6,2.5Zm10-9.82a11.48,11.48,0,0,0,2.48-2.44c.2-.28.33-.94.85-.53s-.09.74-.28,1c-1.25,1.83-2.48,3.68-3.85,5.42a54.71,54.71,0,0,0-4.29,6.38c-.9,1.55-2.26,2-4.3,2.15C141.87,143.73,144,139.07,148.06,136Zm-4.51,13.21a.81.81,0,0,1-1.17.28C142.67,149.12,143,149.15,143.55,149.17Zm-4.36,1c.45-.39.94-.32,1.51-.4C140.3,150.54,139.75,150.26,139.19,150.17ZM186.71,175c-.68-.14-.61-.62-.5-1.09,0-.18.19-.33.34-.17A1,1,0,0,1,186.71,175Zm.89-4h0l-.07,1.26c-.49-.52,0-1.2-.56-1.53a1.16,1.16,0,0,1-.84.92c-2.08.88-2.48,2.65-.87,4.62-3.8-.78-7.47-1.14-10.7-3.09a45.36,45.36,0,0,1-8.56-3.93,142.16,142.16,0,0,1-16-11c-2.66-2.1-5.05-4.53-7.76-7a26.33,26.33,0,0,0,10.81-7.79,1.79,1.79,0,0,0,.59-1.87c-.69.12-1,.95-1.95.93.16-1,1-1.37,1.53-2.12l.92,1.12c1.66,2,3.33,4.07,5,6.11a3.66,3.66,0,0,1,.93-.19l-.67.51-.26-.32c-1.16.37-2.18,1.15-3.47,1.23a.86.86,0,0,0-.86.7c-.23,1.08-1.12,1.18-2,1.17-.15.41.31.85-.09,1.37-.54-.44-.32-1-.28-1.46-.14-.12,0-1-.41-.28a3.65,3.65,0,0,1-1.37,1.62c-1.18.73-1.26,2-1.4,3.29,0,.41.25.26.36.39a27.22,27.22,0,0,0,2.9,2.47c1.78,1.53,2.64.76,3.44-1.85.39-1.28.88-2.22,2-2.6s.47-1.55,1.29-1.88a1.4,1.4,0,0,1,.78,1.45c-.81,1.72,1.28,1.43,1.52,2.36.76-.25,1.8.64,2.32-.53.42-1,1.43-1.83.35-3-.37-.42-.34-1.19-.54-2,2.2,1.33,4.22,2.54,6.23,3.77.57.34.5.33-.07.89-1.51,1.5-4,1.67-5,3.73-.13.26-.75.56-.85.48-1-.86-1.76.23-2.54.47s-1.86.56-1.86,1.47c0,1.11-.17,2.53,1.19,3.15.61.27.8.72,1.12,1.21.49.73,1.35,1.68,2.13,1.31s2.08-1,2.12-2.33c0-.72.09-1,.93-1.35a7.36,7.36,0,0,0,2.48-1.54c1-.94,1.72-.22,1.74.77,0,.81-.08,1.45.9,1.31.73-.09.5,1.55,1.57.72.22-.17.9.26,1.65.51-1.16.26-1.5,1.89-2.87,1-.16-.11-.41,0-.32.16.62,1.08-.7,1.47-.81,2.37-.23,1.8.31,3.27,2,3.87.54.19,1,.35,1.19.9,2.49.74,3.71-.3,3.45-2.95-.09-.91,2.62-3.56,3.43-3.3a.86.86,0,0,1,.5.66c-.15,1.45,1.32,1.6,1.92,2.46.44.63,2.89-.2,3-1,.1-1.21.45-2.41-.73-3.57a2.4,2.4,0,0,1-.27-3.43c.79-.89,1.76-.88,2.16.26a32.52,32.52,0,0,0,2.31,5.45c.74,1.3-.7,2-1.26,2.87A1.63,1.63,0,0,1,187.6,171Zm-33.25-18.3a10.07,10.07,0,0,1,4.85-3.39A6.81,6.81,0,0,1,154.35,152.7Zm-.12,3.93c-.85.18-.77-.71-1.16-1.06-1.85,0-2.14-.41-1.48-2.64,0,1.55,1.33,1.49,1.89,2.21.45.21,1.14.08,1.2.81A.63.63,0,0,1,154.23,156.63Zm8.5,5.92c.39.34-.09.46-.34.44-.85,0-1-.67-1-1.34,0-.36.07-.86.84-.79C163.07,161.1,162.19,162.06,162.73,162.55Zm10.54,6.08a2.75,2.75,0,0,1-.32.39c-.19-.37-.28-.87,0-1C173.6,167.87,173.45,168.31,173.27,168.63ZM191,170.12c.36-.51.69-.6,1.07-.06.25.38.64.78-.18,1s-1.08,1.52-2.34.87C190.07,171.29,190.56,170.72,191,170.12Zm-1.43,5.15c-.09.3-.1.69-.35.75-.53,0-.76-.28-.79-.53-.06-.43.36-.55.67-.63S189.7,174.83,189.56,175.27Zm7.44.93a3.08,3.08,0,0,0,0,3.58l-7.17-2.09A4.56,4.56,0,0,0,191,175c0-.71,1-1.13,1.61-1.58a1.44,1.44,0,0,1,2,0,4.58,4.58,0,0,0,1.91,1.14C197.37,174.75,197.5,175.33,197,176.2Zm.85-3.61c-.23.73-1.17.54-2.12.52.38-.43.93-.53,1-1.22-.65-.34-1.4,0-1.92-.11-.62-3.72-4.13-5.77-4.83-9.36a8.57,8.57,0,0,1,3.15.53c1.33.46,1,1.87,1.4,2.79.75,1.61.76,3.52,2.49,4.68A2.1,2.1,0,0,1,197.85,172.59Zm2.08,6.06c0,.35-.54.59-1,.47-1-.3-.79-1-.68-1.94C198.91,177.72,200,177.55,199.93,178.65Zm2.69-2.34c-.86.95-1.8.47-2.61.05-.66-.33-.7-.89-.1-1.54a12.62,12.62,0,0,1,3.61-3.06v-1.21c.44.16.7.4.51.89.09.31-.2.86.18.94,2.26.47.89,1.33.23,2.07S203.21,175.67,202.62,176.31Zm10.66,6.27c-3-.47-6-.94-9-1.39-.8-.12-1.12-.3-.68-1.23.71-1.5.23-3.45,1.94-4.63,1.27-.89,2.78-.22,4.05-.86,0,0,.41.43.36.52-.69,1.31.57,1.74,1.36,2.72l-2.2-.63c1.25,1.86,1.16,4.54,3.79,5.21a3.74,3.74,0,0,1,2.74-1.44c1.94-.12,2.7-1.34,1.7-2.93-.9-1.44-1.13-3.12-1.7-4.57-.73-1.86-1-3.79-1.87-5.9,2.86.56,5.46,1.06,8.06,1.58.23,0,.45.12.68.17,2.6.51,3,.79,2.53,3.27a5.53,5.53,0,0,0,1.48,4.85,3.14,3.14,0,0,1,.76,1.77c.2,1.13.15,2.44,1.67,3.1.86.37,1.12,1.31-.3,1.89-2.06.85-4.18,1.5-6.26,2.27-.43.15-.77.25-1.11-.13C219.18,183.81,216,183.6,213.28,182.58Zm15.62,2.83c-.53,1-1.12.78-1.67,1C227.58,185.67,228.17,185.84,228.9,185.41Zm-4.65,1.75c-.68.81-.68.81-2,.66Zm-2.52,1.16a3.82,3.82,0,0,1-2.26.62A2,2,0,0,1,221.73,188.32Zm-3,.75a25,25,0,0,1-7.13,1.83A19.32,19.32,0,0,1,218.74,189.07ZM211.13,191c-.76.63-1.7.6-3.06.93A4.36,4.36,0,0,1,211.13,191Zm-66.85,1.21h4.58l2.85.36c4.38-.16,8.76-.25,13.13-.48,5.06-.26,10.12.36,15.14.23,6.06-.16,12.14.28,18.2-.4,2.78-.3,5.61-.13,8.41-.18a1.67,1.67,0,0,1,1.42-.14,1.33,1.33,0,0,1-1.42.52,110.8,110.8,0,0,1-21.37,1c-11.17-.37-22.35.35-33.51-.34a72.7,72.7,0,0,1-10.64-.26H139.5A6.67,6.67,0,0,1,144.28,192.2Zm-28.88-1.4,1,.35,1.83.31a6.62,6.62,0,0,1,3.18-.32h1c2.84.17,5.73-.39,8.51.6l2.32.1c.38,0,.59.2,1.14.59a7,7,0,0,1-2.88-.23l-2.05-.13h0l-6.71-.34h0l-2.08,0-2.48,0h0a2.57,2.57,0,0,1-1.83-.4h0a2.29,2.29,0,0,1-1.79-.21h0l-1.76-.12A2.24,2.24,0,0,1,115.4,190.8Zm-12-1.33a6.27,6.27,0,0,0,2.22.27,9.19,9.19,0,0,1,5.25.68l1.47.45a2,2,0,0,1-1.8-.08h0l-6-.46a43.07,43.07,0,0,1-7.89-1.1C98.9,189.1,101.16,188.7,103.36,189.47Zm-8.76-.54c0-.13.35-.23.54-.25s.45,0,.46.34a.45.45,0,0,1-.57.26C94.84,189.23,94.5,189.25,94.6,188.93ZM94,188.6c-.66.69-1,.17-1.6-.07A1.32,1.32,0,0,1,94,188.6Zm-1.64-.25c-.9.41-1.3-.29-1.85-.21C91.15,187.79,91.63,188.09,92.4,188.35Zm-2.86-.71a1.4,1.4,0,0,1-1.64,0Zm-2.93-.14a9.82,9.82,0,0,1-4.15-.86C84.19,186.33,85.59,185.67,86.61,187.5Zm-11.67,3.69c.29.2.88,0,.86.51a.51.51,0,0,1-.84.12c-1.31-.85-1.4.48-1.78,1.48C72.48,190.79,72.48,190.79,74.94,191.19Zm-.32,2.47c.41-.37.88.67,1.44-.24.72-1.17,1.79-1.67,2.44.26.08.22.4.38.27.74-1.33-.3-2.41,1.17-3.81.54-.51.95-.45,2.3-1.83,2.69C72,195.67,73.9,194.89,74.62,193.66Zm-.25,8.18s-.42-.32-.4-.47c.09-.71-.63-1.61.21-2.08a2.87,2.87,0,0,0,1.13-1.36c.36-.64.62-1.24,1.54-1,.24.07.72-.05.79-.21.24-.53.42-1.36,1.07-1s.64,1.39.78,1.8c-.26,2-1.72,1.75-2.66,2-.75.17-1.25,0-1.24,1C75.6,201.1,75,201.54,74.37,201.84Zm3.7-.55c1.05.17.67.6.47,1.19s.63.84.42,1.46a6.66,6.66,0,0,1-3.6-.25C76.63,203.25,76.08,201,78.07,201.29Zm124.38,9.14c-14,1.68-28,.82-41.95.44-17-.47-34-1.7-51.06-2.32-9.2-.34-18.36-1.11-27.54-1.61a9.57,9.57,0,0,1-4.29-1.31c2.26,0,3.3-.91,3.11-3.15-.09-1,.71-1.82.69-2.86a27.21,27.21,0,0,0-1.6-7.21c-.46-1.58-2.25-1.88-3.68-2.38a15.12,15.12,0,0,0-2-.63c-1.76-.32-1-1.2-.63-2.07.23-.53.48-.57.87-.12A3.07,3.07,0,0,0,77,188c2.05,0,4.1,0,6.15,0,1,0,2.14-.17,2.73,1.05.17.36.58.33.93.35a46.47,46.47,0,0,1,8,1.33,25.35,25.35,0,0,0,4.18.47,103.26,103.26,0,0,1,10.69,1.12c3.92.71,7.8,1.48,11.81,1.21a44.05,44.05,0,0,1,12.2.51,27.9,27.9,0,0,0,9,.07,39.34,39.34,0,0,1,7.34.23c6.49.58,13,.12,19.48.3,3.66.1,7.32.43,11,.79a18.94,18.94,0,0,0,2.6.27c5.44-.19,10.88.08,16.32-.37,8.83-.73,17.15-3.34,25.38-6.44a140.73,140.73,0,0,0,16.79-7.48c3.37-1.79,6.34-4,8.16-7.72a16.27,16.27,0,0,1,4.09,6.85,8.92,8.92,0,0,0-3,2.2c-3.51,3.43-7.37,6.25-12.31,7.34a21.94,21.94,0,0,0-6,1.91c-5.56,3.1-11.7,4.27-17.75,5.79-1.47.37-3.16.75-3.49,2.52a13.06,13.06,0,0,0,.92,7.24,1.55,1.55,0,0,0,1.6,1.18A75.27,75.27,0,0,1,202.45,210.43ZM253,195.26a108.42,108.42,0,0,1-19.55,8.91c-6.34,2.26-12.95,3.32-19.54,4.5,1.36-1.42,1.35-1.43-.55-2.71a3.76,3.76,0,0,1-.74-.62c.83-1.34-.27-2.64,0-4s.55-2,2-1.77c.87.1,2.11.15,2.63-.35,2.14-2.08,5.41-.42,7.47-2.47,0,0,.12,0,.18,0a11.46,11.46,0,0,0,2.66-.73c3.47-1.89,7.37-2.32,11.05-3.5,1.92-.61,4.07-1,5.54-2.34a43.28,43.28,0,0,1,3.61-3,34.08,34.08,0,0,0,5.27-4.63,2.58,2.58,0,0,0,.8-1.95,23.86,23.86,0,0,1,2.69,9.22C256.69,192.37,255,194.05,253,195.26Z"/><path class="cls-1" d="M186.08,213.05v0c0,.06,0,.12.12.19a1,1,0,0,1,0-.18.49.49,0,0,1,0-.12h0C186.16,213,186.12,213,186.08,213.05Z"/><path class="cls-1" d="M10.3,80c.58,1.77,1.51,3.42,1.65,5.34a105.15,105.15,0,0,0,1.72,10.71c.74,4.1,2.65,8,2.5,12.42,1.16-.82,2.19-.27,3.29-.32-.81,1.55-.8,1.53-2.14,1.11a1.86,1.86,0,0,0-1.91.6c-.6.58.09,1,.27,1.55.47,1.4,2.26,1.92,1.87,4.13-.33,1.89,2.6,3.69,4.81,3.59s4.3-.69,6.54-.78A30.47,30.47,0,0,0,37,116.74a1,1,0,0,1,.68-.09c1.32.59,2.47,0,3.71-.32s2.22-1.24,3.28-1.09c3.66.53,6.69-2.09,10.33-1.78a19,19,0,0,0,4.91-.65c5.31-1,11-.66,15.84-3.7,2.31-1.43,4.9-2.4,7.21-3.89.59-.38.77-.67.47-1.37-.93-2.14-1.64-4.39-2.71-6.46a3.74,3.74,0,0,1-.46-2.73,10.49,10.49,0,0,0-.24-4.86c-.4-2-.82-3.9-1.21-5.85a194.46,194.46,0,0,1-3-23.32c-.08-1,0-2.07-1.19-2.82a4.88,4.88,0,0,1-1,3.91c-3.15,4.94-6.14,10-9.57,14.72a3.09,3.09,0,0,1-2.84,1.7c1.65,1.11.46,1.74-.09,2.63a22.38,22.38,0,0,1-1.84-4.46,1.48,1.48,0,0,1,.22-1.48c3.2-4.12,5.14-9,8.48-13.09.62-.76.94-1.1,1.83-.41.42.33,1.52.92,1.54-.33s-.18-2.46.75-3.81A11.16,11.16,0,0,0,73.74,51c.05-1.77.71-3.53.07-5.33a3.9,3.9,0,0,1,.26-3.22,1.4,1.4,0,0,0-.22-1.76,2.12,2.12,0,0,1-.5-1.38,17.86,17.86,0,0,0-.42-4c-1.22-3.54-.87-7.28-1.21-10.94a25.15,25.15,0,0,0-1-6.47c-.59-1.57-1.31-3.08-1.76-4.72-.67-2.42-1.45-4.81-2.21-7.2-.15-.48-.22-1.11-1-1.06-.54,0-.69.43-.83.84l-.67,1a49.53,49.53,0,0,0-3.31,4.78l-1.36,2-.06-.16a12.8,12.8,0,0,0-.16-3.09c0-1.11-.27-2.05-1.53-2a1.6,1.6,0,0,0-.72.21l3.55-5.72-5.34,8.09h0c-1-.26-1.24.62-1.63,1.2s-.28.87.23,1L35,41.68l-.09.22c-7.18,10.31-14.51,20.52-21.43,31-.43.65-.95,1.25-1.75,2.3.07-2.36-1.12-4.19-.15-5.94,1.39-2.51,2.19-5.4,4.62-7.28a5.39,5.39,0,0,0,1.37-1.81,84.4,84.4,0,0,1,5.63-8.86c2.64-3.78,5.07-7.71,7.73-11.78.42.51.77,1,1.17,1.39s.84,1.07,1.44.59,0-1.22-.34-1.44A2.46,2.46,0,0,1,32,37.72L55.39,2.07l-12,17.28c-.51.13-.68.46-.72,1l-.25.35a3.44,3.44,0,0,0-1.18,1.48l-1.44,2.09L36.61,29l-5.8,8.33c-2.12-1.66-2.12-1.66-.81-3.82,1.47-2.46,2.94-4.91,4.38-7.39.18-.3.51-.59.44-1.07l.47-.79a.94.94,0,0,0,.47-.81l.58-1c.36-.18.42-.53.52-.83l0,0L37.75,20a1.39,1.39,0,0,0,.58-1L47.82,2.69,28.31,34.6c-1.38-1.06-1.72-2.63-2.6-3.85a1.28,1.28,0,0,1,0-1.7c1.58-2.44,3.07-4.95,4.59-7.44A3.93,3.93,0,0,0,31.18,20l.57-.9c.36-.14.49-.42.54-.86l1.79-2.82a.25.25,0,0,0,.18-.05c.21-.13.33-.42.54-.7l-.17-.1L42.61,2,34.29,14.54a1.39,1.39,0,0,0-.38.5.26.26,0,0,0,0,.11l-2,3a1.64,1.64,0,0,0-.43.65l-.27.41v0l-.39.63-6.36,9.6a2.42,2.42,0,0,0-1.51-1.52c-1.46-.52-1.19-1.25-.48-2.28s1.47-2.29,2.17-3.46l.87-1.35a1.71,1.71,0,0,0,.46-.73l1-1.63a1.76,1.76,0,0,0,.38-.59l.91-1.42c.21-.22.47-.47.44-.7l9.6-15L28.37,15.45c-.25,0-.41.48-.52.77l-4.63,6.86-.18.26L21.25,26c-.51.32-1,0-1.74-.71a1.22,1.22,0,0,1-.43-.82l13-20.33L24.24,15.48c-.31-.12-.48.44-.61.77l-.73,1-.67,1.06-.73,1.06-.48.72L20,21.68a9.91,9.91,0,0,1-.82,1,1.65,1.65,0,0,0-.27.58l-.43.62c-.14,0-.33,0-.59-.26-.7-.61-2.17-1.19-1-2.74S19,17.6,20.11,16a6.14,6.14,0,0,0,1.13-1.9l.85-1.31A2.18,2.18,0,0,0,23,11.33L30.39,0l-8,11.67a1.34,1.34,0,0,0-.19.26l-1.47,2.13a5.08,5.08,0,0,0-.8,1.17l-2.79,4-.87,1.28c-.42.63-.85.9-1.28.17a7.53,7.53,0,0,0-2.07-2.1c-.47-.36-.6-.7-.5-1.09l3.69-5.71a1.32,1.32,0,0,0,.34-.53l1.29-2a1.32,1.32,0,0,0,.71-1.1L23,1,17.68,8.51a1.27,1.27,0,0,0-.13.19L16,10.91c-.15.06-.25.27-.34.48l-.52.71a29.51,29.51,0,0,0-1.85,2.58l-1.44,2a.85.85,0,0,1-.66-.2c-.65-.44-1.32-.86-1.26-1.67L16.06,5.5a2.93,2.93,0,0,0,.59-.9l.72-1.09a1.31,1.31,0,0,0,.77-1.17L19,1.1,18,2.35a1.6,1.6,0,0,0-.81,1l-.59.75A3.51,3.51,0,0,0,15.45,5.3l-4.42,6L8.89,14A14.46,14.46,0,0,0,8,15.14v0H8c-1.22,1.71-2.16,3.63-3.49,5.27a4.71,4.71,0,0,1-.23-3.86l8.18-12.3C12.93,4,13.1,3.59,13.5,3l-.27.09.86-1.29L13,3.21a1.52,1.52,0,0,0-.91,1.15l-.45.58a1.94,1.94,0,0,0-1,1.1,53.1,53.1,0,0,0-4.07,5.38L4,14.65c-.71-1.81-1-3.41.65-5.07,1.19-1.2,1.83-2.95,2.84-4.67-2.57.62-3,3-4.52,4.26C2.37,8.36,2.87,6.72,1.23,7c-1,.13-1.5,2-1.09,3.34.1.33.24.66.36,1,.46,1.26,1,2.49,1.38,3.78.56,2,2.3,3.91.91,6.24a1.14,1.14,0,0,0,.1.85,12.42,12.42,0,0,1,.65,3.25c.38,3.08.42,6.25,1.22,9.21.87,3.23.56,6.58,1.55,9.8.84,2.74-.42,5.81.86,8.6.13.27,0,.69-.08,1a8.21,8.21,0,0,0,.16,3.31,78.51,78.51,0,0,1,2.61,15C10,74.9,9.5,77.5,10.3,80Zm5.13.56c.45-.26.92-.5,1.41-.12,0,0-.15.38-.24.58.19.31.88.37.35,1-1.12,1.39-2.15,2.85-3.25,4.32C12.7,83.36,13.13,82,15.43,80.57ZM24.3,65.88l.17-.19c1.18-1.33,2.4-2.64,3.54-4,2.84-3.37,4.58-7.47,7.26-10.93,4.62-6,8.63-12.35,12.84-18.6.7-1,1.5-2.07,2.12-3.2l5.48-8.39a4,4,0,0,1,.26-.32c.45-.52.79-1.14,1.31-1.89.33,1.79.88,3.32-.35,4.88a25.32,25.32,0,0,0-1.9,3l-.71,1.08a3,3,0,0,0-.79,1.22l-.5.76a3.19,3.19,0,0,0-.89,1.34C48,37.18,43.72,43.61,39.69,50.2c-4.22,6.91-9.19,13.3-13.54,20.12l-.06.1c-1,1.24-1.91,2.5-2.91,3.71-.39.47-.82,1.53-1.55.62-.47-.59-2.06-.9-.89-2.35A46,46,0,0,0,23.58,68,3.37,3.37,0,0,0,24.3,65.88ZM61.72,30.45l-.56.85a5.23,5.23,0,0,1-.8.73c-.17-1.64-.31-3.07-.47-4.51a2.72,2.72,0,0,1,1.29-2.36c.81-.69,1,.34,1,.78C62.11,27.43,62.4,29,61.72,30.45Zm-.16,9.64c-.25-2.36-1.12-4.5-.42-6.55l1.1-1.66C62.82,34.62,63.79,37.22,61.56,40.09Zm1,5.45a3,3,0,0,1-.13-2.39A1.75,1.75,0,0,1,62.53,45.54Zm-.8,9a6.66,6.66,0,0,1,.82-5.2C63,53.31,63,53.31,61.73,54.49ZM37.36,104.68c-.52.94-1.08,2-2.43,2H32.39l3.22-4.24a1,1,0,0,1,.8.67C36.67,103.69,37.81,103.87,37.36,104.68Zm1-6.58c3.7-5.26,7.88-10.24,10.79-16,2-4,5.24-6.94,7.76-10.93.09,2.74.36,5-1.26,7.2-3.48,4.69-6.79,9.51-10,14.36C43.23,96.3,41,100,38.22,103.5c-.13-.37-.13-.59-.25-.69C36,101.06,37.33,99.56,38.36,98.1Zm-4.1,3c-1.3,1.79-2.61,3.58-4,5.3-.48.6-1.29.23-2.24.24l5-6.68c.19-.26.45-.47.68-.17S34.7,100.46,34.26,101.07Zm-7.36,4a3,3,0,0,1-3.65,1.48c2.22-3.52,5.14-6.37,7.11-10.19,1,1.17,1.59,2.08.54,3.38A64.4,64.4,0,0,0,26.9,105.05ZM33,96.15a1.83,1.83,0,0,1-.59-2.58c.75-1,1.51-2.06,2.3-3.12,1.39.93,1.55,1.86.57,3-.42.48-.68,1.09-1.09,1.58S33.46,96.57,33,96.15Zm1.25-9c-.77-.62-1.71-1.48-.73-2.82A74.64,74.64,0,0,0,40,74.17C42.66,69,47,65,49.78,59.93s6.45-9.55,9.73-14.29c.18,3,.18,5.76-1.66,8.37C50.34,64.66,43.34,75.67,35.61,86.17,35.28,86.62,35,87.83,34.2,87.15Zm-1,2.08c-.72,1.06-1.45,2.12-2.24,3.13-.25.32-.64-.14-.62-.27.15-.94-1.8-.8-1-2,.65-1,1.36-1.9,2.13-3,.52.68.51,1.57,1.44,1.62C33.19,88.79,33.4,89,33.23,89.23Zm-4.79-.81c-.33.38-.44,1.72-1.31.87-.65-.65-2.57-1.05-1.12-2.75.94-1.11,1.71-2.37,2.55-3.55C31,84.92,29.9,86.72,28.44,88.42ZM26.6,70.66a50,50,0,0,0,8.2-10.59,38.06,38.06,0,0,1,2.55-4.19c4.38-6,8.08-12.46,12-18.76A34,34,0,0,0,52,32.52l5.18-8,0-.06c1.3,1.7,1.4,3.22.09,5.19-7.08,10.69-13.94,21.53-21,32.22C33,66.88,30,72.05,26.17,76.64c-.33.39-.43,1.72-1.61.73-.85-.72-1.15-1.17-.39-2.25.92-1.31,2.15-2.52,2.26-4.28Zm-2.19,8.19c-.66,1.68-1.95,2.67-2.8,4-.48.72-.88-.11-1.25-.35s-1-.67-.39-1.39c.84-1,1.59-2.14,2.37-3.22C22.62,79,23.34,79.11,24.41,78.85Zm-.76,4.27A10,10,0,0,0,25,81.29c.41-.68.8-.85,1.53-.36s.68.88.2,1.52c-.9,1.21-1.72,2.47-2.61,3.77C22.52,85.24,22.52,84.27,23.65,83.12Zm5.12-3.45c-.3.42-.58.85-1.05.26s-1.35-.67-.66-1.65A28.57,28.57,0,0,0,29.8,74a32.89,32.89,0,0,1,5.52-8c2.09-2.32,3.31-5.23,5-7.83,4.6-7.11,9.18-14.25,13.8-21.35,1.34-2.06,2.31-4.34,3.85-6.25,0,1,1.23,1.28,1.11,2.52a5,5,0,0,1-.75,2.38C50.52,47.35,42.39,59,34.79,71,32.92,74,30.77,76.79,28.77,79.67ZM59.85,25.6c-.55-1.48-.35-2.91-.42-4.48l.25-.39C61.67,22.73,61.63,23.39,59.85,25.6Zm-.6-5.94c-.64-.39-.44-1-.53-1.55h0a2.28,2.28,0,0,1-.31-1.64c.6.05.53.51.65.84C59.22,18.06,59.89,18.76,59.25,19.66ZM20.72,77a12.41,12.41,0,0,1-1.84,2.72.75.75,0,0,1-1.3,0c-.18-.61-1.46-.81-.64-1.8s1.5-2,2.41-3.31a6.11,6.11,0,0,0,.25.72C20,75.87,20.86,76.62,20.72,77ZM15.13,87.25c.94-.94,1.62-2.14,2.53-3.13.33-.36.35-1.45,1.38-.82a1.54,1.54,0,0,1,.55,2.39c-1.45,2.25-3,4.43-4.71,6.92C14.33,90.57,13.47,88.93,15.13,87.25ZM16.1,98a3.89,3.89,0,0,1,.58-4.83c1.54-1.88,2.71-4.06,4.09-6.07.25-.38.41-1.1,1.14-.81s.68.83.7,1.44a2.32,2.32,0,0,1-.42,1.47Zm1.36,5.77c-1.35-2.17-.79-3.94.77-5.72a55.53,55.53,0,0,0,5.28-7.82c.26-.41.63-1.64,1.18-.83s2.7,1,1.31,2.76c-1.27,1.61-2.4,3.31-3.61,5C20.77,99.33,19.13,101.52,17.46,103.77Zm.72,2.86C21,101.44,25,97.35,27.91,92.32c1,1.47,1.81,2.56.4,4.25-2.46,3-4.7,6.1-6.94,9.23C20.5,107,19.44,106.44,18.18,106.63Zm1.36,5a7.46,7.46,0,0,0,1.47-2,2.71,2.71,0,0,1,3.41-1.5c-1.32,2.63-3.47,4.67-4.83,7.25C18.28,114.13,18.15,112.93,19.54,111.64ZM21,117.45c-.82-.5.08-1.11.37-1.54,1.52-2.26,3.47-4.23,4.84-6.61.54-.94,1.4-.53,2.41-.64-2,2.88-3.81,5.49-5.53,8.17A1.47,1.47,0,0,1,21,117.45Zm7.52-1c-1.09.14-2.17.35-3.59.59,2.18-2.67,3.9-5.4,5.9-7.89.65-.79,2.2-.3,3.65-.34l-4.58,7.11C29.54,116.46,29,116.4,28.49,116.46Zm7.32-1.74c-.92,1.24-2.36.66-3.85,1.33,1.45-2.84,3.45-4.75,4.94-7,.61-1,2.12-.83,3.23-1.11.65-.16.44.42.17.78ZM42,114c-.78.89-2.22.76-3.73.77,2-2.68,3.74-5.2,5.67-7.59.93-1.15,2.45-.76,4.15-.88C45.94,109,44.09,111.6,42,114Zm3.15-.52c1.46-2.53,3.42-4.6,5-7,.72-1.12,2.36-.37,3.94-.56-1.53,2.27-2.78,4.23-4.14,6.11C48.71,113.67,46.72,112.85,45.14,113.46ZM67.86,88.73a5.25,5.25,0,0,1-.57,5.65c-.5-1-.9-1.94-1.36-2.81-.72-1.38.26-2.16,1-3C67.24,88.3,67.61,88.36,67.86,88.73ZM66.45,82.6c.29-.28.6-1.15,1.15-.33a2.75,2.75,0,0,1-.33,3.84C66.71,84.84,64.87,84.15,66.45,82.6Zm2.17,14.84c-.79-1.51.41-2.35,1-3.4a.33.33,0,0,1,.4-.2c.71.13,2,2.79,1.61,3.44a3.88,3.88,0,0,1-.4.57L69.5,100A17.64,17.64,0,0,0,68.62,97.44ZM68,101.81c-1.33.39-2.68.69-4.38,1.11l3.52-5.08c.84.86,1,1.88,1.65,2.64S68.61,101.64,68,101.81Zm3.94-11.12c.3,1.48,4,2.1,1.06,4.35C70.91,92.86,70.7,92,71.93,90.69Zm-1.34-1a9.91,9.91,0,0,0-1-1.6,7.25,7.25,0,0,0-1.35-1c.56-.42.7-1.7,1.65-1C71.9,87.73,71.92,88.18,70.59,89.71Zm-6,8.58a14.57,14.57,0,0,0-2,2.87c-1.47,2.17-1.47,2.17-4.51,2L64.8,92.71C66.19,94.71,66.7,96.48,64.63,98.29Zm-2-4.65c-2.25,2.83-4.24,5.86-6.34,8.81-.75,1.06-.75,1.06-4.15.91,3.69-5,7.32-9.78,10.54-15C64.44,90.23,64.05,91.82,62.61,93.64ZM52.49,111.73a27.3,27.3,0,0,1,3.36-5.48c1-1.3,2.55-.65,3.88-.93C57.84,108.06,56.84,111.73,52.49,111.73Zm6.41-1.31c1.67-2.91,2.61-6.76,7.34-5.52C63.91,109.43,63.28,109.91,58.9,110.42Zm7.07-.91c-.57-.25-.2-.6-.06-.82,1.49-2.16,2.44-4.76,5.32-5.73a21.21,21.21,0,0,0,3.83-2.35c-1.8,2.82-3.41,5.36-5,7.89C69.55,109.21,66.76,109.86,66,109.51Zm15.25-7.05c1,1.83.81,2.06-2,3.13Zm-2.09-.08a9.19,9.19,0,0,0-1.79,2.79c-1,2.22-2.86,2.86-5.19,3.22,2.5-3.8,4.86-7.41,7.29-11.11C80.2,99.09,80.8,100.72,79.13,102.38Zm-2.46-5.09a19.12,19.12,0,0,1-5.14,3.22,117.85,117.85,0,0,0,6.81-10.88C79.82,93.56,79.5,94.87,76.67,97.29ZM75.08,92c-1.4-1.22-1.48-3.26-1.47-4.8,0-1.79,2.24-2.79,3.25-4.38C78.73,86.44,78.21,89.48,75.08,92Zm.82-16.85c.28,1.81.49,3.23.74,4.63a1.71,1.71,0,0,1-.36,1.3c-1,1.58-2,3.14-2.94,4.75-.6,1.06-1,1-1.71.08a2.18,2.18,0,0,1-.25-3.16C73,80.4,74.29,77.89,75.9,75.14ZM73.68,76.6c-1.13,1.47-2,3.12-3.1,4.65-.28.39-.37,1.39-1.12.93A1.73,1.73,0,0,1,68.72,80c2.27-3.22,4-6.76,6.24-10.09C76.31,72.6,75.2,74.61,73.68,76.6Zm-8.5.73a59.1,59.1,0,0,0,5.46-8.76c1.14-2,2.55-3.73,3.84-5.78.59,3,.51,5.51-1.4,8-2.5,3.22-4.33,6.93-7.16,9.92-.41.43.08,1.19-.66,1.4C63.92,80.31,63.86,78.92,65.18,77.33Zm-1,7.82c.16,1.2,1.41.82,1.87,1.84.56,1.25-.51,1.63-.8,2.46C64.48,88.16,63.15,87.07,64.2,85.15Zm-1.67-4.7c1.22,1.89,1.45,3.87.56,4.94C61.23,82.45,61.14,81.7,62.53,80.45Zm-2,8.64c-3.34,4.5-6.9,8.84-10,13.55-1,1.59-2.57,1-4.14,1.26,4.45-7.12,10-13.11,14-20.23C62.49,86.47,62.48,86.52,60.56,89.09Zm-1.18-7.63a1.22,1.22,0,0,1,0,1.84c-5.19,6.57-10.09,13.36-15,20.13-1.15,1.58-3.2,1.11-5,2.06,5.63-9.71,12.83-18,17.61-27.87A9.56,9.56,0,0,0,59.38,81.46ZM57,68.45C51.07,77.23,45.12,86,38.75,94.38l0,.06h0l-.08,0c-.9,1.39-1.79,2.8-2.73,4.18-.21.32-.38,1-1,.49-.41-.37-1-.82-.55-1.47a29.77,29.77,0,0,1,2.47-3.6c.59-.68,1.13.5,1.8.4l0-.06v0c-.89-2,.36-3.39,1.42-4.92a89.64,89.64,0,0,0,6.5-10A42.11,42.11,0,0,1,52,72c2.55-3.15,4.27-6.83,6.56-10.15a5.32,5.32,0,0,1,.77-1C58.92,63.53,58.53,66.12,57,68.45Zm2-9.3c-6.3,8.92-12,18.27-18.56,27-.87,1.17-1.74,2.34-2.66,3.48-.28.35-.38,1.35-1.21.55-.54-.51-1.1-.89-.42-1.84q2.78-3.93,5.34-8C45.92,73.23,51,66.59,55.63,59.6c1.11-1.7,2.25-3.39,3.55-5.34C60.06,56.19,60.07,57.63,59,59.15ZM57.27,46.62C49.15,58.08,41.68,70,33.5,81.39c-1.52,2.12-1.65,2.08-3.12.19-.55-.7-.2-1,.09-1.47,1.38-2.24,3.07-4.34,4.1-6.72a30,30,0,0,1,4.82-7c2.63-3.24,4.31-7.09,6.7-10.48,3.13-4.44,6.17-8.94,9.17-13.47h0L59,36.79c.06,0,.13,0,.12,0C61.39,40.62,59.43,43.57,57.27,46.62Zm3.46,16.23c-.47-.39-.12-.87.1-1.29.18-3.4.18-3.4,2-5.66,1.18,2.57-.18,4.49-1.66,6.37C61.07,62.51,60.88,63,60.73,62.85ZM71,54.91c-2.52,3.52-4.82,7.19-7.21,10.8-.26.38-.43.84-1.06,1.1a8.91,8.91,0,0,1,1.08-2.6,4.53,4.53,0,0,0,1-2.78c-.16-1.86.76-3.22,1.75-4.62,1.84-2.63,3.63-5.29,5.59-8.15C72.19,51,72.35,53,71,54.91Zm.3-19.46c.38,1.13.57,4,.21,4.6-2.26,3.46-4.53,6.91-7,10.67-.09-2.67-.27-4.87,1.37-7a29.12,29.12,0,0,0,2.75-4.22Zm.79,6c.06,2.47.52,4.43-1,6.39-2.17,2.79-4,5.84-6.15,9a5.44,5.44,0,0,1,.72-5.48C67.81,48.28,69.76,45,72.05,41.46Zm-1.28-7.41-6.48,9.82c-.05-3-.23-5.48,1.5-7.82a27.72,27.72,0,0,0,3.87-6.81C69.89,31.14,71.19,32.48,70.77,34.05ZM69.4,28.79c-1.57,2.28-3.16,4.56-4.94,7.12-.11-2.5-.21-4.73-.31-6.92L69,21.6c.34,2.28,0,4.47.61,6.57C69.7,28.34,69.53,28.61,69.4,28.79Zm-.71-8.9h0L63.8,27.3a.8.8,0,0,1-.07-.55c-1.58-2.89-.46-5.24,1.36-7.55,1-1.27,1.77-2.72,2.87-4.45C68.26,16.62,69,18.3,68.69,19.89Zm-2-4.5c-1.38,2.15-2.78,4.28-4.27,6.58a6.34,6.34,0,0,1-1.17-3.58l5.24-8.07A4.56,4.56,0,0,1,66.64,15.39Zm-5.39-3.31h0l0,0h0A30,30,0,0,0,65,6.5c.06-.15.14-.29.2-.44.41,1.24,1.37,2.41.51,3.82h0v0l-.52.71.07.08L63.4,13.46l0,0-2.73,3.89c.07-1.37-.87-2-.75-3.11h0ZM56.37,9.65a3.81,3.81,0,0,0,0,.59h0c1.07,1,1.37,2.53,2.34,3.61a.59.59,0,0,1-.08.92c-.65.5-.61-.3-.81-.51-.88-.92-.89-2.34-1.83-3.25l-.35-.1ZM17,69.9c1.95-2,3.1-4.53,4.64-6.8,3.36-5,7.07-9.73,10.31-14.8l1.33-2.06,7-10.57.17-.28c2.07-2.84,3.82-5.92,5.79-8.84a3.9,3.9,0,0,0,1-1.53l.71-1.33h0a.6.6,0,0,0-.19,0L49.3,21v.07c.73.06.81-.54,1-1a2,2,0,0,0,.73-1.24h0a1.36,1.36,0,0,0-.48.11l3.5-5.63-.23.79h0a10.82,10.82,0,0,0,.86-.69.8.8,0,0,1,.68-.14l.22.06c1,.71,1.41,3.7.76,4.75l-.12.19L52,24.43a1.14,1.14,0,0,0-.18.25l-.36.52a3.6,3.6,0,0,0-.67,1l-.86,1.26a1.47,1.47,0,0,0-.1.13c-.53.77-1.06,1.53-1.58,2.3l0,0h0Q39.58,42.43,30.94,55c-2.35,3.44-4.88,6.75-6.91,10.4a.93.93,0,0,0-.05.1l-4.75,6.3c-.35.46-.93.89-1.13.1S15.51,71.4,17,69.9Zm-3.63,5.29A6.07,6.07,0,0,0,14.44,73c.37-1.28.81-1.16,2-.44,1.71,1.06,1.06,1.82.14,2.92-1.34,1.6-2.53,3.32-3.88,5.12C12,78.54,12,76.8,13.33,75.19Zm12.1-29.62c-4.3,6.75-9.06,13.19-13.17,20.07a3.68,3.68,0,0,1-1.43,1.61c-.41-2-.85-3.76.88-5.49,1.2-1.21,1.82-3,2.82-4.41,3.52-5.08,7.26-10,10.42-15.29C27.07,43.12,26.3,44.22,25.43,45.57ZM23.6,32.11l3.52,4.82c1.4-.67,1.69.74,2.41,1.31s0,1-.26,1.44c-.6,1-1.26,1.93-1.9,2.9-2-1.65-.83-3.42-.3-5.16-1.19.06-1.06,1.38-1.83,1.85C22.57,37.11,22,34.56,23.6,32.11Zm-.77-.87c.34.85-.4,1.4-.9,1.9-.3.31-.67,0-.77-.38-.18-.59-.72-.71-1.12-1s-1.4-.28-1-1.1a13.34,13.34,0,0,1,1.74-2.12C22.11,29.05,22.42,30.21,22.83,31.24Zm-4.68-5.06c.6.6,1.67,1.24,1.65,1.83,0,.83-.88,1.63-1.46,2.58-.72-.94-1.77-1.13-2.08-2.09A8.79,8.79,0,0,1,18.15,26.18Zm-2.82-2.89c1.09.32,0,2.52,2.12,2-.74,1.12-1.25,1.87-1.76,2.63C13.46,25.92,13.46,25.92,15.33,23.29ZM12.8,20.86c.35.55.45,1.4,1.14,1.58.92.24.53.52.23,1-1.31,2-1.22,1.95-3,.23-.94-.92-1.93-1.63-1.28-3.12l1-1.47C11.93,19.27,12.33,20.09,12.8,20.86ZM6.33,20.2a23.29,23.29,0,0,0,1.81-2.78c.73-1.05.73-1,1.52.07.3.4.9.56.89,1.2a3.62,3.62,0,0,0-1,1.42l-4,5.81C4.78,23.82,4.67,21.94,6.33,20.2Zm.11,14.33A9.2,9.2,0,0,1,8,24.54c.58-.69,1.1-1.29,1.8,0,.51.92,1.86,1.11,2.17,2.28l-.73,1a3.21,3.21,0,0,0-1,1.46Zm1.8-.47a10.45,10.45,0,0,0,2.35-4.42l1-1.46c.32-.28.51-.89,1.11-.4,2.23,1.16,2.24,1.2.85,3.31-2.08,3.15-4.14,6.3-6.25,9.51A6.12,6.12,0,0,1,8.24,34.06Zm.44,6.75A58.45,58.45,0,0,0,14.8,30.65c.31-.7.75-.67,1.29-.07a2,2,0,0,1,.25,3c-2.81,4.08-5.41,8.3-8.25,12.72C7.47,44.14,7.41,42.55,8.68,40.81ZM8.81,53c-1.11-3.71.61-6.54,2.6-9.48a55.1,55.1,0,0,0,6.05-10.41c.15-.37.23-.8.84-.57.77.3,2,3.28,1.59,4Q14.7,44.74,9.48,53c-.09.15-.19.3-.42.65C8.89,53.17,8.84,53.07,8.81,53Zm3.66-2.35c2.64-4.54,5.88-8.69,8.5-13.72.4,1.88,2.23,1.78,2.84,3.08.26.54.56.91.12,1.54C19.42,48,15,54.48,10.46,61c-.06.09-.19.12-.4.24L9.92,61C8.08,56.86,10.63,53.79,12.47,50.62Z"/><path class="cls-1" d="M57,11.66c.09.18.18.36.28.54A2.74,2.74,0,0,0,57,11.66Z"/><path class="cls-1" d="M213.28,182.58l-.35-.29A.56.56,0,0,0,213.28,182.58Z"/><path class="cls-1" d="M118.15,191.56c0,.08,0,.15.12.22a.86.86,0,0,1,0-.32S118.19,191.49,118.15,191.56Z"/><path class="cls-1" d="M236.2,182.42l0-.47A.29.29,0,0,0,236.2,182.42Z"/><path class="cls-1" d="M27.12,36.93l-.05.49A.35.35,0,0,0,27.12,36.93Z"/></g></g></svg>