<svg xmlns="http://www.w3.org/2000/svg" viewBox="0 0 103.21 203.3"><defs><style>.cls-1{fill:#1d314f;}</style></defs><title>Asset 15</title><g id="Layer_2" data-name="Layer 2"><g id="Capa_1" data-name="Capa 1"><path class="cls-1" d="M102.93,143c-1-10.19-4.78-19.45-9.59-28.33C87.53,104,80.23,94.18,73.66,83.93a114.15,114.15,0,0,1-7.18-12.64,92.44,92.44,0,0,1-7.3-24.51,152.83,152.83,0,0,1-2-21.12c-.13-5,0-9.93-.1-14.9A21.17,21.17,0,0,0,56,3.23C55.09,1,53.71,0,51.49,0a4.61,4.61,0,0,0-4.18,3.32,19.15,19.15,0,0,0-1.05,6.41c-.13,4.82.14,9.64,0,14.46a151.11,151.11,0,0,1-3.52,29.9A90.57,90.57,0,0,1,29.9,83.66C24.57,91.79,19,99.73,13.87,108c-4.59,7.51-8.72,15.27-11.24,23.74A62,62,0,0,0,4,171.5c6.24,17.06,18.18,27.76,36.27,31.12,1.24.23,2.54.09,3.72.68h.55c.48-.53,1.09-.2,1.65-.24l10.91,0h1.66s0,.06,0,.09a21.45,21.45,0,0,0,4.09-.21,43.94,43.94,0,0,0,27.85-15.52,54.41,54.41,0,0,0,11.91-26.27c.37-2.1.27-4.23.62-6.32V143.42C103,143.38,103,143.21,102.93,143ZM83.73,103.3c.47,0,.45.4.63.77-.53-.07-.81-.22-.84-.64C83.52,103.39,83.66,103.29,83.73,103.3ZM67.22,78.51c.36,2.15,2.62,2.86,3.4,4.66-.33.48-1,0-1.26.47a.38.38,0,0,0,.38.45c2.61.12,3.27,2.46,3.86,4.13a52,52,0,0,0,4.49,8.83c.19.32.37.64.55,1a1.22,1.22,0,0,1,.58,1,1.27,1.27,0,0,1-.76-.69c-.31-.08-.63-.51-.88-.27-.87.81-1.1,0-1.49-.48.32-.18.67.18.93-.15,0-.08,0-.21-.08-.24-3.17-1.84-4.6-5.08-6.42-8-.84-1.33-1.58-2.71-2.36-4.08-.44-.78-1.3-1.66.53-1.91-.64-.52-1.54-.17-1.91-.81a10.41,10.41,0,0,1-1.28-3.64c0-.22-.11-.55.2-.55C66.23,78.21,67.15,78.05,67.22,78.51Zm-3.95,15a1.22,1.22,0,0,1-1-.65c-.86-1.52-1.75-3-2.65-4.58,1.53-.22,1.51-.19,2.61.7a5.72,5.72,0,0,0,2.06,1.22c2.22.66,3.31,2.6,4.55,4.73A20.49,20.49,0,0,0,63.27,93.47Zm-5.38-23h.3c0,1-.11,1.94,0,2.91.07,1.25-.46,1.54-1.62,1.14Zm-2,1.54a12,12,0,0,1-.7,2,1.27,1.27,0,0,1-1.89.57c-.49-1.19-.72-.41-1.22-.07s-1.12-.22-1.78-.09c.64-1.76,1.23-3.35,1.77-5a.89.89,0,0,1,.89-.68c1.2-.15,2.75-.48,3.5.15C57.4,69.67,56,70.91,55.84,72ZM51,79.46a7,7,0,0,0,1.4-2.65c.32-1.14,1-1.43,2.1-1.09L52.59,81a.51.51,0,0,0-.07.15L52,82.38c-.36-.07-.89.35-1-.28C50.73,81.23,50.27,80.29,51,79.46Zm-.52-1.34c-.57-2.39-.53-2.48,1-2.3Zm2.18,3.58a41.27,41.27,0,0,0,2.67-4.49c.19,1.54-.06,2.92.23,4.26.12.56-.34.45-.61.44a5,5,0,0,0-1.76.3C52.8,82.22,52.51,82.17,52.63,81.7ZM50.35,70.21a14.19,14.19,0,0,0-.89,2.62,1.53,1.53,0,0,1-2,1.35l2.08-5.94C50.59,68.66,50.79,69.25,50.35,70.21Zm-2.84-.68C47,71,46.44,72.48,46,74c-.22.65-.59.9-1.2.8s-.93,0-.63-.77q1-2.43,1.9-4.91a1.07,1.07,0,0,1,1.42-.71C48.15,68.58,47.62,69.18,47.51,69.53Zm-.74,6.26c.32-.75,1.07-.55,1.82-.78-.37,1.15-.69,2.18-1,3.2-.25.34-.62.77-.27,1.11s.48-.21.56-.52l.89-1.36.45-1v3c.26,2.91.26,2.9-2.54,2.93-.86,0-1.73.1-2.73.15C44.91,80.16,45.83,78,46.77,75.79Zm-1.39,7.88a13.84,13.84,0,0,0,2.2-.2c2.53-.2,2.06-.79,2.76,2.32-2.8-.11-5.62-.58-8.35,1.06C42.46,84.73,43.29,83.51,45.38,83.67Zm-2.11,3.65c2.33-.22,4.61-.93,7.14-.66-.88,1.59-1.67,3-2.48,4.48-.61,1.07-1.74,1-2.7,1a15.86,15.86,0,0,0-6.63,1c.89-1.79,1.63-3.29,2.4-4.78A2.57,2.57,0,0,1,43.27,87.32Zm7.88.32L53.44,92a17.09,17.09,0,0,1-4-.44Zm1.37-1.21a21.54,21.54,0,0,1,1.95,1.1c.6.41.78,1.41,1.14,2.16s.64,1.4,1,2.11a1.43,1.43,0,0,1-2.06-.86A21.76,21.76,0,0,1,52.52,86.43Zm2.29-1.21c-.25-.64-.24-1.64-1.35-1.62a5,5,0,0,0,.43,2.23c-1.13-.3-2.16-.2-2.49-1.64-.25-1.09.13-1.06.89-.94.85-.16,1.7-.34,2.55-.49a.9.9,0,0,1,1.18.79,30.16,30.16,0,0,0,1,2.92A1.79,1.79,0,0,1,54.81,85.22Zm1.64-4.74c-.25-1.3-.13-2.67-.71-3.93-.26-.57.18-.91.71-.83s1.59-.57,1.59.81a19.46,19.46,0,0,0,.67,5.8C57.11,82.55,56.69,81.73,56.45,80.48Zm5.14,6.82c-2.79-.28-3.44-.94-4-3.68C60.4,83.26,59.71,86.31,61.59,87.3Zm-1-3.54c1.57-.34,1.55-.33,2.2.88.77,1.46,1.58,2.91,2.54,4.66C62.12,88.45,61.84,85.73,60.55,83.76Zm3.66,0a1.81,1.81,0,0,1,2.43,1c1.21,2.23,2.64,4.34,4,6.51.24.4.72.73.58,1.33C68.18,91.11,65.49,87.67,64.21,83.79ZM74.4,97.24c-1.75-.72-3.43-1.06-3.94-2.95C71.67,94.22,73.34,95.38,74.4,97.24ZM65.66,74.08c.42.84.85,1.67,1.45,2.86l-1.71-.66c-.53-.9,0-1.88-.42-2.93A.83.83,0,0,1,65.66,74.08Zm-.33,8.34a1.67,1.67,0,0,1-2.5-1.29,39.14,39.14,0,0,1-1-4.44c1.66.14,2.59.78,2.52,2.59A8.06,8.06,0,0,0,65.33,82.42ZM43.55,66.84A7.91,7.91,0,0,0,44.08,63c-.51-5,.38-9.77,1.47-14.57.2-.88,0-1.92,1-2.51.18-.1.19-.6.19-.91-.1-7.43,1-14.8,1.1-22.22,0-4.36-.15-8.72-.2-13.07a12,12,0,0,1,.67-4.17l.81,6.91h.33a3.93,3.93,0,0,0,.19-1,42.23,42.23,0,0,0-.57-6.36,1.22,1.22,0,0,1,.63-1.51c.47-.25,1-1.12,1.6-.16a.37.37,0,0,0,.34.06c1.51-.6,2.2-.25,2.44,1.43.3,2.16.42,4.34.75,6.49.81,5.44.61,10.92.83,16.38a153.45,153.45,0,0,0,1.9,19.49c.42,2.46-.48,4.77-.67,7.16a40.84,40.84,0,0,0-.11,7.08c0,.2-.06.48.41.58.45-2.88.89-5.75,1.34-8.63A128.24,128.24,0,0,0,63.45,69c-1.32-.06-2.45-.9-3.73-.47,0,.66.54.72,1,.73,1,0,1.9.69,2.9.91.7.15.61.83.59,1.38a31,31,0,0,0-.13,3.33c.11,1.33-.46,1.32-1.42,1a4.71,4.71,0,0,0-3.25-.28c1.65.63,1.37,1.93,1.46,3a18.44,18.44,0,0,0,.84,3.76c-1.3.49-1.81-.11-2.07-1.26a31.57,31.57,0,0,1-.56-8.67c.13-2.78-.6-5.52-.19-8.29a1.78,1.78,0,0,0-.42-1.4c-.91,1.2-.79,2.59-1.07,3.84-.16.69-.27,1-1.1,1-1.15-.08-2.63.44-3.39-.11s.09-2.1,0-3.23a12.38,12.38,0,0,0-.8-4.63c-.23,2.27-.42,4.18-.63,6.09,0,.41-.15.82-.21,1.23-.09.59-.51.39-.86.39-.51,0-.58-.29-.52-.74,1-7.14.32-14.25-.29-21.36a5.32,5.32,0,0,0-.48-2.61,7.62,7.62,0,0,0-.62,3.53c.06,3.66.21,7.32.32,11a71,71,0,0,1-.29,8.75c-.13,1.38-.82,1.58-1.84,1.43a31.27,31.27,0,0,0-.23-11.6,3.68,3.68,0,0,0-.52,2.5c0,2.32,0,4.64-.27,6.95a8.15,8.15,0,0,1-.52,2.15c-.34.81-1.08.49-1.57.39S43.44,67.12,43.55,66.84Zm-2.38-1.41a28.16,28.16,0,0,1,1.63-4.76,25,25,0,0,1-.14,5c.12,2.07.12,2.07-2.63,2.44A8.59,8.59,0,0,1,41.17,65.43ZM39,70.36a.91.91,0,0,1,.57-.56,22.67,22.67,0,0,1,5.17-1c-.7,1.89-1.35,3.66-2,5.43-.1.26-.23.52-.56.56A17.2,17.2,0,0,0,35.89,77ZM23.82,96.52c.18.12.31.2.31.21-.14.29-.13.74-.68.67C23.31,96.94,23.69,96.81,23.82,96.52Zm-2.73,4.36a.82.82,0,0,1,.16.32c.17.81-.63.69-1,1C20.42,101.65,20.56,101.12,21.09,100.88ZM4.52,167.48c.64.43.66.89.78,1.54C4.57,168.62,4.63,168.13,4.52,167.48Zm.69,1.9c.54.15.57.61.66,1C5,170.45,5.37,169.75,5.21,169.38Zm1.19,3.1c-.31-.64-.93-1.21-.52-2l.81,1.66a92.14,92.14,0,0,0,7.93,12.43C10.5,181.48,8.36,177,6.4,172.48Zm18.31,21.39a26.73,26.73,0,0,1-6.82-5.19c2.75,1.13,4.75,3.32,7.17,4.91l1.66,1A2.32,2.32,0,0,1,24.71,193.87ZM66.49,198c-5.85,2.7-12,2.34-18.24,2.18a40,40,0,0,1-18.35-5.08c-.4-.21-.78-.46-1.28-.76.57-.33.91,0,1.2.17,7.61,3.53,15.71,4.21,23.94,4.18a82,82,0,0,0,12.43-.94c.38-.32.83-.25,1.42-.31A1.69,1.69,0,0,1,66.49,198Zm28.34-20.88a45,45,0,0,1-11.09,13.19,9.86,9.86,0,0,1-2.64,1.49,74.63,74.63,0,0,1-10.92,3.5,4,4,0,0,1-1.74.49,36.85,36.85,0,0,1-10,1.77c-5.46,0-11,.26-16.33-1.21-.5.14-.78-.29-1.18-.41a2.32,2.32,0,0,1,1.72.12,69.19,69.19,0,0,0,25.81-2.22,1.53,1.53,0,0,1,1.76-.14l-1.17.43-1.94.9c.19.68.68.38,1,.46l1.49-.47c6.49-2.68,17.13-8.76,19.15-11-.42-.33-.69.32-1.16.1,1.1-1.35,2.22-2.65,3.26-4a10.2,10.2,0,0,0,2.33-4.65c-6,8.64-13.72,14.61-24.16,16.65a2.7,2.7,0,0,1-1.32.39,4.2,4.2,0,0,1-2.57.51c.63-.61,1.49-.56,2.24-.8l1.26-.38h0l.08.06s0,0,0-.08a58.09,58.09,0,0,0,12.2-6.32,28.27,28.27,0,0,0,8.21-8.38,3.69,3.69,0,0,0,.78-2.69c-.63.17-.86.63-1.16,1-.94,1.2-1.84,2.44-2.86,3.58-5.11,5.68-11.56,9.24-18.63,11.9-11.48,4.33-22.7,4-33.7-1.56a53.07,53.07,0,0,1-9.35-6.45c-.66-.54-1.28-1.27-2.34-1A41.31,41.31,0,0,0,49.8,195h3.38l2.46-.05h0c-.65.58-1.45.16-2.16.32a1.89,1.89,0,0,1-1.47.18H49.53A53.85,53.85,0,0,1,37,194.51c-4.09-.9-7.62-3.27-11-5.77-2-1.53-3.94-3.23-5.92-4.83a1.8,1.8,0,0,0-1.56-.66c2.29,3,5.21,5.09,7.88,7.46-2.54-1-5.22-1.56-7.25-3.59A62.38,62.38,0,0,1,5.53,166.18c-.31-.76-.72-1.49-1.1-2.23,0-.1-.22-.14-.32-.2-.4.28-.06.72-.35,1.13A50,50,0,0,1,2,155.71c-1.25-10.83.76-21.11,5.17-31a10.17,10.17,0,0,1,1.28-2c.35-.45,1.23-.83.56-1.73-.17-.24.14-.66.6-.75s1-.62.88-.92c-.64-1.41.64-1.53,1.25-2.1h0c.08-.31.29-.65.21-.91-.48-1.64.62-1.74,1.72-1.87a12.26,12.26,0,0,1-1.54,3l-.09.15c-1,2.09-2,4.16-2.92,6.28-2.51,5.78-4.79,11.65-5.6,18a7,7,0,0,0,.28,4.09c1.8-12.3,6.61-23.48,12.5-34.28-1.35.44-1.49,2-2.61,2.52-.1-.62.32-1.17.15-1.87-.07-.31.06-1.56,1.24-1.19.3.09.45-.26.62-.48,1.12-1.42,2.41-2.76,2.56-4.71a1,1,0,0,1,.07-.12c-.58-.51-.08-.79.23-1.12-.17.76,1.34.36.85,1.43,1.67-2.81,4.61-4.08,6.66-6.35-3,5.77-7.17,10.87-9.8,16.84a.85.85,0,0,0,1.24-.43c2.78-5.2,6.43-9.85,9.38-14.94a26.12,26.12,0,0,0,1.3-2.45c.33-.72.66-1.29,1.6-1.24.78,0,1.14-1.14,2.19-.79-.69,1.18-1.34,2.37-2.08,3.49a19.52,19.52,0,0,0-2.49,4.63c-.08.24-.25.56.09.73s.45-.06.6-.24a17.63,17.63,0,0,0,1.23-1.51,45.52,45.52,0,0,0,4-7.62,2.09,2.09,0,0,0,.13-1.4,22.65,22.65,0,0,0-9.25,5.07,6.17,6.17,0,0,1,4.14-4.7,3.54,3.54,0,0,0,1.44-1Q31.33,92.61,33,91.1a3.27,3.27,0,0,1,1.83-.92c1.45-.18,2.5-1.17,3.71-1.84.21-.12.27-.37.09-.7-4.5,1-7.77,4.06-11.22,6.73-.41-.22-.23-.43-.13-.62a42.32,42.32,0,0,0,3.29-7.18,1.27,1.27,0,0,1,1.13-.87c.76-.17,1.53-.3,2.44-.47-.24,1.24-1.06,2.25-1.11,3.68a6.82,6.82,0,0,0,2.08-2.58c.38-.55.37-1.36,1.11-1.66.66.38,1-.06,1.43-.4-.43-.73-.94-.23-1.4-.22.56-2.19,1.88-4.14,2.15-6.44a9.44,9.44,0,0,0-2.7,4.27C35,83.79,34,84.75,31.8,84.26a62.26,62.26,0,0,1,3.66-6.35c.47-.64,1.88-.83,2.87-1s2.22-.47,3.56-.65c-.55,1.36-1,2.55-1.53,3.74l.37.21a6.7,6.7,0,0,0,2-3.07,1.89,1.89,0,0,1,2.53-1.29c-1,2.23-1.94,4.4-2.88,6.59-.23.53-.73.49-1.14.66-.94.39-2,.41-3,1.34,1.24.2,2.18-.29,3.35-.32-2.66,5.76-5.66,11.18-8.42,16.71a1,1,0,0,0-.44.94.88.88,0,0,0,.74-.63A25.94,25.94,0,0,0,37,95.86,3.24,3.24,0,0,1,39.63,94c2.4-.41,4.8-.88,7.42-1.3-2.65,5.09-5.24,10-7.82,15a1,1,0,0,0-.43,1.1,1.16,1.16,0,0,0,.7-.8h0a116.86,116.86,0,0,0,8.94-14.68c.4-.75.66-1.28,1.6-.5.71.58,1.71.23,2.54.16A2.24,2.24,0,0,1,55,94.31a43.57,43.57,0,0,0,4.47,6c.18.21.27.64.85.43-1.23-2.63-3-4.92-4.37-7.47,1.27-.31,1.28-.32,1.83.65a34.91,34.91,0,0,0,3.55,5.29,2.4,2.4,0,0,0,1.51,1.12c-.57-2.45-2.1-4.29-3-6.4-1.21-2-2.55-3.92-3.6-6.09a1.39,1.39,0,0,1,2.06.87,26.5,26.5,0,0,0,1.44,2.53c.34.61,1.25,1.24,0,1.89a1.82,1.82,0,0,0,.13.37,2.66,2.66,0,0,1,2.32,1.43c.74,1.15,1.63,2.2,2.66,3.56,0-1.69-1-2.63-1.39-3.82l1.06,0a1.3,1.3,0,0,0,1.22.78c1.38-.08,2.44,1.16,3.87.87.42-.09.53.45.73.74,1.43,2.06,2.76,4.18,4.39,6.09a3.69,3.69,0,0,0,2.35,1.67c-1.24-2.55-2.91-4.53-4.17-6.82a3.53,3.53,0,0,1,3.41,1.79A37.92,37.92,0,0,0,80,105c-.16-2.22-2-3.6-2.83-5.48a.7.7,0,0,1,.86,0,61.83,61.83,0,0,1,4.81,4.33c1,1,1.53,2.44,2.83,3.26a7.41,7.41,0,0,1,2.83,3.35,2.16,2.16,0,0,1,.75,1.32c-.55,0-.76-.44-1-.83a1.4,1.4,0,0,0-.1-.16c-.2-.09-.48-.31-.59-.25-.45.27-.15.66,0,.94,1.93,3.72,3.74,7.51,6.45,10.76.24-.08.29-.2.28-.34,0-.31-.46-.72,0-.92a1.66,1.66,0,0,1,.5,1A69.14,69.14,0,0,1,100,137.19C102.88,151.07,101.86,164.47,94.83,177.08ZM58.38,194.69c-.39.39-.87.23-1.33.24s-.73.44-1.11,0a1.38,1.38,0,0,1,1.11-.26Zm1.43-.17c.25-.69.94-.33,1.38-.58l0,0,1.15-.28,1.33-.36c-.09.67-.62.54-1.05.58h0a2.14,2.14,0,0,1-1.42.3h0c-.39.46-1,.13-1.42.36Z"/><path class="cls-1" d="M46.47,203.16H46.1c0,.05,0,.09.1.13H57.05a.68.68,0,0,0,0-.14H46.47Z"/><path class="cls-1" d="M57.13,203.16s0,0,0-.08h0l0,.08Z"/><path class="cls-1" d="M61.23,194l-.08.07s0,0,.08.08h0Z"/><path class="cls-1" d="M90.15,136.39c.23,1.17.46,2.4.71,3.61,1,5,2.42,9.89,2.21,15.07-.49,12.39-5.78,22-16.26,28.71a60.57,60.57,0,0,1-19.25,7.58,4.68,4.68,0,0,0-2.48.92,10.24,10.24,0,0,0,4.09,0,48.34,48.34,0,0,0,8.24-2.42c8-3,15.26-7.32,20.12-14.61C95.7,163,96.35,150,90.66,136.49,90.58,136.32,90.46,136.19,90.15,136.39Z"/><path class="cls-1" d="M43.25,191a54.21,54.21,0,0,1-10.54-4.89c-10.13-6.11-16.84-14.69-19.2-26.47-.49-2.44-.61-5-1.58-7.3.06-.6.1-1.2.2-1.8A96.29,96.29,0,0,1,17.69,131c.14-.36.66-.89-.05-1.15s-.59.44-.74.77a58.55,58.55,0,0,0-4.31,13.13,40.9,40.9,0,0,0-1,9.15,4.78,4.78,0,0,0,.1,1.72,31.1,31.1,0,0,0,4.36,15.73c5.7,10,13.56,17.4,24.78,20.77a7.61,7.61,0,0,0,3.42.45A1.6,1.6,0,0,0,43.25,191Z"/><path class="cls-1" d="M32.4,118.8a6.32,6.32,0,0,0-2,2.57,113,113,0,0,0-7.2,17,42.74,42.74,0,0,0-2.67,15.11,16.38,16.38,0,0,0,1,6,3.55,3.55,0,0,0,.29-2.09c-.06-1.48-.28-3-.22-4.44a52.4,52.4,0,0,1,3.1-15.46,112.89,112.89,0,0,1,7-15.41A4.69,4.69,0,0,0,32.4,118.8Z"/><path class="cls-1" d="M87.69,117.75c5.38,10.8,10.27,21.74,11.43,34,.9-5.17-.27-10.05-1.78-14.86A65.76,65.76,0,0,0,87.69,117.75Z"/><path class="cls-1" d="M24.58,130c.15-.35.55-.78,0-1a.8.8,0,0,0-1.13.5c-.09.22-.2.42-.29.63a79.26,79.26,0,0,0-3.51,9.79c-1.49,5.44-2.48,10.94-1.79,16.61a6.34,6.34,0,0,0,1.48,4,.8.8,0,0,0,.22-.82c-1.39-6.72-.45-13.28,1.39-19.77A79.16,79.16,0,0,1,24.58,130Z"/><path class="cls-1" d="M68.08,185.87a27.82,27.82,0,0,0,9.2-5.29A4.62,4.62,0,0,0,79,178c-8.09,5.91-17.1,9.07-26.71,10.78a4.85,4.85,0,0,0,3,.45A45.77,45.77,0,0,0,68.08,185.87Z"/><path class="cls-1" d="M7.44,145.45c.37-3,1-6,.73-9.12a6.46,6.46,0,0,0-.28.73,57.06,57.06,0,0,0-2.3,18.37,38.6,38.6,0,0,0,2.15,11.12c.13.35.12.94.74.78s.35-.62.23-1C6.45,159.48,6.58,152.5,7.44,145.45Z"/><path class="cls-1" d="M87.72,139.88c2.74,9.65,2.65,19.17-1.33,28.88C91.62,163.79,92.4,145.1,87.72,139.88Z"/><path class="cls-1" d="M10.13,150.93a93.72,93.72,0,0,1,1.63-12.81c-3.56,3.86-4.08,22.8-.67,25.66C10.65,159.41,9.9,155.2,10.13,150.93Z"/><path class="cls-1" d="M85,130.78c-1.35-3-2.81-6-4.44-8.93a110.09,110.09,0,0,0-6.81-11.26c-.37-.51-.67-1.26-1.76-1.09,4.41,7.63,8.47,15.25,13.14,22.79A1.34,1.34,0,0,0,85,130.78Z"/><path class="cls-1" d="M70.35,177.86a9.12,9.12,0,0,0,1.29-1.05c.13-.12.44-.23.23-.52s-.4-.11-.6,0l-.73.4c-5.78,2.86-11.7,5.33-18.23,5.81-1.6.12-3.21,0-4.81,0l-.08.41c.9.14,1.81.31,2.72.44.55.07,1.11.13,1.66.15C58.63,183.77,64.63,181.27,70.35,177.86Z"/><path class="cls-1" d="M95.36,148.4c.63,4.14.25,8.31.4,12.46a36.36,36.36,0,0,0-2.66-24.64C93.45,140.35,94.74,144.31,95.36,148.4Z"/><path class="cls-1" d="M85,139.7c.06-3.43-7.49-18.6-10.58-21.83C74.47,119.1,84.21,139.2,85,139.7Z"/><path class="cls-1" d="M19.76,126A180.34,180.34,0,0,1,31.1,106.34l-.65-.4c-4.62,6.06-8.75,12.4-11.38,19.62Z"/><path class="cls-1" d="M84.39,165.36A39.1,39.1,0,0,1,71.81,179.6C77,179.47,84.76,170.66,84.39,165.36Z"/><path class="cls-1" d="M81.18,140.43c3.21,8.47,2.77,16.92.09,25.38C85.33,160.27,85.33,143.24,81.18,140.43Z"/><path class="cls-1" d="M35.59,102.78c-3.5,5.39-7.47,10.47-10,16.44C29.93,114.34,33.72,109.14,35.59,102.78Z"/><path class="cls-1" d="M43.49,94.55c-1,.5-8.73,14-9.12,15.94C36.84,109.31,43.65,97.43,43.49,94.55Z"/><path class="cls-1" d="M40,187.3a2.54,2.54,0,0,0,2.11-.13,105.86,105.86,0,0,1-16-9.23A26.76,26.76,0,0,0,40,187.3Z"/><path class="cls-1" d="M14.84,128.79c.66.3.65-.34.8-.64q2.13-4.28,4.22-8.56c.94-1.93,1.86-3.88,2.94-6.15-1.27.52-1.29.5-1.6,1a55.7,55.7,0,0,0-6.43,13.43C14.67,128.15,14.28,128.53,14.84,128.79Z"/><path class="cls-1" d="M68.34,168.39c-3,2.71-6.37,4.74-10.53,5.12-.37,0-.79.14-.74.64s.44.18.66.23.57,0,.84-.09c7.92-1.44,12.81-6.54,16.18-13.46a2.52,2.52,0,0,0,.14-.54c0-.23.12-.49-.17-.58s-.44.13-.55.32-.27.59-.4.88A22.49,22.49,0,0,1,68.34,168.39Z"/><path class="cls-1" d="M89.94,128.15A50.6,50.6,0,0,0,82,113.45C82,115.23,88.41,127,89.94,128.15Z"/><path class="cls-1" d="M77.07,152.43a35.1,35.1,0,0,0-.12-5.52c-.53-4.95-2.52-9.43-4.56-13.89-.23-.5-.39-1.48-1-1.17s0,1,.28,1.53c2.65,5.7,4.89,11.5,4.63,18C76.26,151.84,76.21,152.4,77.07,152.43Z"/><path class="cls-1" d="M22.07,161.41a32.38,32.38,0,0,0,7.65,11.87c.29.28.64.72,1.35.25-3.3-3.95-5.64-8.55-8.88-12.87C22.1,161.16,22,161.31,22.07,161.41Z"/><path class="cls-1" d="M44.44,184.1a52.86,52.86,0,0,1-11.77-4.81,2.28,2.28,0,0,0-1.48-.73,2.46,2.46,0,0,0,1.1,1.09,22.13,22.13,0,0,0,6.79,4.18,15,15,0,0,0,5.21,1.32c.4,0,.94,0,1-.46S44.79,184.19,44.44,184.1Z"/><path class="cls-1" d="M65.2,121.44a2.52,2.52,0,0,0,.46.52.52.52,0,0,0,.63.12c.36-.25.07-.48-.06-.69C63,116.3,59.7,111.28,56.11,106.45a1.17,1.17,0,0,0-.82-.6c-.1,0-.16.11-.2.24-.11.36.11.61.3.87C58.92,111.61,62.07,116.52,65.2,121.44Z"/><path class="cls-1" d="M63.63,132.88c-.51.28-.13.72.07,1.06a58.87,58.87,0,0,1,5.19,11.91,1.61,1.61,0,0,0,.3.6.63.63,0,0,0,.49.18c.11,0,.16-.28.22-.4s-.14-.42-.19-.59a56.14,56.14,0,0,0-5.29-12.16C64.25,133.17,64,132.66,63.63,132.88Z"/><path class="cls-1" d="M56.34,169.19c4.66-.72,8-3.43,10.5-7.22.12-.18.21-.39.33-.61-.08-.13-.14-.3-.23-.32-.46-.11-.64.23-.86.54-2.4,3.54-5.53,6-9.85,6.76-.38.07-.83.21-.76.64S56,169.23,56.34,169.19Z"/><path class="cls-1" d="M26.87,124.66c1.23-2.66,2.44-5.33,3.66-8a14,14,0,0,0-4.67,7.7c-.08.34-.24.83.18,1S26.71,125,26.87,124.66Z"/><path class="cls-1" d="M59.48,126.78a5.49,5.49,0,0,0,.49.67.53.53,0,0,0,.65,0c.3-.17.1-.41,0-.58-1.89-2.74-3.67-5.56-5.76-8.15a6,6,0,0,0-.51-.46c-.48.42-.31.72,0,1.1C56,121.85,57.76,124.32,59.48,126.78Z"/><path class="cls-1" d="M69.35,149.05a11.36,11.36,0,0,1-.08,4.11,20.47,20.47,0,0,1-.76,3.64c-.1.31-.15.68.25.82s.47-.26.56-.55a20.12,20.12,0,0,0,1-6.44c0-.53-.1-1.13-.15-1.72,0-.29-.07-.61-.43-.58S69.27,148.71,69.35,149.05Z"/><path class="cls-1" d="M59.74,140.05c-.1-.13-.24-.3-.46-.17s-.36.34-.24.58q1.16,2.21,2.33,4.41a.5.5,0,0,0,.6.21c.22-.05.32-.16.22-.38A24,24,0,0,0,59.74,140.05Z"/><path class="cls-1" d="M55.75,161.58a4.78,4.78,0,0,0,3.12-1.65c.17-.19.25-.4,0-.6a.41.41,0,0,0-.61,0,5.35,5.35,0,0,1-2.48,1.4.49.49,0,0,0-.38.52C55.45,161.57,55.69,161.58,55.75,161.58Z"/><path class="cls-1" d="M57.57,137.12l-2-2.74c-.14-.19-.33-.37-.57-.22a.45.45,0,0,0-.11.71c.53.74,1.06,1.49,1.6,2.23C56.79,137.54,57.14,137.49,57.57,137.12Z"/><path class="cls-1" d="M61.76,154.21c-.23.64-.47,1.28-.73,1.92a.48.48,0,0,0,.26.67c.37.22.42-.08.56-.32a7.07,7.07,0,0,0,.75-2.16c.06-.23-.06-.45-.39-.51S61.84,154,61.76,154.21Z"/><path class="cls-1" d="M34.31,95.44c.57.16.76-.25,1-.66-.5-.27-.88-.19-1.11.32A.36.36,0,0,0,34.31,95.44Z"/><path class="cls-1" d="M71.22,102.78a183.19,183.19,0,0,0,12,18.91l.66,1a1.42,1.42,0,0,0-.4-1.28,93.7,93.7,0,0,0-11.94-19c-.13-.26-.29-.73-.58-.51S71,102.54,71.22,102.78Z"/><path class="cls-1" d="M53.16,28.92c.15,4.49.49,9,1,13.45.21,1.92.89,3.91.59,5.75a108.81,108.81,0,0,0-1.31,14.52,7.08,7.08,0,0,0-.21,2.72A1.47,1.47,0,0,0,53.66,64c.62-3.7,1.27-7.39,1.85-11.1.37-2.32,1.08-4.6,1-7,0-.39.35-1.12-.58-1.06l-.43.75a9.44,9.44,0,0,1-.08-3h0a64.68,64.68,0,0,0-2-14.72A1.84,1.84,0,0,0,53.16,28.92Z"/><path class="cls-1" d="M52,9.06c-.47,4.64.67,12.31,2,13.55A51.06,51.06,0,0,0,52,9.06Z"/><path class="cls-1" d="M51.85,37.9a53,53,0,0,0-1.52-13.59C50.36,28.9,50,33.53,51.85,37.9Z"/></g></g></svg>