<svg xmlns="http://www.w3.org/2000/svg" viewBox="0 0 190.56 188.06"><defs><style>.cls-1{fill:#042d4f;}</style></defs><title>Asset 5</title><g id="Layer_2" data-name="Layer 2"><g id="Capa_1" data-name="Capa 1"><path class="cls-1" d="M178,122.73a1.68,1.68,0,0,1,0-.39q3-12,5.12-24.13a12.57,12.57,0,0,0,.37-4.1c-.46.91-6.29,28.15-6.38,29.6l.68-.44c.25-.13.64-.2.62-.54S178.17,122.73,178,122.73Z"/><path class="cls-1" d="M180.43,94.56c-.49,2.18-.92,4.12-1.36,6l-3.54,15.6c-.55,2.42-1.39,4.79-1.4,7.31,0,.94-.75,1.64-.82,2.58,1.61-.2,1.08-1.44,1.24-2.33C178.87,107.13,181,96.67,180.43,94.56Z"/><path class="cls-1" d="M186,100.9c-1,3.35-1.74,6.73-2.57,10.09s-1.71,6.73-2.59,10.19c.9-.07,1.21-.64,1.38-1.37,1.21-5.32,2.77-10.56,3.62-16A5.78,5.78,0,0,0,186,100.9Z"/><path class="cls-1" d="M185,118.52c.87-.06,1.18-.58,1.4-1.31a98.74,98.74,0,0,0,2.22-10.38,8,8,0,0,0,.18-3.28C187.44,108.48,186.53,113.52,185,118.52Z"/><path class="cls-1" d="M190.14,110.85c-.33,1.47-.65,2.94-1,4.62,1.61-1.36,1.12-3,1.44-4.52Z"/><path class="cls-1" d="M96.77,143.07a.6.6,0,0,0,0-.16C96.8,143,96.79,143,96.77,143.07Z"/><path class="cls-1" d="M50.79,133.25v0l0,0c-.29.19-.47.42-.27.74a.53.53,0,0,0,.06.1v0Z"/><path class="cls-1" d="M178.73,92.56a2.53,2.53,0,0,1,1.3-2c.46-.24.9-.56.6-1.27l-1.2.48c-.31-.81.45-1.59,0-2.43-.88,1-.2,2.49-1.36,3.22a19.11,19.11,0,0,1-3.05,2c.35-2.45,1-4.78,1-7.22a37.3,37.3,0,0,0-1.54,6.12,3.62,3.62,0,0,1-2.67,3.22c.35-3.3,1.43-6.46,1.57-9.82-.5.16-.5.5-.56.78-.53,2.48-1.1,5-1.56,7.45s-1.19,3.44-3.48,4.18a168.77,168.77,0,0,0,3.46-17.62,1.23,1.23,0,0,0-.54.88c-.42,1.88-.85,3.75-1.29,5.63-.83,3.58-1.71,7.14-2.48,10.74a2.89,2.89,0,0,1-2.4,2.38,151.68,151.68,0,0,0,4.06-19.42,49.59,49.59,0,0,0-1.56,5.48c-1.05,4.38-2.14,8.75-3.24,13.12-.41,1.62-1.43,2.09-2.72,2.72,2.18-9.43,4.84-18.63,6.3-28.27a1.23,1.23,0,0,0-.74,1.14c-.31,1.55-.71,3.07-1.07,4.6-1.67,7.2-3.48,14.37-5.3,21.54a4,4,0,0,1-2.32,3c2.05-8.15,4.88-16,6.08-24.33a.87.87,0,0,0-.65.79c-.71,3.43-1.71,6.78-2.67,10.15q-1.92,6.75-3.92,13.48a3.68,3.68,0,0,1-2.52,2.38c3-11,6.35-21.79,8.48-33.09a1.2,1.2,0,0,0-.74,1c-.75,2.92-1.45,5.85-2.26,8.76-2.09,7.55-4.31,15.06-6.28,22.63a5.12,5.12,0,0,1-3.17,3.86c.16-.83.3-1.64.45-2.46a.28.28,0,0,0,.06-.19c1.5-4.86,3-9.72,4.33-14.62,2.12-7.68,4.37-15.32,6-23.12A2,2,0,0,0,161,67.1c-.79,2.15-1.28,4.35-1.88,6.53-2.1,7.71-4.31,15.4-6.5,23.09-.88,3.1-2.06,6.15-2.16,9.43-.46,1.08-.9,2.16-1.39,3.22-.71,1.55-2.16,2.14-3.58,2.91a31.1,31.1,0,0,0,1.5-5.83.82.82,0,0,0,.11-.37c.85-2.89,1.7-5.79,2.53-8.68,2.7-9.38,5.31-18.77,7.55-28.27.15-.64.25-1.29.36-1.94s.42-1.17,0-1.8c-3.14,13.63-8.05,26.76-10.71,40.5a17.06,17.06,0,0,0-1.93,5.28c-.25,2-1.43,2.84-3.06,3.58.12-.46.24-.88.34-1.29.79-3.32,2-6.54,2.49-9.92,0-.1.07-.16.06-.2,1.37-4.63,2.8-9.24,4-13.9,2.06-7.74,4.3-15.43,6-23.25a19,19,0,0,0,.6-3.68c-.55.2-.56.62-.62.93-.43,2.19-1.08,4.32-1.67,6.46q-3.12,11.25-6.16,22.52c-1,3.58-2.3,7.07-2.49,10.83a36.7,36.7,0,0,0-3.21,10.6c-.39,2.06-1.73,2.66-3.33,3.4.76-2.75,1.53-5.37,2.2-8,1-3.92,2.34-7.77,3-11.78,3.63-10.56,10.41-36.95,10-38.94-.41.17-.38.58-.45.88-.41,1.79-.9,3.56-1.37,5.33-2.13,8.21-4.45,16.37-6.72,24.54-.75,2.68-1.75,5.33-1.72,8.18a30.35,30.35,0,0,0-2.55,7.56c-.86,4.24-2.55,8.26-3.58,12.46-.39,1.56-1.6,1.94-2.83,2.9.25-.85.4-1.33.53-1.82,1.13-4.22,2.29-8.43,3.38-12.67.83-3.21,1.9-6.36,2.42-9.66a.43.43,0,0,0,0-.14c2.24-7.07,4-14.26,6-21.4,1.52-5.51,2.91-11.06,3.95-16.69a8.56,8.56,0,0,0,.23-.87c0-.16,0-.38-.26-.34s-.27.19-.25.39c-.63,2-1,4.06-1.58,6.08-2.11,8-4.3,16-6.51,23.94-.79,2.85-1.84,5.67-1.86,8.69-2.4,4.7-2.77,10-4.52,14.91-1.11,3.08-1.82,6.3-2.73,9.45a3.81,3.81,0,0,1-3,2.4c2.76-10.21,5.41-20.46,8.31-30.63,3.34-11.65,6.78-23.27,9.59-35.06a17.58,17.58,0,0,0,.74-4.32,1,1,0,0,0-.57.81c-.58,3.28-1.66,6.44-2.52,9.64-2.27,8.36-4.66,16.68-7.07,25-.59,2.06-.64,4.25-1.39,6.24a45.81,45.81,0,0,0-2.3,7.24,45.16,45.16,0,0,1-1.36,5.07c-1.75,5.45-3.4,10.92-4.73,16.5a24.58,24.58,0,0,0-.49,3.95c-1.13-1.7-1.88-2.88-1.31-4.82,1.95-6.63,3.63-13.34,5.38-20,1-3.85,2.24-7.64,2.92-11.57a.41.41,0,0,0,0-.19c.2-.69.39-1.38.59-2.07C139,76.22,142.34,64,145.19,51.62a20.69,20.69,0,0,0,.42-2c.09-.67.48-1.34,0-2.07-3.24,14.4-8.29,28.32-11,42.84a32.23,32.23,0,0,0-2.55,8c-1,4.79-2.8,9.38-4,14.13a106,106,0,0,0-2.59,10.63c-.55-1.52-2-2.33-1.45-4.08,1.55-5.52,3-11.06,4.42-16.61.92-3.56,2.11-7,2.71-10.68a.82.82,0,0,0,.11-.37c.26-.92.53-1.84.8-2.76,3.24-10.9,6.3-21.84,9-32.88a19.15,19.15,0,0,0,.9-5.84c-3.3,13.87-8.31,27.27-11,41.29-.11.24-.22.47-.34.71-2.1,4.52-2.52,9.52-4.13,14.19-1.41,4.07-2.37,8.28-3.56,12.54-.61-.89-1.25-1.57-1-2.7,1.39-5.1,2.72-10.22,4.05-15.34,1.11-4.27,2.49-8.47,3.3-12.82a.61.61,0,0,0,.11-.35l.63-2.15c3.53-12.09,7-24.21,9.88-36.48a10.66,10.66,0,0,0,.49-3.9c-.52,1.42-.83,2.9-1.23,4.35-1.94,7-4,14.05-5.83,21.11-1.48,5.61-3.66,11.06-4.25,16.89a37,37,0,0,0-2.6,8c-1.15,5.48-3.24,10.7-4.5,16.15-.3,1.29-.72,2.56-1.14,4.08a18.65,18.65,0,0,0-1.12-1.78,2.82,2.82,0,0,1-.43-2.91q2.76-9.3,5.4-18.63c1-3.36,2.13-6.65,2.76-10.1,0,0,.07-.06.08-.1,3-9.73,6-19.49,8.67-29.32A87.13,87.13,0,0,0,138.82,42a1.57,1.57,0,0,0,.24-1c0-.17,0-.39-.26-.27s-.15.28-.23.43q-1.51,5.49-3,11c-2.76,9.86-6.38,19.48-8.31,29.57-.18.35-.37.69-.54,1-2,4.35-2.57,9.15-4.2,13.63-1.73,4.73-3,9.61-4.33,14.58l-1.22-1.6a2.66,2.66,0,0,1,.15-1.42q1.07-3.72,2.11-7.45c3.19-11.41,6.37-22.83,9.73-34.2,2.36-8,4.73-16,6.55-24.21.18-.79.3-1.6.45-2.4l-.33,0C129,62.25,122.8,85,115.83,107.73c-.65-.87-1.64-1.3-1.24-2.62,1.49-4.94,2.91-9.91,4.31-14.88,1-3.7,2.35-7.33,3.07-11.12l0-.11c2.38-7.13,4.39-14.36,6.52-21.55,1.73-5.82,3.35-11.67,4.51-17.63.22-.33.39-.69.08-1-.12-.13-.31,0-.33.22-.71,2.16-1.22,4.37-1.81,6.56-1.72,6.42-3.78,12.74-5.54,19.14-1.28,4.67-3.16,9.18-3.7,14l-.31.58c-2.22,4.42-2.7,9.39-4.42,14-1.42,3.78-2.4,7.73-3.61,11.71a12.81,12.81,0,0,0-1.47-1.22c-.73-.44-.66-1-.47-1.67,1.39-4.84,2.78-9.67,4.13-14.52,1.16-4.17,2.58-8.27,3.49-12.51h0a4,4,0,0,0,.46-1.65c4.2-13.11,8.14-26.31,11.7-39.63a2.28,2.28,0,0,0-.68,1c-.61,1.82-1.23,3.64-1.79,5.47-2.11,6.89-4.19,13.8-6.31,20.68a112.23,112.23,0,0,0-3.18,11.09c-.45.75-.06,1.66-.47,2.42-.09.2-.2.39-.29.59-2.13,4.27-2.6,9-4.2,13.5s-2.76,9-4.12,13.5c-.63-.2-.93-.72-1.37-1.07a2.29,2.29,0,0,1-.84-2.84c1.62-4.94,3.14-9.92,4.65-14.89,1.18-3.89,2.66-7.69,3.52-11.67a.34.34,0,0,0,.06-.18c1.67-4.77,3.34-9.53,4.86-14.35,2.31-7.34,4.78-14.63,6.72-22.08a10.25,10.25,0,0,0,.65-4.15,5,5,0,0,0-.52,1.27c-1,3.43-2,6.88-3.08,10.29-2.65,8.24-5.37,16.47-8,24.71a11,11,0,0,0-.89,4.21,38.52,38.52,0,0,0-3.25,8.83,33.77,33.77,0,0,1-1.34,4.25c-1.15,3-2.15,6-3.1,9-.52,1.64-1,3.27-1.53,4.87-1.4-.81-1.38-1.79-1-3.08,1.31-4.17,2.48-8.38,3.7-12.58s2.63-8.15,3.58-12.33h0a3.79,3.79,0,0,0,.47-1.65c4.34-13.43,8.66-26.87,11.93-40.88-.69.25-.73.54-.77.76-.48,2.32-1.22,4.56-1.91,6.82-2.17,7.15-4.3,14.32-6.46,21.48a102.19,102.19,0,0,0-3.07,10.71l-.46,2.19a19.83,19.83,0,0,0-2,5c-1.43,6.38-4.07,12.38-5.69,18.69a5.91,5.91,0,0,1-.82,2.2c-.57-.68-1.32-1.08-1-2.15,2.73-9.86,5.3-19.78,8.18-29.6,3.42-11.67,6.93-23.31,9.9-35.11A17.28,17.28,0,0,0,122,24.3c-6.71,22.87-13.1,45.82-20,69-.51-1.22-1.91-1.51-1.51-3,1.26-4.51,2.43-9,3.62-13.57,1.11-4.23,2.5-8.38,3.29-12.69a.34.34,0,0,0,.06-.19l.51-1.68c3.65-12.06,7.1-24.18,10-36.43.3-1.23.49-2.47.78-4a1.68,1.68,0,0,0-.8,1.23c-.41,2-1,3.89-1.52,5.83-2.43,9.08-5.07,18.1-7.63,27.15-.73,2.56-1.68,5.08-1.67,7.8-2.58,5.18-3.1,11-5,16.4-1.11,3.13-1.86,6.4-2.82,9.76-1-1.25-2.27-1.91-1.69-3.87,3.88-13,7.17-26.15,11-39.16,2.54-8.59,5-17.21,7.07-25.94a18.05,18.05,0,0,0,.84-5.12C109.79,39.34,103.44,63,96.31,86.65c-.59-1-1.78-1.18-1.41-2.53,1.38-5,2.68-10.07,4-15.11,1.13-4.36,2.5-8.66,3.34-13.09h0a4.44,4.44,0,0,0,.43-1.67c3.91-13.66,7.75-27.33,10.75-41.4-.8.26-.75.74-.82,1.08-.44,2.1-1.08,4.14-1.61,6.21-2.19,8.51-4.53,17-6.85,25.44a44.82,44.82,0,0,0-1.9,8.42c-.09.44-.17.89-.26,1.33a32.2,32.2,0,0,0-2.27,7c-1.21,5.92-3.43,11.57-4.79,17.45-.33,1.43-.79,2.83-1.2,4.27-2.14-1.41-2.14-1.41-1.55-3.64,3.56-13.22,6.76-26.53,10.55-39.69,1.77-6.12,2.94-12.43,5.4-18.35a3.2,3.2,0,0,0,.42-2,4.31,4.31,0,0,1,.21-2.76c.34-1.49.74-3,1.06-4.47a22.84,22.84,0,0,0,.73-4.4,1,1,0,0,0-.58.82c-.58,3.41-1.69,6.69-2.54,10-1,4-1.76,8.24-4.53,11.62-.34.42-.53,1-1.33,1.24,2.65-9.92,5.49-19.66,7.2-29.68-.57.42-.59,1-.73,1.62-1,3.89-2,7.8-3,11.68-1.12,4.28-2.28,8.54-3.45,12.79-.69,2.48-1,5.08-2.48,7.28-1.26.9-1.78,2.49-3.16,3.33,1.3-3.89,1.24-8.18,4.16-11.71-.82.16-.93.78-1.47.72.42-1.73.91-3.44,1.23-5.18a5,5,0,0,1,2.3-3.48c.38-.25.87-.49,1-1.07-1-.13-1.37.89-2.15,1a.71.71,0,0,1,0-.65c.72-3.1,1.49-6.2,2.16-9.32a85,85,0,0,0,2-9.75c-.33,0-.42.31-.59.52-.63.68-1.58,1.08-1.78,2.11h0l1.26-1,.32-.25-3,12.46a48.55,48.55,0,0,0-1.17,5,5.35,5.35,0,0,1-3.67,4.45C98,17.8,99,12.33,100.22,6.92c.19-.8.27-1.62.4-2.43h0c.66,0,.87-.59,1.23-1a1.55,1.55,0,0,0-1.28,1c-.57.15-.76.68-1.07,1.1.55.36.16.8.07,1.17-1.43,5.82-2.88,11.63-4.29,17.45-.44,1.78-1.77,2.81-3,4A36.74,36.74,0,0,1,93.74,22c1.22-4.3,2.16-8.67,3.17-13a3.2,3.2,0,0,1,.52-1.33l.15-.08a5.46,5.46,0,0,0,1.06-1,1.36,1.36,0,0,0-1.21.74l-1.3.94a1.31,1.31,0,0,0-.91,1c.41.39.54-.25.84-.24h0c-1.23,5.6-2.84,11.09-4.28,16.63-.19.72-.34,1.45-.48,2.18a5.46,5.46,0,0,1-2.15,3.73,1.35,1.35,0,0,0-.44.45.6.6,0,0,0,.31.88c.5.21.43-.25.48-.51s0-.45.54-.43a28.57,28.57,0,0,0-1,4.14c-.18,1.92-1.79,2.15-3.2,3.13,1.62-4.94,2.51-9.8,3.91-14.53a9.13,9.13,0,0,1,1.42-2.19,4.18,4.18,0,0,0,1-1.85,0,0,0,0,1,0,0c-.61.1-.74,1-1.46.7.69-3.06,1.42-6.14,2.08-9.23.17-.81,1.15-1,1.22-1.78-2.28,1.68-4.54,3.4-6.85,5a132,132,0,0,0-10.9,8.2c-1,.9-2.07,1.76-3.13,2.61C66.67,31.32,59.65,35.71,53,40.58c-1.84,1.34-4.06,2-5.76,3.61a2.91,2.91,0,0,1-2.58.71c-.69-.19-1.38-.68-2,.26-.17.28-.48,0-.71-.07a7.7,7.7,0,0,0-3.26-.29C33,45.66,28.65,48.92,25,53.21c.17,1.26,1,1,1.86.88.35-.06.85-.41,1,.07a1.45,1.45,0,0,1-.22,1.48c-.34.37-.76,0-1-.21-.7-.54-2-.31-2.07-1.64-.34.64-.71,1.16-1.62,1a1.22,1.22,0,0,0-1.35.79c-2.1,2.31-3.85,4.88-5.72,7.36-.59.8-1.14,1.55-2.34,1.28a1.22,1.22,0,0,0-1.15.51,35.91,35.91,0,0,1-7,6.26A16.85,16.85,0,0,0,0,76.65V79c.59.74.35,1.87,1.24,2.5,1.85,1.3,2.62,3.37,3.36,5.35a6.62,6.62,0,0,0,1.85,2.92A4,4,0,0,1,8,91.85,6.37,6.37,0,0,0,10,95c2.71,2.67,5.43,5.34,8.12,8a7.9,7.9,0,0,1,1.12,1.45c1.27,2,3,3.66,4.2,5.82a10.81,10.81,0,0,0,4.38,4.08,6.73,6.73,0,0,1,2.43,2.19c1.89,3,4.41,5.41,6.51,8.21,3.71,4.94,7.51,9.82,11.33,14.68.64.82,1.61,1.4,1.91,2.47a11.28,11.28,0,0,0,1.8,3.32,47.11,47.11,0,0,1,3.62,5.62,25.6,25.6,0,0,0,4.38,6c2.73,3.53,5.42,7.1,8.23,10.58,1.89,2.35,4.35,4.22,6,6.78,3,4.67,7.24,8.2,11.33,11.84A6.84,6.84,0,0,0,90.66,188a11.46,11.46,0,0,0,6-2.81q11.7-9.06,23.37-18.17a5.31,5.31,0,0,0,1.74-1.94c.25-.52.5-.54,1-.31a5.2,5.2,0,0,0,3.59.42c6.16-1.78,10.56-5.5,12.77-11.62.1-.29.19-.58.28-.85.43-.14.62.56,1.18.16,1.94-1.4,3.22-3.56,5.52-4.61.51-.24,1.63-.54,1.82-1.54a3.1,3.1,0,0,1,1.38-1.85c1.25-.89,2.67-1.44,3.54-2.92.6-1,1.94-1.56,2.83-2.48a23.5,23.5,0,0,1,3.13-2.77c3.8-2.72,7.81-5.16,11.31-8.29a1.52,1.52,0,0,0,.82-.66c-.27-.35-.59.42-.83-.05,1-3.1,1.48-6.3,2.33-9.43C174.74,109.78,177,101.22,178.73,92.56Zm-38.08,26.06c.45-1.69,1.75-2.56,2.92-3.57l.3.18c-.91,3-1.83,6-2.73,9-1.15,3.85-2.54,7.69-3,11.65a32.88,32.88,0,0,1-2,7c-1.38-1.67-1.12-3.44-.56-5.39C137.33,131.22,139,124.91,140.65,118.62ZM130.5,133.43c.88,1.34,1.78,2.64.69,4.39C130.05,136.48,129.24,135.15,130.5,133.43Zm.25,6.5c-.47-1.19-1.52-1.9-1.13-3.14C130.08,137.72,131.31,138.37,130.75,139.93Zm1.08.32c.77,1.08,1.88,1.84.95,3.38C132.3,142.56,131.3,141.77,131.83,140.25Zm.77-2.95c.45,1.4,1.72,2.34.87,3.79C132,139.73,131.87,139.29,132.6,137.3Zm1.31,6.34c1.52,1,1.7,1.59.94,4C134.09,146.24,133.06,145.15,133.91,143.64Zm.65-2.14c.53,1,1.07,1.74.94,2.72C135.08,143.47,134,143,134.56,141.5Zm2.5-21.14c.2-.73.3-1.57,1.21-1.89.39-.13.82-.33,1.13-.13s.08.71,0,1.07c-1,3.36-2,6.71-2.87,10.08a25.24,25.24,0,0,0-1.09,5.87,8.43,8.43,0,0,1-1.23,3.74c-.45-.86-.83-1.6-1.22-2.33a1.23,1.23,0,0,1-.12-1C134.27,130.65,135.65,125.5,137.06,120.36Zm-4.27,3.76c.36-1.64,1-3,2.92-3.37-.52,1.88-1,3.69-1.34,5.54-.27,1.6-.18,3.28-1,4.8a10.82,10.82,0,0,0-1.27,3.77c-.93-1.42-1.68-2.59-1.11-4.28A59.78,59.78,0,0,0,132.79,124.12Zm-3.5,1.74c.9-.47,1-1.67,1.57-2.47.16-.23.15-.64.6-.5a.55.55,0,0,1,.35.74c-.6,2.37-.23,5-1.91,7.23a26.6,26.6,0,0,1-1.4-2.69A1.61,1.61,0,0,1,129.29,125.86Zm-1.25,3c1,1.68,2.29,3.22,1,5.22C127.15,132.2,127,131.29,128,128.85Zm.59,6.93c-.71-1-1.6-1.82-1.61-3.12C127.67,133.66,128.62,134.48,128.63,135.78Zm-2.7-10.63c1.17,1.58,2.26,3.11.62,4.93C124.86,128.59,124.89,127,125.93,125.15Zm.09,6.44c-.46-.85-1.53-1.41-1.09-2.83C125.36,129.86,126.28,130.49,126,131.59Zm-2.41-10.16c2.23,3.06,2.09,2.57.86,5.42C123.18,125.13,122.1,123.46,123.61,121.43Zm-41.7,47.9c-1.26-2.31-3.54-3.84-4.72-6.21l-.3.14-4.17-4c-2.36-2.88-5-5.56-7.16-8.58l-.1-.1a3.86,3.86,0,0,1-.93-1.26,2.51,2.51,0,0,1-.8-1,2.73,2.73,0,0,1-.79-1.05c-.42-.53-.85-1.05-1.27-1.59-.21-.27-.48-.55-.27-.85a1,1,0,0,1,.23-.2l1.6,2.34h0A2.92,2.92,0,0,1,64,148a2.64,2.64,0,0,1,.78,1.06l1,1.22.08.1a55.87,55.87,0,0,1,5.41,5.89,11.19,11.19,0,0,0,2.41,2.4l.1.07,3.37,2.71h0c1.6,1.76,3.29,3.46,4.72,5.37.27.37.67.67.76,1.17a.47.47,0,0,0-.13.11C82.21,168.49,82.69,169.24,81.91,169.33Zm-.81,2.49a1.25,1.25,0,0,0-.39-.33l-.07,0a1.19,1.19,0,0,1-.25-.13,22.81,22.81,0,0,0-2.85-3.21,11.41,11.41,0,0,0-1-.87l0-.36,0-.69a1,1,0,0,0,.24-.93s0-.09,0-.14c.08-.2.29-.51.42-.35,1.7,1.92,3.72,3.62,4.59,6.15a.58.58,0,0,0-.15.11c-.22.29,0,.93-.58.93a0,0,0,0,1,0,0A.76.76,0,0,0,81.1,171.82Zm-4.71-5.62-.13.23-.14.24a73.12,73.12,0,0,1-5.53-6.27,2.15,2.15,0,0,0,.14-.26,5,5,0,0,0,.35-1.24c0-.11,0-.21.07-.32l1.26,1,.1.11a47.31,47.31,0,0,0,4,4v.08l.14,0c.37.4,0,.83,0,1.25l0,.06A1.28,1.28,0,0,0,76.39,166.2ZM65.83,153.59h0v0h0v0h0a.09.09,0,0,0-.11,0l.11.08c-.28.24-.44.78-.92.06-1.27-1.87-2.62-3.68-4-5.49a1,1,0,0,1-.17-.95,1.17,1.17,0,0,1,.09-.24.75.75,0,0,1,.78.33c1,1.33,2.12,2.65,3.21,3.94a4,4,0,0,1,1,2.29c.2,0,.29-.54.56-.15A49.37,49.37,0,0,0,70.78,158c.1.11.08.33.12.49l-.07.18-.42,1.11-.11.3a61.61,61.61,0,0,1-4.34-5.2C65.61,154.5,65.89,154,65.83,153.59ZM60.56,147l-.05,0c-.13.1-.29.15-.39,0-1.29-1.71-2.55-3.42-3.83-5.13a1.07,1.07,0,0,1-.2-.73l.09-.08a.48.48,0,0,0,.09-.11.62.62,0,0,0,.09-.34,40.83,40.83,0,0,1,4.11,5.07C60.78,146.13,60.46,146.55,60.56,147Zm-10.74-13c-1.31-1.73-2.66-3.44-4-5.15l.08-.23c.13-.32.25-.64.37-1l.13-.33h0c1.34,1.65,2.7,3.3,4,5a3.68,3.68,0,0,1,.37,1c.82,0,1.09.77,1.46,1.24,1.23,1.57,2.32,3.23,3.47,4.85a1.74,1.74,0,0,1,.35,1.34l-.08,0-.15.08-.26.12c-1.48-1.77-2.94-3.55-4.44-5.31a1.68,1.68,0,0,1-.59-1.5C50.28,134.22,50.07,134.27,49.82,133.94Zm-9.28-11.76c-1.11-.64-1.69-1.78-2.52-2.68-.67-.73-1.28-1.53-1.91-2.29a1.59,1.59,0,0,1,.07-.2,2.05,2.05,0,0,0,.29-1.36,1.29,1.29,0,0,1,.05-.21.65.65,0,0,0-.06-.21.62.62,0,0,0-.11-.17v.34c-.32.38-.18.92-.4,1.33a.66.66,0,0,1-.14.2c-1.58-1.82-3.16-3.64-4.72-5.47-.32-.38-.86-.66-.77-1.3l.12-.21a2.27,2.27,0,0,0,.3-1.21,2.17,2.17,0,0,0,0-.25,23.72,23.72,0,0,1,4.34,4.33c.55.67,1.58,1.09,1.3,2.24.21,0,.52,0,.6.09,1.34,1.81,2.64,3.64,3.95,5.47l-.06.16a2.91,2.91,0,0,0-.32,1.21A1.37,1.37,0,0,0,40.54,122.18ZM25.6,104.76h0a4.26,4.26,0,0,0,.46-1.52l.05,0,0,0a.72.72,0,0,1,.23-.44.41.41,0,0,1,.32,0c1.67,1.27,2.24,3.42,3.86,4.72.4.32-.05.77.21,1.09l-.11.08c-.35.27-.35.7-.44,1.1,0,0,0,.1,0,.15l-.18.16a36.56,36.56,0,0,1-4.37-5.17l.08,0ZM15.91,91.07a3,3,0,0,0,.35-1.2l0,0,0,0c.13-.41.26-.82.46-1.48,1.23,1.91,3.73,2.19,4.58,4.35a2.56,2.56,0,0,0-.11.24,4.11,4.11,0,0,0-.34,1.55.31.31,0,0,0,0,.1c-.1.46-.33.36-.62.15-.59-.43-1.18-.83-1.77-1.25h0c0-.35-.1-.56-.47-.47l-.07,0c-.57-.74-1.54-1-2-1.86l.09,0ZM11.66,80.69a.56.56,0,0,0,.24.1c2.34.35,3.07,2.49,4.41,3.95a.82.82,0,0,1,0,1.1c-.37.33-.61-.15-.85-.35-.4-.34-.79-.69-1.22-1a15.7,15.7,0,0,1-3.12-2.57l-.07,0A1.09,1.09,0,0,0,11.66,80.69Zm5.85,4.77a13.87,13.87,0,0,1,3,4.48c-1.08-.74-2-1.63-3-2.34C16.89,87.19,16.93,87.13,17.51,85.46ZM21,94.55l0,0,.54-1.35.12,0h.18c.73,1,1.43,2,2.21,2.89s1.28,2.14,2.63,2.49c.25.06.1.47.09.72l-.11.16a2.57,2.57,0,0,0-.33,1.09.5.5,0,0,0,0,.12c-.19.57-.41.23-.61,0-1.48-1.63-3-3.28-4.46-4.89C20.93,95.36,21,95,21,94.55Zm3.73-12.77a.34.34,0,0,0-.06.06l.16-.61a.62.62,0,0,0,.14.14c.1-.43.19-.86.29-1.3a4,4,0,0,0,.48-1.59c0-.45.41-.8.28-1.28l-.11.07.51-1.84a1.28,1.28,0,0,0,.15.23c.18-.72.35-1.45.52-2.17l.2-.56.3-1.24h-.16l.28-1a.9.9,0,0,0,.18.23,2.27,2.27,0,0,0,.26-1.4L28,69.7l.13-.5s0,.1,0,.14c.48-.21.39-.69.52-1.08a.7.7,0,0,0-.3.1l.18-.67a3,3,0,0,0,.15.32,6.36,6.36,0,0,0,.52-1.92,2.08,2.08,0,0,0-.29.19l.16-.56a1.19,1.19,0,0,0,.12.22A3.77,3.77,0,0,0,29.79,64a.91.91,0,0,0,.23-.8.57.57,0,0,0-.24,0l.19-.7a2,2,0,0,1,0,.35c.45-.51.08-1.26.53-1.76a1.05,1.05,0,0,0-.21.12l.2-.74s0,0,0,0c.14-.52.27-1.05.41-1.58l0-.15c.83-.07,1.34.55,1.95.92,1.23.75,2.19,1.86,3.43,2.61l.26.2L28,94.57a1.38,1.38,0,0,0-.19.7l-.23.84c-1.52-1.4-2.57-3.21-4-4.7-.31-.64-1.05-1.09-1-1.87l.14-.52a4.36,4.36,0,0,0,.47-1.51,6.89,6.89,0,0,0,.74-2.7,2.35,2.35,0,0,0,.49-1.33C24.53,82.91,24.94,82.4,24.77,81.78ZM37,62.93h0l0,0c.53.51,1.13.94,1.68,1.43,1.12,1,2.52,1.69,3.34,3L32.94,100a1,1,0,0,0-.16.55l-.51,1.86c-.71-.85-1.34-1.62-2-2.39L28,96.47a4.38,4.38,0,0,0,.5-1.87l.2-.75a.21.21,0,0,0,0,.06,3.49,3.49,0,0,0,.53-2,3.62,3.62,0,0,0,.54-1.66l-.16.07.06-.23.08.12c.27-.54.63-1.06.34-1.67l.1-.38c.49-.3.35-.84.36-1.32h0l.16-.61a1.45,1.45,0,0,0,.37-1.16,3.92,3.92,0,0,0,.48-1.59l.3-1.34-.05,0,.25-.94c.54-.42.35-1.15.57-1.7s.17-.87.26-1.31a4.55,4.55,0,0,0,.57-1.94l-.07,0,0-.12,0,0A4.25,4.25,0,0,0,34,74.16l.25-.92v0a3.25,3.25,0,0,0,.5-1.63c0-.37.36-.73.22-1.1l.17-.65c.48-.32.23-1,.44-1.46l0,0,0-.09h0c.39-.5.32-1.14.52-1.7l-.08.06.13-.49a5.22,5.22,0,0,0,.25-.94L37,63ZM94.39,43.46C92.66,47.11,92.18,51.1,91.21,55c-.77,3-1.71,6-2.43,9-.91,3.79-2.12,7.5-2.73,11.36,0,.11-.13.21-.23.35a3,3,0,0,1-1.18-3.58c2.06-8,3.91-16.08,5.83-24.12a.49.49,0,0,0,.18-.08l-.09-.16a.59.59,0,0,0,0-.13c0-2.65,1.86-4,3.8-5.37.3.43.11.82,0,1.21h-.05Zm8.37,90.86c-.08.1-.21.19-.23.31a6.79,6.79,0,0,1-3.32,4.66l.09-.47a.91.91,0,0,0-.11.47c-.51,0-.37-.24-.28-.56.68-2.5,1.35-5,2.09-7.74.52,1.18,1.46,1.92,1.71,3l-.11.12Zm-2.51-2.79a20.08,20.08,0,0,0-1.56,5.77,5.17,5.17,0,0,1-3.9,4.55c-.49.16-1,.4-1.75.73,2.3-5.6,2.89-11.34,4.9-16.88.84,1.46,1.65,2.79,2.37,4.17A1.9,1.9,0,0,1,100.25,131.53Zm-2.94-6c-1.68,5.84-3.29,11.7-5.39,17.41a10.11,10.11,0,0,1-2.34,3c1.19-8.35,4.19-16.21,5.76-24.7.72,1.23,1.27,2.22,1.86,3.19A1.25,1.25,0,0,1,97.31,125.52Zm-2.61-4.1c-.48,1.76-.55,3.66-1.23,5.32-1,2.43-1,5.06-2.11,7.48-.71,1.61-.82,3.53-1.27,5.29s-.77,3.49-1.22,5.22a7.2,7.2,0,0,1-3.76,4.9l-.16-.16,0-.05-.15-.15c-.15-2.23.83-4.26,1.2-6.4.61-3.62,2.18-7,3.08-10.52.59-2.32.78-4.74,1.58-7,.64-1.84.6-3.89,1.78-5.57.24-.33,0-.65-.2-1s-.56-.34-.9-.2c-1.8.76-3,2.27-4.59,3.37a7,7,0,0,0-.58.51l-.07,0a2.88,2.88,0,0,0-.67.19,16,16,0,0,1-4.44,1.49,6.53,6.53,0,0,0-5.38,3.92A2.51,2.51,0,0,1,75,129c-1.88,1.63-3.37,3.67-5.43,5.14a8.27,8.27,0,0,0-2.31,1.8,10.31,10.31,0,0,1-4,3.2,2.25,2.25,0,0,0-1.48,2.38c-2.3-2.4-2.56-2.91-2.93-5.65-.11-.81-.23-1.62-.34-2.41.58-.24.88,1.1,1.17.36.43-1.1,2.16-.8,2.08-2.22.88.3.7-.69,1.06-.87s1.32.39,1.71-.49c.93.63.89-.2,1-.69.42-1.53.85-1.83,2.51-1.57.66.1.87-.29.74-.74-.37-1.25.75-1.48,1.36-1.91a4.8,4.8,0,0,0,1-.88c.64-.78,1.1-1.88,1.82-2.35a23.14,23.14,0,0,1,4.3-1.82c1.26-.5,2.15-1.8,3.68-1.69.29,0,.45-.4.46-.72.07-1.25.93-1.9,1.84-2.56,1.37-1,2.68-2.11,4.05-3.13a1,1,0,0,0,.42-1.32c-.35-.77-.86-.38-1.32-.24s-1.06.37-1.59.56c.06-.36.13-.71.19-1.07l0-.06a8.85,8.85,0,0,0,.48-1.67l.26-.87c.14,0,.32.22.5.42a46,46,0,0,1,4.45,5.68c1.27,2,2.51,4.11,3.77,6.15A1.94,1.94,0,0,1,94.7,121.42Zm-14,40h0l-.5,1.66c-.87-.43-1.19-1.42-2-1.92l.09-.15h-.08a43.25,43.25,0,0,1,1-4.37c.11-.64.6-.08.89,0l.19-.13a.59.59,0,0,0,0-.26c0-.51.07-1,.1-1.53.87.26,1.07-.86,2-.9l-1.77,7.59h-.07Zm-8.54-6.88a7.8,7.8,0,0,1-2-2c-.27-.3-.19-.58-.12-.94.66-3.5,1.9-6.86,2.48-10.39A16.62,16.62,0,0,1,74,137.65a31.59,31.59,0,0,0,1-4.18c.48-1.77,1.94-2.88,2.61-4.5a1.57,1.57,0,0,1,1.57-.38c.46.26,0,.79-.12,1.16-.67,2.13-1.2,4.3-2,6.41a13.05,13.05,0,0,0-.57,2.78c-.36,2.77-1.9,5.15-2.45,7.82s-1.63,5.07-1.79,7.75l-.1-.07Zm-4.71-5.87c.59-1.45.77-3.05,1.57-4.44a6.39,6.39,0,0,0,.77-2.61,25,25,0,0,1,1.63-6.19c.36-1,1.24-.75,2-.37.56-.44.35-1,.27-1.56,0-.27,0-.54.37-.52s.3.35.24.56c-.15.53-.35,1-.52,1.56a.77.77,0,0,1,0,.26c-2,4-2.26,8.5-3.63,12.68-.35,1.07-.28,2.25-.91,3.49-.59-.75-1.08-1.39-1.59-2A.75.75,0,0,1,67.44,148.69Zm-.41-.06c-.35-.38-.43-.48-.53-.57-1.48-1.3-1.4-2.95-1-4.65.26-1.24.51-2.45,1.73-3.22.41-.26.56-.94.84-1.41s.23-1.4,1.28-.82c.31.17,0-.53.53-.77C69.69,141.2,67.57,144.57,67,148.63Zm5.19,5.91a4.83,4.83,0,0,0,.92-2.3c.73-3,2-5.77,2.88-8.68,1-3.16,1.41-6.47,2.44-9.62.49-1.53.93-3.09,1.36-4.64a2.3,2.3,0,0,1,2.33-1.85c.27.12.67-.12.83.3-.72,2.64-1.45,5.28-2.4,7.85h0a12.72,12.72,0,0,0-1.45,4.45c-.84,5-2.52,9.8-3.74,14.71-.14.55-.22,1.12-.33,1.67l-.2,0a2.11,2.11,0,0,1,0,.25,1.29,1.29,0,0,0-.06.21,2.22,2.22,0,0,1-.2.41c-.73-1-1.82-1.63-2.38-2.74l.08,0Zm3.75.66c.49-2.19,1.21-4.31,1.84-6.44,1.21-4.1,1.67-8.41,3.47-12.33l.12-.14a.25.25,0,0,0,0-.07c1.11-2.55,1.2-5.36,2.11-8,.33-1,.31-2.11,1.89-1.85.56.1.65-.55.79-1s.28-1,.73-1.16h0c-.07.25-.14.5-.22.74a1.3,1.3,0,0,1,.72-.82c-.87,1.45-.84,3.18-1.49,4.7C85,131,85,133.4,84,135.58a15.87,15.87,0,0,0-.76,3.65,63.66,63.66,0,0,1-2.5,8.94c-1.09,3.31-1.57,6.77-2.53,10.1-.2.68-.38,1.35-.57,2C75.66,158.91,75.38,157.82,76,155.2Zm4-1.93c2.11-5.09,3.13-10.32,4.32-15.52,1-4.51,2.25-9,3.45-13.47.4-1.49,2-1.8,3.15-2.71-.58,2.34-1.1,4.69-1.77,7-1.09,3.78-2.49,7.48-3.34,11.31-.77,3.45-1.45,6.93-2.31,10.36A4.31,4.31,0,0,1,80,153.27Zm-15.44-7.89c-1.64-1.71.1-3.51-.81-5.09,1.54.35,1.65,1.21,1.24,2.36A6.87,6.87,0,0,0,64.53,145.38ZM51.3,131.69c.15-.4.29-.8.45-1.22,2,1.9,3.22,4.33,4.74,6.53.28.39.08.85.16,1.27l0,0c-.16.19-.32.15-.47,0-1.53-1.92-3-3.84-4.58-5.75a1.31,1.31,0,0,1-.25-.77h0Zm-.27,0a29.94,29.94,0,0,1-4.45-5.76.38.38,0,0,0,.11-.11c.21-.31.08-.83.37-1.09a.63.63,0,0,1,.35-.15c.91,1.22,1.76,2.48,2.75,3.63a3.21,3.21,0,0,1,.9,3.5l0,0Zm-9.69-12.57v.08c-1.71-1.42-2.85-3.33-4.23-5-.32-.4.16-.92.06-1.4h0c.25-.18.16-.51.25-.75a.42.42,0,0,1,.19-.21,9.68,9.68,0,0,0,3.44,4.33c.37.26.82.53.81,1.11a.83.83,0,0,0-.07.13,3.94,3.94,0,0,0-.44,1.45l0,0a.71.71,0,0,0,0,.14S41.34,119,41.34,119.08Zm-12.09-18c.58,1.26,1.78,2,2.56,3.08l-.1.28-.56,1.56,0,.1c-.12.14,0,.75-.3.41-1.45-1.61-2.81-3.31-4.17-5-.1-.13,0-.42,0-.63a1,1,0,0,0,.11-.17,3.39,3.39,0,0,0,.31-1.13s0-.06,0-.09c.11-.48.33-.4.59-.11l1.52,1.63a.36.36,0,0,0,0,.09Zm2.13,5.34.09-.2c.22-.57.45-1.13.68-1.7,1,.48,1.26,1.61,2.05,2.27a.39.39,0,0,0,.1.08c1.27,1.1,1.79,2.75,2.9,4h0a1.57,1.57,0,0,1,0,.53c-.06.41-.23.8-.27,1.22,0,0,0,.06,0,.09-.18.46-.25,1-.84.22-1.33-1.66-2.74-3.25-4.13-4.85A1.77,1.77,0,0,1,31.38,106.47ZM40.83,99h0v0l7.09-27.34a46.54,46.54,0,0,1,4.71,4.16h0c.18.37,0,.81.15,1.18l-.15.54-.08.15a2.88,2.88,0,0,0-.19.82L42,115.29c-1.09-1.46-2.16-2.93-3.3-4.35a2,2,0,0,1-.51-1.66l0-.17a1.72,1.72,0,0,1,.07-.21,2.22,2.22,0,0,0,.18-.76l.59-2.26a4,4,0,0,0,.44-1.69l.17-.65a4.63,4.63,0,0,0,.37-1.32v-.14l.58-2.23c.08-.28.15-.56.23-.84Zm5.53-22.66h0l.07-.19-.06.24A.07.07,0,0,1,46.36,76.35Zm6.5.88h0l-.05.07,0-.22a.27.27,0,0,0,.07.08l.13-1c1.74,1.52,3.43,3,5.09,4.44a1.41,1.41,0,0,1,.15,1.87v.1l0,.37-.29,1a1.87,1.87,0,0,0-.28,1L47.08,122c-.16-.06-.25-.38-.34-.5-1.37-1.69-2.71-3.4-4.05-5.11-.07-.19-.37-.47-.37-.66l9-31a.6.6,0,0,1,.09-.15,2,2,0,0,0,.27-1.38l.26-1,.52-1.91h0v-.46c.15-.88.31-1.76.47-2.64Zm5.08,8.38,0,0,0-.07Zm-.66,2.32-.15.61h0ZM55,96.12v0h0Zm-13.55,23c.48-.27.13-1.15.68-1.38a.63.63,0,0,1,.26,0l4.43,6.3h0a1.25,1.25,0,0,0-.15.28,2.86,2.86,0,0,1-.44,1,.93.93,0,0,1-.18.16c-1.57-2.08-3.49-3.9-4.71-6.25h0Zm6.23,3.63,1.2-4.36c.06-.19.12-.39.16-.58l.2-.73a.56.56,0,0,0,0-.08,1.3,1.3,0,0,0,.08-.34s0,0,0,0l.05-.19a6.38,6.38,0,0,0,.55-2l.07-.23a2.34,2.34,0,0,0,.09-.24c.2-.21.16-.49.18-.75l.09-.33.33-1h0l.27-1a4.19,4.19,0,0,0,.27-1.15,1.05,1.05,0,0,0,.05-.19v-.06l0-.06a1.65,1.65,0,0,0,.26-.94l.14-.51a3.4,3.4,0,0,0,.3-1.09l.17-.61a3.78,3.78,0,0,0,.35-1.2.63.63,0,0,1,0-.19v-.06c.08-.23.24-.46.2-.7,0-.08,0-.17.08-.26s0-.2.07-.3l.07-.25c.29-.23.26-.6.28-1,0-.13.08-.26.11-.39s0-.11,0-.17a2,2,0,0,0,.27-.82c.06-.12.11-.25.16-.37A2.07,2.07,0,0,0,54,100c0-.1,0-.2,0-.3l.06-.22a1.83,1.83,0,0,0,.27-1l.27-1c.25-.19.25-.5.27-.81s.21-.44.33-.66a3.12,3.12,0,0,0,.14-.74c0-.12,0-.24,0-.36.29-.42.22-1,.38-1.48s.34-.76.27-1.18l.11-.41a3.82,3.82,0,0,0,.33-1.2l.15-.55a4.29,4.29,0,0,0,.41-1.36,1.74,1.74,0,0,1,.22-.27,2.83,2.83,0,0,0,.25-1,1.45,1.45,0,0,1,0-.36,3,3,0,0,0,.16-.59,1.35,1.35,0,0,1,.19-.33,1.31,1.31,0,0,0,.19-.69,2.91,2.91,0,0,1,0-.31v0l1.05-3.82c1.33,1.21,2.59,2.39,3.9,3.52a1.33,1.33,0,0,1,.46.72L52.59,125.8a1,1,0,0,0-.11.39l-.37,1.39s0,0,0,0l-.17.65C50.17,126.71,49.13,124.59,47.71,122.76ZM85.17,77.08c0,.11-.22.87-.59.63s-1.39-1-1.33-1.16a5.58,5.58,0,0,1,.41-.52A14.29,14.29,0,0,1,85.17,77.08ZM84,74.9a2.59,2.59,0,0,1,1.14,1.65C84.58,76.16,83.8,75.92,84,74.9Zm.27,36.43,0,.19c-.56,1.24-1.84,1.81-2.76,2.68a15.41,15.41,0,0,1-3.81,2.26c-.33.18-.83.59-1.23.09l.09-.35a.77.77,0,0,0,.12-.28c0-.17.06-.33.09-.49a2,2,0,0,0,.17-.64l0-.2c.29-.31.22-.75.38-1.11a8.12,8.12,0,0,0,.64-2.21,3.24,3.24,0,0,0,.42-1.45l.1-.62c.07-.31.14-.62.22-.93l0-.22A1.73,1.73,0,0,0,79,107l.22-.84.24-.8.09-.12a1,1,0,0,0,.12-.32.45.45,0,0,1,0-.16,1.19,1.19,0,0,0,.14-.53,1.59,1.59,0,0,1,.13-.22.94.94,0,0,0,0-.5s0,0,0-.08l.45-1.69a64.16,64.16,0,0,1,4.72,4.9.66.66,0,0,1,.18.31l-.64,2.82a3,3,0,0,0-.36,1.51Zm-17.92-9,.28-1.11c.41-.42.24-1.1.48-1.6l.27-1.4.78-3.12a2,2,0,0,0,.23-.91l.18-.74a1.76,1.76,0,0,0,.28-1.11l.2-.8a.81.81,0,0,0,.18-.51c0-.12,0-.24,0-.35l3.07,2.76,0,0s0,.06,0,.09l.11,0c.42.9,1.47,1.31,1.91,2.21l-4.69,18.51a1.29,1.29,0,0,0-.13.52l-.25,1A2.89,2.89,0,0,0,69,117h0l-.08.32a3,3,0,0,0-.39,1.54l-.1.39a1.82,1.82,0,0,0-.25,1l-.36,1.4c-.23.36-.51.71-.29,1.15l-.42,1.68c-.75,1.64-2.48,2.35-3.79,3.29-1.47,1-2.55,2.48-4.06,3.44l-.09-.1,4.27-17a2.41,2.41,0,0,0,.12-.48l1.34-5.37a1.1,1.1,0,0,0,.19-.76l.56-2.22a2.42,2.42,0,0,0,.24-.95l.1-.4a5.86,5.86,0,0,0,.4-1.49Zm5.17-37.55c.4.45.11.66,0,.88S70,64.47,69.71,64.25s.48-.64.48-.64A10.11,10.11,0,0,1,71.55,64.74Zm-1-2.83c.23-.47.34-.62.83-.3,1.28.82,1.39,1.22.63,3.13C71.2,64,69.79,63.55,70.59,61.91Zm.12,8.73c-.86,5.19-3.43,9.81-4.31,15-2.1-1.34-2.11-1.38-1.56-3.33,1.51-5.28,3-10.57,4.54-16C71.06,67.55,71,68.83,70.71,70.64Zm-3.2,14.54c1.55-5,2.93-10.06,4.38-15.09.11-.36,0-1,.61-.87s1.19.3,1,1.19c-.57,2.44-.44,5-1.8,7.29a12.74,12.74,0,0,0-.91,2.86c-.72,2.37-1.44,4.75-2.18,7.21A1.81,1.81,0,0,1,67.51,85.18ZM78.83,74.5s0,.08,0,.12H79a1.76,1.76,0,0,1,.13,1.86c-1.52,3.64-2.29,7.5-3.39,11.27a42.27,42.27,0,0,0-1,4.59c-.18,1-.56,1-1.17.36v-.15l-.16,0a2.18,2.18,0,0,1-.46-2.5c1.49-5.35,2.86-10.73,4.28-16.1,0-.21.13-.41.25-.75ZM78,70.78c.21-.06,1.41,1.31,1.41,1.31a.61.61,0,0,1,.3.74,1,1,0,0,1-.8-.53c-.28-.2-1-.68-1.22-.81S77.76,70.85,78,70.78Zm-.78-1.91c-.34.36-.58-.15-.8-.33-1.08-.83-1.07-.85-.43-2.47.51.6.94,1.08,1.33,1.6A.93.93,0,0,1,77.2,68.87Zm-.92,1A2.52,2.52,0,0,1,75,68.75,1.51,1.51,0,0,1,76.28,69.86Zm0,4.75C75,78.17,74.14,81.87,73,85.5c-.53,1.71-.6,3.52-1.29,5.39-.67-.61-1.19-1.13-1.76-1.6A1.05,1.05,0,0,1,69.63,88c1.69-5.77,3.35-11.56,5-17.34C76.5,71.68,77.07,72.69,76.32,74.61Zm-1.91-7.87c-1.32-.53-1.47-1.47-.8-2.7C74.77,64.7,75.15,65.55,74.41,66.74Zm-.13.47c0,.24-.35.92-.46.61s-1.3-.9-1.3-1.18.36-.47.36-.47S74.3,67,74.28,67.21Zm-2.64,41.85,0,.28a1.75,1.75,0,0,0-.27.16l.17-.63A1.45,1.45,0,0,0,71.64,109.06Zm-.54,2-.16,0,.07-.25A1.13,1.13,0,0,0,71.1,111Zm-.8,2.64,0,0v-.06S70.29,113.63,70.3,113.65Zm-2.77,10.27a1.51,1.51,0,0,0,.29-1v-.09l.33-1.27a.91.91,0,0,0,.07-.14,2.41,2.41,0,0,0,.31-1.08,2.45,2.45,0,0,1,0-.27l0-.21a1.38,1.38,0,0,0,.08-.29l.35-1.31a1.49,1.49,0,0,0,.13-.49l.26-1c.33-.25.27-.68.29-1.08l.11-.45A2.52,2.52,0,0,0,70.3,114l0,0a.91.91,0,0,0,.12-.31.22.22,0,0,1,0-.08,1.45,1.45,0,0,0,.18-.69,3.87,3.87,0,0,0,.43-1.44,1.3,1.3,0,0,1,.1-.15,1.32,1.32,0,0,0,.08-.33.13.13,0,0,1,0-.06,3.43,3.43,0,0,0,.34-1.3l.15-.22a1,1,0,0,0,.06-.34,3.46,3.46,0,0,1,0-.79l.3-1.26a3.16,3.16,0,0,0,.27-1.28.14.14,0,0,0,0-.07h0a4.53,4.53,0,0,0,.5-2v0s0,0,0-.08a1.49,1.49,0,0,0,.27-.83c0-.1.11-.19.17-.29a2.75,2.75,0,0,0,.18-.94c0-.13,0-.25,0-.37a1.86,1.86,0,0,0,.23-.91l1-3.94a32.68,32.68,0,0,1,5,5.21l-.25,1a1.17,1.17,0,0,0-.13.55l-.58,2.4a.8.8,0,0,0-.11.47l-1.57,6.54-.16.53-.46,1.39-.27,1.51v.31l-.09.38c-.81,1-2.23,1.15-3.23,2a6.8,6.8,0,0,0-1.8,2c-.83,1.69-2.54,2.49-3.68,3.87-.11.14-.19.2-.24.2ZM79.8,104v0h0Zm-.27,1v.11h0Zm1.25-7.68c1.45-5.07,2.88-10.15,4.33-15.23a4.85,4.85,0,0,1,.3-.65c.55.91,1,1.67,1.46,2.38a.94.94,0,0,1,0,1c-2.07,5.07-3.06,10.45-4.61,15.65C80.49,99.65,80.25,99.15,80.78,97.31Zm2.55-17.82c1.57,1.15,1.49,1.13.8,2.89a44.07,44.07,0,0,0-1.41,4.49c-1,3.53-2.17,7-2.94,10.59a3.73,3.73,0,0,1-.22.61c-1.81-.77-1.79-2-1.31-3.54,1.48-4.8,2.8-9.64,4.19-14.46.08-.29.2-.57.32-.92A6.61,6.61,0,0,1,83.33,79.49Zm-.52-5.06-2-1.74a.65.65,0,0,0,.11-.12h-.09c0-.44-.27-1.12.66-.86v.08l.07-.06C82,72.58,83.53,73,82.81,74.43Zm-.37.64s-.12,1.12-.53,1.05-1.25-1.34-1.47-1.55,0-1.13.09-1.13h.11Zm-.56,3.34c.52.37.21.8.05,1.16-1.69,3.76-2.5,7.81-3.79,11.69a28.11,28.11,0,0,0-.94,3.8c-.13.71-.35.64-.83.26a2.23,2.23,0,0,1-.88-2.76c1.45-5.07,2.7-10.2,4-15.31.08-.29.2-.57.33-1A13.69,13.69,0,0,0,81.88,78.41Zm-2.17-6.94c-.74-.73-2.1-1.09-1.1-2.61C79.32,69.57,80.64,70,79.71,71.47Zm-1.77-4.83c-1.65-.93-1.89-1.38-1.47-3,1-3.8,2.14-7.58,3-11.42a3.23,3.23,0,0,1,2.9-2.84C81.31,55.33,79,60.81,77.94,66.64Zm.8-15.35c-.9,4.45-2.44,8.45-3.55,12.66a1.62,1.62,0,0,1-1.09-2.24c1-3.52,1.92-7.07,2.86-10.61.47-1.81,1-3.62,1.39-5.44.32-1.39,1.68-.95,2.55-1.49-1.05,2.43-.9,5.48-3.78,6.93C77.5,51.73,77.94,52.12,78.74,51.29ZM72.85,61.8c-1.72-.72-1.9-1-1.44-2.76q1.41-5.25,2.83-10.5c.44-1.61.94-2,2.76-2.1C76.14,51.69,74.34,56.71,72.85,61.8Zm.34-12.75c-.4,1.38-.88,2.74-1.3,4.12-.64,2.13-1.26,4.26-1.89,6.41-1.85-1.15-1.85-1.15-1.36-3.06.56-2.16,1.1-4.32,1.65-6.48a3,3,0,0,1,2.52-1.85C73.52,48.22,73.28,48.75,73.19,49.05Zm-4,13.24C67.31,61.08,67.31,61.08,68,59,70,60.29,70,60.32,69.19,62.29Zm-.18.85c0,.32-.08.67-.33.51-.57-.36-1.26-.63-1.53-1.32-.07-.16-.06-.53.24-.46A3.24,3.24,0,0,1,69,63.14Zm-.82,5C66.86,71.4,66,74.8,65,78.11c-.56,1.67-.56,3.46-1.33,5.06-1.9-1.14-1.94-1.29-1.36-3.39C63.64,74.86,65,69.93,66.36,65c.09-.32.22-.63.33-1C68.69,65.34,69.06,66,68.19,68.16Zm-9.8,37.74,0,.1v0ZM58,107.26a.56.56,0,0,0,0,.12v0l0-.17Zm-2.1,7.87a.94.94,0,0,1,0,.16,3.38,3.38,0,0,0-.08.34c0,.08,0,.15,0,.23l0,0,.2-.77Zm.17,18.8c-1.28-1.89-2.84-3.29-3.8-5.13l.57-2.15a3.87,3.87,0,0,0,.29-1.11l.13-.46a7,7,0,0,0,.64-2.1c.12-.41.24-.82.37-1.23a3.39,3.39,0,0,0,.47-1.67v-.18a1.1,1.1,0,0,0,.29-.81,3.74,3.74,0,0,0,.51-1.75,4.29,4.29,0,0,0,.51-1.71v-.18a3.82,3.82,0,0,0,.5-1.68l.25-1c.1-.33.2-.67.29-1v-.34a1.71,1.71,0,0,0,.29-1c.3-.26.26-.62.3-1h0l.46-1.66h0a1.48,1.48,0,0,0,0-.21,4.8,4.8,0,0,0,.51-1.65c.09-.35.19-.7.28-1a1.6,1.6,0,0,1,.27-1c.17-.79.35-1.59.52-2.38a3.24,3.24,0,0,0,.5-1.6l.27-1,.27-1.12h0c.18-.69.36-1.38.53-2.06v-.31l.3-1,.51-1.63h0v-.46c.43-.45.36-1.07.52-1.61l.27-1.34a3,3,0,0,0,.28-1.56v0c.35-.4.3-.93.42-1.4a.75.75,0,0,1,0-.16c.08-.15.16-.38.36-.2q2.46,2.13,4.89,4.3L58.23,131.67C57.66,132.46,56.43,132.71,56.11,133.93Zm30.2-32.28c1.3-4.71,2.58-9.42,3.9-14.25,2.57,2.18,2.4,2.12,1.44,5.09-1.39,4.32-2.74,8.66-3.77,13.08C85.83,104.34,85.68,104,86.31,101.65ZM90.14,84c-.7-1-1.89-1.3-1.55-2.85C89.17,82.07,90.5,82.29,90.14,84Zm-1.35,5.31c-.89,2.36-1.45,4.85-2.13,7.29-.58,2.1-1.45,4.12-1.58,6.37C83,101.6,83,101.6,83.62,99.35q2-7.18,4-14.43c.13,0,.19,0,.21,0C90.09,87.19,89.9,86.28,88.79,89.26ZM85.86,78.91c1.76,1,1.76,1,1.81,2.2A6.57,6.57,0,0,1,85.86,78.91Zm4-31.61h-.11l.07.11a23.6,23.6,0,0,0-1.52,6.07c-.55,3-1.57,5.81-2.29,8.74-.82,3.39-1.73,6.77-2.61,10.2-.72,0-.83-.85-1.38-1.08a.28.28,0,0,0,0-.09h-.09a2.05,2.05,0,0,1-.3-2.05c1.73-6.73,3.47-13.46,5-20.23.5-2.19,2.16-2.92,3.94-4.25C90.26,45.83,90,46.57,89.83,47.3Zm-4,1.06a59.25,59.25,0,0,1-1.38,6.27c-1.52,4.66-2.65,9.42-3.91,14.14a1.61,1.61,0,0,1-.23.43c-1.35-.74-1.49-1.71-1.1-3.16q2.16-8.1,4-16.28c.31-1.37,1.37-1.58,2.26-2C86.05,47.43,85.87,48.08,85.81,48.36ZM83,47c-.25,1.49-1.18,2-2.64,2.12.44-1.9.79-3.77,1.32-5.59.37-1.25,1.89-1.27,2.74-2.39a5.2,5.2,0,0,1-.48,3.3A11.6,11.6,0,0,0,83,47Zm-1.47-6c-.28,1.68-1.24,2.44-2.84,3,1-3.44,1.58-6.88,3.19-10a5.26,5.26,0,0,1,1.83-1.73,6.75,6.75,0,0,1-.55,2.5C82.62,36.91,81.87,38.93,81.51,41Zm-3,1.7c-.29,1.93-1.73,2.91-3.62,3.38.51-2,1-3.87,1.44-5.76a1.84,1.84,0,0,1,1.21-1.57c1.1-.31,1-1.77,2.13-2Q79,39.72,78.54,42.73ZM73.94,46c-.25,1.67-1.81,1.48-3.14,2.2a28.82,28.82,0,0,1,1.51-5.34c.53-1,1.94-1.52,3.34-2.11A21.11,21.11,0,0,0,73.94,46Zm-3.86,1.77c-.16.93-1,.88-1.52,1.22-.25.15-.63.18-.63.57a.64.64,0,0,0,.61.72c.68,0,.51.49.41.84-.58,2.06-1.19,4.11-1.8,6.2-1.59-.51-1.71-1.47-1.28-2.88.73-2.42,1.25-4.91,1.88-7.36A4.54,4.54,0,0,1,71,43.61C70.68,45.07,70.31,46.41,70.08,47.77ZM66.86,58.43c.06.48-.11,1.47-.54,1.42a1.76,1.76,0,0,1-1.49-1.4,1.65,1.65,0,0,1,.55-1.4C65.9,57.56,66.78,57.68,66.86,58.43ZM66,61.92c-.59-1-2.11-.94-1.41-2.66C65.27,60.09,66.31,60.35,66,61.92Zm-.59,3.88C64,69.11,63.32,72.62,62.19,76c-.53,1.57-.47,3.28-1.21,4.79-.08,0-.18,0-.24-.06-2-1.62-2-1.62-1.26-4.09,1.29-4.39,2.55-8.79,3.84-13.18a2.71,2.71,0,0,1,.53-1.33C65.68,63,66.24,63.94,65.45,65.8Zm-1.68-8.08c-1.11-.39-1.38-1-1-2,.16-.42.34-.32.66-.16C64.66,56.15,63.88,56.94,63.77,57.72Zm-.28,1.59c-.1.32-.29.23-.49.1-.61-.39-1.37-.72-.63-1.72C62.82,58.19,63.83,58.25,63.49,59.31Zm-1,4.07A22.63,22.63,0,0,0,61,67.84c-1.11,3.39-1.79,6.91-3.09,10.33-.84-.54-1.44-1-1.07-2.17,1.59-5.08,3.06-10.2,4.57-15.3C63.41,61.39,63.5,61.6,62.5,63.38Zm-1-7.3c-.66-1-2.21-1.17-1.91-2.72C61.74,54,61.92,54.25,61.45,56.08Zm-.4.41c.46.39.15.87,0,1.19-.27.51-.59,0-.84-.15-.93-.55-2-1.08-.91-2.55Zm-1,3.06c.23.15.48.36.4.62-.34,1.2,0,2.48-.62,3.65-1.4,2.6-1.95,5.49-2.68,8.31-.36,1.39-.86,2.74-1.31,4.13-1.9-1.38-1.82-1.44-1.25-3.49,1.19-4.35,2.26-8.73,3.37-13.09l.34-1.28ZM58.64,53.1c-.22.46-.5,0-.71-.1-.6-.4-1.17-.82-2-1.42a5.63,5.63,0,0,1,2.43.55C59,52.31,58.78,52.8,58.64,53.1Zm-2.49-.36c.41,0,2.15,1.47,2.16,1.92s-.08.9-.35,1.12-.65-.26-1-.45c-.83-.52-1.84-.95-1.16-2.26C55.92,52.92,55.92,52.75,56.15,52.74Zm.6,7.18C56,62.38,55,64.89,55,67.41s-1.89,4.18-1.65,6.64c-.35-.18-.44-.21-.51-.26C51.5,73,51.11,72,51.61,70.27,53,65.61,54,60.86,55.11,56.15a1.33,1.33,0,0,1,.28.06C57.49,57.5,57.48,57.55,56.75,59.92ZM54.67,53.7a10.45,10.45,0,0,0-1.37-1c-.89-.44-.46-1.07-.33-1.67.09-.44.38-.42.68-.24.53.33,1.48.2,1.44,1.19A3,3,0,0,1,54.67,53.7Zm-1,3.8c-.74,2.65-1.79,5.28-1.8,8,0,2.22-1.43,3.83-1.56,6a6,6,0,0,0-.69-.51c-1.57-.89-1.79-2.12-1.22-3.79,1.42-4.14,2.44-8.39,3.52-12.63a3.16,3.16,0,0,1,.26-.53C54.27,55.35,54.29,55.36,53.7,57.5Zm-1.93-6.13c-.52-.19-1.14-.48-1.2-1.17,0-.27,0-.73.44-.63a2.22,2.22,0,0,1,1.16.92C52.1,51,52,51.46,51.77,51.37Zm-.83,3.33c-1,3-2.2,6-2.45,9.22A13.5,13.5,0,0,1,47,68.57a1.42,1.42,0,0,1-.93-2c1.32-4.62,2.75-9.22,3.81-14C50.94,53,51.41,53.35,50.94,54.7ZM47.67,71.47a.46.46,0,0,0-.16.15,1.08,1.08,0,0,0-.16.3.74.74,0,0,1,0,.14c-.43.33-.18,1-.41,1.43,0,0,0,.07,0,.1s-.07.29-.11.43a1.51,1.51,0,0,0-.15.57c0,.12-.08.25-.12.36-.15.49-.34,1-.45,1.46A5,5,0,0,0,46,77a6.76,6.76,0,0,1-.18,1c0,.32-.43.64-.21,1,0,.12-.08.23-.11.34s-.05.18-.07.27a1.07,1.07,0,0,0-.25.94c0,.12-.07.23-.1.34a2.25,2.25,0,0,0-.09.35s0,0,0,.06c-.35.23-.21.67-.26,1l0,.13,0,.09c-.17.48-.52,1-.37,1.46,0,.06,0,.13,0,.2a3.59,3.59,0,0,0-.08.35,2,2,0,0,0,0,.24.78.78,0,0,0-.25.81c0,.1-.07.21-.11.31a5,5,0,0,0-.14.52c0,.1,0,.21-.07.31-.2.29-.16.71-.32,1s-.35.66-.23,1a2.76,2.76,0,0,0-.08.27c0,.18-.07.36-.1.54s-.05.23-.07.34A1.15,1.15,0,0,0,42.51,91c0,.11-.06.22-.1.33s-.06.24-.08.36l0,.14c-.37.27-.12.88-.36,1.22.07.35-.37.67-.25,1a1.59,1.59,0,0,0-.07.2,3.59,3.59,0,0,0-.08.35c0,.14-.07.29-.1.43a1.39,1.39,0,0,0-.19.74c0,.19-.1.38-.15.57a2,2,0,0,0-.09.35c0,.11,0,.22-.07.33a.81.81,0,0,0-.12.4c-.08.22-.15.45-.22.67a3.69,3.69,0,0,0-.12.74l-.11.41a.84.84,0,0,0-.14.5l-.75,2.89a1.07,1.07,0,0,0-.15.56l-.25,1a2.66,2.66,0,0,0-.3,1.11l-.36,1.39-.17.52,0,.06c-.17.7-.35,1.41-.56,2.27L35,106.15l0-.06A17.13,17.13,0,0,0,33.44,104a2.12,2.12,0,0,1-.67-1.47l.29-1a4.28,4.28,0,0,0,.37-1.37l.26-1a3.47,3.47,0,0,0,.27-1l.25-.91,0,.06c.17-.55.33-1.1.5-1.65l-.12.06.11-.4v0l.12-.51.25-.91a4,4,0,0,0,.4-1.47l.13-.48a3.76,3.76,0,0,0,.4-1.35c.1-.35.2-.7.29-1h0l.07-.25a1.26,1.26,0,0,0,.26-1l0-.15c.34-.36.29-.86.45-1.28l-.11,0,.35-1.27c.38-.37.29-1,.48-1.41s.23-.88.34-1.32h-.07l0-.16,0,0a1.56,1.56,0,0,0,.25-1l0-.14c.41-.32.32-.84.49-1.26l-.16,0,.37-1.33c0,.08,0,.16.07.25l.51-1.86a1.45,1.45,0,0,0-.18.16l.13-.49.07.11a4.12,4.12,0,0,0,.43-1.92,1.61,1.61,0,0,0,.37-1,4.92,4.92,0,0,0,.5-1.59l-.18.05.22-.79c.38-.36.31-.9.48-1.35a.34.34,0,0,0-.12,0l.4-1.48a4.61,4.61,0,0,0,.45-1.59l0-.17c.12-.27.28-.29.49-.11A61.42,61.42,0,0,1,47.67,71.47Zm-7,50.65a2.2,2.2,0,0,0,.41-1.21c0-.1,0-.2,0-.3.37-.06.56.21.74.44q2.12,2.82,4.2,5.66a1.53,1.53,0,0,1,.11.5h0a.32.32,0,0,0-.13.07c-.24.22-.08.74-.34.93a.56.56,0,0,1-.34.07c-1.37-1.65-2.74-3.31-4.09-5-.27-.33-.65-.61-.62-1.11h0Zm19.42,21.15a1.8,1.8,0,0,1-.76-1.07h0c-.78-.9-1.55-1.81-2.35-2.71-.3-.33-.14-.69-.1-1a1.08,1.08,0,0,0,0-.18c.59-.45.67.25.79.45.65,1.1,1.21,2.24,1.81,3.36h0c.48.14.66.55.86.93l1.06,1.32-.23.07C60.29,144.61,60.45,143.59,60.05,143.27ZM81.54,164.8a4.31,4.31,0,0,1-.47-3.09l.11-.05-.06-.07a25.16,25.16,0,0,0,1.32-4.75,16.43,16.43,0,0,1,1.3-4.13,11.79,11.79,0,0,1,3.48-3.14c-1.55,5.59-2.55,11-4,16.24v0l0,0c1.11-1.52,1.34-3.34,1.78-5.06,1-3.76,2.07-7.49,3.23-11.2.42-1.34,1.54-1.94,2.34-2.87.28.1.21.38.31.57L88.4,157.59c-.24,1-.46,2-.69,3h0l0,0,0,.05c-.52,2.24-1.13,4.47-1.53,6.73a16.23,16.23,0,0,0-.58,2.67C84.1,168.27,82.92,166.46,81.54,164.8Zm5.16,5.44c-.67-2.29.73-4.3.9-6.48a4.54,4.54,0,0,1,.76-2.58l.17-.08-.09-.16c.66-2,.91-4.14,1.5-6.19A42,42,0,0,0,91.47,148c.19-1.66.55-3.09,2.45-3.71a19.35,19.35,0,0,0,3.3-1.89c-.7,2.75-1.43,5.25-2,7.8-.56,2.72-1.89,5.21-2.38,8l0,0,0,.05a58.1,58.1,0,0,0-2.57,8.49c-.36,1.8-.56,3.68-1.73,5.25-.46.61-1.21,0-1.59.58-.07-.58-1-.95-.38-1.71A.75.75,0,0,0,86.7,170.24Zm6.8-11.41a.64.64,0,0,0,.2,0v-.05a1.24,1.24,0,0,0-.1-.2,58.19,58.19,0,0,0,2.23-8c.66-2.76,1.44-5.49,2.08-8.26a4.24,4.24,0,0,1,1.9-2.31h0l0,0,1.05-.57a33.58,33.58,0,0,1-1.37,3.76c-1.93,3.8-2.56,8-3.58,12-1,3.78-1.92,7.54-2.86,11.32a6.64,6.64,0,0,1-.72,2.59,7.93,7.93,0,0,1-2.55,2.09C90.76,166.92,92.3,162.93,93.5,158.83Zm1.23,3.95c.34-.95.43-1.93.72-2.85,1.47-4.71,2-9.67,4.11-14.21a17.17,17.17,0,0,0,1.55-5,3.53,3.53,0,0,1,1.68-2.81c.79-.46.75-.57-.08-1-.29-.16-.22-.32-.14-.52l.68-1.83c.64,1.08,1.11,1.92,1.61,2.74a1.08,1.08,0,0,1,.17.86c-.67,2.64-1.41,5.27-2,7.94a30.77,30.77,0,0,1-1.53,4.58c-1.56,4.09-2.35,8.39-3.54,12.58a6.43,6.43,0,0,1-3,4.08c-.48.29-.92.66-1.41,1,0,0-.19-.14-.18-.2A49.26,49.26,0,0,1,94.73,162.78Zm23.68-33.57c.39-1.42.72-2.66,1.11-4.08C121.38,127.47,121.38,127.47,118.41,129.21Zm1.93-7.53c.67,1.23,1.73,1.85,1.4,3.13C121.14,124,120,123.33,120.34,121.68Zm-3-4.08c.89,1.37,2.08,2.53,2.46,4.15C118.73,120.48,117.48,119.34,117.32,117.6Zm1.47,6.28c.16.3-.06.57-.16.86-.24.7-.41,1.43-.67,2.13-.4,1.1-.3,2.31-1.82,3-.86.41-1.56,1.63-2.65,2.13l-.46.14c1.21-4.06,2.43-7.94,3.41-12.06A13.13,13.13,0,0,1,118.79,123.88Zm-2,7.38c-1.19,4.66-2.38,9.31-3.63,14.25-1-1.46-1.76-2.69-2.58-3.92-.21-.31-.09-.56,0-.86.65-2.12,1.3-4.24,1.9-6.37a1.31,1.31,0,0,1,1-.92A7.28,7.28,0,0,0,116.76,131.26Zm-1.36-10.74c-1.05,3.42-2,6.86-3,10.31-.85,3-1.75,6.1-2.7,9.22a3.47,3.47,0,0,1-1-3.77c1.85-6,3.55-12,5.32-18,.06-.2.16-.39.25-.63A2.14,2.14,0,0,1,115.4,120.52ZM113,118.29c-1.85,6-3.54,12.13-5.29,18.21-1.62-1.56-1.67-3.22-1-5.24,1.73-5.27,3.25-10.6,4.85-15.9h0a.41.41,0,0,0,.11-.07l-.08-.08,0-.22,0-.13A2.69,2.69,0,0,1,113,118.29Zm-.84-7.41c-.68-1.36-2.72-2.08-1.94-4.1C110.82,108.17,112.58,109,112.17,110.88Zm-1.47,3.91h0v0q-2.5,8.36-5,16.71c-.09.28.15,1.34-.79.58,0-.05,0-.09,0-.13l-.07,0,0,0c-1.55-1.89-1.1-3.85-.4-6,1.6-5,3-10,4.59-15.4C109.55,112.29,111.47,112.91,110.7,114.79Zm-5.33,24,.35,0c.73,1.23,1.45,2.47,2.19,3.69a1.14,1.14,0,0,1,0,1.13,21.76,21.76,0,0,1-2,4.41,9.09,9.09,0,0,0-1.09,3.32c-.52,2.24-1.57,4.36-1.74,6.7a2.6,2.6,0,0,1-1.63,2c-1.22.54-1.39,1.57-1.83,2.5a2,2,0,0,1-1.38,1.29C100.78,155.45,104,147.38,105.37,138.8Zm-1.53,18.92c1-3.45,1.66-7,3.5-10.19.66-1.12.46-2.57,1.28-3.64a2.49,2.49,0,0,1,.61,3.29c-1.38,3-1.83,6.34-2.59,9.56a2.2,2.2,0,0,1-2.07,1.81C103.75,158.7,103.65,158.36,103.84,157.72Zm6.59-11.17c.44.65.8,1.24,1.22,1.79a1.17,1.17,0,0,1,.18,1.35,6.63,6.63,0,0,0-.8,3.48c-.23,2.26-1.54,3.2-4,4.07A90,90,0,0,1,110.43,146.55Zm2,4.11.09-.79a.61.61,0,0,1,.41.52c.47.68,1,1.34,1.39,2s.38,1.33-.66,1.24c-.88-.08-1.41.54-2.21,1C111.94,153.25,111.5,151.8,112.47,150.66Zm1.72-5.56c1.27-4.41,2.35-8.88,3.57-13.3.29-1.08,1.55-1.36,2.31-2.07-1.61,6.21-3.21,12.42-4.84,18.71A3,3,0,0,1,114.19,145.1Zm2.18,2.58c1.83-6.41,3.46-12.88,5.17-19.39,1.63,1.46,1.81,2.12,1.32,4-1.75,6.67-3.49,13.34-5.26,20.13A4.59,4.59,0,0,1,116.37,147.68Zm6.13-22.51c.61.94,1.59,1.69,1.42,3C123.3,127.21,122.14,126.56,122.5,125.17Zm-1.08-6.68c2.13,1.18.62,2.92.81,4.51C120.89,121.6,120.37,120.17,121.42,118.49Zm-2.75-4.95c1,1.77,2.79,3.33,1.19,5.74C118.63,117.53,116.81,116,118.67,113.54Zm-2.48-2.87h0l0,0,0,0a2.54,2.54,0,0,1,1.66,2.71c-.11.59-.32,1.17-.51,1.84A3.69,3.69,0,0,1,116.19,110.67Zm.5,5.53a.55.55,0,0,1-.13.72c-.3.2-.48-.13-.59-.33-.4-.73-1.31-1.29-.7-2.51A8.74,8.74,0,0,1,116.69,116.2Zm-2.55-8.69c.68.78,1.77,1.38,1.26,2.7h-.06l-.07,0,.07.11c-.2.11-.2.3-.21.49s.11.63-.27.8l-.28-.28v0h0C114,110.13,112.8,109,114.14,107.51Zm-.23,4.48a1.52,1.52,0,0,0,0,.21.58.58,0,0,0,.16,0c.26.67,1.31,1.19.37,2.1l-1.1-1.35,0,0c-.16-.63-1.11-1.16-.22-1.94Zm-3.12-7.64c2.45,1.76,2.53,2,1.75,4C112,106.88,110.44,106.14,110.79,104.35Zm-1.26-1.06c.18,0,.32.22.72.51-.25.1-.43.25-.54.21a.82.82,0,0,1-.4-.4C109.26,103.49,109.28,103.22,109.53,103.29Zm-2.6-.68c.87,1.39,2.85,2.17,2.38,4.3C108.47,105.5,106.63,104.65,106.93,102.61Zm1.15,6.54a1.35,1.35,0,0,1,0,1c-1,3.33-2.2,6.64-3.05,10-.67,2.66-1.46,5.27-2.34,8.07-1.08-1.66-2.12-2.92-1.44-5.13,1.64-5.3,2.89-10.71,4.3-16.08.11-.4.24-.8.39-1.31A12,12,0,0,1,108.08,109.15Zm-3.35-9.85c.65.93,2,1.54,1,3.1C105.06,101.38,103.81,100.74,104.73,99.3Zm-.16,8.4a11.94,11.94,0,0,0-1.07,3.37q-1.57,6.09-3.14,12.18a7.47,7.47,0,0,1-.24.74A3.18,3.18,0,0,1,99,120.4c1.6-5.6,3-11.24,4.51-16.86.06-.21.13-.41.22-.68C105.63,104.27,105.69,105.87,104.57,107.7Zm-2-11.16c.71.78,1.66,1.42.92,2.89C102.81,98.5,101.6,97.91,102.53,96.54Zm.25,7.27a92,92,0,0,0-4.38,15.37c-.12.54-.31,1.07-.48,1.64a3.94,3.94,0,0,1-1.09-4.5c1.58-5.1,2.9-10.27,4.34-15.41.13-.44.11-1,.58-1.32C102.9,100.81,103.51,102,102.78,103.81Zm-1-9.8a2.12,2.12,0,0,1-1.19-1.16C101.31,93,101.45,93.45,101.75,94Zm-2-.73c1,1,2.25,1.58,1.43,3.4C100.6,95.49,99.12,95,99.73,93.28Zm.62,8.07c-1.73,4.22-2.63,8.68-4.08,13-.29.87-.31,1.79-.64,3-.85-1.63-1.86-2.67-1.27-4.57,1.52-4.92,2.76-9.92,4.12-14.89.11-.41.24-.81.37-1.23C101,98.4,101.34,98.94,100.35,101.35ZM97.06,88.7c.78.12,1,.84,1.45,1.33.32.27.71.51.51,1.06-.46-.06-.6-.45-.82-.74C97.76,89.84,97,89.57,97.06,88.7ZM96.83,90c.47,1.1,2.35,1.4,1.58,3.42C97.87,92,96.12,91.62,96.83,90Zm.37,9.92c-1.77,3.89-2.34,8.14-3.73,12.14-.08.25-.18.49-.27.75a2.33,2.33,0,0,1-.23-.15c-2-2.09-1.81-4.34-.92-6.94,1.43-4.16,2.49-8.44,3.72-12.73C98.4,94.9,98.38,97.3,97.2,99.88ZM94.1,87c.84,1,2,1.45,1.64,3.14C95.2,89,93.8,88.7,94.1,87Zm.23,7.61c-1,2.87-1.72,5.86-2.7,8.75-.56,1.66-.75,3.4-1.29,5.08-1.71-1.11-1.71-2.41-1.17-4.13,1.38-4.32,2.52-8.71,3.76-13.07.08-.29.18-.57.27-.86.14,0,.24,0,.29.06C95.36,92.21,95.23,92.16,94.33,94.63Zm-1.24-8.7a.55.55,0,0,1,0,.82c-.27.21-.47-.12-.59-.31-.44-.78-1.74-1.12-1.23-2.58ZM99.82,38.6c.44-2.67,2.2-4.6,3.65-6.71.08-.12.27-.17.63-.39-4.29,16.79-8.8,33.27-13.5,49.79-1.41-.86-1.55-1.87-1.15-3.36C92.7,65.85,95.84,53.74,99,41.64,99.28,40.63,99.66,39.63,99.82,38.6Zm-1.23-.53L99,37.7c-.47,2-.9,4-1.41,6q-3.12,12.18-6.67,24.22c-1,3.51-1.87,7.08-2.81,10.67C87.24,77.7,86.61,77,87,75.46c2.73-10.54,5.37-21.1,7.73-31.73l.06-.12,0,0C95.12,41.09,96.88,39.6,98.59,38.07Zm-3.91,2.5c-.42,1.35-1.9,2-3.12,2.67,1.22-3.84,1.14-8.21,5-10.74C96,35.19,95.5,37.94,94.68,40.57ZM96,25.36c.33-1.09,1.72-1.46,2.85-2.38-.83,4.17-1,8.24-4.9,10.9C94.67,30.94,95.2,28.1,96,25.36Zm-4.29,4.87A3.83,3.83,0,0,1,94,27.94a1,1,0,0,1,.43-.8,1,1,0,0,1-.14,1.1c-.55,2.2-1,4.41-1.67,6.59-.35,1.25-1.67,1.4-2.88,2.22A56.19,56.19,0,0,1,91.74,30.23ZM89.29,38.7c.16-.54.66-.63,1.09-.84.58-.27,1.13-.61,1.74-.94-.38,2.26-1.14,4.42-1.25,6.69,0,.39-.33.49-.58.64-.84.51-1.7,1-2.7,1.58A54.26,54.26,0,0,1,89.29,38.7ZM88.21,39c-.56,5.24-1.31,8-4.38,8.72.56-2.36,1-4.64,1.66-6.88C85.83,39.58,87.2,39.61,88.21,39Zm-.49-10.2c-1,3.67-1.89,7.34-2.87,11-.34,1.26-1.8,1.27-2.65,2,.84-3,1.8-6,2.47-9a8,8,0,0,1,2.76-4.57l.42-.87A1.39,1.39,0,0,1,87.72,28.75Zm4-15.68a20.53,20.53,0,0,1-.36,2.08c-.69,2.71-1.48,5.4-2.12,8.13-.48,2-1.92,3.37-3.2,4.84,1.12-4.13,2.23-8.22,3-12.38C89.33,14.25,90.67,13.92,91.68,13.07ZM88,15.79l.28.25C87,20.5,85.86,25,84.52,29.4A5.54,5.54,0,0,1,82,32.1c1.23-4.58,2.5-9.14,3.66-13.73C86,17,87.15,16.58,88,15.79Zm-3.33,2.79c-.22.92-.42,1.86-.67,2.78Q82.27,27.68,80.5,34c-.51,1.84-2.08,2.8-3.4,4,1.86-5.55,3-11.26,4.76-16.81C82.28,19.82,83.49,19.31,84.66,18.58Zm-7.74,6.79A2.79,2.79,0,0,1,78.45,23a14.08,14.08,0,0,0,2.43-1.87c-1,3.5-1.91,6.7-2.8,9.9-.61,2.19-1.25,4.37-1.71,6.59a3.9,3.9,0,0,1-1.64,2.53c-.66.48-1.34.94-2.08,1.45A94.14,94.14,0,0,1,75.6,30.3C76.08,28.67,76.56,27,76.92,25.37Zm-3.75,2c1-.75,1.87-1.54,3-2.47-1,3.58-2.3,6.87-2.76,10.32-.32,2.44-1.45,4.54-2,6.84-.29,1.09-1.44,1.18-2.21,1.65-.52.31-.41-.35-.34-.64.61-2.55,1.22-5.1,1.88-7.63.59-2.29,1.24-4.55,1.86-6.83A2.05,2.05,0,0,1,73.17,27.39Zm-1.76,1.38c-2,9.14-4.41,17.87-7,26.55-1.08-.37-1.3-1-1-2.1q2.84-10.71,5.49-21.45C69.23,30.36,70.15,29.69,71.41,28.77Zm-6,4.71c1.06-.1,1.68-.82,2.6-1.84-2.1,7.58-3.48,14.94-5.89,22a1.09,1.09,0,0,1-.19,0c-2.09-1.11-2.23-1.14-1.63-3.42,1.39-5.33,2.92-10.61,4.38-15.91C64.85,33.89,65,33.52,65.46,33.48Zm-6.74,8.57c.28-3.35,2.24-5.62,5-7.55-1.11,4-2.2,8-3.24,11.88-.37,1.41-.17,3-1.11,4.24-.33.45-.31,1.39-1.18,1s-1.77-.57-1.49-1.93c.47-2.32,1.23-4.56,1.84-6.84A4.05,4.05,0,0,0,58.72,42.05Zm-.23-2.93c-.61,2.31-1.28,4.53-1.76,6.79a11.49,11.49,0,0,1-.94,3.76c-.54.94-1,.15-1.55.07s-.87-.14-.68-.93c.63-2.59,1.47-5.13,2.12-7.71C56.07,39.54,57.06,39.19,58.49,39.12Zm-3.94,2c-.68,2.4-.46,5-1.85,7.15-.18.27-.08.93-.73.53-.4-.25-1-.3-.76-1.11.42-1.38.66-2.81,1.08-4.19A4,4,0,0,1,54.55,41.13Zm-6.35,4.3a11,11,0,0,1,3.21-2.11c.38-.17.5.14.38.41a15.61,15.61,0,0,0-1.54,3.73c0,.2-.21.26-.45.19-.41-.07-1-.71-1.28-.06s.54,1,1,1.33c.27.18.36.37.23.65s-.4.1-.61,0C47.4,48.64,46.78,46.83,48.2,45.43Zm-1.1,5c2,1.33,2,1.33,1.32,3.58a34.93,34.93,0,0,0-2,7.72,15.59,15.59,0,0,1-1.67,5.1l-1.47-1.24a.89.89,0,0,1-.38-1q2-7.06,3.94-14.13C47,50.44,47.05,50.4,47.1,50.43ZM44,49.2c0-.2.13-.39.2-.6a2.14,2.14,0,0,1,1.16,3,13.36,13.36,0,0,0-.94,5.3c.09,1.13-1,2-1.3,3.11a17,17,0,0,1-1.31,4.21c-1.44-.61-1.61-1.47-1.12-3C41.94,57.25,42.9,53.21,44,49.2ZM40.57,47c.13-.44,0-1.17.82-1.12a1.38,1.38,0,0,1,1.29,1,4.25,4.25,0,0,1-.12,3.16A9.87,9.87,0,0,0,42,54.12a1,1,0,0,1-.12.63c-1.4,2.26-1.56,5-2.65,7.34-2.56-1.83-2.53-1.82-1.67-4.68C38.56,54,39.54,50.47,40.57,47Zm-1.14-.84c-.26,4.69-2.69,8.75-3.43,13.28-1.83-.56-2-1.53-1.45-2.92,1-2.65,1.7-5.4,2.42-8.14C37.4,46.76,37.43,46.77,39.43,46.17ZM36.5,47.5c-1.61,3-1.84,6.31-3,9.34-.13.33,0,1-.73.72-.55-.23-1.11-.41-.88-1.29.52-2,.92-4,1.41-6C33.68,48.62,35.35,48.35,36.5,47.5Zm-7.79,7.7c.3-2.14,1.88-3.22,3.52-4.72-.51,2-1,3.65-1.36,5.34-.18.82-.62.69-1.13.48S28.57,56.22,28.71,55.2ZM24.42,58c.11,0,.22,0,.31-.21.43-.91.87-1.59,2-.69a5.15,5.15,0,0,0,2,.61,3.55,3.55,0,0,1,1.94,1L22.19,89.21c-.18.1-.37-.14-.57-.41-1.12-1.48-2.24-3-3.38-4.44a1.38,1.38,0,0,1-.32-.76l.11-.42a1.22,1.22,0,0,0,.17-.65l.11-.46a4.39,4.39,0,0,0,.39-1.47h0l.17-.63a2.46,2.46,0,0,0,.11-.45l.2-.77a3.11,3.11,0,0,0,.23-.92l.1-.4h0L21,71.38a1.46,1.46,0,0,0,.11-.41l1.66-6.57a6,6,0,0,0,.32-1.21l.26-1,0-.17.72-2.82A4.27,4.27,0,0,0,24.42,58Zm-6.64,5.23c2.28-1.1,3.8-3.17,5.7-4.77a.87.87,0,0,0,.32-.69v0a.32.32,0,0,0,.19.07l-2.23,8.78a.86.86,0,0,0-.1.38l-2.28,9a1.06,1.06,0,0,0-.09.36l-1.75,6.88c-.13.1-.33,0-.63-.21-1.79-1.2-2.87-3.2-4.81-4.22L13.59,73a.19.19,0,0,1,0-.08l.46-1.77.13-.29h-.06l.11-.39.48-1.47-.11,0,.1-.39,0,.07a5.63,5.63,0,0,0,.5-1.89c.1-.35.2-.71.29-1.06h-.07l.15-.59C16.41,64.65,16.8,63.68,17.78,63.21ZM7.19,72.36C9.44,70,12.4,68.44,14.5,65.9a1.93,1.93,0,0,1,.78-.51l-.59,2a2.91,2.91,0,0,0-.12.39l-3.1,10.53h-.13a22.23,22.23,0,0,0-2.46-1.19c-.92-.3-1.31.18-1.05,1.1A1.72,1.72,0,0,0,9,79.5c.66.21,1.33.39,2,.58.22.64-.38,1.19-.22,1.84-.61.75-1,0-1.41-.27a5.5,5.5,0,0,0-3.87-1,.75.75,0,0,0-.11-.5l.32-1.42c.08-.34.17-.69.26-1s.18-.85.26-1.27l0-.07c.08-.37.32-.72.25-1.12l.08-.34a15.63,15.63,0,0,0,.49-1.65.57.57,0,0,0-.13.08Zm-2.62,10a10.75,10.75,0,0,1-2.81-4.66,1.18,1.18,0,0,1,.39-1.2,26.25,26.25,0,0,1,4.67-3.87l-.63,2.73a1.13,1.13,0,0,0-.13.54l-.54,2.32a1.9,1.9,0,0,0-.2.86ZM9.2,86.86c-.51.36-.47,1-.78,1.51-.33-.62-.78-1.1-1.11-1.65-.8-1.32-2-2.39-2.35-4a.51.51,0,0,0-.09-.16l.18-.38.44-.26c.14.23.1,1,.51.54,1.28-1.38,2.16-.18,3,.43.4.28,1.54,0,1.16,1.09-.2.13-.18.34-.19.54a7.66,7.66,0,0,0-.72,2.34Zm5.34,9a1.5,1.5,0,0,0-.09.32l-.06-.08c-.76-.9-1.54-1.78-2.3-2.69C10.62,91.63,8.7,90,9.69,87.25c.05-.15,0,.06,0-.12l0-.06a6.94,6.94,0,0,0,.6-2l.3-1c.26-.11.62-.4.79-.05a4.93,4.93,0,0,0,2.93,2.29c.79.32.61,1.45,1.23,1.69.8.32.7.76.59,1.34a.43.43,0,0,0-.1.35l-.44,1.49-2.15-.86c-.41-.16-1-.53-1.21,0s.33.82.75,1.08c.74.43,1.7.38,2.34,1a4,4,0,0,0-.46,2.16C14.39,94.94,14.61,95.43,14.54,95.87Zm4.25,5.43a.41.41,0,0,1-.33,0l-3.78-4.42v-.4l0-.65A2.23,2.23,0,0,0,15,94.56,3.77,3.77,0,0,0,15.49,93c.07-.32.16-.6.6-.39s1,.46,1.54.69l.78.55c.16,1.12,1.42,1.23,1.9,2,.1.45-.4.89-.24,1.34,0,0,0,.08,0,.11s-.08.23-.11.35l-.1.34a.85.85,0,0,0-.23.87,2.52,2.52,0,0,1-.14.33,11.21,11.21,0,0,0-.47,1.38,2.76,2.76,0,0,0-.06.57A.34.34,0,0,1,18.79,101.3Zm5.69,6.42A41.21,41.21,0,0,1,19,101.66l.1-.09a1.35,1.35,0,0,0,.17-1.11c.18-.38.35-.76.53-1.13l.51-1.6c0-.08,0-.16,0-.24.1-.42.39-.8.27-1.27a32.4,32.4,0,0,1,5.49,6,1.51,1.51,0,0,0-.27,1,4.29,4.29,0,0,0-.52,1.56l-.75-.54c-.75-1.38-2.06-2.22-3.14-3.29a.52.52,0,0,0-.6-.14c-.32.16-.23.44-.2.69a1.3,1.3,0,0,0,.65.94c1.07.74,2.16,1.47,3.24,2.2l.45.46.12,1a2.34,2.34,0,0,0-.5,1.22C24.51,107.48,24.5,107.6,24.48,107.72Zm4.84,5a1.68,1.68,0,0,1-.09.32,39.27,39.27,0,0,1-4.38-4.65c-.12-.13-.07-.41-.1-.62l.05-.12c.17-.47.35-.94.53-1.41a17,17,0,0,1,3.15,3.46c.43.56,1.31.8,1.25,1.72A3.19,3.19,0,0,0,29.32,112.67Zm5.94,7.15c-1.84-2-3.66-4-5.51-6a1.06,1.06,0,0,1-.26-.84.6.6,0,0,0,.08-.08c.33-.35.16-.88.39-1.27s.39-.12.54.06a63.55,63.55,0,0,1,5.12,6.54l-.28,1.22Zm9.43,12.06-.15.26c-1.42-2-2.83-3.93-4.27-5.87a2,2,0,0,1-.51-1.42h0c-.15.06-.42.21-.44.17-1.27-1.63-2.52-3.28-3.76-4.92-.05-.06,0-.17-.05-.26l.07-.15.48-1.12h0c1,1.07,2,2.15,3.06,3.2a2.71,2.71,0,0,1,.94,1.94,1,1,0,0,0-.17.22c-.13.28-.3.56-.15.88,0,0,0,0,0,0v0l.25-.74c.35-.75.68-.4.91.06a11.68,11.68,0,0,0,2.76,3.26,3.71,3.71,0,0,1,1.61,2.71,3.22,3.22,0,0,0-.51,1.59Zm4,5.34c-1.21-1.49-2.43-3-3.64-4.48l0-.35,0-.62v0l0-.12a3.55,3.55,0,0,0,.43-1.53h0a.65.65,0,0,1,.17-.16s.08,0,.1,0L50,135.38a4.08,4.08,0,0,0-.51,1.58v0a.57.57,0,0,0,0,.29v.09h0l0,.06C49.11,138,48.89,137.54,48.64,137.22Zm6.15,7.94c-1.88-1.82-3.17-4.11-4.8-6.13a2.12,2.12,0,0,1-.47-1.59v-.09c.72-.22.09-1.41,1-1.45,1.59,1.88,3.06,3.84,4.49,5.85a2.41,2.41,0,0,1,.51,1.41v.41c-.67.24-.48.89-.65,1.37A.57.57,0,0,1,54.79,145.16Zm4.45,6.53a5.15,5.15,0,0,1-2-2.35c-.67-1.37-1.81-2.47-2.26-4a1,1,0,0,0,.11-.17,3.45,3.45,0,0,0,.31-1.14,1.4,1.4,0,0,1,.29-.5,1.62,1.62,0,0,0,.12-.43c.26.07.33.39.48.58,1.16,1.51,2.31,3,3.46,4.56a3,3,0,0,1,0,1.44v0c0,.06,0,.12,0,.18a4,4,0,0,0-.4,1.43C59.29,151.46,59.27,151.58,59.24,151.69ZM64.42,158l-.13.21h0a29.26,29.26,0,0,0-2.56-3.1h0c-.58-.75-1.13-1.52-1.74-2.24a1.41,1.41,0,0,1-.45-1.15l0-.13c.16-.57.31-1.15.46-1.72h0c.08-.28.08-.64.55-.48,1.33,1.8,2.64,3.62,4,5.4a2.32,2.32,0,0,1,.51,1.41,2.33,2.33,0,0,0-.51,1.58Zm4.83,6.33a38.81,38.81,0,0,1-4.55-5.52v-.4l0-.43a.87.87,0,0,1,.07-.17,12.94,12.94,0,0,1,.45-1.65c.37-.44.5.06.66.21a52.89,52.89,0,0,1,4.18,4.55l-.18,1a3.71,3.71,0,0,0-.22.74l-.09.36a6.24,6.24,0,0,0-.23,1A1.57,1.57,0,0,1,69.25,164.33Zm6.1,6.87c-.08.16,0,.39-.08.57a.33.33,0,0,1-.21.19l-4.94-6.24c-.32-.4-.71-.78-.58-1.38l.07-.07c.37-.44,0-1.07.37-1.52.13-.47,0-1,.6-1.31l5.56,6.32-.32.77c-.25.47-.53.93,0,1.38a2.28,2.28,0,0,1,0,.26C75.16,170.27,75.38,170.79,75.35,171.2Zm4.7,6.3a55,55,0,0,1-4.52-5v-.37l0-.58a1.33,1.33,0,0,1,0-.19c0-.1,0-.2,0-.29a1.7,1.7,0,0,0,.2-.73.51.51,0,0,1,.09-.13,1,1,0,0,0,.06-.34l0-.17a.88.88,0,0,0,.1-.66c.16-.35-.07-.93.58-1a15.45,15.45,0,0,0,4,3.68h0L81,172c-.28.39,0,.43.23.51l.11.06c-.06.31-.28.58-.23.9,0,.05,0,.09,0,.14,0,.27-.13.53-.19.8a2.59,2.59,0,0,0-.09.4,2.74,2.74,0,0,0,0,.28.77.77,0,0,1,0,.15.93.93,0,0,0-.18.77c0,.06,0,.12,0,.18l0,.17a2.5,2.5,0,0,0-.35.88C80.09,177.29,80.07,177.4,80.05,177.5ZM101.17,179v.06a1.63,1.63,0,0,1-.66,1.07,73.78,73.78,0,0,1-7.4,5.57c-.2.13-.67.91-.88-.06l0-.09.1-.35a2.28,2.28,0,0,0,.19-.69l.19-.71a.12.12,0,0,0-.07-.05.79.79,0,0,0,0-.22c.09-.4.16-.81.27-1.21a.75.75,0,0,1-.17.1.34.34,0,0,1-.28,0c-.08-.77-.17-1.55-.26-2.34.53-.22.53.64,1,.5,0-.44.24-.49.52-.5H94c.12-.47.78-.26.89-.66a2.61,2.61,0,0,1,2.83-1.64c.89,0,.75-.25.87-.74.3-1.29.92-1.68,2.21-1.3.73.22,1-.18.77-.65-.37-.84.18-1,.67-1.27.28.09.15.54.5.57h0v.18c-.9.3-.66,1-.53,1.62h0v.5c-.77,0-.49.71-.71,1.08S101.11,178.59,101.17,179Zm8.93-7.43v0a1.39,1.39,0,0,0-.18.86,1.27,1.27,0,0,1-.06.28,82.71,82.71,0,0,1-8.35,6.55l.06-.34c.05-.3.09-.59.14-.89a2.3,2.3,0,0,0,.38-1.07c.06-.09.12-.19.19-.28a1.07,1.07,0,0,0,.1-.5,1.72,1.72,0,0,1,0-.32,4.28,4.28,0,0,0,.25-1,3,3,0,0,1,.19-.35.86.86,0,0,0,0-.32.54.54,0,0,0,.13-.52,5,5,0,0,1,.72-1.06c.9-.84,1.27-2.2,2.68-2.56.53-.14,1.11.27,1.59-.28.75-.88,2-.8,2.93-1.36a4.56,4.56,0,0,0-.29,1c0,.17,0,.33-.08.5a.67.67,0,0,0-.1.39c0,.14-.07.27-.1.41S110.15,171.35,110.1,171.61Zm8.67-8.84a.31.31,0,0,0,0,.1,2.56,2.56,0,0,0-.11.24,3,3,0,0,0-.11,1.23,2.65,2.65,0,0,0-.45,1.33c-.08.34-.16.68-.23,1l-.07.29c-2.49,1.83-5.09,3.53-7.42,5.58l0-.41.07-.72.15-.55h0c-.11-.47.45-.79.28-1.28l.26-1.26c.47-.48,1.64,0,1.58-1.19,0-1,.59-1.49,1.28-2,1.3-1,2.58-1.94,3.89-2.88.48-.34.38-.69.21-1.14s-.53-.53-.94-.43a3.54,3.54,0,0,0-1.24.39c-1.06.8-2,1.76-3.11,2.53a11.26,11.26,0,0,1-4.2,2.28c-2.39.45-4.38,1.41-5.36,3.82a2.13,2.13,0,0,1-.74.89,63.47,63.47,0,0,1-5.12,4.07A11.75,11.75,0,0,0,95,176.21a5.72,5.72,0,0,1-2.71,2c-.56.14-1,.87-1.68,1.2a1.09,1.09,0,0,0-.21,1.62,8.49,8.49,0,0,0,2,2.38l0,.47c-.17.58-.34,1.16-.52,1.74l0,.1c-.32,1-1.1,1.12-2,1a5.66,5.66,0,0,1-3.26-1.57,51.87,51.87,0,0,1-6.34-7.31,2,2,0,0,0,.14-.23,3.46,3.46,0,0,0,.34-1.38,1.86,1.86,0,0,0,.25-1.08c.05-.52.41-1,.24-1.56a1.54,1.54,0,0,0,.35-1.05c.37-.37.25-.91.5-1.33a8.45,8.45,0,0,1,2,5.72,3,3,0,0,0,.3-2.66c-.4-1.66-1.46-3-2-4.63.39-.14.14-.76.46-1a.47.47,0,0,1,.31-.06,59.83,59.83,0,0,1,3.59,5.95,5.9,5.9,0,0,1,.29,4.71,1,1,0,0,1-1.49.75,9.48,9.48,0,0,1-2.27-1.3c-.53-.36-1-.86-1.88-.59a12.84,12.84,0,0,0,2.84,2.38c2.4,1.5,4.38.43,4.4-2.43,0-1.45.35-2.86.37-4.24,1.19.16,1.83-.74,2.68-1.18.68-.37.88-1.84,2.11-1,.25-.75,1.55,0,1.6-1.3s.78-1.68,2.11-1.35c.68.16.94-.2.75-.62a1.25,1.25,0,0,1,.82-1.7,4.28,4.28,0,0,0,2-2.39,2.57,2.57,0,0,1,2.05-1.47c1.35-.17,2.17-1.28,3.46-1.54.43-.09.84-.74,1.53-.71s.87-.33.86-.93a2,2,0,0,1,1.14-1.79c1-.58,2-1.14,2.94-1.74s2.45-.67,1.87-2.57a61,61,0,0,1,4.06,7.6C119.34,161.73,118.67,162.19,118.77,162.77Zm.71-6.47a4.11,4.11,0,0,1-.84-4.27c1.88-6.58,3.56-13.22,5.33-19.92a4.86,4.86,0,0,1,.87,4.65c-1.69,6-3.2,12.06-4.8,18.09A3.12,3.12,0,0,1,119.48,156.3Zm2.47,5.06c-.92-1.87-2-3.19-1.36-5.32,2-6.6,3.67-13.26,5.51-20,1,1.44,1.76,2.55,1.29,4.59-1.35,5.88-3.34,11.58-4.48,17.51C122.72,159.08,122.35,160,122,161.36Zm3,.76c-.1.36.1,1.19-.75.78-.6-.29-1.65-.14-1.29-1.47,1.36-4.89,2.61-9.8,3.91-14.7.57-2.15,1.16-4.3,1.77-6.56a4.11,4.11,0,0,1,1.07,4.35c-1.14,4.08-2.24,8.18-3.34,12.27C125.85,158.57,125.43,160.35,125,162.12Zm.82.85c1.45-6.38,3.35-12.63,5-19.11a4.2,4.2,0,0,1,.93,4.49c-1.28,4.26-2.37,8.59-3.38,12.93C128,162.79,127.21,163.19,125.77,163Zm3.15-.46c1.32-4.9,2.59-9.65,4-14.78.67,1.33,1.32,2.14,1,3.56-.54,2.67-1.41,5.24-2,7.88A4.18,4.18,0,0,1,128.92,162.51Zm3.91-3.15,2-7.39C136.88,155.1,136,158.2,132.83,159.36Zm3.41-12.72c.59.2.73,1,1.43,1.05,0-.09.06-.2,0-.26-1.5-2.57-.36-5.06.3-7.52,2.23-8.28,4.53-16.54,6.78-24.81.22-.79.46-1.34,1.44-1.37s1.37-1,2-2a65.48,65.48,0,0,1-2.43,9.08c-1.11,3.5-2.1,7-3.07,10.58a22.16,22.16,0,0,0-1,5.77,4.63,4.63,0,0,1-.45,1.77c-1.87,4.3-2.51,9-4,13.35C135.64,150.21,135.53,149.59,136.24,146.64Zm4.89,3.37c0,.2-.16.49-.31.55a4.34,4.34,0,0,0-2,1.67c-.4-.22-.27-.45-.22-.63l10.53-39c.47-1.74.48-1.74,3.24-3.36a1.58,1.58,0,0,1-.1,1.26c-1.4,2.8-2,5.87-2.78,8.85-1.5,5.43-3.36,10.77-4.68,16.25-.46,1.93-.42,4-1.06,5.88C142.74,144.31,141.83,147.12,141.13,150Zm4.19-4.73a5.55,5.55,0,0,1-2.16,3.43c-.23.2-.44.44-.78.32,1.06-3.94,2.16-7.79,3.15-11.68,2.4-9.4,5.24-18.69,7.48-28.14.33-1.38,1.67-1.64,2.52-2.53-.3,1.46,0,3-.72,4.3a16.87,16.87,0,0,0-1.66,5c-.48,2.71-1.57,5.26-2.3,7.91a69.06,69.06,0,0,0-2.36,9.66C148,137.6,146,141.26,145.32,145.28Zm4-2.64c-.34,1.54-1.69,2-2.79,2.88.31-1.45.58-2.92.95-4.35q3.42-13,6.87-26c.72-2.71,1.54-5.38,2.22-8.09a3.25,3.25,0,0,1,2.49-2.52,8,8,0,0,1-.73,4,13,13,0,0,0-1.17,3.88,56.83,56.83,0,0,1-2.14,8.1c-.85,2.94-1.69,5.88-2.44,8.84a13.77,13.77,0,0,0-.61,4.24,3.91,3.91,0,0,1-.51,2A28.33,28.33,0,0,0,149.29,142.64Zm3.93-3.31c-.12,1.16-1,2.06-2.93,3.16.92-3.4,1.87-6.67,2.68-10,2.18-8.87,4.78-17.63,6.63-26.58.45-2.14.92-2.6,3.06-3.43-.71,2.9-1.44,5.76-2.11,8.64-1.54,6.7-3.38,13.32-5.31,19.92A48.58,48.58,0,0,0,153.22,139.33Zm4-3.91a4.82,4.82,0,0,1-2.87,3.68c1.79-7,3.66-13.75,5.25-20.6,1.22-5.24,2.8-10.39,4-15.64.28-1.3,1.33-1.72,2.34-2.49a31.64,31.64,0,0,1-1.11,5c-.71,3.06-1.78,6.05-1.8,9.25a.58.58,0,0,1-.05.26c-2.32,5.42-2.67,11.4-4.79,16.88A19.29,19.29,0,0,0,157.22,135.42Zm1.23,0c.27-1.15.48-2.2.77-3.24,2.19-7.84,3.69-15.84,5.78-23.69.67-2.5,1.26-5,1.77-7.53a1.6,1.6,0,0,1,1-1.4c1-.38,1.37-1.44,2.42-2.26-1.34,5.73-2.84,11.09-3.79,16.54-.8,4.56-2.41,8.9-3.19,13.45a44.62,44.62,0,0,1-1.81,5.88C161.12,134,160.45,134.47,158.45,135.39Zm4.26-2.82c.65-2.51,1.35-5,1.95-7.56,2.14-9.11,4.29-18.22,6.33-27.35.34-1.51,1.42-1.91,2.59-2.66-.34,1.65-.63,3.15-1,4.63-1.22,5.42-2.65,10.8-3.62,16.26-.74,4.21-2.28,8.21-2.88,12.45C165.85,130.22,165.07,132.08,162.71,132.57Zm6.37-4.36c-.18,1.28-1.64,1.39-2.57,2.31,2.52-11.09,5-21.88,7.43-32.66a3.46,3.46,0,0,0,.13-.64c.05-2.6,1.49-4.14,3.91-5-.69,3.79-1.73,7.47-2.64,11.17-1.14,4.67-2.52,9.3-3.42,14C171.21,121.05,169.61,124.48,169.08,128.21Z"/></g></g></svg>