<svg xmlns="http://www.w3.org/2000/svg" viewBox="0 0 162.08 182.02"><defs><style>.cls-1{fill:#1d314f;}</style></defs><title>Asset 8</title><g id="Layer_2" data-name="Layer 2"><g id="Capa_1" data-name="Capa 1"><path class="cls-1" d="M86.84,100.11l-.23.44C86.77,100.44,87,100.35,86.84,100.11Z"/><path class="cls-1" d="M84.52,89.92l-.39.1c.22,1.3.41,2.6.65,3.89a4.66,4.66,0,0,0,.52,1.71c.14.21.28.41.57.33a.39.39,0,0,0,.25-.49A26.62,26.62,0,0,0,84.52,89.92Z"/><path class="cls-1" d="M83.75,84.13a2.8,2.8,0,0,0,.43,3.44A12.63,12.63,0,0,0,83.75,84.13Z"/><path class="cls-1" d="M80.28,81.18a6.52,6.52,0,0,0,.09,3.38A4.06,4.06,0,0,0,80.28,81.18Z"/><path class="cls-1" d="M81.42,72.81a6.68,6.68,0,0,0,.3,3.42A4,4,0,0,0,81.42,72.81Z"/><path class="cls-1" d="M81.15,89.05c-.6.07-.29.76-.23,1.17a1.39,1.39,0,0,0,.48,1.12,1.6,1.6,0,0,0,.36-1.16C81.7,89.72,81.64,89,81.15,89.05Z"/><path class="cls-1" d="M82.61,80.5A2.82,2.82,0,0,0,83.15,83,1.79,1.79,0,0,0,82.61,80.5Z"/><path class="cls-1" d="M139.65,91.8v0l0,0Z"/><path class="cls-1" d="M138.13,89.93a1.21,1.21,0,0,0-.77-1.27c-.06,0-.28.08-.28.13a1.18,1.18,0,0,0,.59,1.16c.17,1.14,1.05,1.52,2,1.85C139.67,90.76,138.58,90.6,138.13,89.93Z"/><path class="cls-1" d="M80.81,85.28a2.21,2.21,0,0,0,.12,2.58A2.58,2.58,0,0,0,80.81,85.28Z"/><path class="cls-1" d="M82.16,76.91a2.27,2.27,0,0,0,.3,2.51A2.28,2.28,0,0,0,82.16,76.91Z"/><path class="cls-1" d="M131.2,88.73c-.31-.66-.41-1.44-1-1.94a16,16,0,0,0-1.29-3.12c-.13-.17-.22-.37-.44-.24a.55.55,0,0,0-.13.4,3.45,3.45,0,0,0,1.64,3c-.29.83.2,1.36.73,1.88-.32,1.3,1,.9,1.4,1.49C132.14,89.45,131.61,89.13,131.2,88.73Z"/><path class="cls-1" d="M34.75,85.85c-.6-.07-.42.53-.6.82,0,.25-.14.68.22.69s.61-.43.66-.83S35.09,85.9,34.75,85.85Z"/><path class="cls-1" d="M35.35,82.69a2,2,0,0,0,.83-2.17A3.1,3.1,0,0,0,35.35,82.69Z"/><path class="cls-1" d="M35.21,83.48A1.2,1.2,0,0,0,34.9,85a1.31,1.31,0,0,0,.68-1.37A.22.22,0,0,0,35.21,83.48Z"/><path class="cls-1" d="M132.27,90.4c-.18,0-.22.21-.17.36.15.49.45.73,1,.48C133,90.81,132.76,90.44,132.27,90.4Z"/><path class="cls-1" d="M139.65,91.83h0s0,0,0,0Z"/><path class="cls-1" d="M139.88,91.88a.49.49,0,0,0-.21,0c-.2.54,0,.87.57,1,.14,0,.37,0,.36-.15C140.6,92.23,140.21,92.07,139.88,91.88Z"/><path class="cls-1" d="M134.57,88.51c.11-.66-.39-1-.76-1.41s-.58-.59-.87-.18a.56.56,0,0,0,.4.84,2,2,0,0,1,1.25,1.42c.17.24.47.56.68.39s0-.56-.21-.8A.54.54,0,0,0,134.57,88.51Z"/><path class="cls-1" d="M125.6,67.5c0-.18.09-.42-.17-.48s-.3.28-.44.42A.61.61,0,0,0,125.6,67.5Z"/><path class="cls-1" d="M54.79,27.41a1.69,1.69,0,0,0,1.1,1.81A2.26,2.26,0,0,0,54.79,27.41Z"/><path class="cls-1" d="M126,70.12c-.34-.05-.34.21-.33.46s.11.62.64.55c.13,0,.41-.06.32-.38A.79.79,0,0,0,126,70.12Z"/><path class="cls-1" d="M129.76,72.6a.47.47,0,0,0-.25.32.26.26,0,0,0,.27.29c.27,0,.22-.25.28-.41S129.9,72.53,129.76,72.6Z"/><path class="cls-1" d="M17,124.46l-1.21.36a2.46,2.46,0,0,0,1.77-.13C17.29,124.71,17,124.92,17,124.46Z"/><path class="cls-1" d="M23.64,120.36c.23,0,.31-.2.31-.41s0-.34-.19-.33-.29.21-.31.41S23.42,120.38,23.64,120.36Z"/><path class="cls-1" d="M152.13,141.76c.2,0,.28-.08.42-.6,0,.1-.23.1-.36.1s-.29.09-.29.14S151.92,141.73,152.13,141.76Z"/><path class="cls-1" d="M161.65,154.12q-4.31-13.37-8.17-26.89a31.15,31.15,0,0,1-1.58-11c.25-3.24.4-6.48.68-9.72a21.57,21.57,0,0,0-.67-8.68c-1-3-1.82-6.15-2.76-9.21a13,13,0,0,1-.78-5.43c.44-4,1-7.87,1.77-11.77a28.51,28.51,0,0,0-1.82-16.14,4.76,4.76,0,0,0-2.51-3c-4.55-1.77-9.07-3.68-13.91-4.53a26.66,26.66,0,0,1-8-2.72A91.44,91.44,0,0,1,114,39.13,25.35,25.35,0,0,0,102.23,35c-3.57-.46-7.16-.84-10.44-2.59-2.54-1.36-5.13-2.63-7.72-3.89s-5.22-2.9-8.16-3.44a25.19,25.19,0,0,1-7.25-2.48,72.64,72.64,0,0,0-17.85-6.29c-6.13-1.43-12.24-3-18.6-3a97,97,0,0,1-18.14-2c-2.82-.54-2.77-.58-2.74-3.47,0-.86.37-1.1,1.07-.94,1,.21,1.89-.3,2.86-.26.31,0,.58-.12.48-.5A7.83,7.83,0,0,1,16,2.9C16.28,1,15.84.25,14.28.31A6,6,0,0,1,11.59.05a1,1,0,0,0-.91.2A4,4,0,0,1,8.26.79C5.49.88,2.68.6,0,1.69c-.12.8.4,1.25.91,1.71.11.1.48.15.28.33C.53,4.38,1,5.18.82,5.9c-.21,1,.3,1.44,1.24,1.46s2.14.25,3.21.31S6.48,8.15,6.45,9c-.11,3.32.14,6.65-.21,10A27.54,27.54,0,0,0,6,23,92.63,92.63,0,0,1,5.61,34C5.21,39.52,5,45,5,50.5c0,2.5-.19,5-.32,7.46C4.43,62.6,4.2,67.25,4,71.9c-.1,3.17.11,6.34-.08,9.51-.26,4.36-.69,8.72-.66,13.1,0,4.65,0,9.31.24,14,.16,2.69-.15,5.37-.23,8.06-.08,3-.07,6.09-.18,9.14-.24,6.61-.36,13.23-.52,19.85-.13,5.74-.37,11.47-.44,17.2-.09,5.94-.45,11.88-.31,17.82A2.17,2.17,0,0,0,2.24,182H6.82a6.26,6.26,0,0,0,1.56-4.76C8,172.14,7.52,167,7.11,161.91a6.69,6.69,0,0,1,.58-4.32A2.93,2.93,0,0,0,8,155.71c-.44-3,0-6-.08-9a3.36,3.36,0,0,1,.93-2.61,10,10,0,0,0,2.39-4.38c.63-2.15,1.33-4.29,1.87-6.46.86-3.49,1.61-7,2.41-10.51l0-.06,0,0a13.51,13.51,0,0,1,.28-2.2.58.58,0,0,1,.63-.59,18,18,0,0,1,2.84-.25c.05,1.38-.4,2.31-1.94,2.32-.69,0-1.14.61-1.78.74l0,0v0c.15.47.55.22.86.24.73,0,1.44-.33,2.1-.2.24,1.3-.79,1.34-1.5,1.68l.56.23h0c.95-.14,1.91-.24,2.85-.41a26.42,26.42,0,0,1,16.77,2,29.46,29.46,0,0,0,6,2.19c8.82,2.2,17.79,2.35,26.79,1.73a21.43,21.43,0,0,1,10.75,1.89A79.12,79.12,0,0,1,92.33,139a44.81,44.81,0,0,0,17.12,7.24c6.07,1.2,12.1,2,18.27,1,6.51-1.06,12.3.68,17.55,4.53a9.54,9.54,0,0,0,2.07,1.2c4.71,1.81,9.67,2.14,14.74,2.46C161.91,155,161.79,154.54,161.65,154.12Zm-4.93-9.63c.06.62-.49.34-.78.44-.9.3-1.69.27-2.17-.73a.51.51,0,0,0-.59-.31c-.31.08-.12.28-.12.46s.5.78-.05.9-1.06.34-1.64-.21-.5-1.59-1.08-2.25a3.49,3.49,0,0,1,2,.18,9.74,9.74,0,0,0,3.6.74C156.44,143.67,156.67,144,156.72,144.49Zm-1-2.89c.05.47-.45.34-.72.37-.83.11-1.66.17-2.49.26s-1.3.05-1.71-.72c-.51-.95-1.7-.18-2.49-.94,1-.37.23-.86.13-1.32a61.69,61.69,0,0,1,6.63,1.32C155.63,140.67,155.67,141.22,155.72,141.6ZM150,144.08c-1.35.2-2.13-.33-2.21-1.81C149.14,142,149.75,142.78,150,144.08Zm4.6-5.74c0,.2.23.4-.14.57a3.84,3.84,0,0,1-3.7-.65,1.05,1.05,0,0,0-.85-.35,5,5,0,0,1-2.48-.74c-.31-.15-.66-.15-.46-.72.13-.41-.35-.2-.56-.25-.22.5-.48.14-.64,0a15.46,15.46,0,0,0-6.57-3.35,5.61,5.61,0,0,1-1.42-.63,3.09,3.09,0,0,0-2.14-.4,10.58,10.58,0,0,1-4-.57c-.43-.11-.86-.41-1.27-.27-2.64.91-5.42.4-8.13.95a17.09,17.09,0,0,1-10.87-1.33,7.19,7.19,0,0,0-3.87-.64c-3,.32-5.5-1.2-8-2.43-.91-.45-1.72-1.19-2.69-1.56-.73-.28-.91-.94-1.35-1.41-.68,1-1.08-.1-1.58-.24-.94-.28-1.18-1.06-1.11-2a10.24,10.24,0,0,1,3,1.73c4.72,3,10,4.11,15.37,5.23a48,48,0,0,0,16.6.65c5.45-.74,10.73-.11,15.5,2.94.68.43,1.32.92,2,1.38a2.14,2.14,0,0,1,1,1.56c.41-.1.74-.34,1.27-.08,1.45.71,3.12.63,4.65,1C153.06,137,154.32,136.94,154.58,138.34Zm-7.72,4.16c0,.26.41,1-.47.4a3.32,3.32,0,0,1-1.59-2.33c.9,0,1.42.72,2.07,1.19C147.52,142,146.64,142.25,146.86,142.5Zm-1.54-3.59a3.28,3.28,0,0,1-2-2.69,2.92,2.92,0,0,1,1.79,1.22c.17.22.26.35.53.24a.61.61,0,0,1,.53.48,2.21,2.21,0,0,1,1.6,2.13C146.61,140.42,146.31,139,145.32,138.91ZM93.6,129A13.78,13.78,0,0,0,96,130.32c.77.36,1,1,1,2-1.09-.81-2.48-.83-2.93-2.23,0-.14-.24-.4-.41-.11-.36.58-.64.05-.87-.08-1.25-.71-2.44-1.53-3.72-2.18a2.48,2.48,0,0,1-1.65-2.49A45.08,45.08,0,0,1,93.6,129Zm-6.22-5.34c-.69-.37-.36-1.09-.72-1.55,2,0,5.68,2.7,6,4.58C90.84,125.61,89.13,124.58,87.38,123.64Zm6.1,2.19c2.4,1,2.57,1.22,2.73,2.93C94.92,128,93.32,127.71,93.48,125.83Zm3.43,2.1s.07-.07.1-.05c4.74,2.77,10.06,3.61,15.31,4.7a45.11,45.11,0,0,0,15.07.44c4.83-.62,9.62-.41,14.07,2,1.2.64,1.22.61,1.51,2.27-2.05-.88-4.2-1.18-6-2.36a.81.81,0,0,0-.57-.11,10.3,10.3,0,0,1-5.27-.63,1.28,1.28,0,0,0-.71-.09c-2.68.9-5.51.41-8.27,1a16.87,16.87,0,0,1-10.75-1.34,7.64,7.64,0,0,0-3.88-.65c-3.22.25-5.89-1.24-8.5-2.78C98.11,129.75,96.72,129.52,96.91,127.93Zm24.2,8.68c3.39.14,6.78-.65,10.19-.75a21.78,21.78,0,0,1,12,3.24c.8.48.74,1.34,1,2.1-2.18-1.72-5.07-1.69-7.34-3.17-.72-.47-1.54.28-2.35,0-1.18-.38-2.47-.24-3.61-.82a.81.81,0,0,0-.59-.05c-2.12.93-4.43,0-6.59.7a16.37,16.37,0,0,1-7.16.4,14.41,14.41,0,0,1-5.28-1.44,7.63,7.63,0,0,0-4-.7c-3.54.16-6.46-1.47-9.29-3.32-.41-.27-.4-.84-.4-1.34A64.18,64.18,0,0,0,121.11,136.61Zm32.1-2.45c.2.54.84,1.4.24,1.67s-1.79.63-2.43-.25a1.85,1.85,0,0,0-1.58-.82,5.71,5.71,0,0,1-3.08-1.25,18.08,18.08,0,0,0-7.28-3.81,4.77,4.77,0,0,1-1.42-.64,3,3,0,0,0-2-.36,10.67,10.67,0,0,1-4-.56c-.42-.12-.86-.42-1.26-.28-2.68.91-5.51.45-8.26,1a16.75,16.75,0,0,1-10.75-1.37,6.37,6.37,0,0,0-3.63-.63c-2.91.41-5.41-.88-7.73-2.16s-4.94-2.63-7.31-4.13a2.09,2.09,0,0,1-1.13-2.27c1,.62,2,1.18,2.87,1.81,5,3.43,10.64,4.93,16.48,6a46.59,46.59,0,0,0,11.46,1.18c3.24-.21,6.46-.7,9.72-.72A19.28,19.28,0,0,1,144,130.34a14.59,14.59,0,0,0,7.73,3.22C152.27,133.61,153,133.57,153.21,134.16Zm-134-27a13.21,13.21,0,0,1,2.61-.29c.24,0,.22.33.14.48-.24.46.12,1.21-.64,1.4-.57.15-1.18.18-1.75.35s-.95.06-.69-.7C19,108,18.62,107.3,19.2,107.15Zm2.15-9.57c.35,0,.72-.16,1.06-.12s1-.46,1,.32c0,.57.17,1.36-.8,1.48-.59.07-1.19.17-1.77.29s-.94,0-.73-.74C20.05,98,20.39,97.49,21.35,97.58Zm.17-6.22c.64-.09,1.28-.16,1.9-.23.27.08.75-.24.74.31s.26,1.19-.37,1.39a16,16,0,0,1-2.6.43.31.31,0,0,1-.33-.47C21.1,92.32,20.57,91.48,21.52,91.36ZM21,37.52c-.26-1,.17-1.16,1.06-1,1.86.31,2.08.49,2.09,2.18,0,.19.05.54-.11.53a15.28,15.28,0,0,1-2.69-.46C20.8,38.58,21.22,37.89,21,37.52Zm2.61-14.91.06.31c.25.8.51,1.61.77,2.41.24.2.2.47.18.73s0,.32.05.48c.45,2.19.46,2.16-1.68,1.66a.93.93,0,0,1-.77-.91c-.08-.57-.51-1.07-.29-1.69.32-.13.72.07,1-.24-1.62-.42-1.62-.42-2-2.65h1.54a.65.65,0,0,1,0-.24,2.52,2.52,0,0,1-2.6-2.32c-.05-.23-.14-.47.17-.59h0c.33-.07.7.08,1-.2-1.83,0-2.11-1.46-2.63-2.85l2.93.21c.44,0,.58.33.71.7.22.64.48,1.26.73,1.89.25.19.2.46.2.71C23.19,20.89,23.42,21.75,23.64,22.61Zm4.6-5a8.33,8.33,0,0,0,2.58.26c2.12.46,4.26,0,6.38.15l1.11.1h0a8.11,8.11,0,0,0,2,.15l1.68.25c1.7.38,3.57.48,4.15,2.63,0,.06.2.07.34.11.32-.84-.31-1.34-.62-1.94,2.22.27,4.14.94,4.72,3.5-2.39-.43-4.71-1.14-7.11-1.4h0A10.29,10.29,0,0,0,40.8,21c-3.35-.57-6.75-.37-10.12-.47l-2.42-.23a4.34,4.34,0,0,0,.48.14,8.09,8.09,0,0,0,1.61.27c-.25.06-.51,0-.77,0h0a3.37,3.37,0,0,0,1.53.23c3.12,0,6.24.07,9.35.28a.27.27,0,0,0,.17,0l2.12.39c1.14.55,2.43.4,3.63.72.65.17,1.15.33,1.28,1.15a1.08,1.08,0,0,0,1.23,1c0-.64-.49-1-.61-1.63h0c1.52.34,3.14.23,4.11,1.73.37-.41-.18-.72.16-1a4.2,4.2,0,0,0,1.51.42c.52.14,1,.49,1.58,0h0v0h0c.23.84,1.05.42,1.54.72.78.76,1.11,1.92,2.19,2.63,0-.9-.59-1.36-.67-2.09h0l1.61.4.9.35c1.83.73,1.83.73,2.71,2.78-1.21.1-2.22-.63-3.34-.7a8.1,8.1,0,0,0-2.22-.65,2.05,2.05,0,0,0-1.21-.18l-.1,0-.2-.06c-.3-.51-.87-.24-1.33-.3l-.09,0c-.2-.07-.41-.12-.61-.18-.73-.43-1.11-1.43-2.12-2.15.75,1.62.08,1.51-.7,1.34-1.47-.31-3-.6-4.43-.9a23.84,23.84,0,0,0-4.88-.9,2.82,2.82,0,0,0-.65-.08,5.52,5.52,0,0,0-.72-.06h-.16a9.76,9.76,0,0,0-3-.34c-2.65-.12-5.31.05-7.95-.24l-.47-.05c-2-.24-2-.24-2.47-2.16-.53-1.26.83-.43,1-.91a2.34,2.34,0,0,1-1.9-2.38c0-.36.18-.38.44-.36l1.44.06ZM74.08,34a14.25,14.25,0,0,0,3.54,1.27,3.11,3.11,0,0,0,2,.34l.21,0,.34.07h.14c.46.49,1.21.35,1.76.66l5.3,2.39.69.3c5.62,3.48,11.42,6.45,18.19,7a20.82,20.82,0,0,1,11,4,23.45,23.45,0,0,0,2.81,1.6,3.26,3.26,0,0,0,1.2.72,8.5,8.5,0,0,0,2,1.18,2.84,2.84,0,0,0,1.24.72h0a1.09,1.09,0,0,0,.17.13c.08.54.58.41.94.49l.23.15.06,0a5.91,5.91,0,0,0,1.91,1.11l1,.44.52.3,1.65.7.89.32a5.36,5.36,0,0,0,2.25.64h0a3.85,3.85,0,0,0,.67.09,3.18,3.18,0,0,0,1.68.39c.36,0,.7.35,1.06.23l.05,0a2.72,2.72,0,0,0,.46.21l.17,0c.47.33,1.12.24,1.64.45l.73.22.94.3a7.39,7.39,0,0,0,2.07.77,5.16,5.16,0,0,0,1.59.62l.21.17a1.82,1.82,0,0,0,.64.19h.09c.3.51,1,.41,1.45.61s1.09.34,1.18,1c-.2.53.32,1.15-.22,1.64a1.29,1.29,0,0,0-1.09-.39l-.09,0-.1-.05a1.39,1.39,0,0,0-1.12-.51,4.07,4.07,0,0,0-1.93-.73h0a18.9,18.9,0,0,0-4.39-1.53l-.3-.15a1,1,0,0,0-.33-.1h-.17a1.74,1.74,0,0,0-1.41-.26l-.16,0-.32-.08-.19-.06a2,2,0,0,0-1.81-.27h-.11l-.24-.07c-.11-.42-.59-.22-.88-.34l-1.05-.39-.95-.29a3.89,3.89,0,0,0-1.45-.69l-2.88-1.47a.8.8,0,0,0-.68-.33l-.15-.13a2.36,2.36,0,0,0-.82-.49l-.19-.07a2.3,2.3,0,0,0-1.07-.65l-1.92-1.2-1.21-.73c-4.28-3.15-8.84-5.56-14.26-6.11a30,30,0,0,1-11.38-3.15c-2-1.08-4-2.2-6.09-3.09h0A8.7,8.7,0,0,0,87.57,41,25.63,25.63,0,0,0,82.93,39l-.32-.18a.75.75,0,0,0-.32-.1h-.07a4.79,4.79,0,0,0-1.4-.29l-1.21-.26-5-1.76A14.24,14.24,0,0,0,72,35.18l-2-.94a.86.86,0,0,0-.64-.28A3.38,3.38,0,0,0,68,33.32c-1.4-.4-1.49-1.77-2.1-2.82.63-.08,1.08.35,1.62.38A68.27,68.27,0,0,0,74.08,34Zm-1.85,9.73,1.33.43a18.41,18.41,0,0,0,5.26,2.2,4.86,4.86,0,0,0,2,.4,1.12,1.12,0,0,0,1,.26l7,3.14c5.53,3.48,11.23,6.46,17.92,7a18.7,18.7,0,0,1,10.12,3.71,34,34,0,0,0,3.5,2.08,5.31,5.31,0,0,0,1.49.92,2.79,2.79,0,0,0,1.4.73l.3.3a4.29,4.29,0,0,0,1.63.9l.59.29h0c.12.64.73.51,1.13.72h0a8.15,8.15,0,0,0,3.39,1.59c.54.5,1.09,1,1.91.54.32.4.88.2,1.24.5.2.43.6.17.89.27.69.15,1.35.7,2.1.21h0l.05,0c.12.79.84.5,1.28.72.36.05.71.47,1.07,0,.11.61.75.45,1.08.73l2.32.75a4.57,4.57,0,0,0,1.79.67,1.38,1.38,0,0,0,1.23.42l0-.08h0l0,.08c.34.51.93.54,1.43.75s1,.05,1,.75-.22,1.17-.3,1.75c0,.3-.16.43-.47.29h0c-.48-.18-.87-.65-1.47-.5h0c-.16-.45-.59-.43-.95-.54h0l-1.35-.56a4.38,4.38,0,0,0-1.81-.68h-.4c-1.08-.85-2.48-.86-3.68-1.39l-1.12-.27-.27,0c-.37-.32-.82-.22-1.25-.24-.34-.4-.8-.18-1.21-.24-.22-.33-.59-.21-.9-.29l-1.75-.66-3.11-1.47-1.24-.68-.6-.53h-.17a1.24,1.24,0,0,0-.08-1c-.1-.1-.2-.11-.28,0a1.69,1.69,0,0,1-.26.52l0,0h0l-.45-.09c0-.15-.12-.2-.27-.18-.52-.33-.88-1-1.66-.78,0-.49-.31-.61-.67-.74h0a2.63,2.63,0,0,0-1-.67c-4.66-3.57-9.72-6.12-15.7-6.63a24.77,24.77,0,0,1-10-3.13,62.28,62.28,0,0,0-5.85-3,29.83,29.83,0,0,0-5-2.44A4,4,0,0,0,82.75,50a52.82,52.82,0,0,1-8.85-3l-5.38-2.59a23.83,23.83,0,0,0-3-1.23c-.89-.41-1.7-1-2.78-.75h0a7.87,7.87,0,0,0-2.23-.67l-1.17-.29A3.63,3.63,0,0,0,57.91,41c-4.16-1.19-8.42-2-12.68-2.73a11.58,11.58,0,0,0-3-.4l-1.15-.06c-2-.41-4.05-.08-6.07-.17l-2.91-.24a1.2,1.2,0,0,1-1.42-1.3,13,13,0,0,0-.23-1.39l3.12.2c3.17.37,6.37,0,9.53.33l.17,0,2.12.37,11.51,2.46a1.38,1.38,0,0,0,1,.25,3.89,3.89,0,0,0,2,.47,13.94,13.94,0,0,1,1.84.69c.32.17.57.29.78.38a.27.27,0,0,0,.18.07,1.06,1.06,0,0,0,.84,0c1.25.68,3,.67,3.34,2.58.52-.52,0-.9.18-1.26l1.49.43,2,.93c.76.6.85,1.61,1.42,2.33l.92,1.13C73,45.17,72.24,44.58,72.23,43.72Zm74.4,45a1.44,1.44,0,0,0-1.13-.4l0,0-.1,0c-.17-.37-.58-.35-.91-.48l-1.36-.55a4.58,4.58,0,0,0-1.6-.65l-.14-.11a1,1,0,0,0-.48-.11l-.41-.09c-1-.57-2.2-.63-3.25-1.1-.37,0-.71-.41-1.08-.19L136,85a.92.92,0,0,0-.29,0c0-.26-.17-.35-.4-.42-.73-.54-.76-1.53-1.37-2.16a.38.38,0,0,1,.32-.64,2.86,2.86,0,0,0,.28.07,2.43,2.43,0,0,0,1.51.28l.1,0,.33.08h0c.23.44.81.25,1.18.44.3,0,.59.34.9.19h0l.24.08c.21.33.66.29,1,.42h0l2.3.82h0a.38.38,0,0,0,.23,0,10.44,10.44,0,0,1,1.5.56l.07,0v.06a1.39,1.39,0,0,0,1.21.43h0c.18.41.59.4.94.5h0c.64.83.9,2.43.47,2.92Zm-21.48-8A3,3,0,0,1,124,77.48l1.12.38c-.06-.14-.1-.37-.2-.4-1.34-.43-1.25-1.63-1.46-2.67-.16-.79.3-.67.77-.52a4.26,4.26,0,0,1-1.56-3.1c0-.5.12-.54.32-.53l.17.11.07,0,.28.08c.09.37.67.36.77.73h0c-.11.41-.34.91.25,1.06s.59-.31.62-.7a1.14,1.14,0,0,0,.74.23h0a1.47,1.47,0,0,0,.71.66c.24.3.34.79.89.71-.28.6-.55,1.14,0,1.78.27.29.07.65-.43.36h0c-.83-.3-1.15-1.09-1.67-1.7a1.19,1.19,0,0,0-.93-.8l.35,1-.42.21h0l-.19-.15h0v0a.37.37,0,0,0,.26.28c.27.42,1.19.35,1,1a1.37,1.37,0,0,0,.4,1.57c.43.5.25.71-.24.74a1.18,1.18,0,0,0-.19-.11.34.34,0,0,0-.2,0,.24.24,0,0,0-.11.06h.1l.22,0c.1.49.54.57.9.73a3.37,3.37,0,0,1,0,.55c-.17,1,.82,1.62.82,2.55a1.41,1.41,0,0,0-.78-.41c-.07-.07-.14-.13-.2-.2a1.77,1.77,0,0,0-.87-.42Zm-99-51.48,0-.53c-.25-.82-.5-1.65-.77-2.56a4.79,4.79,0,0,0,1.22.22c1.09-.1,1.34.49,1.6,1.43.32,1.18-.15,1.27-1.06,1.13l-.49.25a2.6,2.6,0,0,0,.92.23c1.29-.14,1.08.87,1.23,1.57.11.49-.3.38-.55.35-.95-.11-2.07,0-2-1.52A2.84,2.84,0,0,0,26.13,29.22Zm-.63,1.24c0,.37-.14.38-.41.38-1.45,0-2.39-.71-2.34-1.75,0-.8.67-.2.91-.37C25.14,28.8,25.52,29.2,25.5,30.46Zm-.72-7.07c.28,0,.56,0,.84,0a1.81,1.81,0,0,1,2,2.23.45.45,0,0,1-.11.31c-.41.35-2.22-.34-2.34-.89S24.93,24,24.78,23.39Zm4.39,3.18a21.82,21.82,0,0,0,3.69.41c3.46.15,6.93,0,10.37.48l1.45.24a13.26,13.26,0,0,0,2.42.55c2,.45,4.35.25,5.26,2.77,0,.1.17.16.26.23v.37h0c-.43-.05-.86-.09-1.29-.17a53.18,53.18,0,0,0-5.87-1.09h0a3.37,3.37,0,0,0-1.66-.25,1.76,1.76,0,0,0-1.06-.17l-1.11-.07a4,4,0,0,0-1.79-.17c-2.57-.09-5.15,0-7.72-.23-.43-.06-.87-.11-1.3-.18-1.5-.24-2-.86-2-2.41,0-.31.22-.27.4-.31ZM33.72,30c2.11.48,4.25,0,6.37.17l1.07.1h0l2.06.15,1.46.22c3.35.63,6.63,1.58,10,2h0a1.74,1.74,0,0,0,1,.24,4.77,4.77,0,0,0,1.52.41,3.73,3.73,0,0,1,2.34,2.64l-.13-.06a1,1,0,0,0-.36-.16h0a1,1,0,0,0-.33-.1h-.08a2,2,0,0,0-1.54-.27l-.23-.07a.49.49,0,0,0-.35-.25l-6.91-1.5a23,23,0,0,0-5.34-.95h0a1.69,1.69,0,0,0-1.06-.18l-.64,0-.31,0a3,3,0,0,0-1.46-.14l-1.27,0-.09,0a2.89,2.89,0,0,0-.83,0l-5.53-.17-2.58-.33c-.41,0-.7-.12-.82-.64-.3-1.26-.35-1.25,1.46-1.24A8,8,0,0,0,33.72,30Zm-5.38,1.83c.52,0,.73.22.71.7s.68,1.2-.15,1.49a1.52,1.52,0,0,1-2-1.15c-.11-.45-.21-.9-.32-1.39A13.13,13.13,0,0,0,28.34,31.78ZM28,34.36c1.71-.23,1.72,1,1.87,2.13,0,.18.16.37,0,.54-.39.32-2.28-.31-2.38-.81s-.22-1.32-.35-2.15C27.43,34.2,27.7,34.39,28,34.36Zm.59,3.06a1.88,1.88,0,0,1,1.92,2.34c0,.22,0,.35-.31.41a1.81,1.81,0,0,1-2.26-1.4c-.1-.43-.2-.86-.31-1.35C28,37.42,28.27,37.41,28.54,37.42Zm-.25,3.35c.05-.19.12-.29.3-.28.64,0,1.44-.16,1.86.29a3,3,0,0,1,.44,2.16c0,.58-.59.09-.86.23A2,2,0,0,1,28.29,40.77Zm.55,3.14c.07-.67.48-.31.74-.33,1.54.15,1.82.55,1.78,2.26,0,.76-.52.43-.83.4C29.13,46.12,28.67,45.44,28.84,43.91Zm3.09-6.06,3.1.22h4.83l1.14.07c1.19.41,2.47.09,3.68.41l12.71,2.72a4.78,4.78,0,0,0,1.75.42l1.14.31a5.89,5.89,0,0,0,2,.65c1.17.07,1.9,1.52,2.84,1.36,1.23-.2,2,.67,3.09.65,1.82.81,3.52,1.88,5.4,2.57h0a26.62,26.62,0,0,0,8.84,3h0l1.52.67L89,53.3c5.26,3.26,10.63,6.2,17,6.76a20.46,20.46,0,0,1,11.14,4,27.44,27.44,0,0,0,3.4,2l1,.67.73.39.09.09a1,1,0,0,0,.27.17h0a3.8,3.8,0,0,0,1.38.79h0L124,69h0c-.31.24.14.47,0,.71l.23.93a.88.88,0,0,1-.71.05h-.19c-1-.7-.77-2-1.35-3.11a2.55,2.55,0,0,0-.11,1.41c-.08.12,0,.47-.32.28l-.93-.51c-1-.65-2-1.23-2.89-2a21.2,21.2,0,0,0-11.06-4.27,34.8,34.8,0,0,1-14.2-4.85,13.56,13.56,0,0,0-3.66-1.75,36.82,36.82,0,0,0-6.29-3l-1.13-.35a7.57,7.57,0,0,0-2-.41l-5.2-2a30.5,30.5,0,0,0-5.38-2.41c-1-.73-2.2-1.24-2.76-2.44-.49.35,0,.7-.26,1-1.68-.31-3.21-1.24-5-1.14a2,2,0,0,0-1-.26c-.2-.77-.94-.43-1.39-.67l-1-.23a108.3,108.3,0,0,0-11.27-2.47A10.87,10.87,0,0,0,43.45,41L42.39,41a2.44,2.44,0,0,0-1.33-.18l-7.74-.23c-1.76-.18-1.76-.18-2.21-2.46a1.59,1.59,0,0,1,.36-.3A3.57,3.57,0,0,1,31.93,37.85Zm-1.8,8.78c1.05,0,1.64.45,1.5,1.53-.05.4.65,1.16-.21,1.16-.57,0-1.7.42-1.77-.94a8.86,8.86,0,0,0-.52-1.86C29.59,46.57,29.86,46.63,30.13,46.63Zm1.53-5.34c-.12-.6.34-.47.67-.51h0a6.24,6.24,0,0,0,1,.2l2,.06a18.7,18.7,0,0,0,2.12.07l5,.16a7.18,7.18,0,0,0,.8.06l2.09.36h0l11.51,2.47a1.38,1.38,0,0,0,1,.25h0a5.93,5.93,0,0,0,1.7.4,1.26,1.26,0,0,1,.28.19,4.3,4.3,0,0,0,1,.34H61a3.31,3.31,0,0,0,.82.22c2.31.82,4.62,1.61,6.94,2.41h0c1.69.81,3.31,1.75,5.08,2.4a18.52,18.52,0,0,0,5,2,4.71,4.71,0,0,0,2,.4l1.19.28,6.75,3.13c5.53,3.47,11.23,6.45,17.92,7a18.78,18.78,0,0,1,10.12,3.71,30.72,30.72,0,0,0,3.5,2.08,5.25,5.25,0,0,0,1.49.93,8,8,0,0,1,.55,2.3c.1.42-.2.44-.51.34a2.31,2.31,0,0,0-1-.67c-4.66-3.57-9.72-6.12-15.7-6.64a24.76,24.76,0,0,1-10-3.12,57.87,57.87,0,0,0-5.85-3,29.12,29.12,0,0,0-5-2.45A4.34,4.34,0,0,0,82.75,56,51.93,51.93,0,0,1,73.9,53L69.49,50.9c-.95-.67-.83-2.07-1.88-2.81-.13.82.36,1.35.55,2.06a39.66,39.66,0,0,0-5.37-1.7,7.89,7.89,0,0,0-2.22-.66l-1.18-.3a3.78,3.78,0,0,0-1.48-.43h0a127.13,127.13,0,0,0-12.68-2.73,11.59,11.59,0,0,0-3-.41l-1.15-.05c-2-.42-4.05-.09-6.07-.18l-2.9-.25A5.88,5.88,0,0,1,31.66,41.29ZM35,44.1h4.83l1.14.08h0c1.19.41,2.47.09,3.68.41l12.71,2.71a4.78,4.78,0,0,0,1.75.42l1.14.32a6.34,6.34,0,0,0,2,.65l7.19,2.54h0a17.61,17.61,0,0,0,4.13,2,26.11,26.11,0,0,0,8.84,3h0l1.52.67L89,59.32c5.26,3.26,10.63,6.21,17,6.77a20.38,20.38,0,0,1,11.14,4,28.73,28.73,0,0,0,3.4,2,2.51,2.51,0,0,0,1,.65c1.41.66,1.08,2,1.18,3.14-.87-.12-1.35-1-2.17-1.17-1-.65-2-1.24-2.88-2a21.27,21.27,0,0,0-11.06-4.26,34.8,34.8,0,0,1-14.2-4.85,13.59,13.59,0,0,0-3.66-1.76,37.58,37.58,0,0,0-6.29-3l-1.13-.34a7.57,7.57,0,0,0-2-.41l-5.2-2a31.2,31.2,0,0,0-5.38-2.4,19.24,19.24,0,0,0-8-2.62,2,2,0,0,0-1-.26c-.2-.77-.94-.43-1.39-.68l-1-.23a108.3,108.3,0,0,0-11.27-2.47,10.85,10.85,0,0,0-2.71-.42L42.39,47a2.44,2.44,0,0,0-1.33-.18l-7.74-.23c-.56,0-1-.17-1-.86a9.72,9.72,0,0,0-.27-1.6C33.05,43.58,34.05,44.3,35,44.1ZM32.91,47a2.63,2.63,0,0,1,.84.07l2.11.06q.63,0,1.26,0l5.4.16a5.24,5.24,0,0,0,.79.05l2.09.37,11.51,2.46h0a1.45,1.45,0,0,0,1,.26,5.93,5.93,0,0,0,1.7.4,1.21,1.21,0,0,1,.3.2,4.22,4.22,0,0,0,1,.34l.29.06c.21.07.45.07.65.14,2.31.82,4.63,1.61,6.95,2.41h0c1.69.8,3.31,1.75,5.08,2.39a18.55,18.55,0,0,0,5,2,4.86,4.86,0,0,0,2,.4l1.19.28,6.75,3.13c5.53,3.47,11.23,6.45,17.92,7a18.7,18.7,0,0,1,10.12,3.71,34,34,0,0,0,3.5,2.08,11.59,11.59,0,0,0,2.22,1.38,6.27,6.27,0,0,1,.73,3.08.42.42,0,0,0-.57-.23l-.16-.1c0-.35-.36-.46-.67-.57h0a2.6,2.6,0,0,0-1-.66c-4.66-3.58-9.72-6.13-15.7-6.64a24.62,24.62,0,0,1-10-3.13,62.28,62.28,0,0,0-5.85-3,29.83,29.83,0,0,0-5-2.44A4.16,4.16,0,0,0,82.75,62a51.93,51.93,0,0,1-8.85-3l-5.38-2.59a23.72,23.72,0,0,0-5.73-2,7.91,7.91,0,0,0-2.22-.67l-1.18-.29a3.79,3.79,0,0,0-1.48-.44c-4.16-1.19-8.42-2-12.68-2.73a11.58,11.58,0,0,0-3-.4l-1.15-.06c-2.1-.43-4.22,0-6.32-.18-1.9-.11-1.9-.11-2.2-2.44A1.5,1.5,0,0,1,32.91,47Zm97.74,28,0,.05a.84.84,0,0,0,.2,1l.08.07a.79.79,0,0,0,.28.86c0,.23.84.61-.12.67h0l-2-.91a7.39,7.39,0,0,1-1.13-2.88,1,1,0,0,1,0-.25l1.62.7s0,0,0,.07h0c.22.47.85.28,1.15.63Zm5.06,4,.33.07.21.05a.86.86,0,0,0,.94.3l.24.12a2.39,2.39,0,0,0,1,.3,3.5,3.5,0,0,1,.45.07,3,3,0,0,0,2.05.65l.19.06a1.88,1.88,0,0,0,.3.12c.25.57,1,.42,1.4.68l1.65.63.77.33.94.31a2.43,2.43,0,0,1,0,2.8h0a1.08,1.08,0,0,0-1-.32h0a1.35,1.35,0,0,0-1.18-.6,4,4,0,0,0-1.47-.65,10.53,10.53,0,0,0-2.38-.78,2.25,2.25,0,0,0-1.34-.47c-.2-.27-.5-.24-.78-.29a4.35,4.35,0,0,0-1.58-.45h0l-.07,0h0a4.1,4.1,0,0,0-1.57-.44c-.56-.18-1.2-.09-1.67-.54l0-.55h0a2.68,2.68,0,0,0-.74-1.89h.78l1.21.23c.42,0,.83.42,1.26.21A.29.29,0,0,1,135.71,79Zm-2.22,5.15c-1,.06-1.66-.25-1.83-1.38,0-.28-.32-.53-.49-.79-.29-.44-.38-.86.1-1.23l-.31-.22-.09-.08a4.85,4.85,0,0,1-.85-.8c-.51-.68-.26-1.77-1.22-2.13l.24-.39,1.63.63.07,0a2.82,2.82,0,0,1,1.44,2c0,.32.18.81.65.75v.08a.5.5,0,0,0,0,.12s0,.08,0,.11c-.24,0-.47.17-.71.16a10.93,10.93,0,0,0,1.29,1.83c.49.47.26.87.16,1.34l-.17-.07ZM129.1,82.7H129c-1.12-.34-1.18-1.45-1.5-2.29a9.38,9.38,0,0,0-.69-1.34h0l.48.21,1.71.77a3.86,3.86,0,0,0,1.18,1.2h0a3.31,3.31,0,0,1,.3,2.14l-.27-.12-1.12-.52v0Zm-.44-5.17v0c-.23.05-.37.14-.21.49s.36,1,.54,1.43c-.14-.1-.27-.22-.4-.33,0,.09.08.18.13.27-.56-.15-1-.55-1.54-.73v-.06l-.08,0L126,75.6l1.07.4v0h0c.6.38,1.08,1,1.88,1h0v0h0A.47.47,0,0,0,128.66,77.53Zm18.16,3.35c-.25.54.44,1.46-.67,1.64l-.7-.31a1.73,1.73,0,0,0-1-.44l-1.35-.57a4.75,4.75,0,0,0-1.79-.68h0a9.12,9.12,0,0,0-2.88-1,.94.94,0,0,1-.83-.24,3.33,3.33,0,0,0-1.53-.46l-.25,0c-.37-.33-.82-.22-1.25-.25-.31-.35-.75-.22-1.13-.28a2.33,2.33,0,0,1-1.79-1.4c.19-.64-.11-1-.7-1.1a1,1,0,0,1-.23-.84c.25-.16.51.19.77.16a1,1,0,0,0,.26.09,7.56,7.56,0,0,0,1.68.5,7,7,0,0,0,1,.06c.53.17,1,.49,1.61.31l.09,0,.33.08h0c.23.44.82.25,1.19.44s.59.35.9.19h0a1.22,1.22,0,0,0,.27.09.86.86,0,0,0,1,.34l.25.09.12,0a4.22,4.22,0,0,0,1.87.76,4.91,4.91,0,0,0,1.81.68,1.38,1.38,0,0,0,1.21.42h0c.19.42.6.4.95.5C146.7,80,147.1,80.28,146.82,80.88Zm.07-1.34c-.07.3-.47-.06-.73,0h0a1.06,1.06,0,0,0-1-.33l0,.06h0l0-.06a1.32,1.32,0,0,0-1.18-.59h0a4.45,4.45,0,0,0-1.47-.67,6.19,6.19,0,0,0-2.41-.73c-.33-.45-.84-.45-1.31-.51-.2-.26-.5-.24-.78-.28a4,4,0,0,0-1.58-.45h-.06a4,4,0,0,0-1.58-.44,3.72,3.72,0,0,0-1.41,0L131.73,75c-.47-.41-1.08-.66-1.43-1.23a.3.3,0,0,0-.55,0,5.28,5.28,0,0,1-2.85-1.48c-.22-.82-.62-.61-1.05-.18l-.69-.23c-.11-.2-.09-.5-.42-.51-.18-.23.12-.78-.41-.76a1.17,1.17,0,0,0,0-.9l0,0c.51-.08-.09-.48-.1-.71h0c.33-.39.66-.11,1,0s.11,1.17.9.54l1.26.68c.58.57,1.65.48,1.9,1.47.13.21-.05.59.34.66a.39.39,0,0,0,.31-.12c.23-.39-.45-.22-.36-.54.3-.21.6,0,.9,0a4.34,4.34,0,0,0,1.74.66l1,.22,1.21.24h0c.42,0,.83.42,1.27.21l.1,0,.33.08.08,0c.12.32.54.15.79.25.7.25,1.39.53,2.1.74.53.15,1,.57,1.58.5l.17.08a2.72,2.72,0,0,0,.49.13l.18,0c.29.44.92.35,1.35.58l1.65.63h0a1.16,1.16,0,0,0,.88.3l.05,0,.14,0c.34.44.9.5,1.37.72C147.47,77.93,147.07,78.76,146.89,79.54Zm-78.12-38A11.58,11.58,0,0,0,64,39.78c-.15-.06-.32-.14-.42-.06-.88-.31-1.44-1.61-2.68-.94-.24.13-.69-.12-1-.19h0a3.34,3.34,0,0,0-1.45-.46l-1-.23a108.3,108.3,0,0,0-11.27-2.47h0A11.35,11.35,0,0,0,43.45,35h-.17L43,34.94q-.47-.06-.93-.09a2.84,2.84,0,0,0-1-.07l-6.2-.09-3.71-.4A2.09,2.09,0,0,1,30,32.22c.12-.35.37-.2.58-.19l1.55.07a24.88,24.88,0,0,0,7.41.26h0a3,3,0,0,0,1.3.17,5.23,5.23,0,0,0,1.85.06c.14,0,.3.11.41.07l.64.1a45.69,45.69,0,0,0,5.3,1,13.44,13.44,0,0,0,1.37.41c2.17.42,4.29,1.17,6.54,1.19,0,0,0,0,0,0h0a1.56,1.56,0,0,0,1.93.36c.78.85,1.92.8,2.9,1.15,1.3.42,2.73.63,3.38,2.29,0-1,.43-1,1.08-.77a20.4,20.4,0,0,0,2,.66,4,4,0,0,1,1.88,3.15A4.6,4.6,0,0,0,68.77,41.51Zm-6.45-4.87c-.71-.45-1.79-.26-2.17-1.27,0-.6-.92-1-.6-1.66h0l.33.09.09,0c.43.56,1.2.39,1.78.63,1.17,1.28,2.87,1,4.33,1.41a3.09,3.09,0,0,1,2.4,2.69C66.42,38,64.5,36.89,62.32,36.64Zm4.92-.87c-1.5-.83-3.22-.63-4.39-1.94-.44-.49-.21.48-.56.41a9.09,9.09,0,0,0-2.45-.72h-.18a2,2,0,0,1-1.11-1A4.62,4.62,0,0,0,57.43,31a.54.54,0,0,0-.64-.13c-.26.16-.15.45-.06.65.21.42.46.81.69,1.22l-1.19-.18-1-.23-2.61-.73a.61.61,0,0,0,.1-.51s0-.05,0-.08c.16-.59-.59-1-.42-1.65a41.93,41.93,0,0,1,4.3.86c.51.1,1,.43,1.56.3l.06,0a2.22,2.22,0,0,0,.37.09l.14,0c.3.29.76.26,1.15.39.86-.23.94,1.3,1.91.85s1.55.5,2.36.55C66.07,32.63,66.67,34,67.24,35.77Zm-6.75-6.46c-.51.63.47,1.11-.14,1.55a4.48,4.48,0,0,0-1.83-.48h0a100.37,100.37,0,0,0-13-2.91h0a3.5,3.5,0,0,0-1.66-.26,18.8,18.8,0,0,0-4.61-.47h0c-3-.29-6,0-9-.41-1.92.17-1.94-1.32-2.24-2.58.4-.27.85,0,1.27-.1a8.46,8.46,0,0,0,2.6.26,2.28,2.28,0,0,0,1.28.19c2.82-.14,5.64.09,8.45.22l.67.06a21.52,21.52,0,0,0,4.64.9,15.76,15.76,0,0,1,2.28.67c.69.34.5,1.55,1.48,1.77.21-.57-.19-.93-.32-1.42l0,0a31.87,31.87,0,0,1,5.19.95c.43.42,1,.14,1.46.29h0l1.14.28a5.6,5.6,0,0,0,2,.65c1.25.42,2.49.85,3.75,1.25s1.12,1.66,1.69,2.53C63.7,31.52,61.35,31.85,60.49,29.31ZM27,22.88c-2.5.15-2.62.06-3.4-2.62C26.5,20.5,26.5,20.5,27,22.88Zm-8.43-4.17c-2,.25-2.27,0-3.64-2.73C16.7,16.11,18.47,16.3,18.54,18.71Zm1.33,3.16c-3.17-.42-2.5.09-3.34-2.5C19,19.25,19.38,19.54,19.87,21.87Zm1,3c-3-.11-3-.11-3.39-2.43C20.79,22.48,20.21,22.23,20.9,24.86Zm-2,.46,1.05.13a1.89,1.89,0,0,1,1.83,2.06c0,.44-.16.45-.49.39-.74-.14-1.5-.22-2.23-.41-1-.26-.72-1.22-.87-1.88S18.63,25.41,18.89,25.32Zm3.52,5c-1.26-.62-3.23.31-3.53-2C21.68,28.13,22.18,28.4,22.41,30.36ZM23.07,33c-2.91-.27-2.91-.27-3.41-2.22C22.22,30.4,22.68,30.69,23.07,33Zm-.4.58c.34,0,.67.1.73.48.1.66.64,1.54.21,1.92s-1.4-.14-2.12-.16-.69-.61-.8-1.07-.18-.85-.29-1.39Zm-1.51,6.23c0-.65.66,0,.89-.25l.79.06c1.52.17,2,.79,1.82,2.3,0,.27-.06.45-.41.38a11.92,11.92,0,0,1-2.57-.48C20.86,41.45,21.17,40.47,21.16,39.79Zm.26,3c0-.16.1-.31.3-.29a15.43,15.43,0,0,1,2.73.32c.73.22.3,1.06.47,1.57.34.94-.09,1.07-.86.89-.39-.09-.79-.15-1.18-.21A1.71,1.71,0,0,1,21.42,42.81Zm3.78,3.8c.15,1.9.19,1.85-1.71,1.61-1.18-.14-1.93-.46-1.76-1.88.07-.63.16-.9.73-.74s1.28.19,1.87.19S25.15,46,25.2,46.61ZM21.8,85.08a120,120,0,0,0,.72-15.62c0-4,.17-8,.38-12,.11-2-.55-4-.76-6a2,2,0,0,0,0-.24c-.39-2.67-.25-2.78,2.4-2.44.72.09.87.35.91,1,.32,5,.2,10.11.21,15.16v1.57c-.38,6.28-.16,12.59-.82,18.87-.1,1-.42,1.26-1.35,1.32C21.61,86.88,21.56,86.93,21.8,85.08ZM72.16,98a23.81,23.81,0,0,1,4.54.4,1.23,1.23,0,0,1,1.16,1.5A11.37,11.37,0,0,0,72.62,99c-4.53.1-9.07.18-13.6.06-2.8-.07-5.56-.94-8.4-.84a24.44,24.44,0,0,1-8.06-1.12c-1.15-.35-2.26-.82-3.4-1.2s-1.62-.94-.84-2.09C49.25,97.69,60.66,98.26,72.16,98ZM38.8,91.77c.23-.77.61-.69,1.15-.52A60.62,60.62,0,0,0,51.4,93.91a139.24,139.24,0,0,0,21.6,1,17.51,17.51,0,0,1,3.69.38c.73.12.73.19.67,1.23a13.81,13.81,0,0,0-5.07-.61c-4.61.09-9.25.42-13.81-.05-4.26-.45-8.55-.51-12.79-1.12a26.81,26.81,0,0,1-6.32-1.85C38.78,92.67,38.6,92.46,38.8,91.77ZM150,122c-.14.71-.74.34-1.16.22a9.25,9.25,0,0,1-3.56-1.94,11.85,11.85,0,0,0-5.19-2.65.82.82,0,0,1-.34-.12c-2.14-1.36-4.65-1.07-7-1.57-1.55-.33-3.06,0-4.52-.09-3.65-.21-7.1,1.32-10.73.84a20.63,20.63,0,0,1-5.57-1.35,7.83,7.83,0,0,0-4-.89c-3,.37-5.5-.88-7.85-2.18a87.67,87.67,0,0,1-7.71-4.41l-.89-.61c-.79-.45-1.57-.92-2.39-1.33s-.58-1.29-1.12-2.14c1.69.82,3.19,1.36,3.54,3.18.27-.47.38-1,1.19-.45,6,4.47,13,6.29,20.18,7.55a47.28,47.28,0,0,0,14.25.33c5-.65,10-.43,14.64,2.08a19.12,19.12,0,0,1,3.33,2.15,7.93,7.93,0,0,0,4.13,2.07C150.11,120.81,150.08,121.48,150,122Zm.75,3.61c-3.08,0-5.12-2-7.4-3.61-1.07-.74-2.44-.82-3.55-1.42-2.15-1.15-4.49-1.11-6.78-1.49-1.66-.28-3.26-.79-4.89,0-3.47-.69-6.75,1.12-10.22.69a22.84,22.84,0,0,1-6.36-1.54,8.48,8.48,0,0,0-4.33-.73,7.59,7.59,0,0,1-3.39-.51c-3.69-1.22-6.78-3.57-10.21-5.25a1.63,1.63,0,0,1-1-2.06c1.92,1.11,3.81,2.22,5.72,3.28,4.14,2.31,8.8,2.89,13.32,3.93a47.77,47.77,0,0,0,16.86.47,22,22,0,0,1,11.67,1.47,19.78,19.78,0,0,1,5,3,7.13,7.13,0,0,0,4.06,1.94C150.67,123.92,150.71,124.74,150.72,125.62ZM91.85,110.76c-1.08-1-3.1-1-2.77-3.3C90.31,108.3,92.06,108.54,91.85,110.76Zm-67.3,3.84a19.13,19.13,0,0,0-3.09.3c0-1.8,0-1.81,1.67-2,1.11-.12,2.22-.21,3.38-.32C26.64,114.15,26,114.67,24.55,114.6Zm-2,3.29a6,6,0,0,1-.83.09c-.4,0-1.09.67-1.15-.31,0-.66-.17-1.48,1-1.51s2.39-.25,3.51-.37C25.2,117.66,23.94,117.85,22.55,117.89Zm3.78-6.49c-1.12,0-2.24.11-3.47.18-.23-.21-1,.6-1-.29,0-.61-.12-1.47,1-1.48s2.31-.23,3.47-.29c.3,0,1-.3.86.34S27.45,111.36,26.33,111.4Zm-.54-3.1a21.59,21.59,0,0,1-2.27.13c-.35,0-1.06.57-1.08-.31,0-.6-.18-1.35.9-1.48a23,23,0,0,1,8.11.24l.94.22c.49.13,1,.17.73,1-.23.66-.39,1.11-1.2.79a5.36,5.36,0,0,0-1.06-.2c-1.66-.28-1.66-.28-1.68-1.79,0,0-.11,0-.11,0C28.54,108.69,27.07,108.25,25.79,108.3Zm-.88-14.21a17.9,17.9,0,0,1,6.56.41c1,.27.09.91.2,1.37s-.18.55-.45.44A30.74,30.74,0,0,0,25,95.92c-.29,0-.87.26-.74-.37S24.05,94.16,24.91,94.09Zm.35,3a35.74,35.74,0,0,1,5.85.31.41.41,0,0,1,.53.19c1.12.31,2.22.66,3.35.92.76.18.73.52.58,1.19-.2.84-.62.64-1.13.47A26.33,26.33,0,0,0,25.23,99c-.31,0-1.12.59-1.1-.46C24.15,97.79,24.06,97.12,25.26,97.13Zm53.58,12.7a10.3,10.3,0,0,0-6.93-1.46,75.3,75.3,0,0,1-8.76,0c-.36,0-.72.08-1.07.06s-.85.4-.88-.31.22-.86.93-.83c1.44,0,2.87.18,4.31.19,3.35,0,6.72-.48,10.06.24a10.62,10.62,0,0,1,1.78.7C78.91,108.64,78.92,109.12,78.84,109.83Zm-.07-10.14c.08-.28.62-.1,1,.06a15.79,15.79,0,0,0,1.74.76c.74.25,1,.69.74,1.53a15.39,15.39,0,0,0-2.86-1.35A.81.81,0,0,1,78.77,99.69ZM61.34,110.33c4.71.51,9.44-.24,14.15.3a9.56,9.56,0,0,1,3,.92c.64.3.84.66.63,1.52-2.72-1.95-5.7-1.73-8.73-1.51a48.11,48.11,0,0,1-5.88-.08,20.13,20.13,0,0,0-3.11.1c-.3,0-.71.09-.6-.45C60.83,110.78,60.67,110.25,61.34,110.33Zm-.47-5.68c-.08.52-.25.77-.81.76a27.66,27.66,0,0,1-4.63-.59c.09-.95.56-1.24,1.49-1.09s2.15.19,3.22.29C60.52,104.06,61,104,60.87,104.65ZM36,105.13a46.36,46.36,0,0,0,10.44,3.46,52.76,52.76,0,0,0,7.6,1.12c1.69.15,3.37.29,5.06.46.31,0,.81-.12.66.52-.1.45,0,1-.8.91-1.54-.23-3.21-.18-4.58-.79-1.06-.47-1.92-.11-2.81-.09a30.34,30.34,0,0,1-13.84-3c-.79-.37-1.64-.63-2.42-1-.37-.19-1.27.1-.94-.93S35.19,104.72,36,105.13Zm-.56-2.45c.23-.73.62-.68,1.15-.42a43.92,43.92,0,0,0,11,3.44c1.91.4,3.88.58,5.82.86.3,0,.79-.14.69.51-.07.47-.25.75-1.1.49a29.78,29.78,0,0,1-12.89-2c-1.4-.58-2.77-1.25-4.19-1.77C35.15,103.57,35.29,103.24,35.46,102.68Zm24,5.82a9.39,9.39,0,0,0-1.19-.1c-.78,0-.82-.44-.59-1h0l-.34-.08c-.34,1.4-1.35.63-2.11.63-.45,0-.41-.37-.39-.71s.18-.51.53-.47a6.93,6.93,0,0,1,2.35.33c.62-.26,1.24,0,1.86,0,.27,0,.84-.22.72.44C60.19,108,60.26,108.63,59.43,108.5ZM55.76,101c-.08.36-.06.82-.68.75-5.66-.58-11.48-.24-16.75-3-1.36-.72-1.4-.64-.78-2.09A57.54,57.54,0,0,0,53,100.3c.71.07,1.43.14,2.15.23C55.41,100.57,55.89,100.37,55.76,101ZM37.44,99.55a53.05,53.05,0,0,0,16.12,3.9,3.93,3.93,0,0,1,.6.06c.32.09.89-.11.72.61-.13.53-.11.55-.82.48-4.56-.11-9.15-.11-13.46-1.91-1.29-.53-2.56-1.14-3.86-1.63-1-.36-.32-.94-.23-1.38C36.65,99,37.11,99.41,37.44,99.55Zm-.88-3.11c0,1-.4,1.25-1.36.92l-1.71-.54c-.52-.16-1.17-.06-.84-1.07s.65-.9,1.35-.62,1.42.5,2.13.76C36.38,96,36.72,96,36.56,96.44Zm-11.13,3.81a26.53,26.53,0,0,1,4.18.07c.62,0,1,.25.83,1,1.52-1.16,2.87.08,4.29.32.41.06.2.46.07.68s0,1-.71.91c-1-.18-1.94-.49-2.92-.68-.48-.09-.16-.84-.74-.78h0c-.12.46-.4.59-.88.55a30.54,30.54,0,0,0-6,0C23.66,100.45,23.75,100.4,25.43,100.25Zm-.52,3.15a19.77,19.77,0,0,1,4.07,0c.28,0,.92-.15.68.46s.16,1.53-.84,1.44a37.34,37.34,0,0,0-6,.09C23.18,103.46,22.84,103.57,24.91,103.4Zm7.84,2.54a14,14,0,0,1-1.55-.35c-.38-.11-1.2.24-1-.65.15-.67.17-1.65,1.4-1.13a9,9,0,0,0,1.85.48c.61.11.68.39.46.91S33.86,106.27,32.75,105.94Zm.88,2.23c.42-1.13,1-.38,1.5-.22,2.4.88,4.72,2,7.19,2.68a75.64,75.64,0,0,0,9.41,2,17.18,17.18,0,0,1,2.92.31c1.36.47,2.72,0,4.06.3.43.09.76.11.66.7s-.2.87-.84.78c-4.66-1.43-9.6-.42-14.31-1.6a43.54,43.54,0,0,1-7-2.5,19.85,19.85,0,0,0-2.68-1C33.76,109.33,33.25,109.19,33.63,108.17Zm25.7,12.09c.06-.71.41-.74,1-.7a48.52,48.52,0,0,0,7.15.23c2.9.22,5.87-.31,8.83.26a19.76,19.76,0,0,1,3.42,1.43.64.64,0,0,1,.33.91c-.2.34-.58.08-.84,0a10.26,10.26,0,0,0-4.85-1.59l-12.74.11c-.44,0-.88.07-1.32,0S59.25,121.14,59.33,120.26Zm20.46-1.11c-.28.54-.75.08-1-.09-2.17-1.44-4.59-1.56-7.06-1.39-3.77.26-7.55-.28-11.31.18-.53.06-.77-.11-.58-.69-.06-.56.18-.77.76-.7,4.37.47,8.75.16,13.12.2a11.36,11.36,0,0,1,5.51,1.47C79.68,118.38,80,118.72,79.79,119.15Zm-.3-3.05c-.2.23-.44,0-.63-.11a13.52,13.52,0,0,0-3.09-1.28,14.74,14.74,0,0,0-4.19-.12c-1.73.15-3.44,0-5.16.07a27.07,27.07,0,0,0-5.4,0c-.33.05-.87.21-.76-.53.08-.52.12-.88.85-.8a109,109,0,0,0,12.13.16,10.87,10.87,0,0,1,5.64,1.35,1.58,1.58,0,0,1,.55.42C79.57,115.54,79.7,115.86,79.49,116.1Zm-.28-13.26A55.51,55.51,0,0,1,87,106.36c1.13.63,1.14.62,1.22,2.15a26.14,26.14,0,0,1-4.84-2.74C82.07,104.7,80,104.64,79.21,102.84Zm3.94-1.61c1.39.73,2.58,1.34,3.75,2,.74.4.6,1.11.65,1.88C85.87,104.06,83.68,103.84,83.15,101.23Zm66.62,17.68c-.11.76-.66.28-1,.19a9,9,0,0,1-3.46-1.87,20.6,20.6,0,0,0-5.15-2.76c-2.5-1.1-5.13-1.15-7.7-1.69-1.45-.3-2.82.07-4.17,0-3.79-.23-7.42,1.39-11.18.78a18.1,18.1,0,0,1-5.53-1.46,6.39,6.39,0,0,0-3.71-.75c-3,.43-5.5-.86-7.85-2.16a106.07,106.07,0,0,1-9.24-5.35l-.29-.22A22,22,0,0,0,88,102.25c-.84-.33-.52-1.44-1.34-1.7l0,.79c-1.62-.17-2.45-1.6-3.79-2.17-.27-.12-.29-.46-.3-.74a1.48,1.48,0,0,1-1.55-.14,6.81,6.81,0,0,0-1.64-.7c-.7-.23-.94-.66-.78-1.52l4.32,2a23.08,23.08,0,0,1,4,2l1.16.57c1.2.62,2.51,1.14,2.75,2.74.26-.83.61-.86,1.35-.37,3.07,2.06,6.15,4.19,9.7,5.24,7.24,2.13,14.55,4,22.21,3.31a58.27,58.27,0,0,1,10-.48,20.25,20.25,0,0,1,11.11,4.44,8.3,8.3,0,0,0,4,2C150.12,117.71,149.85,118.4,149.77,118.91ZM78.56,106.47c0,.12-.28,0-.38-.15a9,9,0,0,0-5.32-1.1c-3.71.3-7.43,0-11.15.07,0-1.16,0-1.18,1.12-1.09,3.08.26,6.15,0,9.23,0a13.39,13.39,0,0,1,5.87.91c.21.11.44.2.51.46A.83.83,0,0,1,78.56,106.47Zm-.45-3.33a11.36,11.36,0,0,0-5.82-1c-3,.13-6,0-9,0-2.4,0-4.8.28-7.21-.38.16-.84.53-1.19,1.51-1.09a107.12,107.12,0,0,0,15.72.41,10.62,10.62,0,0,1,4.12.64C78.08,102,78.42,102.39,78.11,103.14ZM38.16,91.21c-.11.65-.22,1.15-1.12.69a23.94,23.94,0,0,0-2.68-1c-.27-.11-.76-.14-.47-.59s.09-1.28.83-1.07A26,26,0,0,1,38,90.47C38.28,90.61,38.21,90.93,38.16,91.21ZM37,93.12c.79.32.31.81.22,1.28-.14.69-.53.4-.9.27L35,94.17c-1.56-.53-1.56-.53-2-2.07-.3,1.52-1.21,1.2-2.18,1a25,25,0,0,0-5.26-.33c-.32,0-.92.28-.82-.45.08-.55-.31-1.36.77-1.44A25.67,25.67,0,0,1,37,93.12Zm-3.55-3.25c0,.71-.43.63-.88.52a26.65,26.65,0,0,0-6.77-.72c-.25,0-.91.3-.74-.33s-.37-1.43.67-1.53a15.51,15.51,0,0,1,1.67,0,23.12,23.12,0,0,1,5.55.82C33.89,88.83,33.46,89.37,33.45,89.87Zm-11.1-1.71c.31,0,.65-.16.95-.1s1.08-.54,1.15.37c.06.73.05,1.48-1.05,1.42a5.74,5.74,0,0,0-1,.11c-.29-.29-1,.66-1.1-.3C21.2,89,21.13,88.06,22.35,88.16Zm-.75,6.29a7,7,0,0,0,1.51-.19c.29.09.83-.21.74.3s.25,1.28-.6,1.47a7.93,7.93,0,0,1-1.53.21c-.41,0-1.09.62-1.18-.2C20.46,95.39,20.24,94.34,21.6,94.45Zm-.74,6.27a9.15,9.15,0,0,0,1.54-.16c.41,0,.75,0,.56.55.06.86-.23,1.4-1.2,1.37-.27,0-.55.15-.82.12-.45,0-1.19.69-1.29-.23C19.57,101.67,19.5,100.61,20.86,100.72Zm-.48,3.16c.52,0,1-.12,1.53-.18.25,0,.67-.16.57.34s.13,1.3-.63,1.51a23,23,0,0,1-2.34.45c-.21,0-.35,0-.43-.24A1.55,1.55,0,0,1,20.38,103.88ZM21,110c.34.06.37.26.3.5-.15.57.11,1.37-.8,1.53l-3.08.55c.23-.46.38-.74.52-1A3,3,0,0,1,21,110Zm-1.78,3.32a.88.88,0,0,1,.36,0c.38.15,1.12-.56,1.14.2s.17,1.67-1.08,1.79a31.48,31.48,0,0,0-3.13.59C17,113.51,17,113.51,19.23,113.31Zm2.44,6a34.21,34.21,0,0,1,7.44-.37c-.16,1.42-.71,2-2.19,1.87a21.84,21.84,0,0,0-7.35.73C19.78,119.5,19.78,119.49,21.67,119.29Zm6.54-1.59a12.79,12.79,0,0,0-2.63,0c.21-1.69.49-2,2-1.94.52,0,1,0,1.56.06s.78.15,1.14.22C30.16,117.31,29.69,118,28.21,117.7Zm1.78-3a13.73,13.73,0,0,1-2-.21c-.38-.09-1.21.44-1.09-.54.08-.7,0-1.61,1.25-1.39.75.14,1.52.13,2.25.28.32.07,1.06-.13.85.58C31.06,114,31.19,115,30,114.74Zm.87-2.94a16.37,16.37,0,0,0-2-.29c-.33-.07-1.05.24-.89-.52s.06-1.57,1.5-1.36a11.74,11.74,0,0,1,1.82.35c.37.11,1.24-.2,1,.72C32.08,111.36,32,112.16,30.86,111.8Zm2.73,1.84c3.53,1.14,6.87,2.82,10.49,3.71,1.9.48,3.82.85,5.75,1.2.31.06,1-.28.87.57a.89.89,0,0,1-1,.87,24.25,24.25,0,0,1-4.65-.51,31.08,31.08,0,0,1-7-2.35,29.87,29.87,0,0,0-6.57-2.2C31.93,113.15,31.94,113.11,33.59,113.64Zm17.13,3.26a9.61,9.61,0,0,0-1.2,0,27.94,27.94,0,0,1-10.34-2.35,34.19,34.19,0,0,0-6-2.28c-.57-.13-.74-.4-.46-.9s0-1.17.94-.82,1.91.59,2.82,1a50.94,50.94,0,0,0,14.36,4c.32,0,.92-.13.86.54S51.36,117,50.72,116.9Zm.91,2.62c.06-.31,0-.7.49-.67.71.05,1.41.15,2.12.22.26,0,.35.19.23.4s0,.7-.5.67L52.78,120h-.59C51.84,120,51.55,120,51.63,119.52Zm1.1-2.58c-.37,0-.62-.08-.56-.53s.1-.72.62-.64,1.18.16,1.77.19.51.47.51.85c0,.59-.44.24-.54.3C53.84,117,53.29,117,52.73,116.94Zm2.45,2.62a.46.46,0,0,1,.6-.39,17.18,17.18,0,0,0,2,.16c.57,0,.68.3.6.65s0,.61-.27.75a10.63,10.63,0,0,1-3-.5C55,120,55.12,119.79,55.18,119.56Zm3.12-1.88c-.87-.09-1.74-.23-2.6-.37-.13,0-.36-.14-.22-.31s.24-.81.76-.84h1v0l1.2.08c.4,0,.57.25.46.64S58.84,117.73,58.3,117.68Zm.57,5.44c.09-.38.21-.58.61-.53,5,.62,10,.2,15,.33a14,14,0,0,1,5.43,1.74c.58.27.37.69.43,1.19a6.75,6.75,0,0,1-1.43-.51c-2.28-1.5-4.79-1.6-7.4-1.44-3.84.23-7.69-.17-11.54.12C59.5,124.06,58.57,124.3,58.87,123.12Zm21-16.16c-.23-.11-.33-.54-.14-1,1.31.83,3.06.79,4,2.31,1.88-.33,2.93,1.35,4.47,1.82,1,.31,1.31,1,1,2.06C86,110.7,83.05,108.58,79.89,107Zm3.58,3.78c1.7.81,3.34,1.73,5,2.61,1.17.62,1.17.62,1.17,2.16l-4.16-2.14c-.3-.15-.27-.47-.38-.72-.18-.43-.21-.45-.68-.18-.23.13-.28-.06-.39-.12-.92-.48-1.82-1-2.75-1.46a1.31,1.31,0,0,1-.85-1.39A12,12,0,0,1,83.47,110.74Zm7.47,8.65c-1.64-.9-3.18-1.73-4.7-2.58-.5-.28-.51-.37-.55-2C87.47,116.45,90.42,116.3,90.94,119.39Zm-.34-4.73c2.23,1,2.46,1.26,2.57,2.91C91,116.69,90.83,116.5,90.6,114.66Zm62.19,17.94a.26.26,0,0,1-.29.27c-.51.06-1.15.25-1.43-.29-.39-.8-1-.84-1.76-.94a7.58,7.58,0,0,1-3.84-1.87,19.89,19.89,0,0,0-5.57-3,28.66,28.66,0,0,0-6.91-1.5c-1.66-.27-3.26-.76-4.89,0-3.57-.65-7,1.14-10.57.63a21.9,21.9,0,0,1-6-1.49,8.3,8.3,0,0,0-4.44-.75,8,8,0,0,1-3.39-.54c-2.87-.88-5.25-2.7-7.9-4a2.41,2.41,0,0,1-1.63-2.39c3.35,2,6.67,3.92,10.43,4.75,6,1.32,11.86,3,18,2.55,3.2-.2,6.38-.71,9.59-.7a19.61,19.61,0,0,1,12,4,13,13,0,0,0,6.93,3A2.31,2.31,0,0,1,152.79,132.6Zm-1.3-4.54a12.18,12.18,0,0,0,.49,1.75c-.29,0-.47,0-.5-.05-.69-1.2-1.95-1.16-3.06-1.46a8.55,8.55,0,0,1-3.12-1.76,20.21,20.21,0,0,0-5.15-2.74c-2.48-1-5-1.19-7.59-1.67a30.69,30.69,0,0,0-4.28,0c-3.8-.22-7.44,1.39-11.18.77a18.74,18.74,0,0,1-5.64-1.52,7.65,7.65,0,0,0-4.33-.71,8.22,8.22,0,0,1-3.5-.57c-3.29-1-6-3.17-9-4.64a7.12,7.12,0,0,1-1.48-1.14,9,9,0,0,0-1.84-.84,2.72,2.72,0,0,1-1.5-2.35,6.17,6.17,0,0,1,1.77.94c3.37,2.16,6.68,4.53,10.56,5.67,6.81,2,13.72,3.7,20.91,3.29,2.92-.16,5.82-.61,8.75-.66a20.4,20.4,0,0,1,13.18,4.43,9.69,9.69,0,0,0,5.42,2.32C151,127.13,151.4,127.34,151.49,128.06Zm-1-27.08c.54,2,0,3.91,0,5.87-.11,2.8-.38,5.6-.54,8.4-.05.9-.33,1-1.19.76a11.82,11.82,0,0,1-3.73-2.13,19.35,19.35,0,0,0-4.63-2.44c-2.48-1.14-5.11-1.22-7.68-1.72a26.11,26.11,0,0,0-4.41-.06c-3.79-.15-7.44,1.39-11.2.77a18.18,18.18,0,0,1-5.53-1.46,7,7,0,0,0-4-.73c-3,.3-5.53-1-7.92-2.35-3.24-1.83-6.52-3.58-9.66-5.59a4.09,4.09,0,0,0-.32-3.72,23.11,23.11,0,0,0,.1,3.53c-1.54-.74-2.94-1.73-4.54-2.38-1-.43-1.8-1.43-2.9-1.88-.31-.12-.16-.58-.17-.9a6.53,6.53,0,0,0-.25-2.18c-.81.87-.26,1.76-.31,2.63-1-.39-1.89-.79-2.84-1.16-.57-.22-.55-.69-.6-1.18q-.68-7.49-1.37-15A2.63,2.63,0,0,0,76,76.17c-.21,5.79.85,11.37,1.09,17-4.33-.78-8.7-.44-13-.3-5.73.19-11.33-1-17-1.08A21.85,21.85,0,0,1,40,90.07c-.79-.28-.64-.8-.55-1.33.56-3.16,1.17-6.31,1.69-9.47.37-2.26.62-4.53.94-6.8a1.67,1.67,0,0,0-.21-1.14c-1.11,6.1-1.66,12.13-3.31,18-1.63-.61-3.2-1.38-4.88-1.83a26.22,26.22,0,0,0-7.37-1c-.81,0-1-.21-.94-1,.41-6.36.9-12.72,1.12-19.09a121.64,121.64,0,0,0-.25-15.27c-.07-.76-.37-1.55.1-2.29v-.18l-.2,0a6.44,6.44,0,0,1-.23-3.17c-.08-.64-.13-1.28-.26-1.9s.16-.77.69-.73a1,1,0,0,0,0-.17c-.77-.2-1.61-2.2-1.17-2.85.06-.08.31,0,.46,0v-.27c-.55,0-.78-.29-.86-.79s-.23-1.25-.35-1.88c-.1-.45.47-.15.49-.45C23.7,36,24,34.81,24,34c0-.6,1.06-.07,1.62-.22v-.25c-2-.44-2-.44-2.32-2.38,2.32-.23,2.37-.19,2.8,2.36a.45.45,0,0,1,.2.53,8,8,0,0,0,.51,2.53h0l0,.34A14.51,14.51,0,0,0,27.36,39c.36.91-.16.87-.76.83a.55.55,0,0,1,0,.18c.84.2,1.76,2.09,1.36,2.81-.15.25-.45,0-.67.11a1,1,0,0,0,0,.24,2.84,2.84,0,0,1,1.19,2.52c-.06.35-.24.32-.49.29s-.79-.08-1.18-.11V46a4.73,4.73,0,0,1,.77.3c.35.22,1,0,1.08.53a15,15,0,0,1,.22,1.88c0,.29-.24.26-.42.26l-1.19-.05a1.93,1.93,0,0,0,0,.24.34.34,0,0,0,.11,0c1.9,0,1.72,1.35,1.82,2.59.38,4.74.78,9.49.77,14.25.09,1.27-.17,2.54,0,3.81.06.37-.05,1,.47.92s.68-.55.53-1.12c-.24-.88-.44-1.77-.65-2.66.4-.59.16-1.23.16-1.85a39.78,39.78,0,0,0-.34-6.08,13.13,13.13,0,0,1,.13-2.25c0-2.09-.76-4.08-.62-6.16,0-.35-.41-1,.37-1s1.74-.42,1.92.83.37,2.53.5,3.8c.38,4,.73,8,1.1,12v4.87l.45,0c0-.12,0-.25,0-.37s0,0,0,0a29.1,29.1,0,0,0-.2-5.44c0-4.85-.4-9.68-.81-14.51,0-.47-.19-.9.52-.88h0a15.41,15.41,0,0,0,4.34.21h2l1.14.07c1.19.41,2.47.09,3.68.42l12.71,2.71a2.76,2.76,0,0,0,1.75.42l1.14.31a5.89,5.89,0,0,0,2,.65l5.93,2c1.82.81,3.52,1.89,5.4,2.57a26.62,26.62,0,0,0,8.84,3h0l1.52.67L89,65.35c5.26,3.26,10.63,6.2,17,6.77a20.3,20.3,0,0,1,11.14,4,27.38,27.38,0,0,0,3.4,2l1,.67,1,.5c.12.33.46.37.71.52a1.92,1.92,0,0,1,.88,1c.38,1.34.85,2.66,1.35,4a20.71,20.71,0,0,0,2.68,5.31,2.93,2.93,0,0,0,.38.7c.2.21.46.49.81.27a.59.59,0,0,0,.24-.37c.06-.39-.33-.35-.54-.49l-.67-.43h0a2.51,2.51,0,0,0-.58-1.28A68.63,68.63,0,0,1,125,81.62c-.19-.46,0-.65.35-.82.26.23.5.5.89.47-.07.53.38.54.68.68.71.39.91,1.75,2.14,1.1a3.14,3.14,0,0,0,1.24.58A3.93,3.93,0,0,1,132,84.86c.47.51,0,1.79,1.34,1.67a2.53,2.53,0,0,0-.95-1.66c.23-.63,1,0,1.26-.52.2.54.67.53,1.12.55.5.3.34.86.46,1.29.33,1.11,1.29,2.18,2.16,2.22-.15-.25-.3-.49-.42-.74l-1.23-2.58.26,0c.25.34.63.22.95.29.7.25,1.39.54,2.1.74s1.16.73,1.88.42h.4c.17.84,1,.64,1.49.93l1.65.62c.3.19.59.43,1,.27h0c.21.39.48.68,1,.57.42.15.79.3.93.82C148.38,93.5,149.44,97.24,150.48,101ZM148.8,68.39c-.28.34-.67-.11-1,.08,1.6.75.55,1.9.44,2.9l-.45,2.6-.81-.16-.15-.07-.35-.13a1.85,1.85,0,0,0-1.16-.47l-.09,0-.13-.06a1.44,1.44,0,0,0-1.12-.5,4.24,4.24,0,0,0-1.47-.66l-2.3-.8a2.72,2.72,0,0,0-1.09-.4l-.12-.08a.75.75,0,0,0-.29-.09h0a1.6,1.6,0,0,0-.65-.16A3.62,3.62,0,0,0,136.7,70l-.15-.1a.81.81,0,0,0-.31-.06h-.1a5.46,5.46,0,0,0-1.33-.3,1.92,1.92,0,0,0-.82-.08,2.27,2.27,0,0,1-.55-.2,3.8,3.8,0,0,0-1.24-.38h-.29a2.85,2.85,0,0,0-1.54-.48l-.13-.07-.34-.16a12.25,12.25,0,0,0-3-1.54,1,1,0,0,0-.93-.46,1.1,1.1,0,0,1-.16-.15,2,2,0,0,0-.54-.36,1.88,1.88,0,0,1-.3-.12,1.27,1.27,0,0,0-1-.61l-.22-.18a2.21,2.21,0,0,0-.4-.28l-.2-.08c-.23-.37-.69-.46-1-.68a5,5,0,0,0-1.48-.95c-1-.64-2-1.23-2.88-2a21.37,21.37,0,0,0-11.06-4.27,34.51,34.51,0,0,1-14.2-4.85A14.61,14.61,0,0,0,89,49.94h0l-.35-.14a36.3,36.3,0,0,0-6.12-2.95l-1.13-.35h0a8,8,0,0,0-2-.41c-1.91-.55-3.7-1.43-5.55-2.14a4.5,4.5,0,0,1-3.09-3.61c.39.18.78.38,1.18.52,1.58.57,2.93,1.65,4.58,2.06A10.07,10.07,0,0,0,80.87,44l.34.05.2.06c.41.48,1.08.41,1.59.66l1.37.57,4.41,2.12c2.66,1.71,5.47,3.15,8.28,4.6,3,1.56,6.35,1.9,9.63,2.38,3.66.54,7.12,1.45,10.12,3.75a32.26,32.26,0,0,0,3.5,2.08,2.33,2.33,0,0,0,1.12.68.57.57,0,0,0,.18.12c.2.35.59.44.93.59l.92.53c.41.25.72.72,1.24.74l.16.14a3.72,3.72,0,0,0,1,.53l.07,0c.1.3.46.32.72.46a8,8,0,0,0,1.9,1,6.34,6.34,0,0,0,2.19,1c.36.23.7.58,1.13.37l.06,0,.21.06c.14.25.42.27.72.27a4.89,4.89,0,0,0,2.23.37l.21,0,.09,0c.35.46.94.29,1.4.46a1.64,1.64,0,0,0,1,.14l.11,0,.2.07c.31.45.89.35,1.34.52h0l2.43.92.89.31,1,.42a2,2,0,0,0,.77.3l.09,0,.21.1c.21.22.56.2.84.31h0a2.89,2.89,0,0,0,1.12.5l.3.18c.46.32.83.14,1.18-.21-.35,0-.7.38-1.06,0s-.83-.54-1.3-.69h0a1.69,1.69,0,0,0-1.19-.31.82.82,0,0,0-.7-.48,2.07,2.07,0,0,0-1-.45l-.86-.31a9.36,9.36,0,0,0-2.28-.85,8.18,8.18,0,0,0-1.93-.55h0l-.69-.25a2.58,2.58,0,0,0-1.95-.34v0h0c-.5-.59-1.25-.4-1.89-.57l-1.31-.26a2.37,2.37,0,0,0-1.32-.51l-2-.92-1.89-1a1.94,1.94,0,0,0-1-.48l-.88-.47a3.19,3.19,0,0,0-1.29-.89l-.93-.58c-.35-.3-.66-.72-1.21-.48,0-.65-.59-.69-1-.93-4.42-3.39-9.22-5.87-14.9-6.4A27.07,27.07,0,0,1,94.35,50c-1.72-1-3.55-1.84-5.32-2.76a29.25,29.25,0,0,0-4.35-2.14,3.56,3.56,0,0,0-1.35-.56c-.64-.31-1.23-.8-2-.54l0,0h-.06l0,0h0a42.12,42.12,0,0,0-4.41-1.31L70.7,39.81a8.43,8.43,0,0,1-1.44-2.41,2.09,2.09,0,0,1,1.21.16l.11.11a1.35,1.35,0,0,0,.29.16l.23.06A14.09,14.09,0,0,0,74,39.22l.25.19a1.91,1.91,0,0,0,.32.16l.47.18A15.37,15.37,0,0,0,81,41.65l.53.11.23,0,3,1.14L88,44.41h0a3.74,3.74,0,0,0,1.3.63l.21.18.09.05,0,0c5.64,3.26,11.33,6.32,18,6.83a19.85,19.85,0,0,1,10.62,3.78,43.66,43.66,0,0,0,4.25,2.48,2.33,2.33,0,0,0,1.07.65v0a.72.72,0,0,0,.24.14,1.75,1.75,0,0,0,.88.53s0,0,0,.05a1.2,1.2,0,0,0,.27.16h0a2.25,2.25,0,0,0,.91.53l1.17.62a1,1,0,0,0,.7.43l.77.42,1,.47.67.33a1.28,1.28,0,0,0,1,.42h0a2.62,2.62,0,0,0,1.45.71l1.35.42.33.2a.93.93,0,0,0,.33,0h.13a3.9,3.9,0,0,0,2,.27l.22,0,.08,0c.34.45.93.29,1.39.45.37,0,.73.4,1.11.21l.3.09h0a1,1,0,0,0,1.17.32l.14,0,.26.09a1.87,1.87,0,0,0,1.67.61l.15.07.05,0c.3.43.81.43,1.26.56a1.83,1.83,0,0,0,1.29.39l.07,0a2.6,2.6,0,0,0,1.42.66l.15.12a.26.26,0,0,0,.29,0,1,1,0,0,1-.24,0c-.32-.75-1-.83-1.68-.86h0c-.17-.45-.6-.44-1-.56a4.87,4.87,0,0,0-1.66-.56h0a4.68,4.68,0,0,0-1.95-.67,3,3,0,0,0-1.56-.48,1.35,1.35,0,0,0-.82-.25h0a2.45,2.45,0,0,0-1.95-.34v0h-.05a2.33,2.33,0,0,0-2.49-.35l0,0h0c-.17-.83-.94-.55-1.44-.79A3.83,3.83,0,0,0,131.2,63c-.11-.37-.49-.31-.74-.45l-.69-.31-1-.5a1.23,1.23,0,0,0-.76-.42c-.31-.17-.56-.48-1-.45l-.92-.58c-.34-.34-.69-.68-1.24-.47a.84.84,0,0,0-1.2-.72c0-.67-.58-.7-1-.93-1-.63-2-1.22-2.91-1.91a25.37,25.37,0,0,0-11.75-4.74c-3.63-.51-7.31-.94-10.64-2.71-2.15-1.14-4.33-2.21-6.5-3.32a2.33,2.33,0,0,0-1.45-.38c-.06-.75-.79-.64-1.22-.92a12.36,12.36,0,0,0-3.59-1.52,5.1,5.1,0,0,0-3.15-1.11c-1.29-.4-2.56-.9-3.87-1.17S75.57,39.2,74.3,39.3a5,5,0,0,0-3.59-1.68c0-.8-.82-.61-1.24-.91a3.3,3.3,0,0,1-1.67-3l1.09.33h0l.85.42a7,7,0,0,0,1.93,1l2.65,1.2a15.06,15.06,0,0,0,4.76,1.74h0a2.4,2.4,0,0,0,1.44.25c.62.08,1.18.7,1.86.22,0,.19,0,.36.27.46l4.61,2,2.25,1.15c2.72,1.45,5.4,3,8.16,4.33,3.25,1.61,6.86,1.91,10.38,2.42a20.81,20.81,0,0,1,9.7,3.56,34.18,34.18,0,0,0,3.54,2,3.17,3.17,0,0,0,1.19.72,8.36,8.36,0,0,0,2,1.18,2.41,2.41,0,0,0,1.43.73l.74.5a1,1,0,0,0,.71.45,16.53,16.53,0,0,0,2.87,1.47,4,4,0,0,0,1.71.72h0c.13.28.4.25.63.3h0a2,2,0,0,0,1.07.38l1.2.29h0l2.51.5h0v0c.64.14,1.23.77,1.95.24h0A12,12,0,0,0,144.23,64a3.53,3.53,0,0,0,1.92.85,1.17,1.17,0,0,0,1.22.35h0c.15.5.61.44,1,.57A2.89,2.89,0,0,1,148.8,68.39Zm-.51-8.07.32,2.38c-.35.34-.66-.15-1-.05A2.8,2.8,0,0,0,146,62h-.65c-.11-.87-.95-.6-1.42-.91L142,60.34,140.92,60c-.18-.23-.45-.22-.7-.26a6.19,6.19,0,0,0-2.28-.5h0a.51.51,0,0,0-.09-.16h0c-.27-.3-.65-.26-1-.3a4.64,4.64,0,0,0-1.56-.38l-1.18-.08a6.71,6.71,0,0,0-2-.66l-.9-.3-1.51-.66-.67-.29a1.69,1.69,0,0,0-1.24-.5c-.46-.69-1.26-.82-1.94-1.16a1.59,1.59,0,0,0-1.2-.51c-.18-.59-.73-.72-1.21-.93l-1.93-1.22-1.2-.72c-4.06-2.95-8.35-5.29-13.47-5.89-4-.48-8-1.13-11.65-3.08-2.29-1.23-4.57-2.47-6.95-3.52l-.67-.32h0a30.49,30.49,0,0,0-5.25-2.43,4.63,4.63,0,0,0-2.29-.68h-.17A5.88,5.88,0,0,0,78.16,35l-3.59-1.24L67.8,30.67c-1.34-.63-2.77-1.13-3.23-2.8-.11-.42-.3-.68.33-.6l1.72.66.7.29a16.39,16.39,0,0,0,3.39,1.66A29.42,29.42,0,0,0,77,32.39a1.64,1.64,0,0,0,1,.09l.14,0,.36.08.36,0c.76.46,1.72.41,2.49.84l5.79,2.66c2.29,1.48,4.8,2.56,7.16,3.91,3.61,2.07,7.68,2.49,11.68,3.07a21.18,21.18,0,0,1,9.82,3.58,27.2,27.2,0,0,0,3.11,1.78,3.11,3.11,0,0,0,1.2.73,8.13,8.13,0,0,0,2,1.17,2.86,2.86,0,0,0,1.23.72l.08.09a1.73,1.73,0,0,0,.78.49l.14,0c.16.2.32.37.56.28h0a1.6,1.6,0,0,0,.53.32l.1,0c.1.27.43.29.68.41l1,.46,1,.49.69.33a4.05,4.05,0,0,0,1.48.67,7.22,7.22,0,0,0,2.18.7l.67.08a6.67,6.67,0,0,0,2,.42c.34,0,.67.3,1,.22l.14.06a5,5,0,0,0,1.29.48l.46.06a6.7,6.7,0,0,0,.91.21c.65.22,1.23.77,2,.56l.06,0,.3.13.14.06a2.17,2.17,0,0,0,1.85.7l.16.1a2.61,2.61,0,0,0,.43.24l.21.07a1.34,1.34,0,0,0,.68.25,2.07,2.07,0,0,1,.25.15,2.54,2.54,0,0,0,.45.13l.18,0c.11.27.34.31.61.26l.21.13a2.24,2.24,0,0,0,.78.33l.22,0c.24.2.62.11.93.17Zm-1.14-.51-.71-.25a1.38,1.38,0,0,0-1-.46H145c-.24-.61-.84-.41-1.27-.57a.86.86,0,0,0-.1-.16,7.85,7.85,0,0,0-2.55-1h0a6.24,6.24,0,0,0-1.93-.67c-.55-.08-1-.53-1.65-.27l-1.13-.5h0a1.61,1.61,0,0,0-1.05-.24,3.33,3.33,0,0,0-1.72-.43l-.65-.08h0l-2.37-.74L129,53.82l-.7-.29-.94-.49-.94-.51a1.28,1.28,0,0,0-1-.43l-.38-.25c-.2-.39-.51-.38-.85-.24l-.72-.48c-.18-.61-.74-.74-1.22-1L120.36,49l-1.2-.73a28.24,28.24,0,0,0-13.87-5.87A30.39,30.39,0,0,1,95.2,39.83c-2.62-1.28-5.11-2.83-7.82-3.91a35.87,35.87,0,0,0-5.72-2.68,7.83,7.83,0,0,0-3.27-.92h-.17A68.11,68.11,0,0,1,71,29.63,25,25,0,0,0,67.55,28l-.67-.31A3.34,3.34,0,0,0,65.39,27h0c-1.75-.41-2.21-2-3-3.37,1.57.09,2.78,1,4.2,1.19l1,.49a12.43,12.43,0,0,0,2.91,1.41,26.62,26.62,0,0,0,7.15,2.73,1.89,1.89,0,0,0,1.07.2H79c.57.12,1.09.65,1.73.23.41.87,1.36.8,2.06,1.17L86.86,33c5.72,3.43,11.55,6.53,18.4,7a20.54,20.54,0,0,1,11,4,22.1,22.1,0,0,0,2.81,1.59,3.52,3.52,0,0,0,1.2.73,2.62,2.62,0,0,0,1.27.7,2.13,2.13,0,0,0,1.21.72,1.92,1.92,0,0,0,1,.65c.34.12.57.63,1,.3l.38.25c.22.67.86.74,1.39,1a1.44,1.44,0,0,0,1,.43h0a2.18,2.18,0,0,0,1.44.74,1.6,1.6,0,0,0,1.2.5c.4.31.79.67,1.32.25.3.76,1,.54,1.59.67l.65.08a6.25,6.25,0,0,0,1.76.4c.43.08.86.43,1.31.05.33.68.91.71,1.54.57h0a1.08,1.08,0,0,0,1.39.47l.07,0,.09,0a7.87,7.87,0,0,0,3.26,1.31h0a1.83,1.83,0,0,0,1.2.48,1.32,1.32,0,0,0,1.22.39l0-.06,0,.06a.94.94,0,0,0,1.16.45v0h0c.14.5.6.3.92.4l.49,2.79C147.87,60.15,147.54,59.76,147.15,59.81ZM62.61,21.74a63.54,63.54,0,0,0,13.31,4.4,14.23,14.23,0,0,1,3.74,1.62c4.41,2.18,8.84,4.34,13.25,6.53,3.23,1.62,6.77,1.88,10.26,2.35a22.07,22.07,0,0,1,9.34,3.21,118.4,118.4,0,0,0,12,7,25.73,25.73,0,0,0,7,2.18c4.37.77,8.4,2.64,12.58,4a5.26,5.26,0,0,1,3.56,3.85c-.22,0-.42-.25-.66-.17l0,0-.18-.07a1,1,0,0,0-.95-.37l-.09,0-.13,0a1.36,1.36,0,0,0-1.11-.49,1.76,1.76,0,0,0-1.21-.48h0A7.64,7.64,0,0,0,140,54.1l-.09,0-.1,0a1.24,1.24,0,0,0-1.32-.43h0l-.15,0a1.5,1.5,0,0,0-1.15-.47l-.15-.1a.82.82,0,0,0-.31-.07h-.11a2,2,0,0,0-.81-.15,3.94,3.94,0,0,0-1.51-.4l-.67-.07a6.59,6.59,0,0,0-1.75-.43l-.12-.08a.86.86,0,0,0-.3-.09h-.11a2,2,0,0,0-1.13-.32,1.88,1.88,0,0,0-1.19-.54,3.08,3.08,0,0,0-1.46-.66c-.13-.34-.45-.38-.73-.48A5.8,5.8,0,0,0,125.5,49l-.15-.13a1.25,1.25,0,0,0-.55-.28l-.09,0a2.16,2.16,0,0,0-.7-.38,1.23,1.23,0,0,0-1-.52l0,0-.24-.13a.76.76,0,0,0-.91-.55l-.06,0-.18-.11c-.1-.47-.63-.51-1-.74l-1.2-.72a28.59,28.59,0,0,0-14.76-6.1,30.66,30.66,0,0,1-12.89-4.21,27.84,27.84,0,0,0-4.62-2.26,24.8,24.8,0,0,0-4-2A7.41,7.41,0,0,0,81,30l-.1-.09a.87.87,0,0,0-.31-.1l-.17,0a1.31,1.31,0,0,0-1.25-.19l-.3-.08-.21-.05c-.06-.21-.28-.23-.53-.22a49.92,49.92,0,0,1-7.39-2.71,18.19,18.19,0,0,0-3-1.38l-1-.45a14,14,0,0,0-3.54-1.46,2.23,2.23,0,0,1-1.95-1.88A2.58,2.58,0,0,1,62.61,21.74ZM62,24.86c.08.29.46.57.19.86s-.58-.07-.87-.11l-.48-.05a4.54,4.54,0,0,1-3.77-3,.94.94,0,0,0-.3-.36c-.18-.16-.39-.37-.63-.24s-.17.49-.11.75c.14.56.79.93.65,1.6l-.59-.14a.92.92,0,0,1-.27-.16,1.28,1.28,0,0,0-.33-.06h-.06a2.1,2.1,0,0,0-.79-.16l-1.55-.4h0c-1.74-.24-1.88-1.92-2.94-3a.94.94,0,0,1,0-.09l1.68.2A2.36,2.36,0,0,0,53,20.8c.61.19,1.19.57,1.85.35l.17,0,.08,0c.41.51,1.09.26,1.6.48.3,0,.6.35.9.19l.05,0,.22.06c.26.45.83.31,1.25.45A3.26,3.26,0,0,1,62,24.86ZM42.21,15.72a6.39,6.39,0,0,0,2.74.6c1.44-.17,2.37.89,3.12,2.08.41-.56-.22-.83-.12-1.42,2.51.83,5.25,1,7.23,3.26,0-.65.15-1,.92-.7a14.29,14.29,0,0,0,2.64.78,2.33,2.33,0,0,1,1.85,2l-1-.14a3.92,3.92,0,0,0-1.83-.47,1,1,0,0,0-.8-.26,2.87,2.87,0,0,0-2-.34l0,0h0c-.32-.59-.95-.4-1.43-.56l-1-.22c-1-.4-2.22-.31-3.2-.91s-2,.05-2.95-.38a12.84,12.84,0,0,0-3.68-.71,4.59,4.59,0,0,0-1.87-.26,1.65,1.65,0,0,0-1.07-.17l-1.12-.08a4.12,4.12,0,0,0-1.78-.17c-2.57-.08-5.15,0-7.72-.22l-.71-.08c-2.65-.33-2.65-.33-3.18-2.95C31,14.27,36.68,14.1,42.21,15.72ZM25.36,16.78c-.44.28-.92,0-1.37.08h0l-.28.24.1,0c2,.63,2,.63,2.41,2.8a12.62,12.62,0,0,1-2.46-.17c-.4,0-.5-.29-.6-.62-.22-.68-.47-1.35-.7-2a.5.5,0,0,1-.16-.58l-1-2.67C24.57,13.79,24.6,13.81,25.36,16.78Zm-7.2-3.49c2.66.26,2.71.3,3.35,3-2.19-.14-4.36-.3-4.78-3.16Zm-1,2.25c-2.71-.2-2.78-.25-4.17-2.83C16.2,12.87,16.41,13,17.14,15.54ZM2.52,5.77V2.06c2.88.12,5.74-.27,8.6-.07.4,0,.8,0,1.2.05,1.66.2,1.69.21,1.53,1.88,0,.5.31.79.47,1.28C10.33,5.83,6.39,5.49,2.52,5.77ZM7.18,129.38C7.06,134,7,138.53,6.79,143.1c-.23,4.36-.51,8.72-.42,13.09.14,7.5-.85,15-.48,22.49,0,.32,0,.64,0,1,.1,1.82.1,1.76-1.77,1.68-.93,0-1.18-.38-1-1.25.1-.67.1-1.35.14-2,.74-11.93.63-23.9,1-35.85.26-7.5.15-15,.46-22.51.67-16.23.86-32.48,1.77-48.71.55-9.69,1.13-19.39,1.1-29.1,0-7.27.74-14.51.56-21.77-.09-3.82,0-7.63-.11-11.45,0-1,.43-1.12,1.21-1.18,1-.07.81.64.71,1.11s.61,1.57-.59,1.85a.87.87,0,0,0,0,.21c1.26,3,.25,6.15.29,9.23.06,5.29-.2,10.59-.26,15.89-.15,12-.52,24-.88,36C8.3,80.36,8.34,89,7.94,97.61,7.44,108.2,7.47,118.79,7.18,129.38Zm8.38-12.27a235.64,235.64,0,0,1-7.06,23c-.3,0-.18-.31-.27-.48.34-3.93,0-7.86,0-11.79a36.18,36.18,0,0,1,.43-5.4,10.06,10.06,0,0,0-.06-3.46,11.08,11.08,0,0,1-.14-2.76A49.34,49.34,0,0,1,9.22,108a12.07,12.07,0,0,0,.1-4.07,19.24,19.24,0,0,1,.27-5.86c.54-2.73.24-5.53.14-8.29q-.33-8.89,0-17.8a85.07,85.07,0,0,1,.67-10.2,44.36,44.36,0,0,0,.13-12.34,67.61,67.61,0,0,1,.08-8.3c.1-9.07.76-18.13.56-27.2v-.7a21.59,21.59,0,0,1,2.58,4.5,75.8,75.8,0,0,1,5.1,17.37,151.4,151.4,0,0,1,2.59,33.66,215.24,215.24,0,0,1-3,31.23C17.47,105.73,17.08,111.53,15.56,117.11ZM18,118.67c-.66.12-1.31.35-2,.54.31-2.63.31-2.63,3.89-2.8C19.9,118.28,19.85,118.32,18,118.67Zm3.44,4.54c-.58.11-1.16.26-1.74.37-.26,0-.65.35-.68-.25,0-.39,0-.72.53-.76l2.71-.25C22.32,123,22,123.13,21.48,123.21Zm5.77-.45a18.74,18.74,0,0,0-3.53.17c-.28-.06-.65.21-.72-.2s.26-.49.6-.55a18.16,18.16,0,0,1,3.68-.22c.2,0,.54-.14.56.22A.52.52,0,0,1,27.25,122.76ZM48.52,128c-.11.61-.64.26-1,.19a42.52,42.52,0,0,1-10-3,25,25,0,0,0-8.44-2.27c-.27,0-.85.21-.81-.39s.5-.52.92-.47a27.83,27.83,0,0,1,7.4,2,55.51,55.51,0,0,0,11.09,3.47C48.05,127.58,48.62,127.42,48.52,128Zm3.85.57c0,.27-.24.28-.45.27l-.6-.06v0l-1.9-.28c-.18,0-.44,0-.43-.28a.39.39,0,0,1,.45-.43c.88.09,1.75.21,2.62.34A.33.33,0,0,1,52.37,128.55Zm.76-3c-.06.37-.1.72-.61.71-.92,0-1.84,0-2.77,0a27.76,27.76,0,0,1-11.67-2.85A27.67,27.67,0,0,0,30.29,121c-.36,0-1.17,0-1-.46s.28-1.66,1.43-1.39a33.57,33.57,0,0,1,6.41,2,58,58,0,0,0,10.64,3.29c1.59.38,3.19.35,4.77.66C52.82,125.15,53.2,125,53.13,125.51Zm3.45,3.71H55.8c-.69-.07-1.33-.13-2-.21-.22,0-.52,0-.46-.36a.37.37,0,0,1,.4-.36c1,.07,1.91.16,2.87.25a.32.32,0,0,1,.3.31C57,129.11,56.81,129.21,56.58,129.22Zm.88-2.93c0,.52-.31.58-.71.52l-2.35-.39c-.4,0-.64-.13-.6-.64s.34-.53.73-.48.63,0,.95.08v0c.48,0,1,.1,1.42.12S57.49,125.84,57.46,126.29Zm-.37-2.51c-4.4-1.24-9.05-.16-13.46-1.5a46,46,0,0,1-6-2.19,25.67,25.67,0,0,0-6.38-2c-.41-.06-1.08,0-.83-.79.19-.61.31-1.31,1.25-1a31.94,31.94,0,0,1,3.79,1.15,61.24,61.24,0,0,0,21.73,5c.4,0,.82,0,.7.61S57.77,123.76,57.09,123.78Zm10.26,5.46a10.84,10.84,0,0,1-3.68.19c-1.71,0-3.42-.05-5.13-.11-.23,0-.65.09-.63-.33s.4-.28.65-.26c1.55.09,3.09.2,4.64.3h3.67a.31.31,0,0,0,.12.05l-.12-.05h1.57C68.06,129.34,67.69,129.18,67.35,129.24Zm2.16-.08c.35-.27.74-.17,1.19-.12C70.3,129.39,69.9,129.13,69.51,129.16Zm11-.17a9.6,9.6,0,0,1-2.65-1.08,7.56,7.56,0,0,0-4.39-1c-4.73.31-9.46,0-14.19.14-.33,0-1.08.39-1.05-.5,0-.69.29-1,1.1-.92a79.5,79.5,0,0,0,13.45.3,14.4,14.4,0,0,1,7.34,1.92C80.65,128.13,80.67,128.49,80.54,129Zm.07-16.18c2.9.51,4.23,1.56,4.18,3.31C83.86,114.54,81.36,114.92,80.61,112.81Zm.39,3.32c.21-.43.57,0,.82.08a17.9,17.9,0,0,1,3,1.46,10.28,10.28,0,0,0,2,1.07c1.29.52,2.45,1.36,3.7,2a2.55,2.55,0,0,1,1.49,2.52,41.41,41.41,0,0,0-5.83-3.4c-1.29-.62-2.26-1.72-3.64-2.12a6.83,6.83,0,0,1-1.19-.57A.78.78,0,0,1,81,116.13Zm4.92,5.23c.45.29.25,1,.2,1.46-1.36-.27-4.45-2.51-4.77-3.55A15.23,15.23,0,0,1,85.92,121.36Zm-4,1.1c4.27,1.75,4.27,1.75,4.65,3.74A5,5,0,0,1,84.26,125a4.05,4.05,0,0,0-1.52-.94A1.14,1.14,0,0,1,81.88,122.46Zm.23,3.22a36.65,36.65,0,0,1,4.58,2.23c.78.41.6,1.21.86,1.82-2.08-.28-3.31-2-5.12-2.74C81.84,126.76,82.1,126.19,82.11,125.68Zm5.94,7.6c-2.13-1.19-4.46-1.84-5.58-4.13a22.19,22.19,0,0,1,5.32,2.52C88.3,132,88.07,132.6,88.05,133.28Zm-.39-4.79a47,47,0,0,1,6,3.55c.68.44.6,1.23.93,2-2.06-1.22-3.94-2.34-5.83-3.44C88,130.16,88.14,129.33,87.66,128.49Zm1.59,5.5c-.73-.43-.4-1.1-.46-1.82,2.17,1.11,4,2.45,6,3.69.56.35.46,1.06.74,1.87C93.29,136.4,91.28,135.19,89.25,134ZM95,132.66c1,1.33,3.24,1,3.13,3.26C96.77,135.17,95.08,134.93,95,132.66Zm1.39,4.12,2,1.13c.39.37.2.82.17,1.25,0,0-.06,0-.08,0s0-.05-.08-.07C97.31,138.76,96.27,138.33,96.37,136.78Zm1.82,4.42a.59.59,0,0,1,.86.51Zm.32-6.16a66.91,66.91,0,0,0,23.15,4.63c3.64,0,7.25-.76,10.92-.69a20.88,20.88,0,0,1,12.16,4.24,1.67,1.67,0,0,1,.6.58c.17.38.61.87.28,1.2s-.76-.18-1.07-.41a17.21,17.21,0,0,0-3.82-2,32.78,32.78,0,0,0-8.38-1.92c-1.38-.21-2.66.05-3.93,0-3.87-.21-7.6,1.43-11.43.79a18.27,18.27,0,0,1-5.52-1.5,7.86,7.86,0,0,0-4.21-.7c-3,.24-5.37-1.33-7.89-2.49C98.69,136.48,98.73,135.66,98.51,135Zm36.9,10.6-1-.06h-3.89c-3,.27-5.94.95-9,1-5.06.1-10-1-14.85-2.07a21.52,21.52,0,0,1-6.28-2.23c.38-.45.66-.08.91,0a80.71,80.71,0,0,0,18,3.59c2.94.24,5.85-.31,8.77-.52.32,0,.64,0,1,0l.46-.07a2.22,2.22,0,0,1,.43-.06,15,15,0,0,1,4.73.12l.8.06Zm1.14.07c.52-.13.89.15,1.46.25A1.25,1.25,0,0,1,136.55,145.71ZM147,149.42c-2.81-2.51-6.34-3.63-9.72-5a2.25,2.25,0,0,0-1.27-.2,10.81,10.81,0,0,1-4.48-.55,2.66,2.66,0,0,0-1.29-.19c-2.77.76-5.66.43-8.49,1A16.75,16.75,0,0,1,111.36,143a7.33,7.33,0,0,0-4-.65,6.43,6.43,0,0,1-3.74-.59,16.63,16.63,0,0,0-2.58-1,2.12,2.12,0,0,1-1.65-2.4c4.49,2,9.28,2.7,14,3.65a39.29,39.29,0,0,0,13.16.32c5.72-.78,11.3-.46,16.36,2.73,1.22.76,2.36,1.65,3.53,2.49.63.45.6,1.15.75,1.8C147.08,149.42,147,149.44,147,149.42Zm-.35-4.43c1.34,0,1.86.4,2.35,2.06A2.36,2.36,0,0,1,146.65,145Zm1.31,3.49c1.41-.22,2,.56,2.26,1.8C148.49,150.39,148.4,150.32,148,148.48Zm1.11-2.85c2.1-.24,2.26,1.72,3.23,2.72C150.54,148.29,150,146.78,149.07,145.63Zm6.25,7.34a.79.79,0,0,1,.91.06C155.86,153.52,155.61,153,155.32,153Zm.76-1.84c-.71,0-1.46.54-2.14-.16-.2-.21-.51-.22-.62.18-.93.68-1.48.5-2.1-.76-.2-.42-.32-.88-.51-1.39.87,0,1.7-.11,2.2.78A18.48,18.48,0,0,1,156,150c.31,0,.54.07.52.46S156.5,151.13,156.08,151.13Zm-.78-3.53c0,.27,0,.55-.3.65h0c-2.16.06-2.56-.22-3-2.09.76-.23,1.34.38,2,.44h0c.42,0,.87-.16,1.25.17l1.8.09c.41,0,.56.26.62.6s-.36.28-.56.41C156.46,148.31,155.92,147.67,155.3,147.6Zm1.86,2.79c-.11-.61.35-.39.59-.41s.82-.11,1,.46c-.09.47-.51.38-.83.46S157.24,150.83,157.16,150.39Zm1.42,3c.48-.35.74-.26,1,0C159.3,153.82,159,153.54,158.58,153.37Z"/><path class="cls-1" d="M31.11,97.44a1.19,1.19,0,0,1,.2.35C31.33,97.65,31.22,97.56,31.11,97.44Z"/></g></g></svg>